<svg xmlns="http://www.w3.org/2000/svg" viewBox="0 0 1660.17 923.9"><defs><style>.cls-1{fill:#fff;}.cls-2{fill:#52483f;}.cls-3{fill:#febbb5;}.cls-4{fill:#dae7ec;}</style></defs><g id="Layer_2" data-name="Layer 2"><g id="圖層_1" data-name="圖層 1"><rect class="cls-1" x="954.5" y="378.25" width="705.67" height="477.43" rx="238.72"/><polygon class="cls-1" points="1346.83 923.89 1359.99 824.34 1446.59 824.34 1346.83 923.89"/><rect class="cls-1" y="40.11" width="705.67" height="477.43" rx="238.72"/><polygon class="cls-1" points="392.33 585.75 405.49 486.19 492.09 486.19 392.33 585.75"/><path class="cls-2" d="M279.7,12H500.93c32.64,0,64.33,4.86,94.72,17.21A232.26,232.26,0,0,1,703.21,370.93a236.38,236.38,0,0,1-101,86.48,227,227,0,0,1-65.71,18.31,263.69,263.69,0,0,1-31.66,1.71c-4.77,0-7,1.38-10.13,4.5L434.47,542l-5.4,5.38,10.25,4.25,9-68.22c.43-3.22-3.09-6-6-6H280.85a235.71,235.71,0,0,1-87.61-16.71C130.19,435.49,79.9,381.8,58.66,317.35a233.33,233.33,0,0,1,26.5-200C122.63,60.3,185.22,21.06,253.24,13.47A246.26,246.26,0,0,1,279.7,12c7.72,0,7.74-12,0-12A245.21,245.21,0,0,0,39.07,289.08C51.83,358.91,96.27,421,157.58,456.57a244.44,244.44,0,0,0,102.55,32.06c15.94,1.31,32.07.8,48.05.8H442.33l-6-6-9,68.22c-.72,5.39,6.89,7.58,10.24,4.24l59.83-59.71,8.52-8.51-4.24,1.76c39.21,0,77.15-7.32,112.6-24.47a248,248,0,0,0,91-76C754,323,766.11,234,736.5,157.55,707.41,82.41,641.64,24.47,563,6.28,540.47,1.08,517.77,0,494.81,0H279.7C272,0,272,12,279.7,12Z"/><path class="cls-3" d="M1404.61,581.58a57.9,57.9,0,0,0-3.91-12.26,53.45,53.45,0,0,0-16.42-20.76,56.51,56.51,0,0,0-25-10.62,63.86,63.86,0,0,0-26.53,1.34,74.92,74.92,0,0,0-19,8.07,74.9,74.9,0,0,0-19-8.07,63.89,63.89,0,0,0-26.54-1.34,56.51,56.51,0,0,0-25,10.62,53.39,53.39,0,0,0-16.43,20.76,57.87,57.87,0,0,0-3.9,12.26,69.79,69.79,0,0,0-1.27,12.38,63.75,63.75,0,0,0,4.54,24.7,74.18,74.18,0,0,0,13.25,21.15c1.33,1.54,2.7,3,4,4.43l1.91,2c.58.61,1.12,1.2,1.46,1.61.13.44.27,1,.4,1.55.37,1.59.71,3.43,1,5.06h0c.34,1.63.69,4,1.08,6.26,6.54,38.38,13.62,70.17,34,70.17,16.7,0,20.79-15.86,23.81-27.44,1.62-6.2,4.07-14.64,6.65-14.81,2.59.17,5,8.61,6.63,14.81,3,11.58,7.09,27.44,23.79,27.44,20.37,0,27.45-31.79,34-70.17.39-2.26.74-4.63,1.08-6.26h0c.34-1.63.68-3.47,1-5.06.13-.57.28-1.11.4-1.55.35-.41.88-1,1.46-1.61l1.91-2c1.32-1.41,2.69-2.89,4-4.43a74,74,0,0,0,13.25-21.15,63.75,63.75,0,0,0,4.54-24.7A70.72,70.72,0,0,0,1404.61,581.58Z"/><path class="cls-4" d="M1404.61,581.58a57.9,57.9,0,0,0-3.91-12.26,53.45,53.45,0,0,0-16.42-20.76,56.51,56.51,0,0,0-25-10.62,63.86,63.86,0,0,0-26.53,1.34c-1.49.38-2.94.83-4.37,1.3a119.54,119.54,0,0,1,26,107.27h26.32c.34-.41.87-1,1.44-1.59l1.91-2c1.32-1.41,2.69-2.89,4-4.43a74,74,0,0,0,13.25-21.15,63.75,63.75,0,0,0,4.54-24.7A70.72,70.72,0,0,0,1404.61,581.58Z"/><path class="cls-1" d="M1328.41,540.58a81.06,81.06,0,0,0-14.66,6.77,74.9,74.9,0,0,0-19-8.07,63.89,63.89,0,0,0-26.54-1.34,56.51,56.51,0,0,0-25,10.62,53.39,53.39,0,0,0-16.43,20.76,57.87,57.87,0,0,0-3.9,12.26,69.79,69.79,0,0,0-1.27,12.38,63.75,63.75,0,0,0,4.54,24.7,74.18,74.18,0,0,0,13.25,21.15c1.33,1.54,2.7,3,4,4.43l1.91,2c.57.61,1.1,1.18,1.44,1.59h107.64a119.54,119.54,0,0,0-26-107.27Z"/><path class="cls-2" d="M1405.88,566.29a60.66,60.66,0,0,0-40-33.08c-19-4.89-38.39-.57-55.2,9h6c-19.35-11-42.3-14.86-63.35-6.22-20.28,8.31-34,26.75-37,48.37-3.12,22.48,4.45,43.44,19.26,60.31,3,3.41,6.69,8.81,11.46,9.22,1.76.15,3.59,0,5.35,0h123a50.11,50.11,0,0,0,5.2,0c3.29-.34,4.89-2.42,7-4.66a130.27,130.27,0,0,0,9.77-11.47,71.94,71.94,0,0,0,8.48-71.43c-3-7.08-13.37-1-10.36,6.05,5.89,13.76,5.75,30,.35,43.88-4.23,10.85-11.86,18.84-19.4,27.39l4.24-1.76h-134l4.25,1.76c-10.56-12-20.1-23.23-22.74-39.61-2.9-18,2.64-37.21,16.68-49.18s34.22-14.3,51.55-8.78a68,68,0,0,1,12,5.22c2,1.09,3.7,2.3,6.09,2s4.63-2.09,6.78-3.19a61.84,61.84,0,0,1,26.29-6.9c20.68-.57,39.19,10.39,47.9,29.19C1398.76,579.34,1409.11,573.26,1405.88,566.29Z"/><path class="cls-3" d="M466,226.38a58.63,58.63,0,0,0-3.9-12.26,53.36,53.36,0,0,0-16.43-20.75,56.53,56.53,0,0,0-25-10.63,64.24,64.24,0,0,0-26.54,1.34,75.58,75.58,0,0,0-19,8.07,75.93,75.93,0,0,0-19.05-8.07,64.28,64.28,0,0,0-26.55-1.34,56.52,56.52,0,0,0-25,10.63,53.36,53.36,0,0,0-16.43,20.75,58,58,0,0,0-3.9,12.26A71.92,71.92,0,0,0,283,238.77a63.49,63.49,0,0,0,4.55,24.69,74,74,0,0,0,13.24,21.16c1.33,1.54,2.7,3,4,4.42l1.91,2c.58.61,1.12,1.2,1.46,1.61.13.43.27,1,.4,1.55.37,1.58.72,3.42,1.05,5h0c.33,1.63.68,4,1.07,6.26,6.55,38.39,13.62,70.18,34,70.18,16.71,0,20.8-15.86,23.82-27.45,1.61-6.19,4.06-14.64,6.65-14.81,2.58.17,5,8.62,6.62,14.81,3,11.59,7.09,27.45,23.79,27.45,20.37,0,27.45-31.79,34-70.18.39-2.26.75-4.63,1.08-6.26h0c.34-1.63.68-3.47,1.05-5,.13-.57.28-1.12.4-1.55.35-.41.89-1,1.46-1.61l1.91-2c1.33-1.4,2.69-2.88,4-4.42a73.79,73.79,0,0,0,13.25-21.16,63.86,63.86,0,0,0,4.55-24.69A71.92,71.92,0,0,0,466,226.38Z"/><path class="cls-4" d="M466,226.38a58.63,58.63,0,0,0-3.9-12.26,53.36,53.36,0,0,0-16.43-20.75,56.53,56.53,0,0,0-25-10.63,64.24,64.24,0,0,0-26.54,1.34c-1.49.39-2.94.83-4.36,1.31a119.56,119.56,0,0,1,26,107.27h26.32c.35-.41.88-1,1.44-1.59l1.91-2c1.33-1.4,2.69-2.88,4-4.42a73.79,73.79,0,0,0,13.25-21.16,63.86,63.86,0,0,0,4.55-24.69A71.92,71.92,0,0,0,466,226.38Z"/><path class="cls-1" d="M389.8,185.39a80.4,80.4,0,0,0-14.66,6.76,75.93,75.93,0,0,0-19.05-8.07,64.28,64.28,0,0,0-26.55-1.34,56.52,56.52,0,0,0-25,10.63,53.36,53.36,0,0,0-16.43,20.75,58,58,0,0,0-3.9,12.26A71.92,71.92,0,0,0,283,238.77a63.49,63.49,0,0,0,4.55,24.69,74,74,0,0,0,13.24,21.16c1.33,1.54,2.7,3,4,4.42l1.91,2c.57.6,1.1,1.18,1.44,1.59H415.77a119.56,119.56,0,0,0-26-107.27Z"/><path class="cls-2" d="M467.27,211.09a60.72,60.72,0,0,0-40-33.08c-19-4.88-38.39-.56-55.2,9h6.05c-19.34-11-42.3-14.85-63.35-6.22-20.28,8.31-34,26.76-37.05,48.37-3.12,22.49,4.45,43.45,19.26,60.31,3,3.42,6.69,8.82,11.47,9.23,1.75.15,3.59,0,5.35,0h123c1.7,0,3.51.17,5.21,0,3.28-.34,4.88-2.42,7-4.66a130,130,0,0,0,9.77-11.47,72,72,0,0,0,8.49-71.44c-3-7.08-13.37-1-10.37,6.06,5.89,13.76,5.75,30,.35,43.87-4.23,10.86-11.86,18.84-19.4,27.4l4.24-1.76h-134l4.25,1.76c-10.55-12-20.1-23.24-22.74-39.61-2.89-17.95,2.64-37.22,16.68-49.19s34.23-14.29,51.55-8.78a67.73,67.73,0,0,1,12,5.23c2,1.09,3.71,2.3,6.09,2s4.63-2.1,6.78-3.19A61.74,61.74,0,0,1,409,188c20.69-.58,39.19,10.38,47.9,29.19C460.15,224.15,470.49,218.06,467.27,211.09Z"/></g></g></svg>