<svg xmlns="http://www.w3.org/2000/svg" viewBox="0 0 1643.37 641.16"><defs><style>.cls-1{fill:#e8f8ff;}.cls-2{fill:#fff;}.cls-3{fill:#52483f;}.cls-4{fill:#febbb5;}.cls-5{fill:#dae7ec;}</style></defs><g id="Layer_2" data-name="Layer 2"><g id="圖層_1" data-name="圖層 1"><path class="cls-1" d="M1398.77,89.69H1170.53c-131.29,0-238.72,107.43-238.72,238.72h0c0,131.29,107.43,238.72,238.72,238.72h6.28l68.35,68.21-9-68.21h162.63c131.3,0,238.72-107.43,238.72-238.72h0C1637.49,197.12,1530.07,89.69,1398.77,89.69Z"/><rect class="cls-2" x="45.2" y="40.16" width="705.67" height="477.43" rx="238.72" transform="translate(796.07 557.76) rotate(-180)"/><polygon class="cls-2" points="358.55 585.81 345.38 486.25 258.78 486.25 358.55 585.81"/><path class="cls-3" d="M472.67.06H270.37c-17,0-34.1-.47-51,1.31C138.77,9.89,66,59.12,28.08,130.75c-38.74,73.18-37.33,163.14,3.83,235C72.25,436.18,146.63,483.2,227.62,488.9c7.69.54,15.38.59,23.08.59l-4.24-1.76,59.83,59.71,8.52,8.51c3.33,3.31,11,1.16,10.24-4.25l-9-68.21-6,6H427.21c15.08,0,30.17,0,45.25,0a246.35,246.35,0,0,0,98.68-20.85c64.74-28.47,115.17-85.55,135.77-153.18,21.09-69.23,9.56-146.21-30.8-206.26-40-59.57-105-99.43-176.29-107.6A244,244,0,0,0,472.67.06c-7.73,0-7.74,12,0,12,69.68.2,136.06,32.09,180.25,85.91s62,126.59,47.49,194.66c-14.24,66.94-58.35,125.17-118.61,157.5a230.66,230.66,0,0,1-100,27.18c-14.12.54-28.31.18-42.43.18H310c-2.93,0-6.43,2.77-6,6l9,68.21,10.25-4.24-54.18-54.07-11.58-11.55c-.79-.79-1.55-1.68-2.4-2.4-2.51-2.11-5-1.95-8-1.95a239.89,239.89,0,0,1-65.65-8.72A234.17,234.17,0,0,1,13.67,275.35,232.43,232.43,0,0,1,36.31,140.94a236.29,236.29,0,0,1,90.9-97,233.18,233.18,0,0,1,117.9-31.89q28.88,0,57.75,0H472.67C480.39,12.06,480.4.06,472.67.06Z"/><path class="cls-2" d="M1398.77,83.69H1196.48c-17,0-34.11-.47-51,1.32-80.56,8.52-153.33,57.75-191.26,129.38-38.73,73.18-37.32,163.13,3.84,235,40.34,70.43,114.71,117.45,195.71,123.15,7.69.54,15.38.59,23.08.59l-4.25-1.76,59.84,59.71,8.52,8.5c3.32,3.32,10.95,1.16,10.24-4.24l-9-68.21-6,6h117.18c15.08,0,30.17,0,45.25,0a246.31,246.31,0,0,0,98.67-20.85C1562,523.8,1612.42,466.73,1633,399.1c21.08-69.23,9.56-146.21-30.8-206.26-40-59.57-105-99.43-176.3-107.6a246.11,246.11,0,0,0-27.15-1.55c-7.72,0-7.73,12,0,12,69.68.21,136.07,32.1,180.26,85.92s62,126.59,47.49,194.66c-14.25,66.94-58.36,125.17-118.62,157.5a230.72,230.72,0,0,1-100,27.18c-14.12.54-28.31.18-42.43.18H1236.14c-2.92,0-6.42,2.76-6,6l9,68.21,10.24-4.24L1195.23,577l-11.58-11.55c-.79-.79-1.55-1.68-2.4-2.4-2.51-2.11-5-2-8-2a239.82,239.82,0,0,1-65.64-8.72A234.13,234.13,0,0,1,939.78,359a232.41,232.41,0,0,1,22.63-134.4,236.38,236.38,0,0,1,90.91-97,233.16,233.16,0,0,1,117.9-31.9h227.55C1406.49,95.69,1406.51,83.69,1398.77,83.69Z"/><path class="cls-4" d="M486.48,226.44a57.87,57.87,0,0,0-3.9-12.26,53.45,53.45,0,0,0-16.42-20.76,56.51,56.51,0,0,0-25-10.62,63.84,63.84,0,0,0-26.53,1.34,74.92,74.92,0,0,0-19,8.07,75.06,75.06,0,0,0-19.05-8.07A63.89,63.89,0,0,0,350,182.8a56.46,56.46,0,0,0-25,10.62,53.39,53.39,0,0,0-16.43,20.76,57.3,57.3,0,0,0-3.9,12.26,69.79,69.79,0,0,0-1.27,12.38,63.75,63.75,0,0,0,4.54,24.7,74,74,0,0,0,13.25,21.15c1.33,1.54,2.69,3,4,4.43l1.91,2c.57.61,1.11,1.2,1.46,1.61.12.44.27,1,.4,1.55.37,1.59.71,3.43,1.05,5.06h0c.33,1.63.69,4,1.08,6.26,6.54,38.38,13.62,70.18,34,70.18,16.7,0,20.79-15.87,23.81-27.45,1.62-6.2,4.07-14.64,6.65-14.81,2.58.17,5,8.61,6.63,14.81,3,11.58,7.09,27.45,23.79,27.45,20.37,0,27.44-31.8,34-70.18.39-2.26.74-4.63,1.08-6.26h0c.34-1.63.68-3.47,1.05-5.06.13-.57.27-1.11.4-1.55.34-.41.88-1,1.46-1.61l1.91-2c1.32-1.41,2.69-2.89,4-4.43a73.93,73.93,0,0,0,13.24-21.15,63.57,63.57,0,0,0,4.55-24.7A69.79,69.79,0,0,0,486.48,226.44Z"/><path class="cls-5" d="M486.48,226.44a58,58,0,0,0-3.9-12.26,53.45,53.45,0,0,0-16.42-20.76,56.51,56.51,0,0,0-25-10.62,63.84,63.84,0,0,0-26.53,1.34c-1.49.38-2.94.83-4.37,1.3a119.56,119.56,0,0,1,26,107.27h26.33c.34-.41.87-1,1.44-1.59l1.91-2c1.32-1.41,2.69-2.89,4-4.43a73.93,73.93,0,0,0,13.24-21.15,63.57,63.57,0,0,0,4.55-24.7A69.79,69.79,0,0,0,486.48,226.44Z"/><path class="cls-2" d="M410.29,185.44a80.44,80.44,0,0,0-14.66,6.77,75.06,75.06,0,0,0-19.05-8.07A63.89,63.89,0,0,0,350,182.8a56.46,56.46,0,0,0-25,10.62,53.39,53.39,0,0,0-16.43,20.76,57.48,57.48,0,0,0-3.9,12.26,69.79,69.79,0,0,0-1.27,12.38,63.75,63.75,0,0,0,4.54,24.7,74,74,0,0,0,13.25,21.15c1.33,1.54,2.69,3,4,4.43l1.91,2c.57.61,1.1,1.18,1.44,1.59H436.26a119.56,119.56,0,0,0-26-107.27Z"/><path class="cls-3" d="M487.76,211.15a60.65,60.65,0,0,0-40-33.08c-19-4.89-38.39-.57-55.2,9h6.06c-19.35-11-42.3-14.86-63.36-6.22-20.27,8.31-34,26.75-37,48.37-3.13,22.48,4.45,43.44,19.26,60.31,3,3.41,6.69,8.81,11.46,9.22,1.76.16,3.59,0,5.35,0h123a50.3,50.3,0,0,0,5.21,0c3.29-.34,4.89-2.42,7-4.66a130.27,130.27,0,0,0,9.77-11.47,71.94,71.94,0,0,0,8.48-71.43c-3-7.08-13.37-1-10.36,6,5.89,13.76,5.75,30,.35,43.88-4.23,10.85-11.87,18.84-19.41,27.39l4.25-1.76h-134l4.24,1.76c-10.55-12-20.09-23.23-22.73-39.61-2.9-18,2.64-37.21,16.67-49.18s34.23-14.3,51.56-8.78a68.34,68.34,0,0,1,12,5.22c2,1.09,3.7,2.3,6.09,2s4.62-2.09,6.78-3.19A62,62,0,0,1,429.5,188c20.68-.57,39.19,10.39,47.9,29.19C480.64,224.21,491,218.12,487.76,211.15Z"/><path class="cls-4" d="M1379.53,286a58.08,58.08,0,0,0-3.91-12.26A53.4,53.4,0,0,0,1359.2,253a56.52,56.52,0,0,0-25-10.63,64,64,0,0,0-26.53,1.35,75.25,75.25,0,0,0-19,8.06,75.24,75.24,0,0,0-19.05-8.06,64.06,64.06,0,0,0-26.54-1.35,56.52,56.52,0,0,0-25,10.63,53.43,53.43,0,0,0-16.43,20.75,58,58,0,0,0-3.9,12.26,70,70,0,0,0-1.27,12.39,63.75,63.75,0,0,0,4.54,24.7,74.32,74.32,0,0,0,13.25,21.15c1.33,1.54,2.7,3,4,4.42l1.91,2c.58.61,1.12,1.2,1.46,1.61.13.43.27,1,.4,1.55.37,1.58.71,3.42,1.05,5.05h0c.34,1.64.69,4,1.08,6.26,6.54,38.39,13.62,70.18,34,70.18,16.7,0,20.79-15.86,23.82-27.45,1.61-6.19,4.06-14.64,6.64-14.81,2.59.17,5,8.62,6.63,14.81,3,11.59,7.09,27.45,23.79,27.45,20.37,0,27.45-31.79,34-70.18.39-2.25.75-4.62,1.08-6.26h0c.34-1.63.68-3.47,1-5.05.13-.57.28-1.12.4-1.55.35-.41.89-1,1.46-1.61l1.91-2c1.32-1.4,2.69-2.88,4-4.42a74.1,74.1,0,0,0,13.25-21.15,63.75,63.75,0,0,0,4.54-24.7A70.93,70.93,0,0,0,1379.53,286Z"/><path class="cls-5" d="M1379.53,286a58.08,58.08,0,0,0-3.91-12.26A53.4,53.4,0,0,0,1359.2,253a56.52,56.52,0,0,0-25-10.63,64,64,0,0,0-26.53,1.35c-1.49.38-2.94.82-4.36,1.3a119.56,119.56,0,0,1,26,107.27h26.32c.34-.41.87-1,1.44-1.59l1.91-2c1.32-1.4,2.69-2.88,4-4.42a74.1,74.1,0,0,0,13.25-21.15,63.75,63.75,0,0,0,4.54-24.7A70.93,70.93,0,0,0,1379.53,286Z"/><path class="cls-2" d="M1303.34,245a80.8,80.8,0,0,0-14.67,6.76,75.24,75.24,0,0,0-19.05-8.06,64.06,64.06,0,0,0-26.54-1.35,56.52,56.52,0,0,0-25,10.63,53.43,53.43,0,0,0-16.43,20.75,58,58,0,0,0-3.9,12.26,70,70,0,0,0-1.27,12.39,63.57,63.57,0,0,0,4.55,24.7,74.07,74.07,0,0,0,13.24,21.15c1.33,1.54,2.7,3,4,4.42l1.91,2c.57.6,1.1,1.18,1.44,1.59h107.64a119.56,119.56,0,0,0-26-107.27Z"/><path class="cls-3" d="M1380.8,270.69a60.68,60.68,0,0,0-40-33.08c-19-4.88-38.39-.56-55.2,9h6c-19.35-11-42.3-14.85-63.35-6.22-20.28,8.32-34,26.76-37,48.37-3.12,22.49,4.45,43.45,19.26,60.31,3,3.42,6.69,8.82,11.46,9.23,1.76.15,3.6,0,5.35,0h123c1.7,0,3.51.17,5.2,0,3.29-.34,4.89-2.42,7-4.66a128.59,128.59,0,0,0,9.77-11.47,72,72,0,0,0,8.48-71.44c-3-7.08-13.37-1-10.36,6.06,5.89,13.76,5.75,30,.35,43.87-4.23,10.86-11.86,18.84-19.4,27.4l4.24-1.76h-134l4.25,1.76c-10.56-12-20.1-23.23-22.74-39.61-2.9-18,2.64-37.21,16.68-49.18s34.22-14.3,51.55-8.79a68.8,68.8,0,0,1,12,5.23c2,1.09,3.7,2.3,6.09,2s4.63-2.1,6.78-3.19a61.84,61.84,0,0,1,26.29-6.9c20.68-.58,39.19,10.38,47.9,29.19C1373.68,283.75,1384,277.66,1380.8,270.69Z"/></g></g></svg>