<svg xmlns="http://www.w3.org/2000/svg" viewBox="0 0 1764.53 1542.55"><defs><style>.cls-1{fill:#fff;}.cls-2{fill:#52483f;}.cls-3{fill:#ffedb8;}.cls-4{fill:#febbb5;}</style></defs><g id="Layer_2" data-name="Layer 2"><g id="圖層_1" data-name="圖層 1"><path class="cls-1" d="M790.27,571.28S653.58,729.87,681.11,920.38c28.55,197.59,196,482.24,592,352.63l-20-154.8S1060.05,1057,1006.68,938.48C969.27,855.44,910.87,608.2,790.27,571.28Z"/><path class="cls-2" d="M344,204.9s-14,81.52-126.21,121.44S84.68,438.84,104.46,487.9s123,81.58,182.45,18.55c0,0-40.7,75.89,18.26,91.05s174.26,103.17,365-18.44S687.83,235.3,687.83,235.3Z"/><path class="cls-3" d="M342.92,547.69c52.55-25.88,118-41.24,188.9-41.24s136.34,15.36,188.9,41.24c75.88,37.37,124.93,96.69,124.93,163.49V1118.6c0,77.81-72.08,141.47-160.18,141.47H378.17c-88.1,0-160.18-63.66-160.18-141.47V711.18C218,644.38,267,585.06,342.92,547.69Z"/><polygon class="cls-1" points="605.68 356.62 605.68 526.1 531.82 597.5 457.95 526.1 457.95 356.62 605.68 356.62"/><path class="cls-2" d="M599.68,356.62V526.1l1.76-4.25-64.76,62.61-9.1,8.8h8.48L471.3,530.65l-9.1-8.8L464,526.1V356.62l-6,6H605.68c7.73,0,7.74-12,0-12H458a6.09,6.09,0,0,0-6,6V474c0,16.92-.47,33.91,0,50.83.14,4.77,3.32,7,6.53,10.12l22.61,21.87,46.49,44.93a6.1,6.1,0,0,0,8.48,0l39.43-38.12,25.33-24.48c3.49-3.37,10.34-7.88,10.86-13.11.43-4.26,0-8.78,0-13V356.62C611.68,348.9,599.68,348.88,599.68,356.62Z"/><path class="cls-1" d="M365.47,337.28s12.45-9.3,26.41-3.67,18.42,26.63,7.79,30.55-19.11-1.58-20.49-9.94,7.44-12.76,20.52-13.05"/><path class="cls-2" d="M368.49,342.46c5.21-3.8,12.3-5.67,18.61-4.11,6.88,1.7,12.53,8.4,12.45,15.66-.07,6.67-9.51,7.26-13.06,2.58-6.11-8,8.55-9.25,13.21-9.42,7.7-.28,7.74-12.28,0-12-10.16.37-24.7,3-26.46,15.3-1.66,11.6,8.83,21.15,19.94,21,26.74-.43,20.42-34.81,1.73-43-10.25-4.5-23.38-3-32.47,3.67-6.18,4.51-.2,14.92,6.05,10.36Z"/><path class="cls-1" d="M372.69,298.78a54.84,54.84,0,0,1,15.3,2c-10.45-77.16,10.54-159.16,138.45-167.06,125.07-7.73,152.46,78.85,145.2,179.13-4.09,56.62-16.56,129.55-70.85,159.51C535,508.64,447.56,472.73,413,391.46c-9.79,10.22-21.47,18.64-36.74,18.86-30.25.43-57.26-32.72-57.69-63S342.43,299.21,372.69,298.78Z"/><path class="cls-2" d="M372.69,304.78a54.12,54.12,0,0,1,13.7,1.74c3.35.86,8.13-1.78,7.6-5.79-6.38-47.75-.58-102.21,41.27-132.84,27-19.79,61.42-26.76,94.28-28.39,30-1.5,61.62,2.09,87.18,19,45.8,30.36,51.85,92.4,49.62,142.48-2.72,60.77-13.67,141-75.79,169.78C531,498.33,463,464.31,430.45,412a176.31,176.31,0,0,1-12.24-23.59c-1.55-3.6-7-3.72-9.43-1.22-9.94,10.24-22.19,18.58-37.14,16.9-12.79-1.44-23.95-9.49-32.07-19.09-15.29-18.09-22.38-48.1-3.81-66.51,9.72-9.64,23.56-13.43,36.93-13.74,7.71-.18,7.74-12.18,0-12-15.09.35-30,4.47-41.89,14.1-11.4,9.26-17.65,23.14-18.18,37.71-1.12,30.51,22.29,64.28,52.85,70.62,20.31,4.21,38-5.26,51.8-19.5l-9.43-1.22c26.93,62.65,93.75,110.29,163.71,95.17,34.16-7.38,61.69-29.73,78.15-60.24,16.85-31.23,23.31-67.1,26.71-102.05,5.4-55.43,5.12-123.84-37.37-166-21.56-21.4-51-31.06-80.74-33.51-36.57-3-76.6,2.09-109.85,18.18C423.51,158.1,403.16,178.1,392,203.56c-10.65,24.21-13.45,51.1-11.92,77.32.39,6.64,1.07,13.26,1.95,19.85l7.59-5.78a67.8,67.8,0,0,0-16.89-2.17C365,292.76,365,304.76,372.69,304.78Z"/><path class="cls-1" d="M574.49,397s1.28,31.39-28.34,31.81c-31.75.45-30.14-31-30.14-31"/><path class="cls-2" d="M568.49,397a28,28,0,0,1-2.41,13.06c-3.83,9.27-12.26,13-22,12.73-8.87-.28-16.48-4.42-19.86-12.61A24.87,24.87,0,0,1,522,397.86c.36-7.72-11.65-7.71-12,0-.57,12.39,5.33,25.85,16.19,32.24,9.38,5.52,22.51,6.33,32.65,2.54,9.07-3.4,15.39-10.42,18.81-19.37A42.7,42.7,0,0,0,580.49,397c-.28-7.7-12.28-7.74-12,0Z"/><circle class="cls-2" cx="600.54" cy="317.71" r="8.7"/><circle class="cls-2" cx="485.42" cy="319.36" r="8.7"/><line class="cls-1" x1="544.36" y1="336.02" x2="544.91" y2="374.79"/><path class="cls-2" d="M538.36,336l.55,38.77c.11,7.72,12.11,7.74,12,0L550.36,336c-.11-7.71-12.11-7.73-12,0Z"/><path class="cls-2" d="M587.36,62.52s109.83-37.76,155.08,51.39c45.54,89.74-15,142.69-70,157.69C599.64,291.48,562,228,538.09,190c0,0-25.69,104.47-146.37,105.14,0,0-25-7.51-51,5.22,0,0-102.38-174.08,40.37-254.14C534.19-39.62,587.36,62.52,587.36,62.52Z"/><path class="cls-2" d="M411.91,4.38l-5.06,37.2L415.66,38,383.6,15.12c-6.29-4.49-12.29,5.91-6.05,10.36L409.6,48.35c2.89,2.06,8.32.1,8.82-3.58l5.07-37.2c.44-3.23-.79-6.4-4.19-7.38-2.8-.8-6.95,1-7.39,4.19Z"/><path class="cls-1" d="M638.24,556.21l-96.86,93.63-13.8,13.34h8.48L439.2,569.55l-13.8-13.34c-5.55-5.37-14,3.1-8.48,8.48l96.86,93.63,13.8,13.34a6.1,6.1,0,0,0,8.48,0L632.92,578l13.8-13.34c5.56-5.38-2.93-13.86-8.48-8.48Z"/><path class="cls-1" d="M388,529.18s56.38,448.14,56.38,730.89H219.34S-135.76,610.89,388,529.18Z"/><path class="cls-1" d="M665.78,526s22.76,514.59-6.63,734.06H822.93S1076.29,574.13,665.78,526Z"/><path class="cls-2" d="M693.46,694.31l63.47,60.05,9,8.49L764.37,757l-24.1,84.45L702,975.49l-8.8,30.84c-2.12,7.44,9.45,10.61,11.57,3.19l24.1-84.45,38.24-134,8.8-30.84a6,6,0,0,0-1.55-5.84l-63.47-60-9-8.49c-5.61-5.31-14.11,3.16-8.48,8.48Z"/><path class="cls-2" d="M765.06,591.32l6.3,87.36.89,12.36,4.41-5.79-61.34,17.21c-7.42,2.09-4.27,13.67,3.19,11.58l61.34-17.22c2.38-.67,4.59-3.17,4.4-5.78L778,603.68l-.89-12.36c-.56-7.66-12.56-7.72-12,0Z"/><path class="cls-2" d="M378.82,686.47l-59,64.46L311.49,760a6,6,0,0,0-1.54,5.84l30.11,82.5L387.85,979.3l11,30.13c2.62,7.2,14.22,4.09,11.57-3.19l-30.11-82.5L332.52,792.82l-11-30.13L320,768.53l59-64.46,8.34-9.11c5.2-5.69-3.26-14.2-8.49-8.49Z"/><path class="cls-2" d="M296.79,597.5v100a6.07,6.07,0,0,0,4.41,5.78L363.61,716c7.54,1.54,10.77-10,3.19-11.57l-62.41-12.75,4.4,5.79v-100c0-7.72-12-7.74-12,0Z"/><path class="cls-1" d="M353.71,341.85s12.26-9.55,26.34-4.2S399,363.9,388.44,368s-19.13-1.2-20.67-9.53S375,345.61,388,345.05"/><path class="cls-2" d="M356.74,347c5.12-3.9,12.16-6,18.5-4.57,7,1.54,12.72,8,12.89,15.32.15,6.73-9.19,7.61-12.95,3.06-6.53-7.88,8.22-9.53,12.84-9.79,7.68-.43,7.73-12.43,0-12-10.14.57-24.65,3.44-26.25,15.72-1.51,11.58,9.11,21.06,20.22,20.68s19-7.81,18.05-19.14a29,29,0,0,0-17.3-24c-10.21-4.2-23.23-2.37-32.06,4.35-6.06,4.62-.09,15,6.06,10.36Z"/><path class="cls-2" d="M828.72,1261.67c11.91-32.86,21.74-66.59,30.91-100.3,20-73.31,35.48-148.16,42.91-223.84,4.44-45.22,5.88-90.92,1.59-136.21-.72-7.62-12.73-7.7-12,0,7.63,80.56-2,162.36-17.16,241.49a1588,1588,0,0,1-46.41,181.56c-3.63,11.42-7.33,22.84-11.41,34.11-2.64,7.27,9,10.4,11.57,3.19Z"/><path class="cls-2" d="M1199.53,1135.18,1214,1246.92l2,15.84c1,7.55,13,7.65,12,0L1213.57,1151l-2-15.83c-1-7.55-13-7.65-12,0Z"/><path class="cls-1" d="M1271.3,1252l-12-105.34S1279,1087.24,1314,1086s3.17,47.73,3.17,47.73,105.31-54.22,116.52,23.76C1445,1236,1323.88,1246.11,1271.3,1252Z"/><path class="cls-2" d="M1277.3,1252l-11.1-97.35a64.78,64.78,0,0,0-.77-6.81c-.53-2.37-.94,1.22,0-.47,3.24-6.11,4.86-12.2,8.21-18.59,5.2-9.93,11.41-19.57,19.77-27.15,6.76-6.13,18.17-12.56,27.59-8.78,3,1.19,3.6,3.32,3.51,6.58-.13,4.57-1.56,9.19-3.27,13.59a98,98,0,0,1-9.19,17.73c-3.46,5.33,3.18,10.79,8.21,8.21a172.66,172.66,0,0,1,36.51-13.53c18.24-4.7,43.13-8.36,58.38,5.71,17.28,15.94,17.22,47,4.15,65.37-14.45,20.27-41.12,29.71-64.14,35.9-27.44,7.38-55.67,10.46-83.82,13.59-7.59.85-7.68,12.86,0,12,27.08-3,54.24-5.92,80.76-12.41,26.17-6.41,55.4-16.38,73.38-37.63,17.8-21,20.66-54.79,4.55-77.85-14.78-21.14-41.63-22.85-65-18.76a181.76,181.76,0,0,0-50.86,17.25l8.21,8.21a112.19,112.19,0,0,0,8.86-16.84c3.81-8.92,7.85-20.46,3.33-29.85-5.26-10.93-19.69-11.56-30-8.6-12.4,3.59-22.14,12.84-29.8,22.86a139.17,139.17,0,0,0-16.8,29.3c-1.71,4-4.77,9.08-4.65,13.57.17,6,1.39,12.18,2.07,18.15l3.75,32.95,6.12,53.65C1266.16,1259.57,1278.17,1259.66,1277.3,1252Z"/><path class="cls-2" d="M1356.69,1207.06a285.39,285.39,0,0,0,32-8.73c16.74-5.53,34.94-12.31,47.81-24.85,5.54-5.39-3-13.88-8.49-8.48-11.85,11.55-29.28,17.52-44.71,22.48a285.24,285.24,0,0,1-29.83,8c-7.55,1.55-4.36,13.12,3.19,11.57Z"/><path class="cls-2" d="M1351.12,1173.55a285.8,285.8,0,0,0,32-8.73c16.74-5.54,34.95-12.32,47.81-24.85,5.54-5.4-3-13.88-8.48-8.49-11.86,11.56-29.28,17.53-44.72,22.49a287.5,287.5,0,0,1-29.82,8c-7.56,1.56-4.36,13.13,3.19,11.58Z"/><path class="cls-1" d="M493.74,1259.43s147.64,5.31,150.91,96.39-134.32,8.86-172.49,18.35-70.64-33-45.53-78.72C437.18,1276.22,449.36,1253.49,493.74,1259.43Z"/><path class="cls-2" d="M493.74,1265.43a255.57,255.57,0,0,1,70.49,13.11c35.44,11.67,72.38,35.11,74.38,76.23.42,8.63-.16,18-4.57,25.49a24.41,24.41,0,0,1-14.44,10.87c-16.37,5-35.62.76-52.1-3.11-19.79-4.64-39.12-11-58.84-16a150.49,150.49,0,0,0-24.81-4.49c-8.44-.65-16.36,2.33-24.74,1.87-12-.65-22.74-7.83-28.9-18-7.51-12.34-7.91-27.32-3.65-40.85a94.92,94.92,0,0,1,16.24-29.78,43.14,43.14,0,0,1,27-15.63c7.89-1.32,16.07-.79,24,.21,7.64,1,7.57-11,0-12-15.08-1.91-31.08-1.26-44.62,6.37-9.87,5.57-17.08,14.44-22.83,24-7.82,13.07-14.1,27-14.49,42.48-.38,14.78,4.8,29.71,15.13,40.42A48.07,48.07,0,0,0,464,1381.42a61.06,61.06,0,0,0,10-1.52,10.93,10.93,0,0,1,3.54-.46,59.52,59.52,0,0,1,10.23.53c19.42,2.64,39.21,9.68,58.37,15,30.7,8.43,89.45,25.23,102.26-17.94,6.17-20.79.89-45.62-11.11-63.32-11.86-17.5-29.76-29.88-48.8-38.5-18.14-8.21-37.42-13.63-57-17.18-11.8-2.14-23.93-4-35.94-4.46l-1.8-.09C486,1253.15,486,1265.15,493.74,1265.43Z"/><path class="cls-2" d="M573.7,1320.89a287,287,0,0,1,26.33,16c13.47,9.13,28.43,19.79,36.6,34.24,3.8,6.73,14.17.69,10.36-6.05-8.82-15.61-24.42-27.19-38.9-37.18a288.21,288.21,0,0,0-28.33-17.4c-6.82-3.62-12.89,6.74-6.06,10.36Z"/><path class="cls-2" d="M547.16,1349.93a284.78,284.78,0,0,1,26.33,16c13.47,9.12,28.43,19.78,36.6,34.24,3.8,6.72,14.17.68,10.36-6.06-8.82-15.6-24.43-27.18-38.9-37.17a287.57,287.57,0,0,0-28.33-17.41c-6.82-3.61-12.89,6.74-6.06,10.37Z"/><path class="cls-1" d="M202.36,604.25S28.25,722.54,4,913.5c-25.14,198,60.34,517,476.61,497.66l22-154.54S309.86,1193.5,290,1065.07C276.08,975.06,308.76,672,202.36,604.25Z"/><path class="cls-2" d="M486.4,1413.59l19.24-135.18,2.76-19.35c.47-3.34-.79-6.26-4.2-7.38-26.86-8.81-52.18-21-77.14-35-45.58-25.5-90.78-59.3-115.79-106.29-11.14-20.94-15.86-42.77-17.51-65.5-1.71-23.52-1.92-47.14-2.25-70.7-.84-60.92-1.28-122-7.82-182.63-3.22-29.88-7.77-59.78-15.65-88.81-6.64-24.47-15.66-49-30-70.12A143.29,143.29,0,0,0,227.5,619c-5.09-5.83-13.55,2.69-8.49,8.49,15.84,18.15,25.8,40.91,33.09,63.65,8.9,27.76,14.2,56.67,17.85,85.55,7.77,61.41,8.58,123.47,9.4,185.28.33,24.83.48,49.7,1.87,74.5,1.29,22.94,4.25,45.21,13.3,66.54,21.39,50.41,66.09,87.72,111.87,115.53a508.89,508.89,0,0,0,59.2,30.7c10.94,4.81,22.3,10.22,33.84,13.49.54.15,1.06.36,1.58.53l-4.19-7.38-19.23,135.18-2.76,19.35c-.46,3.24.8,6.41,4.19,7.38,2.81.81,6.93-1,7.38-4.19Z"/><path class="cls-2" d="M445.19,1267.27,429.63,1376.6l-2.22,15.62c-.46,3.23.79,6.41,4.19,7.38,2.81.81,6.92-1,7.38-4.19l15.56-109.33,2.22-15.62c.46-3.23-.79-6.4-4.19-7.38-2.81-.8-6.92,1-7.38,4.19Z"/><path class="cls-4" d="M1100.22,798.34c52.55-25.89,118-41.24,188.9-41.24h0c70.92,0,136.34,15.35,188.9,41.24,75.88,37.37,135.34,86.91,124.07,349.35-8.45,196.64-45.14,341-45.14,341H1021.28s-36.69-144.39-45.14-341C964.87,885.25,1024.34,835.71,1100.22,798.34Z"/><polygon class="cls-1" points="1362.98 607.26 1362.98 776.74 1289.12 848.14 1215.25 776.74 1215.25 607.26 1362.98 607.26"/><path class="cls-2" d="M1357,607.26V776.74l1.76-4.24L1294,835.1l-9.11,8.8h8.49l-64.76-62.6-9.11-8.8,1.76,4.24V607.26l-6,6H1363c7.72,0,7.74-12,0-12H1215.25a6.09,6.09,0,0,0-6,6V724.63c0,16.92-.47,33.92,0,50.83.13,4.78,3.32,7,6.52,10.13l22.62,21.86,46.48,44.94a6.12,6.12,0,0,0,8.49,0l39.43-38.12,25.33-24.49c3.49-3.37,10.34-7.88,10.86-13.11.43-4.26,0-8.77,0-13V607.26C1369,599.54,1357,599.53,1357,607.26Z"/><path class="cls-1" d="M1401.83,800.77l-102.42,99-14.54,14.05h8.49l-102.42-99-14.54-14.05c-5.55-5.37-14.05,3.1-8.48,8.48l102.41,99,14.54,14.06a6.11,6.11,0,0,0,8.49,0l102.42-99,14.54-14.06c5.56-5.38-2.93-13.86-8.49-8.48Z"/><path class="cls-1" d="M1151.23,543.68a54.84,54.84,0,0,1,15.3,2l25,90.73c-9.79,10.22-21.48,18.64-36.74,18.85-30.26.44-57.27-32.71-57.7-63S1121,544.12,1151.23,543.68Z"/><path class="cls-2" d="M1151.23,549.68a54.65,54.65,0,0,1,13.71,1.74l-4.19-4.19,21.88,79.32,3.15,11.42,1.55-5.84c-9.95,10.24-22.19,18.58-37.15,16.89-12.79-1.44-24-9.48-32.07-19.09-15.29-18.08-22.38-48.09-3.8-66.51,9.72-9.64,23.55-13.42,36.92-13.74,7.71-.17,7.74-12.17,0-12-26.82.63-54.28,15.16-59.19,43.64s12.14,59.86,37.44,73.36c13.51,7.21,29.21,8.7,43.44,2.64a66.71,66.71,0,0,0,19.68-13.49c3.14-3,5.55-5.54,4.5-10-3.53-14.92-8.19-29.66-12.26-44.43L1172.32,544a6,6,0,0,0-4.19-4.19,68.35,68.35,0,0,0-16.9-2.17C1143.51,537.67,1143.5,549.67,1151.23,549.68Z"/><path class="cls-1" d="M1127.39,580.72s15.41-2,24.81,9.78,3,32.24-8.24,30.44-15.86-10.77-13-18.73,12.75-7.45,24.28-1.28"/><path class="cls-2" d="M1127.39,586.72c13.26-1.58,27.74,9.18,22.28,23.56-.74,1.94-2,4.49-4.3,4.76-3.36.39-7.67-2.64-8.79-5.74-4.09-11.27,11.47-5.36,15.68-3.19,6.86,3.54,12.93-6.81,6.06-10.36-9.53-4.92-25-9.92-31.79,1.94-5.77,10-.45,22.39,9.57,27,10.88,5,21,.35,25-10.74a28.78,28.78,0,0,0-7.6-30.87,34.66,34.66,0,0,0-26.07-8.41c-7.58.9-7.67,12.91,0,12Z"/><path class="cls-1" d="M1415,543.68a54.84,54.84,0,0,0-15.3,2l-25,90.73c9.79,10.22,21.48,18.64,36.75,18.85,30.25.44,57.26-32.71,57.69-63S1445.26,544.12,1415,543.68Z"/><path class="cls-2" d="M1415,537.68a68.21,68.21,0,0,0-16.89,2.17,6,6,0,0,0-4.19,4.19l-24.11,87.34a34.06,34.06,0,0,0-.93,3.39c-1.12,6.85,9.16,13.26,14,16.75,12.71,9.07,28.77,12.15,43.77,7.42,27.47-8.67,48-38.16,48.4-66.69.22-15.07-5.74-29.85-17.3-39.71-11.93-10.16-27.34-14.5-42.8-14.86-7.72-.17-7.72,11.83,0,12,23.61.55,47.15,13.94,48.07,39.82.89,24.88-17.51,52.35-42.11,58.59-16.64,4.23-30.83-4.41-42-16l1.54,5.84,21.89-79.32,3.15-11.42-4.19,4.19a54.57,54.57,0,0,1,13.7-1.74C1422.72,549.67,1422.74,537.67,1415,537.68Z"/><path class="cls-1" d="M1438.84,580.72s-15.41-2-24.81,9.78-3,32.24,8.24,30.44,15.87-10.77,13-18.73-12.74-7.45-24.28-1.28"/><path class="cls-2" d="M1438.84,574.72c-20.29-2.42-38.59,15-34.71,35.44,2,10.35,10.16,18.89,21.22,16.27s19.17-13.21,16-24.72c-4.4-16-22.55-11.59-33.45-6-6.86,3.54-.8,13.9,6.06,10.36,4.26-2.2,19.76-8.07,15.69,3.19a9.73,9.73,0,0,1-8.34,5.74c-2.57-.07-3.91-2.56-4.76-4.76-5.53-14.37,9.07-25.14,22.28-23.56,7.66.91,7.59-11.1,0-12Z"/><path class="cls-1" d="M1290.3,387.49c125.31.67,146.84,88.88,132.88,188.46-7.88,56.22-24.37,130-81.38,154.41-83.61,35.8-156.41-11.58-183.65-98.42S1110.55,386.54,1290.3,387.49Z"/><path class="cls-2" d="M1290.3,393.49c34.52.29,71.52,7.21,97,32.35,21.34,21.05,30.3,50.94,32.76,80.14,2.94,35-1.71,70.74-8.94,105-7.76,36.68-20.63,76.34-50.52,101.07-15.21,12.58-35.07,19.46-54.32,22.74a113.75,113.75,0,0,1-53-3.44C1216.8,719.87,1190,689.9,1174,656.2c-12.12-25.48-19-54.3-23.6-82.06-4.16-25.19-5.87-51.49-2-76.84,3.77-24.74,13-48.93,30.68-67.1,21.29-21.85,51.39-31.93,81.14-35.22a270.13,270.13,0,0,1,30.1-1.49c7.72,0,7.73-12,0-12-35.88-.1-74.23,5.6-104.1,26.94-22.75,16.26-38,40-45.38,66.77s-7.74,55.24-4.69,82.68a385.16,385.16,0,0,0,17.63,79.94c13,38.68,37.18,75.39,73.65,95.4,36.22,19.86,78.57,18.78,116,2.9,38.62-16.36,59.89-54.34,71.74-92.74,6-19.49,9.9-39.59,12.9-59.75,2.76-18.54,4.74-37.21,4.79-56,.1-32.34-5.11-66.7-23.63-94-19.67-29-51.58-44.53-85.58-49.64a238.9,238.9,0,0,0-33.37-2.53C1282.58,381.43,1282.57,393.43,1290.3,393.49Z"/><path class="cls-1" d="M1316.7,641s.84,31.4-28.79,31.4c-31.75,0-29.69-31.4-29.69-31.4"/><path class="cls-2" d="M1310.7,641a27.92,27.92,0,0,1-2.61,13c-3.89,8.93-12.12,12.65-21.58,12.36-9-.28-16.93-4.46-20.27-13a25.42,25.42,0,0,1-2-12.35c.47-7.71-11.54-7.69-12,0-.75,12.48,5.11,26.09,16,32.57,9.42,5.59,22.69,6.47,32.89,2.62,8.87-3.35,15.11-10.26,18.53-19a42.81,42.81,0,0,0,3-16.21c-.16-7.71-12.16-7.74-12,0Z"/><circle class="cls-2" cx="1343.89" cy="562.08" r="8.7"/><circle class="cls-2" cx="1228.76" cy="562.08" r="8.7"/><line class="cls-1" x1="1287.45" y1="579.58" x2="1287.45" y2="618.36"/><path class="cls-2" d="M1281.45,579.58v38.78c0,7.72,12,7.73,12,0V579.58c0-7.72-12-7.73-12,0Z"/><path class="cls-2" d="M1438.84,542.68s-180.65,1-210.08-88.71c0,0-18.54,79.08-93.82,86.71,0,0-76.35-244.8,152.51-244.8S1438.84,542.68,1438.84,542.68Z"/><path class="cls-2" d="M1281.35,423.57s76.64-14.14,92.8-127.69c12.38-87-49.64-138.87-122.06-134s-113.93,45.38-111.32,115.07C1142.92,334.11,1165.84,419.46,1281.35,423.57Z"/><path class="cls-1" d="M1318.3,291.57c-30.54-6.35-64.9-6.27-94.83,2.62a106.66,106.66,0,0,0-34.93,17.31c-2.58,2-3.9,5.13-2.15,8.21,1.44,2.54,5.65,4.13,8.21,2.15,21.92-16.91,50.2-22,77.3-22.32,14.7-.16,29.34.72,43.21,3.61,7.54,1.56,10.76-10,3.19-11.58Z"/><path class="cls-4" d="M1062,820.31S894.14,881.68,859.43,1046l114,56.82S1078.23,944.07,1062,820.31Z"/><path class="cls-1" d="M1025.83,866.4a355.69,355.69,0,0,0-19.51,37.39c-13.16,28.43-23.92,58.14-30.58,88.79a289.91,289.91,0,0,0-7,61.08c0,7.72,12,7.73,12,0,.09-58.93,20.76-117.71,48.55-169.11,2.2-4.08,4.44-8.15,6.87-12.09,4.06-6.59-6.32-12.63-10.36-6.06Z"/><path class="cls-1" d="M1263,1437.36c-14.67-67.28-91.48-35.32-111.9-26-1.21.26-2.45.51-3.71.76,4.95-8.08,27.4-47.36-4.07-46.28-35.07,1.21-49.1,53.77-49.1,53.77l-13.5-1.24c-41.88-1.19-85.43-14-107.35-56.08-29.15-56,.08-259.54.08-259.54l-114-56.82s-103.3,296.47,23.72,420.76c59.92,58.62,169,83.92,262.36,61.78C1201.18,1516,1276.11,1497.39,1263,1437.36Z"/><path class="cls-2" d="M1268.81,1435.76c-5-22-19-40-41.75-44.67-19-3.87-39,.21-57,6.33-8,2.72-16,7.28-24.2,8.95l6.77,8.81c8-13.11,23.77-43.06,3.56-53-11.49-5.64-26.74-1.16-36.5,6-10,7.31-17.32,17.64-22.81,28.62a114,114,0,0,0-8.38,21.22l5.78-4.4c-13.62-1.25-27.4-1.48-40.88-3.93-17.92-3.24-35.59-9.51-50.15-20.7-12.14-9.33-22.81-23-27.64-36.77-3.7-10.54-5.57-21.73-6.8-32.8-3.22-29-2.7-58.36-1.39-87.43,1.28-28.18,3.62-56.31,6.63-84.36q1.71-16,3.74-32c.23-1.85.47-3.71.72-5.56.08-.63.16-1.26.25-1.89-.28,2.09,0-.13.08-.61l.45-3.23c.36-2.53-.2-5.51-2.76-6.78l-100-49.85-14-7a6.1,6.1,0,0,0-8.81,3.59c-9.3,26.72-16.2,54.45-22.21,82.06-12.54,57.65-20.24,117.29-16.86,176.35C818,1362.51,833.69,1425.27,877,1469c27.15,27.46,62.47,46.15,99,57.92a325.56,325.56,0,0,0,123.46,14.63c20.17-1.5,39.82-5.38,59.48-10,16.3-3.82,32.58-8,48.3-13.88,26.93-10,57.95-26.88,62.65-58.26a66.77,66.77,0,0,0-1-23.7c-1.58-7.55-13.15-4.36-11.57,3.19,2.8,13.43.82,26.89-7.57,38-8.54,11.28-21.49,18.72-34.14,24.49-14.68,6.69-30.34,11.22-45.93,15.21-17.25,4.41-34.72,8.65-52.37,11.08a314.3,314.3,0,0,1-121.29-7.44c-36.37-9.47-72-25.58-100.55-50.42-44.88-39.09-63.11-97.83-68-155.5s1.57-115.79,13-172.2q6.36-31.41,15-62.33c2.89-10.34,6.78-20.53,9.39-30.92.12-.45.31-.9.46-1.34l-8.81,3.58L956.45,1101l14,7-2.76-6.77c-5.86,40.87-9.79,82.17-11.94,123.4-1.59,30.57-2.36,61.47.73,92,1.2,11.92,2.88,24,6.4,35.44a93.07,93.07,0,0,0,24.62,39.23c15.71,15.11,36.1,24.39,57.25,29,16.3,3.54,33,3.92,49.5,5.44,2.58.23,5.15-2,5.79-4.41,3.54-13.15,10.12-26.72,19.35-36.76,6.95-7.56,16.25-13.35,26.88-12.57,8.36.61,8.45,6.42,6.58,13.78-2.11,8.32-6.16,16.14-10.61,23.44-2.88,4.74,1.86,9.81,6.78,8.82,7.34-1.49,12.21-4.59,19-7.11a168.28,168.28,0,0,1,24.09-7.06c16-3.33,35.21-4.21,48.92,6.3,9.17,7,13.73,17.93,16.21,28.88C1258.94,1446.48,1270.51,1443.29,1268.81,1435.76Z"/><path class="cls-2" d="M1186,1483.9a288.67,288.67,0,0,0,32-8.72c16.74-5.54,34.94-12.32,47.81-24.85,5.54-5.4-2.95-13.88-8.49-8.49-11.86,11.55-29.28,17.52-44.72,22.48a284.4,284.4,0,0,1-29.82,8c-7.56,1.56-4.36,13.13,3.19,11.57Z"/><path class="cls-2" d="M1176.43,1451.39a286,286,0,0,0,32-8.73c16.74-5.54,34.94-12.32,47.81-24.85,5.54-5.4-3-13.88-8.49-8.48-11.86,11.55-29.28,17.52-44.72,22.48a289.39,289.39,0,0,1-29.82,8c-7.56,1.55-4.36,13.12,3.19,11.57Z"/><path class="cls-4" d="M1516.27,820.31S1684.1,881.68,1718.81,1046l-114,56.82S1500,944.07,1516.27,820.31Z"/><path class="cls-1" d="M1542.05,872.46a352,352,0,0,1,18.76,35.79,418,418,0,0,1,29.76,85.9,275.91,275.91,0,0,1,6.9,59.51c0,7.72,12,7.73,12,0-.09-60.82-21.27-121.4-49.84-174.51-2.31-4.29-4.66-8.59-7.22-12.75-4-6.56-14.43-.54-10.36,6.06Z"/><path class="cls-1" d="M1315.21,1437.36c14.67-67.28,91.48-35.32,111.9-26,1.22.26,2.45.51,3.71.76-4.94-8.08-27.39-47.36,4.08-46.28,35.07,1.21,49.09,53.77,49.09,53.77l13.5-1.24c41.88-1.19,85.44-14,107.35-56.08,29.16-56-.07-259.54-.07-259.54l114-56.82s103.29,296.47-23.73,420.76c-59.91,58.62-169,83.92-262.36,61.78C1377.06,1516,1302.12,1497.39,1315.21,1437.36Z"/><path class="cls-2" d="M1321,1439c2.27-10,6.2-19.78,13.9-26.91,6.17-5.7,14.31-8.78,22.55-9.92,16.75-2.31,34.16,2.12,49.85,7.65,7.91,2.79,13.72,6.51,21.93,8.17,4.91,1,9.65-4.09,6.77-8.82a95.57,95.57,0,0,1-9.62-20c-1.17-3.65-2.34-7.69-1.88-11.57.31-2.65,1.23-4.11,4.19-5.08,9.53-3.13,20.57,2.75,27.3,9.1,7.13,6.74,12.27,15.3,16.4,24.13a96.63,96.63,0,0,1,5.82,15.55c.63,2.35,3.21,4.64,5.78,4.41,14.25-1.31,28.59-1.68,42.71-4.11,18.89-3.26,37.73-9.9,53.28-21.33,14.28-10.51,26.25-24.7,32.92-41.23,4.16-10.3,6.18-21.37,7.67-32.33,4.06-30,3.7-60.48,2.46-90.62-1.21-29.23-3.61-58.41-6.71-87.49-1.68-15.81-3.51-31.61-5.76-47.34l-2.76,6.77,100-49.85,14-7-8.82-3.58c8.75,25.14,15.32,51.19,21.12,77.14,12.27,54.86,19.92,111.33,18,167.64-1.93,56.76-14.29,117.67-53,161.4-23.79,26.87-55.87,45.73-89.33,58a314.59,314.59,0,0,1-119.25,18.52c-35.87-1.32-72.18-9.45-106.27-20.57-24.91-8.13-57.77-21.47-63.78-50.3a50.09,50.09,0,0,1,.48-20.4c1.57-7.53-10-10.75-11.57-3.19-3.16,15.1-1.84,30.66,6.52,43.92,7.8,12.39,20,21.43,32.75,28.2,15,7.93,31.27,13.37,47.57,17.89,17,4.69,34.25,8.92,51.57,12,79.11,13.83,169.28-1.67,233.76-51.44a190.21,190.21,0,0,0,57.29-72.79c12.6-27.91,19.45-57.87,22.88-88.22,6.76-59.92.38-121.11-11.1-180.06-6.5-33.42-14.36-67.15-25.57-99.36-.17-.49-.33-1-.51-1.48a6.1,6.1,0,0,0-8.81-3.59l-100.06,49.85-14,7c-2.59,1.29-3.12,4.24-2.76,6.78q.19,1.29.36,2.58c.06.41.12.82.17,1.23.24,1.72,0-.25,0,.38.21,1.54.41,3.07.61,4.61q1.68,13,3.14,26c3,27.24,5.49,54.57,7,82,1.63,29.59,2.44,59.42,0,89-1,11.77-2.44,23.57-5.52,35a79.64,79.64,0,0,1-19.59,34.56c-14.33,15.13-33.48,24-53.58,28.59-15.67,3.56-31.73,3.85-47.67,5.31l5.79,4.4c-4.57-17-13.75-35.14-27.2-46.68-9.78-8.4-23.22-13.8-36.21-10.71-12.09,2.88-15.2,14.31-13.2,25.26,1.89,10.35,7,20.35,12.47,29.27l6.78-8.81c-7.12-1.44-13.91-5.29-20.82-7.77a159.23,159.23,0,0,0-26.33-7.18c-19.45-3.4-40.83-2.72-56.77,10.33-10.39,8.51-16.17,21.16-19.07,34C1307.73,1443.28,1319.29,1446.49,1321,1439Z"/><path class="cls-2" d="M1395.41,1472.33a284.4,284.4,0,0,1-29.82-8c-15.44-5-32.85-10.93-44.72-22.48-5.53-5.39-14,3.08-8.48,8.49,12.86,12.52,31.07,19.31,47.81,24.85a287.91,287.91,0,0,0,32,8.72c7.54,1.55,10.77-10,3.19-11.57Z"/><path class="cls-2" d="M1405,1439.82a286.87,286.87,0,0,1-29.82-8c-15.44-5-32.86-10.93-44.72-22.48-5.53-5.4-14,3.08-8.48,8.48,12.86,12.53,31.07,19.32,47.81,24.85a285.8,285.8,0,0,0,32,8.73c7.54,1.55,10.76-10,3.19-11.57Z"/></g></g></svg>