<svg xmlns="http://www.w3.org/2000/svg" viewBox="0 0 3435.22 1601.52"><defs><style>.cls-1{fill:#fff;}.cls-2{fill:#52483f;}.cls-3{fill:#b6cbd4;}.cls-4{fill:#b1b479;}.cls-5{fill:#ffedb8;}.cls-6{fill:#febbb5;}</style></defs><g id="Layer_2" data-name="Layer 2"><g id="圖層_1" data-name="圖層 1"><path class="cls-1" d="M3318.76,798.09C3268,770.26,3201.69,757,3130.44,756.92h0c-71.25,0-137.53,15.2-191.26,40.93-77.56,37.15-139.07,86.42-137.1,347.63,1.48,195.72-15,381.22,85,381.28l215.84.14,215.85.13c100,.06,95.13-169.27,112.25-381.16C3448.76,925.66,3410.56,848.42,3318.76,798.09Z"/><path class="cls-1" d="M3243.31,798c-50.75-27.83-117.07-41.12-188.33-41.16h0c-71.26,0-137.53,15.19-191.26,40.92-77.57,37.15-139.08,86.42-137.1,347.64,1.48,195.71-15,381.21,85,381.28l215.84.13,215.85.13c100,.07,95.13-169.27,112.25-381.15C3373.31,925.6,3335.11,848.36,3243.31,798Z"/><path class="cls-2" d="M3246.33,792.85c-49.69-27.05-106.77-38.31-162.83-41.24-58.66-3.06-118.16,3.35-174.12,21.57-30,9.76-60,22.74-86.35,40.23a180.44,180.44,0,0,0-48.87,47.41c-16.81,24.21-27.46,52.36-34.81,80.75-11.23,43.36-15.52,88.48-17.53,133.11-1.35,29.79-1.18,59.58-1.11,89.39.07,29.53-.18,59-.27,88.58-.15,51.14-.48,102.67,5.34,153.55,4,34.75,10,74,32.88,102a65.63,65.63,0,0,0,34.39,22.29c8.72,2.21,17.52,2.23,26.45,2.23l48.26,0,137,.09,38.64,0,127.68.08,46.73,0c11.69,0,23.66.82,35.29-.56a72.1,72.1,0,0,0,37-15.29c24.06-19.23,34.87-51.64,41.93-80.46,10.8-44.05,14.64-89.81,18.21-134.91,4.55-57.38,8.45-114.84,12.48-172.26,3.49-49.66,5.05-100-.62-149.53-4-34.49-11.46-69-27.24-100.14a189.55,189.55,0,0,0-53.31-64,267.94,267.94,0,0,0-35.25-22.91c-6.77-3.73-12.83,6.63-6,10.36,23.74,13.06,45.74,29.1,63.12,50.07,18.49,22.31,30.3,49.26,37.64,77.11,10.33,39.22,12.73,80.24,12.73,120.65,0,56.32-5.82,112.45-9.66,168.59-3.47,50.76-6.37,101.67-12.74,152.17-4.51,35.74-10.06,73.89-26.39,106.45-11.43,22.78-29.61,40.71-55.87,42.53-13.5.93-27.25.18-40.78.17l-45,0-73.09,0-138.74-.09-79.27,0-44.91,0c-9.79,0-19.88.74-29.51-1.44-28.7-6.47-42.56-34.44-50.1-60.39-12.06-41.59-13.6-86.18-14.69-129.19-1.39-55.49-.19-111-.33-166.52-.14-53.52.14-107.07,7.15-160.23,4.54-34.41,11.64-69.38,25.53-101.35,9.69-22.29,22.62-42.48,40.11-59.14,14.75-14,32-24.75,50.55-34.21,43.75-22.3,91.56-36.06,140.27-41.91,57.22-6.88,116.89-4.41,172.86,9.72,24.69,6.24,48.71,15,71.1,27.15C3247.06,806.9,3253.13,796.54,3246.33,792.85Z"/><path class="cls-1" d="M2456.58,1398.23l-96.91-43s-62.56,1-74.22,34,44.58,17.32,44.58,17.32-83.28,84.23-12.24,118.28C2389.24,1559.12,2435.22,1446.64,2456.58,1398.23Z"/><path class="cls-2" d="M2459.61,1393.05c-31.83-14.13-63.61-28.35-95.48-42.38-4.17-1.84-7.81-1.38-12.31-1a154.44,154.44,0,0,0-32.27,6c-11.88,3.69-24.13,9.36-32.35,19-6.95,8.17-13.07,21.86-6.8,32.06,5.84,9.52,19.28,10.12,29.19,9.39a114.42,114.42,0,0,0,22-3.76l-5.84-10a189.41,189.41,0,0,0-27.76,36.42c-11.8,20-21.38,46.18-9.33,68.28,12.94,23.72,46.09,35.06,71.42,28,26.47-7.39,45.8-30.54,60.36-52.55,16.82-25.43,29-53.43,41.28-81.23,3.09-7-7.25-13.12-10.36-6.06-10,22.67-19.93,45.4-32.39,66.86s-28.1,44.6-50.64,56.75c-21.24,11.45-49.57,6.56-65.43-12.11-14.25-16.77-6.38-40.32,2.93-57.42a172.87,172.87,0,0,1,28.41-38.45c4.18-4.24,0-11.65-5.84-10a105.77,105.77,0,0,1-14.65,2.93,71.63,71.63,0,0,1-13.09.5c-3.14-.19-6.86-1.09-8.87-2.45a4,4,0,0,1-1.62-2.11,9.46,9.46,0,0,1-.07-5,26.64,26.64,0,0,1,7.14-13.28c7.63-8,18.42-12.25,28.84-15.14a143.45,143.45,0,0,1,27.18-4.7c1.62-.12,4.66.32,6.17-.34,1.1-.48-3.92-1.61-2.49-.67a14.18,14.18,0,0,0,1.91.84l48.93,21.72,45.73,20.3C2460.55,1406.52,2466.66,1396.18,2459.61,1393.05Z"/><path class="cls-2" d="M2377.91,1460a287.86,287.86,0,0,1-16.55,26c-9.39,13.3-20.37,28-35,35.88-6.8,3.67-.75,14,6.06,10.36,15.77-8.51,27.62-23.94,37.89-38.21a287.66,287.66,0,0,0,17.95-28c3.75-6.76-6.61-12.82-10.36-6.06Z"/><path class="cls-2" d="M2347.6,1444.6a284,284,0,0,1-16.54,26c-9.4,13.3-20.38,28-35,35.89-6.8,3.66-.75,14,6,10.36,15.78-8.51,27.63-23.94,37.89-38.21a286.7,286.7,0,0,0,18-28c3.75-6.75-6.61-12.81-10.37-6.05Z"/><path class="cls-1" d="M1838.05,510.84s-312.61-17.35-292.54-294.5l-182.66-19.55S1272.49,593.7,1501.93,764.7c233.4,173.95,362.39,178,362.39,178S1805.2,650.85,1838.05,510.84Z"/><path class="cls-3" d="M2215.85,510.84c-52.56-25.88-118-41.23-188.9-41.23S1890.6,485,1838.05,510.84c-75.88,37.37-124.94,96.7-124.94,163.5v407.41c0,77.81,72.08,141.48,160.18,141.48H2180.6c88.1,0,160.18-63.67,160.18-141.48V674.34C2340.78,607.54,2291.73,548.21,2215.85,510.84Z"/><polygon class="cls-1" points="1953.08 319.77 1953.08 489.25 2026.95 560.65 2100.81 489.25 2100.81 319.77 1953.08 319.77"/><path class="cls-2" d="M1947.08,319.77V437.14c0,16.92-.47,33.92,0,50.83.13,4.78,3.32,7,6.52,10.13L1976.22,520l46.48,44.94a6.12,6.12,0,0,0,8.49,0l39.43-38.12L2096,502.29c3.49-3.37,10.34-7.88,10.86-13.11.43-4.26,0-8.77,0-13V319.77a6.09,6.09,0,0,0-6-6H1953.08c-7.72,0-7.73,12,0,12h147.73l-6-6V489.25l1.76-4.24-64.76,62.6-9.11,8.8h8.49l-64.76-62.6-9.11-8.8,1.76,4.24V319.77C1959.08,312.05,1947.08,312,1947.08,319.77Z"/><path class="cls-1" d="M1905.75,521.76l102.41,99,14.54,14.06a6.12,6.12,0,0,0,8.49,0l102.42-99,14.54-14c5.56-5.38-2.93-13.86-8.49-8.49l-102.42,99-14.54,14.05h8.49l-102.42-99-14.54-14.06c-5.55-5.37-14,3.11-8.48,8.49Z"/><path class="cls-1" d="M2215.85,510.84s-71.74,429.63-71.74,712.39h195.32S2692.57,609.28,2215.85,510.84Z"/><path class="cls-1" d="M1864.32,499.22s5.9,504.54,35.29,724H1735.83S1486.52,605.5,1864.32,499.22Z"/><path class="cls-2" d="M1836.09,663l-59,64.46-8.34,9.11a6,6,0,0,0-1.54,5.84l30.11,82.49,47.79,130.93,11,30.13c2.62,7.19,14.23,4.08,11.57-3.19l-30.11-82.5-47.79-130.93-11-30.12-1.54,5.84,59-64.46,8.34-9.12c5.21-5.69-3.26-14.19-8.49-8.48Z"/><path class="cls-2" d="M1754.06,574.05V674c0,2.49,1.85,5.27,4.41,5.79l62.41,12.75c7.54,1.54,10.77-10,3.19-11.57l-62.41-12.75,4.4,5.78v-100c0-7.73-12-7.74-12,0Z"/><path class="cls-2" d="M2211.28,668.5l59,64.46,8.34,9.12-1.54-5.84L2247,818.73l-47.79,130.93-11,30.13c-2.65,7.26,8.94,10.39,11.57,3.19l30.12-82.5,47.79-130.93,11-30.12a6,6,0,0,0-1.54-5.84l-59-64.46-8.34-9.11c-5.23-5.71-13.7,2.79-8.49,8.48Z"/><path class="cls-2" d="M2289.8,571.05V671l4.41-5.78L2231.79,678c-7.56,1.54-4.36,13.11,3.19,11.57l62.42-12.75a6.06,6.06,0,0,0,4.4-5.79v-100c0-7.73-12-7.74-12,0Z"/><path class="cls-1" d="M2403.3,612s404.16,317.49,65.44,809l-166.86-67.79s72.55-189.37,52.44-278.2S2313.38,700.41,2403.3,612Z"/><path class="cls-2" d="M1747.57,525c-13.58,11.14-24.64,26.35-34.33,40.79-26.19,39-43.07,84-52.72,129.84-8.13,38.54-11.25,78-10.7,117.37.11,7.71,12.11,7.74,12,0-.86-61.95,7.51-124.52,30.76-182.25,12.45-30.9,29.6-61.09,51.41-85.26a114.06,114.06,0,0,1,12.07-12c6-4.9-2.56-13.34-8.49-8.48Z"/><path class="cls-2" d="M2384.91,627.38c-30.49,42.15-41.26,97.17-47.7,147.72-7.5,59-7.83,118.89-4.3,178.16,1.5,25.3,3.77,50.57,7.08,75.7,2.52,19.13,6.54,37.85,9.79,56.84,4.19,24.49,2,50.31-1.4,74.76-3.87,28.19-10.08,56.06-17.3,83.57-9.67,36.87-22,72.69-34.34,108.69-.2.58-.43,1.15-.65,1.72-1.25,3.27,1.43,6.26,4.19,7.38l56.18,22.82,90.08,36.59,20.6,8.37c7.15,2.91,10.26-8.7,3.19-11.57l-56.17-22.82-90.09-36.59-20.6-8.37,4.19,7.38c11.35-29.63,20.93-60,29.57-90.56,7.68-27.12,14.42-54.55,19.37-82.32,4.69-26.34,8.2-53.33,7.05-80.14-.85-19.76-6.08-38.87-9.14-58.34-3.64-23.09-6.12-46.36-8-69.65-4.65-58.31-5.41-117.23-.15-175.52,2.57-28.51,6.69-57,13.6-84.77,6-24,14-47.91,26.45-69.4q4.08-7,8.83-13.59c4.53-6.27-5.88-12.26-10.36-6.06Z"/><path class="cls-2" d="M2476.56,1366.68,2359,1318.94l-16.66-6.76c-7.15-2.91-10.26,8.69-3.19,11.57l117.54,47.74,16.65,6.77c7.15,2.9,10.26-8.7,3.19-11.58Z"/><path class="cls-2" d="M1518.71,256.41l-120.6-12.91-17.25-1.85c-7.67-.82-7.61,11.19,0,12l120.61,12.91,17.24,1.85c7.67.82,7.61-11.19,0-12Z"/><path class="cls-1" d="M1390.87,200.66l105.35,12s59.4-19.68,60.6-54.75-47.73-3.15-47.73-3.15,54.19-105.33-23.79-116.51C1406.86,27,1396.74,148.08,1390.87,200.66Z"/><path class="cls-2" d="M1390.87,206.66l102.4,11.64c3.77.43,6.23-.42,9.78-1.82a160.22,160.22,0,0,0,27.78-14c10.52-6.77,20.88-15.31,26.91-26.5,5.3-9.85,8.44-25.4.27-34.68-12.85-14.58-39.31,0-52,8.24l8.21,8.21a189.47,189.47,0,0,0,15.52-42.61c5.25-22.24,7-49.64-10.16-67.42-19-19.71-54.8-21.21-77.18-6.88-23.39,15-35.1,43-42.43,68.66-8.5,29.71-11.74,60.53-15.15,91.14-.85,7.67,11.16,7.61,12,0,2.74-24.6,5.42-49.22,11-73.38,5.6-24.37,13.75-51.39,32.21-69.3C1457.12,41.44,1486,38.2,1506,51.81c17.72,12,17.1,36.52,13.35,55.23a185.07,185.07,0,0,1-9.74,32c-1.28,3.23-2.14,5.27-3.89,9-.57,1.23-1.15,2.45-1.76,3.66-2.58,5,2.87,11.67,8.21,8.21a105.92,105.92,0,0,1,15-8,57.14,57.14,0,0,1,12.28-4c3.28-.63,6.59-.64,8.75.58A5.38,5.38,0,0,1,1550,151a17.19,17.19,0,0,1,.79,6.93,29.68,29.68,0,0,1-5,14.63c-5.88,9.3-15.25,16.19-24.56,21.77a149,149,0,0,1-23.11,11.26c-.84.32-1.77.56-2.57.95-1.56.76-.47-.27.54.13a16.47,16.47,0,0,0-3.85-.44l-53.7-6.1-47.75-5.43C1383.21,193.79,1383.28,205.8,1390.87,206.66Z"/><path class="cls-2" d="M1447.35,118.44a286.78,286.78,0,0,1,8-29.82c5-15.44,10.92-32.86,22.47-44.73,5.39-5.53-3.08-14-8.48-8.48-12.53,12.86-19.31,31.07-24.84,47.81a288.67,288.67,0,0,0-8.72,32c-1.54,7.54,10,10.76,11.58,3.19Z"/><path class="cls-2" d="M1480.86,124a286.83,286.83,0,0,1,8-29.82c5-15.44,10.92-32.86,22.47-44.73,5.39-5.53-3.09-14-8.49-8.48-12.52,12.86-19.31,31.07-24.83,47.81a286.51,286.51,0,0,0-8.72,32c-1.55,7.54,10,10.76,11.57,3.19Z"/><ellipse class="cls-2" cx="1913.75" cy="171.16" rx="145.69" ry="105.76" transform="translate(11.73 443.32) rotate(-13.25)"/><ellipse class="cls-2" cx="2116.4" cy="177.5" rx="105.76" ry="145.69" transform="translate(494.37 1548.51) rotate(-45)"/><path class="cls-1" d="M2156.74,260.8a54.84,54.84,0,0,0-15.3,2l-25,90.73c9.79,10.21,21.48,18.63,36.74,18.85,30.26.43,57.27-32.71,57.7-63S2187,261.23,2156.74,260.8Z"/><path class="cls-2" d="M2156.74,254.8a67.88,67.88,0,0,0-16.9,2.17,6,6,0,0,0-4.19,4.19l-24.1,87.34a32.63,32.63,0,0,0-.93,3.39c-1.12,6.84,9.15,13.26,14,16.74,12.72,9.07,28.78,12.16,43.77,7.42,27.48-8.67,48-38.15,48.41-66.68.22-15.07-5.74-29.85-17.3-39.71-11.93-10.16-27.34-14.5-42.8-14.86-7.73-.18-7.72,11.82,0,12,23.61.55,47.15,13.93,48.07,39.81.89,24.88-17.51,52.36-42.11,58.6-16.64,4.22-30.83-4.41-42.06-16l1.55,5.84,21.88-79.31,3.15-11.42-4.19,4.19a54.65,54.65,0,0,1,13.71-1.74C2164.46,266.79,2164.47,254.79,2156.74,254.8Z"/><path class="cls-1" d="M2180.58,297.83s-15.41-2-24.81,9.79-2.95,32.24,8.24,30.43,15.86-10.77,12.95-18.72-12.75-7.46-24.28-1.28"/><path class="cls-2" d="M2180.58,291.83c-20.3-2.41-38.59,15-34.72,35.45,2,10.34,10.16,18.89,21.23,16.27s19.17-13.21,16-24.73c-4.39-16-22.54-11.58-33.44-5.95-6.87,3.54-.8,13.9,6.06,10.36,4.26-2.2,19.76-8.07,15.68,3.19-1.09,3-5.07,5.82-8.33,5.73-2.58-.06-3.91-2.55-4.76-4.75-5.53-14.37,9.06-25.14,22.28-23.57,7.65.91,7.59-11.09,0-12Z"/><path class="cls-1" d="M1893,260.8a54.84,54.84,0,0,1,15.3,2l25,90.73c-9.79,10.21-21.48,18.63-36.75,18.85-30.25.43-57.26-32.71-57.69-63S1862.71,261.23,1893,260.8Z"/><path class="cls-2" d="M1893,266.8a54.57,54.57,0,0,1,13.7,1.74l-4.19-4.19,21.89,79.32,3.15,11.41,1.54-5.84c-9.94,10.24-22.19,18.58-37.14,16.9-12.79-1.44-24-9.49-32.07-19.09C1844.56,329,1837.47,299,1856,280.54c9.73-9.64,23.56-13.43,36.93-13.74,7.71-.18,7.74-12.18,0-12-26.82.62-54.28,15.16-59.19,43.64s12.14,59.86,37.44,73.36c13.51,7.21,29.21,8.7,43.44,2.64a66.51,66.51,0,0,0,19.67-13.5c3.15-3,5.56-5.53,4.5-10-3.53-14.91-8.18-29.65-12.26-44.42l-12.52-45.37a6,6,0,0,0-4.19-4.19A67.74,67.74,0,0,0,1893,254.8C1885.25,254.79,1885.24,266.79,1893,266.8Z"/><path class="cls-1" d="M1869.13,297.83s15.41-2,24.81,9.79,3,32.24-8.24,30.43-15.87-10.77-13-18.72,12.74-7.46,24.28-1.28"/><path class="cls-2" d="M1869.13,303.83c13.26-1.58,27.74,9.18,22.28,23.57-.74,1.93-2,4.49-4.3,4.75-3.36.39-7.67-2.63-8.8-5.73-4.08-11.27,11.48-5.37,15.69-3.19,6.85,3.53,12.93-6.82,6.06-10.36-9.54-4.93-25-9.92-31.79,1.93-5.77,10.06-.45,22.39,9.57,27.05,10.87,5.06,21,.36,25-10.73a28.8,28.8,0,0,0-7.6-30.88,34.66,34.66,0,0,0-26.07-8.41c-7.58.9-7.67,12.91,0,12Z"/><path class="cls-1" d="M2017.67,104.61c-125.31.66-146.84,88.88-132.88,188.45,7.88,56.22,24.37,130,81.38,154.41,83.61,35.8,156.4-11.57,183.65-98.41S2197.42,103.66,2017.67,104.61Z"/><path class="cls-2" d="M2017.67,98.61c-37.41.31-77,8.3-104.77,35.16-23.34,22.59-33.53,54.39-36.67,86-3.69,37.07,1.39,75.22,9.06,111.49,8.22,38.89,22.54,81.34,54.59,107.17,31.11,25.08,77.5,33.39,115.7,22.28,38.53-11.21,68.29-41.18,86.26-76.26,14-27.39,22-58.43,27.09-88.68,4.72-27.91,6.51-56.46,2.23-84.54-4.08-26.76-14.69-52.8-33.77-72.4-23.13-23.75-55.4-34.66-87.67-38.51a264,264,0,0,0-32-1.71c-7.72,0-7.74,12,0,12,33.66-.1,69.11,5,97.28,24.76,20.8,14.59,34.28,36.72,40.86,61C2169,245,2159.13,298.81,2144.48,346c-11.29,36.4-32.42,71.46-65.74,91.52s-72.87,19.85-108.21,5.31c-36.58-15-55.92-51.39-66.76-87.47a396.35,396.35,0,0,1-16.67-108.26c-.34-30.47,3.93-62.61,20.9-88.65,17.71-27.18,47.57-40.85,78.83-45.65a216.44,216.44,0,0,1,30.84-2.2C2025.39,110.55,2025.41,98.55,2017.67,98.61Z"/><path class="cls-1" d="M1991.27,358.12s-.84,31.4,28.79,31.4c31.75,0,29.69-31.4,29.69-31.4"/><path class="cls-2" d="M1985.27,358.12c-.28,12.82,5.79,27.05,17.39,33.31,18.54,10,43.31,2.15,50.64-17.77a39.57,39.57,0,0,0,2.45-15.54c-.46-7.68-12.47-7.73-12,0a25.55,25.55,0,0,1-2,12.35c-3.34,8.57-11.22,12.75-20.27,13-9.45.29-17.69-3.43-21.58-12.36a27.8,27.8,0,0,1-2.61-13c.16-7.73-11.84-7.73-12,0Z"/><circle class="cls-2" cx="1964.08" cy="279.19" r="8.7"/><circle class="cls-2" cx="2079.21" cy="279.19" r="8.7"/><line class="cls-1" x1="2020.52" y1="296.7" x2="2020.52" y2="335.47"/><path class="cls-2" d="M2014.52,296.7v38.77c0,7.72,12,7.74,12,0V296.7c0-7.73-12-7.74-12,0Z"/><path class="cls-2" d="M1874.28,259.8c39.14,3,79.1-80.82,79.1-80.82,36.08,87.87,116.07,45.06,132-3.43,0,0,17.55,74.61,92.82,82.25,0,0,94.89-257.8-154.5-257.8C1794.82,0,1835.14,256.84,1874.28,259.8Z"/><path class="cls-3" d="M2000.5,279.19c-.25,15.13-9.53,29.11-24,34.25a36.45,36.45,0,1,1,24-34.25c.12,7.72,12.12,7.74,12,0a49.14,49.14,0,0,0-32.16-45.6c-18.79-6.9-40.93-.71-53.54,14.76C1914,264,1912,286.53,1922.49,304a49,49,0,0,0,51.4,22.59c22.48-4.41,38.24-24.88,38.61-47.41C2012.62,271.47,2000.62,271.47,2000.5,279.19Z"/><path class="cls-3" d="M2115.63,279.19c-.25,15.13-9.53,29.11-24,34.25a36.45,36.45,0,1,1,24-34.25c.12,7.72,12.12,7.74,12,0a49.14,49.14,0,0,0-32.16-45.6c-18.79-6.9-40.93-.71-53.54,14.76-12.78,15.68-14.78,38.18-4.31,55.66A49,49,0,0,0,2089,326.6c22.48-4.41,38.24-24.88,38.61-47.41C2127.75,271.47,2115.75,271.47,2115.63,279.19Z"/><path class="cls-3" d="M2004.13,271.22h35c7.72,0,7.73-12,0-12h-35c-7.72,0-7.73,12,0,12Z"/><rect class="cls-1" x="2839.14" y="422.83" width="402.8" height="276.74" rx="107.1"/><rect class="cls-1" x="2800.06" y="422.83" width="402.8" height="276.74" rx="107.1"/><path class="cls-2" d="M3095.76,693.57H2918.9c-11.73,0-23.27.07-34.81-2.67A102.31,102.31,0,0,1,2821.52,646c-11.52-18.39-15.46-38.49-15.46-59.88V534.47c0-21.9,5-42.49,17.26-60.87a102.21,102.21,0,0,1,64.09-42.83c10.86-2.22,21.81-1.94,32.81-1.94h155.35c7.89,0,15.82-.2,23.71.06a101.43,101.43,0,0,1,97.58,101.3c.08,15.6,0,31.2,0,46.8,0,18.73-.36,36.77-7.81,54.44a101.08,101.08,0,0,1-93.29,62.14c-7.71,0-7.73,12,0,12,58.47-.39,108.16-46.34,112.77-104.7,1.27-16,.33-32.46.33-48.54,0-18.87.66-37.56-5.07-55.83-15.1-48.15-60.38-79.67-110.34-79.67H3000q-45.63,0-91.26,0c-51,.05-97.19,33.93-110.7,83.55-4.88,18-3.94,36.47-3.94,54.86,0,16.63-1.22,33.9.82,50.46,6.94,56.3,55.61,99.56,112.35,99.87,26.92.14,53.85,0,80.78,0h107.75C3103.49,705.57,3103.5,693.57,3095.76,693.57Z"/><path class="cls-4" d="M2645.47,840.37s136.68,158.6,109.15,349.11c-28.55,197.58-195.95,481.24-592,351.62l20-153.8s193.07-61.24,246.45-179.73C2466.46,1124.53,2524.86,877.29,2645.47,840.37Z"/><path class="cls-4" d="M2677.37,826.85c52.55-25.88,118-41.23,188.9-41.23h0c70.92,0,136.34,15.35,188.9,41.23,75.88,37.37,135.34,86.92,124.07,349.36-8.45,196.64-93.14,341-93.14,341H2550.43s11.31-144.39,2.86-341C2542,913.77,2601.48,864.22,2677.37,826.85Z"/><polygon class="cls-1" points="2763.37 635.18 2763.37 804.66 2837.24 876.06 2911.1 804.66 2911.1 635.18 2763.37 635.18"/><path class="cls-2" d="M2757.37,635.18V752.55c0,16.92-.47,33.92,0,50.83.14,4.78,3.32,7,6.52,10.13l22.62,21.86L2833,880.31a6.11,6.11,0,0,0,8.48,0l39.43-38.12,25.33-24.49c3.49-3.37,10.34-7.88,10.86-13.11.43-4.26,0-8.77,0-13V635.18a6.09,6.09,0,0,0-6-6H2763.37c-7.72,0-7.73,12,0,12H2911.1l-6-6V804.66l1.76-4.24L2842.1,863l-9.1,8.8h8.48l-64.76-62.6-9.1-8.8,1.75,4.24V635.18C2769.37,627.46,2757.37,627.45,2757.37,635.18Z"/><path class="cls-1" d="M2992.35,623.49a54.52,54.52,0,0,0-15.42,0c19.92-75.28,9.24-159.25-116.71-182.92C2737.07,417.47,2699.17,500,2694,600.4c-2.94,56.69.4,130.6,50.57,167.06,60.83,44.2,152,19.38,196.32-57,8.45,11.35,19,21.15,34.13,23.26,30,4.17,60.87-25.38,65.05-55.35S3022.32,627.66,2992.35,623.49Z"/><path class="cls-2" d="M2992.35,617.49a61.68,61.68,0,0,0-15.42,0l5.78,7.59c13.41-51,12.6-109.66-28.36-148.27-25.51-24.05-60.17-36.15-94.08-42.31-32.41-5.89-67.09-6.22-97.32,8.48-53.63,26.09-69.72,90.38-74.16,144.87-5.4,66.28-2.54,153,62.1,190.88,60.73,35.57,137.54,9.53,179.49-42.61A186.36,186.36,0,0,0,2946,713.5h-10.36c10.27,13.6,23.13,24.61,40.69,26.4,16.14,1.64,31.87-5.59,43.94-15.84,23.27-19.74,36.34-56.65,16.2-83.08-10.2-13.4-26.16-20.84-42.55-23.28-7.56-1.12-10.82,10.44-3.19,11.58,23.28,3.45,44.94,18.52,43.71,44.27-1.2,25.45-24.53,52.37-50.5,54.44-16.12,1.29-28.67-8.27-37.94-20.55-2.62-3.48-7.88-4.23-10.36,0-16.93,28.89-42.33,52.91-73.48,65.79-27.84,11.51-59.34,13.68-87.88,3.39-31-11.19-52.91-36.15-63.62-66.92-11.14-32-12.38-66.71-11.13-100.28,1.88-50.62,10-114,53.94-146.65,22.74-16.88,51.22-21.45,78.94-19.71,34.06,2.13,70.36,11.5,98.92,30.72,20.83,14,36.13,34.42,42.88,58.65,6.48,23.24,5.5,48.05,1,71.55-1.16,6-2.55,12-4.11,18-.88,3.37,1.79,8.1,5.79,7.6a61.68,61.68,0,0,1,15.42,0C3000,630.41,2999.94,618.41,2992.35,617.49Z"/><path class="cls-1" d="M2780,696s-5.16,31,24.18,35.07c31.45,4.38,33.74-27,33.74-27"/><path class="cls-2" d="M2774.16,694.4c-2.14,13.24,1.59,28.14,12.77,36.34,16.63,12.19,42.77,8,52.33-10.8a42.64,42.64,0,0,0,4.61-15.88c.6-7.7-11.4-7.66-12,0-.12,1.56.18-.92,0,0s-.34,2-.56,2.91a29.89,29.89,0,0,1-3.14,8.28c-4.63,8.15-12.88,11.07-22,10.1-9.42-1-16.91-6-19.48-15.28a30.73,30.73,0,0,1-1.11-9.25c0-1.06.1-2.1.15-3.14.09-1.75,0-.34,0,0,1.22-7.55-10.34-10.8-11.57-3.19Z"/><circle class="cls-2" cx="2763.91" cy="614.08" r="8.7"/><circle class="cls-2" cx="2877.94" cy="629.96" r="8.7"/><line class="cls-1" x1="2817.39" y1="639.2" x2="2812.04" y2="677.6"/><path class="cls-2" d="M2811.61,637.6,2806.26,676c-1.05,7.55,10.51,10.82,11.57,3.19l5.35-38.41c1.05-7.55-10.51-10.81-11.57-3.19Z"/><path class="cls-1" d="M3008.38,670.69s-10.82-11.15-25.5-7.79-22.39,23.39-12.51,28.94,19.12,1.45,21.79-6.58-5.33-13.77-18.2-16.13"/><path class="cls-2" d="M3012.63,666.45c-14.29-14.42-40.13-13.52-49.74,5.63-4.18,8.33-4.48,19.61,4.45,24.94,10.76,6.42,25.42,3.2,30.16-9,5.69-14.64-10.26-22.38-21.94-24.68-7.54-1.49-10.77,10.07-3.19,11.57,4.58.9,20.44,4.85,11.8,11.9-2.71,2.21-8.35,2.19-11-.21-1.73-1.59-1.37-4-.83-6.05,3.84-14.74,22.44-15,31.77-5.63,5.45,5.5,13.93-3,8.49-8.48Z"/><path class="cls-2" d="M2808.58,362.48s-104.32-51.07-160.25,31.79c-56.3,83.41-2.71,143.34,49.9,165.14,84.11,34.85,207.5,3.56,210.68-33.48,0,0-11.9,85.43,65,91.61,0,0,25.74-4.36,50,11.49,0,0,123.14-160.07-8.6-257.18C2874,267.7,2808.58,362.48,2808.58,362.48Z"/><path class="cls-2" d="M2977.93,327.37l.42,37.54a6.07,6.07,0,0,0,9,5.18L3022,351.36c6.8-3.67.75-14-6.05-10.36l-34.64,18.73,9,5.18-.42-37.54c-.09-7.72-12.09-7.74-12,0Z"/><path class="cls-1" d="M2608,935.73a276.16,276.16,0,0,1,11.73-29.09c8.74-18.91,19.06-37.75,32.94-53.41,7.35-8.29,16-16.25,26.34-20.59,3-1.26,5.09-4,4.19-7.38-.74-2.83-4.39-5.45-7.38-4.19-21,8.8-36.1,27-48.14,45.72-10.87,16.93-19.57,35.26-26.91,54-1.53,3.89-3,7.81-4.34,11.79-2.42,7.35,9.16,10.5,11.57,3.19Z"/><path class="cls-1" d="M2902.45,943.29A283.09,283.09,0,0,1,2916,903.82c10.4-25.05,24-49.92,43.25-69.31,11.07-11.15,24.19-20.19,39.42-24.53,7.41-2.12,4.26-13.7-3.19-11.57-29.46,8.4-51.49,31.61-67.66,56.64-13.9,21.51-24.33,45.37-32.32,69.66-1.67,5.08-3.29,10.2-4.59,15.39-1.87,7.49,9.7,10.68,11.57,3.19Z"/><path class="cls-2" d="M2550.17,1281.13c.35,42.88.21,85.78-.75,128.65-.35,15.48-.81,31-1.64,46.42-.42,7.71,11.58,7.69,12,0,2.88-53.3,2.68-106.82,2.47-160.18q0-7.44-.08-14.89c-.06-7.72-12.06-7.74-12,0Z"/><path class="cls-1" d="M2181.81,1525.55l18.48-104.41s-16-60.5-50.89-63.87-6.1,47.45-6.1,47.45-101.78-60.61-117.76,16.53C2009.46,1498.83,2129.69,1516.44,2181.81,1525.55Z"/><path class="cls-2" d="M2187.6,1527.14,2205.67,1425c.74-4.19,0-7.22-1.36-11.23a160.33,160.33,0,0,0-12.41-28.55c-6.26-11.09-14.49-22-25.66-28.53-9.46-5.52-24.72-9-33.92-1.12-14.45,12.41-1.61,39.07,5.8,52.17l8.2-8.21a189.69,189.69,0,0,0-41.69-18.07c-22.22-6.7-49.74-9.74-68.44,7-20.32,18.15-23.3,53.38-10.33,76.38,13.57,24.09,41,37.29,66,46.13,28.59,10.11,58.53,15.2,88.31,20.39,7.55,1.32,10.8-10.24,3.19-11.57-24.46-4.27-48.95-8.45-72.82-15.42-24.1-7-50.32-16.74-67.48-35.95-15.89-17.8-17.75-46.8-3.28-66.25,13-17.51,37.45-15.52,56.21-10.63a171.59,171.59,0,0,1,44.23,18.39c5.23,3.1,11.13-3,8.21-8.21a97.73,97.73,0,0,1-6.71-14.56c-2.33-6.35-5.7-16.6-2.5-21.51a4.47,4.47,0,0,1,1.85-1.66,15.44,15.44,0,0,1,7.17-.78,29.42,29.42,0,0,1,14.39,5.45c9,6.15,15.29,15.87,20.32,25.31a146.3,146.3,0,0,1,10.23,24.54c.38,1.2,1.19,6.17,1.27,2.66.08-3.69-.46,1-.61,1.88l-9.4,53.13L2176,1524C2174.69,1531.5,2186.25,1534.74,2187.6,1527.14Z"/><path class="cls-2" d="M2102.89,1464a287.1,287.1,0,0,1-29.26-9.82c-15.14-5.93-32-13.09-43.16-25.37-5.2-5.73-13.66,2.78-8.48,8.49,12.06,13.29,29.94,21,46.27,27.59a287.9,287.9,0,0,0,31.44,10.68c7.46,2,10.65-9.55,3.19-11.57Z"/><path class="cls-2" d="M2110.53,1430.87a286.27,286.27,0,0,1-29.26-9.82c-15.15-5.92-32-13.09-43.16-25.36-5.2-5.73-13.67,2.77-8.49,8.48,12.06,13.29,29.94,21,46.27,27.59a285.24,285.24,0,0,0,31.45,10.68c7.46,2,10.64-9.54,3.19-11.57Z"/><line class="cls-1" x1="3142.15" y1="518.39" x2="2983.87" y2="518.39"/><path class="cls-2" d="M3142.15,512.39H2983.87c-7.73,0-7.74,12,0,12h158.28c7.72,0,7.73-12,0-12Z"/><line class="cls-1" x1="3142.15" y1="577.83" x2="2983.87" y2="577.83"/><path class="cls-2" d="M3142.15,571.83H2983.87c-7.73,0-7.74,12,0,12h158.28c7.72,0,7.73-12,0-12Z"/><path class="cls-1" d="M2821.15,1441.73s-147.64,5.31-150.91,96.38,134.33,8.86,172.5,18.35,60.91-51.27,35.54-78.77S2865.53,1435.78,2821.15,1441.73Z"/><path class="cls-2" d="M2821.15,1435.73a262.66,262.66,0,0,0-84,17.21c-20,7.77-39.81,18.69-53.78,35.38a81.31,81.31,0,0,0-18.34,64.32c7.5,48.74,67.64,34.3,100.35,25.49,20.21-5.45,40.35-12.71,61.12-15.77a63.84,63.84,0,0,1,10.27-.65c.82,0,1.64.08,2.46.16,1,.11-.69-.18.93.17a57.5,57.5,0,0,0,8.75,1.37c12,.66,23.43-5.3,31.17-14.27,16-18.58,21-50.09,6.26-70.87-4-5.6-8.94-10.36-12.78-16.09-2.86-4.25-5.27-8.76-8-13.1-5.37-8.5-12.22-13.28-22.32-14.38-7.35-.81-14.84.08-22.13,1-3.24.42-6,2.46-6,6,0,2.92,2.79,6.42,6,6,6.93-.9,14.21-1.89,21.21-1.13,3.55.39,6.82,1.56,8.7,3.24,5.91,5.27,9.65,15.12,14.7,22,3.68,5,8.43,9.34,11.67,14.62a38.36,38.36,0,0,1,5.23,15.19,53.06,53.06,0,0,1-6.22,31.89c-4.75,8.57-12.44,16.34-22.56,17.74-4.77.67-9.15-.78-13.83-1.32a47.88,47.88,0,0,0-9.65,0c-18.83,1.62-37.21,7.92-55.29,13-19.55,5.55-39.69,11.6-60.12,12.41-7.73.31-16.21-.19-22.76-3a23.7,23.7,0,0,1-13.28-13.67c-7.11-18.12-1.51-41.1,9-56.68,10.92-16.14,28.24-27,45.75-34.75,27.25-12.08,57.07-17.4,85.81-19.45.53,0,1.07-.06,1.6-.08C2828.85,1447.45,2828.89,1435.45,2821.15,1435.73Z"/><path class="cls-2" d="M2735.14,1492.83a284.58,284.58,0,0,0-28.34,17.4c-14.47,10-30.08,21.57-38.9,37.17-3.8,6.73,6.56,12.79,10.36,6.06,8.17-14.46,23.13-25.11,36.6-34.24a286.11,286.11,0,0,1,26.33-16c6.83-3.62.77-14-6.05-10.36Z"/><path class="cls-2" d="M2761.68,1521.86a285.15,285.15,0,0,0-28.33,17.4c-14.48,10-30.09,21.57-38.91,37.18-3.8,6.73,6.56,12.78,10.36,6,8.17-14.45,23.14-25.11,36.61-34.24a286,286,0,0,1,26.32-16c6.83-3.62.77-14-6.05-10.36Z"/><path class="cls-4" d="M3103.42,856.88s174.11,104,198.35,271.8c25.14,174.06-60.34,454.4-476.61,437.37l-22-135.81s192.75-55.48,212.61-168.35C3029.7,1182.78,2997,916.4,3103.42,856.88Z"/><path class="cls-2" d="M2830.94,1565.2l-19.21-118.68-2.78-17.14-4.19,7.38c25.26-7.28,49.95-17.55,73.65-28.81,43.58-20.69,87.17-47.64,116.82-86.48,13.79-18.06,23.73-39,27-61.55,2.84-19.52,3.24-39.38,3.67-59.07,1.2-54.82.94-109.72,6.49-164.33,2.8-27.6,7.05-55.2,14.52-82,6.43-23,15.33-45.94,29.78-65.2a112.68,112.68,0,0,1,10.05-11.55c5.45-5.49-3-14-8.48-8.49-35.23,35.53-47.3,89.46-54.2,137.27-8,55.71-8.86,112.11-9.71,168.3-.33,22.09-.48,44.24-2.12,66.28-1.46,19.62-5.41,38.4-15.48,56.31-23.6,41.94-66.83,70.61-108.58,92.25-27.37,14.19-55.9,25.5-85.18,35l-1.44.42c-3.36,1-4.71,4.14-4.19,7.38l19.22,118.68,2.77,17.14c1.23,7.6,12.8,4.38,11.57-3.19Z"/><path class="cls-1" d="M790.27,630.24S653.58,788.84,681.11,979.35c28.55,197.59,196,482.24,592,352.63l-20-154.81s-193.08-61.23-246.45-179.72C969.27,914.4,910.87,667.16,790.27,630.24Z"/><path class="cls-2" d="M344,263.87s-14,81.52-126.21,121.44S84.68,497.81,104.46,546.87s123,81.58,182.45,18.55c0,0-40.7,75.89,18.26,91.05s174.26,103.16,365-18.44,17.68-343.76,17.68-343.76Z"/><path class="cls-5" d="M342.92,606.66c52.55-25.88,118-41.24,188.9-41.24s136.34,15.36,188.9,41.24C796.6,644,845.65,703.35,845.65,770.15v407.42c0,77.81-72.08,141.47-160.18,141.47H378.17c-88.1,0-160.18-63.66-160.18-141.47V770.15C218,703.35,267,644,342.92,606.66Z"/><polygon class="cls-1" points="605.68 415.59 605.68 585.06 531.82 656.47 457.95 585.06 457.95 415.59 605.68 415.59"/><path class="cls-2" d="M599.68,415.59V585.06l1.76-4.24-64.76,62.6-9.1,8.8h8.48l-64.76-62.6-9.1-8.8,1.75,4.24V415.59l-6,6H605.68c7.73,0,7.74-12,0-12H458a6.09,6.09,0,0,0-6,6V533c0,16.92-.47,33.92,0,50.84.14,4.77,3.32,7,6.53,10.12l22.61,21.86,46.49,44.94a6.1,6.1,0,0,0,8.48,0l39.43-38.12,25.33-24.48c3.49-3.37,10.34-7.88,10.86-13.12.43-4.25,0-8.77,0-13V415.59C611.68,407.86,599.68,407.85,599.68,415.59Z"/><path class="cls-1" d="M365.47,396.25s12.45-9.3,26.41-3.67,18.42,26.62,7.79,30.55-19.11-1.58-20.49-9.94,7.44-12.76,20.52-13.05"/><path class="cls-2" d="M368.49,401.43c5.21-3.8,12.3-5.67,18.61-4.11,6.88,1.7,12.53,8.4,12.45,15.66-.07,6.67-9.51,7.26-13.06,2.58-6.11-8.05,8.55-9.25,13.21-9.42,7.7-.28,7.74-12.28,0-12-10.16.36-24.7,3-26.46,15.3-1.66,11.6,8.83,21.14,19.94,21,26.74-.43,20.42-34.81,1.73-43-10.25-4.5-23.38-3-32.47,3.67-6.18,4.51-.2,14.92,6.05,10.36Z"/><path class="cls-1" d="M372.69,357.75A54.47,54.47,0,0,1,388,359.7c-10.45-77.16,10.54-159.16,138.45-167.06,125.07-7.73,152.46,78.84,145.2,179.13-4.09,56.62-16.56,129.55-70.85,159.51C535,567.61,447.56,531.7,413,450.43c-9.79,10.22-21.47,18.64-36.74,18.86-30.25.43-57.26-32.72-57.69-63S342.43,358.18,372.69,357.75Z"/><path class="cls-2" d="M372.69,363.75a53.67,53.67,0,0,1,13.7,1.74c3.35.86,8.13-1.78,7.6-5.79-6.38-47.75-.58-102.21,41.27-132.84,27-19.79,61.42-26.76,94.28-28.4,30-1.49,61.62,2.09,87.18,19,45.8,30.36,51.85,92.4,49.62,142.48-2.72,60.77-13.67,141-75.79,169.77C531,557.3,463,523.28,430.45,471a175.11,175.11,0,0,1-12.24-23.59c-1.55-3.59-7-3.71-9.43-1.21-9.94,10.24-22.19,18.58-37.14,16.89-12.79-1.43-23.95-9.48-32.07-19.08-15.29-18.09-22.38-48.1-3.81-66.51,9.72-9.64,23.56-13.43,36.93-13.74,7.71-.18,7.74-12.18,0-12-15.09.35-30,4.47-41.89,14.1-11.4,9.26-17.65,23.14-18.18,37.71-1.12,30.51,22.29,64.28,52.85,70.62,20.31,4.21,38-5.26,51.8-19.51l-9.43-1.21c26.93,62.65,93.75,110.29,163.71,95.17,34.16-7.38,61.69-29.73,78.15-60.25,16.85-31.22,23.31-67.09,26.71-102,5.4-55.43,5.12-123.84-37.37-166-21.56-21.41-51-31.07-80.74-33.51-36.57-3-76.6,2.09-109.85,18.18-24.94,12.07-45.29,32.06-56.49,57.52-10.65,24.22-13.45,51.11-11.92,77.33.39,6.64,1.07,13.26,1.95,19.85l7.59-5.79a68.26,68.26,0,0,0-16.89-2.16C365,351.73,365,363.73,372.69,363.75Z"/><path class="cls-1" d="M574.49,456s1.28,31.38-28.34,31.81c-31.75.45-30.14-31-30.14-31"/><path class="cls-2" d="M568.49,456a28,28,0,0,1-2.41,13.06c-3.83,9.27-12.26,13-22,12.73-8.87-.28-16.48-4.43-19.86-12.61A24.93,24.93,0,0,1,522,456.82c.36-7.72-11.65-7.7-12,0-.57,12.39,5.33,25.86,16.19,32.25,9.38,5.52,22.51,6.33,32.65,2.53,9.07-3.4,15.39-10.41,18.81-19.36A42.74,42.74,0,0,0,580.49,456c-.28-7.7-12.28-7.74-12,0Z"/><circle class="cls-2" cx="600.54" cy="376.68" r="8.7"/><circle class="cls-2" cx="485.42" cy="378.33" r="8.7"/><line class="cls-1" x1="544.36" y1="394.99" x2="544.91" y2="433.76"/><path class="cls-2" d="M538.36,395l.55,38.77c.11,7.72,12.11,7.74,12,0L550.36,395c-.11-7.71-12.11-7.74-12,0Z"/><path class="cls-2" d="M587.36,121.49s109.83-37.77,155.08,51.39c45.54,89.74-15,142.69-70,157.69C599.64,350.45,562,286.92,538.09,249c0,0-25.69,104.46-146.37,105.14,0,0-25-7.51-51,5.22,0,0-102.38-174.08,40.37-254.14C534.19,19.35,587.36,121.49,587.36,121.49Z"/><path class="cls-2" d="M411.91,63.35l-5.06,37.2L415.66,97,383.6,74.09c-6.29-4.49-12.29,5.91-6.05,10.36l32.05,22.87c2.89,2.06,8.32.1,8.82-3.58l5.07-37.2c.44-3.24-.79-6.4-4.19-7.38-2.8-.8-6.95,1-7.39,4.19Z"/><path class="cls-1" d="M638.24,615.17l-96.86,93.64-13.8,13.34h8.48L439.2,628.52l-13.8-13.35c-5.55-5.36-14,3.11-8.48,8.49l96.86,93.63,13.8,13.34a6.1,6.1,0,0,0,8.48,0L632.92,637l13.8-13.34c5.56-5.38-2.93-13.86-8.48-8.49Z"/><path class="cls-1" d="M388,588.15S444.4,1036.29,444.4,1319H219.34S-135.76,669.86,388,588.15Z"/><path class="cls-1" d="M665.78,585s22.76,514.59-6.63,734.06H822.93S1076.29,633.1,665.78,585Z"/><path class="cls-2" d="M693.46,753.28l63.47,60.05,9,8.49L764.37,816l-24.1,84.45-38.24,134-8.8,30.84c-2.12,7.43,9.45,10.61,11.57,3.19L728.9,984l38.24-134,8.8-30.84a6,6,0,0,0-1.55-5.84l-63.47-60-9-8.49c-5.61-5.31-14.11,3.16-8.48,8.48Z"/><path class="cls-2" d="M765.06,650.29l6.3,87.36.89,12.36,4.41-5.79-61.34,17.21c-7.42,2.09-4.27,13.67,3.19,11.57l61.34-17.21c2.38-.67,4.59-3.18,4.4-5.78L778,662.64l-.89-12.35c-.56-7.66-12.56-7.72-12,0Z"/><path class="cls-2" d="M378.82,745.44l-59,64.46L311.49,819a6,6,0,0,0-1.54,5.84l30.11,82.5,47.79,130.92,11,30.13c2.62,7.19,14.22,4.09,11.57-3.19l-30.11-82.5L332.52,851.79l-11-30.13L320,827.5,379,763l8.34-9.12c5.2-5.68-3.26-14.19-8.49-8.48Z"/><path class="cls-2" d="M296.79,656.47v100a6.07,6.07,0,0,0,4.41,5.78L363.61,775c7.54,1.54,10.77-10,3.19-11.57l-62.41-12.75,4.4,5.79v-100c0-7.72-12-7.74-12,0Z"/><path class="cls-1" d="M353.71,400.82s12.26-9.55,26.34-4.2S399,422.87,388.44,427s-19.13-1.2-20.67-9.53S375,404.58,388,404"/><path class="cls-2" d="M356.74,406c5.12-3.9,12.16-6,18.5-4.58,7,1.55,12.72,8.05,12.89,15.32.15,6.74-9.19,7.61-12.95,3.07-6.53-7.88,8.22-9.53,12.84-9.79,7.68-.43,7.73-12.43,0-12-10.14.57-24.65,3.44-26.25,15.72-1.51,11.58,9.11,21.06,20.22,20.68s19-7.81,18.05-19.14a29,29,0,0,0-17.3-24c-10.21-4.2-23.23-2.38-32.06,4.35-6.06,4.62-.09,15,6.06,10.36Z"/><path class="cls-2" d="M828.72,1320.64c11.91-32.86,21.74-66.59,30.91-100.3,20-73.31,35.48-148.17,42.91-223.84,4.44-45.22,5.88-90.92,1.59-136.21-.72-7.62-12.73-7.7-12,0,7.63,80.56-2,162.36-17.16,241.49a1587.29,1587.29,0,0,1-46.41,181.55c-3.63,11.42-7.33,22.85-11.41,34.12-2.64,7.27,9,10.4,11.57,3.19Z"/><path class="cls-2" d="M1199.53,1194.15,1214,1305.89l2,15.84c1,7.55,13,7.65,12,0L1213.57,1210l-2-15.83c-1-7.56-13-7.65-12,0Z"/><path class="cls-1" d="M1271.3,1311l-12-105.34S1279,1146.21,1314,1145s3.17,47.73,3.17,47.73,105.31-54.22,116.52,23.75C1445,1294.92,1323.88,1305.08,1271.3,1311Z"/><path class="cls-2" d="M1277.3,1311l-11.1-97.35a64.48,64.48,0,0,0-.77-6.81c-.53-2.37-.94,1.22,0-.47,3.24-6.11,4.86-12.2,8.21-18.59,5.2-9.93,11.41-19.57,19.77-27.15,6.76-6.13,18.17-12.57,27.59-8.78,3,1.19,3.6,3.32,3.51,6.58-.13,4.57-1.56,9.18-3.27,13.59a98.36,98.36,0,0,1-9.19,17.73c-3.46,5.33,3.18,10.79,8.21,8.21a172.66,172.66,0,0,1,36.51-13.53c18.24-4.7,43.13-8.36,58.38,5.7,17.28,16,17.22,47.05,4.15,65.38-14.45,20.27-41.12,29.71-64.14,35.9-27.44,7.37-55.67,10.45-83.82,13.59-7.59.85-7.68,12.86,0,12,27.08-3,54.24-5.92,80.76-12.42,26.17-6.41,55.4-16.37,73.38-37.62,17.8-21,20.66-54.8,4.55-77.85-14.78-21.14-41.63-22.85-65-18.76a181.76,181.76,0,0,0-50.86,17.25l8.21,8.21a111.81,111.81,0,0,0,8.86-16.85c3.81-8.91,7.85-20.45,3.33-29.84-5.26-10.93-19.69-11.56-30-8.6-12.4,3.58-22.14,12.84-29.8,22.86a139.17,139.17,0,0,0-16.8,29.3c-1.71,4-4.77,9.07-4.65,13.57.17,6,1.39,12.18,2.07,18.15l3.75,32.94,6.12,53.66C1266.16,1318.54,1278.17,1318.63,1277.3,1311Z"/><path class="cls-2" d="M1356.69,1266a285.39,285.39,0,0,0,32-8.73c16.74-5.53,34.94-12.32,47.81-24.85,5.54-5.4-3-13.88-8.49-8.48-11.85,11.55-29.28,17.52-44.71,22.48a287.73,287.73,0,0,1-29.83,8c-7.55,1.55-4.36,13.12,3.19,11.57Z"/><path class="cls-2" d="M1351.12,1232.51a283.63,283.63,0,0,0,32-8.72c16.74-5.54,34.95-12.32,47.81-24.85,5.54-5.4-3-13.88-8.48-8.49-11.86,11.55-29.28,17.52-44.72,22.49a287.5,287.5,0,0,1-29.82,8c-7.56,1.56-4.36,13.13,3.19,11.57Z"/><path class="cls-1" d="M493.74,1318.4s147.64,5.31,150.91,96.38-134.32,8.87-172.49,18.36-70.64-33-45.53-78.72C437.18,1335.19,449.36,1312.46,493.74,1318.4Z"/><path class="cls-2" d="M493.74,1324.4a255.57,255.57,0,0,1,70.49,13.11c35.44,11.67,72.38,35.11,74.38,76.23.42,8.62-.16,18-4.57,25.49-3.25,5.51-8.36,9-14.44,10.86-16.37,5-35.62.77-52.1-3.1-19.79-4.64-39.12-11-58.84-16a150.49,150.49,0,0,0-24.81-4.49c-8.44-.65-16.36,2.32-24.74,1.87-12-.65-22.74-7.83-28.9-18-7.51-12.34-7.91-27.32-3.65-40.86a94.87,94.87,0,0,1,16.24-29.77,43.09,43.09,0,0,1,27-15.63c7.89-1.33,16.07-.79,24,.21,7.64,1,7.57-11,0-12-15.08-1.91-31.08-1.26-44.62,6.37-9.87,5.57-17.08,14.44-22.83,24-7.82,13.07-14.1,27-14.49,42.49-.38,14.78,4.8,29.71,15.13,40.42A48.11,48.11,0,0,0,464,1440.39a61.06,61.06,0,0,0,10-1.52,10.9,10.9,0,0,1,3.54-.47,60.52,60.52,0,0,1,10.23.54c19.42,2.63,39.21,9.68,58.37,15,30.7,8.43,89.45,25.22,102.26-17.94,6.17-20.79.89-45.62-11.11-63.33-11.86-17.49-29.76-29.87-48.8-38.49-18.14-8.21-37.42-13.63-57-17.18-11.8-2.14-23.93-4-35.94-4.46l-1.8-.09C486,1312.12,486,1324.12,493.74,1324.4Z"/><path class="cls-2" d="M573.7,1379.86a287,287,0,0,1,26.33,16c13.47,9.13,28.43,19.79,36.6,34.24,3.8,6.73,14.17.68,10.36-6.05-8.82-15.61-24.42-27.19-38.9-37.18a288.21,288.21,0,0,0-28.33-17.4c-6.82-3.62-12.89,6.74-6.06,10.36Z"/><path class="cls-2" d="M547.16,1408.89a287,287,0,0,1,26.33,16c13.47,9.13,28.43,19.79,36.6,34.25,3.8,6.72,14.17.68,10.36-6.06-8.82-15.6-24.43-27.19-38.9-37.18a289.4,289.4,0,0,0-28.33-17.4c-6.82-3.61-12.89,6.74-6.06,10.36Z"/><path class="cls-1" d="M202.36,663.21S28.25,781.51,4,972.47c-25.14,198,60.34,517,476.61,497.65l22-154.53S309.86,1252.47,290,1124C276.08,1034,308.76,730.94,202.36,663.21Z"/><path class="cls-2" d="M486.4,1472.56l19.24-135.18L508.4,1318c.47-3.34-.79-6.26-4.2-7.38-26.86-8.82-52.18-21-77.14-35-45.58-25.5-90.78-59.3-115.79-106.29-11.14-20.94-15.86-42.77-17.51-65.5-1.71-23.52-1.92-47.14-2.25-70.71-.84-60.91-1.28-122-7.82-182.62-3.22-29.88-7.77-59.78-15.65-88.82-6.64-24.46-15.66-49-30-70.11A143.29,143.29,0,0,0,227.5,678c-5.09-5.83-13.55,2.69-8.49,8.48,15.84,18.16,25.8,40.92,33.09,63.66,8.9,27.76,14.2,56.67,17.85,85.55,7.77,61.41,8.58,123.47,9.4,185.28.33,24.83.48,49.7,1.87,74.5,1.29,22.93,4.25,45.21,13.3,66.54,21.39,50.41,66.09,87.72,111.87,115.53a507.28,507.28,0,0,0,59.2,30.69c10.94,4.82,22.3,10.23,33.84,13.49.54.15,1.06.37,1.58.54l-4.19-7.38L477.59,1450l-2.76,19.35c-.46,3.23.8,6.41,4.19,7.38,2.81.81,6.93-1,7.38-4.19Z"/><path class="cls-2" d="M445.19,1326.24l-15.56,109.33-2.22,15.62c-.46,3.23.79,6.4,4.19,7.38,2.81.8,6.92-1,7.38-4.19l15.56-109.33,2.22-15.62c.46-3.23-.79-6.41-4.19-7.38-2.81-.81-6.92,1-7.38,4.19Z"/><path class="cls-6" d="M1100.22,857.3c52.55-25.88,118-41.23,188.9-41.23h0c70.92,0,136.34,15.35,188.9,41.23,75.88,37.37,135.34,86.92,124.07,349.36-8.45,196.64-45.14,341-45.14,341H1021.28s-36.69-144.39-45.14-341C964.87,944.22,1024.34,894.67,1100.22,857.3Z"/><polygon class="cls-1" points="1362.98 666.23 1362.98 835.71 1289.12 907.11 1215.25 835.71 1215.25 666.23 1362.98 666.23"/><path class="cls-2" d="M1357,666.23V835.71l1.76-4.24L1294,894.07l-9.11,8.8h8.49l-64.76-62.6-9.11-8.8,1.76,4.24V666.23l-6,6H1363c7.72,0,7.74-12,0-12H1215.25a6.09,6.09,0,0,0-6,6V783.6c0,16.92-.47,33.92,0,50.83.13,4.78,3.32,7,6.52,10.13l22.62,21.86,46.48,44.94a6.12,6.12,0,0,0,8.49,0l39.43-38.12,25.33-24.49c3.49-3.37,10.34-7.88,10.86-13.11.43-4.26,0-8.77,0-13V666.23C1369,658.51,1357,658.5,1357,666.23Z"/><path class="cls-1" d="M1401.83,859.73l-102.42,99-14.54,14h8.49l-102.42-99-14.54-14.06c-5.55-5.37-14.05,3.11-8.48,8.49l102.41,99,14.54,14.06a6.12,6.12,0,0,0,8.49,0l102.42-99,14.54-14c5.56-5.38-2.93-13.86-8.49-8.49Z"/><path class="cls-1" d="M1151.23,602.65a54.84,54.84,0,0,1,15.3,2l25,90.73c-9.79,10.22-21.48,18.63-36.74,18.85-30.26.43-57.27-32.71-57.7-63S1121,603.09,1151.23,602.65Z"/><path class="cls-2" d="M1151.23,608.65a54.65,54.65,0,0,1,13.71,1.74l-4.19-4.19,21.88,79.32,3.15,11.41,1.55-5.83c-9.95,10.23-22.19,18.57-37.15,16.89-12.79-1.44-24-9.49-32.07-19.09-15.29-18.08-22.38-48.09-3.8-66.51,9.72-9.64,23.55-13.43,36.92-13.74,7.71-.18,7.74-12.18,0-12-26.82.63-54.28,15.16-59.19,43.64s12.14,59.86,37.44,73.36c13.51,7.21,29.21,8.7,43.44,2.64a66.71,66.71,0,0,0,19.68-13.49c3.14-3,5.55-5.54,4.5-10-3.53-14.91-8.19-29.65-12.26-44.42L1172.32,603a6,6,0,0,0-4.19-4.19,67.88,67.88,0,0,0-16.9-2.17C1143.51,596.64,1143.5,608.64,1151.23,608.65Z"/><path class="cls-1" d="M1127.39,639.68s15.41-2,24.81,9.79,3,32.24-8.24,30.44-15.86-10.78-13-18.73,12.75-7.46,24.28-1.28"/><path class="cls-2" d="M1127.39,645.68c13.26-1.58,27.74,9.19,22.28,23.57-.74,1.94-2,4.49-4.3,4.75-3.36.39-7.67-2.63-8.79-5.73-4.09-11.27,11.47-5.37,15.68-3.19,6.86,3.54,12.93-6.81,6.06-10.36-9.53-4.92-25-9.92-31.79,1.93-5.77,10.06-.45,22.4,9.57,27.05,10.88,5.06,21,.36,25-10.73a28.8,28.8,0,0,0-7.6-30.88,34.66,34.66,0,0,0-26.07-8.41c-7.58.91-7.67,12.92,0,12Z"/><path class="cls-1" d="M1415,602.65a54.84,54.84,0,0,0-15.3,2l-25,90.73c9.79,10.22,21.48,18.63,36.75,18.85,30.25.43,57.26-32.71,57.69-63S1445.26,603.09,1415,602.65Z"/><path class="cls-2" d="M1415,596.65a67.74,67.74,0,0,0-16.89,2.17,6,6,0,0,0-4.19,4.19l-24.11,87.34a33.33,33.33,0,0,0-.93,3.39c-1.12,6.85,9.16,13.26,14,16.75,12.71,9.07,28.77,12.15,43.77,7.42,27.47-8.67,48-38.16,48.4-66.69.22-15.07-5.74-29.85-17.3-39.71-11.93-10.16-27.34-14.5-42.8-14.86-7.72-.18-7.72,11.82,0,12,23.61.55,47.15,13.94,48.07,39.81.89,24.89-17.51,52.36-42.11,58.6-16.64,4.22-30.83-4.41-42-16l1.54,5.83,21.89-79.31,3.15-11.42-4.19,4.19a54.57,54.57,0,0,1,13.7-1.74C1422.72,608.64,1422.74,596.64,1415,596.65Z"/><path class="cls-1" d="M1438.84,639.68s-15.41-2-24.81,9.79-3,32.24,8.24,30.44,15.87-10.78,13-18.73-12.74-7.46-24.28-1.28"/><path class="cls-2" d="M1438.84,633.68c-20.29-2.41-38.59,15-34.71,35.45,2,10.34,10.16,18.89,21.22,16.27s19.17-13.21,16-24.73c-4.4-16-22.55-11.58-33.45-5.95-6.86,3.54-.8,13.9,6.06,10.36,4.26-2.2,19.76-8.07,15.69,3.19-1.1,3-5.08,5.82-8.34,5.74-2.57-.07-3.91-2.56-4.76-4.76-5.53-14.37,9.07-25.14,22.28-23.57,7.66.92,7.59-11.09,0-12Z"/><path class="cls-1" d="M1290.3,446.46c125.31.67,146.84,88.88,132.88,188.46-7.88,56.22-24.37,130-81.38,154.41-83.61,35.8-156.41-11.58-183.65-98.42S1110.55,445.51,1290.3,446.46Z"/><path class="cls-2" d="M1290.3,452.46c34.52.29,71.52,7.21,97,32.34,21.34,21.06,30.3,50.94,32.76,80.14,2.94,35-1.71,70.75-8.94,105-7.76,36.68-20.63,76.34-50.52,101.07-15.21,12.58-35.07,19.45-54.32,22.74a113.63,113.63,0,0,1-53-3.45c-36.45-11.44-63.24-41.41-79.26-75.11-12.12-25.48-19-54.31-23.6-82.06-4.16-25.19-5.87-51.5-2-76.84,3.77-24.75,13-48.93,30.68-67.1,21.29-21.85,51.39-31.94,81.14-35.22a267.75,267.75,0,0,1,30.1-1.49c7.72,0,7.73-12,0-12-35.88-.1-74.23,5.6-104.1,26.94-22.75,16.25-38,40-45.38,66.77s-7.74,55.24-4.69,82.68a385.16,385.16,0,0,0,17.63,79.94c13,38.67,37.18,75.39,73.65,95.39,36.22,19.87,78.57,18.79,116,2.91,38.62-16.36,59.89-54.34,71.74-92.74,6-19.5,9.9-39.59,12.9-59.75,2.76-18.54,4.74-37.21,4.79-56,.1-32.34-5.11-66.7-23.63-94-19.67-29-51.58-44.53-85.58-49.64a237.39,237.39,0,0,0-33.37-2.53C1282.58,440.4,1282.57,452.4,1290.3,452.46Z"/><path class="cls-1" d="M1316.7,700s.84,31.4-28.79,31.4c-31.75,0-29.69-31.4-29.69-31.4"/><path class="cls-2" d="M1310.7,700a27.92,27.92,0,0,1-2.61,13c-3.89,8.93-12.12,12.65-21.58,12.36-9-.28-16.93-4.46-20.27-13a25.42,25.42,0,0,1-2-12.35c.47-7.71-11.54-7.69-12,0-.75,12.47,5.11,26.09,16,32.56,9.42,5.6,22.69,6.47,32.89,2.63,8.87-3.35,15.11-10.27,18.53-19a42.85,42.85,0,0,0,3-16.21c-.16-7.71-12.16-7.74-12,0Z"/><circle class="cls-2" cx="1343.89" cy="621.04" r="8.7"/><circle class="cls-2" cx="1228.76" cy="621.04" r="8.7"/><line class="cls-1" x1="1287.45" y1="638.55" x2="1287.45" y2="677.32"/><path class="cls-2" d="M1281.45,638.55v38.77c0,7.72,12,7.74,12,0V638.55c0-7.72-12-7.74-12,0Z"/><path class="cls-2" d="M1438.84,601.65s-180.65,1-210.08-88.71c0,0-18.54,79.07-93.82,86.71,0,0-76.35-244.8,152.51-244.8S1438.84,601.65,1438.84,601.65Z"/><path class="cls-2" d="M1281.35,482.54s76.64-14.14,92.8-127.69c12.38-87-49.64-138.88-122.06-134s-113.93,45.38-111.32,115.07C1142.92,393.08,1165.84,478.43,1281.35,482.54Z"/><path class="cls-1" d="M1318.3,350.54c-30.54-6.35-64.9-6.27-94.83,2.62a106.47,106.47,0,0,0-34.93,17.31c-2.58,2-3.9,5.13-2.15,8.21,1.44,2.54,5.65,4.13,8.21,2.15,21.92-16.91,50.2-22,77.3-22.33,14.7-.15,29.34.73,43.21,3.61,7.54,1.57,10.76-10,3.19-11.57Z"/><path class="cls-6" d="M1062,879.28s-167.82,61.37-202.53,225.65l114,56.82S1078.23,1003,1062,879.28Z"/><path class="cls-1" d="M1025.83,925.37a355.69,355.69,0,0,0-19.51,37.39c-13.16,28.43-23.92,58.14-30.58,88.78a290.08,290.08,0,0,0-7,61.09c0,7.72,12,7.73,12,0,.09-58.93,20.76-117.71,48.55-169.11,2.2-4.08,4.44-8.15,6.87-12.09,4.06-6.6-6.32-12.63-10.36-6.06Z"/><path class="cls-1" d="M1263,1496.33c-14.67-67.28-91.48-35.32-111.9-26l-3.71.76c4.95-8.08,27.4-47.36-4.07-46.28-35.07,1.21-49.1,53.76-49.1,53.76l-13.5-1.23c-41.88-1.19-85.43-14-107.35-56.08-29.15-56,.08-259.54.08-259.54l-114-56.82s-103.3,296.47,23.72,420.75c59.92,58.63,169,83.93,262.36,61.79C1201.18,1575,1276.11,1556.36,1263,1496.33Z"/><path class="cls-2" d="M1268.81,1494.73c-5-22-19-40-41.75-44.67-19-3.87-39,.21-57,6.32-8,2.73-16,7.29-24.2,8.95l6.77,8.82c8-13.11,23.77-43.06,3.56-53-11.49-5.65-26.74-1.16-36.5,6-10,7.31-17.32,17.64-22.81,28.62a114,114,0,0,0-8.38,21.22l5.78-4.41c-13.62-1.24-27.4-1.48-40.88-3.92-17.92-3.25-35.59-9.51-50.15-20.7-12.14-9.33-22.81-23-27.64-36.77-3.7-10.54-5.57-21.74-6.8-32.8-3.22-29-2.7-58.36-1.39-87.43,1.28-28.18,3.62-56.31,6.63-84.36q1.71-16,3.74-32,.35-2.78.72-5.57c.08-.63.16-1.26.25-1.89-.28,2.1,0-.12.08-.6l.45-3.24c.36-2.52-.2-5.5-2.76-6.77l-100-49.85-14-7a6.1,6.1,0,0,0-8.81,3.58c-9.3,26.72-16.2,54.46-22.21,82.07-12.54,57.65-20.24,117.29-16.86,176.35C818,1421.48,833.69,1484.24,877,1528c27.15,27.46,62.47,46.15,99,57.92a325.76,325.76,0,0,0,123.46,14.63c20.17-1.5,39.82-5.38,59.48-10,16.3-3.82,32.58-8,48.3-13.88,26.93-10,57.95-26.88,62.65-58.26a66.77,66.77,0,0,0-1-23.7c-1.58-7.55-13.15-4.36-11.57,3.19,2.8,13.43.82,26.89-7.57,38-8.54,11.29-21.49,18.73-34.14,24.5-14.68,6.69-30.34,11.22-45.93,15.21-17.25,4.41-34.72,8.65-52.37,11.08a314.3,314.3,0,0,1-121.29-7.44c-36.37-9.47-72-25.58-100.55-50.42-44.88-39.09-63.11-97.83-68-155.51-4.88-57.52,1.57-115.78,13-172.19q6.36-31.42,15-62.33c2.89-10.34,6.78-20.53,9.39-30.92.12-.46.31-.9.46-1.35l-8.81,3.59L956.45,1160l14,7-2.76-6.78c-5.86,40.88-9.79,82.18-11.94,123.41-1.59,30.56-2.36,61.47.73,92,1.2,11.91,2.88,24,6.4,35.44a93,93,0,0,0,24.62,39.22c15.71,15.12,36.1,24.4,57.25,29,16.3,3.54,33,3.92,49.5,5.43,2.58.24,5.15-2,5.79-4.4,3.54-13.15,10.12-26.72,19.35-36.77,6.95-7.55,16.25-13.35,26.88-12.56,8.36.61,8.45,6.42,6.58,13.77-2.11,8.33-6.16,16.15-10.61,23.45-2.88,4.74,1.86,9.81,6.78,8.82,7.34-1.49,12.21-4.6,19-7.11a168.28,168.28,0,0,1,24.09-7.06c16-3.33,35.21-4.21,48.92,6.3,9.17,7,13.73,17.92,16.21,28.88C1258.94,1505.45,1270.51,1502.26,1268.81,1494.73Z"/><path class="cls-2" d="M1186,1542.87a286.55,286.55,0,0,0,32-8.73c16.74-5.53,34.94-12.32,47.81-24.85,5.54-5.39-2.95-13.88-8.49-8.48-11.86,11.55-29.28,17.52-44.72,22.48a284.4,284.4,0,0,1-29.82,8c-7.56,1.55-4.36,13.12,3.19,11.57Z"/><path class="cls-2" d="M1176.43,1510.36a286,286,0,0,0,32-8.73c16.74-5.54,34.94-12.32,47.81-24.85,5.54-5.4-3-13.88-8.49-8.49-11.86,11.56-29.28,17.52-44.72,22.49a286.83,286.83,0,0,1-29.82,8c-7.56,1.56-4.36,13.13,3.19,11.58Z"/><path class="cls-6" d="M1516.27,879.28s167.83,61.37,202.54,225.65l-114,56.82S1500,1003,1516.27,879.28Z"/><path class="cls-1" d="M1542.05,931.43a352,352,0,0,1,18.76,35.79,417.83,417.83,0,0,1,29.76,85.9,275.91,275.91,0,0,1,6.9,59.51c0,7.72,12,7.73,12,0-.09-60.82-21.27-121.4-49.84-174.51-2.31-4.3-4.66-8.59-7.22-12.75-4-6.56-14.43-.54-10.36,6.06Z"/><path class="cls-1" d="M1315.21,1496.33c14.67-67.28,91.48-35.32,111.9-26l3.71.76c-4.94-8.08-27.39-47.36,4.08-46.28,35.07,1.21,49.09,53.76,49.09,53.76l13.5-1.23c41.88-1.19,85.44-14,107.35-56.08,29.16-56-.07-259.54-.07-259.54l114-56.82s103.29,296.47-23.73,420.75c-59.91,58.63-169,83.93-262.36,61.79C1377.06,1575,1302.12,1556.36,1315.21,1496.33Z"/><path class="cls-2" d="M1321,1497.92c2.27-10.06,6.2-19.79,13.9-26.91,6.17-5.71,14.31-8.78,22.55-9.92,16.75-2.31,34.16,2.12,49.85,7.65,7.91,2.79,13.72,6.5,21.93,8.17,4.91,1,9.65-4.09,6.77-8.82a95.65,95.65,0,0,1-9.62-20c-1.17-3.64-2.34-7.68-1.88-11.56.31-2.65,1.23-4.11,4.19-5.08,9.53-3.13,20.57,2.75,27.3,9.1,7.13,6.74,12.27,15.3,16.4,24.13a96.63,96.63,0,0,1,5.82,15.55c.63,2.35,3.21,4.64,5.78,4.4,14.25-1.3,28.59-1.67,42.71-4.11,18.89-3.26,37.73-9.89,53.28-21.32,14.28-10.51,26.25-24.7,32.92-41.24,4.16-10.3,6.18-21.36,7.67-32.32,4.06-30,3.7-60.48,2.46-90.62-1.21-29.23-3.61-58.41-6.71-87.49-1.68-15.81-3.51-31.61-5.76-47.35l-2.76,6.78,100-49.85,14-7-8.82-3.59c8.75,25.15,15.32,51.2,21.12,77.15,12.27,54.86,19.92,111.33,18,167.64-1.93,56.76-14.29,117.67-53,161.4-23.79,26.87-55.87,45.73-89.33,58a314.59,314.59,0,0,1-119.25,18.52c-35.87-1.33-72.18-9.45-106.27-20.57-24.91-8.13-57.77-21.48-63.78-50.31a50,50,0,0,1,.48-20.39c1.57-7.53-10-10.76-11.57-3.19-3.16,15.1-1.84,30.66,6.52,43.92,7.8,12.39,20,21.43,32.75,28.19,15,7.94,31.27,13.38,47.57,17.89,17,4.7,34.25,8.93,51.57,12,79.11,13.83,169.28-1.67,233.76-51.44a190.21,190.21,0,0,0,57.29-72.79c12.6-27.92,19.45-57.87,22.88-88.22,6.76-59.92.38-121.11-11.1-180.06-6.5-33.42-14.36-67.15-25.57-99.36-.17-.49-.33-1-.51-1.49a6.09,6.09,0,0,0-8.81-3.58l-100.06,49.85-14,7c-2.59,1.29-3.12,4.23-2.76,6.77.13.87.25,1.73.36,2.59.06.41.12.82.17,1.23.24,1.72,0-.25,0,.38.21,1.54.41,3.07.61,4.61q1.68,13,3.14,26c3,27.25,5.49,54.58,7,82,1.63,29.59,2.44,59.43,0,89-1,11.77-2.44,23.57-5.52,35a79.61,79.61,0,0,1-19.59,34.57c-14.33,15.13-33.48,24-53.58,28.59-15.67,3.55-31.73,3.84-47.67,5.3l5.79,4.41c-4.57-17-13.75-35.14-27.2-46.68-9.78-8.4-23.22-13.8-36.21-10.71-12.09,2.88-15.2,14.31-13.2,25.26,1.89,10.35,7,20.35,12.47,29.27l6.78-8.82c-7.12-1.44-13.91-5.28-20.82-7.76a159.23,159.23,0,0,0-26.33-7.18c-19.45-3.4-40.83-2.72-56.77,10.33-10.39,8.51-16.17,21.16-19.07,34C1307.73,1502.25,1319.29,1505.46,1321,1497.92Z"/><path class="cls-2" d="M1395.41,1531.3a284.4,284.4,0,0,1-29.82-8c-15.44-5-32.85-10.93-44.72-22.48-5.53-5.39-14,3.08-8.48,8.48,12.86,12.53,31.07,19.32,47.81,24.85a285.8,285.8,0,0,0,32,8.73c7.54,1.55,10.77-10,3.19-11.57Z"/><path class="cls-2" d="M1405,1498.78a286.83,286.83,0,0,1-29.82-8c-15.44-5-32.86-10.93-44.72-22.49-5.53-5.39-14,3.09-8.48,8.49,12.86,12.53,31.07,19.32,47.81,24.85a285.8,285.8,0,0,0,32,8.73c7.54,1.55,10.76-10,3.19-11.58Z"/><path class="cls-1" d="M2933.61,1292.59,2474.16,1276s27.37-25.8,46.18-188.89c9.63-83.47,17.38-158.39,17.38-158.39l446.45,14.63s2.93,59.27-5.69,151.13C2965,1238.47,2933.61,1292.59,2933.61,1292.59Z"/><path class="cls-2" d="M2933.61,1286.59l-45.88-1.67-109.64-4-132.56-4.8-115-4.16-37.61-1.37c-5.83-.21-12.16-1.16-18-.65a6.87,6.87,0,0,1-.78,0l4.25,10.25c3-2.86,5.19-7.06,7.09-10.68,6.78-12.93,11.41-27.07,15.43-41.06,20.74-72,26.37-148.12,34.5-222.32q4.25-38.73,8.29-77.47l-6,6,44.41,1.45,106.63,3.5,129,4.23,111.5,3.65,36.52,1.2c5.7.18,11.94,1.13,17.63.57a6.35,6.35,0,0,1,.75,0l-6-6c2.48,50.86-1,102.49-5.88,153.07-5.52,57.82-14.23,117.13-34.56,171.86q-1.91,5.14-4,10.2c.54-1.29-.18.42-.35.81l-.81,1.85c-.45,1-.9,2-1.37,3-.87,1.84-1.74,3.71-2.76,5.48-3.87,6.7,6.49,12.75,10.36,6,3.4-5.88,5.92-12.39,8.41-18.69,7.35-18.62,12.86-38,17.53-57.4,17.42-72.51,23.8-148,25.59-222.41.43-17.9.72-35.91-.15-53.81a6.14,6.14,0,0,0-6-6l-44.41-1.46-106.64-3.49-129-4.23-111.51-3.65c-18-.59-36.16-2.11-54.14-1.78-.25,0-.5,0-.75,0-3.48-.12-5.67,2.86-6,6-6.68,64.51-12.8,129.26-21.85,193.49-4.42,31.4-9.78,62.79-17.86,93.48-2.51,9.52-5.29,19-8.59,28.26q-1.76,4.95-3.74,9.81c-.53,1.3,0,.14-.36.88s-.56,1.29-.85,1.94c-.55,1.23-1.11,2.45-1.7,3.67a81.64,81.64,0,0,1-5.62,10c-.28.42-.6.81-.89,1.22.21-.29,1.1-1.33.22-.32a8.24,8.24,0,0,1-.56.62c-3.91,3.71-.78,10.06,4.24,10.24l45.88,1.67,109.64,4,132.56,4.8,115,4.16c18.44.67,37.14,2.29,55.6,2,.26,0,.52,0,.78,0C2941.33,1298.87,2941.32,1286.86,2933.61,1286.59Z"/></g></g></svg>