<svg xmlns="http://www.w3.org/2000/svg" viewBox="0 0 2089.91 1587.17"><defs><style>.cls-1{fill:#fff;}.cls-2{fill:#52483f;}.cls-3{fill:#b6cbd4;}.cls-4{fill:#b1b479;}</style></defs><g id="Layer_2" data-name="Layer 2"><g id="圖層_1" data-name="圖層 1"><path class="cls-1" d="M1973.45,798.09c-50.75-27.83-117.07-41.12-188.33-41.17h0c-71.26,0-137.53,15.2-191.26,40.93-77.57,37.15-139.08,86.42-137.1,347.63,1.48,195.72-15,381.22,85,381.28l215.84.14,215.85.13c100,.06,95.13-169.27,112.25-381.16C2103.45,925.66,2065.25,848.42,1973.45,798.09Z"/><path class="cls-1" d="M1898,798c-50.74-27.83-117.06-41.12-188.32-41.16h0c-71.26,0-137.53,15.19-191.26,40.92-77.57,37.15-139.08,86.42-137.1,347.64,1.48,195.71-15,381.21,85,381.28l215.85.13L1898,1527c100,.07,95.13-169.27,112.24-381.15C2028,925.6,1989.8,848.36,1898,798Z"/><path class="cls-2" d="M1901,792.85c-49.69-27.05-106.77-38.31-162.83-41.24-58.66-3.06-118.16,3.35-174.12,21.57-30,9.76-60,22.74-86.35,40.23a180.44,180.44,0,0,0-48.87,47.41C1412,885,1401.39,913.18,1394,941.57c-11.23,43.36-15.52,88.48-17.53,133.11-1.35,29.79-1.18,59.58-1.11,89.39.07,29.53-.18,59-.27,88.58-.15,51.14-.48,102.67,5.34,153.55,4,34.75,10,74,32.88,102a65.63,65.63,0,0,0,34.39,22.29c8.72,2.21,17.52,2.23,26.45,2.23l48.25,0,137,.09,38.64,0,127.68.08,46.73,0c11.69,0,23.65.82,35.29-.56a72.1,72.1,0,0,0,37-15.29c24.06-19.23,34.86-51.64,41.93-80.46,10.79-44.05,14.64-89.81,18.21-134.91,4.55-57.38,8.44-114.84,12.48-172.26,3.49-49.66,5-100-.62-149.53-4-34.49-11.46-69-27.24-100.14a189.66,189.66,0,0,0-53.31-64A268.6,268.6,0,0,0,1901,792.85c-6.77-3.73-12.83,6.63-6,10.36,23.74,13.06,45.73,29.1,63.11,50.07,18.5,22.31,30.31,49.26,37.64,77.11,10.34,39.22,12.74,80.24,12.73,120.65,0,56.32-5.81,112.45-9.65,168.59-3.47,50.76-6.37,101.67-12.74,152.17-4.51,35.74-10.06,73.89-26.39,106.45-11.43,22.78-29.61,40.71-55.87,42.53-13.5.93-27.25.18-40.78.17l-45,0-73.09,0-138.74-.09-79.27,0-44.91,0c-9.8,0-19.88.74-29.51-1.44-28.7-6.47-42.57-34.44-50.1-60.39-12.07-41.59-13.61-86.18-14.69-129.19-1.39-55.49-.19-111-.33-166.52-.15-53.52.14-107.07,7.15-160.23,4.54-34.41,11.64-69.38,25.53-101.35,9.69-22.29,22.62-42.48,40.11-59.14,14.75-14,32-24.75,50.55-34.21,43.75-22.3,91.55-36.06,140.27-41.91,57.22-6.88,116.89-4.41,172.86,9.72,24.69,6.24,48.71,15,71.1,27.15C1901.75,806.9,1907.82,796.54,1901,792.85Z"/><path class="cls-1" d="M1111.27,1398.23l-96.91-43s-62.56,1-74.22,34,44.58,17.32,44.58,17.32-83.28,84.23-12.24,118.28C1043.93,1559.12,1089.9,1446.64,1111.27,1398.23Z"/><path class="cls-2" d="M1114.3,1393.05c-31.83-14.13-63.61-28.35-95.48-42.38-4.17-1.84-7.82-1.38-12.31-1a154.44,154.44,0,0,0-32.27,6c-11.88,3.69-24.14,9.36-32.35,19-7,8.17-13.08,21.86-6.8,32.06,5.84,9.52,19.28,10.12,29.19,9.39a114.42,114.42,0,0,0,22-3.76l-5.84-10a189.41,189.41,0,0,0-27.76,36.42c-11.8,20-21.39,46.18-9.33,68.28,12.94,23.72,46.08,35.06,71.42,28,26.47-7.39,45.8-30.54,60.36-52.55,16.82-25.43,29-53.43,41.28-81.23,3.09-7-7.25-13.12-10.36-6.06-10,22.67-19.93,45.4-32.39,66.86s-28.1,44.6-50.64,56.75c-21.24,11.45-49.57,6.56-65.43-12.11-14.25-16.77-6.38-40.32,2.92-57.42A172.92,172.92,0,0,1,989,1410.83c4.18-4.24,0-11.65-5.84-10a106.06,106.06,0,0,1-14.65,2.93,71.63,71.63,0,0,1-13.09.5c-3.14-.19-6.86-1.09-8.87-2.45a4,4,0,0,1-1.62-2.11,9.46,9.46,0,0,1-.07-5A26.64,26.64,0,0,1,952,1381.4c7.63-8,18.42-12.25,28.84-15.14a143.31,143.31,0,0,1,27.18-4.7c1.62-.12,4.66.32,6.17-.34,1.1-.48-3.92-1.61-2.49-.67a14.18,14.18,0,0,0,1.91.84l48.93,21.72,45.73,20.3C1115.24,1406.52,1121.35,1396.18,1114.3,1393.05Z"/><path class="cls-2" d="M1032.6,1460a287.86,287.86,0,0,1-16.55,26c-9.39,13.3-20.38,28-35,35.88-6.8,3.67-.75,14,6.06,10.36,15.77-8.51,27.62-23.94,37.89-38.21a287.66,287.66,0,0,0,18-28c3.75-6.76-6.61-12.82-10.36-6.06Z"/><path class="cls-2" d="M1002.29,1444.6a284,284,0,0,1-16.54,26c-9.4,13.3-20.38,28-35,35.89-6.8,3.66-.75,14,6,10.36,15.77-8.51,27.62-23.94,37.89-38.21a284.74,284.74,0,0,0,17.95-28c3.76-6.75-6.6-12.81-10.36-6.05Z"/><path class="cls-1" d="M492.73,510.84s-312.6-17.35-292.53-294.5L17.54,196.79S-72.82,593.7,156.62,764.7C390,938.65,519,942.68,519,942.68S459.89,650.85,492.73,510.84Z"/><path class="cls-3" d="M870.54,510.84C818,485,752.56,469.61,681.63,469.61S545.29,485,492.73,510.84c-75.88,37.37-124.93,96.7-124.93,163.5v407.41c0,77.81,72.08,141.48,160.18,141.48H835.29c88.1,0,160.18-63.67,160.18-141.48V674.34C995.47,607.54,946.42,548.21,870.54,510.84Z"/><polygon class="cls-1" points="607.77 319.77 607.77 489.25 681.63 560.65 755.5 489.25 755.5 319.77 607.77 319.77"/><path class="cls-2" d="M601.77,319.77V437.14c0,16.92-.47,33.92,0,50.83.13,4.78,3.32,7,6.52,10.13L630.91,520l46.48,44.94a6.12,6.12,0,0,0,8.49,0l39.43-38.12,25.33-24.49c3.49-3.37,10.34-7.88,10.86-13.11.42-4.26,0-8.77,0-13V319.77a6.09,6.09,0,0,0-6-6H607.77c-7.72,0-7.73,12,0,12H755.5l-6-6V489.25l1.76-4.24-64.76,62.6-9.11,8.8h8.49l-64.76-62.6L612,485l1.76,4.24V319.77C613.77,312.05,601.77,312,601.77,319.77Z"/><path class="cls-1" d="M560.44,521.76l102.41,99,14.54,14.06a6.12,6.12,0,0,0,8.49,0l102.41-99,14.54-14c5.57-5.38-2.92-13.86-8.48-8.49l-102.42,99-14.54,14.05h8.49l-102.42-99-14.54-14.06c-5.55-5.37-14,3.11-8.48,8.49Z"/><path class="cls-1" d="M870.54,510.84S798.8,940.47,798.8,1223.23H994.11S1347.26,609.28,870.54,510.84Z"/><path class="cls-1" d="M519,499.22s5.9,504.54,35.29,724H390.52S141.21,605.5,519,499.22Z"/><path class="cls-2" d="M490.78,663l-59,64.46-8.34,9.11a6,6,0,0,0-1.54,5.84L452,824.92l47.79,130.93,11,30.13c2.62,7.19,14.22,4.08,11.57-3.19l-30.11-82.5L444.48,769.36l-11-30.12-1.54,5.84,59-64.46,8.34-9.12c5.2-5.69-3.26-14.19-8.49-8.48Z"/><path class="cls-2" d="M408.75,574.05V674c0,2.49,1.85,5.27,4.4,5.79l62.42,12.75c7.54,1.54,10.76-10,3.19-11.57l-62.42-12.75,4.41,5.78v-100c0-7.73-12-7.74-12,0Z"/><path class="cls-2" d="M866,668.5,925,733l8.34,9.12-1.54-5.84-30.11,82.49L853.86,949.66l-11,30.13c-2.65,7.26,8.94,10.39,11.57,3.19l30.12-82.5,47.78-130.93,11-30.12a6,6,0,0,0-1.54-5.84l-59-64.46L874.46,660c-5.23-5.71-13.7,2.79-8.49,8.48Z"/><path class="cls-2" d="M944.49,571.05V671l4.4-5.78L886.48,678c-7.56,1.54-4.36,13.11,3.19,11.57l62.41-12.75a6.05,6.05,0,0,0,4.41-5.79v-100c0-7.73-12-7.74-12,0Z"/><path class="cls-1" d="M1058,612s404.16,317.49,65.44,809l-166.86-67.79s72.55-189.37,52.44-278.2S968.06,700.41,1058,612Z"/><path class="cls-2" d="M402.26,525c-13.58,11.14-24.64,26.35-34.33,40.79-26.19,39-43.07,84-52.72,129.84-8.13,38.54-11.25,78-10.7,117.37.1,7.71,12.1,7.74,12,0-.86-61.95,7.51-124.52,30.76-182.25,12.45-30.9,29.6-61.09,51.4-85.26a115.11,115.11,0,0,1,12.08-12c6-4.9-2.56-13.34-8.49-8.48Z"/><path class="cls-2" d="M1039.59,627.38c-30.48,42.15-41.25,97.17-47.69,147.72-7.5,59-7.83,118.89-4.31,178.16,1.51,25.3,3.78,50.57,7.08,75.7,2.52,19.13,6.54,37.85,9.8,56.84,4.19,24.49,2,50.31-1.4,74.76-3.87,28.19-10.09,56.06-17.3,83.57-9.68,36.87-22,72.69-34.34,108.69-.2.58-.43,1.15-.65,1.72-1.25,3.27,1.43,6.26,4.19,7.38l56.18,22.82,90.08,36.59,20.6,8.37c7.15,2.91,10.26-8.7,3.19-11.57l-56.18-22.82-90.08-36.59-20.6-8.37,4.19,7.38c11.34-29.63,20.93-60,29.57-90.56,7.68-27.12,14.42-54.55,19.37-82.32,4.69-26.34,8.19-53.33,7.05-80.14-.85-19.76-6.08-38.87-9.14-58.34-3.64-23.09-6.12-46.36-8-69.65-4.64-58.31-5.4-117.23-.14-175.52,2.57-28.51,6.69-57,13.6-84.77,6-24,14-47.91,26.44-69.4q4.08-7,8.84-13.59c4.53-6.27-5.88-12.26-10.37-6.06Z"/><path class="cls-2" d="M1131.25,1366.68l-117.54-47.74-16.65-6.76c-7.15-2.91-10.26,8.69-3.19,11.57l117.54,47.74,16.65,6.77c7.15,2.9,10.26-8.7,3.19-11.58Z"/><path class="cls-2" d="M173.4,256.41,52.79,243.5l-17.24-1.85c-7.67-.82-7.61,11.19,0,12l120.61,12.91,17.24,1.85c7.67.82,7.61-11.19,0-12Z"/><path class="cls-1" d="M45.56,200.66l105.35,12s59.4-19.68,60.59-54.75-47.72-3.15-47.72-3.15S218,49.41,140,38.23C61.55,27,51.42,148.08,45.56,200.66Z"/><path class="cls-2" d="M45.56,206.66,148,218.3c3.77.43,6.22-.42,9.78-1.82a160.22,160.22,0,0,0,27.78-14c10.52-6.77,20.88-15.31,26.91-26.5,5.3-9.85,8.44-25.4.27-34.68-12.85-14.58-39.31,0-51.95,8.24l8.21,8.21a189.47,189.47,0,0,0,15.52-42.61c5.24-22.24,7-49.64-10.16-67.42-19-19.71-54.8-21.21-77.18-6.88-23.4,15-35.1,43-42.44,68.66C46.21,139.23,43,170.05,39.56,200.66c-.85,7.67,11.16,7.61,12,0,2.74-24.6,5.41-49.22,11-73.38,5.6-24.37,13.75-51.39,32.21-69.3,17.06-16.54,45.89-19.78,65.89-6.17,17.72,12,17.1,36.52,13.35,55.23a185.07,185.07,0,0,1-9.74,32c-1.28,3.23-2.14,5.27-3.89,9-.57,1.23-1.15,2.45-1.77,3.66-2.57,5,2.88,11.67,8.21,8.21a107,107,0,0,1,14.95-8,57.22,57.22,0,0,1,12.29-4c3.27-.63,6.58-.64,8.74.58a5.38,5.38,0,0,1,1.94,2.52,17,17,0,0,1,.78,6.93,29.57,29.57,0,0,1-4.94,14.63c-5.88,9.3-15.25,16.19-24.56,21.77a149,149,0,0,1-23.11,11.26c-.84.32-1.77.56-2.57.95-1.56.76-.47-.27.54.13a16.47,16.47,0,0,0-3.85-.44l-53.71-6.1-47.74-5.43C37.9,193.79,38,205.8,45.56,206.66Z"/><path class="cls-2" d="M102,118.44a286.83,286.83,0,0,1,8-29.82C115,73.18,121,55.76,132.5,43.89c5.39-5.53-3.08-14-8.48-8.48-12.53,12.86-19.31,31.07-24.84,47.81a288.67,288.67,0,0,0-8.72,32c-1.55,7.54,10,10.76,11.57,3.19Z"/><path class="cls-2" d="M135.55,124a284.35,284.35,0,0,1,8-29.82c5-15.44,10.92-32.86,22.47-44.73,5.39-5.53-3.09-14-8.49-8.48C145,53.84,138.22,72.05,132.7,88.79a284.37,284.37,0,0,0-8.72,32c-1.55,7.54,10,10.76,11.57,3.19Z"/><ellipse class="cls-2" cx="568.44" cy="171.16" rx="145.69" ry="105.76" transform="translate(-24.1 134.88) rotate(-13.25)"/><ellipse class="cls-2" cx="771.09" cy="177.5" rx="105.76" ry="145.69" transform="translate(100.34 597.23) rotate(-45)"/><path class="cls-1" d="M811.43,260.8a54.84,54.84,0,0,0-15.3,2l-25,90.73c9.79,10.21,21.48,18.63,36.74,18.85,30.26.43,57.26-32.71,57.7-63S841.68,261.23,811.43,260.8Z"/><path class="cls-2" d="M811.43,254.8a67.88,67.88,0,0,0-16.9,2.17,6,6,0,0,0-4.19,4.19l-24.1,87.34a32.63,32.63,0,0,0-.93,3.39c-1.12,6.84,9.15,13.26,14,16.74,12.72,9.07,28.77,12.16,43.77,7.42,27.48-8.67,48-38.15,48.41-66.68.22-15.07-5.74-29.85-17.31-39.71-11.92-10.16-27.33-14.5-42.79-14.86-7.73-.18-7.73,11.82,0,12,23.61.55,47.15,13.93,48.07,39.81.88,24.88-17.52,52.36-42.12,58.6-16.63,4.22-30.82-4.41-42-16l1.55,5.84,21.88-79.31,3.15-11.42-4.19,4.19a54.65,54.65,0,0,1,13.71-1.74C819.15,266.79,819.16,254.79,811.43,254.8Z"/><path class="cls-1" d="M835.27,297.83s-15.42-2-24.81,9.79-3,32.24,8.24,30.43,15.86-10.77,12.95-18.72-12.75-7.46-24.28-1.28"/><path class="cls-2" d="M835.27,291.83c-20.3-2.41-38.6,15-34.72,35.45,2,10.34,10.16,18.89,21.23,16.27s19.17-13.21,16-24.73c-4.39-16-22.54-11.58-33.44-5.95-6.87,3.54-.8,13.9,6,10.36,4.27-2.2,19.76-8.07,15.69,3.19-1.09,3-5.07,5.82-8.33,5.73-2.58-.06-3.92-2.55-4.76-4.75-5.53-14.37,9.06-25.14,22.28-23.57,7.65.91,7.59-11.09,0-12Z"/><path class="cls-1" d="M547.66,260.8a54.84,54.84,0,0,1,15.3,2l25,90.73c-9.79,10.21-21.47,18.63-36.74,18.85-30.25.43-57.26-32.71-57.69-63S517.4,261.23,547.66,260.8Z"/><path class="cls-2" d="M547.66,266.8a54.57,54.57,0,0,1,13.7,1.74l-4.19-4.19,21.89,79.32,3.15,11.41,1.54-5.84c-9.94,10.24-22.19,18.58-37.14,16.9-12.79-1.44-24-9.49-32.07-19.09C499.25,329,492.16,299,510.73,280.54c9.72-9.64,23.56-13.43,36.93-13.74,7.71-.18,7.74-12.18,0-12-26.82.62-54.29,15.16-59.19,43.64s12.14,59.86,37.44,73.36c13.51,7.21,29.21,8.7,43.43,2.64A66.55,66.55,0,0,0,589,360.94c3.14-3,5.56-5.53,4.5-10C590,336,585.34,321.3,581.26,306.53l-12.52-45.37a6,6,0,0,0-4.19-4.19,67.8,67.8,0,0,0-16.89-2.17C539.94,254.79,539.92,266.79,547.66,266.8Z"/><path class="cls-1" d="M523.81,297.83s15.42-2,24.81,9.79,3,32.24-8.23,30.43-15.87-10.77-12.95-18.72,12.74-7.46,24.28-1.28"/><path class="cls-2" d="M523.81,303.83c13.27-1.58,27.75,9.18,22.28,23.57-.73,1.93-2,4.49-4.29,4.75-3.36.39-7.68-2.63-8.8-5.73-4.08-11.27,11.48-5.37,15.69-3.19,6.85,3.53,12.93-6.82,6.06-10.36-9.54-4.93-25-9.92-31.79,1.93-5.77,10.06-.46,22.39,9.57,27.05,10.87,5.06,21,.36,25-10.73a28.78,28.78,0,0,0-7.59-30.88,34.67,34.67,0,0,0-26.08-8.41c-7.57.9-7.66,12.91,0,12Z"/><path class="cls-1" d="M672.36,104.61c-125.31.66-146.84,88.88-132.88,188.45,7.88,56.22,24.37,130,81.38,154.41,83.61,35.8,156.4-11.57,183.64-98.41S852.11,103.66,672.36,104.61Z"/><path class="cls-2" d="M672.36,98.61c-37.41.31-77,8.3-104.77,35.16-23.34,22.59-33.53,54.39-36.67,86-3.69,37.07,1.39,75.22,9.06,111.49,8.22,38.89,22.54,81.34,54.59,107.17,31.11,25.08,77.5,33.39,115.69,22.28,38.53-11.21,68.3-41.18,86.27-76.26,14-27.39,22-58.43,27.08-88.68,4.73-27.91,6.52-56.46,2.24-84.54-4.08-26.76-14.69-52.8-33.77-72.4-23.13-23.75-55.4-34.66-87.67-38.51a264,264,0,0,0-32-1.71c-7.72,0-7.74,12,0,12,33.66-.1,69.11,5,97.28,24.76,20.8,14.59,34.28,36.72,40.86,61C823.69,245,813.82,298.81,799.17,346c-11.3,36.4-32.42,71.46-65.74,91.52s-72.87,19.85-108.21,5.31c-36.58-15-55.92-51.39-66.77-87.47a396.72,396.72,0,0,1-16.66-108.26c-.34-30.47,3.92-62.61,20.89-88.65,17.72-27.18,47.58-40.85,78.84-45.65a216.34,216.34,0,0,1,30.84-2.2C680.08,110.55,680.09,98.55,672.36,98.61Z"/><path class="cls-1" d="M646,358.12s-.84,31.4,28.79,31.4c31.75,0,29.69-31.4,29.69-31.4"/><path class="cls-2" d="M640,358.12c-.28,12.82,5.79,27.05,17.39,33.31,18.54,10,43.31,2.15,50.64-17.77a39.57,39.57,0,0,0,2.45-15.54c-.47-7.68-12.47-7.73-12,0a25.55,25.55,0,0,1-2,12.35c-3.34,8.57-11.22,12.75-20.27,13-9.46.29-17.69-3.43-21.58-12.36a27.8,27.8,0,0,1-2.61-13c.16-7.73-11.84-7.73-12,0Z"/><circle class="cls-2" cx="618.77" cy="279.19" r="8.7"/><circle class="cls-2" cx="733.9" cy="279.19" r="8.7"/><line class="cls-1" x1="675.21" y1="296.7" x2="675.21" y2="335.47"/><path class="cls-2" d="M669.21,296.7v38.77c0,7.72,12,7.74,12,0V296.7c0-7.73-12-7.74-12,0Z"/><path class="cls-2" d="M529,259.8c39.14,3,79.1-80.82,79.1-80.82,36.08,87.87,116.07,45.06,132-3.43,0,0,17.55,74.61,92.82,82.25,0,0,94.88-257.8-154.51-257.8C449.51,0,489.83,256.84,529,259.8Z"/><path class="cls-3" d="M655.19,279.19c-.25,15.13-9.53,29.11-24,34.25a36.45,36.45,0,1,1,24-34.25c.12,7.72,12.12,7.74,12,0A49.15,49.15,0,0,0,635,233.59c-18.78-6.9-40.92-.71-53.53,14.76C568.7,264,566.7,286.53,577.18,304a49,49,0,0,0,51.4,22.59c22.48-4.41,38.24-24.88,38.61-47.41C667.31,271.47,655.31,271.47,655.19,279.19Z"/><path class="cls-3" d="M770.32,279.19c-.25,15.13-9.53,29.11-24,34.25a36.45,36.45,0,1,1,24-34.25c.12,7.72,12.12,7.74,12,0a49.16,49.16,0,0,0-32.16-45.6c-18.79-6.9-40.93-.71-53.54,14.76C683.84,264,681.83,286.53,692.31,304a49,49,0,0,0,51.4,22.59c22.48-4.41,38.24-24.88,38.61-47.41C782.44,271.47,770.44,271.47,770.32,279.19Z"/><path class="cls-3" d="M658.82,271.22h35c7.72,0,7.73-12,0-12h-35c-7.72,0-7.73,12,0,12Z"/><rect class="cls-1" x="1493.82" y="422.83" width="402.8" height="276.74" rx="107.1"/><rect class="cls-1" x="1454.75" y="422.83" width="402.8" height="276.74" rx="107.1"/><path class="cls-2" d="M1750.45,693.57H1573.59c-11.73,0-23.28.07-34.81-2.67A102.28,102.28,0,0,1,1476.21,646c-11.52-18.39-15.46-38.49-15.46-59.88V534.47c0-21.9,5-42.49,17.26-60.87a102.21,102.21,0,0,1,64.09-42.83c10.86-2.22,21.81-1.94,32.81-1.94h155.35c7.89,0,15.82-.2,23.71.06a101.43,101.43,0,0,1,97.58,101.3c.08,15.6,0,31.2,0,46.8,0,18.73-.36,36.77-7.81,54.44a101.1,101.1,0,0,1-93.29,62.14c-7.72,0-7.73,12,0,12,58.47-.39,108.16-46.34,112.77-104.7,1.27-16,.33-32.46.33-48.54,0-18.87.66-37.56-5.08-55.83-15.1-48.15-60.37-79.67-110.33-79.67h-93.49q-45.63,0-91.27,0c-51,.05-97.19,33.93-110.69,83.55-4.88,18-3.94,36.47-3.94,54.86,0,16.63-1.22,33.9.82,50.46,6.94,56.3,55.61,99.56,112.34,99.87,26.93.14,53.86,0,80.79,0h107.75C1758.17,705.57,1758.19,693.57,1750.45,693.57Z"/><path class="cls-4" d="M1300.15,840.37s136.69,158.6,109.16,349.11c-28.55,197.58-196,481.24-592,351.62l20-153.8s193.07-61.24,246.44-179.73C1121.15,1124.53,1179.55,877.29,1300.15,840.37Z"/><path class="cls-4" d="M1332.05,826.85c52.56-25.88,118-41.23,188.9-41.23h0c70.92,0,136.34,15.35,188.9,41.23,75.88,37.37,135.34,86.92,124.07,349.36-8.45,196.64-93.14,341-93.14,341H1205.12s11.31-144.39,2.86-341C1196.71,913.77,1256.17,864.22,1332.05,826.85Z"/><polygon class="cls-1" points="1418.06 635.18 1418.06 804.66 1491.93 876.06 1565.79 804.66 1565.79 635.18 1418.06 635.18"/><path class="cls-2" d="M1412.06,635.18V752.55c0,16.92-.47,33.92,0,50.83.13,4.78,3.32,7,6.52,10.13l22.62,21.86,46.48,44.94a6.12,6.12,0,0,0,8.49,0l39.43-38.12,25.33-24.49c3.49-3.37,10.34-7.88,10.86-13.11.43-4.26,0-8.77,0-13V635.18a6.09,6.09,0,0,0-6-6H1418.06c-7.72,0-7.73,12,0,12h147.73l-6-6V804.66l1.76-4.24L1496.79,863l-9.11,8.8h8.49l-64.76-62.6-9.11-8.8,1.76,4.24V635.18C1424.06,627.46,1412.06,627.45,1412.06,635.18Z"/><path class="cls-1" d="M1647,623.49a54.52,54.52,0,0,0-15.42,0c19.92-75.28,9.24-159.25-116.71-182.92C1391.75,417.47,1353.86,500,1348.65,600.4c-2.94,56.69.39,130.6,50.56,167.06,60.84,44.2,152,19.38,196.33-57,8.45,11.35,19,21.15,34.13,23.26,30,4.17,60.87-25.38,65-55.35S1677,627.66,1647,623.49Z"/><path class="cls-2" d="M1647,617.49a61.68,61.68,0,0,0-15.42,0l5.78,7.59c13.41-51,12.6-109.66-28.36-148.27-25.51-24.05-60.17-36.15-94.08-42.31-32.41-5.89-67.09-6.22-97.32,8.48-53.64,26.09-69.72,90.38-74.16,144.87-5.4,66.28-2.54,153,62.1,190.88,60.73,35.57,137.54,9.53,179.49-42.61a186.36,186.36,0,0,0,15.65-22.67h-10.36c10.27,13.6,23.13,24.61,40.69,26.4,16.14,1.64,31.87-5.59,43.94-15.84,23.26-19.74,36.34-56.65,16.2-83.08-10.2-13.4-26.17-20.84-42.55-23.28-7.56-1.12-10.82,10.44-3.19,11.58,23.27,3.45,44.94,18.52,43.71,44.27-1.2,25.45-24.53,52.37-50.5,54.44-16.12,1.29-28.67-8.27-37.94-20.55-2.62-3.48-7.88-4.23-10.36,0-16.93,28.89-42.33,52.91-73.48,65.79-27.84,11.51-59.34,13.68-87.88,3.39-31-11.19-52.91-36.15-63.62-66.92-11.14-32-12.39-66.71-11.13-100.28,1.88-50.62,10-114,53.94-146.65,22.73-16.88,51.22-21.45,78.94-19.71,34.06,2.13,70.35,11.5,98.92,30.72,20.83,14,36.13,34.42,42.88,58.65,6.48,23.24,5.5,48.05,1,71.55-1.16,6-2.55,12-4.11,18-.88,3.37,1.79,8.1,5.79,7.6a61.68,61.68,0,0,1,15.42,0C1654.69,630.41,1654.62,618.41,1647,617.49Z"/><path class="cls-1" d="M1434.63,696s-5.15,31,24.19,35.07c31.44,4.38,33.74-27,33.74-27"/><path class="cls-2" d="M1428.85,694.4c-2.14,13.24,1.59,28.14,12.77,36.34,16.63,12.19,42.77,8,52.33-10.8a42.64,42.64,0,0,0,4.61-15.88c.6-7.7-11.4-7.66-12,0-.12,1.56.18-.92,0,0s-.34,2-.57,2.91a29.56,29.56,0,0,1-3.13,8.28c-4.63,8.15-12.88,11.07-22,10.1-9.42-1-16.91-6-19.48-15.28a30.73,30.73,0,0,1-1.11-9.25c0-1.06.1-2.1.15-3.14.09-1.75,0-.34,0,0,1.22-7.55-10.34-10.8-11.57-3.19Z"/><circle class="cls-2" cx="1418.59" cy="614.08" r="8.7"/><circle class="cls-2" cx="1532.62" cy="629.96" r="8.7"/><line class="cls-1" x1="1472.08" y1="639.2" x2="1466.73" y2="677.6"/><path class="cls-2" d="M1466.3,637.6,1461,676c-1.06,7.55,10.51,10.82,11.57,3.19l5.35-38.41c1.05-7.55-10.51-10.81-11.57-3.19Z"/><path class="cls-1" d="M1663.07,670.69s-10.82-11.15-25.5-7.79-22.39,23.39-12.51,28.94,19.12,1.45,21.79-6.58-5.33-13.77-18.2-16.13"/><path class="cls-2" d="M1667.32,666.45c-14.29-14.42-40.13-13.52-49.74,5.63-4.18,8.33-4.49,19.61,4.45,24.94,10.76,6.42,25.42,3.2,30.16-9,5.68-14.64-10.27-22.38-21.94-24.68-7.55-1.49-10.77,10.07-3.19,11.57,4.58.9,20.44,4.85,11.8,11.9-2.71,2.21-8.35,2.19-11-.21-1.73-1.59-1.38-4-.83-6.05,3.84-14.74,22.44-15,31.77-5.63,5.44,5.5,13.93-3,8.49-8.48Z"/><path class="cls-2" d="M1463.26,362.48S1359,311.41,1303,394.27c-56.3,83.41-2.71,143.34,49.9,165.14,84.11,34.85,207.5,3.56,210.68-33.48,0,0-11.9,85.43,65,91.61,0,0,25.74-4.36,50,11.49,0,0,123.14-160.07-8.6-257.18C1528.67,267.7,1463.26,362.48,1463.26,362.48Z"/><path class="cls-2" d="M1632.62,327.37l.42,37.54a6.07,6.07,0,0,0,9,5.18l34.64-18.73c6.8-3.67.75-14-6-10.36L1636,359.73l9,5.18-.42-37.54c-.09-7.72-12.09-7.74-12,0Z"/><path class="cls-1" d="M1262.64,935.73a276.16,276.16,0,0,1,11.73-29.09c8.74-18.91,19.06-37.75,32.94-53.41,7.35-8.29,16-16.25,26.34-20.59,3-1.26,5.09-4,4.19-7.38-.75-2.83-4.4-5.45-7.38-4.19-21,8.8-36.1,27-48.14,45.72-10.87,16.93-19.57,35.26-26.91,54-1.53,3.89-3,7.81-4.34,11.79-2.42,7.35,9.16,10.5,11.57,3.19Z"/><path class="cls-1" d="M1557.14,943.29a283.09,283.09,0,0,1,13.52-39.47c10.4-25.05,24-49.92,43.25-69.31,11.07-11.15,24.19-20.19,39.41-24.53,7.42-2.12,4.27-13.7-3.19-11.57-29.45,8.4-51.48,31.61-67.66,56.64-13.89,21.51-24.33,45.37-32.31,69.66-1.67,5.08-3.29,10.2-4.59,15.39-1.87,7.49,9.69,10.68,11.57,3.19Z"/><path class="cls-2" d="M1204.86,1281.13c.35,42.88.2,85.78-.75,128.65-.35,15.48-.81,31-1.65,46.42-.41,7.71,11.59,7.69,12,0,2.89-53.3,2.69-106.82,2.48-160.18q0-7.44-.08-14.89c-.06-7.72-12.06-7.74-12,0Z"/><path class="cls-1" d="M836.5,1525.55,855,1421.14s-16-60.5-50.89-63.87-6.11,47.45-6.11,47.45-101.77-60.61-117.75,16.53C664.14,1498.83,784.38,1516.44,836.5,1525.55Z"/><path class="cls-2" d="M842.29,1527.14,860.36,1425c.74-4.19,0-7.22-1.36-11.23a160.33,160.33,0,0,0-12.41-28.55c-6.26-11.09-14.49-22-25.66-28.53-9.46-5.52-24.72-9-33.92-1.12-14.45,12.41-1.61,39.07,5.79,52.17l8.21-8.21a189.69,189.69,0,0,0-41.69-18.07c-22.22-6.7-49.74-9.74-68.44,7-20.32,18.15-23.3,53.38-10.33,76.38,13.57,24.09,41,37.29,66.05,46.13,28.59,10.11,58.53,15.2,88.31,20.39,7.55,1.32,10.79-10.24,3.19-11.57-24.46-4.27-49-8.45-72.82-15.42-24.1-7-50.33-16.74-67.48-35.95-15.89-17.8-17.75-46.8-3.28-66.25,13-17.51,37.45-15.52,56.21-10.63A171.74,171.74,0,0,1,795,1409.9c5.23,3.1,11.13-3,8.21-8.21a97.73,97.73,0,0,1-6.71-14.56c-2.33-6.35-5.7-16.6-2.5-21.51a4.35,4.35,0,0,1,1.85-1.66,15.44,15.44,0,0,1,7.17-.78,29.34,29.34,0,0,1,14.38,5.45c9,6.15,15.3,15.87,20.33,25.31a146.3,146.3,0,0,1,10.23,24.54c.38,1.2,1.19,6.17,1.27,2.66.08-3.69-.46,1-.62,1.88l-9.39,53.13-8.46,47.8C829.38,1531.5,840.94,1534.74,842.29,1527.14Z"/><path class="cls-2" d="M757.58,1464a287.1,287.1,0,0,1-29.26-9.82c-15.15-5.93-32-13.09-43.16-25.37-5.2-5.73-13.67,2.78-8.48,8.49,12.06,13.29,29.93,21,46.27,27.59a287.18,287.18,0,0,0,31.44,10.68c7.46,2,10.65-9.55,3.19-11.57Z"/><path class="cls-2" d="M765.21,1430.87a286.92,286.92,0,0,1-29.25-9.82c-15.15-5.92-32-13.09-43.16-25.36-5.21-5.73-13.67,2.77-8.49,8.48,12.06,13.29,29.94,21,46.27,27.59A285.79,285.79,0,0,0,762,1442.44c7.47,2,10.65-9.54,3.19-11.57Z"/><line class="cls-1" x1="1796.84" y1="518.39" x2="1638.55" y2="518.39"/><path class="cls-2" d="M1796.84,512.39H1638.55c-7.72,0-7.73,12,0,12h158.29c7.72,0,7.73-12,0-12Z"/><line class="cls-1" x1="1796.84" y1="577.83" x2="1638.55" y2="577.83"/><path class="cls-2" d="M1796.84,571.83H1638.55c-7.72,0-7.73,12,0,12h158.29c7.72,0,7.73-12,0-12Z"/><path class="cls-1" d="M1475.84,1441.73s-147.64,5.31-150.91,96.38,134.33,8.86,172.5,18.35,60.91-51.27,35.53-78.77S1520.22,1435.78,1475.84,1441.73Z"/><path class="cls-2" d="M1475.84,1435.73a262.78,262.78,0,0,0-84,17.21c-20,7.77-39.8,18.69-53.77,35.38a81.31,81.31,0,0,0-18.34,64.32c7.49,48.74,67.63,34.3,100.34,25.49,20.22-5.45,40.36-12.71,61.13-15.77a63.84,63.84,0,0,1,10.27-.65c.82,0,1.64.08,2.46.16,1,.11-.69-.18.93.17a57.5,57.5,0,0,0,8.75,1.37c12,.66,23.43-5.3,31.16-14.27,16-18.58,21-50.09,6.27-70.87-4-5.6-8.94-10.36-12.79-16.09-2.85-4.25-5.27-8.76-8-13.1-5.36-8.5-12.21-13.28-22.31-14.38-7.35-.81-14.84.08-22.13,1-3.24.42-6,2.46-6,6,0,2.92,2.79,6.42,6,6,6.93-.9,14.21-1.89,21.21-1.13,3.55.39,6.82,1.56,8.69,3.24,5.92,5.27,9.66,15.12,14.71,22,3.68,5,8.42,9.34,11.67,14.62a38.36,38.36,0,0,1,5.23,15.19,53,53,0,0,1-6.23,31.89c-4.74,8.57-12.43,16.34-22.55,17.74-4.77.67-9.16-.78-13.83-1.32a47.88,47.88,0,0,0-9.65,0c-18.83,1.62-37.21,7.92-55.29,13-19.55,5.55-39.69,11.6-60.12,12.41-7.73.31-16.21-.19-22.76-3a23.7,23.7,0,0,1-13.28-13.67c-7.11-18.12-1.51-41.1,9-56.68,10.92-16.14,28.24-27,45.75-34.75,27.25-12.08,57.07-17.4,85.81-19.45.53,0,1.07-.06,1.6-.08C1483.54,1447.45,1483.58,1435.45,1475.84,1435.73Z"/><path class="cls-2" d="M1389.82,1492.83a285.58,285.58,0,0,0-28.33,17.4c-14.47,10-30.08,21.57-38.9,37.17-3.8,6.73,6.56,12.79,10.36,6.06,8.17-14.46,23.13-25.11,36.6-34.24a284.78,284.78,0,0,1,26.33-16c6.83-3.62.77-14-6.06-10.36Z"/><path class="cls-2" d="M1416.37,1521.86a286.46,286.46,0,0,0-28.34,17.4c-14.47,10-30.08,21.57-38.9,37.18-3.8,6.73,6.56,12.78,10.36,6,8.17-14.45,23.13-25.11,36.6-34.24a286.11,286.11,0,0,1,26.33-16c6.83-3.62.77-14-6.05-10.36Z"/><path class="cls-4" d="M1758.11,856.88s174.11,104,198.35,271.8c25.14,174.06-60.34,454.4-476.61,437.37l-22-135.81s192.75-55.48,212.61-168.35C1684.39,1182.78,1651.71,916.4,1758.11,856.88Z"/><path class="cls-2" d="M1485.63,1565.2l-19.21-118.68-2.78-17.14-4.19,7.38c25.26-7.28,49.94-17.55,73.65-28.81,43.58-20.69,87.17-47.64,116.82-86.48,13.79-18.06,23.73-39,27-61.55,2.84-19.52,3.24-39.38,3.67-59.07,1.2-54.82.94-109.72,6.49-164.33,2.8-27.6,7.05-55.2,14.52-82,6.42-23,15.33-45.94,29.78-65.2a112.68,112.68,0,0,1,10-11.55c5.45-5.49-3-14-8.48-8.49-35.24,35.53-47.3,89.46-54.2,137.27-8,55.71-8.86,112.11-9.71,168.3-.33,22.09-.48,44.24-2.12,66.28-1.46,19.62-5.41,38.4-15.48,56.31-23.6,41.94-66.83,70.61-108.58,92.25-27.38,14.19-55.9,25.5-85.19,35-.47.15-1,.29-1.43.42-3.36,1-4.71,4.14-4.19,7.38l19.22,118.68,2.77,17.14c1.23,7.6,12.8,4.38,11.57-3.19Z"/><path class="cls-1" d="M1588.3,1292.59,1128.85,1276s27.37-25.8,46.18-188.89c9.63-83.47,17.38-158.39,17.38-158.39l446.44,14.63s2.93,59.27-5.69,151.13C1619.65,1238.47,1588.3,1292.59,1588.3,1292.59Z"/><path class="cls-2" d="M1588.3,1286.59l-45.88-1.67-109.64-4-132.56-4.8-115-4.16-37.61-1.37c-5.83-.21-12.16-1.16-18-.65a6.87,6.87,0,0,1-.78,0l4.25,10.25c3-2.86,5.19-7.06,7.08-10.68,6.79-12.93,11.41-27.07,15.44-41.06,20.74-72,26.37-148.12,34.5-222.32q4.25-38.73,8.29-77.47l-6,6,44.41,1.45,106.63,3.5,129,4.23L1584,947.5l36.52,1.2c5.7.18,11.94,1.13,17.62.57a6.19,6.19,0,0,1,.75,0l-6-6c2.49,50.86-1,102.49-5.87,153.07-5.53,57.82-14.23,117.13-34.56,171.86q-1.9,5.14-4,10.2c.54-1.29-.18.42-.35.81l-.81,1.85c-.45,1-.9,2-1.37,3-.87,1.84-1.74,3.71-2.77,5.48-3.86,6.7,6.5,12.75,10.37,6,3.4-5.88,5.92-12.39,8.41-18.69,7.35-18.62,12.86-38,17.53-57.4,17.42-72.51,23.8-148,25.59-222.41.42-17.9.72-35.91-.16-53.81a6.13,6.13,0,0,0-6-6l-44.4-1.46-106.64-3.49-129-4.23-111.51-3.65c-18-.59-36.16-2.11-54.14-1.78-.25,0-.5,0-.75,0-3.48-.12-5.67,2.86-6,6-6.68,64.51-12.8,129.26-21.85,193.49-4.42,31.4-9.78,62.79-17.86,93.48-2.51,9.52-5.29,19-8.59,28.26q-1.75,4.95-3.74,9.81c-.53,1.3,0,.14-.36.88s-.56,1.29-.85,1.94c-.55,1.23-1.11,2.45-1.7,3.67a81.64,81.64,0,0,1-5.62,10c-.28.42-.6.81-.89,1.22.2-.29,1.1-1.33.22-.32a8.24,8.24,0,0,1-.56.62c-3.91,3.71-.78,10.06,4.24,10.24l45.88,1.67,109.64,4,132.56,4.8,115,4.16c18.44.67,37.14,2.29,55.6,2,.26,0,.52,0,.78,0C1596,1298.87,1596,1286.86,1588.3,1286.59Z"/></g></g></svg>