<svg xmlns="http://www.w3.org/2000/svg" viewBox="0 0 3620.35 594.65"><defs><style>.cls-1{fill:#a5eb78;}.cls-2{opacity:0.1;}.cls-3{fill:#ec5569;}.cls-4{fill:#e63950;}.cls-5{fill:#fff5f5;}.cls-6{fill:#dce6eb;}.cls-7{fill:#e9f3e3;}</style></defs><g id="Layer_2" data-name="Layer 2"><g id="圖層_1" data-name="圖層 1"><path class="cls-1" d="M648.09,309l-61.66,61.67a4.26,4.26,0,0,1-6,0l-26.55-26.55-21,21,40,40a14.84,14.84,0,0,0,10.49,4.35h0a14.87,14.87,0,0,0,10.49-4.35L669.07,330Z"/><g class="cls-2"><path d="M662.13,323l-79.35,79.35a16.17,16.17,0,0,1-7.94,4.36,14.79,14.79,0,0,0,8.58,2.73h0a14.86,14.86,0,0,0,10.49-4.34L669.07,330Z"/></g><path class="cls-1" d="M1389.09,354l-61.66,61.67a4.26,4.26,0,0,1-6,0l-26.55-26.55-21,21,40,40a14.84,14.84,0,0,0,10.49,4.35h0a14.87,14.87,0,0,0,10.49-4.35L1410.07,375Z"/><g class="cls-2"><path d="M1403.13,368l-79.35,79.35a16.17,16.17,0,0,1-7.94,4.36,14.79,14.79,0,0,0,8.58,2.73h0a14.86,14.86,0,0,0,10.49-4.34L1410.07,375Z"/></g><path class="cls-1" d="M2558.09,354l-61.66,61.67a4.26,4.26,0,0,1-6,0l-26.55-26.55-21,21,40,40a14.84,14.84,0,0,0,10.49,4.35h0a14.87,14.87,0,0,0,10.49-4.35L2579.07,375Z"/><g class="cls-2"><path d="M2572.13,368l-79.35,79.35a16.17,16.17,0,0,1-7.94,4.36,14.79,14.79,0,0,0,8.58,2.73h0a14.86,14.86,0,0,0,10.49-4.34L2579.07,375Z"/></g><path class="cls-3" d="M3572,332H3411.52a48.35,48.35,0,0,0-48.35,48.35V485.6A48.35,48.35,0,0,0,3411.52,534h23a2,2,0,0,1,2,2v51.92a6.78,6.78,0,0,0,11.71,4.64l54.47-57.92a2,2,0,0,1,1.45-.63H3572a48.35,48.35,0,0,0,48.35-48.35V380.35A48.35,48.35,0,0,0,3572,332Z"/><path class="cls-4" d="M3456.88,515.91a2,2,0,0,0-1.92-2.09h-22.3c-25.85,0-46.81-22.8-46.81-50.92V352.07a55.24,55.24,0,0,1,1.73-13.73,48.32,48.32,0,0,0-24.41,42V485.6A48.35,48.35,0,0,0,3411.52,534h23a2,2,0,0,1,2,2v51.92a6.78,6.78,0,0,0,11.71,4.64l8.63-9.18V515.91Z"/><path class="cls-3" d="M3546.09,394.75h0a31.43,31.43,0,0,0-44.46,0l-6.93,6.94a4.24,4.24,0,0,1-6,0l-6.82-6.83a31.45,31.45,0,0,0-44.46,0h0a31.43,31.43,0,0,0,0,44.46l51.28,51.28a4.22,4.22,0,0,0,6,0l51.39-51.39A31.43,31.43,0,0,0,3546.09,394.75Z"/><path class="cls-5" d="M3546.09,394.75h0a31.43,31.43,0,0,0-44.46,0l-6.93,6.94a4.24,4.24,0,0,1-6,0l-6.82-6.83a31.45,31.45,0,0,0-44.46,0h0a31.43,31.43,0,0,0,0,44.46l51.28,51.28a4.22,4.22,0,0,0,6,0l51.39-51.39A31.43,31.43,0,0,0,3546.09,394.75Z"/><path class="cls-6" d="M3453.87,439.32a31.45,31.45,0,0,1,0-44.46h0a31.32,31.32,0,0,1,14-8.11,31.43,31.43,0,0,0-30.45,8.11h0a31.43,31.43,0,0,0,0,44.46l51.28,51.28a4.22,4.22,0,0,0,6,0l5.23-5.23Z"/><circle class="cls-7" cx="20.5" cy="20.5" r="20.5"/></g></g></svg>