<svg xmlns="http://www.w3.org/2000/svg" viewBox="0 0 4586.71 1119.79"><defs><style>.cls-1,.cls-2{fill:none;stroke:#5ca9de;stroke-miterlimit:10;stroke-width:3px;}.cls-2{stroke-dasharray:23.99 23.99;}.cls-3{fill:#fff;}.cls-4{fill:#52483f;}</style></defs><g id="Layer_2" data-name="Layer 2"><g id="圖層_1" data-name="圖層 1"><path class="cls-1" d="M4526.79.52s1.45,4,3.88,11.35"/><path class="cls-2" d="M4537.83,34.76c47.68,160.1,202.53,830.55-517,916.76-818,98-1502-226-2460-216C706.15,744.44,134.84,1042.25,21.51,1106.41"/><path class="cls-1" d="M11.1,1112.38c-6.84,4-10.31,6.14-10.31,6.14"/><polygon class="cls-3" points="3610.52 1069.77 3626.31 790.03 3170.2 940.19 3610.52 1069.77"/><path class="cls-4" d="M3616.52,1069.77l5.35-94.75,8.49-150.41,1.95-34.58c.21-3.78-4-7-7.6-5.78l-45.5,15L3470.42,835l-131.56,43.31-114.15,37.58c-18.42,6.07-37.05,11.7-55.32,18.21-.26.1-.53.18-.79.26-5.56,1.83-5.84,9.86,0,11.57l43.79,12.89,105.16,30.95,127.22,37.44,110,32.36c17.74,5.22,35.46,11.32,53.43,15.73.25.06.5.14.75.22,7.42,2.18,10.59-9.4,3.19-11.58l-43.79-12.88-105.16-30.95L3336,982.71l-110-32.36-36.14-10.64c-5.61-1.65-11.51-4.14-17.29-5.09a5,5,0,0,1-.75-.22V946l45.51-15,108.78-35.81,131.56-43.31,114.15-37.58,37.39-12.3c5.78-1.91,12.44-3.24,17.93-5.91a7.3,7.3,0,0,1,.79-.26l-7.59-5.79L3615,884.79l-8.49,150.4-1.95,34.58C3604.08,1077.49,3616.09,1077.46,3616.52,1069.77Z"/><polygon class="cls-3" points="3170.2 940.19 3659.12 844.74 3610.52 1069.77 3170.2 940.19"/><path class="cls-4" d="M3171.79,946l48.61-9.48,116.74-22.79,141.25-27.58,122.12-23.84,40.25-7.86c6.19-1.2,13.12-1.74,19.12-3.73a5.79,5.79,0,0,1,.83-.16l-7.38-7.38-16.42,76-26.17,121.18-6,27.81,7.39-4.2-43.79-12.88-105.16-30.95L3336,982.71l-110-32.36c-17.75-5.22-35.47-11.32-53.43-15.73-.25-.06-.5-.14-.75-.22-7.42-2.18-10.59,9.4-3.19,11.57l43.79,12.89,105.16,30.95,127.22,37.44,110,32.36c17.74,5.22,35.46,11.32,53.43,15.73.25.06.5.14.75.22,3,.87,6.7-1.06,7.38-4.19l16.42-76,26.17-121.19,6-27.8a6.08,6.08,0,0,0-7.38-7.38l-48.61,9.49-116.74,22.79-141.25,27.57L3228.8,922.65l-40.25,7.86c-6.33,1.23-12.87,2.11-19.11,3.73-.28.07-.56.11-.84.16C3161,935.88,3164.23,947.45,3171.79,946Z"/><polygon class="cls-3" points="3170.2 940.19 3659.12 844.74 3707.66 983.78 3170.2 940.19"/><path class="cls-4" d="M3171.79,946l48.61-9.48,116.74-22.79,141.25-27.58,122.12-23.84,40.25-7.86c6.19-1.21,13.11-1.75,19.12-3.73a7.6,7.6,0,0,1,.83-.16l-7.38-4.19,42.44,121.56,6.1,17.48,5.79-7.6-53.49-4.34L3525.71,963l-155.36-12.6-134.23-10.88L3191.94,936c-6.9-.56-13.9-1.52-20.82-1.69-.31,0-.62,0-.92-.07-7.7-.63-7.66,11.38,0,12l53.49,4.34L3352.14,961l155.37,12.6,134.22,10.88,44.18,3.59c6.9.56,13.9,1.52,20.83,1.69.3,0,.61,0,.92.07,3.74.3,7-4.1,5.79-7.59L3671,860.62l-6.1-17.47a6.18,6.18,0,0,0-7.38-4.19l-48.61,9.49-116.74,22.79-141.25,27.57L3228.8,922.65l-40.25,7.86c-6.33,1.23-12.87,2.11-19.11,3.73-.28.07-.56.11-.84.16C3161,935.88,3164.23,947.45,3171.79,946Z"/><polygon class="cls-3" points="3170.2 940.19 3626.31 790.03 3523.54 707.29 3170.2 940.19"/><path class="cls-4" d="M3171.79,946l45.51-15,108.78-35.81,131.56-43.31,114.15-37.58c18.42-6.06,37.05-11.7,55.32-18.21l.79-.26c3.87-1.27,6.4-7,2.65-10l-89.79-72.3-13-10.45c-2-1.61-4.9-2.5-7.27-.93l-35.16,23.17-84.44,55.65L3298.8,848.25l-88.25,58.16c-14.24,9.39-28.76,18.46-42.76,28.19l-.62.41c-6.42,4.23-.42,14.63,6,10.36l35.16-23.17,84.43-55.66,102.13-67.31,88.25-58.17,28.88-19c4.41-2.91,10-5.56,13.88-9.15a4.44,4.44,0,0,1,.62-.41l-7.27-.94,89.8,72.3,13,10.45,2.64-10-45.5,15L3470.42,835l-131.56,43.31-114.15,37.58c-18.42,6.07-37.05,11.7-55.32,18.21-.26.1-.53.18-.79.26C3161.3,936.81,3164.43,948.4,3171.79,946Z"/></g></g></svg>