<svg xmlns="http://www.w3.org/2000/svg" viewBox="0 0 3579.52 2282.49"><defs><style>.cls-1{fill:#fff;}.cls-2{fill:#e8f8ff;}.cls-3{fill:#52483f;}.cls-4{fill:#b6cbd4;}.cls-5{fill:#b1b479;}.cls-6{fill:#ffedb8;}.cls-7{fill:#febbb5;}.cls-8{fill:#dae7ec;}</style></defs><g id="Layer_2" data-name="Layer 2"><g id="圖層_1" data-name="圖層 1"><rect class="cls-1" x="2867.6" y="378.25" width="705.67" height="477.43" rx="238.72"/><polygon class="cls-1" points="3259.92 923.89 3273.08 824.34 3359.68 824.34 3259.92 923.89"/><rect class="cls-1" x="1913.09" y="40.11" width="705.67" height="477.43" rx="238.72"/><polygon class="cls-1" points="2305.42 585.75 2318.58 486.19 2405.18 486.19 2305.42 585.75"/><path class="cls-2" d="M1398.77,237.46H1170.53c-131.29,0-238.72,107.43-238.72,238.72h0c0,131.29,107.43,238.72,238.72,238.72h6.28l68.35,68.21-9-68.21h162.63c131.3,0,238.72-107.43,238.72-238.72h0C1637.49,344.89,1530.07,237.46,1398.77,237.46Z"/><rect class="cls-1" x="45.2" y="187.93" width="705.67" height="477.43" rx="238.72" transform="translate(796.07 853.3) rotate(-180)"/><polygon class="cls-1" points="358.55 733.58 345.38 634.02 258.78 634.02 358.55 733.58"/><path class="cls-3" d="M472.67,147.83H270.37c-17,0-34.1-.48-51,1.31C138.77,157.66,66,206.89,28.08,278.52c-38.74,73.18-37.33,163.13,3.83,235C72.25,584,146.63,631,227.62,636.67c7.69.54,15.38.59,23.08.59l-4.24-1.76,59.83,59.71,8.52,8.5c3.33,3.32,11,1.16,10.24-4.24l-9-68.21-6,6H427.21c15.08,0,30.17,0,45.25,0a246.35,246.35,0,0,0,98.68-20.85c64.74-28.48,115.17-85.55,135.77-153.18C728,394,716.47,317,676.11,257c-40-59.57-105-99.43-176.29-107.6a244,244,0,0,0-27.15-1.54c-7.73,0-7.74,12,0,12,69.68.2,136.06,32.09,180.25,85.91s62,126.59,47.49,194.66c-14.24,66.94-58.35,125.17-118.61,157.5a230.8,230.8,0,0,1-100,27.18c-14.12.54-28.31.18-42.43.18H310c-2.93,0-6.43,2.76-6,6l9,68.21,10.25-4.24-54.18-54.07-11.58-11.55c-.79-.79-1.55-1.68-2.4-2.4-2.51-2.11-5-2-8-2a239.89,239.89,0,0,1-65.65-8.72A234.17,234.17,0,0,1,13.67,423.11a232.41,232.41,0,0,1,22.64-134.4,236.29,236.29,0,0,1,90.9-97,233.08,233.08,0,0,1,117.9-31.89q28.88,0,57.75,0H472.67C480.39,159.83,480.4,147.83,472.67,147.83Z"/><path class="cls-1" d="M1398.77,231.46H1196.48c-17,0-34.11-.47-51,1.32-80.56,8.52-153.33,57.75-191.26,129.38-38.73,73.18-37.32,163.13,3.84,235,40.34,70.43,114.71,117.45,195.71,123.15,7.69.54,15.38.59,23.08.59l-4.25-1.76,59.84,59.71,8.52,8.5c3.32,3.32,10.95,1.16,10.24-4.24l-9-68.21-6,6h117.18c15.08,0,30.17,0,45.25,0a246.31,246.31,0,0,0,98.67-20.85C1562,671.57,1612.42,614.5,1633,546.87c21.08-69.23,9.56-146.21-30.8-206.26-40-59.57-105-99.43-176.3-107.6a246.11,246.11,0,0,0-27.15-1.55c-7.72,0-7.73,12,0,12,69.68.21,136.07,32.1,180.26,85.92S1641,456,1626.52,524c-14.25,66.94-58.36,125.17-118.62,157.5a230.72,230.72,0,0,1-100,27.18c-14.12.54-28.31.18-42.43.18H1236.14c-2.92,0-6.42,2.76-6,6l9,68.21,10.24-4.24-54.17-54.07-11.58-11.55c-.79-.79-1.55-1.68-2.4-2.4-2.51-2.11-5-2-8-2a239.82,239.82,0,0,1-65.64-8.72A235.11,235.11,0,0,1,995,628.51a231.3,231.3,0,0,1-32.54-256.17,236.41,236.41,0,0,1,90.91-97,233.16,233.16,0,0,1,117.9-31.9q28.88,0,57.75,0h169.8C1406.49,243.46,1406.51,231.46,1398.77,231.46Z"/><path class="cls-3" d="M2192.8,12H2414c32.64,0,64.32,4.86,94.72,17.21a232.28,232.28,0,0,1,107.56,341.72,236.44,236.44,0,0,1-101,86.48,227.09,227.09,0,0,1-65.72,18.31,263.69,263.69,0,0,1-31.66,1.71c-4.76,0-7,1.38-10.13,4.5L2347.56,542l-5.39,5.38,10.24,4.25,9-68.22c.42-3.22-3.1-6-6-6H2193.94a235.75,235.75,0,0,1-87.61-16.71c-63-25.23-113.33-78.92-134.58-143.37a233.33,233.33,0,0,1,26.5-200c37.47-57.1,100.07-96.34,168.08-103.93A246.44,246.44,0,0,1,2192.8,12c7.72,0,7.73-12,0-12-71.92.21-141.36,32.65-187.48,87.9a246,246,0,0,0-53.16,201.18c12.77,69.83,57.21,131.93,118.51,167.49a244.53,244.53,0,0,0,102.56,32.06c15.93,1.31,32.06.8,48,.8h134.16l-6-6-9,68.22c-.71,5.39,6.89,7.58,10.24,4.24l59.84-59.71,8.52-8.51-4.25,1.76c39.21,0,77.16-7.32,112.6-24.47a248.11,248.11,0,0,0,91-76C2667.06,323,2679.2,234,2649.59,157.55c-29.08-75.14-94.86-133.08-173.52-151.27C2453.56,1.08,2430.87,0,2407.9,0H2192.8C2185.08,0,2185.06,12,2192.8,12Z"/><path class="cls-1" d="M3463.06,1479.05c-50.75-27.82-117.06-41.11-188.32-41.16h0c-71.26,0-137.54,15.2-191.26,40.93-77.57,37.14-139.08,86.42-137.11,347.63,1.48,195.72-15,381.22,85,381.28l215.85.14L3463,2208c100,.06,95.13-169.27,112.25-381.16C3593.06,1606.63,3554.87,1529.39,3463.06,1479.05Z"/><path class="cls-1" d="M3387.61,1479c-50.75-27.83-117.06-41.12-188.32-41.16h0c-71.26,0-137.54,15.19-191.26,40.92-77.57,37.15-139.08,86.42-137.11,347.63,1.48,195.72-15,381.22,85,381.29l215.85.13,215.84.13c100,.07,95.13-169.27,112.25-381.16C3517.61,1606.57,3479.42,1529.33,3387.61,1479Z"/><path class="cls-3" d="M3390.64,1473.82c-49.69-27-106.77-38.31-162.83-41.24-58.66-3.06-118.17,3.35-174.13,21.57-29.95,9.76-60,22.74-86.34,40.23a180,180,0,0,0-48.87,47.41c-16.81,24.21-27.47,52.36-34.82,80.74-11.23,43.37-15.52,88.48-17.53,133.12-1.34,29.79-1.18,59.58-1.11,89.39.08,29.53-.18,59-.26,88.58-.16,51.13-.49,102.67,5.33,153.55,4,34.75,10,74,32.89,102a65.61,65.61,0,0,0,34.39,22.29c8.71,2.21,17.52,2.22,26.45,2.23l48.25,0,137,.09,38.65,0,127.67.08,46.74,0c11.69,0,23.65.82,35.29-.57a72,72,0,0,0,37-15.28c24.06-19.23,34.87-51.64,41.93-80.46,10.8-44,14.64-89.81,18.22-134.91,4.54-57.38,8.44-114.85,12.48-172.26,3.49-49.66,5-100-.63-149.53-3.94-34.49-11.45-69-27.24-100.14a189.55,189.55,0,0,0-53.31-64,268.5,268.5,0,0,0-35.24-22.91c-6.77-3.73-12.83,6.63-6.06,10.36,23.75,13.06,45.74,29.1,63.12,50.07,18.49,22.31,30.3,49.26,37.64,77.11,10.33,39.22,12.73,80.24,12.73,120.64,0,56.33-5.81,112.45-9.65,168.6-3.48,50.76-6.37,101.67-12.74,152.17-4.51,35.74-10.07,73.89-26.4,106.45-11.43,22.78-29.61,40.71-55.87,42.53-13.5.93-27.25.18-40.77.17l-45,0-73.08,0-138.74-.09-79.27-.05-44.92,0c-9.79,0-19.88.74-29.51-1.44-28.69-6.47-42.56-34.44-50.09-60.39-12.07-41.59-13.61-86.18-14.69-129.19-1.4-55.49-.19-111-.34-166.52-.14-53.52.14-107.07,7.15-160.23,4.54-34.41,11.64-69.38,25.54-101.35,9.68-22.29,22.61-42.49,40.11-59.14,14.75-14,32-24.75,50.54-34.21,43.76-22.3,91.56-36.06,140.27-41.91,57.22-6.88,116.9-4.41,172.87,9.72,24.68,6.23,48.7,15,71.09,27.15C3391.37,1487.87,3397.43,1477.51,3390.64,1473.82Z"/><path class="cls-1" d="M2600.88,2079.2l-96.9-43s-62.57,1-74.23,34.06,44.59,17.32,44.59,17.32-83.29,84.23-12.25,118.28C2533.54,2240.09,2579.52,2127.61,2600.88,2079.2Z"/><path class="cls-3" d="M2603.91,2074c-31.82-14.13-63.61-28.35-95.47-42.38-4.18-1.84-7.82-1.38-12.32-1a153.92,153.92,0,0,0-32.27,6c-11.88,3.69-24.13,9.35-32.35,19-6.95,8.17-13.07,21.85-6.8,32.06,5.85,9.52,19.29,10.12,29.19,9.39a113.54,113.54,0,0,0,22-3.77l-5.83-10a188.61,188.61,0,0,0-27.76,36.42c-11.81,20-21.39,46.18-9.33,68.28,12.94,23.72,46.08,35.06,71.41,28,26.47-7.39,45.8-30.54,60.36-52.55,16.83-25.43,29-53.43,41.28-81.23,3.09-7-7.25-13.12-10.36-6.06-10,22.67-19.92,45.4-32.39,66.86s-28.1,44.6-50.63,56.75c-21.25,11.45-49.58,6.56-65.44-12.11-14.24-16.77-6.38-40.33,2.93-57.42a172.87,172.87,0,0,1,28.41-38.45c4.18-4.24,0-11.65-5.84-10a107.42,107.42,0,0,1-14.64,2.93,71.71,71.71,0,0,1-13.1.5c-3.13-.19-6.86-1.09-8.86-2.46a3.87,3.87,0,0,1-1.63-2.1,9.6,9.6,0,0,1-.07-5,26.67,26.67,0,0,1,7.15-13.27c7.62-7.95,18.41-12.25,28.84-15.14a143.21,143.21,0,0,1,27.17-4.7c1.62-.13,4.67.32,6.18-.34,1.1-.49-3.93-1.61-2.49-.67a14,14,0,0,0,1.9.84l48.94,21.72,45.72,20.3C2604.85,2087.49,2611,2077.15,2603.91,2074Z"/><path class="cls-3" d="M2522.21,2140.93a287.76,287.76,0,0,1-16.54,26c-9.4,13.3-20.38,28-35,35.88-6.79,3.67-.74,14,6.06,10.36,15.77-8.51,27.62-23.94,37.89-38.21a287.66,287.66,0,0,0,18-28c3.76-6.76-6.6-12.82-10.36-6.06Z"/><path class="cls-3" d="M2491.91,2125.56a285,285,0,0,1-16.54,26c-9.4,13.3-20.38,28-35,35.88-6.8,3.67-.75,14,6.06,10.37,15.77-8.51,27.62-23.94,37.89-38.21a286.6,286.6,0,0,0,17.95-28c3.76-6.75-6.6-12.81-10.36-6.06Z"/><path class="cls-1" d="M1982.35,1191.81s-312.61-17.36-292.53-294.5l-182.66-19.55s-90.36,396.91,139.08,567.91c233.4,173.95,362.39,178,362.39,178S1949.5,1331.82,1982.35,1191.81Z"/><path class="cls-4" d="M2360.15,1191.81c-52.55-25.88-118-41.23-188.9-41.23s-136.34,15.35-188.9,41.23c-75.88,37.37-124.93,96.69-124.93,163.5v407.41c0,77.81,72.08,141.48,160.18,141.48h307.3c88.1,0,160.18-63.67,160.18-141.48V1355.31C2485.08,1288.5,2436,1229.18,2360.15,1191.81Z"/><polygon class="cls-1" points="2097.39 1000.74 2097.39 1170.22 2171.25 1241.62 2245.12 1170.22 2245.12 1000.74 2097.39 1000.74"/><path class="cls-3" d="M2091.39,1000.74v117.37c0,16.92-.48,33.92,0,50.83.13,4.78,3.32,7,6.52,10.13l22.61,21.86,46.49,44.93a6.1,6.1,0,0,0,8.48,0l39.44-38.11,25.33-24.49c3.48-3.37,10.34-7.88,10.86-13.11.42-4.26,0-8.78,0-13.05V1000.74a6.09,6.09,0,0,0-6-6H2097.39c-7.73,0-7.74,12,0,12h147.73l-6-6v169.48l1.75-4.24-64.76,62.6-9.1,8.8h8.48l-64.76-62.6-9.1-8.8,1.76,4.24V1000.74C2103.39,993,2091.39,993,2091.39,1000.74Z"/><path class="cls-1" d="M2050.05,1202.73l102.42,99,14.54,14.06a6.11,6.11,0,0,0,8.48,0l102.42-99,14.54-14c5.56-5.38-2.93-13.86-8.49-8.49l-102.41,99L2167,1307.3h8.48l-102.41-99-14.54-14.06c-5.56-5.37-14,3.11-8.49,8.49Z"/><path class="cls-1" d="M2360.15,1191.81s-71.74,429.63-71.74,712.39h195.32S2836.88,1290.25,2360.15,1191.81Z"/><path class="cls-1" d="M2008.63,1180.18s5.9,504.54,35.29,724H1880.14S1630.83,1286.47,2008.63,1180.18Z"/><path class="cls-3" d="M1980.4,1344l-59,64.45-8.34,9.12c-1.37,1.5-2.29,3.81-1.55,5.84l30.12,82.49,47.78,130.93,11,30.13c2.63,7.19,14.23,4.08,11.57-3.19l-30.11-82.5-47.79-130.93-11-30.12-1.54,5.84,59-64.46,8.34-9.12c5.21-5.69-3.25-14.2-8.48-8.48Z"/><path class="cls-3" d="M1898.37,1255v100c0,2.49,1.85,5.27,4.4,5.79l62.42,12.75c7.54,1.54,10.76-10,3.19-11.57L1906,1349.21l4.41,5.78V1255c0-7.72-12-7.73-12,0Z"/><path class="cls-3" d="M2355.59,1349.47l59,64.46,8.34,9.12-1.54-5.84-30.12,82.49-47.79,130.93-11,30.13c-2.65,7.26,8.94,10.39,11.57,3.19l30.11-82.5L2422,1450.52l11-30.12c.74-2-.18-4.34-1.55-5.84l-59-64.46-8.34-9.11c-5.22-5.71-13.69,2.79-8.48,8.48Z"/><path class="cls-3" d="M2434.1,1252v100l4.41-5.78L2376.09,1359c-7.56,1.54-4.36,13.11,3.19,11.57l62.42-12.75a6.06,6.06,0,0,0,4.4-5.79V1252c0-7.72-12-7.73-12,0Z"/><path class="cls-1" d="M2547.6,1292.93s404.16,317.5,65.44,809l-166.86-67.79s72.56-189.37,52.45-278.2S2457.68,1381.38,2547.6,1292.93Z"/><path class="cls-3" d="M1891.88,1206c-13.59,11.14-24.64,26.35-34.34,40.79-26.18,39-43.06,84-52.72,129.84-8.12,38.54-11.24,78-10.7,117.37.11,7.71,12.11,7.73,12,0-.85-62,7.52-124.53,30.77-182.25,12.44-30.9,29.6-61.09,51.4-85.26a115,115,0,0,1,12.07-12c6-4.9-2.56-13.34-8.48-8.48Z"/><path class="cls-3" d="M2529.21,1308.35c-30.48,42.15-41.26,97.17-47.69,147.72-7.51,59-7.83,118.89-4.31,178.16,1.5,25.3,3.77,50.57,7.08,75.7,2.52,19.13,6.54,37.85,9.79,56.84,4.2,24.49,2,50.31-1.39,74.76-3.88,28.19-10.09,56.06-17.31,83.57-9.67,36.87-22,72.69-34.34,108.69-.2.58-.43,1.15-.65,1.72-1.25,3.27,1.44,6.26,4.2,7.38l56.17,22.82,90.09,36.59,20.6,8.37c7.15,2.91,10.26-8.7,3.19-11.57l-56.18-22.82-90.08-36.6-20.6-8.36,4.19,7.38c11.34-29.63,20.93-60,29.57-90.56,7.67-27.12,14.42-54.56,19.36-82.32,4.7-26.34,8.2-53.33,7-80.14-.85-19.77-6.07-38.87-9.14-58.35-3.63-23.08-6.12-46.35-8-69.65-4.64-58.3-5.4-117.22-.15-175.51,2.57-28.51,6.7-57,13.6-84.77,6-24,13.95-47.91,26.45-69.4q4.08-7,8.83-13.59c4.53-6.27-5.87-12.27-10.36-6.06Z"/><path class="cls-3" d="M2620.86,2047.65l-117.53-47.74-16.65-6.77c-7.15-2.9-10.26,8.7-3.19,11.58L2601,2052.46l16.65,6.76c7.15,2.91,10.27-8.69,3.19-11.57Z"/><path class="cls-3" d="M1663,937.38l-120.6-12.91-17.24-1.85c-7.67-.82-7.62,11.19,0,12l120.6,12.91,17.24,1.85c7.67.82,7.62-11.19,0-12Z"/><path class="cls-1" d="M1535.18,881.63l105.35,12s59.39-19.67,60.59-54.74-47.73-3.15-47.73-3.15,54.19-105.33-23.79-116.51C1551.17,708,1541,829,1535.18,881.63Z"/><path class="cls-3" d="M1535.18,887.63l102.4,11.64c3.76.43,6.22-.42,9.77-1.82a160.22,160.22,0,0,0,27.78-14c10.53-6.77,20.89-15.32,26.91-26.5,5.31-9.85,8.45-25.4.27-34.68-12.84-14.58-39.31,0-52,8.24l8.21,8.2a189.73,189.73,0,0,0,15.53-42.6c5.24-22.24,7-49.64-10.16-67.42-19-19.71-54.81-21.21-77.19-6.89-23.39,15-35.09,43-42.43,68.67-8.5,29.71-11.74,60.53-15.14,91.14-.85,7.67,11.15,7.61,12,0,2.73-24.6,5.41-49.22,11-73.38,5.61-24.37,13.75-51.39,32.22-69.3,17.05-16.54,45.89-19.78,65.89-6.17,17.71,12.05,17.1,36.52,13.34,55.23a184.43,184.43,0,0,1-9.73,32c-1.29,3.22-2.15,5.27-3.89,9-.57,1.22-1.15,2.45-1.77,3.66-2.58,5,2.88,11.67,8.21,8.21a104.91,104.91,0,0,1,14.95-8,57.32,57.32,0,0,1,12.28-4c3.28-.63,6.59-.64,8.75.58a5.32,5.32,0,0,1,1.93,2.52,17.19,17.19,0,0,1,.79,6.93,29.51,29.51,0,0,1-4.95,14.62c-5.87,9.31-15.25,16.2-24.55,21.78a149.52,149.52,0,0,1-23.12,11.26c-.84.32-1.76.56-2.57,1-1.56.76-.46-.27.55.13a16.56,16.56,0,0,0-3.86-.44l-53.7-6.1-47.74-5.43C1527.52,874.76,1527.58,886.77,1535.18,887.63Z"/><path class="cls-3" d="M1591.65,799.41a284.35,284.35,0,0,1,8-29.82c5-15.44,10.92-32.86,22.47-44.73,5.39-5.54-3.09-14-8.49-8.48-12.52,12.86-19.31,31.07-24.84,47.81a286.46,286.46,0,0,0-8.71,32c-1.55,7.54,10,10.76,11.57,3.19Z"/><path class="cls-3" d="M1625.17,805a286.78,286.78,0,0,1,8-29.82c5-15.44,10.92-32.87,22.47-44.73,5.39-5.54-3.08-14-8.48-8.48-12.53,12.86-19.31,31.07-24.84,47.81a288.08,288.08,0,0,0-8.72,32c-1.54,7.54,10,10.76,11.58,3.19Z"/><ellipse class="cls-3" cx="2058.06" cy="852.13" rx="145.69" ry="105.76" transform="translate(-140.55 494.54) rotate(-13.25)"/><ellipse class="cls-3" cx="2260.7" cy="858.47" rx="105.76" ry="145.69" transform="translate(55.12 1850) rotate(-45)"/><path class="cls-1" d="M2301,941.77a54.84,54.84,0,0,0-15.3,2l-25,90.74c9.8,10.21,21.48,18.63,36.75,18.85,30.25.43,57.26-32.72,57.69-63S2331.3,942.2,2301,941.77Z"/><path class="cls-3" d="M2301,935.77a67.8,67.8,0,0,0-16.89,2.17,6,6,0,0,0-4.19,4.19l-24.1,87.34a33.2,33.2,0,0,0-.94,3.38c-1.12,6.85,9.16,13.26,14,16.75,12.72,9.07,28.77,12.16,43.77,7.42,27.48-8.67,48-38.15,48.4-66.68.23-15.07-5.74-29.86-17.3-39.71-11.93-10.16-27.34-14.5-42.8-14.86-7.72-.18-7.72,11.82,0,12,23.61.55,47.15,13.93,48.07,39.81.89,24.88-17.51,52.35-42.11,58.6-16.64,4.22-30.83-4.41-42.05-16l1.54,5.84,21.89-79.32,3.15-11.41-4.19,4.19a54.57,54.57,0,0,1,13.7-1.74C2308.76,947.76,2308.78,935.76,2301,935.77Z"/><path class="cls-1" d="M2324.89,978.8s-15.42-2-24.82,9.79-3,32.24,8.24,30.43,15.87-10.77,13-18.72-12.74-7.46-24.28-1.28"/><path class="cls-3" d="M2324.89,972.8c-20.3-2.42-38.6,15-34.72,35.45,2,10.34,10.16,18.89,21.22,16.27s19.17-13.21,16-24.73c-4.4-16-22.55-11.58-33.45-6-6.86,3.55-.8,13.91,6.06,10.37,4.26-2.2,19.76-8.07,15.69,3.19-1.1,3-5.08,5.82-8.34,5.73-2.57-.06-3.91-2.55-4.76-4.75-5.53-14.38,9.07-25.14,22.29-23.57,7.65.91,7.58-11.1,0-12Z"/><path class="cls-1" d="M2037.27,941.77a54.84,54.84,0,0,1,15.3,2l25,90.74c-9.79,10.21-21.48,18.63-36.74,18.85-30.26.43-57.27-32.72-57.7-63S2007,942.2,2037.27,941.77Z"/><path class="cls-3" d="M2037.27,947.77a54.65,54.65,0,0,1,13.71,1.74l-4.19-4.19,21.88,79.32,3.15,11.41,1.55-5.84c-9.95,10.24-22.19,18.58-37.14,16.9-12.8-1.44-24-9.49-32.08-19.09-15.28-18.09-22.38-48.09-3.8-66.51,9.72-9.64,23.55-13.43,36.92-13.74,7.71-.18,7.74-12.18,0-12-26.82.62-54.28,15.16-59.19,43.63s12.15,59.87,37.44,73.37c13.51,7.21,29.21,8.69,43.44,2.64a66.55,66.55,0,0,0,19.68-13.5c3.14-3,5.55-5.53,4.5-10-3.53-14.91-8.19-29.65-12.26-44.42l-12.52-45.37a6,6,0,0,0-4.19-4.19,67.88,67.88,0,0,0-16.9-2.17C2029.55,935.76,2029.54,947.76,2037.27,947.77Z"/><path class="cls-1" d="M2013.43,978.8s15.42-2,24.81,9.79,3,32.24-8.24,30.43-15.86-10.77-13-18.72,12.75-7.46,24.28-1.28"/><path class="cls-3" d="M2013.43,984.8c13.26-1.58,27.74,9.18,22.28,23.57-.73,1.93-2,4.49-4.3,4.75-3.36.39-7.67-2.63-8.79-5.73-4.08-11.27,11.47-5.37,15.69-3.19,6.85,3.53,12.92-6.82,6-10.37-9.53-4.92-25-9.92-31.79,1.94-5.77,10.06-.45,22.39,9.57,27.05,10.88,5.06,20.95.35,25-10.73a28.82,28.82,0,0,0-7.59-30.88,34.68,34.68,0,0,0-26.08-8.41c-7.57.9-7.67,12.91,0,12Z"/><path class="cls-1" d="M2162,785.58c-125.3.66-146.83,88.88-132.88,188.45,7.88,56.22,24.37,130,81.38,154.41,83.61,35.8,156.41-11.57,183.65-98.41S2341.72,784.63,2162,785.58Z"/><path class="cls-3" d="M2162,779.58c-37.4.31-77,8.3-104.76,35.16-23.34,22.59-33.53,54.39-36.68,86-3.69,37.07,1.4,75.22,9.07,111.49,8.22,38.89,22.54,81.34,54.58,107.17,31.12,25.07,77.5,33.38,115.7,22.28,38.53-11.21,68.3-41.18,86.26-76.26,14-27.39,22-58.44,27.09-88.68,4.72-27.91,6.51-56.46,2.23-84.54-4.08-26.76-14.68-52.81-33.76-72.4-23.14-23.75-55.41-34.66-87.67-38.51a264.16,264.16,0,0,0-32.06-1.71c-7.72,0-7.73,12,0,12,33.67-.1,69.11,5,97.29,24.76,20.79,14.59,34.28,36.72,40.85,61,13.2,48.66,3.33,102.46-11.32,149.66-11.3,36.4-32.43,71.46-65.74,91.52s-72.88,19.85-108.22,5.31c-36.57-15-55.92-51.39-66.76-87.47a396.72,396.72,0,0,1-16.66-108.26c-.35-30.47,3.92-62.62,20.89-88.65,17.72-27.18,47.58-40.85,78.83-45.65a213.66,213.66,0,0,1,30.84-2.2C2169.69,791.52,2169.71,779.52,2162,779.58Z"/><path class="cls-1" d="M2135.57,1039.09s-.83,31.4,28.79,31.4c31.75,0,29.69-31.4,29.69-31.4"/><path class="cls-3" d="M2129.57,1039.09c-.28,12.82,5.79,27.05,17.39,33.31,18.54,10,43.32,2.15,50.65-17.77a39.56,39.56,0,0,0,2.44-15.54c-.46-7.68-12.46-7.73-12,0a25.54,25.54,0,0,1-2,12.35c-3.35,8.57-11.23,12.75-20.28,13-9.45.29-17.69-3.43-21.58-12.36a27.92,27.92,0,0,1-2.61-13c.17-7.73-11.83-7.73-12,0Z"/><circle class="cls-3" cx="2108.38" cy="960.16" r="8.7"/><circle class="cls-3" cx="2223.51" cy="960.16" r="8.7"/><line class="cls-1" x1="2164.82" y1="977.66" x2="2164.82" y2="1016.44"/><path class="cls-3" d="M2158.82,977.66v38.78c0,7.72,12,7.73,12,0V977.66c0-7.72-12-7.73-12,0Z"/><path class="cls-3" d="M2018.59,940.76c39.14,3,79.1-80.81,79.1-80.81,36.08,87.87,116.07,45.06,132-3.43,0,0,17.54,74.61,92.82,82.24,0,0,94.88-257.79-154.51-257.79C1939.12,681,1979.44,937.8,2018.59,940.76Z"/><path class="cls-4" d="M2144.8,960.16c-.24,15.13-9.53,29.11-24,34.25a36.45,36.45,0,1,1,24-34.25c.13,7.71,12.13,7.74,12,0a49.14,49.14,0,0,0-32.16-45.6c-18.78-6.9-40.93-.71-53.54,14.76-12.78,15.68-14.78,38.18-4.3,55.65a49,49,0,0,0,51.39,22.6c22.48-4.41,38.25-24.88,38.61-47.41C2156.93,952.44,2144.93,952.43,2144.8,960.16Z"/><path class="cls-4" d="M2259.93,960.16c-.24,15.13-9.53,29.11-24,34.25a36.45,36.45,0,1,1,24-34.25c.13,7.71,12.13,7.74,12,0a49.14,49.14,0,0,0-32.16-45.6c-18.78-6.9-40.93-.71-53.54,14.76-12.78,15.68-14.78,38.18-4.3,55.65a49,49,0,0,0,51.39,22.6c22.48-4.41,38.25-24.88,38.61-47.41C2272.06,952.44,2260.06,952.43,2259.93,960.16Z"/><path class="cls-4" d="M2148.43,952.19h35c7.72,0,7.73-12,0-12h-35c-7.72,0-7.73,12,0,12Z"/><rect class="cls-1" x="2983.44" y="1103.8" width="402.8" height="276.74" rx="107.1"/><rect class="cls-1" x="2944.37" y="1103.8" width="402.8" height="276.74" rx="107.1"/><path class="cls-3" d="M3240.07,1374.54H3063.21c-11.74,0-23.28.07-34.82-2.68a102.2,102.2,0,0,1-62.56-44.86c-11.53-18.39-15.46-38.49-15.46-59.88v-51.68c0-21.9,4.94-42.49,17.26-60.87a102.15,102.15,0,0,1,64.08-42.83c10.86-2.22,21.81-1.94,32.82-1.94h155.34c7.9,0,15.83-.2,23.72.06a101.43,101.43,0,0,1,97.58,101.3c.07,15.6,0,31.2,0,46.8,0,18.73-.36,36.77-7.81,54.44a101.16,101.16,0,0,1-93.29,62.14c-7.72,0-7.74,12,0,12,58.46-.39,108.15-46.34,112.77-104.7,1.27-16,.33-32.46.33-48.54,0-18.87.65-37.56-5.08-55.83-15.1-48.15-60.38-79.67-110.34-79.67h-93.48q-45.64,0-91.27,0c-51,0-97.19,33.93-110.69,83.55-4.89,18-3.94,36.47-3.94,54.86,0,16.63-1.22,33.9.82,50.45,6.93,56.31,55.61,99.57,112.34,99.88,26.93.14,53.86,0,80.78,0h107.76C3247.79,1386.54,3247.8,1374.54,3240.07,1374.54Z"/><path class="cls-5" d="M2789.77,1521.34s136.69,158.59,109.16,349.11c-28.56,197.58-196,481.24-592,351.62l20-153.8S2520,2007,2573.36,1888.54C2610.77,1805.5,2669.17,1558.26,2789.77,1521.34Z"/><path class="cls-5" d="M2821.67,1507.82c52.55-25.88,118-41.24,188.9-41.24h0c70.93,0,136.35,15.36,188.9,41.24,75.88,37.37,135.35,86.91,124.07,349.36-8.44,196.64-93.14,341-93.14,341H2694.74s11.3-144.38,2.86-341C2686.33,1594.73,2745.79,1545.19,2821.67,1507.82Z"/><polygon class="cls-1" points="2907.68 1316.15 2907.68 1485.63 2981.54 1557.03 3055.41 1485.63 3055.41 1316.15 2907.68 1316.15"/><path class="cls-3" d="M2901.68,1316.15v117.37c0,16.92-.47,33.92,0,50.83.13,4.78,3.32,7,6.52,10.13l22.61,21.86,46.49,44.94a6.12,6.12,0,0,0,8.49,0l39.43-38.12,25.33-24.49c3.48-3.37,10.34-7.88,10.86-13.11.42-4.26,0-8.77,0-13V1316.15a6.09,6.09,0,0,0-6-6H2907.68c-7.72,0-7.74,12,0,12h147.73l-6-6v169.48l1.76-4.24L2986.4,1544l-9.1,8.8h8.49l-64.77-62.6-9.1-8.8,1.76,4.24V1316.15C2913.68,1308.43,2901.68,1308.42,2901.68,1316.15Z"/><path class="cls-1" d="M3136.66,1304.46a55,55,0,0,0-15.43,0c19.92-75.27,9.25-159.24-116.71-182.91-123.15-23.15-161,59.37-166.26,159.78-2.94,56.69.4,130.6,50.57,167.05,60.83,44.21,152,19.39,196.33-57,8.45,11.35,19,21.15,34.12,23.25,30,4.18,60.87-25.37,65-55.34S3166.63,1308.63,3136.66,1304.46Z"/><path class="cls-3" d="M3136.66,1298.46a62.24,62.24,0,0,0-15.43,0l5.79,7.6c13.4-51,12.6-109.66-28.37-148.28-25.5-24-60.16-36.14-94.07-42.3-32.42-5.89-67.1-6.22-97.33,8.48-53.63,26.08-69.72,90.38-74.16,144.87-5.39,66.28-2.54,153,62.11,190.88,60.72,35.57,137.53,9.53,179.49-42.61a187.5,187.5,0,0,0,15.65-22.67H3080c10.26,13.6,23.12,24.61,40.69,26.39,16.14,1.65,31.87-5.59,43.93-15.83,23.27-19.74,36.35-56.65,16.21-83.08-10.21-13.4-26.17-20.84-42.56-23.28-7.55-1.12-10.81,10.44-3.19,11.57,23.28,3.46,44.94,18.52,43.72,44.28-1.21,25.45-24.54,52.37-50.51,54.44-16.11,1.29-28.66-8.27-37.93-20.55-2.63-3.48-7.88-4.23-10.36,0-16.93,28.89-42.33,52.91-73.48,65.79-27.84,11.51-59.34,13.67-87.88,3.39-31-11.19-52.91-36.15-63.62-66.93-11.14-32-12.39-66.7-11.14-100.27,1.89-50.62,10-114,53.95-146.65,22.73-16.88,51.22-21.45,78.93-19.72,34.06,2.14,70.36,11.51,98.93,30.73,20.82,14,36.13,34.42,42.88,58.65,6.47,23.23,5.49,48,1,71.55-1.15,6-2.54,12-4.1,18-.89,3.37,1.79,8.1,5.78,7.59a62.24,62.24,0,0,1,15.43,0C3144.31,1311.38,3144.24,1299.38,3136.66,1298.46Z"/><path class="cls-1" d="M2924.25,1377s-5.16,31,24.18,35.07c31.45,4.38,33.74-27,33.74-27"/><path class="cls-3" d="M2918.46,1375.37c-2.13,13.23,1.59,28.14,12.78,36.34,16.63,12.19,42.77,8,52.32-10.8a42.45,42.45,0,0,0,4.61-15.88c.61-7.7-11.4-7.66-12,0-.12,1.56.18-.92,0-.06s-.34,2-.57,2.92a29.88,29.88,0,0,1-3.13,8.28c-4.64,8.15-12.89,11.06-22,10.1-9.42-1-16.91-6-19.48-15.28a30.76,30.76,0,0,1-1.12-9.26c0-1,.11-2.09.16-3.14.08-1.74,0-.33,0,0,1.22-7.55-10.35-10.81-11.58-3.19Z"/><circle class="cls-3" cx="2908.21" cy="1295.04" r="8.7"/><circle class="cls-3" cx="3022.24" cy="1310.93" r="8.7"/><line class="cls-1" x1="2961.7" y1="1320.17" x2="2956.35" y2="1358.57"/><path class="cls-3" d="M2955.91,1318.57l-5.35,38.41c-1,7.55,10.51,10.81,11.57,3.19l5.35-38.41c1.05-7.55-10.51-10.82-11.57-3.19Z"/><path class="cls-1" d="M3152.69,1351.66s-10.83-11.15-25.51-7.79-22.39,23.38-12.51,28.94,19.13,1.45,21.8-6.59-5.33-13.77-18.2-16.12"/><path class="cls-3" d="M3156.93,1347.42c-14.28-14.42-40.13-13.52-49.73,5.63-4.18,8.33-4.49,19.61,4.45,24.94,10.75,6.42,25.42,3.2,30.15-9,5.69-14.63-10.26-22.37-21.94-24.67-7.54-1.49-10.77,10.07-3.19,11.57,4.58.9,20.45,4.85,11.8,11.9-2.7,2.21-8.35,2.19-11-.21-1.73-1.59-1.37-4-.83-6,3.84-14.74,22.44-15,31.78-5.63,5.44,5.5,13.92-3,8.48-8.48Z"/><path class="cls-3" d="M2952.88,1043.44s-104.31-51.06-160.24,31.8c-56.3,83.41-2.72,143.34,49.9,165.14,84.1,34.85,207.49,3.56,210.68-33.48,0,0-11.9,85.43,65,91.61,0,0,25.73-4.36,49.94,11.49,0,0,123.15-160.08-8.6-257.19C3018.28,948.67,2952.88,1043.44,2952.88,1043.44Z"/><path class="cls-3" d="M3122.23,1008.34l.43,37.54a6.07,6.07,0,0,0,9,5.18l34.64-18.73c6.79-3.68.74-14-6.06-10.36l-34.64,18.72,9,5.19-.43-37.54c-.08-7.72-12.08-7.74-12,0Z"/><path class="cls-1" d="M2752.26,1616.7a271.92,271.92,0,0,1,11.73-29.09c8.73-18.91,19.06-37.75,32.94-53.41,7.34-8.29,16-16.25,26.33-20.59,3-1.27,5.1-4,4.19-7.38-.74-2.83-4.39-5.45-7.38-4.19-21,8.8-36.1,27-48.13,45.72-10.88,16.93-19.57,35.25-26.92,54-1.53,3.89-3,7.81-4.33,11.79-2.43,7.35,9.16,10.5,11.57,3.19Z"/><path class="cls-1" d="M3046.76,1624.25a283.4,283.4,0,0,1,13.52-39.46c10.4-25,24-49.93,43.24-69.31,11.07-11.15,24.2-20.19,39.42-24.53,7.41-2.12,4.26-13.7-3.19-11.58-29.46,8.41-51.49,31.62-67.66,56.65-13.9,21.51-24.33,45.37-32.32,69.66-1.67,5.08-3.28,10.2-4.58,15.38-1.88,7.5,9.69,10.69,11.57,3.19Z"/><path class="cls-3" d="M2694.47,1962.1c.36,42.88.21,85.78-.75,128.65-.34,15.48-.8,31-1.64,46.41-.42,7.72,11.58,7.7,12,0,2.88-53.29,2.68-106.81,2.48-160.17,0-5,0-9.93-.09-14.89-.06-7.72-12.06-7.74-12,0Z"/><path class="cls-1" d="M2326.12,2206.51l18.47-104.4s-16-60.5-50.89-63.87-6.1,47.44-6.1,47.44-101.77-60.61-117.76,16.53C2153.76,2179.8,2274,2197.41,2326.12,2206.51Z"/><path class="cls-3" d="M2331.9,2208.11,2350,2106c.74-4.18,0-7.21-1.36-11.22a159.65,159.65,0,0,0-12.42-28.55c-6.25-11.09-14.48-22-25.65-28.53-9.46-5.52-24.72-9-33.93-1.12-14.45,12.41-1.6,39.07,5.8,52.17l8.21-8.21a189.62,189.62,0,0,0-41.69-18.07c-22.22-6.7-49.75-9.74-68.45,7-20.31,18.15-23.29,53.38-10.33,76.38,13.58,24.09,41.05,37.28,66.05,46.13,28.59,10.11,58.54,15.2,88.31,20.39,7.56,1.32,10.8-10.24,3.19-11.57-24.45-4.27-48.95-8.45-72.82-15.42-24.09-7-50.32-16.74-67.47-35.95-15.9-17.8-17.76-46.8-3.28-66.25,13-17.52,37.44-15.52,56.21-10.63a171.67,171.67,0,0,1,44.22,18.39c5.23,3.1,11.13-3,8.21-8.21a99.79,99.79,0,0,1-6.71-14.56c-2.32-6.35-5.69-16.61-2.5-21.51a4.44,4.44,0,0,1,1.86-1.66,15.43,15.43,0,0,1,7.17-.78,29.42,29.42,0,0,1,14.38,5.45c9,6.15,15.29,15.87,20.32,25.31a146.34,146.34,0,0,1,10.24,24.54c.38,1.2,1.18,6.17,1.26,2.66.09-3.7-.45,1-.61,1.88l-9.4,53.13-8.46,47.8C2319,2212.47,2330.56,2215.71,2331.9,2208.11Z"/><path class="cls-3" d="M2247.2,2145a286.27,286.27,0,0,1-29.26-9.82c-15.15-5.93-32-13.09-43.16-25.37-5.2-5.73-13.67,2.78-8.49,8.49,12.06,13.29,29.94,21,46.27,27.58a286,286,0,0,0,31.45,10.69c7.46,2,10.64-9.55,3.19-11.57Z"/><path class="cls-3" d="M2254.83,2111.84a287.1,287.1,0,0,1-29.26-9.82c-15.15-5.92-32-13.09-43.16-25.36-5.2-5.74-13.67,2.77-8.48,8.48,12.05,13.29,29.93,21,46.27,27.59a285.08,285.08,0,0,0,31.44,10.68c7.46,2,10.65-9.55,3.19-11.57Z"/><line class="cls-1" x1="3286.45" y1="1199.36" x2="3128.17" y2="1199.36"/><path class="cls-3" d="M3286.45,1193.36H3128.17c-7.72,0-7.73,12,0,12h158.28c7.72,0,7.74-12,0-12Z"/><line class="cls-1" x1="3286.45" y1="1258.8" x2="3128.17" y2="1258.8"/><path class="cls-3" d="M3286.45,1252.8H3128.17c-7.72,0-7.73,12,0,12h158.28c7.72,0,7.74-12,0-12Z"/><path class="cls-1" d="M2965.45,2122.7s-147.63,5.31-150.9,96.38,134.32,8.86,172.49,18.35,60.91-51.27,35.54-78.77S3009.83,2116.75,2965.45,2122.7Z"/><path class="cls-3" d="M2965.45,2116.7a262.72,262.72,0,0,0-84,17.21c-20,7.77-39.81,18.69-53.78,35.38a81.35,81.35,0,0,0-18.34,64.32c7.5,48.74,67.64,34.3,100.35,25.48,20.21-5.44,40.35-12.7,61.12-15.76a62.78,62.78,0,0,1,10.27-.65c.83,0,1.65.08,2.47.16,1,.11-.7-.18.92.16a56.3,56.3,0,0,0,8.75,1.38c12,.66,23.44-5.3,31.17-14.27,16-18.58,21-50.09,6.26-70.87-4-5.61-8.93-10.36-12.78-16.09-2.86-4.25-5.27-8.77-8-13.1-5.36-8.5-12.21-13.28-22.32-14.38-7.35-.81-14.83.08-22.13,1-3.23.42-6,2.45-6,6,0,2.92,2.79,6.42,6,6,6.94-.91,14.21-1.89,21.21-1.13,3.55.39,6.83,1.56,8.7,3.23,5.91,5.28,9.65,15.13,14.71,22,3.68,5,8.42,9.33,11.67,14.62a38.52,38.52,0,0,1,5.23,15.19,53.06,53.06,0,0,1-6.23,31.89c-4.75,8.57-12.43,16.34-22.55,17.74-4.78.66-9.16-.78-13.83-1.32a48,48,0,0,0-9.66,0c-18.82,1.62-37.21,7.92-55.28,13.05-19.55,5.55-39.69,11.59-60.13,12.41-7.72.31-16.2-.19-22.76-3a23.64,23.64,0,0,1-13.27-13.66c-7.11-18.12-1.51-41.1,9-56.68,10.92-16.14,28.24-27,45.75-34.75,27.26-12.08,57.08-17.4,85.82-19.45.53,0,1.06-.06,1.59-.08C2973.15,2128.42,2973.19,2116.41,2965.45,2116.7Z"/><path class="cls-3" d="M2879.44,2173.79a287,287,0,0,0-28.33,17.4c-14.48,10-30.09,21.58-38.9,37.18-3.81,6.73,6.55,12.79,10.36,6.06,8.17-14.46,23.13-25.11,36.6-34.24a284.78,284.78,0,0,1,26.33-16c6.82-3.63.77-14-6.06-10.37Z"/><path class="cls-3" d="M2906,2202.83a285.15,285.15,0,0,0-28.33,17.4c-14.48,10-30.09,21.57-38.9,37.17-3.81,6.74,6.55,12.79,10.36,6.06,8.17-14.46,23.13-25.11,36.6-34.24a284.78,284.78,0,0,1,26.33-16c6.82-3.62.77-14-6.06-10.36Z"/><path class="cls-5" d="M3247.72,1537.85s174.11,104,198.35,271.8c25.15,174.06-60.34,454.4-476.61,437.37l-22-135.81s192.75-55.48,212.61-168.35C3174,1863.75,3141.33,1597.37,3247.72,1537.85Z"/><path class="cls-3" d="M2975.25,2246.17,2956,2127.49l-2.77-17.14-4.19,7.38c25.25-7.28,49.94-17.55,73.64-28.81,43.58-20.69,87.17-47.64,116.83-86.48,13.79-18.06,23.73-39,27-61.55,2.84-19.52,3.24-39.38,3.67-59.08,1.21-54.81,1-109.71,6.49-164.32,2.81-27.6,7.05-55.2,14.52-82,6.43-23,15.34-45.94,29.78-65.2a110.53,110.53,0,0,1,10.06-11.55c5.44-5.49-3-14-8.49-8.49-35.23,35.53-47.29,89.46-54.2,137.27-8,55.71-8.85,112.11-9.7,168.3-.33,22.09-.49,44.24-2.12,66.28-1.46,19.62-5.41,38.4-15.49,56.31-23.6,41.94-66.83,70.61-108.57,92.25-27.38,14.19-55.91,25.5-85.19,35-.47.15-.95.28-1.43.42-3.36,1-4.72,4.14-4.19,7.38l19.21,118.68,2.78,17.14c1.23,7.6,12.79,4.37,11.57-3.19Z"/><path class="cls-1" d="M934.57,1311.21s-136.69,158.6-109.16,349.11c28.56,197.59,196,482.24,592,352.63l-20-154.81s-193.08-61.23-246.45-179.72C1113.58,1595.37,1055.17,1348.13,934.57,1311.21Z"/><path class="cls-3" d="M488.3,944.84s-14,81.52-126.21,121.44S229,1178.78,248.77,1227.84s123,81.58,182.44,18.55c0,0-40.69,75.89,18.27,91s174.25,103.16,365-18.44,17.67-343.76,17.67-343.76Z"/><path class="cls-6" d="M487.22,1287.63c52.56-25.88,118-41.24,188.9-41.24s136.35,15.36,188.9,41.24C940.9,1325,990,1384.32,990,1451.12v407.41c0,77.82-72.08,141.48-160.18,141.48H522.47c-88.1,0-160.18-63.66-160.18-141.48V1451.12C362.29,1384.32,411.34,1325,487.22,1287.63Z"/><polygon class="cls-1" points="749.99 1096.56 749.99 1266.03 676.12 1337.44 602.26 1266.03 602.26 1096.56 749.99 1096.56"/><path class="cls-3" d="M744,1096.56V1266l1.76-4.24L681,1324.39l-9.1,8.8h8.49l-64.77-62.6-9.1-8.8,1.76,4.24V1096.56l-6,6H750c7.72,0,7.73-12,0-12H602.26a6.08,6.08,0,0,0-6,6v117.36c0,16.92-.47,33.92,0,50.84.13,4.77,3.32,7,6.52,10.12l22.62,21.86,46.48,44.94a6.11,6.11,0,0,0,8.49,0l39.43-38.12,25.33-24.48c3.49-3.38,10.34-7.89,10.86-13.12.42-4.25,0-8.77,0-13V1096.56C756,1088.83,744,1088.82,744,1096.56Z"/><path class="cls-1" d="M509.77,1077.22s12.45-9.31,26.42-3.67,18.41,26.62,7.78,30.55-19.11-1.58-20.48-9.94,7.43-12.76,20.52-13.05"/><path class="cls-3" d="M512.8,1082.4c5.2-3.8,12.29-5.67,18.6-4.11,6.88,1.7,12.53,8.4,12.46,15.66-.07,6.67-9.51,7.26-13.07,2.58-6.11-8,8.55-9.25,13.22-9.42,7.7-.28,7.73-12.28,0-12-10.17.36-24.7,3-26.46,15.3-1.67,11.6,8.82,21.14,19.94,21,26.73-.43,20.41-34.81,1.73-43-10.26-4.5-23.38-3-32.48,3.67-6.17,4.5-.19,14.92,6.06,10.36Z"/><path class="cls-1" d="M517,1038.71a54.84,54.84,0,0,1,15.3,2c-10.45-77.16,10.54-159.16,138.46-167.06,125.07-7.73,152.45,78.84,145.2,179.13-4.1,56.62-16.56,129.55-70.86,159.51-65.83,36.33-153.23.42-187.76-80.85-9.79,10.22-21.48,18.64-36.74,18.85-30.26.44-57.27-32.71-57.7-63S486.74,1039.15,517,1038.71Z"/><path class="cls-3" d="M517,1044.71a54.65,54.65,0,0,1,13.71,1.74c3.34.87,8.13-1.77,7.59-5.78-6.38-47.76-.57-102.21,41.28-132.84,27-19.79,61.41-26.76,94.27-28.4,30-1.49,61.62,2.09,87.18,19,45.8,30.36,51.86,92.4,49.62,142.48-2.71,60.76-13.66,141-75.79,169.77-59.51,27.55-127.55-6.47-160.1-58.76a175.11,175.11,0,0,1-12.24-23.59c-1.55-3.59-7-3.71-9.42-1.21-10,10.24-22.19,18.58-37.15,16.89-12.79-1.44-24-9.48-32.07-19.09-15.29-18.08-22.38-48.09-3.8-66.51,9.72-9.64,23.55-13.42,36.92-13.74,7.71-.17,7.74-12.17,0-12-15.09.36-30,4.48-41.88,14.11-11.4,9.26-17.65,23.14-18.19,37.7-1.12,30.52,22.29,64.29,52.86,70.63,20.3,4.21,38-5.26,51.79-19.51l-9.42-1.21c26.93,62.65,93.74,110.29,163.71,95.17,34.15-7.38,61.68-29.73,78.15-60.25,16.85-31.22,23.3-67.09,26.71-102,5.4-55.43,5.11-123.84-37.37-166-21.57-21.41-51-31.07-80.75-33.51C666,864.78,626,869.88,592.76,886c-25,12.07-45.3,32.06-56.49,57.52-10.65,24.22-13.45,51.1-11.92,77.32.39,6.65,1.06,13.27,1.94,19.86l7.6-5.79a67.88,67.88,0,0,0-16.9-2.17C509.27,1032.7,509.26,1044.7,517,1044.71Z"/><path class="cls-1" d="M718.79,1137s1.28,31.38-28.34,31.81c-31.75.45-30.14-31-30.14-31"/><path class="cls-3" d="M712.79,1137a28,28,0,0,1-2.4,13.06c-3.83,9.27-12.27,13-22,12.73-8.86-.29-16.48-4.43-19.86-12.61a25.15,25.15,0,0,1-2.23-12.35c.36-7.72-11.64-7.7-12,0-.57,12.39,5.34,25.86,16.19,32.24,9.38,5.52,22.52,6.34,32.65,2.54,9.07-3.4,15.39-10.42,18.81-19.36a42.74,42.74,0,0,0,2.83-16.25c-.28-7.7-12.28-7.74-12,0Z"/><circle class="cls-3" cx="744.85" cy="1057.65" r="8.7"/><circle class="cls-3" cx="629.73" cy="1059.3" r="8.7"/><line class="cls-1" x1="688.66" y1="1075.96" x2="689.22" y2="1114.73"/><path class="cls-3" d="M682.66,1076l.56,38.77c.11,7.72,12.11,7.74,12,0l-.56-38.77c-.11-7.72-12.11-7.74-12,0Z"/><path class="cls-3" d="M731.67,802.46s109.83-37.77,155.07,51.39c45.54,89.73-15,142.69-70,157.69C744,1031.42,706.35,967.89,682.4,930c0,0-25.7,104.46-146.37,105.14,0,0-25-7.51-51,5.22,0,0-102.38-174.08,40.37-254.14C678.5,700.32,731.67,802.46,731.67,802.46Z"/><path class="cls-3" d="M556.22,744.32l-5.07,37.2,8.82-3.59-32.06-22.87c-6.3-4.5-12.3,5.91-6.06,10.36l32.06,22.87c2.88,2.06,8.31.1,8.81-3.58l5.07-37.2c.44-3.24-.78-6.4-4.19-7.38-2.79-.8-6.94,1-7.38,4.19Z"/><path class="cls-1" d="M782.54,1296.14l-96.86,93.63-13.8,13.35h8.49l-96.86-93.64-13.8-13.34c-5.56-5.37-14.05,3.11-8.49,8.49l96.86,93.63,13.8,13.34a6.11,6.11,0,0,0,8.49,0L777.23,1318l13.8-13.34c5.56-5.38-2.93-13.86-8.49-8.49Z"/><path class="cls-1" d="M532.32,1269.12s56.39,448.14,56.39,730.89H363.64S8.55,1350.83,532.32,1269.12Z"/><path class="cls-1" d="M810.09,1265.94s22.76,514.6-6.63,734.07H967.24S1220.59,1314.07,810.09,1265.94Z"/><path class="cls-3" d="M837.76,1434.25l63.48,60,9,8.5-1.54-5.84-24.1,84.45-38.24,134-8.8,30.83c-2.12,7.44,9.46,10.62,11.58,3.19L873.2,1665l38.24-134,8.8-30.84a6,6,0,0,0-1.54-5.84l-63.48-60-9-8.49c-5.6-5.31-14.11,3.16-8.48,8.48Z"/><path class="cls-3" d="M909.36,1331.26l6.3,87.36.9,12.36,4.4-5.79-61.34,17.21c-7.42,2.08-4.27,13.67,3.19,11.57l61.34-17.21c2.39-.67,4.59-3.18,4.41-5.78l-6.31-87.37-.89-12.35c-.55-7.66-12.56-7.72-12,0Z"/><path class="cls-3" d="M523.13,1426.41l-59,64.46L455.8,1500c-1.37,1.5-2.29,3.81-1.55,5.84l30.11,82.5,47.79,130.92,11,30.13c2.63,7.19,14.23,4.09,11.57-3.19l-30.11-82.5-47.79-130.92-11-30.13-1.54,5.84,59-64.46,8.34-9.12c5.21-5.68-3.25-14.19-8.48-8.48Z"/><path class="cls-3" d="M441.09,1337.44v100c0,2.49,1.85,5.27,4.41,5.79L507.92,1456c7.53,1.54,10.76-10,3.19-11.57l-62.42-12.75,4.4,5.78v-100c0-7.73-12-7.74-12,0Z"/><path class="cls-1" d="M498,1081.79s12.26-9.55,26.33-4.2,18.95,26.25,8.4,30.39-19.14-1.2-20.68-9.53,7.18-12.9,20.25-13.46"/><path class="cls-3" d="M501,1087c5.12-3.9,12.17-6,18.51-4.58,7,1.54,12.71,8,12.88,15.32.16,6.74-9.18,7.61-12.95,3.06-6.53-7.87,8.23-9.52,12.84-9.78,7.68-.43,7.73-12.43,0-12-10.14.57-24.65,3.44-26.25,15.71-1.51,11.58,9.11,21.07,20.22,20.69s19-7.81,18.05-19.14a29,29,0,0,0-17.3-24c-10.21-4.2-23.22-2.38-32,4.35-6.07,4.61-.09,15,6.05,10.36Z"/><path class="cls-3" d="M973,2001.61c11.92-32.87,21.74-66.59,30.92-100.3,19.95-73.32,35.47-148.17,42.9-223.84,4.44-45.23,5.89-90.92,1.59-136.21-.72-7.63-12.73-7.7-12,0,7.64,80.55-1.94,162.36-17.16,241.49a1587.25,1587.25,0,0,1-46.4,181.55c-3.64,11.42-7.33,22.85-11.42,34.12-2.63,7.27,9,10.4,11.57,3.19Z"/><path class="cls-3" d="M1343.83,1875.12l14.43,111.74,2,15.84c1,7.55,13,7.65,12,0L1357.88,1891l-2.05-15.83c-1-7.56-13-7.65-12,0Z"/><path class="cls-1" d="M1415.6,1991.92l-12-105.34s19.66-59.4,54.73-60.61,3.16,47.73,3.16,47.73,105.32-54.23,116.52,23.75C1589.28,1975.88,1468.19,1986.05,1415.6,1991.92Z"/><path class="cls-3" d="M1421.6,1991.92l-11.09-97.35a64.5,64.5,0,0,0-.78-6.81c-.53-2.37-.94,1.22,0-.47,3.24-6.11,4.87-12.2,8.21-18.59,5.2-9.93,11.42-19.57,19.78-27.15,6.75-6.13,18.17-12.57,27.59-8.78,3,1.19,3.6,3.31,3.51,6.58-.13,4.56-1.57,9.18-3.28,13.59a97.73,97.73,0,0,1-9.19,17.73c-3.46,5.32,3.18,10.79,8.21,8.21a173.22,173.22,0,0,1,36.51-13.54c18.24-4.69,43.14-8.35,58.38,5.71,17.29,16,17.23,47,4.15,65.38-14.45,20.27-41.11,29.71-64.14,35.9-27.43,7.37-55.66,10.45-83.82,13.59-7.59.85-7.68,12.86,0,12,27.08-3,54.25-5.92,80.76-12.42,26.18-6.41,55.41-16.37,73.39-37.62,17.8-21,20.66-54.8,4.55-77.85-14.78-21.14-41.63-22.85-65-18.76a181.82,181.82,0,0,0-50.87,17.25l8.21,8.2a111.23,111.23,0,0,0,8.86-16.84c3.81-8.91,7.85-20.45,3.33-29.85-5.26-10.93-19.68-11.55-29.95-8.59-12.4,3.58-22.14,12.84-29.8,22.86a139.13,139.13,0,0,0-16.79,29.3c-1.72,4-4.78,9.07-4.65,13.57.16,6,1.38,12.18,2.06,18.14l3.76,33,6.11,53.66C1410.46,1999.51,1422.47,1999.59,1421.6,1991.92Z"/><path class="cls-3" d="M1501,1947a286.55,286.55,0,0,0,32-8.73c16.74-5.54,34.94-12.32,47.8-24.85,5.54-5.4-2.94-13.88-8.48-8.48-11.86,11.55-29.28,17.52-44.72,22.48a289.39,289.39,0,0,1-29.82,8c-7.56,1.55-4.36,13.12,3.19,11.57Z"/><path class="cls-3" d="M1495.42,1913.48a286.51,286.51,0,0,0,32-8.72c16.74-5.54,34.94-12.32,47.8-24.85,5.55-5.4-2.94-13.88-8.48-8.49-11.86,11.55-29.28,17.52-44.72,22.49a286.83,286.83,0,0,1-29.82,8c-7.56,1.56-4.36,13.13,3.19,11.57Z"/><path class="cls-1" d="M638.05,1999.37s147.63,5.31,150.9,96.38-134.32,8.87-172.49,18.35-70.63-32.95-45.52-78.71C581.49,2016.16,593.67,1993.42,638.05,1999.37Z"/><path class="cls-3" d="M638.05,2005.37a255.13,255.13,0,0,1,70.48,13.11c35.44,11.67,72.38,35.11,74.38,76.23.42,8.62-.16,18-4.57,25.49-3.24,5.51-8.36,9-14.44,10.86-16.36,5-35.62.76-52.09-3.1-19.8-4.64-39.12-11-58.85-16a150.49,150.49,0,0,0-24.81-4.49c-8.44-.65-16.36,2.32-24.73,1.87-12-.65-22.75-7.84-28.91-18-7.5-12.34-7.91-27.32-3.65-40.86a94.79,94.79,0,0,1,16.25-29.77,43.07,43.07,0,0,1,27-15.63c7.9-1.33,16.08-.79,24,.21,7.64,1,7.57-11,0-12-15.09-1.91-31.09-1.26-44.63,6.37-9.87,5.57-17.08,14.44-22.82,24-7.83,13.07-14.1,27-14.5,42.49-.37,14.78,4.8,29.71,15.13,40.41a48.08,48.08,0,0,0,37.07,14.69,60.3,60.3,0,0,0,10-1.53,11.17,11.17,0,0,1,3.54-.46,60.4,60.4,0,0,1,10.22.54c19.42,2.63,39.21,9.68,58.38,14.94,30.7,8.44,89.44,25.23,102.26-17.93,6.17-20.79.88-45.62-11.12-63.33-11.85-17.5-29.75-29.87-48.79-38.49-18.15-8.21-37.43-13.63-57-17.18-11.79-2.14-23.93-4-35.94-4.46-.59,0-1.19-.07-1.79-.09C630.32,1993.09,630.34,2005.09,638.05,2005.37Z"/><path class="cls-3" d="M718,2060.83a284.78,284.78,0,0,1,26.33,16c13.47,9.13,28.44,19.79,36.6,34.24,3.8,6.72,14.17.68,10.37-6.06-8.82-15.6-24.43-27.18-38.91-37.17a285.15,285.15,0,0,0-28.33-17.4c-6.82-3.62-12.89,6.73-6.06,10.36Z"/><path class="cls-3" d="M691.46,2089.86a287,287,0,0,1,26.33,16c13.47,9.13,28.44,19.79,36.6,34.24,3.8,6.73,14.17.69,10.36-6.05-8.81-15.61-24.42-27.19-38.9-37.18a287,287,0,0,0-28.33-17.4c-6.82-3.62-12.89,6.74-6.06,10.36Z"/><path class="cls-1" d="M346.66,1344.18s-174.11,118.3-198.35,309.26c-25.14,198,60.34,517,476.61,497.65l22-154.53S454.17,1933.44,434.3,1805C420.38,1715,453.06,1411.91,346.66,1344.18Z"/><path class="cls-3" d="M630.71,2153.53,650,2018.35,652.7,1999c.47-3.34-.78-6.26-4.19-7.38-26.87-8.82-52.18-21-77.14-35-45.58-25.5-90.78-59.3-115.79-106.3-11.14-20.93-15.86-42.76-17.52-65.5-1.71-23.51-1.92-47.13-2.24-70.7-.85-60.92-1.29-122-7.83-182.62-3.22-29.88-7.77-59.78-15.65-88.82-6.63-24.46-15.66-49-30-70.11a145,145,0,0,0-10.54-13.65c-5.08-5.83-13.54,2.68-8.48,8.48,15.84,18.16,25.79,40.92,33.08,63.66,8.9,27.76,14.2,56.67,17.85,85.55,7.77,61.41,8.59,123.47,9.4,185.28.33,24.83.49,49.7,1.88,74.5,1.28,22.93,4.24,45.21,13.29,66.54,21.4,50.41,66.1,87.72,111.87,115.53a506.62,506.62,0,0,0,59.21,30.69c10.94,4.82,22.29,10.23,33.84,13.49.53.15,1,.37,1.58.54l-4.19-7.38L621.89,2131l-2.75,19.35c-.46,3.23.79,6.41,4.19,7.38,2.81.81,6.92-1,7.38-4.19Z"/><path class="cls-3" d="M589.49,2007.21l-15.55,109.33-2.23,15.62c-.46,3.23.8,6.4,4.19,7.38,2.81.8,6.93-1,7.38-4.19L598.84,2026l2.23-15.62c.46-3.23-.8-6.41-4.2-7.38-2.8-.81-6.92,1-7.38,4.19Z"/><path class="cls-7" d="M1244.52,1538.27c52.55-25.88,118-41.23,188.9-41.23h0c70.93,0,136.35,15.35,188.9,41.23,75.88,37.37,135.35,86.92,124.07,349.36-8.44,196.64-45.14,341-45.14,341H1165.59s-36.7-144.39-45.14-341C1109.18,1625.19,1168.64,1575.64,1244.52,1538.27Z"/><polygon class="cls-1" points="1507.29 1347.2 1507.29 1516.68 1433.42 1588.08 1359.56 1516.68 1359.56 1347.2 1507.29 1347.2"/><path class="cls-3" d="M1501.29,1347.2v169.48l1.75-4.24-64.76,62.6-9.1,8.8h8.48l-64.76-62.6-9.1-8.8,1.75,4.24V1347.2l-6,6h147.74c7.72,0,7.73-12,0-12H1359.55a6.09,6.09,0,0,0-6,6v117.37c0,16.92-.47,33.92,0,50.83.14,4.78,3.33,7,6.53,10.13l22.61,21.86,46.49,44.93a6.1,6.1,0,0,0,8.48,0l39.44-38.11,25.33-24.49c3.48-3.37,10.33-7.88,10.86-13.11.42-4.26,0-8.78,0-13V1347.2C1513.29,1339.48,1501.29,1339.47,1501.29,1347.2Z"/><path class="cls-1" d="M1546.13,1540.7l-102.41,99-14.54,14.06h8.48l-102.41-99-14.54-14.06c-5.56-5.37-14,3.11-8.49,8.49l102.42,99,14.54,14.06a6.11,6.11,0,0,0,8.48,0l102.42-99,14.54-14c5.56-5.38-2.93-13.86-8.49-8.49Z"/><path class="cls-1" d="M1295.54,1283.62a54.84,54.84,0,0,1,15.3,2l25,90.73c-9.79,10.21-21.47,18.63-36.74,18.85-30.26.43-57.26-32.71-57.69-63S1265.28,1284.05,1295.54,1283.62Z"/><path class="cls-3" d="M1295.54,1289.62a54.57,54.57,0,0,1,13.7,1.74l-4.19-4.19,21.89,79.32,3.15,11.41,1.54-5.83c-9.94,10.23-22.19,18.57-37.14,16.89-12.79-1.44-24-9.49-32.07-19.09-15.29-18.09-22.38-48.09-3.81-66.51,9.72-9.64,23.56-13.43,36.93-13.74,7.71-.18,7.73-12.18,0-12-26.82.62-54.29,15.16-59.19,43.64s12.14,59.86,37.44,73.36c13.5,7.21,29.2,8.7,43.43,2.64a66.55,66.55,0,0,0,19.68-13.5c3.14-3,5.55-5.53,4.5-10-3.53-14.91-8.18-29.65-12.26-44.42L1316.62,1284a6,6,0,0,0-4.19-4.19,67.8,67.8,0,0,0-16.89-2.17C1287.81,1277.61,1287.8,1289.61,1295.54,1289.62Z"/><path class="cls-1" d="M1271.69,1320.65s15.42-2,24.81,9.79,3,32.24-8.23,30.43-15.87-10.77-13-18.72,12.74-7.46,24.28-1.28"/><path class="cls-3" d="M1271.69,1326.65c13.27-1.58,27.75,9.18,22.28,23.57-.73,1.93-2,4.49-4.3,4.75-3.36.39-7.67-2.63-8.79-5.73-4.08-11.27,11.47-5.37,15.69-3.19,6.85,3.54,12.93-6.82,6.06-10.36-9.54-4.92-25-9.92-31.79,1.93-5.77,10.06-.46,22.39,9.57,27.05,10.87,5.06,20.94.36,24.95-10.73a28.78,28.78,0,0,0-7.59-30.88,34.67,34.67,0,0,0-26.08-8.41c-7.57.9-7.66,12.92,0,12Z"/><path class="cls-1" d="M1559.3,1283.62a54.72,54.72,0,0,0-15.29,2l-25,90.73c9.79,10.21,21.47,18.63,36.74,18.85,30.26.43,57.26-32.71,57.7-63S1589.56,1284.05,1559.3,1283.62Z"/><path class="cls-3" d="M1559.3,1277.62a67.8,67.8,0,0,0-16.89,2.17,6,6,0,0,0-4.19,4.19l-24.1,87.34a32.68,32.68,0,0,0-.94,3.39c-1.11,6.85,9.16,13.26,14,16.75,12.72,9.07,28.77,12.15,43.77,7.41,27.48-8.67,48-38.15,48.41-66.68.22-15.07-5.74-29.85-17.31-39.71-11.93-10.16-27.33-14.5-42.8-14.86-7.72-.18-7.72,11.82,0,12,23.62.55,47.15,13.93,48.08,39.81.88,24.88-17.52,52.36-42.12,58.6-16.63,4.22-30.82-4.41-42-16l1.54,5.83,21.89-79.31,3.15-11.42-4.19,4.19a54.57,54.57,0,0,1,13.7-1.74C1567,1289.61,1567,1277.61,1559.3,1277.62Z"/><path class="cls-1" d="M1583.15,1320.65s-15.42-2-24.81,9.79-3,32.24,8.23,30.43,15.87-10.77,13-18.72-12.75-7.46-24.29-1.28"/><path class="cls-3" d="M1583.15,1314.65c-20.3-2.41-38.6,15-34.72,35.45,2,10.34,10.16,18.89,21.22,16.27s19.18-13.21,16-24.73c-4.4-16-22.54-11.58-33.44-6-6.87,3.54-.81,13.9,6,10.36,4.26-2.2,19.76-8.07,15.69,3.19-1.09,3-5.08,5.82-8.33,5.73-2.58-.06-3.92-2.55-4.76-4.75-5.53-14.37,9.06-25.14,22.28-23.57,7.65.91,7.59-11.09,0-12Z"/><path class="cls-1" d="M1434.6,1127.43c125.31.67,146.84,88.88,132.88,188.46-7.88,56.21-24.36,130-81.37,154.4-83.61,35.8-156.41-11.57-183.65-98.41S1254.85,1126.48,1434.6,1127.43Z"/><path class="cls-3" d="M1434.6,1133.43c34.52.29,71.52,7.21,97,32.34,21.34,21,30.31,50.94,32.76,80.14,2.94,35-1.7,70.75-8.94,105-7.75,36.67-20.63,76.34-50.52,101.07-15.2,12.58-35.07,19.45-54.31,22.74a113.61,113.61,0,0,1-53-3.45c-36.45-11.44-63.24-41.41-79.27-75.11-12.11-25.48-19-54.31-23.59-82.06-4.17-25.19-5.87-51.5-2-76.84,3.76-24.75,13-48.93,30.68-67.1,21.29-21.85,51.39-31.94,81.13-35.22a265.53,265.53,0,0,1,30.1-1.49c7.73,0,7.74-12,0-12-35.88-.1-74.22,5.6-104.1,26.94-22.75,16.25-37.94,40-45.38,66.77s-7.73,55.23-4.69,82.68a385.81,385.81,0,0,0,17.63,79.94c13,38.67,37.19,75.39,73.66,95.39,36.21,19.87,78.56,18.78,116,2.91,38.62-16.36,59.9-54.34,71.74-92.74,6-19.5,9.9-39.59,12.9-59.75,2.76-18.55,4.74-37.21,4.8-56,.1-32.34-5.12-66.7-23.64-94-19.66-29-51.57-44.52-85.58-49.63a237.39,237.39,0,0,0-33.37-2.53C1426.88,1121.37,1426.87,1133.37,1434.6,1133.43Z"/><path class="cls-1" d="M1461,1380.94s.83,31.4-28.79,31.4c-31.75,0-29.7-31.4-29.7-31.4"/><path class="cls-3" d="M1455,1380.94a28,28,0,0,1-2.61,13c-3.9,8.93-12.13,12.65-21.58,12.36-9-.28-16.94-4.46-20.28-13a25.53,25.53,0,0,1-2-12.35c.47-7.72-11.53-7.69-12,0-.75,12.47,5.12,26.09,16,32.56,9.43,5.6,22.7,6.47,32.9,2.62,8.86-3.34,15.11-10.26,18.53-19a43,43,0,0,0,3-16.21c-.17-7.71-12.17-7.74-12,0Z"/><circle class="cls-3" cx="1488.2" cy="1302.01" r="8.7"/><circle class="cls-3" cx="1373.07" cy="1302.01" r="8.7"/><line class="cls-1" x1="1431.75" y1="1319.52" x2="1431.75" y2="1358.29"/><path class="cls-3" d="M1425.75,1319.52v38.77c0,7.72,12,7.74,12,0v-38.77c0-7.72-12-7.74-12,0Z"/><path class="cls-3" d="M1583.15,1282.62s-180.65,1-210.08-88.71c0,0-18.55,79.07-93.82,86.71,0,0-76.35-244.8,152.5-244.8S1583.15,1282.62,1583.15,1282.62Z"/><path class="cls-3" d="M1425.65,1163.51s76.65-14.14,92.8-127.69c12.38-87-49.63-138.88-122-134s-113.94,45.39-111.32,115.08C1287.22,1074.05,1310.14,1159.4,1425.65,1163.51Z"/><path class="cls-1" d="M1462.6,1031.51c-30.53-6.35-64.9-6.27-94.82,2.62a106.52,106.52,0,0,0-34.94,17.31c-2.58,2-3.9,5.13-2.15,8.21,1.45,2.54,5.65,4.12,8.21,2.15,21.93-16.91,50.2-22,77.31-22.33,14.7-.15,29.34.73,43.2,3.61,7.54,1.57,10.76-10,3.19-11.57Z"/><path class="cls-7" d="M1206.26,1560.25s-167.82,61.36-202.53,225.65l114,56.82S1222.54,1684,1206.26,1560.25Z"/><path class="cls-1" d="M1170.13,1606.34a358.43,358.43,0,0,0-19.51,37.38c-13.16,28.43-23.92,58.15-30.57,88.79a290.09,290.09,0,0,0-7,61.09c0,7.72,12,7.73,12,0,.09-58.94,20.77-117.71,48.56-169.12,2.2-4.07,4.43-8.14,6.86-12.08,4.06-6.6-6.31-12.63-10.36-6.06Z"/><path class="cls-1" d="M1407.33,2177.29c-14.68-67.27-91.48-35.31-111.91-26l-3.7.76c4.94-8.09,27.39-47.36-4.08-46.28-35.07,1.21-49.09,53.76-49.09,53.76l-13.5-1.23c-41.88-1.19-85.44-14-107.35-56.09-29.16-56,.07-259.53.07-259.53l-114-56.82s-103.29,296.47,23.72,420.75c59.92,58.63,169,83.93,262.37,61.78C1345.48,2255.93,1420.42,2237.33,1407.33,2177.29Z"/><path class="cls-3" d="M1413.11,2175.7c-5-22-18.95-40-41.75-44.67-19-3.87-39,.21-57,6.32-8,2.73-16,7.29-24.21,9l6.78,8.82c8-13.11,23.76-43.07,3.55-53-11.49-5.64-26.73-1.15-36.49,6-10,7.31-17.32,17.64-22.81,28.62a114.68,114.68,0,0,0-8.39,21.22l5.79-4.41c-13.63-1.24-27.41-1.48-40.88-3.92-17.92-3.25-35.59-9.51-50.15-20.7-12.14-9.33-22.81-23-27.65-36.77-3.7-10.54-5.56-21.74-6.79-32.8-3.22-29-2.71-58.36-1.39-87.43,1.27-28.18,3.62-56.31,6.62-84.36q1.71-16,3.74-32l.72-5.57c.08-.63.17-1.26.25-1.89-.28,2.1,0-.12.09-.6q.21-1.62.45-3.24c.36-2.52-.21-5.5-2.76-6.77l-100.06-49.86-14-7a6.11,6.11,0,0,0-8.82,3.58c-9.29,26.72-16.19,54.46-22.2,82.07-12.55,57.65-20.25,117.29-16.87,176.35,3.43,59.73,19.13,122.48,62.39,166.24,27.16,27.46,62.47,46.15,99,57.92a325.81,325.81,0,0,0,123.46,14.63c20.17-1.51,39.82-5.38,59.48-10,16.31-3.81,32.59-8,48.3-13.87,26.93-10,58-26.88,62.65-58.26a66.77,66.77,0,0,0-1-23.7c-1.58-7.56-13.15-4.36-11.57,3.19,2.81,13.43.83,26.89-7.57,38-8.54,11.28-21.49,18.72-34.14,24.49-14.67,6.7-30.33,11.23-45.93,15.22-17.25,4.41-34.71,8.65-52.36,11.08a314.37,314.37,0,0,1-121.3-7.44c-36.36-9.47-72-25.58-100.54-50.42-44.88-39.09-63.12-97.84-68-155.51s1.57-115.79,13-172.19q6.36-31.42,15-62.33c2.89-10.34,6.77-20.53,9.39-30.92a12.62,12.62,0,0,1,.46-1.35l-8.82,3.59,100.06,49.85,14,7-2.76-6.78c-5.86,40.88-9.78,82.17-11.93,123.41-1.6,30.56-2.36,61.47.72,92,1.21,11.91,2.88,24,6.41,35.43a93,93,0,0,0,24.62,39.23c15.7,15.12,36.1,24.4,57.24,29,16.3,3.53,33,3.92,49.51,5.43,2.57.24,5.14-2,5.78-4.4,3.54-13.16,10.12-26.73,19.36-36.77,6.94-7.55,16.24-13.35,26.88-12.56,8.36.61,8.44,6.42,6.58,13.77-2.11,8.33-6.17,16.15-10.62,23.45-2.88,4.74,1.86,9.81,6.78,8.81,7.34-1.48,12.21-4.59,19-7.1a167,167,0,0,1,24.09-7.06c16-3.33,35.22-4.21,48.93,6.3,9.16,7,13.72,17.92,16.2,28.88C1403.24,2186.42,1414.82,2183.23,1413.11,2175.7Z"/><path class="cls-3" d="M1330.31,2223.84a285.39,285.39,0,0,0,32-8.73c16.74-5.53,34.94-12.32,47.81-24.85,5.54-5.4-3-13.88-8.49-8.48-11.85,11.55-29.28,17.52-44.71,22.48a287.73,287.73,0,0,1-29.83,8c-7.55,1.55-4.36,13.12,3.19,11.57Z"/><path class="cls-3" d="M1320.74,2191.32a283.63,283.63,0,0,0,32-8.72c16.74-5.54,35-12.32,47.81-24.85,5.54-5.4-3-13.88-8.48-8.49-11.86,11.55-29.28,17.52-44.72,22.49a287.5,287.5,0,0,1-29.82,8c-7.56,1.56-4.36,13.13,3.19,11.57Z"/><path class="cls-7" d="M1660.58,1560.25s167.82,61.36,202.53,225.65l-114,56.82S1644.31,1684,1660.58,1560.25Z"/><path class="cls-1" d="M1686.35,1612.4a355,355,0,0,1,18.77,35.78,418.69,418.69,0,0,1,29.75,85.91,275.91,275.91,0,0,1,6.9,59.51c0,7.72,12,7.73,12,0-.09-60.82-21.26-121.4-49.84-174.51-2.31-4.3-4.66-8.59-7.22-12.75-4-6.56-14.42-.54-10.36,6.06Z"/><path class="cls-1" d="M1459.52,2177.29c14.67-67.27,91.48-35.31,111.9-26l3.71.76c-5-8.09-27.4-47.36,4.07-46.28,35.07,1.21,49.1,53.76,49.1,53.76l13.5-1.23c41.88-1.19,85.43-14,107.35-56.09,29.15-56-.08-259.53-.08-259.53l114-56.82s103.3,296.47-23.72,420.75c-59.92,58.63-169,83.93-262.37,61.78C1521.36,2255.93,1446.43,2237.33,1459.52,2177.29Z"/><path class="cls-3" d="M1465.3,2178.89c2.28-10.06,6.2-19.79,13.91-26.91,6.17-5.71,14.31-8.78,22.55-9.92,16.74-2.31,34.15,2.12,49.84,7.65,7.92,2.79,13.72,6.5,21.93,8.16,4.91,1,9.66-4.08,6.78-8.81a95.15,95.15,0,0,1-9.62-20c-1.18-3.64-2.34-7.68-1.89-11.56.32-2.65,1.23-4.11,4.19-5.08,9.53-3.13,20.58,2.74,27.3,9.1,7.13,6.74,12.28,15.3,16.4,24.12a95.22,95.22,0,0,1,5.82,15.56c.63,2.35,3.21,4.64,5.79,4.4,14.24-1.3,28.59-1.67,42.7-4.11,18.9-3.26,37.73-9.89,53.28-21.33,14.28-10.5,26.26-24.69,32.93-41.23,4.15-10.3,6.17-21.36,7.66-32.32,4.06-30,3.7-60.48,2.46-90.62-1.21-29.23-3.61-58.41-6.7-87.49-1.68-15.81-3.52-31.61-5.77-47.35l-2.76,6.78,100.06-49.85,14-7-8.81-3.59c8.75,25.14,15.31,51.2,21.12,77.15,12.27,54.86,19.91,111.33,18,167.63-1.93,56.76-14.28,117.68-53,161.41-23.78,26.87-55.86,45.73-89.33,58a314.56,314.56,0,0,1-119.25,18.53c-35.87-1.33-72.17-9.45-106.26-20.58-24.92-8.13-57.78-21.47-63.78-50.3a50.21,50.21,0,0,1,.47-20.39c1.58-7.54-10-10.76-11.57-3.19-3.15,15.09-1.83,30.66,6.52,43.92,7.8,12.39,20,21.43,32.75,28.19,15,7.94,31.27,13.38,47.58,17.89,16.94,4.69,34.24,8.93,51.56,12,79.11,13.84,169.28-1.66,233.76-51.43a190.24,190.24,0,0,0,57.3-72.79c12.59-27.92,19.45-57.87,22.87-88.22,6.76-59.92.39-121.11-11.09-180.06-6.51-33.42-14.36-67.16-25.58-99.36l-.5-1.49a6.11,6.11,0,0,0-8.82-3.58l-100,49.85-14,7c-2.59,1.29-3.13,4.23-2.76,6.77l.36,2.59c0,.41.11.82.17,1.22.23,1.73,0-.24,0,.39l.6,4.61q1.69,13,3.14,26c3.06,27.25,5.49,54.58,7,81.95,1.63,29.59,2.44,59.43,0,89-1,11.77-2.44,23.58-5.51,35a79.64,79.64,0,0,1-19.6,34.57c-14.32,15.13-33.47,24-53.58,28.59-15.67,3.55-31.72,3.84-47.66,5.3l5.78,4.41c-4.57-17-13.75-35.14-27.19-46.69-9.78-8.39-23.22-13.79-36.21-10.7-12.1,2.88-15.2,14.31-13.2,25.26,1.88,10.35,7,20.34,12.47,29.27l6.77-8.82c-7.11-1.44-13.9-5.28-20.82-7.76a159,159,0,0,0-26.33-7.18c-19.45-3.41-40.83-2.73-56.77,10.33-10.38,8.51-16.16,21.16-19.07,34C1452,2183.22,1463.6,2186.43,1465.3,2178.89Z"/><path class="cls-3" d="M1539.72,2212.27a286.87,286.87,0,0,1-29.82-8c-15.44-5-32.86-10.93-44.72-22.48-5.54-5.4-14,3.08-8.49,8.48,12.86,12.53,31.07,19.32,47.81,24.85a286,286,0,0,0,32,8.73c7.54,1.55,10.76-10,3.19-11.57Z"/><path class="cls-3" d="M1549.3,2179.75a286.83,286.83,0,0,1-29.82-8c-15.44-5-32.86-10.93-44.72-22.49-5.54-5.39-14,3.09-8.49,8.49,12.86,12.53,31.07,19.32,47.81,24.85a285.92,285.92,0,0,0,32,8.72c7.53,1.56,10.76-10,3.19-11.57Z"/><path class="cls-7" d="M486.48,374.21a57.87,57.87,0,0,0-3.9-12.26,53.45,53.45,0,0,0-16.42-20.76,56.51,56.51,0,0,0-25-10.62,63.84,63.84,0,0,0-26.53,1.34,74.92,74.92,0,0,0-19,8.07,75.06,75.06,0,0,0-19.05-8.07A63.89,63.89,0,0,0,350,330.57a56.46,56.46,0,0,0-25,10.62A53.39,53.39,0,0,0,308.64,362a57.3,57.3,0,0,0-3.9,12.26,69.79,69.79,0,0,0-1.27,12.38,63.75,63.75,0,0,0,4.54,24.7,74,74,0,0,0,13.25,21.15c1.33,1.54,2.69,3,4,4.43l1.91,2c.57.61,1.11,1.2,1.46,1.61.12.44.27,1,.4,1.55.37,1.59.71,3.43,1.05,5.06h0c.33,1.63.69,4,1.08,6.26,6.54,38.38,13.62,70.17,34,70.17,16.7,0,20.79-15.86,23.81-27.45,1.62-6.19,4.07-14.63,6.65-14.81,2.58.18,5,8.62,6.63,14.81,3,11.59,7.09,27.45,23.79,27.45,20.37,0,27.44-31.79,34-70.17.39-2.26.74-4.63,1.08-6.26h0c.34-1.63.68-3.47,1.05-5.06.13-.57.27-1.11.4-1.55.34-.41.88-1,1.46-1.61l1.91-2c1.32-1.41,2.69-2.89,4-4.43a73.93,73.93,0,0,0,13.24-21.15,63.57,63.57,0,0,0,4.55-24.7A69.79,69.79,0,0,0,486.48,374.21Z"/><path class="cls-8" d="M486.48,374.21a57.87,57.87,0,0,0-3.9-12.26,53.45,53.45,0,0,0-16.42-20.76,56.51,56.51,0,0,0-25-10.62,63.84,63.84,0,0,0-26.53,1.34c-1.49.38-2.94.83-4.37,1.3a119.56,119.56,0,0,1,26,107.27h26.33c.34-.41.87-1,1.44-1.59l1.91-2c1.32-1.41,2.69-2.89,4-4.43a73.93,73.93,0,0,0,13.24-21.15,63.57,63.57,0,0,0,4.55-24.7A69.79,69.79,0,0,0,486.48,374.21Z"/><path class="cls-1" d="M410.29,333.21A79.77,79.77,0,0,0,395.63,340a75.06,75.06,0,0,0-19.05-8.07A63.89,63.89,0,0,0,350,330.57a56.46,56.46,0,0,0-25,10.62A53.39,53.39,0,0,0,308.64,362a57.3,57.3,0,0,0-3.9,12.26,69.79,69.79,0,0,0-1.27,12.38,63.75,63.75,0,0,0,4.54,24.7,74,74,0,0,0,13.25,21.15c1.33,1.54,2.69,3,4,4.43l1.91,2c.57.61,1.1,1.18,1.44,1.59H436.26a119.56,119.56,0,0,0-26-107.27Z"/><path class="cls-3" d="M487.76,358.92a60.65,60.65,0,0,0-40-33.08c-19-4.89-38.39-.57-55.2,9h6.06c-19.35-11-42.3-14.86-63.36-6.22-20.27,8.31-34,26.75-37,48.37-3.13,22.48,4.45,43.44,19.26,60.31,3,3.41,6.69,8.81,11.46,9.22,1.76.15,3.59,0,5.35,0h123a50.3,50.3,0,0,0,5.21,0c3.29-.34,4.89-2.42,7-4.66a130.27,130.27,0,0,0,9.77-11.47,71.94,71.94,0,0,0,8.48-71.43c-3-7.08-13.37-1-10.36,6.05,5.89,13.76,5.75,30,.35,43.88-4.23,10.85-11.87,18.84-19.41,27.39l4.25-1.76h-134l4.24,1.76c-10.55-12-20.09-23.23-22.73-39.61-2.9-17.95,2.64-37.21,16.67-49.18s34.23-14.3,51.56-8.78a68.34,68.34,0,0,1,12,5.22c2,1.09,3.7,2.3,6.09,2s4.62-2.09,6.78-3.19a61.84,61.84,0,0,1,26.29-6.9c20.68-.57,39.19,10.39,47.9,29.19C480.64,372,491,365.89,487.76,358.92Z"/><path class="cls-7" d="M1379.53,433.75a58.08,58.08,0,0,0-3.91-12.26,53.33,53.33,0,0,0-16.42-20.75,56.52,56.52,0,0,0-25-10.63,64.2,64.2,0,0,0-26.53,1.34,75.64,75.64,0,0,0-19,8.07,75.62,75.62,0,0,0-19.05-8.07,64.23,64.23,0,0,0-26.54-1.34,56.52,56.52,0,0,0-25,10.63,53.36,53.36,0,0,0-16.43,20.75,58,58,0,0,0-3.9,12.26,70,70,0,0,0-1.27,12.39,63.75,63.75,0,0,0,4.54,24.7A74.32,74.32,0,0,0,1214.3,492c1.33,1.54,2.7,3,4,4.42l1.91,2c.58.61,1.12,1.2,1.46,1.61.13.43.27,1,.4,1.55.37,1.58.71,3.42,1.05,5h0c.34,1.63.69,4,1.08,6.26,6.54,38.39,13.62,70.18,34,70.18,16.7,0,20.79-15.86,23.82-27.45,1.61-6.19,4.06-14.64,6.64-14.81,2.59.17,5,8.62,6.63,14.81,3,11.59,7.09,27.45,23.79,27.45,20.37,0,27.45-31.79,34-70.18.39-2.26.75-4.63,1.08-6.26h0c.34-1.63.68-3.47,1-5,.13-.57.28-1.12.4-1.55.35-.41.89-1,1.46-1.61l1.91-2c1.32-1.4,2.69-2.88,4-4.42a74.1,74.1,0,0,0,13.25-21.15,63.75,63.75,0,0,0,4.54-24.7A70.93,70.93,0,0,0,1379.53,433.75Z"/><path class="cls-8" d="M1379.53,433.75a58.08,58.08,0,0,0-3.91-12.26,53.4,53.4,0,0,0-16.42-20.75,56.52,56.52,0,0,0-25-10.63,64.2,64.2,0,0,0-26.53,1.34c-1.49.39-2.94.83-4.36,1.31a119.56,119.56,0,0,1,26,107.27h26.32c.34-.41.87-1,1.44-1.59l1.91-2c1.32-1.4,2.69-2.88,4-4.42a74.1,74.1,0,0,0,13.25-21.15,63.75,63.75,0,0,0,4.54-24.7A70.93,70.93,0,0,0,1379.53,433.75Z"/><path class="cls-1" d="M1303.34,392.76a80.8,80.8,0,0,0-14.67,6.76,75.62,75.62,0,0,0-19.05-8.07,64.23,64.23,0,0,0-26.54-1.34,56.52,56.52,0,0,0-25,10.63,53.43,53.43,0,0,0-16.43,20.75,58,58,0,0,0-3.9,12.26,70,70,0,0,0-1.27,12.39,63.57,63.57,0,0,0,4.55,24.7A74.07,74.07,0,0,0,1214.3,492c1.33,1.54,2.7,3,4,4.42l1.91,2c.57.6,1.1,1.18,1.44,1.59h107.64a119.56,119.56,0,0,0-26-107.27Z"/><path class="cls-3" d="M1380.8,418.46a60.68,60.68,0,0,0-40-33.08c-19-4.88-38.39-.56-55.2,9h6c-19.35-11-42.3-14.85-63.35-6.22-20.28,8.31-34,26.76-37,48.37-3.12,22.49,4.45,43.45,19.26,60.31,3,3.42,6.69,8.82,11.46,9.23,1.76.15,3.6,0,5.35,0h123c1.7,0,3.51.17,5.2,0,3.29-.34,4.89-2.42,7-4.66a128.59,128.59,0,0,0,9.77-11.47,72,72,0,0,0,8.48-71.44c-3-7.08-13.37-1-10.36,6.06,5.89,13.76,5.75,30,.35,43.87-4.23,10.86-11.86,18.84-19.4,27.4l4.24-1.76h-134l4.25,1.76c-10.56-12-20.1-23.24-22.74-39.61-2.9-17.95,2.64-37.22,16.68-49.19s34.22-14.29,51.55-8.78a68.05,68.05,0,0,1,12,5.23c2,1.09,3.7,2.3,6.09,2s4.63-2.1,6.78-3.19a61.7,61.7,0,0,1,26.29-6.9c20.68-.58,39.19,10.38,47.9,29.19C1373.68,431.52,1384,425.43,1380.8,418.46Z"/><path class="cls-7" d="M3317.7,581.58a57.87,57.87,0,0,0-3.9-12.26,53.39,53.39,0,0,0-16.43-20.76,56.52,56.52,0,0,0-25-10.62,63.84,63.84,0,0,0-26.53,1.34,74.92,74.92,0,0,0-19,8.07,75.21,75.21,0,0,0-19-8.07,64,64,0,0,0-26.55-1.34,56.55,56.55,0,0,0-25,10.62,53.36,53.36,0,0,0-16.42,20.76,57.9,57.9,0,0,0-3.91,12.26,71.7,71.7,0,0,0-1.27,12.38,63.76,63.76,0,0,0,4.55,24.7,73.74,73.74,0,0,0,13.25,21.15c1.32,1.54,2.69,3,4,4.43l1.92,2c.57.61,1.11,1.2,1.45,1.61.13.44.28,1,.41,1.55.36,1.59.71,3.43,1.05,5.06h0c.33,1.63.69,4,1.07,6.26,6.55,38.38,13.62,70.17,34,70.17,16.7,0,20.79-15.86,23.81-27.44,1.62-6.2,4.07-14.64,6.65-14.81,2.58.17,5,8.61,6.62,14.81,3,11.58,7.09,27.44,23.79,27.44,20.38,0,27.45-31.79,34-70.17.38-2.26.74-4.63,1.07-6.26h0c.34-1.63.69-3.47,1.05-5.06.13-.57.28-1.11.41-1.55.34-.41.88-1,1.45-1.61l1.92-2c1.32-1.41,2.69-2.89,4-4.43a73.74,73.74,0,0,0,13.25-21.15A63.76,63.76,0,0,0,3319,594,71.7,71.7,0,0,0,3317.7,581.58Z"/><path class="cls-8" d="M3317.7,581.58a57.87,57.87,0,0,0-3.9-12.26,53.39,53.39,0,0,0-16.43-20.76,56.52,56.52,0,0,0-25-10.62,63.84,63.84,0,0,0-26.53,1.34c-1.5.38-3,.83-4.37,1.3a119.56,119.56,0,0,1,26,107.27h26.32c.35-.41.88-1,1.44-1.59l1.92-2c1.32-1.41,2.69-2.89,4-4.43a73.74,73.74,0,0,0,13.25-21.15A63.76,63.76,0,0,0,3319,594,71.7,71.7,0,0,0,3317.7,581.58Z"/><path class="cls-1" d="M3241.51,540.58a80.44,80.44,0,0,0-14.66,6.77,75.21,75.21,0,0,0-19-8.07,64,64,0,0,0-26.55-1.34,56.55,56.55,0,0,0-25,10.62,53.36,53.36,0,0,0-16.42,20.76,57.9,57.9,0,0,0-3.91,12.26,71.7,71.7,0,0,0-1.27,12.38,63.76,63.76,0,0,0,4.55,24.7,73.74,73.74,0,0,0,13.25,21.15c1.32,1.54,2.69,3,4,4.43l1.92,2c.56.61,1.09,1.18,1.44,1.59h107.63a119.56,119.56,0,0,0-26-107.27Z"/><path class="cls-3" d="M3319,566.29a60.7,60.7,0,0,0-40-33.08c-19-4.89-38.39-.57-55.2,9h6.06c-19.35-11-42.31-14.86-63.36-6.22-20.27,8.31-34,26.75-37.05,48.37-3.12,22.48,4.45,43.44,19.26,60.31,3,3.41,6.69,8.81,11.47,9.22,1.75.15,3.59,0,5.35,0h123a50.3,50.3,0,0,0,5.21,0c3.28-.34,4.88-2.42,7-4.66a132,132,0,0,0,9.77-11.47,72,72,0,0,0,8.48-71.43c-3-7.08-13.37-1-10.36,6.05,5.88,13.76,5.75,30,.34,43.88-4.23,10.85-11.86,18.84-19.4,27.39l4.24-1.76h-134l4.24,1.76c-10.55-12-20.09-23.23-22.74-39.61-2.89-18,2.64-37.21,16.68-49.18s34.23-14.3,51.56-8.78a67.92,67.92,0,0,1,12,5.22c2,1.09,3.71,2.3,6.1,2s4.62-2.09,6.77-3.19a61.88,61.88,0,0,1,26.29-6.9c20.69-.57,39.2,10.39,47.91,29.19C3311.86,579.34,3322.21,573.26,3319,566.29Z"/><path class="cls-7" d="M2379.08,226.38a58,58,0,0,0-3.9-12.26,53.36,53.36,0,0,0-16.43-20.75,56.43,56.43,0,0,0-25-10.63,64.18,64.18,0,0,0-26.53,1.34,75.64,75.64,0,0,0-19,8.07,75.78,75.78,0,0,0-19.05-8.07,64.24,64.24,0,0,0-26.54-1.34,56.47,56.47,0,0,0-25,10.63,53.36,53.36,0,0,0-16.43,20.75,58.08,58.08,0,0,0-3.91,12.26,71.92,71.92,0,0,0-1.27,12.39,63.86,63.86,0,0,0,4.55,24.69,73.79,73.79,0,0,0,13.25,21.16c1.33,1.54,2.69,3,4,4.42l1.91,2c.57.61,1.11,1.2,1.46,1.61.12.43.27,1,.4,1.55.37,1.58.71,3.42,1,5h0c.33,1.63.69,4,1.07,6.26,6.55,38.39,13.63,70.18,34,70.18,16.7,0,20.79-15.86,23.81-27.45,1.62-6.19,4.07-14.64,6.65-14.81,2.58.17,5,8.62,6.63,14.81,3,11.59,7.08,27.45,23.79,27.45,20.37,0,27.44-31.79,34-70.18.39-2.26.74-4.63,1.07-6.26h0c.33-1.63.68-3.47,1.05-5,.13-.57.27-1.12.4-1.55.34-.41.88-1,1.46-1.61l1.91-2c1.32-1.4,2.69-2.88,4-4.42a74,74,0,0,0,13.24-21.16,63.49,63.49,0,0,0,4.55-24.69A71.92,71.92,0,0,0,2379.08,226.38Z"/><path class="cls-8" d="M2379.08,226.38a58,58,0,0,0-3.9-12.26,53.36,53.36,0,0,0-16.43-20.75,56.43,56.43,0,0,0-25-10.63,64.18,64.18,0,0,0-26.53,1.34c-1.49.39-2.94.83-4.37,1.31a119.56,119.56,0,0,1,26,107.27h26.33c.34-.41.87-1,1.44-1.59l1.91-2c1.32-1.4,2.69-2.88,4-4.42a74,74,0,0,0,13.24-21.16,63.49,63.49,0,0,0,4.55-24.69A71.92,71.92,0,0,0,2379.08,226.38Z"/><path class="cls-1" d="M2302.89,185.39a80.4,80.4,0,0,0-14.66,6.76,75.78,75.78,0,0,0-19.05-8.07,64.24,64.24,0,0,0-26.54-1.34,56.47,56.47,0,0,0-25,10.63,53.36,53.36,0,0,0-16.43,20.75,58.08,58.08,0,0,0-3.91,12.26,71.92,71.92,0,0,0-1.27,12.39,63.86,63.86,0,0,0,4.55,24.69,73.79,73.79,0,0,0,13.25,21.16c1.33,1.54,2.69,3,4,4.42l1.91,2c.56.6,1.09,1.18,1.44,1.59h107.63a119.56,119.56,0,0,0-26-107.27Z"/><path class="cls-3" d="M2380.36,211.09a60.7,60.7,0,0,0-40-33.08c-19-4.88-38.39-.56-55.2,9h6.06c-19.35-11-42.31-14.85-63.36-6.22-20.27,8.31-34,26.76-37,48.37-3.13,22.49,4.44,43.45,19.26,60.31,3,3.42,6.68,8.82,11.46,9.23,1.75.15,3.59,0,5.35,0h123c1.7,0,3.51.17,5.21,0,3.29-.34,4.89-2.42,7-4.66a131.74,131.74,0,0,0,9.77-11.47,72,72,0,0,0,8.48-71.44c-3-7.08-13.37-1-10.36,6.06,5.89,13.76,5.75,30,.34,43.87-4.22,10.86-11.86,18.84-19.4,27.4l4.25-1.76h-134l4.24,1.76c-10.55-12-20.09-23.24-22.73-39.61-2.9-17.95,2.64-37.22,16.67-49.19s34.23-14.29,51.56-8.78a68,68,0,0,1,12,5.23c2,1.09,3.71,2.3,6.1,2s4.62-2.1,6.78-3.19a61.7,61.7,0,0,1,26.29-6.9c20.68-.58,39.19,10.38,47.9,29.19C2373.24,224.15,2383.59,218.06,2380.36,211.09Z"/><path class="cls-1" d="M3077.91,1973.55l-459.44-16.63s27.36-25.8,46.17-188.89c9.63-83.47,17.39-158.39,17.39-158.39l446.44,14.63s2.93,59.27-5.69,151.13C3109.26,1919.44,3077.91,1973.55,3077.91,1973.55Z"/><path class="cls-3" d="M3077.91,1967.55l-45.88-1.66-109.64-4-132.55-4.79-115-4.17-37.61-1.36c-5.84-.21-12.17-1.16-18-.65a6.61,6.61,0,0,1-.77,0l4.24,10.25c3-2.86,5.19-7.07,7.09-10.68,6.79-12.93,11.41-27.07,15.44-41.06,20.74-72,26.36-148.12,34.49-222.32q4.24-38.73,8.3-77.47l-6,6,44.4,1.45,106.64,3.5,129,4.22,111.51,3.66,36.52,1.2c5.69.18,11.93,1.13,17.62.57a6.35,6.35,0,0,1,.75,0l-6-6c2.49,50.86-1,102.48-5.87,153.07-5.53,57.82-14.24,117.13-34.56,171.86-1.27,3.43-2.6,6.83-4,10.19.54-1.28-.18.43-.35.82l-.81,1.85c-.44,1-.9,2-1.36,3-.87,1.84-1.75,3.71-2.77,5.48-3.87,6.7,6.5,12.75,10.36,6,3.4-5.89,5.93-12.39,8.42-18.69,7.35-18.62,12.86-38,17.53-57.4,17.41-72.51,23.8-148,25.58-222.41.43-17.91.72-35.91-.15-53.81a6.13,6.13,0,0,0-6-6l-44.41-1.46-106.63-3.49-129-4.23-111.5-3.66c-18-.58-36.17-2.1-54.14-1.77-.25,0-.5,0-.75,0-3.49-.12-5.68,2.85-6,6-6.68,64.51-12.81,129.26-21.85,193.49-4.42,31.4-9.79,62.79-17.86,93.48-2.51,9.52-5.29,19-8.59,28.26q-1.76,5-3.74,9.8c-.53,1.31,0,.15-.37.89s-.56,1.29-.85,1.94c-.54,1.23-1.11,2.45-1.69,3.66a82.42,82.42,0,0,1-5.63,10c-.28.42-.59.81-.88,1.22.2-.29,1.09-1.33.22-.32a8.24,8.24,0,0,1-.56.62c-3.91,3.71-.79,10.06,4.24,10.24l45.88,1.66,109.63,4,132.56,4.8,115,4.16c18.45.67,37.14,2.29,55.6,2,.26,0,.52,0,.78,0C3085.63,1979.83,3085.62,1967.83,3077.91,1967.55Z"/></g></g></svg>