<svg xmlns="http://www.w3.org/2000/svg" viewBox="0 0 4281.78 1262.78"><defs><style>.cls-1{fill:#e8f8ff;}.cls-2{fill:#ffedb8;}.cls-3{fill:#fff;}.cls-4{fill:#febbb5;}.cls-5{fill:#b1b479;}.cls-6{fill:#b6cbd4;}</style></defs><g id="Layer_2" data-name="Layer 2"><g id="圖層_1" data-name="圖層 1"><path class="cls-1" d="M3667,1229.6H614.8A607.28,607.28,0,0,1,376,1181.06,620.52,620.52,0,0,1,48.53,853.59a611.77,611.77,0,0,1,0-477.59A620.52,620.52,0,0,1,376,48.53,607.45,607.45,0,0,1,614.8,0H3667a607.45,607.45,0,0,1,238.8,48.53A620.52,620.52,0,0,1,4233.25,376a611.77,611.77,0,0,1,0,477.59,620.52,620.52,0,0,1-327.47,327.47A607.28,607.28,0,0,1,3667,1229.6ZM614.8,60a547.59,547.59,0,0,0-215.34,43.76,560.5,560.5,0,0,0-295.7,295.7,551.69,551.69,0,0,0,0,430.67,560.47,560.47,0,0,0,295.7,295.71A547.77,547.77,0,0,0,614.8,1169.6H3667a547.77,547.77,0,0,0,215.34-43.76A560.47,560.47,0,0,0,4178,830.13a551.69,551.69,0,0,0,0-430.67,560.5,560.5,0,0,0-295.7-295.7A547.59,547.59,0,0,0,3667,60Z"/><circle class="cls-2" cx="1149.78" cy="1198.5" r="58.37"/><path class="cls-3" d="M1202.15,1198.5c-.25,21.8-13.85,42-34.64,49.31a53,53,0,0,1-58.69-16.61c-13.73-17.08-15-41.66-3.59-60.25s33.93-28.29,55.21-23.75a53,53,0,0,1,41.71,51.3c.09,7.72,12.09,7.74,12,0a65.2,65.2,0,0,0-42.2-60.42c-25-9.38-54.64-1.43-71.61,19.24-17.15,20.87-19.81,50.94-5.81,74.23a65.12,65.12,0,0,0,67.78,30.09c30-5.69,51.49-33,51.84-63.14C1214.24,1190.78,1202.24,1190.77,1202.15,1198.5Z"/><circle class="cls-4" cx="851.22" cy="1198.5" r="58.37"/><circle class="cls-5" cx="2227.35" cy="1198.5" r="58.37"/><circle class="cls-6" cx="1533.21" cy="1198.5" r="58.37"/><circle class="cls-4" cx="3561.27" cy="1198.5" r="58.37"/><path class="cls-3" d="M3613.64,1198.5c-.25,21.8-13.84,42-34.64,49.31a53,53,0,0,1-58.69-16.61c-13.73-17.08-15-41.66-3.59-60.25s33.94-28.29,55.22-23.75a53,53,0,0,1,41.7,51.3c.1,7.72,12.1,7.74,12,0a65.2,65.2,0,0,0-42.2-60.42c-25.05-9.38-54.64-1.43-71.61,19.24-17.14,20.87-19.8,50.94-5.81,74.23a65.13,65.13,0,0,0,67.78,30.09c30-5.69,51.49-33,51.84-63.14C3625.74,1190.78,3613.74,1190.77,3613.64,1198.5Z"/><circle class="cls-6" cx="66.88" cy="405.06" r="58.37"/></g></g></svg>