<svg xmlns="http://www.w3.org/2000/svg" viewBox="0 0 1112.4 1593.67"><defs><style>.cls-1{fill:#fff;}.cls-2{fill:#52483f;}.cls-3{fill:#d0d2af;}.cls-4{fill:#b6cbd4;}</style></defs><g id="Layer_2" data-name="Layer 2"><g id="圖層_3" data-name="圖層 3"><rect class="cls-1" x="612.89" y="1314.78" width="212.02" height="212.02" transform="translate(-794.09 924.48) rotate(-45)"/><path class="cls-2" d="M723.14,1566.46l-50.68-50.68L591.71,1435l-18.49-18.49V1425l50.69-50.69,80.74-80.74,18.49-18.49h-8.48l50.68,50.68,80.75,80.75L864.58,1425v-8.49l-50.68,50.69L733.15,1548l-18.49,18.48c-5.47,5.47,3,14,8.48,8.49l50.69-50.68,80.75-80.75L873.06,1425a6.09,6.09,0,0,0,0-8.49l-50.68-50.68-80.75-80.75-18.49-18.49a6.09,6.09,0,0,0-8.48,0L664,1317.31l-80.74,80.74-18.49,18.49a6.1,6.1,0,0,0,0,8.49l50.68,50.68,80.75,80.75L714.66,1575C720.13,1580.42,728.61,1571.93,723.14,1566.46Z"/><circle class="cls-1" cx="579.26" cy="1484.92" r="102.86"/><path class="cls-2" d="M676.11,1484.92c-.26,40.17-25.59,77.37-63.67,91a98,98,0,0,1-108.26-29.8c-25.65-31-28.68-76.45-8.11-110.89,20.75-34.75,62.38-53.44,102.15-45.37,45,9.13,77.59,49.24,77.89,95,.06,7.72,12.06,7.74,12,0-.3-45.75-29.33-87.14-72.48-102.61-42.67-15.3-92.32-1.41-120.76,33.89-28.63,35.54-32.5,86.47-8.49,125.54,23.89,38.87,70.38,58.83,115,49.77,50.15-10.17,86.36-55.79,86.7-106.59C688.17,1477.2,676.17,1477.19,676.11,1484.92Z"/><path class="cls-2" d="M737.45,241.1s-14.23,73.82,68.48,143.72,77.2,138.33,44.66,173.73-130.71,30-161.14-42.64c0,0,10.32,77.58-44.69,71.6s-175,87.86-298.32-76.67,88.79-354,88.79-354Z"/><path class="cls-1" d="M965,1398.23l-96.9-43s-62.57,1-74.23,34,44.59,17.32,44.59,17.32-83.29,84.23-12.25,118.28C897.63,1559.12,943.61,1446.64,965,1398.23Z"/><path class="cls-2" d="M968,1393.05c-31.82-14.13-63.6-28.35-95.47-42.38-4.18-1.84-7.82-1.38-12.32-1a154.56,154.56,0,0,0-32.27,6c-11.88,3.69-24.13,9.36-32.35,19-7,8.17-13.07,21.86-6.8,32.06,5.85,9.52,19.29,10.12,29.2,9.39a114.19,114.19,0,0,0,22-3.76l-5.83-10a188.61,188.61,0,0,0-27.76,36.42c-11.81,20-21.39,46.18-9.33,68.28,12.94,23.72,46.08,35.06,71.42,28,26.46-7.39,45.79-30.54,60.35-52.55,16.83-25.43,29-53.43,41.28-81.23,3.09-7-7.24-13.12-10.36-6.06-10,22.67-19.92,45.4-32.39,66.86s-28.1,44.6-50.63,56.75c-21.25,11.45-49.57,6.56-65.43-12.11-14.25-16.77-6.39-40.32,2.92-57.42a172.87,172.87,0,0,1,28.41-38.45c4.18-4.24,0-11.65-5.84-10a105.93,105.93,0,0,1-14.64,2.93,71.71,71.71,0,0,1-13.1.5c-3.13-.19-6.86-1.09-8.86-2.45a3.92,3.92,0,0,1-1.63-2.11,9.56,9.56,0,0,1-.07-5,26.66,26.66,0,0,1,7.15-13.28c7.63-8,18.41-12.25,28.84-15.14a143.17,143.17,0,0,1,27.18-4.7c1.62-.12,4.66.32,6.17-.34,1.1-.48-3.93-1.61-2.49-.67a14.62,14.62,0,0,0,1.9.84l48.94,21.72,45.73,20.3C968.94,1406.52,975.05,1396.18,968,1393.05Z"/><path class="cls-2" d="M886.3,1460a285.57,285.57,0,0,1-16.54,26c-9.4,13.3-20.38,28-35,35.88-6.8,3.67-.75,14,6.05,10.36,15.77-8.51,27.62-23.94,37.89-38.21a285.79,285.79,0,0,0,17.95-28c3.76-6.76-6.6-12.82-10.36-6.06Z"/><path class="cls-2" d="M856,1444.6a286.21,286.21,0,0,1-16.54,26c-9.4,13.3-20.38,28-35,35.89-6.8,3.66-.74,14,6.06,10.36,15.77-8.51,27.62-23.94,37.89-38.21a286.6,286.6,0,0,0,18-28c3.76-6.75-6.6-12.81-10.36-6.05Z"/><path class="cls-1" d="M724.24,510.84c-52.55-25.88-118-41.23-188.9-41.23S399,485,346.44,510.84c-75.88,37.37-124.93,96.7-124.93,163.5v407.41c0,77.81,72.08,141.48,160.18,141.48H689c88.09,0,160.17-63.67,160.17-141.48V674.34C849.17,607.54,800.12,548.21,724.24,510.84Z"/><polygon class="cls-1" points="461.48 319.77 461.48 489.25 535.34 560.65 609.21 489.25 609.21 319.77 461.48 319.77"/><path class="cls-2" d="M455.48,319.77V437.14c0,16.92-.47,33.92,0,50.83.13,4.78,3.32,7,6.52,10.13L484.61,520,531.1,564.9a6.11,6.11,0,0,0,8.48,0L579,526.78l25.33-24.49c3.48-3.37,10.34-7.88,10.86-13.11.42-4.26,0-8.77,0-13V319.77a6.09,6.09,0,0,0-6-6H461.48c-7.73,0-7.74,12,0,12H609.21l-6-6V489.25L605,485l-64.76,62.6-9.1,8.8h8.48l-64.76-62.6-9.1-8.8,1.76,4.24V319.77C467.48,312.05,455.48,312,455.48,319.77Z"/><path class="cls-2" d="M414.14,521.76l102.42,99,14.54,14.06a6.11,6.11,0,0,0,8.48,0l102.42-99,14.54-14c5.56-5.38-2.93-13.86-8.48-8.49l-102.42,99L531.1,626.33h8.48l-102.41-99-14.54-14.06c-5.56-5.37-14.05,3.11-8.49,8.49Z"/><path class="cls-3" d="M724.24,510.84S652.5,940.47,652.5,1223.23H847.82S1201,609.28,724.24,510.84Z"/><path class="cls-3" d="M372.72,499.22s5.9,504.54,35.29,724H244.23S-5.08,605.5,372.72,499.22Z"/><path class="cls-3" d="M911.69,612s404.16,317.49,65.44,809l-166.86-67.79s72.56-189.37,52.45-278.2S821.77,700.41,911.69,612Z"/><path class="cls-2" d="M893.3,627.38C862.82,669.53,852,724.55,845.61,775.1c-7.51,59-7.83,118.89-4.31,178.16,1.5,25.3,3.77,50.57,7.08,75.7,2.52,19.13,6.54,37.85,9.79,56.84,4.2,24.49,2,50.31-1.39,74.76-3.88,28.19-10.09,56.06-17.31,83.57-9.67,36.87-22,72.69-34.34,108.69-.19.58-.43,1.15-.64,1.72-1.26,3.27,1.43,6.26,4.19,7.38l56.17,22.82,90.09,36.59,20.6,8.37c7.15,2.91,10.26-8.7,3.19-11.57l-56.18-22.82-90.08-36.59-20.6-8.37,4.19,7.38c11.34-29.63,20.93-60,29.57-90.56,7.68-27.12,14.42-54.55,19.37-82.32,4.69-26.34,8.19-53.33,7-80.14-.85-19.76-6.07-38.87-9.14-58.34-3.63-23.09-6.11-46.36-8-69.65-4.64-58.31-5.4-117.23-.15-175.52,2.57-28.51,6.7-57,13.6-84.77,6-24,14-47.91,26.45-69.4q4.08-7,8.83-13.59c4.54-6.27-5.87-12.26-10.36-6.06Z"/><ellipse class="cls-2" cx="422.15" cy="171.16" rx="145.69" ry="105.76" transform="translate(-28 101.34) rotate(-13.25)"/><ellipse class="cls-2" cx="624.8" cy="177.5" rx="105.76" ry="145.69" transform="translate(57.49 493.79) rotate(-45)"/><path class="cls-1" d="M665.13,260.8a54.84,54.84,0,0,0-15.3,2l-25,90.73c9.79,10.21,21.47,18.63,36.74,18.85,30.25.43,57.26-32.71,57.69-63S695.39,261.23,665.13,260.8Z"/><path class="cls-2" d="M665.13,254.8A67.8,67.8,0,0,0,648.24,257a6,6,0,0,0-4.19,4.19L620,348.5a32.68,32.68,0,0,0-.94,3.39c-1.12,6.84,9.16,13.26,14,16.74,12.72,9.07,28.77,12.16,43.77,7.42,27.48-8.67,48-38.15,48.4-66.68.23-15.07-5.73-29.85-17.3-39.71-11.93-10.16-27.34-14.5-42.8-14.86-7.72-.18-7.72,11.82,0,12,23.61.55,47.15,13.93,48.07,39.81.89,24.88-17.51,52.36-42.11,58.6-16.64,4.22-30.83-4.41-42.05-16l1.54,5.84,21.89-79.31,3.15-11.42-4.19,4.19a54.57,54.57,0,0,1,13.7-1.74C672.85,266.79,672.87,254.79,665.13,254.8Z"/><path class="cls-1" d="M689,297.83s-15.42-2-24.81,9.79-3,32.24,8.23,30.43,15.87-10.77,13-18.72-12.74-7.46-24.28-1.28"/><path class="cls-2" d="M689,291.83c-20.3-2.41-38.6,15-34.72,35.45,2,10.34,10.16,18.89,21.22,16.27s19.18-13.21,16-24.73c-4.4-16-22.55-11.58-33.45-5.95-6.86,3.54-.8,13.9,6.06,10.36,4.26-2.2,19.76-8.07,15.69,3.19-1.1,3-5.08,5.82-8.33,5.73-2.58-.06-3.92-2.55-4.76-4.75-5.54-14.37,9.06-25.14,22.28-23.57,7.65.91,7.58-11.09,0-12Z"/><path class="cls-1" d="M401.36,260.8a54.74,54.74,0,0,1,15.3,2l25,90.73c-9.79,10.21-21.47,18.63-36.74,18.85-30.26.43-57.26-32.71-57.7-63S371.11,261.23,401.36,260.8Z"/><path class="cls-2" d="M401.36,266.8a54.65,54.65,0,0,1,13.71,1.74l-4.19-4.19,21.89,79.32,3.15,11.41,1.54-5.84c-9.95,10.24-22.19,18.58-37.14,16.9-12.8-1.44-24-9.49-32.07-19.09C353,329,345.86,299,364.44,280.54c9.72-9.64,23.55-13.43,36.92-13.74,7.71-.18,7.74-12.18,0-12-26.82.62-54.28,15.16-59.19,43.64s12.15,59.86,37.45,73.36c13.5,7.21,29.2,8.7,43.43,2.64a66.55,66.55,0,0,0,19.68-13.5c3.14-3,5.55-5.53,4.5-10C443.7,336,439,321.3,435,306.53l-12.52-45.37a6,6,0,0,0-4.19-4.19,67.88,67.88,0,0,0-16.9-2.17C393.64,254.79,393.63,266.79,401.36,266.8Z"/><path class="cls-1" d="M377.52,297.83s15.42-2,24.81,9.79,3,32.24-8.24,30.43-15.86-10.77-12.95-18.72,12.75-7.46,24.28-1.28"/><path class="cls-2" d="M377.52,303.83c13.27-1.58,27.74,9.18,22.28,23.57-.73,1.93-2,4.49-4.3,4.75-3.36.39-7.67-2.63-8.79-5.73-4.08-11.27,11.47-5.37,15.69-3.19,6.85,3.53,12.93-6.82,6.05-10.36-9.53-4.93-25-9.92-31.79,1.93-5.76,10.06-.45,22.39,9.57,27.05,10.88,5.06,20.95.36,25-10.73a28.82,28.82,0,0,0-7.59-30.88,34.68,34.68,0,0,0-26.08-8.41c-7.57.9-7.66,12.91,0,12Z"/><path class="cls-1" d="M526.06,104.61c-125.3.66-146.83,88.88-132.88,188.45,7.88,56.22,24.37,130,81.38,154.41,83.61,35.8,156.41-11.57,183.65-98.41S705.81,103.66,526.06,104.61Z"/><path class="cls-2" d="M526.06,98.61c-37.4.31-77,8.3-104.76,35.16-23.34,22.59-33.53,54.39-36.68,86-3.69,37.07,1.4,75.22,9.07,111.49,8.22,38.89,22.54,81.34,54.58,107.17,31.12,25.08,77.51,33.39,115.7,22.28,38.53-11.21,68.3-41.18,86.26-76.26,14-27.39,22-58.43,27.09-88.68,4.72-27.91,6.51-56.46,2.23-84.54-4.07-26.76-14.68-52.8-33.76-72.4-23.14-23.75-55.41-34.66-87.67-38.51a264.16,264.16,0,0,0-32.06-1.71c-7.72,0-7.73,12,0,12,33.67-.1,69.11,5,97.29,24.76,20.79,14.59,34.28,36.72,40.85,61C677.4,245,667.53,298.81,652.88,346c-11.3,36.4-32.42,71.46-65.74,91.52s-72.87,19.85-108.22,5.31c-36.57-15-55.92-51.39-66.76-87.47A396.72,396.72,0,0,1,395.5,247.11c-.35-30.47,3.92-62.61,20.89-88.65,17.72-27.18,47.58-40.85,78.83-45.65a216.55,216.55,0,0,1,30.84-2.2C533.78,110.55,533.8,98.55,526.06,98.61Z"/><path class="cls-1" d="M499.66,358.12s-.83,31.4,28.79,31.4c31.75,0,29.69-31.4,29.69-31.4"/><path class="cls-2" d="M493.66,358.12c-.28,12.82,5.8,27.05,17.39,33.31,18.54,10,43.32,2.15,50.65-17.77a39.38,39.38,0,0,0,2.44-15.54c-.46-7.68-12.46-7.73-12,0a25.43,25.43,0,0,1-2,12.35c-3.34,8.57-11.23,12.75-20.28,13-9.45.29-17.69-3.43-21.58-12.36a27.92,27.92,0,0,1-2.61-13c.17-7.73-11.83-7.73-12,0Z"/><circle class="cls-2" cx="472.47" cy="279.19" r="8.7"/><circle class="cls-2" cx="587.6" cy="279.19" r="8.7"/><line class="cls-1" x1="528.92" y1="296.7" x2="528.92" y2="335.47"/><path class="cls-2" d="M522.92,296.7v38.77c0,7.72,12,7.74,12,0V296.7c0-7.73-12-7.74-12,0Z"/><path class="cls-2" d="M382.68,259.8c39.14,3,79.1-80.82,79.1-80.82,36.08,87.87,116.07,45.06,132-3.43,0,0,17.54,74.61,92.82,82.25,0,0,94.88-257.8-154.51-257.8C303.21,0,343.53,256.84,382.68,259.8Z"/><path class="cls-4" d="M508.89,279.19c-.24,15.13-9.52,29.11-24,34.25a36.45,36.45,0,1,1,24-34.25c.13,7.72,12.13,7.74,12,0a49.14,49.14,0,0,0-32.16-45.6c-18.78-6.9-40.93-.71-53.54,14.76-12.78,15.68-14.78,38.18-4.3,55.66a49,49,0,0,0,51.4,22.59c22.47-4.41,38.24-24.88,38.6-47.41C521,271.47,509,271.47,508.89,279.19Z"/><path class="cls-4" d="M624,279.19c-.24,15.13-9.52,29.11-24,34.25a36.45,36.45,0,1,1,24-34.25c.13,7.72,12.13,7.74,12,0a49.14,49.14,0,0,0-32.16-45.6c-18.78-6.9-40.93-.71-53.54,14.76C537.54,264,535.54,286.53,546,304a49,49,0,0,0,51.4,22.59c22.47-4.41,38.24-24.88,38.6-47.41C636.15,271.47,624.15,271.47,624,279.19Z"/><path class="cls-4" d="M512.53,271.22h35c7.72,0,7.74-12,0-12h-35c-7.73,0-7.74,12,0,12Z"/><path class="cls-1" d="M342.5,1109.3s147.68-4.11,156.75,86.57-133.49,17.4-171,29.3-72.59-28.38-50.45-75.65C287.13,1129.65,309.58,1110.43,342.5,1109.3Z"/><path class="cls-2" d="M342.5,1115.3a258.57,258.57,0,0,1,69.87,8.15c35.67,9,73.59,28.64,80.33,68.39,1.46,8.61,1.73,18.12-1.3,26.44a23.53,23.53,0,0,1-11.91,13.13c-13.1,6.81-31.81,4.92-46.68,2.87-19.63-2.71-38.88-7.57-58.26-11.56-14.56-3-31.18-7.2-46-3.83-5.25,1.19-9.94,2.58-15.42,2.35a35.09,35.09,0,0,1-16.13-4.87c-10.64-6.25-17.3-17.4-19.38-29.4-5-28.6,14.7-57.07,41-66.92a77.17,77.17,0,0,1,23.89-4.75c7.7-.34,7.74-12.34,0-12-32.36,1.43-61.67,19.9-73.05,50.81-10.16,27.55-2.31,62.69,26.57,75.17a47.54,47.54,0,0,0,20.05,4c5.79-.16,11.05-1.83,16.63-3,1.35-.29.23-.09,1-.17s1.5-.14,2.25-.18c1.73-.1,3.47-.1,5.21-.05a107.44,107.44,0,0,1,10.79,1c20.13,2.74,39.85,8.18,59.79,12,30.74,5.92,85.79,14.8,93-28.47,3.65-21.89-3.42-45.06-17.24-62.16-13.14-16.24-32.07-26.77-51.38-34-18.45-6.87-37.92-10.68-57.43-12.94a252,252,0,0,0-34.5-2c-.57,0-1.14,0-1.72,0C334.8,1103.51,334.77,1115.51,342.5,1115.3Z"/><path class="cls-2" d="M425.88,1165.36a287.12,287.12,0,0,1,27.31,14.32c14,8.22,29.78,17.83,38.83,31.69,4.2,6.45,14.59.44,10.36-6-9.81-15-25.94-25.69-41.07-34.77A289.11,289.11,0,0,0,431.94,1155c-7-3.15-13.1,7.19-6.06,10.37Z"/><path class="cls-2" d="M401.24,1196a287.2,287.2,0,0,1,27.31,14.33c14,8.21,29.79,17.83,38.83,31.69,4.2,6.44,14.6.44,10.36-6.06-9.81-15-25.94-25.69-41.07-34.77a286,286,0,0,0-29.37-15.55c-7-3.15-13.09,7.19-6.06,10.36Z"/><path class="cls-3" d="M221.51,604.12S352.26,750,318.39,964.36c0,0-34.72,34.73-26.36,65s70.68,67.48,70.68,67.48l-47.34,166.23s-105.73,36.83-213.09-52.31S-102.59,819.14,221.51,604.12Z"/><path class="cls-2" d="M314.44,964.56C298,981.08,282,1006.3,285.53,1030.48c2,13.4,10.94,24.64,20.09,34.09,10.05,10.4,21.51,19.45,33.24,27.88,6.85,4.92,13.86,9.71,21.11,14l-2.76-6.77-16,56.22-25.41,89.21-5.93,20.79c-2.12,7.44,9.46,10.62,11.58,3.19l16-56.22,25.41-89.21,5.92-20.79a6.12,6.12,0,0,0-2.75-6.78,275.06,275.06,0,0,1-45.11-33.4c-8.47-7.81-17.87-17-22-28-4.88-13,.33-27.25,6.8-38.66a108.84,108.84,0,0,1,17.21-23c5.45-5.49-3-14-8.48-8.49Z"/></g></g></svg>