<svg xmlns="http://www.w3.org/2000/svg" viewBox="0 0 950.76 1418.68"><defs><style>.cls-1{fill:#52483f;}.cls-2{fill:#b6cbd4;}.cls-3{fill:#fff;}</style></defs><g id="Layer_2" data-name="Layer 2"><g id="圖層_3" data-name="圖層 3"><path class="cls-1" d="M493.4,253.58c109.71-80.17,80.91-192.9,27.34-226.7C437.55-25.61,377.82,7.31,344.67,52.8c-53.18,73-19.66,128.46-110,126.25C234.66,179.05,370.11,343.66,493.4,253.58Z"/><path class="cls-2" d="M664.25,633.5c-52.56-25.88-118-41.24-188.9-41.24h0c-70.93,0-136.35,15.36-188.9,41.24-75.88,37.37-135.35,86.91-124.08,349.36,8.45,196.63,45.14,341,45.14,341H743.18s36.69-144.39,45.14-341C799.59,720.41,740.13,670.87,664.25,633.5Z"/><polygon class="cls-3" points="401.48 442.43 401.48 611.9 475.35 683.31 549.21 611.9 549.21 442.43 401.48 442.43"/><path class="cls-1" d="M395.48,442.43V559.79c0,16.92-.47,33.92,0,50.84.13,4.77,3.32,7,6.52,10.12l22.62,21.86,46.48,44.94a6.11,6.11,0,0,0,8.49,0L519,649.43,544.35,625c3.49-3.38,10.34-7.89,10.86-13.12.43-4.25,0-8.77,0-13V442.43a6.08,6.08,0,0,0-6-6H401.48c-7.72,0-7.73,12,0,12H549.21l-6-6V611.9l1.76-4.24-64.76,62.6-9.11,8.8h8.49l-64.76-62.6-9.11-8.8,1.76,4.24V442.43C407.48,434.7,395.48,434.69,395.48,442.43Z"/><path class="cls-3" d="M613.23,378.85a54.84,54.84,0,0,0-15.3,1.95l-25,90.73c9.79,10.22,21.48,18.64,36.75,18.86,30.25.43,57.26-32.72,57.69-63S643.49,379.28,613.23,378.85Z"/><path class="cls-1" d="M613.23,372.85A67.8,67.8,0,0,0,596.34,375a6,6,0,0,0-4.19,4.19l-24.1,87.33a34.12,34.12,0,0,0-.94,3.39c-1.12,6.85,9.16,13.26,14,16.75,12.72,9.07,28.77,12.15,43.77,7.42,27.48-8.67,48-38.15,48.4-66.69.23-15.07-5.74-29.85-17.3-39.7-11.93-10.17-27.34-14.5-42.8-14.86-7.72-.18-7.72,11.82,0,12,23.61.55,47.15,13.93,48.07,39.81.89,24.88-17.51,52.35-42.11,58.59-16.64,4.23-30.83-4.4-42.05-16l1.54,5.84,21.89-79.32,3.15-11.41-4.19,4.19a54.12,54.12,0,0,1,13.7-1.74C621,384.83,621,372.83,613.23,372.85Z"/><path class="cls-3" d="M637.07,415.88s-15.41-2-24.81,9.79-3,32.23,8.24,30.43,15.87-10.77,13-18.73-12.74-7.45-24.28-1.28"/><path class="cls-1" d="M637.07,409.88c-20.29-2.42-38.59,15-34.71,35.44,2,10.35,10.16,18.9,21.22,16.27s19.17-13.2,16-24.72c-4.4-16-22.55-11.59-33.45-6-6.86,3.54-.8,13.9,6.06,10.36,4.26-2.2,19.76-8.06,15.69,3.19a9.73,9.73,0,0,1-8.34,5.74c-2.57-.07-3.91-2.56-4.76-4.75-5.53-14.38,9.07-25.15,22.28-23.57,7.66.91,7.59-11.1,0-12Z"/><path class="cls-3" d="M349.46,378.85a54.84,54.84,0,0,1,15.3,1.95l25,90.73c-9.79,10.22-21.48,18.64-36.74,18.86-30.26.43-57.27-32.72-57.7-63S319.21,379.28,349.46,378.85Z"/><path class="cls-1" d="M349.46,384.85a54.19,54.19,0,0,1,13.71,1.74L359,382.4l21.88,79.31L384,473.13l1.55-5.84c-9.95,10.24-22.19,18.58-37.14,16.9-12.8-1.44-24-9.49-32.08-19.09C301.06,447,294,417,312.54,398.59c9.72-9.64,23.55-13.43,36.92-13.74,7.71-.18,7.74-12.18,0-12-26.82.62-54.28,15.15-59.19,43.63s12.15,59.87,37.44,73.37c13.51,7.2,29.21,8.69,43.44,2.64A66.93,66.93,0,0,0,390.83,479c3.14-3,5.55-5.54,4.5-10-3.53-14.92-8.19-29.65-12.26-44.43l-12.52-45.36a6,6,0,0,0-4.19-4.19,67.88,67.88,0,0,0-16.9-2.17C341.74,372.83,341.73,384.83,349.46,384.85Z"/><path class="cls-3" d="M325.62,415.88s15.42-2,24.81,9.79,2.95,32.23-8.24,30.43-15.86-10.77-12.95-18.73,12.75-7.45,24.28-1.28"/><path class="cls-1" d="M325.62,421.88c13.26-1.58,27.74,9.18,22.28,23.57-.73,1.93-2,4.49-4.3,4.75-3.36.39-7.67-2.64-8.79-5.74-4.08-11.27,11.47-5.36,15.69-3.19,6.85,3.54,12.92-6.81,6.05-10.36-9.53-4.92-25-9.92-31.79,1.94-5.77,10-.45,22.39,9.57,27,10.88,5.05,20.95.35,25-10.74a28.79,28.79,0,0,0-7.6-30.87,34.65,34.65,0,0,0-26.07-8.41c-7.58.9-7.67,12.91,0,12Z"/><path class="cls-3" d="M474.16,222.66c-125.3.66-146.83,88.87-132.88,188.45,7.88,56.22,24.37,130,81.38,154.41,83.61,35.8,156.41-11.57,183.65-98.41S653.91,221.7,474.16,222.66Z"/><path class="cls-1" d="M474.16,216.66c-37.41.3-77,8.3-104.76,35.16-23.34,22.58-33.53,54.38-36.68,86-3.69,37.07,1.4,75.23,9.07,111.5,8.22,38.88,22.54,81.33,54.58,107.16,31.12,25.08,77.5,33.39,115.7,22.28,38.53-11.2,68.3-41.17,86.26-76.25,14-27.39,22-58.44,27.09-88.69,4.72-27.9,6.51-56.45,2.23-84.54-4.08-26.75-14.68-52.8-33.77-72.39-23.13-23.76-55.4-34.66-87.66-38.51a264.16,264.16,0,0,0-32.06-1.71c-7.72,0-7.73,12,0,12,33.67-.1,69.11,5,97.29,24.76,20.79,14.58,34.28,36.71,40.85,61,13.2,48.66,3.33,102.47-11.32,149.67-11.3,36.4-32.43,71.46-65.74,91.52S462.36,575.42,427,560.89c-36.57-15-55.92-51.39-66.76-87.47A396.85,396.85,0,0,1,343.6,365.15c-.35-30.47,3.92-62.61,20.89-88.64,17.72-27.18,47.58-40.86,78.83-45.65a213.66,213.66,0,0,1,30.84-2.2C481.88,228.59,481.9,216.59,474.16,216.66Z"/><path class="cls-3" d="M447.76,476.16s-.83,31.4,28.79,31.4c31.75,0,29.69-31.4,29.69-31.4"/><path class="cls-1" d="M441.76,476.16c-.28,12.83,5.79,27,17.39,33.32,18.54,10,43.32,2.15,50.65-17.78a39.53,39.53,0,0,0,2.44-15.54c-.46-7.67-12.46-7.72-12,0a25.53,25.53,0,0,1-2,12.35c-3.35,8.57-11.23,12.76-20.28,13-9.45.29-17.69-3.42-21.58-12.36a27.9,27.9,0,0,1-2.61-13c.17-7.72-11.83-7.72-12,0Z"/><circle class="cls-1" cx="420.57" cy="397.24" r="8.7"/><circle class="cls-1" cx="535.7" cy="397.24" r="8.7"/><line class="cls-3" x1="477.01" y1="414.74" x2="477.01" y2="453.52"/><path class="cls-1" d="M471,414.74v38.78c0,7.72,12,7.73,12,0V414.74c0-7.72-12-7.73-12,0Z"/><path class="cls-1" d="M325.62,377.84s180.65,1,210.08-88.71c0,0,18.55,79.08,93.82,86.71,0,0,76.35-244.79-152.51-244.79S325.62,377.84,325.62,377.84Z"/><path class="cls-3" d="M379.22,163.36c.4-.39.83-.76,1.26-1.13s.93-.8,1.41-1.19l.91-.73.38-.31a118.53,118.53,0,0,1,14.38-9.26,131.9,131.9,0,0,1,54.1-15.68,158.32,158.32,0,0,1,45.62,3.74c7.52,1.69,10.73-9.87,3.19-11.57-41.32-9.28-87.07-4.15-121.91,21.34a75.29,75.29,0,0,0-7.83,6.31c-5.57,5.36,2.92,13.84,8.49,8.48Z"/><rect class="cls-3" x="317.31" y="996.07" width="316.08" height="416.6" rx="62.55"/><path class="cls-1" d="M379.86,1418.66H565.74c8.68,0,17.27-.49,25.64-3.16a69.37,69.37,0,0,0,41.85-37.16c6.66-14.84,6.15-29.87,6.15-45.58V1062c0-8.12-.67-16.18-3.16-24a69.39,69.39,0,0,0-37.15-41.85c-17-7.64-35.4-6.15-53.54-6.15H394.66c-4.85,0-9.71-.05-14.56,0a68.74,68.74,0,0,0-68.79,68.55c0,2.74,0,5.49,0,8.23V1340c0,3.32,0,6.65,0,10a68.74,68.74,0,0,0,68.55,68.71c7.72.09,7.73-11.91,0-12-31.8-.36-56.48-26.36-56.55-57.83,0-12.69,0-25.38,0-38.07V1155.32c0-32.23-.32-64.47,0-96.69.31-32,26.52-56.5,58.06-56.56,17,0,34,0,51,0H568.18c10.86,0,21.24,2,30.75,7.53,16,9.24,27.07,26.27,28.31,44.81.67,10,.14,20.14.14,30.13V1348c0,28.86-20.12,54.67-49.57,58.29-13.72,1.69-28.26.39-42,.39H379.86C372.14,1406.66,372.12,1418.66,379.86,1418.66Z"/><rect class="cls-3" x="317.31" y="1025.21" width="316.08" height="387.45" rx="62.55"/><path class="cls-1" d="M379.86,1418.66h180.4c3.52,0,7,0,10.58,0a68.75,68.75,0,0,0,68.55-68.59c0-3,0-6,0-9v-250.7c0-28.17-15.18-54.17-41.55-65.5-16-6.86-33-5.62-49.89-5.62H402.07c-17.23,0-34.24-1.12-50.44,6.15-25.84,11.59-40.32,37.49-40.32,65.2v250.86c0,2.89,0,5.78,0,8.67a68.74,68.74,0,0,0,68.55,68.57c7.72.09,7.73-11.91,0-12-31.47-.35-56.44-26.08-56.55-57.39,0-11.79,0-23.59,0-35.39V1105.74c0-13.39-1-27,4.3-39.64a57.4,57.4,0,0,1,37.48-32.92c6.7-1.83,13.38-2,20.22-2H568.44c28.24,0,53.13,18.61,58.17,47.09,1.89,10.64.78,22.4.78,33.14v142.08c0,32.18.3,64.37,0,96.55a57.35,57.35,0,0,1-57.23,56.59c-14.35.06-28.69,0-43,0H379.86C372.14,1406.66,372.12,1418.66,379.86,1418.66Z"/><path class="cls-2" d="M248.19,655.47S80.37,716.84,45.65,881.12l114,56.82S264.46,779.23,248.19,655.47Z"/><path class="cls-3" d="M212.05,701.57A356.37,356.37,0,0,0,192.55,739c-13.16,28.43-23.92,58.14-30.58,88.79a289.91,289.91,0,0,0-7,61.08c0,7.72,12,7.73,12,0,.09-58.93,20.76-117.7,48.55-169.11,2.2-4.07,4.44-8.14,6.87-12.09,4.06-6.59-6.32-12.63-10.37-6Z"/><path class="cls-3" d="M449.25,1272.52c-14.67-67.28-91.48-35.32-111.9-26-1.21.26-2.45.51-3.71.76,4.95-8.08,27.39-47.36-4.07-46.28-35.07,1.21-49.1,53.77-49.1,53.77l-13.5-1.24c-41.88-1.19-85.43-14-107.35-56.08-29.15-56,.07-259.54.07-259.54l-114-56.82S-57.64,1177.6,69.38,1301.88c59.92,58.63,169,83.93,262.36,61.78C387.4,1351.15,462.34,1332.55,449.25,1272.52Z"/><path class="cls-1" d="M455,1270.92c-5-22-19-40-41.75-44.67-19-3.87-39,.21-57,6.33-8.05,2.72-16,7.28-24.2,9l6.77,8.81c8-13.11,23.77-43.06,3.56-53-11.49-5.64-26.74-1.16-36.5,6-10,7.32-17.32,17.65-22.81,28.62a114.68,114.68,0,0,0-8.39,21.22l5.79-4.4c-13.62-1.25-27.4-1.48-40.88-3.92-17.92-3.25-35.59-9.52-50.15-20.71-12.14-9.32-22.81-23-27.64-36.77-3.7-10.54-5.57-21.73-6.8-32.8-3.22-29-2.7-58.36-1.39-87.43,1.27-28.18,3.62-56.31,6.62-84.36q1.72-16,3.74-32,.36-2.79.73-5.57c.08-.63.16-1.26.25-1.89-.28,2.09,0-.13.08-.6.15-1.08.29-2.16.45-3.24.36-2.52-.2-5.51-2.76-6.78l-100-49.85-14-7a6.11,6.11,0,0,0-8.81,3.59c-9.3,26.72-16.2,54.45-22.21,82.07C5.12,1019.24-2.59,1078.88.8,1137.94c3.42,59.74,19.12,122.49,62.39,166.24,27.15,27.46,62.46,46.16,99,57.93a325.76,325.76,0,0,0,123.46,14.62c20.17-1.5,39.82-5.37,59.47-10,16.31-3.81,32.59-8,48.31-13.88,26.93-10,58-26.88,62.65-58.26a66.78,66.78,0,0,0-1-23.7c-1.58-7.55-13.15-4.35-11.58,3.19,2.81,13.43.83,26.89-7.56,38-8.54,11.28-21.5,18.72-34.15,24.49-14.67,6.69-30.33,11.22-45.92,15.21-17.25,4.42-34.72,8.65-52.37,11.08a314.11,314.11,0,0,1-121.29-7.44c-36.37-9.47-72-25.57-100.55-50.42-44.88-39.09-63.11-97.83-68-155.5-4.88-57.52,1.57-115.79,13-172.19Q33,945.9,41.59,915c2.89-10.34,6.78-20.53,9.39-30.92.12-.45.31-.9.46-1.34l-8.81,3.58,100.05,49.86,14,7-2.76-6.77c-5.86,40.88-9.79,82.17-11.94,123.4-1.59,30.57-2.36,61.47.73,92,1.2,11.92,2.88,24,6.4,35.44a93,93,0,0,0,24.62,39.23c15.71,15.11,36.1,24.39,57.24,29,16.31,3.53,33,3.91,49.51,5.43,2.57.23,5.15-2,5.79-4.41,3.54-13.15,10.11-26.72,19.35-36.76,6.95-7.55,16.25-13.35,26.88-12.57,8.36.62,8.45,6.42,6.58,13.78-2.11,8.33-6.16,16.14-10.61,23.44-2.89,4.74,1.86,9.81,6.78,8.82,7.33-1.49,12.21-4.59,19-7.11a168.28,168.28,0,0,1,24.09-7.06c16-3.33,35.21-4.21,48.92,6.3,9.17,7,13.73,17.93,16.2,28.88C445.17,1281.64,456.74,1278.46,455,1270.92Z"/><path class="cls-1" d="M372.24,1319.06a286.51,286.51,0,0,0,32-8.72c16.74-5.54,34.94-12.32,47.8-24.85,5.55-5.4-2.94-13.88-8.48-8.49-11.86,11.55-29.28,17.52-44.72,22.49a286.83,286.83,0,0,1-29.82,8c-7.56,1.56-4.36,13.13,3.19,11.57Z"/><path class="cls-1" d="M362.66,1286.55a286.55,286.55,0,0,0,32-8.73c16.74-5.53,34.94-12.32,47.8-24.85,5.55-5.4-2.94-13.88-8.48-8.48C422.15,1256,404.73,1262,389.29,1267a286.87,286.87,0,0,1-29.82,8c-7.56,1.55-4.36,13.12,3.19,11.57Z"/><path class="cls-2" d="M702.5,655.47S870.33,716.84,905,881.12L791,937.94S686.23,779.23,702.5,655.47Z"/><path class="cls-3" d="M728.28,707.62A352,352,0,0,1,747,743.41a418,418,0,0,1,29.76,85.9,276,276,0,0,1,6.9,59.51c0,7.72,12,7.73,12,0-.1-60.82-21.27-121.4-49.84-174.5-2.31-4.3-4.66-8.6-7.22-12.75-4-6.57-14.43-.55-10.36,6Z"/><path class="cls-3" d="M501.44,1272.52c14.67-67.28,91.48-35.32,111.9-26,1.22.26,2.45.51,3.71.76-4.94-8.08-27.39-47.36,4.07-46.28,35.07,1.21,49.1,53.77,49.1,53.77l13.5-1.24c41.88-1.19,85.44-14,107.35-56.08,29.15-56-.07-259.54-.07-259.54l114-56.82s103.29,296.48-23.73,420.76c-59.91,58.63-169,83.93-262.36,61.78C563.29,1351.15,488.35,1332.55,501.44,1272.52Z"/><path class="cls-1" d="M507.23,1274.11c2.27-10,6.2-19.78,13.9-26.91,6.17-5.7,14.31-8.78,22.55-9.92,16.75-2.31,34.15,2.12,49.85,7.66,7.91,2.79,13.72,6.5,21.93,8.16,4.91,1,9.65-4.09,6.77-8.82a95.57,95.57,0,0,1-9.62-20c-1.18-3.65-2.34-7.69-1.88-11.57.31-2.65,1.23-4.1,4.19-5.08,9.53-3.13,20.57,2.75,27.3,9.11,7.12,6.73,12.27,15.29,16.4,24.12a96.63,96.63,0,0,1,5.82,15.55c.63,2.35,3.21,4.64,5.78,4.41,14.24-1.31,28.59-1.68,42.7-4.11,18.9-3.26,37.73-9.9,53.28-21.33,14.29-10.5,26.26-24.7,32.93-41.23,4.16-10.3,6.18-21.37,7.66-32.33,4.07-30,3.71-60.48,2.46-90.62-1.2-29.23-3.6-58.4-6.7-87.49-1.68-15.8-3.51-31.61-5.77-47.34L794,943.12l100.05-49.85,14-7-8.82-3.58c8.75,25.14,15.32,51.2,21.12,77.15,12.27,54.85,19.92,111.32,18,167.63-1.94,56.76-14.29,117.67-53,161.4-23.79,26.87-55.87,45.73-89.33,58a314.62,314.62,0,0,1-119.25,18.52c-35.87-1.32-72.18-9.45-106.27-20.57-24.91-8.13-57.77-21.47-63.78-50.3a50.09,50.09,0,0,1,.48-20.4c1.57-7.53-10-10.75-11.57-3.19-3.16,15.1-1.84,30.66,6.51,43.93,7.81,12.39,20,21.42,32.76,28.19,15,7.94,31.27,13.37,47.57,17.89,17,4.69,34.25,8.92,51.57,12,79.1,13.83,169.28-1.66,233.76-51.44a190.18,190.18,0,0,0,57.29-72.78c12.6-27.92,19.45-57.88,22.88-88.23,6.76-59.92.38-121.11-11.1-180.06C930.4,947,922.54,913.22,911.33,881c-.17-.49-.33-1-.51-1.48a6.11,6.11,0,0,0-8.81-3.59L802,925.79l-14,7c-2.59,1.29-3.12,4.24-2.76,6.78.13.86.24,1.72.36,2.58.06.41.11.82.17,1.23.24,1.72,0-.24,0,.38.21,1.54.41,3.08.61,4.61q1.68,13,3.14,26c3.05,27.24,5.49,54.57,7,81.95,1.63,29.59,2.44,59.43,0,89-1,11.77-2.44,23.57-5.51,35a79.56,79.56,0,0,1-19.6,34.56c-14.32,15.13-33.47,24-53.57,28.59-15.67,3.56-31.73,3.85-47.67,5.31l5.79,4.4c-4.57-17-13.75-35.14-27.2-46.68-9.78-8.4-23.22-13.8-36.21-10.7-12.09,2.87-15.2,14.3-13.2,25.25,1.89,10.35,7,20.35,12.47,29.27l6.78-8.81c-7.12-1.44-13.91-5.28-20.82-7.77a159.2,159.2,0,0,0-26.33-7.17c-19.45-3.41-40.83-2.73-56.77,10.33-10.39,8.5-16.17,21.15-19.07,34C494,1278.44,505.52,1281.66,507.23,1274.11Z"/><path class="cls-1" d="M581.64,1307.49a286.83,286.83,0,0,1-29.82-8c-15.44-5-32.86-10.94-44.72-22.49-5.53-5.39-14,3.09-8.48,8.49,12.86,12.53,31.07,19.32,47.8,24.85a288.67,288.67,0,0,0,32,8.72c7.54,1.55,10.76-10,3.19-11.57Z"/><path class="cls-1" d="M508.2,1253c12.86,12.53,31.06,19.32,47.8,24.85a286.55,286.55,0,0,0,32,8.73c7.54,1.55,10.76-10,3.19-11.57a286.87,286.87,0,0,1-29.82-8c-15.44-5-32.86-10.93-44.72-22.48-5.53-5.39-14,3.08-8.48,8.48Z"/><path class="cls-3" d="M471.1,708.35l57.71,56.24,8.4,8.18a6.11,6.11,0,0,0,8.49,0l102.41-99,14.54-14.06c5.57-5.37-2.93-13.85-8.48-8.48l-102.42,99-14.54,14.06h8.49L488,708.05l-8.4-8.19c-5.54-5.39-14,3.09-8.49,8.49Z"/><path class="cls-3" d="M471.1,699.86,413.39,756.1,405,764.29h8.48l-102.42-99-14.54-14.06c-5.55-5.37-14,3.11-8.48,8.48l102.42,99,14.54,14a6.09,6.09,0,0,0,8.48,0l57.71-56.24,8.4-8.18c5.54-5.4-2.95-13.88-8.49-8.49Z"/><circle class="cls-1" cx="475.35" cy="805.41" r="8.7"/><circle class="cls-1" cx="475.35" cy="913.98" r="8.7"/><path class="cls-3" d="M441.76,734.24V958.07c0,7.72,12,7.73,12,0V734.24c0-7.72-12-7.73-12,0Z"/><path class="cls-3" d="M640.21,381.7c0-93-73-168.74-162.63-168.74S314.94,288.66,314.94,381.7a173.57,173.57,0,0,0,10.9,60.73H283.7a213.77,213.77,0,0,1-8.76-60.73c0-115.1,90.9-208.74,202.64-208.74S680.21,266.6,680.21,381.7a214.12,214.12,0,0,1-8.75,60.73H629.31A173.34,173.34,0,0,0,640.21,381.7Z"/><path class="cls-1" d="M646.21,381.7c-.15-39-12.7-77.36-36.48-108.35-22.85-29.79-55.17-52-91.65-61.3a164.71,164.71,0,0,0-112.14,11.49c-33.49,16.23-61.11,44.1-77.82,77.29A181.42,181.42,0,0,0,320.06,444l5.78-7.59H283.7l5.78,4.4c-14.84-51-10.12-106.7,14.33-154,21.06-40.72,55.62-73.75,97.7-92.16,42.79-18.71,92.05-20.66,136.32-6,43.38,14.35,80.76,44.53,105,83.17A208.18,208.18,0,0,1,671.15,417.6a220.66,220.66,0,0,1-5.48,23.23l5.79-4.4H629.31L635.1,444a183.5,183.5,0,0,0,11.11-62.32c0-7.72-12-7.73-12,0a173.18,173.18,0,0,1-10.68,59.13c-1.37,3.72,2.15,7.6,5.78,7.6h42.15a6.11,6.11,0,0,0,5.78-4.41C692.93,390.13,687.68,331.36,662,281.4c-22.11-43-59-78.38-103.52-97.58-45.62-19.69-97.79-22.29-145-6.5-45.93,15.37-85.35,47-111.15,87.93C273.52,311,263.1,366.7,272.28,419.87A222,222,0,0,0,277.91,444a6.13,6.13,0,0,0,5.79,4.41h42.14c3.64,0,7.15-3.88,5.79-7.6a170.54,170.54,0,0,1,1.65-122.53,162,162,0,0,1,67.18-78.21,152,152,0,0,1,102-19.11,156.56,156.56,0,0,1,89.41,49.54c27.46,30.34,42.18,70.4,42.34,111.18C634.24,389.42,646.24,389.44,646.21,381.7Z"/><path class="cls-3" d="M651.09,335.4A91.28,91.28,0,0,0,626,340.8L597.22,495s15.64,26.17,48.66,26.11c50.42-.09,90.44-62.4,86.89-112.69S701.38,331.84,651.09,335.4Z"/><path class="cls-1" d="M651.09,329.4a98.44,98.44,0,0,0-25,5c-3,1-5.16,2.21-6,5.38-.78,2.95-1.13,6.09-1.69,9.08l-7.81,41.89-17.51,93.93c-.52,2.76-1.21,5.55-1.56,8.33-.58,4.65,2,7.33,4.82,10.74a64.6,64.6,0,0,0,56.37,22.92c49.29-5.44,82.37-58.44,86-104.34,1.72-21.78-2.93-46.84-16-64.75-12.69-17.34-31.91-26.1-53-28.07a116.42,116.42,0,0,0-18.58-.12c-7.67.5-7.72,12.5,0,12,20.31-1.33,41.93,1.84,56.73,17.06,14.52,14.92,19.54,37.89,19.15,58.12-.46,23.63-9.79,47.36-24.12,66-13.33,17.35-33.08,32-55.72,32.47A52.09,52.09,0,0,1,613,503.49a47.37,47.37,0,0,1-10.63-11.55l.6,4.62,25.17-135,3.57-19.15-4.19,4.19a91.34,91.34,0,0,1,23.53-5.19C658.73,340.78,658.8,328.77,651.09,329.4Z"/><path class="cls-1" d="M652.41,371.46l-18.16,97.4-2.62,14.06c-1.41,7.55,10.15,10.79,11.57,3.19l18.16-97.39L664,374.65c1.41-7.55-10.15-10.78-11.57-3.19Z"/><path class="cls-3" d="M304.07,335.4a91.36,91.36,0,0,1,25.12,5.4L357.93,495s-15.63,26.17-48.66,26.11c-50.41-.09-90.44-62.4-86.88-112.69S253.77,331.84,304.07,335.4Z"/><path class="cls-1" d="M304.07,341.4a91.27,91.27,0,0,1,23.52,5.19l-4.19-4.19,25.17,135,3.58,19.16.6-4.62a41.78,41.78,0,0,1-8.19,9.42,52.32,52.32,0,0,1-26.67,13.07C295,518.26,273.31,506,258.23,489.6a115.93,115.93,0,0,1-29.45-64c-2.34-20.75,1.37-44.83,14.09-61.91,14.33-19.26,38.54-23.74,61.2-22.25,7.71.5,7.67-11.5,0-12-21.82-1.43-44.43,2.42-61.45,17s-23.88,36.94-25.94,58.47c-4.46,46.66,24,101.54,69.3,118a65.82,65.82,0,0,0,65-11.26c4.32-3.63,9.27-8.32,12-13.38,1.46-2.77.7-5.36.17-8.21L347,403.6,338.3,357l-2.59-13.89c-.84-4.49-1.46-6.91-6.63-8.73a98.88,98.88,0,0,0-25-5C296.37,328.77,296.41,340.77,304.07,341.4Z"/><path class="cls-1" d="M291.17,374.65l18.16,97.4L312,486.11c1.41,7.59,13,4.37,11.57-3.19l-18.16-97.39-2.62-14.07c-1.42-7.58-13-4.37-11.58,3.19Z"/><rect class="cls-3" x="378.5" y="546.29" width="94.35" height="45.08" rx="22.54"/><path class="cls-1" d="M401,552.29h33.45c11.64,0,27.7-2.45,31.76,12.16a16.7,16.7,0,0,1-12.2,20.49c-4,.92-8.54.43-12.59.43-12.87,0-25.74,0-38.61,0-7.85,0-15-3.63-17.57-11.53-3.46-10.69,4.86-21.23,15.76-21.55,7.71-.24,7.74-12.24,0-12-12.71.38-24,8.52-27.51,21a28.89,28.89,0,0,0,12,31.51c6.46,4.3,13.64,4.6,21.06,4.6h25c6.11,0,12.25.12,18.36,0,11.08-.23,21.43-6.23,26.14-16.47a28.69,28.69,0,0,0-6.59-33.11c-6.48-5.85-14.26-7.5-22.69-7.5H401C393.32,540.29,393.31,552.29,401,552.29Z"/></g></g></svg>