<svg xmlns="http://www.w3.org/2000/svg" viewBox="0 0 965.35 1568.63"><defs><style>.cls-1{fill:#fff;}.cls-2{fill:#52483f;}.cls-3{fill:#ffedb8;}</style></defs><g id="Layer_2" data-name="Layer 2"><g id="圖層_3" data-name="圖層 3"><path class="cls-1" d="M535.84,1516.87l232.07-159.58L264.08,1264l205.29,298.54Zm-106-154.12,147.93,27.38-87.65,60.27Z"/><path class="cls-2" d="M538.86,1522.05l78.39-53.9,125-85.93,28.72-19.75c3.84-2.65,4-10-1.44-11l-50-9.26L599.29,1320l-145.93-27-125.72-23.27c-20.36-3.77-40.69-7.82-61.11-11.31l-.86-.16c-4.66-.86-10,4.12-6.77,8.82l20.34,29.58,49.16,71.49,59.21,86.1,51.21,74.48c8.34,12.12,16.45,24.43,25,36.38l.35.51c1.73,2.51,5.38,4.1,8.21,2.15l66.46-45.71c6.33-4.35.33-14.75-6.05-10.36l-66.47,45.71,8.21,2.15L454.2,1530l-49.15-71.48-59.21-86.11-51.22-74.47-16.91-24.6c-2.6-3.77-5-8.43-8.11-11.79a4.39,4.39,0,0,1-.34-.5l-6.78,8.81,50,9.26,120.18,22.24,145.93,27,125.72,23.27,41.44,7.67c6.38,1.18,13.18,3.25,19.67,3.64a8.15,8.15,0,0,1,.86.16l-1.43-11L686.49,1406l-125,85.93-28.72,19.75C526.48,1516,532.48,1526.44,538.86,1522.05Z"/><path class="cls-2" d="M428.26,1368.53l129.41,24,18.52,3.42-1.43-11-76.63,52.69-11,7.58,8.21,2.16-52.69-76.63-7.59-11c-4.35-6.32-14.75-.33-10.36,6.06l52.69,76.62,7.59,11c1.73,2.52,5.38,4.1,8.21,2.16l76.62-52.7,11-7.58c3.85-2.64,4.06-10-1.43-11L450,1360.39,431.45,1357C423.9,1355.57,420.66,1367.13,428.26,1368.53Z"/><line class="cls-1" x1="513.03" y1="1483.7" x2="535.84" y2="1516.87"/><path class="cls-2" d="M507.85,1486.73l22.8,33.17c4.35,6.32,14.76.33,10.37-6.06l-22.81-33.16c-4.35-6.33-14.75-.33-10.36,6Z"/><line class="cls-1" x1="546.31" y1="1460.82" x2="569.11" y2="1493.99"/><path class="cls-2" d="M541.13,1463.85l22.8,33.17c4.35,6.32,14.76.32,10.37-6.06l-22.81-33.17c-4.35-6.32-14.75-.33-10.36,6.06Z"/><line class="cls-1" x1="579.59" y1="1437.94" x2="602.39" y2="1471.1"/><path class="cls-2" d="M574.41,1441l22.8,33.17c4.35,6.32,14.76.33,10.36-6.06l-22.8-33.16c-4.35-6.33-14.76-.33-10.36,6Z"/><line class="cls-1" x1="612.87" y1="1415.05" x2="635.67" y2="1448.22"/><path class="cls-2" d="M607.68,1418.08l22.81,33.17c4.35,6.32,14.75.32,10.36-6.06L618.05,1412c-4.35-6.32-14.76-.33-10.37,6.06Z"/><line class="cls-1" x1="646.14" y1="1392.17" x2="668.95" y2="1425.33"/><path class="cls-2" d="M641,1395.2l22.81,33.16c4.35,6.32,14.75.33,10.36-6l-22.8-33.17c-4.35-6.32-14.76-.33-10.37,6.06Z"/><path class="cls-3" d="M700.84,535.76c-52.56-25.88-118-41.24-188.9-41.24S375.59,509.88,323,535.76C247.16,573.13,198.1,632.45,198.1,699.25v407.42c0,77.81,72.08,141.47,160.18,141.47H665.59c88.1,0,160.18-63.66,160.18-141.47V699.25C825.77,632.45,776.72,573.13,700.84,535.76Z"/><polygon class="cls-1" points="438.07 344.69 438.07 514.17 511.94 585.57 585.8 514.17 585.8 344.69 438.07 344.69"/><path class="cls-2" d="M432.07,344.69V462.06c0,16.92-.47,33.91,0,50.83.13,4.77,3.32,7,6.52,10.12l22.62,21.87,46.48,44.93a6.11,6.11,0,0,0,8.49,0l39.43-38.12,25.33-24.48c3.49-3.37,10.34-7.88,10.86-13.11.43-4.26,0-8.78,0-13.05V344.69a6.08,6.08,0,0,0-6-6H438.07c-7.72,0-7.73,12,0,12H585.8l-6-6V514.17l1.76-4.25L516.8,572.53l-9.11,8.8h8.49l-64.76-62.61-9.11-8.8,1.76,4.25V344.69C444.07,337,432.07,337,432.07,344.69Z"/><path class="cls-3" d="M349.31,524.13s5.9,504.54,35.29,724H220.82S-28.49,630.42,349.31,524.13Z"/><path class="cls-1" d="M349,1237.39s147.64,5.31,150.91,96.38-134.33,8.87-172.5,18.36-60.91-51.27-35.54-78.78S304.58,1231.45,349,1237.39Z"/><path class="cls-2" d="M349,1243.39a254.67,254.67,0,0,1,73.92,14.27c18.42,6.4,36.67,15.53,50.52,29.53a70.18,70.18,0,0,1,20.38,54.38c-.49,7.77-2.74,15.84-7.91,21.09-4.61,4.68-11.27,7.06-18,8-19.12,2.58-39.28-2.9-57.6-7.76-19.43-5.16-38.61-11.74-58.39-15.52-7.22-1.38-14.74-2.57-22.09-1.68-4.59.56-8.88,1.93-13.58,1.29a26.3,26.3,0,0,1-12.51-5.51c-16.54-13-22-41.38-11-59.32,3.34-5.44,8.24-9.9,12-15.08,3.09-4.25,5.75-8.77,8.42-13.3,4.09-6.91,6.79-10.74,15.12-11.52,6.87-.64,13.94.29,20.74,1.17,3.24.43,6-3.06,6-6,0-3.59-2.8-5.58-6-6-11.35-1.48-25.67-3.55-35.73,3.5-8,5.58-11.71,15.59-17,23.4-3.87,5.69-8.88,10.42-12.79,16.06a46.58,46.58,0,0,0-7.07,17,64.62,64.62,0,0,0,4.23,38.32c4.65,10.84,12.57,21,23.48,26a36,36,0,0,0,17.6,3.41,60.21,60.21,0,0,0,8.24-1.34,19.11,19.11,0,0,1,3.67-.34c8.24-.23,15.62,1.48,23.79,3.43,10.47,2.48,20.79,5.52,31.13,8.47,21.55,6.15,43.67,12.77,66.2,13.77,17.74.78,37.61-3.56,46.1-21,9.7-19.88,5.47-46.41-5-65.11-10.6-18.92-28.7-32.54-47.91-41.88-18.72-9.1-38.89-15-59.3-18.79-12.36-2.33-25.11-4.36-37.71-4.8-.63,0-1.27-.07-1.9-.1C341.24,1231.11,341.25,1243.11,349,1243.39Z"/><path class="cls-2" d="M428.92,1298.85a288.17,288.17,0,0,1,26.32,16c13.47,9.13,28.44,19.79,36.61,34.24,3.8,6.73,14.17.68,10.36-6-8.82-15.61-24.43-27.19-38.9-37.18a288.36,288.36,0,0,0-28.34-17.4c-6.82-3.62-12.89,6.74-6.05,10.36Z"/><path class="cls-2" d="M402.38,1327.88a288.17,288.17,0,0,1,26.32,16c13.47,9.13,28.44,19.79,36.61,34.25,3.79,6.72,14.16.68,10.36-6.06-8.82-15.6-24.43-27.19-38.91-37.18a287,287,0,0,0-28.33-17.4c-6.82-3.62-12.89,6.74-6.05,10.36Z"/><path class="cls-3" d="M287.93,553.8c-195.73,19.67-559.46,662.41,48,829.93l45.58-162.52S231.68,1150,273.67,990.79C316.53,828.33,441.74,538.34,287.93,553.8Z"/><path class="cls-2" d="M267.89,989.19c-13.35,51.2-8.91,105,18.27,150.94,18.06,30.56,44.21,56.13,73.83,75.49a160.88,160.88,0,0,0,18.49,10.78l-2.75-6.78-38.87,138.56-6.71,24c-2.09,7.44,9.48,10.62,11.57,3.19L378.56,1254l8.74-31.14c.66-2.37-.4-5.65-2.76-6.78-17-8.1-32.53-19.79-46.34-32.07-30.21-26.89-53.32-61.54-62-101.37-6.54-29.87-4.37-60.78,3.3-90.21,2-7.48-9.62-10.67-11.57-3.19Z"/><path class="cls-1" d="M648.38,292a54.84,54.84,0,0,0-15.3,1.95l-25,90.73c9.79,10.22,21.48,18.64,36.74,18.86,30.26.43,57.26-32.72,57.7-63S678.63,292.38,648.38,292Z"/><path class="cls-2" d="M648.38,286a67.88,67.88,0,0,0-16.9,2.17,6,6,0,0,0-4.19,4.19l-24.1,87.34a33.15,33.15,0,0,0-.93,3.38c-1.12,6.85,9.15,13.26,14,16.75,12.72,9.07,28.77,12.15,43.77,7.42,27.48-8.67,48-38.15,48.41-66.68.22-15.07-5.74-29.86-17.3-39.71-11.93-10.17-27.34-14.5-42.8-14.86-7.73-.18-7.73,11.82,0,12,23.61.55,47.15,13.93,48.07,39.81.88,24.88-17.52,52.35-42.12,58.6-16.63,4.22-30.82-4.41-42.05-16l1.55,5.84,21.88-79.32,3.15-11.41-4.19,4.19A54.19,54.19,0,0,1,648.38,298C656.1,297.93,656.11,285.93,648.38,286Z"/><path class="cls-1" d="M672.22,329s-15.42-2-24.81,9.79-2.95,32.23,8.24,30.43,15.86-10.77,13-18.73-12.75-7.45-24.28-1.28"/><path class="cls-2" d="M672.22,323c-20.3-2.42-38.6,15-34.72,35.44,2,10.35,10.16,18.9,21.23,16.28s19.17-13.21,16-24.73c-4.39-16-22.54-11.59-33.44-6-6.87,3.55-.8,13.9,6.05,10.36,4.27-2.2,19.77-8.06,15.69,3.19a9.71,9.71,0,0,1-8.33,5.74c-2.58-.07-3.91-2.56-4.76-4.75C644.41,344.17,659,333.4,672.22,335c7.65.91,7.59-11.1,0-12Z"/><path class="cls-1" d="M384.61,292a54.84,54.84,0,0,1,15.3,1.95l25,90.73c-9.79,10.22-21.47,18.64-36.74,18.86-30.25.43-57.26-32.72-57.69-63S354.35,292.38,384.61,292Z"/><path class="cls-2" d="M384.61,298a54.12,54.12,0,0,1,13.7,1.74l-4.19-4.19L416,374.81l3.15,11.42,1.54-5.84c-9.94,10.24-22.19,18.58-37.14,16.9-12.79-1.44-23.95-9.49-32.07-19.09-15.29-18.09-22.38-48.1-3.81-66.51,9.72-9.64,23.56-13.43,36.93-13.74,7.71-.18,7.74-12.18,0-12-26.82.62-54.29,15.15-59.19,43.63s12.14,59.87,37.44,73.37c13.51,7.2,29.21,8.69,43.43,2.64A66.93,66.93,0,0,0,426,392.09c3.15-3,5.56-5.54,4.5-10-3.53-14.92-8.18-29.65-12.26-44.43l-12.52-45.36a6,6,0,0,0-4.19-4.19A67.8,67.8,0,0,0,384.61,286C376.89,285.93,376.87,297.93,384.61,298Z"/><path class="cls-1" d="M360.76,329s15.42-2,24.82,9.79,2.95,32.23-8.24,30.43-15.87-10.77-12.95-18.73,12.74-7.45,24.28-1.28"/><path class="cls-2" d="M360.76,335c13.27-1.58,27.75,9.18,22.29,23.57-.74,1.93-2,4.49-4.3,4.75-3.36.39-7.68-2.64-8.8-5.74-4.08-11.27,11.48-5.36,15.69-3.19,6.85,3.54,12.93-6.81,6.06-10.36-9.54-4.92-25-9.92-31.79,1.94-5.77,10.05-.45,22.39,9.57,27.05,10.87,5.05,20.95.35,24.95-10.74a28.77,28.77,0,0,0-7.59-30.87A34.67,34.67,0,0,0,360.76,323c-7.57.9-7.66,12.91,0,12Z"/><path class="cls-1" d="M509.31,135.76c-125.31.66-146.84,88.88-132.88,188.45,7.88,56.22,24.37,130,81.38,154.41,83.61,35.8,156.4-11.57,183.65-98.41S689.06,134.8,509.31,135.76Z"/><path class="cls-2" d="M509.31,129.76c-37.41.3-77,8.3-104.77,35.16-23.34,22.58-33.53,54.39-36.67,86-3.69,37.07,1.39,75.23,9.06,111.5,8.22,38.88,22.54,81.33,54.59,107.16C462.63,494.65,509,503,547.21,491.85c38.53-11.2,68.3-41.17,86.27-76.25,14-27.39,22-58.44,27.08-88.69,4.73-27.9,6.52-56.45,2.24-84.54-4.08-26.75-14.69-52.8-33.77-72.39-23.13-23.75-55.4-34.66-87.67-38.51a264,264,0,0,0-32.05-1.71c-7.72,0-7.74,12,0,12,33.66-.1,69.11,5,97.28,24.76,20.8,14.58,34.28,36.71,40.86,61,13.19,48.66,3.32,102.47-11.33,149.67-11.3,36.4-32.42,71.46-65.74,91.52S497.51,488.52,462.17,474c-36.58-15-55.92-51.39-66.77-87.47a396.79,396.79,0,0,1-16.66-108.27c-.34-30.47,3.92-62.61,20.89-88.64,17.72-27.18,47.58-40.86,78.84-45.65a213.46,213.46,0,0,1,30.84-2.2C517,141.69,517.05,129.69,509.31,129.76Z"/><path class="cls-1" d="M482.91,389.26s-.84,31.4,28.79,31.4c31.75,0,29.69-31.4,29.69-31.4"/><path class="cls-2" d="M476.91,389.26c-.28,12.83,5.79,27.05,17.39,33.32,18.54,10,43.31,2.15,50.64-17.78a39.54,39.54,0,0,0,2.45-15.54c-.47-7.67-12.47-7.72-12,0a25.52,25.52,0,0,1-2,12.35c-3.34,8.57-11.22,12.76-20.27,13-9.46.29-17.69-3.42-21.58-12.36a27.77,27.77,0,0,1-2.61-13c.16-7.72-11.84-7.72-12,0Z"/><circle class="cls-2" cx="455.72" cy="310.34" r="8.7"/><circle class="cls-2" cx="570.85" cy="310.34" r="8.7"/><line class="cls-1" x1="512.16" y1="327.84" x2="512.16" y2="366.62"/><path class="cls-2" d="M506.16,327.84v38.78c0,7.72,12,7.73,12,0V327.84c0-7.72-12-7.73-12,0Z"/><path class="cls-2" d="M393,75.05S303.66,45.66,265.25,138c-38.66,92.91,25.73,141,81.63,152,89.34,17.5,209.17-67.6,205-104.54,0,0,19,116.24,128,108.28h0s89-181.3-59.37-250.38C461.35-30.8,393,75.05,393,75.05Z"/><path class="cls-2" d="M575.16,7.5,583,44.21c1,4.78,6.82,5.33,10,2.65l30.25-25.22c5.93-4.95-2.59-13.4-8.49-8.49L584.56,38.37l10,2.65L586.73,4.31C585.12-3.24,573.55,0,575.16,7.5Z"/><path class="cls-1" d="M480.72,1160.08s-147.64,5.31-150.91,96.38,134.33,8.87,172.5,18.36,60.91-51.27,35.54-78.78S525.1,1154.14,480.72,1160.08Z"/><path class="cls-2" d="M480.72,1154.08a262.68,262.68,0,0,0-84,17.22c-20,7.77-39.81,18.68-53.78,35.38A81.29,81.29,0,0,0,324.64,1271c7.5,48.74,67.63,34.31,100.35,25.49,20.21-5.45,40.35-12.71,61.12-15.77a63.84,63.84,0,0,1,10.27-.65c.82,0,1.64.08,2.46.17,1,.1-.69-.19.93.16a56.28,56.28,0,0,0,8.75,1.37c12,.66,23.43-5.29,31.16-14.27,16-18.57,21-50.09,6.27-70.87-4-5.6-8.94-10.36-12.78-16.08-2.86-4.26-5.28-8.77-8-13.1-5.36-8.51-12.21-13.28-22.31-14.39-7.35-.81-14.84.08-22.13,1-3.24.42-6,2.46-6,6,0,2.92,2.79,6.42,6,6,6.93-.9,14.21-1.89,21.21-1.12,3.55.38,6.82,1.55,8.7,3.23,5.91,5.28,9.65,15.12,14.7,22,3.68,5,8.42,9.34,11.67,14.62a38.35,38.35,0,0,1,5.23,15.2A53.06,53.06,0,0,1,536,1251.9c-4.75,8.57-12.44,16.34-22.56,17.74-4.77.66-9.15-.78-13.83-1.32a47.88,47.88,0,0,0-9.65,0c-18.83,1.62-37.21,7.92-55.29,13-19.55,5.56-39.69,11.6-60.12,12.42-7.73.31-16.21-.19-22.76-3A23.68,23.68,0,0,1,338.52,1277c-7.11-18.12-1.51-41.1,9-56.68,10.92-16.14,28.24-27,45.75-34.75,27.25-12.07,57.07-17.4,85.81-19.45.53,0,1.07-.06,1.6-.08C488.42,1165.8,488.46,1153.8,480.72,1154.08Z"/><path class="cls-2" d="M394.71,1211.18a286.46,286.46,0,0,0-28.34,17.4c-14.47,10-30.08,21.57-38.9,37.17-3.8,6.74,6.56,12.79,10.36,6.06,8.17-14.45,23.13-25.11,36.6-34.24a286.11,286.11,0,0,1,26.33-16c6.83-3.62.77-14-6.05-10.36Z"/><path class="cls-2" d="M421.25,1240.21a288.36,288.36,0,0,0-28.34,17.4c-14.47,10-30.08,21.57-38.9,37.18-3.8,6.73,6.56,12.79,10.36,6.06,8.17-14.46,23.14-25.11,36.61-34.25a288.17,288.17,0,0,1,26.32-16c6.83-3.62.77-14-6.05-10.36Z"/><path class="cls-3" d="M763,575.23S937.1,679.2,961.34,847c25.14,174.06-60.34,454.4-476.61,437.38l-22-135.82s192.75-55.47,212.61-168.35C689.27,901.13,656.59,634.76,763,575.23Z"/><path class="cls-2" d="M490.51,1283.55,471.3,1164.88l-2.78-17.14-4.19,7.38c25.26-7.29,49.95-17.56,73.65-28.81,43.58-20.7,87.17-47.65,116.82-86.49,13.79-18.06,23.73-38.95,27-61.54,2.84-19.53,3.24-39.39,3.67-59.08,1.2-54.82.94-109.71,6.49-164.33,2.8-27.6,7-55.2,14.52-82,6.43-23,15.33-45.94,29.78-65.2a113.75,113.75,0,0,1,10.05-11.55c5.45-5.49-3-14-8.48-8.48-35.23,35.52-47.3,89.45-54.2,137.26-8,55.72-8.86,112.11-9.71,168.3-.33,22.09-.48,44.24-2.12,66.28-1.46,19.63-5.41,38.4-15.48,56.31-23.6,41.95-66.83,70.61-108.58,92.25-27.37,14.2-55.9,25.5-85.18,35l-1.44.43c-3.36,1-4.71,4.13-4.19,7.38l19.22,118.67,2.77,17.14c1.23,7.61,12.8,4.38,11.57-3.19Z"/><g id="Page-1"><g id="Artboard"><path id="Fill-182" class="cls-1" d="M474.1,856a29.68,29.68,0,0,1-.49-10.23,26.88,26.88,0,0,1,9.84-17.07,36.6,36.6,0,0,1,19.68-8.32,32.58,32.58,0,0,1,20.23,4.78,23.15,23.15,0,0,1,6.86,6.67c.33.51.62,1,.9,1.57-3.5,1.48-7,2.95-10.52,4.4q-9.44,3.9-18.91,7.66Q487.93,850.86,474.1,856m130.72-35.48-.24-2.06-.26-1.85c-.21-1.45-.44-2.71-.71-4.07a76.71,76.71,0,0,0-2.06-8,66.41,66.41,0,0,0-17.5-28.22,63.37,63.37,0,0,0-29.5-15.69,69.54,69.54,0,0,0-32.54.49,80.83,80.83,0,0,0-23.83,10.43A81.39,81.39,0,0,0,476,761.63,70.48,70.48,0,0,0,445.1,760a63.92,63.92,0,0,0-29,13A65.21,65.21,0,0,0,397,798.45a74.11,74.11,0,0,0-4.53,15A92.26,92.26,0,0,0,391,828.67,82.13,82.13,0,0,0,396.26,859a91.44,91.44,0,0,0,15.39,25.93c1.54,1.89,3.13,3.7,4.66,5.42l2.22,2.49c.67.75,1.3,1.47,1.7,2,.14.54.31,1.24.46,1.94.43,1.94.83,4.08,1.22,6.24h0c.39,2.3.8,4.87,1.25,7.64,7.61,47.06,15.82,86,39.48,86,19.4,0,24.21-19.46,27.72-33.66,1.89-7.67,4.49-18.18,7.88-18.18s6,10.51,7.88,18.17c3.51,14.21,8.31,33.67,27.72,33.67,12.75,0,22.91-12.38,31.06-37.86a222.2,222.2,0,0,0,9.56-50.24,190.92,190.92,0,0,1-21.63,7.38,208.13,208.13,0,0,1-6.66,32.74c-5.39,18.42-10.82,25.49-12.85,27-2.84-1.08-5.29-11-7-17.71-3.35-13.55-8.41-34-28.13-34s-24.79,20.48-28.13,34c-1.57,6.37-4.16,16.82-7.06,17.74-1.13-.9-5.57-5.5-10.62-24.3-3.88-14.42-6.65-31.59-8.67-44.12-.46-2.82-.88-5.44-1.28-7.79h0c-.35-2.25-.71-4.54-1.18-7-.24-1.25-.48-2.47-.93-4.11-.13-.42-.26-.87-.46-1.45-.11-.28-.23-.59-.4-1a14.57,14.57,0,0,0-.8-1.58l-.28-.46-.57-.87c-.28-.41-.54-.77-.79-1.09-1-1.26-1.78-2.2-2.56-3.11l-2.22-2.55c-1.41-1.64-2.75-3.22-4-4.82a75,75,0,0,1-11.78-20.14A60.3,60.3,0,0,1,412.65,829a70.27,70.27,0,0,1,1.14-11.52,52.34,52.34,0,0,1,3.07-10.67,43.64,43.64,0,0,1,12.58-17.28,42.85,42.85,0,0,1,19.39-9,58.38,58.38,0,0,1,22.44.39,92.3,92.3,0,0,1,22.56,8l5.25,2.61,3.57-2.61h0a96.05,96.05,0,0,1,23.74-8.12,57.06,57.06,0,0,1,23.44.18,42.26,42.26,0,0,1,19.71,10.6A45.18,45.18,0,0,1,581.31,811a54.22,54.22,0,0,1,1.45,5.71c.18,1,.36,2,.49,2.88l.22,1.65.15,1.45a63.05,63.05,0,0,1,.08,12.05A54.93,54.93,0,0,1,561,874.54a56.75,56.75,0,0,1-10.29,5.92A88,88,0,0,1,539,884.69a83,83,0,0,1-24.59,3.3c-8.07-.21-15.77-2-22-5.5a33.79,33.79,0,0,1-8.33-6.6c-.31-.33-.59-.7-.89-1q13.18-4.86,26.21-10Q519,861,528.57,857c6.39-2.64,12.71-5.3,19.12-8.08l6.88-3-.65-7.37v0a39.1,39.1,0,0,0-6-18.11,43.78,43.78,0,0,0-13-13.1A53.68,53.68,0,0,0,501.33,799c-1.46.12-2.92.29-4.37.53-.74.13-1.41.25-2.23.42l-1.06.24-1,.24a59,59,0,0,0-23,11.61,51.3,51.3,0,0,0-11.6,13.49,46.17,46.17,0,0,0-6,17.27,51.79,51.79,0,0,0,.77,17.75,69.05,69.05,0,0,0,5.52,15.69A59.44,59.44,0,0,0,468,890.59a55.24,55.24,0,0,0,13.68,10.87c10.18,5.74,21.44,8,32.12,8.33a104.52,104.52,0,0,0,31.17-4.1,102.39,102.39,0,0,0,14.77-5.4,78.71,78.71,0,0,0,14.08-8.21A76.42,76.42,0,0,0,605,836.59a84.22,84.22,0,0,0-.17-16.12"/></g></g></g></g></svg>