<svg xmlns="http://www.w3.org/2000/svg" viewBox="0 0 950.76 1381"><defs><style>.cls-1{fill:#febbb5;}.cls-2{fill:#fff;}.cls-3{fill:#52483f;}</style></defs><g id="Layer_2" data-name="Layer 2"><g id="圖層_1" data-name="圖層 1"><path class="cls-1" d="M286.44,636.78c52.56-25.88,118-41.23,188.9-41.23h0c70.92,0,136.34,15.35,188.9,41.23,75.88,37.37,135.34,86.92,124.07,349.36-8.45,196.64-45.14,341-45.14,341H207.51s-36.69-144.39-45.14-341C151.1,723.7,210.56,674.15,286.44,636.78Z"/><polygon class="cls-2" points="549.21 445.71 549.21 615.19 475.35 686.59 401.48 615.19 401.48 445.71 549.21 445.71"/><path class="cls-3" d="M543.21,445.71V615.19L545,611l-64.76,62.6-9.11,8.8h8.49l-64.76-62.61L405.72,611l1.76,4.24V445.71l-6,6H549.21c7.72,0,7.73-12,0-12H401.48a6.09,6.09,0,0,0-6,6V563.08c0,16.92-.47,33.92,0,50.83.13,4.78,3.32,7,6.52,10.13l22.62,21.86,46.48,44.93a6.11,6.11,0,0,0,8.49,0L519,652.72l25.33-24.49c3.49-3.37,10.34-7.88,10.86-13.11.42-4.26,0-8.78,0-13V445.71C555.21,438,543.21,438,543.21,445.71Z"/><path class="cls-2" d="M588.06,639.21l-102.42,99L471.1,752.27h8.49l-102.42-99-14.54-14.06c-5.55-5.37-14.05,3.11-8.48,8.49l102.41,99,14.54,14.06a6.12,6.12,0,0,0,8.49,0l102.41-99,14.54-14c5.57-5.38-2.92-13.86-8.48-8.49Z"/><path class="cls-2" d="M337.46,382.13a54.84,54.84,0,0,1,15.3,2l25,90.73C368,485,356.32,493.45,341.06,493.67c-30.26.43-57.27-32.71-57.7-63S307.2,382.56,337.46,382.13Z"/><path class="cls-3" d="M337.46,388.13a54.57,54.57,0,0,1,13.7,1.74L347,385.68,368.86,465,372,476.41l1.54-5.83c-9.94,10.23-22.18,18.57-37.14,16.89-12.79-1.44-24-9.49-32.07-19.09-15.29-18.09-22.38-48.09-3.81-66.51,9.73-9.64,23.56-13.43,36.93-13.74,7.71-.18,7.74-12.18,0-12-26.82.62-54.28,15.16-59.19,43.64s12.14,59.86,37.44,73.36c13.51,7.21,29.21,8.7,43.44,2.64a66.55,66.55,0,0,0,19.68-13.5c3.14-3,5.55-5.53,4.49-10-3.53-14.91-8.18-29.65-12.26-44.42l-12.51-45.37a6,6,0,0,0-4.2-4.19,67.74,67.74,0,0,0-16.89-2.17C329.74,376.12,329.73,388.12,337.46,388.13Z"/><path class="cls-2" d="M313.62,419.16s15.41-2,24.81,9.79,2.95,32.24-8.24,30.43-15.87-10.77-12.95-18.72,12.74-7.46,24.28-1.28"/><path class="cls-3" d="M313.62,425.16c13.26-1.58,27.74,9.18,22.28,23.57-.74,1.93-2,4.49-4.3,4.75-3.36.39-7.67-2.63-8.8-5.73-4.08-11.27,11.48-5.37,15.69-3.19,6.85,3.53,12.93-6.82,6.06-10.36-9.53-4.93-25-9.92-31.79,1.93-5.77,10.06-.45,22.39,9.57,27.05,10.88,5.06,20.95.36,25-10.73a28.8,28.8,0,0,0-7.6-30.88,34.66,34.66,0,0,0-26.07-8.41c-7.58.9-7.67,12.92,0,12Z"/><path class="cls-2" d="M601.23,382.13a54.84,54.84,0,0,0-15.3,2l-25,90.73c9.79,10.21,21.48,18.63,36.74,18.85,30.26.43,57.27-32.71,57.7-63S631.49,382.56,601.23,382.13Z"/><path class="cls-3" d="M601.23,376.13a67.88,67.88,0,0,0-16.9,2.17,6,6,0,0,0-4.19,4.19L556,469.83a32.63,32.63,0,0,0-.93,3.39c-1.12,6.85,9.15,13.26,14,16.75,12.71,9.07,28.77,12.15,43.77,7.41,27.47-8.67,48-38.15,48.4-66.68.22-15.07-5.74-29.85-17.3-39.71-11.93-10.16-27.34-14.5-42.8-14.86-7.73-.18-7.72,11.82,0,12,23.61.55,47.15,13.93,48.07,39.81.89,24.88-17.51,52.36-42.11,58.6-16.64,4.22-30.83-4.41-42.06-16l1.55,5.83,21.89-79.31,3.15-11.42-4.2,4.19a54.71,54.71,0,0,1,13.71-1.74C609,388.12,609,376.12,601.23,376.13Z"/><path class="cls-2" d="M625.07,419.16s-15.41-2-24.81,9.79-3,32.24,8.24,30.43,15.86-10.77,13-18.72-12.74-7.46-24.28-1.28"/><path class="cls-3" d="M625.07,413.16c-20.29-2.41-38.59,15-34.71,35.45,2,10.34,10.16,18.89,21.22,16.27s19.17-13.21,16-24.73c-4.4-16-22.55-11.58-33.45-5.95-6.86,3.54-.8,13.9,6.06,10.36,4.26-2.2,19.76-8.07,15.68,3.19-1.09,3-5.07,5.82-8.33,5.73-2.58-.06-3.91-2.55-4.76-4.75-5.53-14.37,9.06-25.14,22.28-23.57,7.66.91,7.59-11.09,0-12Z"/><path class="cls-2" d="M476.53,225.94c125.31.67,146.83,88.88,132.88,188.45C601.53,470.61,585,544.39,528,568.8c-83.61,35.8-156.41-11.57-183.65-98.41S296.78,225,476.53,225.94Z"/><path class="cls-3" d="M476.53,231.94c34.51.28,71.52,7.21,97,32.34,21.33,21.05,30.3,50.94,32.76,80.14,2.94,35-1.71,70.75-8.95,105-7.75,36.67-20.63,76.34-50.51,101.07-15.21,12.58-35.07,19.45-54.32,22.74a113.62,113.62,0,0,1-53-3.45c-36.45-11.44-63.24-41.41-79.27-75.11-12.11-25.48-19-54.31-23.59-82.06-4.16-25.19-5.87-51.5-2-76.84,3.77-24.75,13-48.93,30.68-67.1,21.29-21.85,51.39-31.94,81.13-35.22a265.59,265.59,0,0,1,30.11-1.49c7.72,0,7.73-12,0-12-35.88-.1-74.23,5.6-104.1,26.94-22.75,16.25-37.95,40-45.38,66.77s-7.74,55.23-4.69,82.68A385.16,385.16,0,0,0,340,476.27c13,38.67,37.18,75.39,73.65,95.39,36.22,19.87,78.57,18.78,116,2.91,38.62-16.36,59.89-54.34,71.73-92.74,6-19.5,9.91-39.59,12.91-59.75,2.75-18.55,4.73-37.21,4.79-56,.1-32.34-5.11-66.7-23.63-94-19.67-29-51.58-44.52-85.58-49.63a237.39,237.39,0,0,0-33.37-2.53C468.8,219.88,468.8,231.88,476.53,231.94Z"/><path class="cls-2" d="M502.93,479.45s.84,31.4-28.79,31.4c-31.75,0-29.69-31.4-29.69-31.4"/><path class="cls-3" d="M496.93,479.45a27.92,27.92,0,0,1-2.61,13c-3.89,8.93-12.12,12.65-21.58,12.36-9-.28-16.93-4.46-20.27-13a25.42,25.42,0,0,1-2-12.35c.47-7.72-11.54-7.69-12,0-.76,12.47,5.11,26.09,16,32.56,9.42,5.6,22.69,6.47,32.89,2.62,8.86-3.34,15.11-10.26,18.53-19a42.85,42.85,0,0,0,3-16.21c-.17-7.71-12.17-7.74-12,0Z"/><circle class="cls-3" cx="530.12" cy="400.52" r="8.7"/><circle class="cls-3" cx="414.99" cy="400.52" r="8.7"/><line class="cls-2" x1="473.68" y1="418.03" x2="473.68" y2="456.8"/><path class="cls-3" d="M467.68,418V456.8c0,7.72,12,7.74,12,0V418c0-7.72-12-7.74-12,0Z"/><path class="cls-3" d="M625.07,381.13s-180.65,1-210.08-88.71c0,0-18.55,79.07-93.82,86.71,0,0-76.35-244.8,152.51-244.8S625.07,381.13,625.07,381.13Z"/><path class="cls-3" d="M467.58,262s76.64-14.14,92.8-127.69c12.38-87-49.64-138.88-122.06-134S324.39,45.7,327,115.39C329.14,172.56,352.07,257.91,467.58,262Z"/><path class="cls-2" d="M504.53,130c-30.54-6.35-64.9-6.27-94.83,2.62-12.53,3.72-24.56,9.3-34.93,17.31-2.59,2-3.9,5.13-2.15,8.21,1.44,2.54,5.64,4.12,8.21,2.15,21.92-16.92,50.2-22,77.3-22.33,14.7-.15,29.34.73,43.21,3.61,7.53,1.57,10.76-10,3.19-11.57Z"/><path class="cls-1" d="M248.19,658.76S80.37,720.12,45.65,884.41l114,56.82S264.46,782.52,248.19,658.76Z"/><path class="cls-2" d="M212.05,704.85a358.36,358.36,0,0,0-19.5,37.38C179.39,770.66,168.63,800.38,162,831a290.06,290.06,0,0,0-7,61.08c0,7.73,12,7.74,12,0,.09-58.93,20.76-117.7,48.55-169.11,2.2-4.07,4.44-8.14,6.87-12.08,4.06-6.6-6.32-12.63-10.37-6.06Z"/><path class="cls-2" d="M449.25,1275.8c-14.67-67.27-91.48-35.31-111.9-26l-3.71.76c4.95-8.09,27.39-47.36-4.07-46.28-35.07,1.21-49.1,53.76-49.1,53.76l-13.5-1.23c-41.88-1.19-85.43-14-107.35-56.09-29.15-56,.07-259.53.07-259.53l-114-56.82s-103.29,296.47,23.73,420.75c59.92,58.63,169,83.93,262.36,61.78C387.4,1354.44,462.34,1335.84,449.25,1275.8Z"/><path class="cls-3" d="M455,1274.21c-5-22-19-40-41.75-44.67-19-3.88-39,.21-57,6.32-8.05,2.73-16,7.29-24.2,9l6.77,8.82c8-13.11,23.77-43.07,3.56-53-11.49-5.64-26.74-1.15-36.5,6-10,7.31-17.32,17.64-22.81,28.62a114.68,114.68,0,0,0-8.39,21.22l5.79-4.41c-13.62-1.25-27.4-1.48-40.88-3.92-17.92-3.25-35.59-9.51-50.15-20.7-12.14-9.33-22.81-23-27.64-36.77-3.7-10.54-5.57-21.74-6.8-32.8-3.22-29-2.7-58.37-1.39-87.43,1.27-28.18,3.62-56.32,6.62-84.36q1.72-16,3.74-32c.24-1.86.48-3.71.73-5.57.08-.63.16-1.26.25-1.89-.28,2.1,0-.12.08-.6.15-1.08.29-2.16.45-3.24.36-2.52-.2-5.5-2.76-6.77l-100-49.86-14-7a6.1,6.1,0,0,0-8.81,3.58c-9.3,26.72-16.2,54.46-22.21,82.07C5.12,1022.53-2.59,1082.17.8,1141.23c3.42,59.73,19.12,122.48,62.39,166.24,27.15,27.46,62.46,46.15,99,57.92A325.76,325.76,0,0,0,285.62,1380c20.17-1.51,39.82-5.38,59.47-10,16.31-3.81,32.59-8,48.31-13.87,26.93-10,58-26.88,62.65-58.26a66.77,66.77,0,0,0-1-23.7c-1.58-7.56-13.15-4.36-11.58,3.19,2.81,13.43.83,26.89-7.56,38-8.54,11.28-21.5,18.72-34.15,24.49-14.67,6.7-30.33,11.23-45.92,15.22-17.25,4.41-34.72,8.65-52.37,11.08a314.3,314.3,0,0,1-121.29-7.44c-36.37-9.47-72-25.58-100.55-50.42-44.88-39.09-63.11-97.84-68-155.51-4.88-57.52,1.57-115.79,13-172.19q6.36-31.43,15-62.33c2.89-10.34,6.78-20.53,9.39-30.93.12-.45.31-.9.46-1.34l-8.81,3.59,100.05,49.85,14,7-2.76-6.78c-5.86,40.88-9.79,82.17-11.94,123.41-1.59,30.56-2.36,61.47.73,92,1.2,11.91,2.88,24,6.4,35.43a93,93,0,0,0,24.62,39.23c15.71,15.12,36.1,24.4,57.24,29,16.31,3.53,33,3.92,49.51,5.43,2.57.24,5.15-2,5.79-4.4,3.54-13.16,10.11-26.73,19.35-36.77,6.95-7.55,16.25-13.35,26.88-12.56,8.36.61,8.45,6.42,6.58,13.77-2.11,8.33-6.16,16.15-10.61,23.45-2.89,4.74,1.86,9.81,6.78,8.81,7.33-1.48,12.21-4.59,19-7.1a167,167,0,0,1,24.09-7.06c16-3.33,35.21-4.21,48.92,6.3,9.17,7,13.73,17.92,16.2,28.88C445.17,1284.93,456.74,1281.74,455,1274.21Z"/><path class="cls-3" d="M372.24,1322.35a286.55,286.55,0,0,0,32-8.73c16.74-5.54,34.94-12.32,47.8-24.85,5.55-5.4-2.94-13.88-8.48-8.48-11.86,11.55-29.28,17.52-44.72,22.48a286.87,286.87,0,0,1-29.82,8c-7.56,1.55-4.36,13.12,3.19,11.57Z"/><path class="cls-3" d="M362.66,1289.83a284.37,284.37,0,0,0,32-8.72c16.74-5.54,34.94-12.32,47.8-24.85,5.55-5.4-2.94-13.88-8.48-8.49-11.86,11.55-29.28,17.52-44.72,22.49a286.83,286.83,0,0,1-29.82,8c-7.56,1.56-4.36,13.13,3.19,11.57Z"/><path class="cls-1" d="M702.5,658.76S870.33,720.12,905,884.41L791,941.23S686.23,782.52,702.5,658.76Z"/><path class="cls-2" d="M728.28,710.91A352.87,352.87,0,0,1,747,746.69,418.13,418.13,0,0,1,776.8,832.6a275.89,275.89,0,0,1,6.9,59.5c0,7.73,12,7.74,12,0-.1-60.81-21.27-121.39-49.84-174.5-2.31-4.3-4.66-8.59-7.22-12.75-4-6.56-14.43-.54-10.36,6.06Z"/><path class="cls-2" d="M501.44,1275.8c14.67-67.27,91.48-35.31,111.9-26l3.71.76c-4.94-8.09-27.39-47.36,4.07-46.28,35.07,1.21,49.1,53.76,49.1,53.76l13.5-1.23c41.88-1.19,85.44-14,107.35-56.09,29.15-56-.07-259.53-.07-259.53l114-56.82s103.29,296.47-23.73,420.75c-59.91,58.63-169,83.93-262.36,61.78C563.29,1354.44,488.35,1335.84,501.44,1275.8Z"/><path class="cls-3" d="M507.23,1277.4c2.27-10.06,6.2-19.79,13.9-26.91,6.17-5.71,14.31-8.78,22.55-9.92,16.75-2.31,34.15,2.12,49.85,7.65,7.91,2.79,13.72,6.5,21.93,8.16,4.91,1,9.65-4.08,6.77-8.81a95.65,95.65,0,0,1-9.62-20c-1.18-3.64-2.34-7.68-1.88-11.56.31-2.65,1.23-4.11,4.19-5.08,9.53-3.13,20.57,2.74,27.3,9.1,7.12,6.74,12.27,15.3,16.4,24.12a97.1,97.1,0,0,1,5.82,15.56c.63,2.35,3.21,4.64,5.78,4.4,14.24-1.3,28.59-1.67,42.7-4.11,18.9-3.26,37.73-9.89,53.28-21.33,14.29-10.5,26.26-24.69,32.93-41.23,4.16-10.3,6.18-21.36,7.66-32.32,4.07-30,3.71-60.48,2.46-90.62-1.2-29.23-3.6-58.41-6.7-87.5-1.68-15.8-3.51-31.6-5.77-47.34L794,946.41l100.05-49.85,14-7L899.25,886c8.75,25.14,15.32,51.2,21.12,77.15,12.27,54.86,19.92,111.33,18,167.63-1.94,56.76-14.29,117.68-53,161.41-23.79,26.87-55.87,45.73-89.33,58a314.63,314.63,0,0,1-119.25,18.53c-35.87-1.33-72.18-9.45-106.27-20.58-24.91-8.13-57.77-21.47-63.78-50.3a50,50,0,0,1,.48-20.39c1.57-7.54-10-10.76-11.57-3.19-3.16,15.09-1.84,30.66,6.51,43.92,7.81,12.39,20,21.43,32.76,28.19,15,7.94,31.27,13.38,47.57,17.89,17,4.69,34.25,8.93,51.57,12,79.1,13.84,169.28-1.66,233.76-51.43a190.21,190.21,0,0,0,57.29-72.79c12.6-27.92,19.45-57.87,22.88-88.22,6.76-59.92.38-121.11-11.1-180.06-6.5-33.42-14.36-67.16-25.57-99.36-.17-.5-.33-1-.51-1.49a6.1,6.1,0,0,0-8.81-3.58L802,929.08l-14,7c-2.59,1.29-3.12,4.23-2.76,6.77.13.86.24,1.73.36,2.59.06.41.11.82.17,1.22.24,1.73,0-.24,0,.39.21,1.54.41,3.07.61,4.61q1.68,13,3.14,26c3.05,27.25,5.49,54.58,7,81.95,1.63,29.59,2.44,59.43,0,89-1,11.77-2.44,23.58-5.51,35a79.59,79.59,0,0,1-19.6,34.57c-14.32,15.13-33.47,24-53.57,28.59-15.67,3.55-31.73,3.84-47.67,5.3l5.79,4.41c-4.57-17-13.75-35.14-27.2-46.69-9.78-8.39-23.22-13.79-36.21-10.7-12.09,2.88-15.2,14.31-13.2,25.26,1.89,10.35,7,20.34,12.47,29.27l6.78-8.82c-7.12-1.44-13.91-5.28-20.82-7.76a159.23,159.23,0,0,0-26.33-7.18c-19.45-3.41-40.83-2.73-56.77,10.33-10.39,8.51-16.17,21.16-19.07,34C494,1281.73,505.52,1284.94,507.23,1277.4Z"/><path class="cls-3" d="M581.64,1310.78a286.87,286.87,0,0,1-29.82-8c-15.44-5-32.86-10.93-44.72-22.48-5.53-5.4-14,3.08-8.48,8.48,12.86,12.53,31.07,19.32,47.8,24.85a286.55,286.55,0,0,0,32,8.73c7.54,1.55,10.76-10,3.19-11.57Z"/><path class="cls-3" d="M591.22,1278.26a286.83,286.83,0,0,1-29.82-8c-15.44-5-32.86-10.93-44.72-22.49-5.53-5.39-14,3.09-8.48,8.49,12.86,12.53,31.06,19.32,47.8,24.85a286.51,286.51,0,0,0,32,8.72c7.54,1.56,10.76-10,3.19-11.57Z"/></g></g></svg>