<svg xmlns="http://www.w3.org/2000/svg" viewBox="0 0 1116.59 1668.98"><defs><style>.cls-1{fill:#5cc3ef;}.cls-2{fill:#fff;}.cls-3{fill:#52483f;}.cls-4{fill:#b6cbd4;}</style></defs><g id="Layer_2" data-name="Layer 2"><g id="圖層_3" data-name="圖層 3"><path class="cls-1" d="M387.77,781.48c52.56-25.88,118-41.24,188.9-41.24S713,755.6,765.57,781.48C841.45,818.85,890.5,878.17,890.5,945v407.41c0,77.82-72.08,141.48-160.17,141.48H423c-88.1,0-160.18-63.66-160.18-141.48V945C262.84,878.17,311.89,818.85,387.77,781.48Z"/><polygon class="cls-2" points="650.54 590.4 650.54 759.88 576.67 831.29 502.81 759.88 502.81 590.4 650.54 590.4"/><path class="cls-3" d="M644.54,590.41V759.88l1.75-4.24-64.76,62.6-9.1,8.8h8.48l-64.76-62.6-9.1-8.8,1.76,4.24V590.41l-6,6H650.54c7.72,0,7.73-12,0-12H502.81a6.08,6.08,0,0,0-6,6V707.77c0,16.92-.47,33.92,0,50.84.13,4.77,3.32,7,6.52,10.12l22.61,21.86,46.49,44.94a6.1,6.1,0,0,0,8.48,0l39.44-38.12,25.33-24.49c3.48-3.37,10.34-7.88,10.86-13.11.42-4.25,0-8.77,0-13V590.41C656.54,582.68,644.54,582.67,644.54,590.41Z"/><path class="cls-2" d="M409.66,771.63s84.93,441.92,74.86,766.23H264.19S-96,836.68,409.66,771.63Z"/><path class="cls-2" d="M739.29,769.85s-5.89,548.54-35.28,768H918.79S1132.86,853.05,739.29,769.85Z"/><path class="cls-3" d="M410.75,925.65l-59,64.46-8.34,9.11c-1.37,1.5-2.29,3.81-1.54,5.84l30.11,82.5,47.79,130.92,11,30.13c2.63,7.2,14.23,4.09,11.57-3.19l-30.11-82.5L364.44,1032l-11-30.13-1.55,5.84,59-64.46,8.35-9.11c5.2-5.69-3.26-14.2-8.49-8.49Z"/><path class="cls-3" d="M328.72,836.68v100c0,2.48,1.85,5.26,4.4,5.78l62.42,12.75c7.54,1.54,10.76-10,3.19-11.57l-62.42-12.75,4.41,5.79v-100c0-7.72-12-7.74-12,0Z"/><path class="cls-2" d="M430.17,1520.39s147.64,5.31,150.91,96.38-134.33,8.87-172.49,18.36-60.91-51.27-35.54-78.77S385.79,1514.45,430.17,1520.39Z"/><path class="cls-3" d="M430.17,1526.39a254.67,254.67,0,0,1,73.92,14.27c18.42,6.4,36.68,15.53,50.52,29.53A70.19,70.19,0,0,1,575,1624.57c-.48,7.77-2.73,15.84-7.9,21.09-4.62,4.68-11.28,7.06-18,8-19.11,2.58-39.28-2.9-57.6-7.76-19.43-5.16-38.61-11.74-58.38-15.52-7.22-1.38-14.75-2.57-22.1-1.68-4.59.56-8.87,1.93-13.57,1.29a26.29,26.29,0,0,1-12.52-5.51c-16.53-13-22.05-41.38-11-59.32,3.34-5.44,8.24-9.9,12-15.08,3.1-4.25,5.75-8.77,8.43-13.3,4.08-6.91,6.78-10.74,15.11-11.52,6.87-.64,13.94.29,20.74,1.17,3.24.43,6-3.06,6-6,0-3.58-2.8-5.58-6-6-11.35-1.48-25.67-3.55-35.73,3.5-8,5.58-11.71,15.59-17,23.4-3.87,5.69-8.88,10.42-12.78,16.06a46.78,46.78,0,0,0-7.08,17,64.71,64.71,0,0,0,4.24,38.32c4.65,10.84,12.57,21,23.47,26a36,36,0,0,0,17.6,3.41,60.21,60.21,0,0,0,8.24-1.34,19.35,19.35,0,0,1,3.68-.34c8.23-.23,15.61,1.49,23.78,3.43,10.47,2.48,20.8,5.52,31.14,8.47,21.55,6.15,43.66,12.77,66.19,13.77,17.75.78,37.61-3.56,46.1-21,9.7-19.88,5.47-46.41-5-65.11-10.61-18.92-28.71-32.54-47.92-41.88-18.71-9.1-38.89-15-59.29-18.79-12.36-2.33-25.12-4.36-37.71-4.8-.64,0-1.27-.07-1.91-.1C422.45,1514.11,422.46,1526.11,430.17,1526.39Z"/><path class="cls-3" d="M510.13,1581.85a287,287,0,0,1,26.33,16c13.47,9.13,28.43,19.79,36.6,34.24,3.8,6.73,14.17.68,10.36-6-8.82-15.61-24.43-27.19-38.9-37.18a289.4,289.4,0,0,0-28.33-17.4c-6.82-3.62-12.89,6.74-6.06,10.36Z"/><path class="cls-3" d="M483.59,1610.88a290.59,290.59,0,0,1,26.33,16c13.47,9.13,28.43,19.79,36.6,34.25,3.8,6.72,14.17.68,10.36-6.06-8.82-15.6-24.43-27.19-38.9-37.18a288.36,288.36,0,0,0-28.34-17.4c-6.81-3.61-12.88,6.74-6.05,10.36Z"/><path class="cls-2" d="M247.17,828.91S60.71,926.58,14.85,1113.52c-47.56,193.9,1,520.54,416.75,548.77l39.47-151s-184.29-84.69-189.38-214.55C278.13,1205.71,345.16,908.33,247.17,828.91Z"/><path class="cls-3" d="M412.59,1516l-27.92,106.84-4,15.26c-2,7.48,9.61,10.67,11.57,3.19l27.92-106.84,4-15.26c2-7.48-9.61-10.67-11.57-3.19Z"/><path class="cls-3" d="M437.29,1664.72l34.53-132.11,4.94-18.91c.62-2.36-.36-5.67-2.76-6.77-25.69-11.83-50.17-27.24-73.11-43.68-42.05-30.16-83.48-69-102.86-118-8.72-22.1-11.24-44.67-10.29-68.22.95-23.28,3.39-46.49,5.72-69.66,6.12-61,12.74-122,13.19-183.29.22-29.88-1-59.84-5.45-89.42-3.75-25.19-10-50.49-21.71-73.23A130.65,130.65,0,0,0,271,847.13c-4.35-6.32-14.75-.33-10.36,6,13.8,20.05,21.24,43.65,26,67.32,5.81,28.75,7.64,58.22,8,87.5.77,61.89-5.48,123.63-11.72,185.12-2.51,24.76-5.19,49.52-6.67,74.37-1.34,22.73-1,45.15,5.51,67.2,15.46,52.4,55.39,94.54,97.59,127.31a515.79,515.79,0,0,0,55.82,37.74c10.05,5.89,20.46,12.43,31.3,16.84.51.2,1,.48,1.51.71l-2.76-6.78-34.53,132.11-4.94,18.91c-2,7.48,9.62,10.67,11.57,3.19Z"/><path class="cls-2" d="M776.63,1497S629,1502.32,625.72,1593.4s134.32,8.86,172.49,18.35,60.91-51.27,35.54-78.77S821,1491.07,776.63,1497Z"/><path class="cls-3" d="M776.63,1491a262.74,262.74,0,0,0-84,17.22c-20,7.77-39.81,18.68-53.78,35.38a81.32,81.32,0,0,0-18.33,64.31c7.49,48.74,67.63,34.31,100.34,25.49,20.22-5.45,40.36-12.71,61.13-15.76a62.6,62.6,0,0,1,10.26-.66c.83,0,1.65.08,2.47.17,1,.1-.69-.18.93.16a57.32,57.32,0,0,0,8.75,1.38c12,.65,23.43-5.3,31.16-14.28,16-18.57,21-50.09,6.26-70.87-4-5.6-8.93-10.36-12.78-16.08-2.86-4.26-5.27-8.77-8-13.1-5.36-8.51-12.21-13.28-22.31-14.39-7.35-.8-14.84.08-22.13,1-3.24.43-6,2.46-6,6,0,2.92,2.78,6.42,6,6,6.93-.9,14.2-1.89,21.21-1.12,3.55.39,6.82,1.56,8.69,3.23,5.92,5.28,9.65,15.13,14.71,22,3.68,5,8.42,9.33,11.67,14.61a38.57,38.57,0,0,1,5.23,15.2,53,53,0,0,1-6.23,31.89c-4.74,8.57-12.43,16.34-22.55,17.74-4.77.66-9.16-.78-13.83-1.32a47.88,47.88,0,0,0-9.65,0c-18.83,1.62-37.22,7.92-55.29,13.06-19.55,5.55-39.69,11.59-60.13,12.41-7.72.31-16.2-.19-22.75-3A23.65,23.65,0,0,1,634.43,1614c-7.11-18.11-1.51-41.1,9-56.68,10.92-16.13,28.24-27,45.76-34.75,27.25-12.07,57.07-17.4,85.81-19.45l1.6-.08C784.33,1502.73,784.36,1490.73,776.63,1491Z"/><path class="cls-3" d="M690.61,1548.11a287,287,0,0,0-28.33,17.4c-14.47,10-30.08,21.57-38.9,37.18-3.81,6.73,6.56,12.78,10.36,6,8.17-14.45,23.13-25.1,36.6-34.24a287,287,0,0,1,26.33-16c6.82-3.62.77-14-6.06-10.36Z"/><path class="cls-3" d="M717.15,1577.14a286.4,286.4,0,0,0-28.33,17.41c-14.47,10-30.08,21.57-38.9,37.17-3.81,6.73,6.56,12.79,10.36,6.06,8.17-14.46,23.13-25.11,36.6-34.24a284.78,284.78,0,0,1,26.33-16c6.82-3.62.77-14-6.06-10.37Z"/><path class="cls-2" d="M828.65,813.42c195.74,19.67,559.47,662.42-48,829.93l-45.58-162.51s149.84-71.26,107.84-230.43C800.05,1088,674.85,798,828.65,813.42Z"/><path class="cls-3" d="M759,942.14l59,64.45,8.34,9.12-1.54-5.84-30.11,82.5-47.79,130.92-11,30.13c-2.65,7.27,8.94,10.4,11.57,3.19l30.11-82.5,47.79-130.92,11-30.13a6,6,0,0,0-1.54-5.84l-59-64.45-8.35-9.12c-5.22-5.71-13.69,2.8-8.48,8.49Z"/><path class="cls-3" d="M837.56,844.68v100l4.4-5.79-62.41,12.75c-7.57,1.55-4.37,13.12,3.19,11.57l62.41-12.75a6.05,6.05,0,0,0,4.41-5.78v-100c0-7.72-12-7.74-12,0Z"/><path class="cls-3" d="M837.13,1252c6.88,26.41,9.49,54.16,5,81.21a175,175,0,0,1-23.1,62.19c-17.21,28.44-41.87,52.25-69.41,70.07a156.26,156.26,0,0,1-17.6,10.19c-2.35,1.12-3.42,4.38-2.75,6.77L768.15,1621l6.72,24c2.08,7.42,13.66,4.27,11.57-3.19l-36.85-131.38-8.73-31.14L738.1,1486c18.21-8.68,35.07-21.59,50-35,31.61-28.51,55.77-65.79,64.41-107.82,6.44-31.33,4.26-63.54-3.77-94.37-2-7.46-13.52-4.3-11.57,3.19Z"/><path class="cls-3" d="M828.86,1603.46l-29.81-106.29L794.79,1482c-2.08-7.42-13.66-4.27-11.57,3.19L813,1591.47l4.26,15.18c2.08,7.42,13.66,4.27,11.57-3.19Z"/><ellipse class="cls-3" cx="650.54" cy="389.37" rx="105.76" ry="145.69" transform="translate(122.39 933.31) rotate(-76.75)"/><ellipse class="cls-3" cx="498.89" cy="411.35" rx="145.69" ry="105.76" transform="translate(-144.75 473.25) rotate(-45)"/><path class="cls-2" d="M443.74,520.27a54.84,54.84,0,0,1,15.3,2l25,90.74c-9.79,10.21-21.47,18.63-36.74,18.85-30.25.43-57.26-32.72-57.69-63S413.48,520.7,443.74,520.27Z"/><path class="cls-3" d="M443.74,526.27a54.57,54.57,0,0,1,13.7,1.74l-4.19-4.19,21.89,79.32,3.15,11.41,1.54-5.84c-9.94,10.24-22.19,18.58-37.14,16.9-12.79-1.44-23.95-9.49-32.07-19.09-15.29-18.09-22.38-48.09-3.81-66.51,9.72-9.64,23.56-13.43,36.93-13.74,7.71-.18,7.74-12.18,0-12-26.82.62-54.29,15.16-59.19,43.63s12.14,59.87,37.44,73.37c13.51,7.21,29.21,8.7,43.43,2.64a66.55,66.55,0,0,0,19.68-13.5c3.15-3,5.56-5.53,4.5-10-3.53-14.91-8.18-29.65-12.26-44.42l-12.52-45.37a6,6,0,0,0-4.19-4.19,67.8,67.8,0,0,0-16.89-2.17C436,514.26,436,526.26,443.74,526.27Z"/><path class="cls-2" d="M419.89,557.3s15.42-2,24.82,9.79,3,32.24-8.24,30.43-15.87-10.77-13-18.72,12.74-7.46,24.28-1.28"/><path class="cls-3" d="M419.89,563.3c13.27-1.58,27.75,9.18,22.29,23.57-.74,1.93-2,4.49-4.3,4.75-3.36.39-7.68-2.63-8.8-5.73-4.08-11.27,11.48-5.37,15.69-3.19,6.85,3.53,12.93-6.82,6.06-10.37-9.54-4.92-25-9.92-31.79,1.94-5.77,10.06-.46,22.39,9.57,27.05,10.87,5.06,20.95.35,24.95-10.73A28.78,28.78,0,0,0,446,559.71a34.67,34.67,0,0,0-26.08-8.41c-7.57.9-7.66,12.91,0,12Z"/><path class="cls-2" d="M707.51,520.27a54.84,54.84,0,0,0-15.3,2l-25,90.74c9.79,10.21,21.48,18.63,36.74,18.85,30.26.43,57.26-32.72,57.7-63S737.76,520.7,707.51,520.27Z"/><path class="cls-3" d="M707.51,514.27a67.88,67.88,0,0,0-16.9,2.17,6,6,0,0,0-4.19,4.19L662.32,608a33.15,33.15,0,0,0-.93,3.38c-1.12,6.85,9.15,13.26,14,16.75,12.72,9.07,28.77,12.16,43.77,7.42,27.48-8.67,48-38.15,48.41-66.68.22-15.07-5.74-29.86-17.31-39.71C738.38,519,723,514.63,707.51,514.27c-7.73-.18-7.73,11.82,0,12,23.61.55,47.15,13.93,48.07,39.81.88,24.88-17.52,52.36-42.12,58.6-16.63,4.22-30.82-4.41-42.05-16l1.55,5.84,21.88-79.31L698,523.82,693.8,528a54.65,54.65,0,0,1,13.71-1.74C715.23,526.26,715.24,514.26,707.51,514.27Z"/><path class="cls-2" d="M731.35,557.3s-15.42-2-24.81,9.79-2.95,32.24,8.24,30.43,15.86-10.77,13-18.72-12.75-7.46-24.28-1.28"/><path class="cls-3" d="M731.35,551.3c-20.3-2.42-38.6,15-34.72,35.45,2,10.34,10.16,18.89,21.23,16.27s19.17-13.21,16-24.73c-4.39-16-22.54-11.58-33.44-6-6.87,3.55-.8,13.91,6.05,10.37,4.27-2.2,19.77-8.07,15.69,3.19-1.09,3-5.07,5.82-8.33,5.73-2.58-.06-3.91-2.55-4.76-4.75-5.53-14.38,9.06-25.14,22.28-23.57,7.65.91,7.59-11.1,0-12Z"/><path class="cls-2" d="M582.81,364.08c125.3.66,146.83,88.88,132.88,188.45-7.88,56.22-24.37,130-81.38,154.41-83.61,35.8-156.41-11.57-183.65-98.41S403.06,363.13,582.81,364.08Z"/><path class="cls-3" d="M582.81,370.08c34.51.28,71.52,7.21,97,32.34,21.33,21.05,30.3,50.94,32.75,80.14,2.94,35-1.7,70.75-8.94,105-7.75,36.67-20.63,76.34-50.52,101.07-15.2,12.58-35.07,19.45-54.31,22.74a113.62,113.62,0,0,1-53-3.45c-36.45-11.44-63.24-41.41-79.27-75.12-12.11-25.47-19-54.3-23.59-82.06-4.17-25.19-5.87-51.49-2-76.83,3.77-24.75,13-48.93,30.68-67.1,21.29-21.85,51.39-31.94,81.13-35.22a265.59,265.59,0,0,1,30.11-1.49c7.72,0,7.73-12,0-12-35.89-.1-74.23,5.6-104.1,26.94-22.76,16.25-37.95,40-45.38,66.77s-7.74,55.23-4.69,82.68a385.31,385.31,0,0,0,17.63,79.94c13,38.67,37.18,75.38,73.65,95.39,36.21,19.87,78.56,18.78,116,2.91,38.62-16.36,59.9-54.35,71.74-92.74,6-19.5,9.9-39.59,12.9-59.75,2.76-18.55,4.74-37.21,4.8-56,.1-32.34-5.11-66.7-23.63-94-19.67-29-51.58-44.53-85.59-49.63a237.13,237.13,0,0,0-33.36-2.53C575.08,358,575.07,370,582.81,370.08Z"/><path class="cls-2" d="M609.21,617.59S610,649,580.42,649c-31.75,0-29.69-31.4-29.69-31.4"/><path class="cls-3" d="M603.21,617.59a28.07,28.07,0,0,1-2.61,13c-3.89,8.93-12.13,12.65-21.58,12.36-9-.28-16.94-4.47-20.28-13a25.41,25.41,0,0,1-2-12.35c.46-7.72-11.54-7.69-12,0-.76,12.47,5.11,26.09,16,32.56,9.42,5.6,22.69,6.47,32.89,2.62,8.86-3.34,15.11-10.26,18.53-19a42.85,42.85,0,0,0,3-16.21c-.17-7.71-12.17-7.74-12,0Z"/><circle class="cls-3" cx="636.4" cy="538.66" r="8.7"/><circle class="cls-3" cx="521.27" cy="538.66" r="8.7"/><line class="cls-2" x1="579.96" y1="556.17" x2="579.96" y2="594.94"/><path class="cls-3" d="M574,556.17v38.77c0,7.72,12,7.73,12,0V556.17c0-7.73-12-7.74-12,0Z"/><path class="cls-3" d="M726.19,519.26c-18.68,1-48.92-100.67-48.92-100.67-42.42,26.27-148.85,35.61-193.46-.56,0,0-24.1,91.63-61.52,99.23,0,0-94.88-257.79,154.51-257.79C805.66,259.47,765.39,517.16,726.19,519.26Z"/><path class="cls-4" d="M588,538.66a49.14,49.14,0,0,0,32.16,45.6c18.78,6.9,40.93.71,53.54-14.76,12.78-15.68,14.78-38.18,4.3-55.65a49,49,0,0,0-51.39-22.6c-22.48,4.42-38.25,24.88-38.61,47.41-.13,7.73,11.87,7.73,12,0,.24-15.13,9.53-29.1,24-34.25a36.45,36.45,0,1,1-24,34.25C599.85,531,587.85,530.92,588,538.66Z"/><path class="cls-4" d="M472.85,538.66A49.14,49.14,0,0,0,505,584.26c18.78,6.9,40.93.71,53.54-14.76,12.78-15.68,14.78-38.18,4.3-55.65a49,49,0,0,0-51.39-22.6c-22.48,4.42-38.25,24.88-38.61,47.41-.13,7.73,11.87,7.73,12,0,.24-15.13,9.53-29.1,24-34.25a36.45,36.45,0,1,1-24,34.25C484.72,531,472.72,530.92,472.85,538.66Z"/><path class="cls-4" d="M596.34,518.69h-35c-7.72,0-7.74,12,0,12h35c7.73,0,7.74-12,0-12Z"/><path class="cls-2" d="M572.43,859.06l57.71,56.24,8.4,8.19a6.1,6.1,0,0,0,8.48,0l102.42-99L764,810.43c5.56-5.38-2.93-13.86-8.49-8.48L653.08,901l-14.54,14H647l-57.71-56.24-8.4-8.18c-5.53-5.39-14,3.08-8.48,8.48Z"/><path class="cls-2" d="M572.43,850.58l-57.71,56.24-8.4,8.18h8.49L412.39,816l-14.54-14c-5.55-5.37-14.05,3.1-8.49,8.48l102.42,99,14.54,14.06a6.11,6.11,0,0,0,8.49,0l57.71-56.24,8.39-8.19c5.54-5.4-2.94-13.88-8.48-8.48Z"/><circle class="cls-3" cx="576.67" cy="956.12" r="8.7"/><circle class="cls-3" cx="576.67" cy="1064.7" r="8.7"/><path class="cls-2" d="M535.65,891v223.83c0,7.72,12,7.73,12,0V891c0-7.72-12-7.74-12,0Z"/><rect class="cls-3" x="498.89" y="460.9" width="42.76" height="20.43" rx="10.22"/><rect class="cls-3" x="618.02" y="460.9" width="42.76" height="20.43" rx="10.22"/><path class="cls-3" d="M478.07,249.69l-.42,37.54,9-5.18L452,263.32c-6.8-3.67-12.86,6.69-6.06,10.36l34.64,18.73a6.06,6.06,0,0,0,9-5.18l.42-37.54c.09-7.72-11.91-7.73-12,0Z"/><path class="cls-2" d="M760.4,119l-.16,95.3A52.52,52.52,0,0,0,812.6,266.6h0A52.51,52.51,0,0,0,865,214.25l-.15-95.3Z"/><path class="cls-3" d="M754.4,119l-.1,59c0,21.17-3.32,45.76,7.5,64.9,19.17,33.9,67.56,39.66,93.81,10.7A59.77,59.77,0,0,0,871,213.16c0-8.57,0-17.14,0-25.72L870.81,119a6.09,6.09,0,0,0-6-6H760.4c-7.72,0-7.74,12,0,12H864.81l-6-6,.08,54.13.06,32.86c0,8.64,0,16.95-3.17,25.21A46.3,46.3,0,0,1,775,241.24c-12-16.8-8.69-39.41-8.65-58.92l.1-63.37C766.41,111.22,754.41,111.21,754.4,119Z"/><path class="cls-2" d="M864.81,159.3v.23a85.7,85.7,0,1,0-104.41,0v-.23Z"/><path class="cls-3" d="M858.81,159.3v.23c0,5.68,6.35,7.29,10.24,4.25A91.71,91.71,0,0,0,858.69,12.3,91.77,91.77,0,0,0,723.57,69.59a92.53,92.53,0,0,0,32.59,94.19c3.88,3,10.24,1.4,10.24-4.25v-.23l-6,6H864.81c7.72,0,7.73-12,0-12H760.4a6.08,6.08,0,0,0-6,6v.23l10.24-4.24c-22.4-17.54-34.51-45-31.19-73.41,2.88-24.56,17.83-46.81,39.12-59.21A79.64,79.64,0,0,1,889.9,72.13c7.87,31.16-4.27,63.53-29.34,83.16l10.25,4.24v-.23C870.81,151.58,858.81,151.57,858.81,159.3Z"/><path class="cls-3" d="M760.29,190.29H864.91c7.72,0,7.74-12,0-12H760.29c-7.72,0-7.73,12,0,12Z"/><path class="cls-3" d="M760,215.23H864.65c7.72,0,7.73-12,0-12H760c-7.72,0-7.73,12,0,12Z"/><path class="cls-4" d="M776.79,153.68v-56l-6,6h42l-4.24-1.76a70.62,70.62,0,0,1,7.13,9.86,42.63,42.63,0,0,1,4.55,9.08,24.3,24.3,0,0,1,.9,3.74,4.15,4.15,0,0,1-.23,2.52c-.9,1.67-4.32,2.36-7.2,2.51-3.23.16-8.33.14-10.36-1.87.18.18-.35-.69-.38-1a7.71,7.71,0,0,1,.54-3.8,35.4,35.4,0,0,1,4.2-8.69A77.47,77.47,0,0,1,817,101.92l-4.25,1.76h41l-6-6v56c0,7.72,12,7.73,12,0v-56a6.08,6.08,0,0,0-6-6H834.28c-7,0-14.32-.65-21.29,0-5.34.49-9,7-11.84,10.93-4.71,6.42-9.58,14.08-10.14,22.23-.68,9.92,7,15.46,16.08,16.55,9.33,1.11,22.17-.56,25.38-11.06,2.42-7.88-1.66-16.56-5.59-23.22C824.22,102.6,821,97,817.05,93.45c-2.51-2.24-5.78-1.77-8.88-1.77H770.79a6.09,6.09,0,0,0-6,6v56c0,7.72,12,7.73,12,0Z"/><path class="cls-3" d="M759.55,165.27H864.16c7.73,0,7.74-12,0-12H759.55c-7.72,0-7.74,12,0,12Z"/></g></g></svg>