<svg id="Layer_1" data-name="Layer 1" xmlns="http://www.w3.org/2000/svg" viewBox="0 0 5832 6281.82"><defs><style>.cls-1{fill:#e5f4fc;}.cls-2{fill:#b2ccd5;}.cls-3{fill:#55493f;}.cls-4{fill:#fff;}.cls-5{fill:#ffedb2;}.cls-6{fill:none;stroke:#55493f;stroke-miterlimit:10;}.cls-7{fill:#38beee;}.cls-8{fill:#f6b4b4;}.cls-9{fill:#09478f;}.cls-10{fill:#a5a7a8;}.cls-11{fill:#fbfcfc;}.cls-12{fill:#5cb13e;}.cls-13{fill:#5bb13d;}</style></defs><path class="cls-1" d="M-1006.71,1350.14H-2326.32a289,289,0,0,1-113.61-23.09,292.59,292.59,0,0,1-92.91-62.77,292.7,292.7,0,0,1-62.77-92.91,288.89,288.89,0,0,1-23.1-113.61V30.53a288.85,288.85,0,0,1,23.1-113.61A292.59,292.59,0,0,1-2532.84-176a292.59,292.59,0,0,1,92.91-62.77,288.85,288.85,0,0,1,113.61-23.1h1027.23a288.85,288.85,0,0,1,113.61,23.1A292.7,292.7,0,0,1-1092.57-176a292.59,292.59,0,0,1,62.77,92.91,289,289,0,0,1,23.09,113.61Zm-1319.61-1552c-61.78,0-120.06,24.26-164.1,68.29s-68.29,102.32-68.29,164.1V1057.76c0,61.78,24.26,120.06,68.29,164.09s102.32,68.29,164.1,68.29h1259.61V30.53c0-61.78-24.25-120.06-68.29-164.1s-102.31-68.29-164.09-68.29Z" transform="translate(2618.71 2719.67)"/><path class="cls-1" d="M637.92,3365.14H-696.24a366.37,366.37,0,0,1-144-29.28,371.19,371.19,0,0,1-117.84-79.61,371.38,371.38,0,0,1-79.62-117.84,366.53,366.53,0,0,1-29.27-144V1289.41H637.92A366.37,366.37,0,0,1,782,1318.69a374.19,374.19,0,0,1,197.46,197.46,366.5,366.5,0,0,1,29.27,144V2994.36a366.53,366.53,0,0,1-29.27,144A374.13,374.13,0,0,1,782,3335.86,366.37,366.37,0,0,1,637.92,3365.14ZM-1007,1349.41v1645c0,82.63,32.43,160.57,91.31,219.46s136.83,91.32,219.47,91.32H637.92c82.63,0,160.58-32.43,219.46-91.32S948.7,3077,948.7,2994.36V1660.2c0-82.64-32.43-160.58-91.32-219.47s-136.83-91.32-219.46-91.32Z" transform="translate(2618.71 2719.67)"/><path class="cls-1" d="M647.22,887.74H-380c-75.13,0-146-29.46-199.45-82.94s-82.93-124.31-82.93-199.45V-421.88c0-75.13,29.45-146,82.93-199.45S-455.14-704.26-380-704.26H929.61V605.35c0,75.14-29.46,146-82.94,199.45S722.36,887.74,647.22,887.74ZM-380-664.26c-64.45,0-125.24,25.29-171.17,71.22s-71.21,106.71-71.21,171.16V605.35c0,64.45,25.29,125.24,71.21,171.17S-444.46,847.74-380,847.74H647.22c64.45,0,125.24-25.3,171.17-71.22s71.22-106.72,71.22-171.17V-664.26Z" transform="translate(2618.71 2719.67)"/><path class="cls-1" d="M2583.82-663.94H888.88V-2358.89A356.46,356.46,0,0,1,917.36-2499a361.34,361.34,0,0,1,77.48-114.68,361.23,361.23,0,0,1,114.68-77.48,356.46,356.46,0,0,1,140.14-28.48H2583.82A356.46,356.46,0,0,1,2724-2691.19a361.23,361.23,0,0,1,114.68,77.48A361.34,361.34,0,0,1,2916.12-2499a356.47,356.47,0,0,1,28.49,140.14v1334.16a356.47,356.47,0,0,1-28.49,140.14,361.23,361.23,0,0,1-77.48,114.68A361.23,361.23,0,0,1,2724-692.43,356.47,356.47,0,0,1,2583.82-663.94Zm-1654.94-40H2583.82a316.76,316.76,0,0,0,124.5-25.3,321.72,321.72,0,0,0,102-69,321.72,321.72,0,0,0,68.95-102,316.76,316.76,0,0,0,25.3-124.5V-2358.89a316.8,316.8,0,0,0-25.3-124.5,321.57,321.57,0,0,0-68.95-102,321.59,321.59,0,0,0-102-69,316.76,316.76,0,0,0-124.5-25.29H1249.66a316.76,316.76,0,0,0-124.5,25.29,321.59,321.59,0,0,0-102,69,321.57,321.57,0,0,0-69,102,316.79,316.79,0,0,0-25.29,124.5Z" transform="translate(2618.71 2719.67)"/><path class="cls-1" d="M1766.29,3562.14H456.68c-75.14,0-146-29.45-199.45-82.93s-82.94-124.32-82.94-199.45V2252.53c0-75.14,29.46-146,82.94-199.45s124.31-82.94,199.45-82.94H1483.91c75.13,0,146,29.46,199.45,82.94s82.93,124.31,82.93,199.45Zm-1309.61-1552c-64.45,0-125.24,25.3-171.17,71.22s-71.22,106.72-71.22,171.17V3279.76c0,64.45,25.3,125.24,71.22,171.16s106.72,71.22,171.17,71.22H1726.29V2252.53c0-64.45-25.29-125.24-71.21-171.17s-106.72-71.22-171.17-71.22Z" transform="translate(2618.71 2719.67)"/><path class="cls-1" d="M2930.91,1396.14H1903.68c-75.14,0-146-29.45-199.45-82.93s-82.94-124.32-82.94-199.45V86.53c0-75.14,29.46-146,82.94-199.45s124.31-82.94,199.45-82.94H3213.29V1113.76c0,75.13-29.45,146-82.93,199.45S3006,1396.14,2930.91,1396.14Zm-1027.23-1552c-64.45,0-125.24,25.3-171.17,71.22s-71.22,106.72-71.22,171.17V1113.76c0,64.45,25.3,125.24,71.22,171.16s106.72,71.22,171.17,71.22H2930.91c64.45,0,125.24-25.29,171.17-71.22s71.21-106.71,71.21-171.16V-155.86Z" transform="translate(2618.71 2719.67)"/><path class="cls-2" d="M-614.34,424c-85.43,0-156.65,66.78-162.13,152h0c-.22,3.56-.34,7.08-.34,10.44v198.3a72.27,72.27,0,0,1-71.71,65.8h-341.74v60h341.74c68.71,0,126.53-53.67,131.63-122.18l.08-2.23V586.42c0-2.12.07-4.27.22-6.59h0A102.68,102.68,0,0,1-614.34,484h420.72V424Z" transform="translate(2618.71 2719.67)"/><rect class="cls-2" x="2420.1" y="3002.97" width="767.99" height="767.99" rx="209.83"/><path class="cls-3" d="M-1323.33,808.55s203.32,517.24,123.15,1318.94h-198.5s-5.41-590.09-157.87-955.64c0,0,16,371.57-261.52,955.64h-207.84s117.22-334.87,83.75-785.83,174.07-533.11,174.07-533.11Z" transform="translate(2618.71 2719.67)"/><path class="cls-4" d="M-1196.5,2122.18s196.42-27.44,196.42,96.67h-361.11l-5-100.48Z" transform="translate(2618.71 2719.67)"/><path class="cls-3" d="M-1194.9,2128c-1.32.18-1.61.2-.09,0l3.87-.44c4.69-.49,9.38-.87,14.09-1.17a376.38,376.38,0,0,1,45.56-.18c35.19,2.05,75.66,9,102.1,34.39,16.09,15.42,23.19,36.25,23.29,58.26l6-6h-346.35c-4.51,0-9.67-.7-14.15,0a4.14,4.14,0,0,1-.61,0l6,6-4.37-87.84-.63-12.64-6,6,148.73,3.34,21,.47c7.73.18,7.72-11.82,0-12l-148.73-3.34-21-.47a6,6,0,0,0-6,6l4.37,87.83.63,12.65a6.11,6.11,0,0,0,6,6h316.53c14.6,0,29.38.68,44,0h.61a6.08,6.08,0,0,0,6-6c-.1-21.88-6.33-43-20.43-59.92-12.62-15.17-30.3-25.21-48.61-31.93-34.36-12.62-72.64-14.73-108.91-12.9-8.71.44-17.43,1.1-26.06,2.3C-1205.71,2117.46-1202.47,2129-1194.9,2128Z" transform="translate(2618.71 2719.67)"/><path class="cls-3" d="M-1150.15,2163.28l29.43-40.18c4.56-6.24-5.84-12.23-10.37-6.06l-29.42,40.18c-4.57,6.24,5.84,12.23,10.36,6.06Z" transform="translate(2618.71 2719.67)"/><path class="cls-3" d="M-1184.67,2163.28l29.43-40.18c4.57-6.24-5.84-12.23-10.36-6.06l-29.43,40.18c-4.57,6.24,5.84,12.23,10.36,6.06Z" transform="translate(2618.71 2719.67)"/><path class="cls-4" d="M-1839.15,2122.18s196.42-27.44,196.42,96.67h-366.11l25-100.48Z" transform="translate(2618.71 2719.67)"/><path class="cls-3" d="M-1837.55,2128c-1.32.18-1.61.2-.09,0l3.87-.44c4.69-.49,9.38-.87,14.09-1.17a376.38,376.38,0,0,1,45.56-.18c35.19,2.05,75.66,9,102.1,34.39,16.09,15.42,23.19,36.25,23.29,58.26l6-6h-351.14c-4.6,0-9.75-.65-14.32,0a4.7,4.7,0,0,1-.65,0l5.79,7.59,21.87-87.91L-1978,2120l-5.79,4.41,126.74,3.34,17.95.47c7.73.21,7.72-11.79,0-12l-126.74-3.34-17.95-.47a6.08,6.08,0,0,0-5.79,4.4l-21.87,87.91-3.13,12.57a6.08,6.08,0,0,0,5.79,7.6h321.09c14.74,0,29.64.65,44.37,0h.65a6.08,6.08,0,0,0,6-6c-.1-21.88-6.33-43-20.43-59.92-12.62-15.17-30.3-25.21-48.61-31.93-34.36-12.62-72.64-14.73-108.91-12.9-8.71.44-17.43,1.1-26.06,2.3C-1848.36,2117.46-1845.12,2129-1837.55,2128Z" transform="translate(2618.71 2719.67)"/><path class="cls-3" d="M-1792.8,2163.28l29.43-40.18c4.56-6.24-5.84-12.23-10.37-6.06l-29.42,40.18c-4.57,6.24,5.84,12.23,10.36,6.06Z" transform="translate(2618.71 2719.67)"/><path class="cls-3" d="M-1827.32,2163.28l29.43-40.18c4.57-6.24-5.84-12.23-10.36-6.06l-29.43,40.18c-4.57,6.24,5.84,12.23,10.36,6.06Z" transform="translate(2618.71 2719.67)"/><path class="cls-4" d="M-1473.49,967.55c-6.78,28-19.48,56.86-37.51,79.39-7.55,9.43-16.31,17.83-26.73,24a6.11,6.11,0,0,0-2.16,8.21c6.38,11.23,11.81,23.06,17.17,34.8,6.86,15,12.23,27.74,18.25,42.72q12.24,30.48,23,61.55c20.31,58.4,37.29,117.94,51.86,178,20.19,83.25,35.71,167.62,47.59,252.44,15.24,108.81,24.37,218.47,28.77,328.24q.91,23.1,1.56,46.21c.22,7.71,12.22,7.74,12,0-3.2-114-11.36-227.92-25.86-341.07-11.29-88.12-26.29-175.8-46.2-262.4-14.54-63.19-31.64-125.84-52.25-187.33-13.08-39-27.54-77.61-44.21-115.24-4.54-10.26-9.26-20.45-14.26-30.5-2.06-4.13-3.9-9.28-6.74-13a4.4,4.4,0,0,1-.3-.52l-2.15,8.2c35.1-20.85,54.91-62.25,66.7-99.87,1.11-3.54,2.19-7.1,3.06-10.71,1.81-7.5-9.75-10.71-11.57-3.19Z" transform="translate(2618.71 2719.67)"/><path class="cls-4" d="M-1937,2030.75c16.25-66.21,28.93-133.3,38.61-200.78a2289.67,2289.67,0,0,0,22.89-283.49q1.51-83.54-3.23-167c-3-53.36-7.08-106.39-5.71-159.89,2-77,12-154.84,38-227.67,15.87-44.47,38.16-87.52,69.22-123.34q4.3-5,8.83-9.73c5.31-5.6-3.16-14.1-8.49-8.48-31.25,33-54.5,72.66-71.9,114.44-28,67.16-40.77,140-45.69,212.3-3.45,50.61-2.88,101.45.39,152,3.67,56.81,6.78,113.5,6.94,170.46a2274.15,2274.15,0,0,1-18.4,294.61,2111.77,2111.77,0,0,1-38.26,213.46q-2.33,10-4.77,19.91c-1.84,7.5,9.73,10.7,11.57,3.19Z" transform="translate(2618.71 2719.67)"/><path class="cls-5" d="M-1783.73,142.25c52.55-25.89,118-41.24,188.9-41.24s136.34,15.35,188.9,41.24C-1330,179.62-1281,238.94-1281,305.74V713.15c0,77.81-72.08,141.48-160.18,141.48h-307.3c-88.1,0-160.18-63.67-160.18-141.48V305.74C-1908.66,238.94-1859.61,179.62-1783.73,142.25Z" transform="translate(2618.71 2719.67)"/><polygon class="cls-4" points="1097.74 2670.85 1097.74 2840.32 1023.88 2911.73 950.01 2840.32 950.01 2670.85 1097.74 2670.85"/><path class="cls-3" d="M-1527-48.83V120.65l1.76-4.24L-1590,179l-9.1,8.8h8.48l-64.76-62.6-9.1-8.8,1.75,4.24V-48.83l-6,6H-1521c7.73,0,7.74-12,0-12H-1668.7a6.09,6.09,0,0,0-6,6V68.54c0,16.92-.47,33.92,0,50.83.14,4.78,3.32,7,6.53,10.13l22.61,21.86,46.49,44.94a6.11,6.11,0,0,0,8.48,0l39.43-38.12,25.33-24.49c3.49-3.37,10.34-7.88,10.86-13.11.43-4.26,0-8.77,0-13V-48.83C-1515-56.55-1527-56.56-1527-48.83Z" transform="translate(2618.71 2719.67)"/><path class="cls-5" d="M-1432.21,130.62s-5.9,504.54-35.29,724h163.78S-1054.41,236.9-1432.21,130.62Z" transform="translate(2618.71 2719.67)"/><path class="cls-6" d="M-1328.36,128.24" transform="translate(2618.71 2719.67)"/><path class="cls-4" d="M-1743.81-86.9a54.9,54.9,0,0,1,15.38,1.12c-14.6-76.48,1.93-159.49,129.23-174.29,124.47-14.47,156.49,70.5,154.66,171-1,56.76-9.54,130.25-62.14,163.1-63.77,39.84-153,8.7-191.85-70.59-9.23,10.73-20.44,19.77-35.67,20.81-30.19,2.07-59-29.58-61-59.76S-1774-84.84-1743.81-86.9Z" transform="translate(2618.71 2719.67)"/><path class="cls-3" d="M-1743.81-80.9A54.43,54.43,0,0,1-1730-80a6.09,6.09,0,0,0,7.38-7.38c-9-47.81-5-101.47,35.19-134.37,25.36-20.75,59.41-29.35,91.35-32.67,29.72-3.1,61.59-1.39,88,14,47.73,27.94,57.27,89.58,57.67,140.09.49,60.76-6,141.71-66.78,173.49-58,30.37-127.79.29-163-50.45A176.8,176.8,0,0,1-1693.35.44c-1.65-3.32-7-4-9.42-1.21-9.3,10.66-20.69,19.56-35.54,19.13-13.06-.39-25-7.9-33.71-17.16-16.3-17.24-25.43-47.23-7.43-66.6,9.16-9.86,22.47-14.48,35.64-15.5,7.64-.59,7.71-12.6,0-12-14.86,1.15-29.37,5.77-40.72,15.72a50.38,50.38,0,0,0-16.81,37.59c-.26,31.2,25.2,64.56,56.69,69.31,20.33,3.07,37.39-7.12,50.36-22l-9.42-1.21c30.2,61,99.4,105.44,168.47,86.56,33.63-9.19,60-32.7,74.85-64,15.29-32.29,20-68.66,21.43-104,2.35-55.76-1.66-125-47.26-164.35-23.07-19.9-53.07-27.81-83.07-28.34-36.42-.63-75.88,6.51-107.87,24.55-24.42,13.76-43.15,35-53,61.23-9.18,24.51-10.18,51.63-7.17,77.4q1.2,10.2,3.11,20.3l7.38-7.38a67.62,67.62,0,0,0-17-1.34C-1751.5-92.5-1751.55-80.5-1743.81-80.9Z" transform="translate(2618.71 2719.67)"/><path class="cls-4" d="M-1537,.3s3,31.27-26.58,33.29c-31.67,2.17-31.76-29.3-31.76-29.3" transform="translate(2618.71 2719.67)"/><path class="cls-3" d="M-1543,.3a29.71,29.71,0,0,1-1.6,13.18c-3.06,9.18-10.9,13.83-20.37,14.19s-17.61-3.18-21.7-12a36.07,36.07,0,0,1-2.44-8.52c-.29-1.65.11,1.23,0-.24,0-.48-.09-1-.14-1.42s0-.83,0-1.24c-.06-7.72-12.06-7.73-12,0,.1,12.44,6.52,25.83,17.86,31.61,19,9.71,43.72,1.33,50.45-19.23A42.07,42.07,0,0,0-1531,.3c-.69-7.63-12.69-7.7-12,0Z" transform="translate(2618.71 2719.67)"/><circle class="cls-3" cx="1103.44" cy="2639.37" r="8.7"/><circle class="cls-3" cx="988.57" cy="2647.23" r="8.7"/><line class="cls-4" x1="1048.32" y1="2660.69" x2="1050.97" y2="2699.38"/><path class="cls-3" d="M-1576.39-59l2.65,38.68c.53,7.67,12.53,7.72,12,0L-1564.39-59c-.52-7.66-12.52-7.72-12,0Z" transform="translate(2618.71 2719.67)"/><path class="cls-4" d="M-1763.11-40.94s11.58-10.36,26-6,20.69,24.9,10.45,29.75-19.18.11-21.28-8.1,6.28-13.36,19.28-14.8" transform="translate(2618.71 2719.67)"/><path class="cls-3" d="M-1758.87-36.7c.88-.77-.66.42.41-.32a35,35,0,0,1,3.55-2.2,22,22,0,0,1,12.32-2.71,16.83,16.83,0,0,1,14.91,14.26c.84,6.73-8.15,8.55-12.44,4.44-7.52-7.22,6.68-10.26,11.45-10.85,7.57-1,7.66-13,0-12-10.08,1.26-24.78,4.87-25.54,17.42s11.63,21,23.19,19.08c11.3-1.84,17.11-10.7,14.81-21.77-2.14-10.32-10.6-19.38-20.91-21.79-10.55-2.46-22.12.85-30.24,8-5.81,5.1,2.7,13.56,8.49,8.48Z" transform="translate(2618.71 2719.67)"/><path class="cls-3" d="M-1542.21-334.41s107.63-43.64,157.62,42.94c50.32,87.15-7.33,143.17-61.34,161.24-86.34,28.88-207.23-11-207.82-48.15,0,0,5.89,86.06-71.25,86.83,0,0-25.37-6.15-50.63,8,0,0-111.64-168.31,26.58-255.95C-1600.82-433.53-1542.21-334.41-1542.21-334.41Z" transform="translate(2618.71 2719.67)"/><path class="cls-3" d="M-1720.68-381.71l-3,37.42,9-5.18-33.25-21.11c-6.54-4.15-12.56,6.23-6,10.36l33.24,21.11c4.12,2.62,8.68-.89,9-5.18l3-37.42c.63-7.69-11.38-7.65-12,0Z" transform="translate(2618.71 2719.67)"/><path class="cls-4" d="M-1442.33,452.63a71.92,71.92,0,0,0-1.27-12.39,58.08,58.08,0,0,0-3.91-12.26,53.24,53.24,0,0,0-16.42-20.75,56.52,56.52,0,0,0-25-10.63,60.66,60.66,0,0,0-10.12-.81c-1.12,0-2.24,0-3.36.1a63.28,63.28,0,0,0-6.61.71c-1.09.17-2.17.37-3.25.6s-2.13.47-3.19.74c-.75.2-1.5.41-2.23.63-2,.6-4,1.3-5.92,2.08l-.05,0c-2.4,1-4.73,2.06-7,3.26l-.57.3c-1.08.58-2.15,1.17-3.22,1.78a77.3,77.3,0,0,0-17.42-7.61l-1.63-.46a67.35,67.35,0,0,0-13.06-2.05c-1.12-.06-2.24-.1-3.36-.1a60.86,60.86,0,0,0-10.13.81,56.52,56.52,0,0,0-25,10.63A53.36,53.36,0,0,0-1621.45,428a58,58,0,0,0-3.9,12.26,71.92,71.92,0,0,0-1.27,12.39h0a63.57,63.57,0,0,0,4.55,24.7,63,63,0,0,0,3.46,7.28c.43.78.87,1.55,1.33,2.31a78.58,78.58,0,0,0,6.06,8.68l.58.73c.6.73,1.2,1.45,1.81,2.15,1.33,1.54,2.7,3,4,4.42l1.28,1.35.63.68.1.11c.53.56,1,1.09,1.34,1.48h0l0,0c.13.43.27,1,.4,1.55.37,1.58.71,3.42,1,5.05h0c.33,1.63.68,4,1.07,6.26,6.55,38.39,13.62,70.18,34,70.18,16.71,0,20.8-15.86,23.82-27.45,1.61-6.19,4.06-14.64,6.65-14.81,2.58.17,5,8.62,6.62,14.81,3,11.59,7.09,27.45,23.79,27.45,20.37,0,27.45-31.79,34-70.18.39-2.26.75-4.63,1.08-6.26h0c.34-1.63.68-3.47,1-5.05.13-.57.28-1.12.4-1.55l0,0h0c.33-.39.83-.94,1.36-1.51a.6.6,0,0,0,.08-.08l.64-.68,1.27-1.35c1.33-1.4,2.69-2.88,4-4.42a73.88,73.88,0,0,0,13.25-21.15,63.94,63.94,0,0,0,4.55-24.7Z" transform="translate(2618.71 2719.67)"/><rect class="cls-7" x="2356.37" y="2925.67" width="767.99" height="767.99" rx="209.83"/><g id="Page-1"><g id="Artboard"><g id="Fill-182"><path class="cls-4" d="M76.07,548.59a56.38,56.38,0,0,1-.93-19.39c1.62-12.35,8.2-23.61,18.67-32.38S118,482.11,131.14,481c13.38-1.23,27.58,2.06,38.37,9.07a43.57,43.57,0,0,1,13,12.64,33,33,0,0,1,1.7,3c-6.63,2.81-13.3,5.6-19.94,8.36q-17.9,7.39-35.87,14.53-26.09,10.32-52.34,20m248-67.3-.46-3.91-.49-3.5c-.41-2.76-.83-5.14-1.35-7.73a143.2,143.2,0,0,0-3.91-15.07,126.11,126.11,0,0,0-33.19-53.54,120.27,120.27,0,0,0-56-29.76,132,132,0,0,0-61.74.94,153.2,153.2,0,0,0-45.19,19.77,155.31,155.31,0,0,0-42.16-18.82,134.13,134.13,0,0,0-58.54-3.12,121.3,121.3,0,0,0-55,24.71,123.41,123.41,0,0,0-36.2,48.27A140.78,140.78,0,0,0-78.8,468a173.65,173.65,0,0,0-2.8,28.81,155.62,155.62,0,0,0,10,57.45c6.86,18.33,17.39,34.92,29.19,49.2,2.93,3.58,5.94,7,8.85,10.28l4.21,4.72c1.27,1.42,2.46,2.79,3.21,3.74.28,1,.6,2.36.89,3.68.81,3.68,1.57,7.73,2.31,11.83h0c.73,4.36,1.51,9.23,2.37,14.49,14.42,89.28,30,163.18,74.89,163.18,36.79,0,45.91-36.91,52.57-63.86,3.59-14.55,8.51-34.48,15-34.48S133.21,737,136.8,751.55c6.66,27,15.78,63.87,52.58,63.87,24.19,0,43.46-23.49,58.92-71.82a420.46,420.46,0,0,0,18.15-95.3,362,362,0,0,1-41,14,395.6,395.6,0,0,1-12.62,62.1c-10.23,35-20.54,48.35-24.38,51.27-5.39-2.07-10-20.9-13.19-33.6-6.35-25.71-15.94-64.57-53.36-64.57s-47,38.86-53.37,64.57c-3,12.07-7.87,31.9-13.38,33.65C53,774,44.55,765.28,35,729.62c-7.35-27.36-12.61-59.92-16.45-83.69-.86-5.36-1.67-10.32-2.42-14.77h0c-.67-4.28-1.35-8.6-2.24-13.24-.46-2.37-.91-4.69-1.77-7.79-.23-.81-.49-1.66-.87-2.75-.2-.54-.42-1.13-.75-1.9a26.28,26.28,0,0,0-1.52-3l-.53-.88L7.33,600q-.81-1.16-1.5-2.07C4,595.48,2.45,593.7,1,592l-4.21-4.84C-5.92,584-8.46,581-10.87,578c-9.61-12.06-17.23-24.7-22.34-38.21a114.33,114.33,0,0,1-7.29-42.37,133.81,133.81,0,0,1,2.16-21.85,99.66,99.66,0,0,1,5.83-20.25A82.79,82.79,0,0,1-8.65,422.54a81.41,81.41,0,0,1,36.78-17,110.61,110.61,0,0,1,42.58.74A175.05,175.05,0,0,1,113.5,421.5l10,5,6.77-5h0c14.85-7.05,29.86-12.66,45-15.41s30.3-3,44.47.35a80.29,80.29,0,0,1,37.39,20.09,85.73,85.73,0,0,1,22.32,36.71,100.55,100.55,0,0,1,2.75,10.84c.35,1.79.68,3.81.92,5.47l.42,3.13.3,2.74a119,119,0,0,1,.13,22.87,104.06,104.06,0,0,1-43,75.58,107.11,107.11,0,0,1-19.52,11.22,165.85,165.85,0,0,1-22.27,8,157.44,157.44,0,0,1-46.65,6.26c-15.31-.4-29.91-3.7-41.8-10.44a64.09,64.09,0,0,1-15.81-12.52c-.59-.63-1.12-1.33-1.69-2q25-9.21,49.73-19,18.27-7.23,36.41-14.74c12.13-5,24.11-10.06,36.28-15.33l13.05-5.66-1.24-14v-.05a74.21,74.21,0,0,0-11.31-34.35,82.73,82.73,0,0,0-24.65-24.84,101.8,101.8,0,0,0-63.8-15.86c-2.77.23-5.53.55-8.29,1-1.39.24-2.66.46-4.23.79l-2,.45-2,.46a109.87,109.87,0,0,0-15.58,5.18,111.62,111.62,0,0,0-28,16.84,97.61,97.61,0,0,0-22,25.59,87.57,87.57,0,0,0-11.34,32.75,98.56,98.56,0,0,0,1.46,33.68,132,132,0,0,0,10.47,29.77A112.51,112.51,0,0,0,64.49,614.3a105,105,0,0,0,26,20.63c19.31,10.89,40.68,15.23,60.95,15.8A198.29,198.29,0,0,0,210.51,643a195.94,195.94,0,0,0,28-10.24,149.66,149.66,0,0,0,26.72-15.57,145,145,0,0,0,59.12-105.26,159.4,159.4,0,0,0-.32-30.59" transform="translate(2618.71 2719.67)"/></g></g></g><path class="cls-4" d="M295.71,983.19H-52.63c-58.49,0-113.63-22.93-155.26-64.56s-64.57-96.78-64.57-155.26V415c0-58.49,22.93-113.63,64.57-155.26s96.77-64.57,155.26-64.57H295.71c58.48,0,113.62,22.93,155.26,64.57S515.54,356.54,515.54,415V763.37c0,58.48-22.93,113.62-64.57,155.26S354.19,983.19,295.71,983.19Zm-348.34-768a198.38,198.38,0,0,0-141.12,58.71A198.38,198.38,0,0,0-252.46,415V763.37a198.36,198.36,0,0,0,58.71,141.11A198.38,198.38,0,0,0-52.63,963.19H295.71A200.45,200.45,0,0,0,495.54,763.37V415A200.45,200.45,0,0,0,295.71,215.2Z" transform="translate(2618.71 2719.67)"/><rect class="cls-4" x="2431.01" y="1720.16" width="617.99" height="617.99" rx="168.84"/><rect class="cls-4" x="3219.14" y="2370.87" width="617.99" height="617.99" rx="168.84"/><rect class="cls-4" x="3280.14" y="3730.87" width="617.99" height="617.99" rx="168.84"/><path class="cls-8" d="M-1256.84,1015.7a85.53,85.53,0,0,0,85.28-85.28V855.81a85.53,85.53,0,0,0-85.28-85.28H-1317V1015.7Z" transform="translate(2618.71 2719.67)"/><path class="cls-3" d="M-1256.84,1021.7A92.61,92.61,0,0,0-1172,963.9c9-22.15,6.43-47.38,6.43-70.78s2.51-48.61-6.43-70.79a92.56,92.56,0,0,0-84.85-57.8c-20.06-.14-40.12,0-60.17,0a6.08,6.08,0,0,0-6,6V1015.7a6.08,6.08,0,0,0,6,6h60.17c7.72,0,7.73-12,0-12H-1317l6,6V770.53l-6,6h56.07c12,0,23.71,1.46,34.9,6.22a80.4,80.4,0,0,1,37.16,32.38,80,80,0,0,1,11.32,41.3c0,8.29,0,16.58,0,24.88v35.92c0,8,.4,16.13-.7,24-5.4,38.87-39.6,68.12-78.58,68.44C-1264.56,1009.76-1264.58,1021.76-1256.84,1021.7Z" transform="translate(2618.71 2719.67)"/><rect class="cls-4" x="1265.9" y="3468.29" width="51" height="289" rx="25.5"/><path class="cls-3" d="M-1327.3,754.62c11.61,0,19.43,9.68,19.5,20.71,0,4.64,0,9.28,0,13.91V991.43c0,11.63,2.82,28.19-7.67,36.2-12.88,9.84-31,0-31.33-15.65-.07-3.4,0-6.8,0-10.2V780.5c0-4-.33-8.3.89-12.19a19.8,19.8,0,0,1,18.61-13.69c7.7-.21,7.74-12.22,0-12a32.07,32.07,0,0,0-31.5,31.69c-.09,3.91,0,7.82,0,11.73v209.9c0,5,0,10,0,15,.08,13,7,24.92,19.18,30.14,18.06,7.7,39.87-3.61,43.27-23.21.75-4.35.55-8.79.55-13.19v-208c0-14.32,2.37-31-7.5-42.81a31.64,31.64,0,0,0-24-11.18C-1335,742.62-1335,754.62-1327.3,754.62Z" transform="translate(2618.71 2719.67)"/><path class="cls-4" d="M-1413.66,858.59a18,18,0,0,0,18-18h0a18,18,0,0,0-18-18h-50.55v35.91Z" transform="translate(2618.71 2719.67)"/><path class="cls-3" d="M-1413.66,864.59c12.31-.48,22.63-9.38,23.82-21.87A24.18,24.18,0,0,0-1408,817.37c-5-1.19-10.49-.69-15.55-.69h-40.7a6.09,6.09,0,0,0-6,6v35.91a6.09,6.09,0,0,0,6,6h50.55c7.72,0,7.73-12,0-12h-50.55l6,6V822.68l-6,6h39.88c4.72,0,11.06-1,15.52,1,11.82,5.24,7.5,22.42-4.85,22.9C-1421.36,852.89-1421.4,864.89-1413.66,864.59Z" transform="translate(2618.71 2719.67)"/><path class="cls-4" d="M-1413.66,963.55a18,18,0,0,0,18-17.95h0a18,18,0,0,0-18-18h-50.55v35.91Z" transform="translate(2618.71 2719.67)"/><path class="cls-3" d="M-1413.66,969.55c12.31-.47,22.63-9.37,23.82-21.87A24.19,24.19,0,0,0-1408,922.33c-5-1.19-10.49-.69-15.55-.69h-40.7a6.09,6.09,0,0,0-6,6v35.91a6.08,6.08,0,0,0,6,6h50.55c7.72,0,7.73-12,0-12h-50.55l6,6V927.64l-6,6h39.88c4.72,0,11.06-1,15.52,1,11.82,5.23,7.5,22.41-4.85,22.89C-1421.36,957.85-1421.4,969.85-1413.66,969.55Z" transform="translate(2618.71 2719.67)"/><path class="cls-8" d="M-1560.17,770.53a85.53,85.53,0,0,0-85.28,85.28v74.61a85.53,85.53,0,0,0,85.28,85.28H-1500V770.53Z" transform="translate(2618.71 2719.67)"/><path class="cls-3" d="M-1560.17,764.53a92.59,92.59,0,0,0-84.84,57.8c-9,22.15-6.44,47.38-6.44,70.79s-2.5,48.6,6.44,70.78a92.54,92.54,0,0,0,84.84,57.8c20.06.14,40.12,0,60.18,0a6.09,6.09,0,0,0,6-6V770.53a6.09,6.09,0,0,0-6-6h-60.18c-7.72,0-7.73,12,0,12H-1500l-6-6V1015.7l6-6h-56.08c-12,0-23.71-1.46-34.89-6.22a80.41,80.41,0,0,1-37.17-32.37,80.18,80.18,0,0,1-11.32-41.31c0-8.29,0-16.58,0-24.88V869c0-8-.4-16.13.7-24,5.4-38.87,39.6-68.12,78.58-68.44C-1552.45,776.47-1552.43,764.47-1560.17,764.53Z" transform="translate(2618.71 2719.67)"/><rect class="cls-4" x="1103.5" y="3468.29" width="51" height="289" rx="25.5"/><path class="cls-3" d="M-1489.71,1031.62c-11.6,0-19.43-9.69-19.5-20.72,0-4.64,0-9.28,0-13.91V794.8c0-11.63-2.81-28.19,7.68-36.2,12.87-9.84,31-.05,31.32,15.65.07,3.4,0,6.8,0,10.2v221.29c0,4,.33,8.29-.89,12.18a19.82,19.82,0,0,1-18.61,13.7c-7.7.21-7.73,12.21,0,12a32.07,32.07,0,0,0,31.5-31.7c.09-3.91,0-7.82,0-11.73V790.29c0-5,0-10,0-15-.07-13-7-24.92-19.18-30.13-18.06-7.71-39.87,3.6-43.27,23.2-.75,4.35-.55,8.79-.55,13.19v208c0,14.32-2.37,31,7.5,42.81a31.67,31.67,0,0,0,24,11.19C-1482,1043.62-1482,1031.62-1489.71,1031.62Z" transform="translate(2618.71 2719.67)"/><path class="cls-4" d="M-1712.2,817.21s142,40.59,123.37,129.78-132.53-23.63-171.86-23.58-46.83-64.38-15.6-85S-1753.86,800.79-1712.2,817.21Z" transform="translate(2618.71 2719.67)"/><path class="cls-3" d="M-1713.8,823a255,255,0,0,1,69.23,32.12c16.27,10.69,31.69,24,41.6,40.94a70,70,0,0,1,5.87,58.5c-5.47,15.93-17.31,22.51-33.23,20.33-19.19-2.63-37.49-12.89-54.24-22.15-17.4-9.62-34.29-20.54-52.47-28.67-6.87-3.08-14-6-21.63-6.57-9.23-.7-16.76-2.64-22.66-10.41-11.67-15.35-11.13-40.52.17-55.87,3.37-4.58,7.78-7.37,12.29-10.68A126,126,0,0,0-1754,827.62c5.92-6,10.27-11.71,19.08-10.88,7.24.68,14.42,3.65,21.12,6.26,7.2,2.8,10.32-8.8,3.19-11.57-11.68-4.55-26.33-10.35-38.45-4-9.61,5.06-16.2,15.33-24.77,21.9-5.35,4.1-11,7.38-15.28,12.65a53.68,53.68,0,0,0-8.73,15.39,65.59,65.59,0,0,0-2.56,34.82c2,10.67,7.15,21.43,15.61,28.48a36.66,36.66,0,0,0,14.7,7.6,44.41,44.41,0,0,0,8.89,1.11c.76,0,1.51,0,2.27.07a4.8,4.8,0,0,1,1.64.22c7.84,1.5,14.86,4.86,21.91,8.43,9.65,4.88,19,10.33,28.39,15.71,19.37,11.11,39.08,22.81,60.51,29.53,16.93,5.32,37.39,6.82,50.57-7.34,15.05-16.17,17.58-43.52,12.39-64.1-5.33-21.15-19.46-39-35.84-52.9-16.11-13.66-34.52-24.4-53.68-33.17-11.54-5.29-23.5-10.34-35.72-13.88-.62-.17-1.23-.37-1.85-.55C-1718,809.3-1721.22,820.87-1713.8,823Z" transform="translate(2618.71 2719.67)"/><path class="cls-3" d="M-1649.39,896a289.28,289.28,0,0,1,21.72,21.88c10.87,12.08,22.89,26,27.34,42,2.07,7.43,13.65,4.28,11.57-3.19-4.82-17.27-17.14-32.27-28.81-45.46a285,285,0,0,0-23.33-23.69c-5.74-5.14-14.26,3.32-8.49,8.48Z" transform="translate(2618.71 2719.67)"/><path class="cls-3" d="M-1682.12,917.82a283.67,283.67,0,0,1,21.71,21.88c10.87,12.07,22.89,26,27.35,42,2.07,7.43,13.65,4.27,11.57-3.19-4.82-17.28-17.15-32.28-28.82-45.47a289.62,289.62,0,0,0-23.32-23.69c-5.74-5.13-14.26,3.33-8.49,8.49Z" transform="translate(2618.71 2719.67)"/><path class="cls-5" d="M-1845.88,181.72s-194,59.15-257.78,216.26c-66.17,162.94-50.46,455.6,357.73,539L-1692,810.37s-173.8-100.1-166-214.44C-1852.52,515.79-1756.88,265-1845.88,181.72Z" transform="translate(2618.71 2719.67)"/><path class="cls-3" d="M-1740.92,940.69l47.13-110.6,6.81-16c1.26-3,.93-6.43-2.16-8.21-22.6-13-44-28.78-64.06-45.37-36.59-30.22-73.21-67-90.47-112.13a126.3,126.3,0,0,1-7.47-61.83c2.69-20.22,7.46-40.2,12-60.06,12.23-53.51,25.17-106.94,32.2-161.45,6.36-49.33,10-104.42-10.32-151.18a122.86,122.86,0,0,0-7.16-14c-4-6.62-14.34-.59-10.36,6.06,11.62,19.44,16.89,42.06,19.08,64.42,2.61,26.74,1.29,53.79-1.56,80.46-5.89,55.13-18.87,109.23-31.31,163.17-9.41,40.79-22.63,84-10.68,125.62,13.66,47.55,49.11,87,85.46,119.08a557.48,557.48,0,0,0,49.52,38.72c8.88,6.19,18,13.22,27.76,18.07.45.22.88.52,1.32.77l-2.16-8.21-47.13,110.6-6.8,16c-3,7,7.34,13.15,10.36,6.06Z" transform="translate(2618.71 2719.67)"/><path class="cls-4" d="M-1113.12,770.74s-128.15,73.49-88.61,155.59,123-54.74,161.17-64.13,47.15-62.07,3.61-90.87C-1055.25,759.24-1084.43,754.54-1113.12,770.74Z" transform="translate(2618.71 2719.67)"/><path class="cls-3" d="M-1116.14,765.56a260.14,260.14,0,0,0-68,56.48c-14.22,16.82-26.58,36.68-30,58.79-3.51,22.4,2.28,46.57,17.19,64,28.35,33.09,70.36-2.22,93.48-23.19,15-13.59,29-28.33,44.52-41.29a108.19,108.19,0,0,1,9.07-6.89c1.37-.92,2.77-1.8,4.2-2.61.71-.4,1.43-.77,2.15-1.14.35-.18,2.12-1,1.16-.58,4.35-1.78,8.93-2.66,13.23-4.67a46.34,46.34,0,0,0,13.81-10c16.72-17.7,17-44.91,4.53-65-16.57-26.85-49-39.35-79.56-33.47a88.39,88.39,0,0,0-25.75,9.66c-6.77,3.72-.72,14.09,6.05,10.36,27.19-15,60.9-12.23,82.46,11.08,14,15.11,19.38,39.43,5.79,56.65a36.07,36.07,0,0,1-11.47,9.47c-3.69,2-7.65,2.71-11.53,4.13-6.39,2.35-12,6.23-17.36,10.37-14.42,11.15-27.18,24.36-40.42,36.84-13.6,12.83-27.64,26-44.12,35.11-12,6.62-25.49,10.41-36.54,1.88-14.76-11.4-21-34.07-19.88-51.93,1.21-19.73,11.16-38.12,23-53.49,18.58-24,43-43.19,68.57-59.24l1.47-.87C-1103.39,772.07-1109.43,761.7-1116.14,765.56Z" transform="translate(2618.71 2719.67)"/><path class="cls-3" d="M-1165.5,856.17a284.85,284.85,0,0,0-17,28.6c-8.18,15.65-16.49,33.17-17,51.14-.23,7.73,11.77,7.72,12,0,.49-16.53,8.89-32.94,16.51-47.23a286.1,286.1,0,0,1,15.83-26.45c4.36-6.4-6-12.41-10.36-6.06Z" transform="translate(2618.71 2719.67)"/><path class="cls-3" d="M-1128.49,869.49a288.68,288.68,0,0,0-17,28.6c-8.18,15.66-16.48,33.17-17,51.14-.22,7.73,11.78,7.72,12,0,.49-16.53,8.89-32.94,16.52-47.23a286,286,0,0,1,15.82-26.45c4.36-6.4-6-12.41-10.36-6.06Z" transform="translate(2618.71 2719.67)"/><path class="cls-5" d="M-1365.71,158.14s-14.66,224.75,126,390c0,0,73,25.48,100,90,28,67,2.87,132.52,2.87,132.52l127.06,117.16s114.66-56.23,132.07-194.68C-857.71,534.14-973.71,238.14-1365.71,158.14Z" transform="translate(2618.71 2719.67)"/><path class="cls-3" d="M-983,838.42l-81.89-77.27-11.76-11.1c-5.62-5.3-14.12,3.17-8.49,8.48l81.89,77.28,11.76,11.1c5.62,5.29,14.12-3.18,8.49-8.49Z" transform="translate(2618.71 2719.67)"/><path class="cls-3" d="M-1247.39,689.23c17-74.9,29.38-151.61,30.33-228.56a609.43,609.43,0,0,0-2.5-64.8c-.72-7.62-12.73-7.69-12,0,7.24,76.67-1.15,154.44-15,229.9Q-1252.1,656-1259,686c-1.7,7.52,9.86,10.73,11.57,3.19Z" transform="translate(2618.71 2719.67)"/><rect class="cls-4" x="202.14" y="3505.87" width="617.99" height="617.99" rx="168.84"/><path class="cls-3" d="M-2473.26,911.76v267c0,7-.14,14,.18,21.06a175,175,0,0,0,23,79,177,177,0,0,0,131.46,86.9c21.45,2.59,43.77,1.21,65.32,1.21h214.52c6.76,0,13.53,0,20.29,0a176.87,176.87,0,0,0,69.89-14.54c49.8-21.55,87.9-66.86,100.52-119.64,5.93-24.76,4.81-50.08,4.81-75.31v-216c0-27.12.56-53.76-7.46-80.12-16-52.41-56.63-95.07-108-113.93a176.63,176.63,0,0,0-60.71-10.46h-239.39c-23.29,0-47.2-1.3-70.22,2.73-53.78,9.43-101.37,45.36-125.73,94.15a176.09,176.09,0,0,0-18.47,78c0,7.73,12,7.74,12,0,.23-53.74,27.38-105,72.05-135a162.42,162.42,0,0,1,74.72-27.07c8.72-.84,17.43-.77,26.18-.77h203.08q33.08,0,66.14,0a164.71,164.71,0,0,1,124.51,57,163.15,163.15,0,0,1,35.4,70.35c3,13.37,3.91,26.87,3.91,40.53v271.45c0,42.3-14.31,82.8-43.27,114.06a164.81,164.81,0,0,1-121.23,52.59H-2290c-10.39,0-20.75-.07-31.08-1.54a164.22,164.22,0,0,1-72.95-29.71c-41.92-30.38-67-80-67.18-131.69-.06-19.51,0-39,0-58.53V911.76C-2461.26,904-2473.26,904-2473.26,911.76Z" transform="translate(2618.71 2719.67)"/><rect class="cls-4" x="1813.47" y="3731.16" width="617.99" height="617.99" rx="168.84"/><rect class="cls-4" x="2494.01" y="4401.16" width="617.99" height="617.99" rx="168.84"/><rect class="cls-4" x="1666.97" y="2256.16" width="617.99" height="617.99" rx="168.84"/><rect class="cls-4" x="3950.97" y="2969.16" width="617.99" height="617.99" rx="168.84"/><circle class="cls-7" cx="2122.74" cy="3174.16" r="58.37"/><path class="cls-4" d="M-443.59,454.49c-.26,21.79-13.85,42-34.64,49.31a53,53,0,0,1-58.69-16.61c-13.74-17.09-15.05-41.66-3.6-60.26s33.94-28.29,55.22-23.74a53,53,0,0,1,41.71,51.3c.09,7.72,12.09,7.74,12,0a65.23,65.23,0,0,0-42.21-60.43c-25.05-9.37-54.64-1.42-71.61,19.24-17.14,20.88-19.8,50.95-5.81,74.24a65.15,65.15,0,0,0,67.78,30.09c30-5.7,51.49-33,51.85-63.14C-431.5,446.76-443.5,446.76-443.59,454.49Z" transform="translate(2618.71 2719.67)"/><circle class="cls-8" cx="3023.17" cy="4032.05" r="58.37"/><circle class="cls-5" cx="2712.08" cy="4039.02" r="58.37"/><circle class="cls-2" cx="362.23" cy="2487.8" r="58.37"/><path class="cls-3" d="M-530.76,136h-280.3A173.11,173.11,0,0,1-934.2,84.75,173.14,173.14,0,0,1-985.41-38.39v-280.3A173.14,173.14,0,0,1-934.2-441.83,173.1,173.1,0,0,1-811.06-493h280.3a173.09,173.09,0,0,1,123.13,51.2,173.1,173.1,0,0,1,51.21,123.14v280.3A173.1,173.1,0,0,1-407.63,84.75,173.1,173.1,0,0,1-530.76,136Zm-280.3-618a162.19,162.19,0,0,0-115.36,48,162.22,162.22,0,0,0-48,115.36v280.3A162.2,162.2,0,0,0-926.42,77a162.2,162.2,0,0,0,115.36,48h280.3A162.22,162.22,0,0,0-415.4,77a162.19,162.19,0,0,0,48-115.36v-280.3A162.21,162.21,0,0,0-415.4-434a162.21,162.21,0,0,0-115.36-48Z" transform="translate(2618.71 2719.67)"/><path class="cls-3" d="M233.24-407H-47.06A173.11,173.11,0,0,1-170.2-458.25a173.14,173.14,0,0,1-51.21-123.14v-280.3A173.14,173.14,0,0,1-170.2-984.83,173.1,173.1,0,0,1-47.06-1036h280.3a173.09,173.09,0,0,1,123.13,51.2,173.1,173.1,0,0,1,51.21,123.14v280.3a173.1,173.1,0,0,1-51.21,123.14A173.1,173.1,0,0,1,233.24-407Zm-280.3-618a162.19,162.19,0,0,0-115.36,48,162.22,162.22,0,0,0-48,115.36v280.3a162.2,162.2,0,0,0,48,115.36A162.2,162.2,0,0,0-47.06-418h280.3A162.22,162.22,0,0,0,348.6-466a162.19,162.19,0,0,0,48-115.36v-280.3A162.21,162.21,0,0,0,348.6-977a162.21,162.21,0,0,0-115.36-48Z" transform="translate(2618.71 2719.67)"/><path class="cls-3" d="M1076.24,233H795.94A173.13,173.13,0,0,1,672.8,181.75,173.14,173.14,0,0,1,621.59,58.61v-280.3A173.14,173.14,0,0,1,672.8-344.83,173.12,173.12,0,0,1,795.94-396h280.3a173.09,173.09,0,0,1,123.13,51.2,173.1,173.1,0,0,1,51.21,123.14V58.61a173.1,173.1,0,0,1-51.21,123.14A173.1,173.1,0,0,1,1076.24,233ZM795.94-385a162.19,162.19,0,0,0-115.36,48,162.22,162.22,0,0,0-48,115.36V58.61a162.2,162.2,0,0,0,48,115.36,162.2,162.2,0,0,0,115.36,48h280.3a162.22,162.22,0,0,0,115.36-48,162.19,162.19,0,0,0,48-115.36v-280.3a162.21,162.21,0,0,0-48-115.36,162.21,162.21,0,0,0-115.36-48Z" transform="translate(2618.71 2719.67)"/><path class="cls-3" d="M1834.24,838h-280.3a174.84,174.84,0,0,1-174.35-174.35V383.31A174.83,174.83,0,0,1,1553.94,209h280.3a174.83,174.83,0,0,1,174.34,174.34v280.3A174.84,174.84,0,0,1,1834.24,838Zm-280.3-618a163.83,163.83,0,0,0-163.35,163.34v280.3A163.85,163.85,0,0,0,1553.94,827h280.3a163.83,163.83,0,0,0,163.34-163.35V383.31A163.82,163.82,0,0,0,1834.24,220Z" transform="translate(2618.71 2719.67)"/><g id="hny8yY.tif"><path d="M-493.91-153.18a62,62,0,0,1-61.51-63.34c.53-34.48,28.73-61.27,64-60.79,33.66.46,61,28.88,60.57,62.93A62.17,62.17,0,0,1-493.91-153.18Zm38.43-62A37.88,37.88,0,0,0-492.94-253a37.82,37.82,0,0,0-37.89,37.36c-.25,20.65,16.56,37.92,37.1,38.11A37.84,37.84,0,0,0-455.48-215.21Z" transform="translate(2618.71 2719.67)"/><path d="M-860.5-235.06c7.55,0,14.18.33,20.73-.21,1.8-.15,3.88-2.59,5-4.47,7.9-13.33,15.74-26.7,23.26-40.24,2.59-4.65,5.87-6.7,11.18-6.46,6.75.3,13.52.07,21.69.07-1.84,3.6-2.81,5.72-4,7.73-9.71,16.89-19.31,33.83-29.29,50.56-2.61,4.37-2.69,7.7,0,12.12,10.23,17.09,20.06,34.41,30,51.67,1.16,2,2.12,4.15,3.84,7.56-9.65,0-18,.44-26.21-.28-2.32-.21-4.93-3.48-6.41-5.94-8.19-13.67-16.22-27.44-24-41.36-2.11-3.78-4.43-5.52-8.85-5.19-5.25.4-10.56.1-17,.1,0,10.38,0,20.24,0,30.09,0,9-.23,9.33-9.32,9.27-18.86-.14-16.09,2.13-16.18-16.24-.13-26.34.16-52.68-.17-79-.08-6.53,1.55-9.05,8.49-8.8,20,.73,16.92-2.76,17.17,17.38C-860.42-249.88-860.5-243-860.5-235.06Z" transform="translate(2618.71 2719.67)"/><path d="M-693.37-273.4c9.53,0,17.9-.44,26.17.29,2.28.2,4.82,3.57,6.28,6.05,12.57,21.35,24.91,42.84,37.34,64.28,1.18,2,2.49,4,4.17,6.69,1.6-2.51,2.81-4.26,3.87-6.09,14.95-25.85,30-51.66,44.74-77.63,2.78-4.89,6.18-6.94,11.73-6.64,6.55.35,13.13.08,21.17.08-1.67,3.43-2.55,5.55-3.68,7.51q-33,57.18-66.16,114.33c-6.71,11.58-16.62,11.69-23.31.16q-29.62-51.1-59.1-102.31C-691.19-268.49-692-270.46-693.37-273.4Z" transform="translate(2618.71 2719.67)"/><path d="M-739.87-248.3l-22.71,39.24c7.09,0,13-.56,18.68.22,3.27.45,7.2,2.33,9.16,4.86,4.53,5.86,8,12.49,13.13,20.69-7.34,0-12.89-.79-18.12.14-17.17,3.07-26.22-4.42-34.65-19.36-8.08-14.31-9.91-24.93.25-38.51,8.57-11.44,14.6-24.76,21.86-37.19,6.77-11.6,18.14-11.68,24.81-.16q33.29,57.48,66.46,115c1,1.67,1.7,3.47,3.1,6.36-9.65,0-18.39.39-27.05-.29-2-.15-4.19-3.65-5.58-6q-22.44-38.44-44.63-77C-736.48-242.57-737.83-244.83-739.87-248.3Z" transform="translate(2618.71 2719.67)"/><path d="M-885.83-92.66v-31.72c9.2.45,18.72-2.55,26,5.7,4.14,4.69,4.68,13.37,1.17,18.69C-865.35-89.83-875.7-93.13-885.83-92.66Zm3-2.63c8.42.08,16.67,1.9,21.47-6.43,2.83-4.92,2.71-10.41-.89-14.93-5.5-6.91-13.14-5.27-20.58-4.95Z" transform="translate(2618.71 2719.67)"/><path d="M-702.91-123.91h23.79l0,1.46h-21v12h17.49l.15,2.18-17.84.93v12.5H-679c0,.57,0,1.15-.07,1.73h-23.84Z" transform="translate(2618.71 2719.67)"/><path d="M-591.1-96.33c-6.23,5.23-14.33,5.71-19.47,1.81-4.37-3.31-5.85-10-3.44-15.63a12.21,12.21,0,0,1,14.73-7.09,15.06,15.06,0,0,1,7.86,6.78c2.15,4,.88,7.18-4.84,6.82-4.61-.29-9.26,0-13.89.15-.36,0-.72.42-1.08.65C-609.73-94.47-606.79-93.43-591.1-96.33Zm-3.15-10.14c1-5.77-2-8-6.73-8.63-5.47-.71-9,2.33-10.19,8.63Z" transform="translate(2618.71 2719.67)"/><path d="M-845.77-103.72c2.25,9.2,3.52,9.64,19.58,7.77-4.57,4.92-13.51,5.5-18.79,1.23-4.82-3.9-5.8-12-2.12-17.44,3.55-5.26,11.63-7.52,17.05-4,2.28,1.47,4,4.52,4.94,7.21,1.07,3.09,0,5.51-4.26,5.31C-834.62-103.9-839.88-103.72-845.77-103.72Zm17.7-2.67c.06-6.48-3.12-8.84-8.16-8.71-5.32.13-8.77,2.74-9.53,8.71Z" transform="translate(2618.71 2719.67)"/><path d="M-548.63-103.71c1.68,9.13,4.18,10,19.26,7.68-4.2,5-13.35,5.6-18.68,1.32-4.84-3.89-5.8-12.07-2-17.53s12.8-7.71,17.68-3.51c2.43,2.1,3,6.35,4.41,9.62-2.46.81-4.87,2.09-7.38,2.31C-539.72-103.44-544.12-103.71-548.63-103.71Zm17.18-2.76c1-5.72-2-8.21-6.7-8.57-5.64-.43-9.59,2-10.69,8.57Z" transform="translate(2618.71 2719.67)"/><path d="M-436.27-103.79h-19.57c.75,8.84,2.49,9.49,19.14,7.85-4.5,4.7-12.88,5.46-18.34,1.66-4.77-3.32-6.32-11.07-3.35-16.73,2.83-5.4,9.83-8.17,16-6.08S-434.73-110.46-436.27-103.79Zm-20.09-3h17.74c.2-5.7-2.73-8-7.15-8.3C-451.14-115.42-455.1-113.26-456.36-106.77Z" transform="translate(2618.71 2719.67)"/><path d="M-744-108c-2.3-10-9.66-5.65-16.7-6.24,5.76-3.7,10.68-4.48,14.68-1.94,2.56,1.63,4.24,5.79,4.84,9.08.81,4.45.2,9.16.2,13.61a71.53,71.53,0,0,0-8.13.86c-6.86,1.56-12-.67-12.76-5.73-.77-5.36,2.93-9,10.07-9.6C-749.49-108.19-747.1-108-744-108Zm-.15,4.85c-1.19-.61-3.13-2.35-5.19-2.5-4.28-.31-9.09.48-9.28,5.77-.06,1.7,4.13,4.74,6.64,5.06C-748.14-94.35-744-95.63-744.2-103.17Z" transform="translate(2618.71 2719.67)"/><path d="M-518.95-93v-22.49c2.87-.42,5.55-.43,8-1.23,7.83-2.58,13.93,1,14.63,9.18.41,4.85.08,9.76.08,14.64l-3.17.14c0-4.69.11-9.39,0-14.08-.16-5-3-7.88-8-7.76-4.61.11-8.16,2.22-8.61,7.37-.23,2.63,0,5.3-.1,8-.07,2.19-.31,4.38-.47,6.57Z" transform="translate(2618.71 2719.67)"/><path d="M-662.54-104.78l-8.72-11,1.59-1.45,9.57,10.08,9.58-10.1,2.61.91c-10.42,7.93-10.79,15.61.36,23l-2.56,1.27-10.1-10L-669.82-92l-1.6-1.37Z" transform="translate(2618.71 2719.67)"/><path d="M-815.87-93v-22.28c2.65-.4,5.32-.42,7.71-1.26,8.09-2.84,14.32.92,14.84,9.48.28,4.73.05,9.49.05,14.24l-3,.05c0-3.74,0-7.48,0-11.23-.11-7.26-2.62-10.57-8-10.6-5.74,0-8.94,3.64-9,10.51-.05,3.74,0,7.48,0,11.21Z" transform="translate(2618.71 2719.67)"/><path d="M-621.43-113.39c-6.11-1.56-12.66-3.81-16.63,2.65-1.73,2.81-2.08,8-.61,10.92,3.78,7.41,10.84,5.33,18.58,2.56-6,6.41-14,6.67-19.3,2a13.17,13.17,0,0,1-1.05-17.94C-635.64-118.74-627.26-119.1-621.43-113.39Z" transform="translate(2618.71 2719.67)"/><path d="M-466.63-96.32c-4.48,5.58-12.63,5.69-17.74.82a13.14,13.14,0,0,1-.17-18.45c5.22-5.07,13.79-4.94,19.11,1.21-7.39-2.27-14.62-4.58-18.3,3.44-1.29,2.83-.85,7.73.85,10.37C-479-92.83-472.75-94.17-466.63-96.32Z" transform="translate(2618.71 2719.67)"/><path d="M-785.2-116.25l5.24-6.86,1.48,5.66,9.48,1.13,0,1.19-9.35,1c-3.16,16.65-1.47,19.65,10.33,18.76l.26,1.86c-3.46.27-7.17,1.4-10.27.48-1.87-.55-3.4-4.15-4-6.63-.69-2.94.16-6.21-.33-9.23C-782.72-111.31-784.11-113.57-785.2-116.25Z" transform="translate(2618.71 2719.67)"/><path d="M-728.29-125.52v11.86c0,3.74,0,7.48,0,11.22,0,6.66.06,6.66,5.85,8.61-6.26,2.65-8.68,1.47-8.81-4.73-.19-9,0-17.93,0-26.89Z" transform="translate(2618.71 2719.67)"/><path d="M-572.5-94.23c-7.68,2.72-9.47,1.69-9.58-4.79-.16-8.8,0-17.6,0-26.4l2.37-.13c.24,2.36.64,4.72.68,7.08.1,5.49,0,11,.05,16.48C-579-98-579.74-93.35-572.5-94.23Z" transform="translate(2618.71 2719.67)"/><path d="M-563.1-125.42c0,7.81.07,15.62,0,23.43-.06,4.22,0,8.16,6.21,8.19-3.77,1.63-8.28,2.89-8.73-2-.9-9.8-.27-19.74-.27-29.62Z" transform="translate(2618.71 2719.67)"/><path class="cls-4" d="M-455.48-215.21a37.84,37.84,0,0,1-38.25,37.65c-20.54-.19-37.35-17.46-37.1-38.11A37.82,37.82,0,0,1-492.94-253,37.88,37.88,0,0,1-455.48-215.21Z" transform="translate(2618.71 2719.67)"/><path class="cls-4" d="M-882.83-95.29V-121.6c7.44-.32,15.08-2,20.58,4.95,3.6,4.52,3.72,10,.89,14.93C-866.16-93.39-874.41-95.21-882.83-95.29Z" transform="translate(2618.71 2719.67)"/><path class="cls-4" d="M-594.25-106.47h-16.92c1.15-6.3,4.72-9.34,10.19-8.63C-596.3-114.49-593.29-112.24-594.25-106.47Z" transform="translate(2618.71 2719.67)"/><path class="cls-4" d="M-828.07-106.39h-17.69c.76-6,4.21-8.58,9.53-8.71C-831.19-115.23-828-112.87-828.07-106.39Z" transform="translate(2618.71 2719.67)"/><path class="cls-4" d="M-531.45-106.47h-17.39c1.1-6.6,5.05-9,10.69-8.57C-533.41-114.68-530.44-112.19-531.45-106.47Z" transform="translate(2618.71 2719.67)"/><path class="cls-4" d="M-456.36-106.77c1.26-6.49,5.22-8.65,10.59-8.3,4.42.3,7.35,2.6,7.15,8.3Z" transform="translate(2618.71 2719.67)"/><path class="cls-4" d="M-744.2-103.17c.22,7.54-3.94,8.82-7.83,8.33-2.51-.32-6.7-3.36-6.64-5.06.19-5.29,5-6.08,9.28-5.77C-747.33-105.52-745.39-103.78-744.2-103.17Z" transform="translate(2618.71 2719.67)"/></g><g id="dQurOd.tif"><path class="cls-9" d="M1027.39-90.68c7.32-18.52,14.26-33.8,19.32-49.68,3.25-10.19,8.22-13.45,18.88-12.84,17.59,1,17.62.24,11,16.62Q1054-80.45,1031.42-24.31c-1,2.46-1.61,5-5.15,7.4-8.42-20.92-16.69-41.5-26.31-65.43-9.49,23.82-17.76,44.61-26.37,66.23-5.13-3.15-4.82-8.31-6.24-12.07-14.67-38.72-28.81-77.64-43.47-116.36-2.43-6.42-2.14-8.47,5.51-8.59,22.18-.36,22.2-.67,29.11,19.93,4.34,12.94,8.62,25.91,14.1,42.43,9.7-21.16,18.1-39.46,27.51-60Z" transform="translate(2618.71 2719.67)"/><path class="cls-9" d="M830.9-17.92c10.72-15.2,21.28-30.52,32.29-45.52,3.23-4.4.68-7.08-1.43-10.09-7.64-10.94-15.44-21.78-23.15-32.68-1.51-2.12-4.42-4.14-3.26-6.86,1.53-3.62,5.4-1.31,8.18-1.94,16.15-3.64,24.92,5.43,31.43,18.12,3.83,7.45,7.42,7.71,11.56.27a112,112,0,0,1,6.28-9.54c5-7.17,24-12.61,31.76-8.62,5.65,2.92.5,5.7-1.1,7.9-7,9.73-14.33,19.29-21.61,28.85-5.19,6.81-5.44,12.82.3,20.06,9.7,12.24,18.22,25.4,27.37,38.07,3.38,4.69,3.86,6.56-3.34,7.3-14.63,1.51-26.3-1.16-32.87-15.86-2-4.44-5.71-8.09-8.38-12.27-3-4.71-5.54-4.59-8.15.24-.54,1-1.62,1.73-2,2.75-9.52,23.05-27.6,27.21-50.67,25.33-23.66-1.93-23.78-.5-23.78-24.34,0-22.08.61-44.19-.24-66.24-.42-10.79,3.36-14.32,13.53-12.75a20.51,20.51,0,0,0,5.75,0c7.34-1,9.06,2.47,9,9.16-.3,26.27-.15,52.54-.16,78.81v8.78Z" transform="translate(2618.71 2719.67)"/><path class="cls-9" d="M1132.33-50.56c0,10.49-.11,21,0,31.48.13,8.4-6.34,6.73-10.55,6.07-5-.77-14.14,4.73-14.3-5.65-.51-31-.19-62.07-.19-96.21l65.85,62.68c0-19.45.69-35.66-.26-51.77-.57-9.54,2.57-12,11.53-11.15,7.18.69,13.88-1.52,13.58,10.54-.88,35.4-.24,70.83-.23,106.25,0,2.14-.36,4.28-.73,8.49L1136-52.33Z" transform="translate(2618.71 2719.67)"/><path class="cls-9" d="M752.64-82.67c9.13-21.84,17.43-40.22,24.43-59.07,3.36-9,8.28-12.75,17.67-11.25a27.7,27.7,0,0,0,8,.08c9.54-1.31,9.92,1.91,6.35,9.81-18.35,40.53-36.19,81.28-54.2,122-.75,1.7-1,3.73-4,4.62-5.53-7.87-8.18-17.34-12.12-26.13q-21.88-48.8-43.4-97.75c-5.43-12.38-5.19-12.48,8.25-12.51,18.64,0,18.48,0,25.94,17.62C736.66-118.63,744.1-102.12,752.64-82.67Z" transform="translate(2618.71 2719.67)"/><path class="cls-9" d="M1098.66-64.09c0,14.1-.28,28.21.12,42.29.19,6.83-1.92,9.19-9.11,9.17-17.33,0-17.39.34-17.4-17,0-25.53.56-51.07-.17-76.58-.37-12.78,8-9,14.53-9.4s12.81-1.25,12.1,9.27c-.94,14-.23,28.18-.23,42.28Z" transform="translate(2618.71 2719.67)"/><path class="cls-10" d="M1137.72,17.07c-5.62,2.17-10.08,12.48-17.24,1.23-2.29-3.59-3.66,3.71-5.5,5.92-2.08,2.48-3,7.63-7.09,5.82-5-2.21-.35-5.76.73-8.4,2.45-6,5.57-11.63,8.15-17.53,1.15-2.62,2.5-5,5.48-5.12,3.84-.2,5.07,2.75,5.78,5.88,1.9,8.35,5,8,11.44,3.05,4.27-3.3,8.87-12.37,14.48-7.51,4.62,4-3.25,10.37-4.88,15.92a24.51,24.51,0,0,1-1.94,4.12c-2.14,4.19-3.25,11.54-9.2,9.39C1131.4,27.47,1140.67,22.53,1137.72,17.07Z" transform="translate(2618.71 2719.67)"/><path class="cls-10" d="M703.65,30.85C696.08,32.18,693.32,29.1,699,20,701.33,16.21,703,12,705,7.9a18.34,18.34,0,0,1,22.45-9.25c4,1.32,3.14,3.58,1.93,6.07-3.46,7.13-7.2,14.14-10.5,21.34C716.12,32.17,710.8,30.3,703.65,30.85Z" transform="translate(2618.71 2719.67)"/><path class="cls-10" d="M1032.88,5.47c-3.14,6.35-7,15-11.68,23.16-1.86,3.26-5.38,2.32-7.59-.58a52.42,52.42,0,0,1-4.91-7.63c-3.14-6-5.6-7.81-9.56-.23-2.07,3.95-2.87,13.12-9.75,9-4.68-2.77,1.83-8.33,3.78-12.51.64-1.37,1.34-2.71,2-4.09,7.86-17,8-17,19-2.43,3.76,5,6,4.85,8.46-.82a47.09,47.09,0,0,1,5-8.85c.64-.89,2.77-1.31,4-1C1033.22-.16,1033.77,1.48,1032.88,5.47Z" transform="translate(2618.71 2719.67)"/><path class="cls-10" d="M841.21,27.42c9.54-9,18.85-18.28,28.85-26.8,4.52-3.85,8.82-2.61,9,4.33s.19,13.71.18,20.56c0,3.74-2.54,7.05-5.44,4.11-9.05-9.21-17.11-4.22-25.57.25C846.48,30.81,844.64,30.87,841.21,27.42Z" transform="translate(2618.71 2719.67)"/><path class="cls-10" d="M777.94,4.15c-2.05,8.36-5.65,14.75-14.93,15.18-8.2.39-17.15-1.52-20.67,9.27-.6,1.82-3.05,2.46-4.88,1.3s-1.5-3.28-.65-5.06c3.58-7.51,7-15.14,10.94-22.43C750-1.69,773.69-3.18,776.56.32,777.44,1.38,777.57,3,777.94,4.15Zm-17.35,1.2c-2.87.86-7.61-.9-7.85,4.18-.17,3.92,3.64,3.07,6.09,3.05,3.34,0,8,.55,8.57-3.68C768.1,3.93,763.28,6.2,760.59,5.35Z" transform="translate(2618.71 2719.67)"/><path class="cls-10" d="M1063,30.58c-15.4-.12-16.54-1.86-10-15.39,2.16-4.43,4.37-8.84,6.74-13.17,1.4-2.57,3.76-4.21,6.59-2.55,2.57,1.51,1.28,3.91.26,6-1.5,3.07-3.29,6.05-4.34,9.26-.91,2.76-5.77,6.66-.7,8.37,4.28,1.44,10.68,3.37,13.86-3.44q3.86-8.22,8-16.32c1.22-2.38,3.51-2.95,5.86-2,1.7.65,1.27,2.41,1.2,3.9C1089.76,19.37,1077.53,30.69,1063,30.58Z" transform="translate(2618.71 2719.67)"/><path class="cls-10" d="M678.84,30.59c-6.37.47-8.8-1.43-5.4-7.75S679.88,10,682.92,3.48s9.24-6.18,13.69-4.22c6.2,2.72.37,7-.81,10.32-1.75,5-4.32,9.64-6.39,14.51S684.11,31.34,678.84,30.59Z" transform="translate(2618.71 2719.67)"/><path class="cls-10" d="M926.83-1.26a16.25,16.25,0,0,1,3.42,0c4.18.93,11.37-2.46,12,2.53.94,6.86-6.61,3.48-10.41,4.54-4.79,1.34-6.09,5.4-8,9-2.12,4-3.78,8.24-5.94,12.22-1.32,2.42-3.61,4.44-6.56,3.16-4.19-1.81-.76-4.44-.06-6.53a82.18,82.18,0,0,1,4-9.38c2-4.27,4.88-8.66-3.53-8.91a2.69,2.69,0,0,1-2.56-3.13C909.44,0,911.08-1,913.11-1c4.57-.13,9.14,0,13.72,0Z" transform="translate(2618.71 2719.67)"/><path class="cls-10" d="M805.35,30.61c-3.07,0-6.13,0-9.2,0-3.72-.06-4.72-1.88-3.25-5.18,3.08-6.92,6.22-13.82,9.21-20.77,1.22-2.84,3.21-4.71,6.12-3.29,3.07,1.49.64,3.81,0,5.79-1.09,3.21-1.76,6.61-3.24,9.63-3.11,6.34.33,6.84,5.43,7.1,3.38.17,9.42-2.48,9.58,2.6.18,5.81-6.18,3.71-10,4.16a41.32,41.32,0,0,1-4.59,0Z" transform="translate(2618.71 2719.67)"/><path class="cls-10" d="M671.58-1.29c3.71.2,4.6,2.09,3.1,5.27-3.7,7.85-7.3,15.75-11.24,23.49a5.62,5.62,0,0,1-7.84,2.6c-3.6-1.84-.85-4.79,0-6.85,3-6.93,6.35-13.7,9.63-20.5A6.45,6.45,0,0,1,671.58-1.29Z" transform="translate(2618.71 2719.67)"/><path class="cls-10" d="M974.86,2.55c-5.29,8.63-8,19.17-15,27.36-.66.76-3.09.7-4.31.17-2.31-1-1.64-3-.77-4.8q5.81-11.75,11.69-23.45A5.22,5.22,0,0,1,972.14-1C973.93-.83,974.72.3,974.86,2.55Z" transform="translate(2618.71 2719.67)"/><path class="cls-11" d="M760.59,5.35c2.69.85,7.51-1.42,6.81,3.55-.6,4.23-5.23,3.65-8.57,3.68-2.45,0-6.26.87-6.09-3.05C753,4.45,757.72,6.21,760.59,5.35Z" transform="translate(2618.71 2719.67)"/></g><path class="cls-12" d="M165-695.39c2-2.78,1.27-5,1.28-7.13.06-22.8,0-45.6,0-68.4,0-9.11,1.23-10.3,10.43-10.3,5.61,0,11.23.21,16.83-.06,5.84-.28,7.82,2.95,8.17,8,.11,1.59,0,3.2,0,4.8q0,63.29,0,126.59c0,10.33-1.67,10.68-11.54,12.1-15.87,2.3-25.14-4.44-33.68-17.12-15.17-22.52-32.05-43.89-48.22-65.74-.82-1.1-1.72-2.13-2.87-3.56-1.66,2.2-1.05,4.42-1.05,6.43,0,23.2,0,46.4,0,69.59,0,8.44-1.78,10.14-10.2,10.14-6,0-12,0-18,0-4.43,0-6.53-2.45-7-6.57a36.54,36.54,0,0,1-.07-4.19V-770.4c0-10,.89-10.82,11.08-10.82,3,0,6.09.44,9-.08,9.2-1.62,14.42,2.78,19.57,10,17.55,24.55,35.82,48.58,53.82,72.8C163.17-697.58,163.92-696.69,165-695.39Z" transform="translate(2618.71 2719.67)"/><path class="cls-12" d="M222.87-705.76q0-33,0-66c0-8.16,1.34-9.47,9.4-9.47q41.79,0,83.58,0c7.68,0,9,1.33,9,9.18,0,5.8.05,11.6,0,17.4-.07,6.16-2.06,8.18-8.36,8.2-17.43,0-34.87.17-52.31-.1-4.88-.07-7,1.19-6.52,6.33a67.69,67.69,0,0,1,0,11.39c-.29,4.27,1.54,5.53,5.63,5.49,17-.16,34.07-.08,51.11-.08,8.62,0,10.44,1.85,10.45,10.57,0,5.2,0,10.4,0,15.59,0,7-2.21,9.19-9.37,9.22-16.84,0-33.68.27-50.51-.14-6-.14-7.46,1.88-7.36,7.53.3,15.71.08,15.71,15.7,15.71,14.23,0,28.46,0,42.69,0,7.4,0,8.81,1.45,8.85,8.77,0,6-.05,12,0,18,.07,5.42-2.39,8.11-7.93,8.1-28.67,0-57.33,0-86,0-6,0-8.06-2.2-8.08-8.5Q222.82-672.17,222.87-705.76Z" transform="translate(2618.71 2719.67)"/><path class="cls-13" d="M-108.08-705.5q0-32.65,0-65.33c0-9.79.63-10.39,10.7-10.38,5.21,0,10.42,0,15.62,0,6.92,0,8.49,1.67,8.49,9.15q0,49.45,0,98.9c0,8.26,0,8.25,8,8.25q24.93,0,49.86,0c7.12,0,9.17,2.08,9.24,9.32,0,5.79.12,11.59,0,17.38s-2.56,8.14-8.55,8.14q-42.35,0-84.7,0c-7.32,0-8.64-1.36-8.65-8.9Q-108.11-672.24-108.08-705.5Z" transform="translate(2618.71 2719.67)"/><path class="cls-12" d="M12.48-705.47q0-33.27,0-66.54c0-7.63,1.6-9.19,9.07-9.21,5.81,0,11.62,0,17.43,0,6.63,0,8.62,1.85,8.69,8.45.11,10.79,0,21.58,0,32.37q0,49.46,0,98.92c0,10.18-1.26,11.43-11.25,11.42-5,0-10,0-15,0-7,0-8.92-1.9-8.94-8.86Q12.44-672.19,12.48-705.47Z" transform="translate(2618.71 2719.67)"/></svg>