<?xml version="1.0" encoding="UTF-8"?>
<svg width="150px" height="28px" viewBox="0 0 150 28" version="1.1" xmlns="http://www.w3.org/2000/svg" xmlns:xlink="http://www.w3.org/1999/xlink">
    <title>Fill 243</title>
    <g id="Page-1" stroke="none" stroke-width="1" fill="none" fill-rule="evenodd">
        <g id="Artboard" transform="translate(-5036.000000, -918.000000)" fill="#00A1E1">
            <path d="M5138.91196,929.465925 C5138.82449,929.051694 5138.80138,928.647903 5138.8544,928.264768 C5138.95433,927.49895 5139.36198,926.801226 5140.0096,926.258299 C5140.65269,925.719685 5141.50765,925.34699 5142.31843,925.280259 C5143.14687,925.203768 5144.02495,925.407138 5144.69205,925.841798 C5145.02561,926.057198 5145.30319,926.325257 5145.49739,926.624865 C5145.53682,926.684787 5145.57013,926.747205 5145.60276,926.810305 C5145.19216,926.983714 5144.77997,927.15667 5144.36847,927.327583 C5143.63066,927.63332 5142.89082,927.933156 5142.14938,928.227998 C5141.07394,928.654486 5139.99442,929.069625 5138.91196,929.465925 L5138.91196,929.465925 Z M5154.22283,925.053964 L5154.19337,924.83652 C5154.16799,924.666061 5154.14148,924.517846 5154.10907,924.358055 C5154.04631,924.044147 5153.96541,923.731828 5153.86707,923.423594 C5153.47799,922.191568 5152.78233,921.019236 5151.8143,920.106565 C5150.85171,919.189582 5149.62988,918.551552 5148.35254,918.263065 C5147.07475,917.966408 5145.75027,918.012484 5144.53321,918.32049 C5143.52325,918.578562 5142.58037,919.001419 5141.73788,919.54548 C5140.94387,919.043182 5140.07011,918.635533 5139.12972,918.379277 C5137.98131,918.064007 5136.73501,917.969131 5135.50889,918.18612 C5134.2848,918.39857 5133.09039,918.921069 5132.10378,919.717301 C5131.11376,920.509221 5130.34672,921.563525 5129.86384,922.708619 C5129.62183,923.280826 5129.44622,923.875504 5129.33156,924.475174 C5129.22483,925.074391 5129.16591,925.654996 5129.15798,926.260115 C5129.13985,927.460364 5129.34651,928.687397 5129.77796,929.819781 C5130.2017,930.955342 5130.8534,931.983771 5131.58328,932.868297 C5131.76433,933.09028 5131.95014,933.30341 5132.13074,933.5061 L5132.39156,933.798445 C5132.46928,933.886058 5132.54293,933.97072 5132.59028,934.029961 C5132.60751,934.091925 5132.62699,934.17568 5132.64512,934.257845 C5132.69497,934.485956 5132.74165,934.736537 5132.78856,934.990524 C5132.83365,935.260625 5132.88237,935.562731 5132.93494,935.888214 C5133.82638,941.42053 5134.79079,946 5137.56731,946 C5139.84419,946 5140.40797,943.712762 5140.82038,942.042898 C5141.04244,941.141349 5141.34654,939.906372 5141.7449,939.906372 C5142.14236,939.906372 5142.44691,941.141349 5142.66897,942.042898 C5143.08093,943.712762 5143.64494,946 5145.92204,946 C5147.41782,946 5148.61019,944.544402 5149.56666,941.548998 C5150.15446,939.707768 5150.56597,937.521988 5150.68946,935.643988 C5150.00287,935.932248 5148.98453,936.286784 5148.14996,936.512172 C5147.9995,937.775521 5147.72577,939.141917 5147.36955,940.359417 C5146.73666,942.524996 5146.09901,943.356182 5145.86221,943.536628 C5145.52821,943.408841 5145.24043,942.24173 5145.046,941.454576 C5144.65308,939.861885 5144.05962,937.453669 5141.7449,937.453669 C5139.42974,937.453669 5138.83627,939.861885 5138.44335,941.454576 C5138.25867,942.20269 5137.95593,943.431311 5137.61581,943.54026 C5137.48279,943.433127 5136.96207,942.892924 5136.36951,940.683085 C5135.91427,938.988481 5135.58865,936.970436 5135.35095,935.497361 C5135.29792,935.165522 5135.2483,934.858424 5135.20184,934.582421 L5135.20184,934.581513 C5135.16015,934.316405 5135.11823,934.0488 5135.06339,933.761448 C5135.03461,933.614368 5135.00629,933.471146 5134.95326,933.278443 C5134.93899,933.228735 5134.92335,933.175396 5134.89956,933.108211 C5134.88732,933.075072 5134.8735,933.038075 5134.85356,932.991091 C5134.83226,932.943199 5134.81096,932.894172 5134.75929,932.804744 L5134.72666,932.750497 L5134.65959,932.648357 C5134.62651,932.600465 5134.59592,932.558475 5134.56668,932.520343 C5134.45248,932.371673 5134.35731,932.260909 5134.26621,932.155138 L5134.00608,931.854622 C5133.83953,931.661919 5133.68295,931.476026 5133.53384,931.288316 C5132.93947,930.541338 5132.46815,929.757816 5132.15113,928.920956 C5131.83593,928.084549 5131.68661,927.199115 5131.70111,926.295296 C5131.70587,925.847926 5131.75595,925.377405 5131.83435,924.941383 C5131.91253,924.50627 5132.03217,924.085003 5132.19532,923.686433 C5132.52072,922.888838 5133.02445,922.187028 5133.67139,921.65545 C5134.31675,921.122737 5135.10237,920.762526 5135.94668,920.60387 C5136.79076,920.442944 5137.68832,920.468365 5138.57999,920.649719 C5139.47234,920.832435 5140.36174,921.15928 5141.22758,921.590989 L5141.84325,921.898315 L5142.26178,921.590989 L5142.26178,921.590535 C5143.18109,921.153606 5144.10947,920.806787 5145.04872,920.635874 C5145.98344,920.460648 5146.9227,920.451115 5147.79941,920.657209 C5148.67386,920.861942 5149.47534,921.290246 5150.11141,921.901946 C5150.75042,922.512285 5151.22038,923.301027 5151.49298,924.176928 C5151.56142,924.396187 5151.61829,924.619985 5151.66271,924.848777 C5151.68423,924.959768 5151.70508,925.084605 5151.72004,925.186972 L5151.74587,925.381036 L5151.76445,925.551722 C5151.81226,926.02701 5151.81475,926.501617 5151.77238,926.968053 C5151.68741,927.901379 5151.40937,928.80202 5150.95322,929.604154 C5150.49821,930.406968 5149.86532,931.108778 5149.1146,931.651705 C5148.73663,931.924984 5148.34189,932.152641 5147.90637,932.346706 C5147.46926,932.544402 5147.00224,932.70896 5146.52887,932.844692 C5145.58032,933.114339 5144.59099,933.258242 5143.64358,933.232367 C5142.69639,933.20808 5141.79271,933.003348 5141.05808,932.585939 C5140.68986,932.378029 5140.36174,932.118822 5140.0794,931.809908 C5140.04314,931.770868 5140.01006,931.727969 5139.97493,931.686433 C5141.00709,931.305794 5142.03223,930.91199 5143.05147,930.507292 C5143.80514,930.208364 5144.55541,929.903308 5145.30365,929.593486 C5146.05346,929.282755 5146.79467,928.970663 5147.54743,928.643364 L5148.35481,928.29314 L5148.27867,927.427226 L5148.27822,927.424502 C5148.22633,926.678432 5147.98115,925.926687 5147.57893,925.29592 C5147.17966,924.66243 5146.64466,924.145378 5146.05392,923.757022 C5144.86767,922.981445 5143.4759,922.665948 5142.10746,922.774216 C5141.9357,922.788061 5141.76484,922.808262 5141.59444,922.836861 C5141.50765,922.851614 5141.4297,922.865006 5141.33294,922.885888 L5141.20854,922.913125 L5141.08776,922.941951 C5140.7558,923.02457 5140.43538,923.133519 5140.12381,923.262895 C5139.50315,923.52301 5138.91898,923.869829 5138.39032,924.306077 C5137.86257,924.742779 5137.39079,925.273903 5137.02869,925.891959 C5136.66454,926.507519 5136.42208,927.21001 5136.32691,927.92158 C5136.22947,928.633831 5136.27683,929.346082 5136.41755,930.008625 C5136.55781,930.667537 5136.79552,931.299892 5137.06472,931.852806 C5137.36088,932.465415 5137.72979,933.026953 5138.1959,933.537877 C5138.65794,934.045622 5139.20721,934.480508 5139.80113,934.815979 C5140.99554,935.491006 5142.31775,935.759292 5143.57129,935.794927 C5144.83277,935.827839 5146.05346,935.643988 5147.22838,935.313284 C5147.81663,935.146229 5148.39288,934.937638 5148.96119,934.679113 C5149.5329,934.419906 5150.0994,934.091698 5150.61423,933.713556 C5151.64843,932.955229 5152.52469,931.974238 5153.15418,930.849345 C5153.78617,929.725586 5154.16459,928.461556 5154.27155,927.191398 C5154.32593,926.556318 5154.31755,925.920104 5154.25115,925.295239 L5154.22283,925.053964 Z M5161.06613,929.693582 L5164.81748,929.693582 C5163.36974,927.847813 5162.34959,925.969358 5161.46132,923.925892 L5165.1669,923.925892 C5163.71938,922.080577 5162.69923,920.202122 5161.81096,918.158656 L5158.586,918.158656 C5159.37592,920.168984 5160.26419,922.113261 5161.41577,923.925892 L5158.23658,923.925892 C5159.02628,925.93622 5159.91455,927.880724 5161.06613,929.693582 L5161.06613,929.693582 Z M5169.56927,933.703115 L5174.28753,933.703115 L5174.28753,931.196391 L5169.56927,931.196391 L5169.56927,933.703115 Z M5169.56927,927.390002 C5169.56927,926.977813 5169.85434,926.628951 5170.23412,926.628951 L5174.28753,926.628951 L5174.28753,929.102763 L5169.56927,929.102763 L5169.56927,927.390002 Z M5177.04298,933.703115 L5181.88926,933.703115 L5181.88926,931.196391 L5177.04298,931.196391 L5177.04298,933.703115 Z M5177.04298,926.628951 L5181.06512,926.628951 C5181.47685,926.628951 5181.88926,926.945809 5181.88926,927.358225 L5181.88926,929.102763 L5177.04298,929.102763 L5177.04298,926.628951 Z M5169.56927,935.733417 L5174.28753,935.733417 L5174.28753,941.379901 L5177.04298,941.379901 L5177.04298,935.733417 L5181.88926,935.733417 L5181.88926,939.15894 C5181.88926,939.540033 5181.60374,939.793565 5181.16052,939.793565 L5178.72185,939.793565 L5179.54486,941.823867 L5181.9203,941.823867 C5182.71204,941.823867 5183.44101,941.570334 5183.94678,941.062589 C5184.35919,940.650173 5184.61208,940.110878 5184.61208,939.444476 L5184.61208,927.326448 C5184.61208,926.533167 5184.35919,925.899223 5183.94678,925.45503 C5183.44101,924.915508 5182.71204,924.661749 5181.9203,924.661749 L5177.29677,924.661749 C5177.2016,924.566646 5177.04298,924.40799 5176.94826,924.28111 C5178.91197,923.456279 5180.87523,922.599444 5182.55365,921.140668 C5183.09228,920.664473 5183.12355,919.935198 5182.80721,919.363899 C5182.55365,918.856608 5182.01593,918.475742 5181.31846,918.475742 L5167.16166,918.475742 L5167.16166,920.600692 L5178.94301,920.600692 C5178.0876,921.203995 5176.1248,922.155479 5174.98455,922.441242 C5174.79443,922.219259 5174.50937,921.901946 5174.38315,921.679964 L5170.70907,921.679964 C5171.37414,922.536118 5172.45094,923.710038 5173.36912,924.661749 L5169.72767,924.661749 C5168.87225,924.661749 5168.17569,924.820405 5167.66901,925.201044 C5167.16166,925.581683 5166.87659,926.216762 5166.87659,927.167792 L5166.87659,941.823867 L5169.56927,941.823867 L5169.56927,935.733417 Z M5171.52687,943.166657 C5167.57905,943.166657 5164.69217,942.478012 5163.38062,941.625489 C5164.07945,940.182375 5165.30331,937.719458 5165.67335,935.833967 C5165.83786,934.995744 5165.83129,933.607104 5165.48346,933.100494 C5165.1669,932.718947 5164.65977,932.496964 5163.93125,932.496964 L5158.586,932.377802 C5158.586,932.377802 5158.54952,935.136242 5158.54952,935.180049 C5158.54952,935.223855 5162.85445,935.167338 5162.85445,935.167338 C5163.01285,935.167338 5163.13952,935.389548 5163.07629,935.548204 C5162.12662,938.689099 5160.09946,942.553368 5157.91436,945.72604 L5161.17626,945.72604 C5161.71488,944.964308 5161.92381,944.544402 5162.46198,943.528684 C5163.38062,944.512399 5166.76783,945.72604 5169.75871,945.72604 L5184.80242,945.72604 L5186,943.166657 L5171.52687,943.166657 Z M5118.92135,920.696249 L5123.92807,920.696249 L5123.92807,918.507519 L5100.67149,918.507519 L5100.67149,920.696249 L5115.94406,920.696249 L5115.94406,928.563695 L5104.47904,928.563695 C5104.06776,928.563695 5103.6243,928.246837 5103.6243,927.739318 L5106.01176,922.060603 L5103.09814,922.060603 C5103.09814,922.060603 5100.90556,927.243602 5100.82739,927.450604 C5100.74898,927.657834 5100.71749,928.026443 5100.73086,928.188504 C5100.78932,928.884639 5100.97241,929.421211 5101.28059,929.832492 C5101.78726,930.49912 5102.54728,930.847983 5103.49741,930.847983 L5115.94406,930.847983 L5115.94406,942.364751 C5115.94406,942.935596 5115.5321,943.284458 5114.99393,943.284458 L5111.41207,943.284458 L5112.48842,945.852693 L5116.03923,945.852693 C5116.79948,945.852693 5117.68593,945.536061 5118.28733,944.869432 C5118.66756,944.425467 5118.92135,943.886398 5118.92135,943.188447 L5118.92135,930.847983 L5125.50135,930.847983 L5125.50135,928.563695 L5118.92135,928.563695 L5118.92135,920.696249 Z M5109.51521,932.560971 C5107.01333,936.463145 5102.51578,940.967486 5098.39892,944.584123 L5102.579,944.584123 C5106.22091,941.221245 5110.52811,936.463145 5112.80883,932.560971 L5109.51521,932.560971 Z M5082.27977,929.420303 C5082.27977,929.166544 5082.53288,928.945015 5082.75472,928.945015 L5084.37015,928.945015 C5084.59176,928.945015 5084.7812,929.19832 5084.7812,929.420303 L5084.7812,929.959825 C5084.7812,930.181581 5084.62281,930.403564 5084.40142,930.403564 L5082.75472,930.403564 C5082.50116,930.403564 5082.27977,930.181581 5082.27977,929.927822 L5082.27977,929.420303 Z M5080.12594,930.43534 C5080.12594,930.942859 5080.28456,931.323952 5080.56917,931.608807 C5080.82274,931.894343 5081.23447,932.021676 5081.7416,932.021676 L5085.415,932.021676 C5085.89041,932.021676 5086.27019,931.86302 5086.55502,931.577484 C5086.80836,931.291948 5086.96721,930.911309 5086.96721,930.46689 L5086.96721,929.00766 C5086.96721,928.531919 5086.84008,928.183056 5086.61892,927.897747 C5086.33341,927.548885 5085.89041,927.358225 5085.38305,927.358225 L5081.83631,927.358225 C5081.36136,927.358225 5080.98135,927.453782 5080.69629,927.675084 C5080.31606,927.992623 5080.12594,928.468592 5080.12594,929.071441 L5080.12594,930.43534 Z M5080.474,926.501617 L5086.90376,926.501617 L5086.90376,924.883505 L5080.474,924.883505 L5080.474,926.501617 Z M5080.474,924.0589 L5086.87181,924.0589 L5086.87181,922.473018 L5080.474,922.473018 L5080.474,924.0589 Z M5087.88493,927.326448 C5087.82217,928.595926 5087.53665,930.594223 5087.09387,931.957896 L5088.80379,931.957896 C5089.1523,930.720876 5089.46909,928.563695 5089.46909,927.326448 L5087.88493,927.326448 Z M5079.20776,927.390002 L5077.78222,927.390002 C5077.81463,928.531919 5078.03602,930.720876 5078.28913,931.989446 L5079.80938,931.989446 C5079.55627,930.847983 5079.23926,928.690802 5079.20776,927.390002 L5079.20776,927.390002 Z M5094.66275,919.744538 L5092.25604,919.744538 C5092.0027,920.093628 5091.46407,920.696249 5091.11534,921.045338 L5089.81737,921.045338 C5090.51439,920.284288 5091.78108,918.761278 5092.35098,918 L5089.94382,918 C5089.40564,918.665721 5088.32839,919.935198 5087.69572,920.600692 L5087.69572,919.744538 L5084.94005,919.744538 C5084.7812,919.3008 5084.56004,918.475742 5084.52854,918.063326 L5081.96298,918.063326 C5082.0577,918.507519 5082.24759,919.3008 5082.40599,919.744538 L5079.93582,919.744538 L5079.93582,920.252284 L5077.90935,920.252284 C5077.75095,920.442717 5077.3075,920.886682 5077.08611,921.109119 L5075.72379,921.109119 C5076.45231,920.379391 5077.8774,918.887931 5078.60591,918.094649 L5075.91368,918.094649 C5075.28034,918.793055 5073.94997,920.188731 5073.31708,920.823356 C5073.0003,921.109119 5073.0003,921.64796 5073.15869,921.997049 C5073.31708,922.314362 5073.66559,922.568348 5074.10859,922.568348 L5075.62885,922.568348 C5074.9955,923.265619 5073.9187,924.40799 5073.15869,925.137945 C5072.87363,925.423254 5072.8419,925.80412 5073.0003,926.121205 C5073.12696,926.438064 5073.4433,926.69205 5073.82398,926.69205 L5080.25284,926.69205 C5079.90455,925.867446 5079.52432,924.40799 5079.42915,923.551382 L5077.68728,923.551382 C5077.719,923.995574 5077.8774,924.693979 5077.97257,925.105941 L5075.75529,925.105941 C5076.83255,924.0589 5078.98615,921.83862 5079.93582,920.854906 L5079.93582,921.584861 L5087.47388,921.584861 C5087.56905,921.87017 5087.69572,922.123702 5087.94929,922.283039 C5088.13872,922.409692 5088.39229,922.472791 5088.70862,922.472791 L5089.7537,922.472791 C5089.40564,922.948533 5088.42356,923.995574 5087.79067,924.661749 C5087.37826,925.074391 5087.25181,925.581683 5087.37826,925.962095 C5087.50538,926.342961 5087.88493,926.628951 5088.48701,926.628951 L5094.53608,926.628951 C5094.1563,925.80412 5093.71284,924.218011 5093.58595,923.393179 L5091.84385,923.393179 C5091.90707,923.741815 5092.0981,924.534642 5092.22454,924.979061 L5089.97577,924.979061 C5091.49602,923.360949 5093.49078,921.109119 5094.66275,919.744538 L5094.66275,919.744538 Z M5092.28731,927.326448 C5092.38293,928.531919 5092.63604,930.847983 5092.85743,931.957896 L5094.40941,931.957896 C5094.1878,930.815979 5093.90273,928.500369 5093.80756,927.326448 L5092.28731,927.326448 Z M5091.49602,927.326448 L5090.07094,927.326448 C5090.03899,928.627475 5090.19761,930.911309 5090.38727,931.957896 L5091.97097,931.957896 C5091.78108,930.911309 5091.52752,928.563695 5091.49602,927.326448 L5091.49602,927.326448 Z M5091.65419,939.983998 L5077.52934,939.983998 C5077.24382,939.983998 5076.99049,939.730466 5076.99049,939.444476 L5076.99049,938.905408 C5076.99049,938.619872 5077.24382,938.366339 5077.49739,938.366339 L5091.21051,938.366339 C5091.84385,938.366339 5092.38293,938.175906 5092.76271,937.858594 C5093.14295,937.509505 5093.36411,937.033763 5093.36411,936.431141 L5093.36411,935.003234 C5093.36411,934.432843 5093.17444,934.019747 5092.88916,933.703115 C5092.50915,933.354026 5091.90707,933.163366 5091.21051,933.163366 L5073.82398,933.163366 L5073.82398,935.003234 L5089.94382,935.003234 C5090.22888,935.003234 5090.48199,935.257675 5090.48199,935.54253 L5090.48199,935.891846 C5090.48199,936.145832 5090.19761,936.494694 5089.91209,936.494694 L5076.61093,936.494694 C5075.91368,936.494694 5075.37551,936.652897 5074.96355,936.938887 C5074.45688,937.319526 5074.17227,937.890371 5074.17227,938.714975 L5074.17227,939.793565 C5074.17227,940.428417 5074.36216,940.904159 5074.71089,941.253476 C5075.09022,941.633888 5075.62885,941.823867 5076.29392,941.823867 L5090.35555,941.823867 C5090.64061,941.823867 5090.89463,942.204959 5090.89463,942.490495 L5090.89463,943.188447 C5090.89463,943.473983 5090.60911,943.822618 5090.35555,943.822618 L5077.52345,943.822618 L5076.54137,945.821143 L5091.46407,945.821143 C5092.12891,945.821143 5092.79444,945.503603 5093.20571,945.028088 C5093.49078,944.679226 5093.68112,944.235034 5093.68112,943.759292 L5093.68112,942.014526 C5093.68112,941.443228 5093.45928,940.904159 5093.04778,940.491517 C5092.69949,940.205981 5092.25604,939.983998 5091.65419,939.983998 L5091.65419,939.983998 Z M5066.82455,925.835215 C5067.29996,927.739318 5068.59792,931.164841 5069.45311,932.814504 L5072.62006,932.814504 C5071.60716,931.069965 5070.14967,927.707087 5069.70667,925.835215 L5066.82455,925.835215 Z M5066.72938,945.821143 L5069.80139,945.821143 C5070.72003,942.776258 5071.89154,937.351075 5072.30373,934.432843 L5069.58,934.432843 C5069.26276,937.636838 5067.83813,942.902457 5066.72938,945.821143 L5066.72938,945.821143 Z M5066.79306,918.063326 C5067.39468,919.966975 5068.78781,923.234069 5069.54828,924.725302 L5072.62006,924.725302 C5071.57476,922.98031 5070.14967,919.776088 5069.70667,918.063326 L5066.79306,918.063326 Z M5075.62885,927.390002 C5075.62885,928.563695 5075.85092,930.879759 5076.00886,931.989446 L5077.49739,931.989446 C5077.27555,930.815979 5077.05393,928.563695 5077.08611,927.390002 L5075.62885,927.390002 Z M5075.02677,927.390002 L5073.4433,927.390002 C5073.34858,928.849004 5073.03225,930.879759 5072.68351,931.989446 L5074.45688,931.989446 C5074.77366,930.784429 5074.96355,928.817454 5075.02677,927.390002 L5075.02677,927.390002 Z M5053.02374,929.705839 L5053.03779,929.696987 L5059.81765,929.705839 C5060.41904,929.705839 5060.83077,929.388753 5061.02112,928.976565 C5061.24273,928.500369 5061.17951,927.897747 5060.76755,927.421551 L5056.7019,920.981785 L5053.43978,920.981785 L5056.96703,927.421551 L5040.17963,927.421551 L5048.0023,918.12688 L5044.20223,918.12688 L5036.37933,927.421551 C5035.9676,927.897747 5035.90393,928.500369 5036.12599,928.976565 C5036.31589,929.388753 5036.72762,929.705839 5037.32901,929.705839 L5053.02374,929.705839 Z M5058.2745,942.653464 C5058.2745,943.065426 5057.8315,943.446065 5057.51404,943.446065 L5040.44385,943.446065 C5040.00039,943.446065 5039.71556,943.065426 5039.71556,942.653464 L5039.71556,936.018953 C5039.71556,935.511207 5040.22223,935.130568 5040.63464,935.130568 L5057.3561,935.130568 C5057.8315,935.130568 5058.2745,935.511207 5058.2745,936.050502 L5058.2745,942.653464 Z M5058.4014,932.814504 L5039.15676,932.814504 C5038.26985,932.814504 5038.03668,933.13227 5037.53091,933.639562 C5037.02356,934.147307 5036.73872,934.844578 5036.73872,935.638087 L5036.73872,942.87522 C5036.73872,943.700051 5037.05551,944.460875 5037.62518,945.000624 C5038.13231,945.476366 5038.79715,945.761902 5039.58934,945.761902 L5058.49612,945.761902 C5059.19314,945.761902 5059.92166,945.476366 5060.42811,944.905294 C5060.90328,944.398003 5061.18835,943.700051 5061.18835,942.81144 L5061.18835,935.764966 C5061.18835,934.940135 5060.93478,934.242184 5060.49133,933.734892 C5059.98465,933.163366 5059.22509,932.814504 5058.4014,932.814504 L5058.4014,932.814504 Z" id="Fill-243"></path>
        </g>
    </g>
</svg>