<?xml version="1.0" encoding="UTF-8"?>
<svg width="169px" height="38px" viewBox="0 0 169 38" version="1.1" xmlns="http://www.w3.org/2000/svg" xmlns:xlink="http://www.w3.org/1999/xlink">
    <title>dentall</title>
    <g id="Page-1" stroke="none" stroke-width="1" fill="none" fill-rule="evenodd">
        <g id="dentall">
            <path d="M49.6573228,27.5 C49.6573228,29.5133333 50.124357,31.0966667 51.0584252,32.25 C51.9924934,33.4033333 53.2829396,33.9766667 54.9297638,33.97 C55.5396679,33.9751706 56.1493381,33.9434487 56.7555906,33.875 C57.1704463,33.8271846 57.5826779,33.7579297 57.9907087,33.6675 L57.9907087,22.33 C57.5011172,22.0079057 56.9748329,21.7484722 56.423622,21.5575 C55.7544313,21.314504 55.0490442,21.1926853 54.3390551,21.1975 C52.7117585,21.1975 51.526273,21.7641667 50.7825984,22.8975 C50.0389239,24.0308333 49.663832,25.565 49.6573228,27.5 Z M62.450315,36.8275 C61.3547291,37.1497882 60.2402168,37.4002951 59.1135433,37.5775 C57.7180778,37.8078838 56.3066229,37.9215923 54.8931496,37.9175 C53.4970499,37.9400554 52.109009,37.6967605 50.799685,37.2 C49.6400281,36.749927 48.5897658,36.0470296 47.7216535,35.14 C46.8533628,34.2105236 46.1877547,33.1027423 45.7688976,31.89 C45.2977234,30.5137717 45.0671858,29.0632293 45.087874,27.605 C45.0706237,26.1671099 45.2631409,24.7346434 45.6590551,23.355 C45.9991826,22.1619884 46.5693957,21.0509271 47.3359843,20.0875 C48.0639694,19.189309 48.9822294,18.4728372 50.0210236,17.9925 C51.1709586,17.4777565 52.4154294,17.2219882 53.6702362,17.2425 C54.5055821,17.2292669 55.338175,17.3438639 56.1404724,17.5825 C56.7757616,17.7769255 57.3932321,18.0278815 57.9858268,18.3325 L57.9858268,8.8875 L62.4454331,8.1375 L62.450315,36.8275 Z" id="Fill-1" fill="#231916"></path>
            <path d="M80.9234229,25.615 C80.9254859,25.0075849 80.8382611,24.4033092 80.6646457,23.8225 C80.5069436,23.2860111 80.2491382,22.7859433 79.9055118,22.35 C79.5733378,21.9354446 79.1568203,21.6001413 78.6850394,21.3675 C78.1498601,21.1145115 77.5657114,20.9888724 76.976378,21 C76.352498,20.9862134 75.7340583,21.1214533 75.1700787,21.395 C74.6701621,21.6481041 74.2251856,22.0018143 73.8617323,22.435 C73.5008755,22.8707176 73.2197322,23.3695402 73.031811,23.9075 C72.8367425,24.4565168 72.7008695,25.0257325 72.6266142,25.605 L80.9234229,25.615 Z M67.986378,27.655 C67.955551,26.0964684 68.2122774,24.5459854 68.7430709,23.085 C69.1888436,21.8680199 69.872424,20.7570175 70.7519685,19.82 C71.5655335,18.9660162 72.5451578,18.2965652 73.6274016,17.855 C74.6819325,17.4203348 75.8079192,17.1963081 76.9446457,17.195 C79.6003937,17.195 81.6711286,18.0383333 83.1568504,19.725 C84.6425722,21.4116667 85.3862467,23.9291667 85.387874,27.2775 C85.387874,27.5275 85.387874,27.8125 85.3707874,28.1275 C85.3537008,28.4425 85.3390551,28.725 85.3146457,28.9775 L72.5826772,28.9775 C72.7047244,30.5625 73.2514961,31.7891667 74.2229921,32.6575 C75.1944882,33.5258333 76.6020997,33.9608333 78.4458268,33.9625 C79.4421245,33.9705227 80.4363902,33.8691097 81.4115748,33.66 C82.1361887,33.5121284 82.8461725,33.2970762 83.5327559,33.0175 L84.1234646,36.7675 C83.7956996,36.9270946 83.4561723,37.0600055 83.1080315,37.165 C82.6266982,37.3172494 82.1378233,37.4432595 81.6434646,37.5425 C81.091811,37.655 80.4937795,37.75 79.8566929,37.825 C79.2083893,37.9004606 78.5564137,37.9380215 77.903937,37.9375 C76.3942149,37.9710666 74.8921358,37.7088649 73.4785039,37.165 C72.2985087,36.6970295 71.2400758,35.9560833 70.3858268,35 C69.5635836,34.061538 68.9476086,32.9532396 68.5795276,31.75 C68.1734025,30.4244948 67.9740479,29.0416545 67.9888189,27.6525 L67.986378,27.655 Z" id="Fill-3" fill="#231916"></path>
            <path d="M91.0240157,18.3275 C92.1287361,18.0239588 93.2492786,17.7844124 94.380315,17.61 C95.8907564,17.3740533 97.4170021,17.2603681 98.9448819,17.27 C100.51685,17.27 101.831706,17.4908333 102.889449,17.9325 C103.871693,18.317375 104.740826,18.9544339 105.413386,19.7825 C106.068105,20.6221945 106.527251,21.6037419 106.755906,22.6525 C107.023994,23.8596322 107.154238,25.0945784 107.144016,26.3325 L107.144016,37.435 L102.674646,37.435 L102.674646,27.0525 C102.686282,26.1480993 102.618476,25.2444593 102.472047,24.3525 C102.374562,23.7080602 102.148556,23.0910824 101.80811,22.54 C101.503958,22.0753501 101.066398,21.7189305 100.555906,21.52 C99.936111,21.2892336 99.2794893,21.1798345 98.6202362,21.1975 C98.0285986,21.1986865 97.4375908,21.2370922 96.8505512,21.3125 C96.2354331,21.3875 95.7806037,21.45 95.486063,21.5 L95.486063,37.435 L91.0240157,37.435 L91.0240157,18.3275 Z" id="Fill-5" fill="#231916"></path>
            <path d="M113.292756,12.475 L117.754803,11.725 L117.754803,17.6875 L124.611417,17.6875 L124.611417,21.5 L117.754803,21.5 L117.754803,29.5425 C117.754803,31.1291667 117.998898,32.2625 118.487087,32.9425 C118.975276,33.6225 119.810892,33.9625 120.993937,33.9625 C121.721475,33.9722066 122.44706,33.8830972 123.151732,33.6975 C123.657619,33.5595613 124.155542,33.3926317 124.64315,33.1975 L125.375433,36.825 C124.71495,37.1004956 124.038303,37.3334496 123.349449,37.5225 C122.386018,37.7775746 121.393295,37.8978342 120.398346,37.88 C119.225016,37.9151846 118.055725,37.723504 116.951732,37.315 C116.087401,36.9819862 115.327942,36.4141681 114.754882,35.6725 C114.191732,34.9007445 113.801682,34.0112907 113.61252,33.0675 C113.377771,31.9166923 113.266455,30.743066 113.280551,29.5675 L113.292756,12.475 Z" id="Fill-7" fill="#231916"></path>
            <path d="M136.63063,34.225 C137.679935,34.250948 138.729293,34.1756153 139.764803,34 L139.764803,28.94 C139.41371,28.8401187 139.056553,28.7641196 138.695669,28.7125 C138.183426,28.6341327 137.666026,28.5965202 137.14811,28.6 C136.648159,28.6005139 136.1489,28.6381122 135.654252,28.7125 C135.181372,28.7785276 134.721187,28.91849 134.289764,29.1275 C133.897031,29.3180368 133.560262,29.6112155 133.313386,29.9775 C133.054996,30.3868556 132.926276,30.8679202 132.944803,31.355 C132.944803,32.4366667 133.276772,33.1866667 133.940709,33.605 C134.604646,34.0233333 135.499659,34.2308333 136.625748,34.2275 M136.257165,17.1975 C137.521508,17.1643786 138.781861,17.3563983 139.982047,17.765 C140.899648,18.083731 141.727468,18.6269372 142.393701,19.3475 C143.010291,20.0545422 143.453004,20.902246 143.684961,21.82 C143.950509,22.8620727 144.080192,23.935565 144.07063,25.0125 L144.07063,36.9825 C143.382283,37.1325 142.344068,37.315 140.955984,37.53 C139.398693,37.75473 137.827356,37.861686 136.254724,37.85 C135.187815,37.8602853 134.123227,37.7462185 133.081496,37.51 C132.203683,37.3185706 131.373148,36.9459951 130.640551,36.415 C129.959821,35.9069551 129.414319,35.2322186 129.053937,34.4525 C128.645841,33.5152718 128.449753,32.4957266 128.480315,31.47 C128.448225,30.4722608 128.670312,29.483154 129.124724,28.6 C129.547956,27.8270397 130.14971,27.1721005 130.877323,26.6925 C131.661547,26.1828867 132.530172,25.8244889 133.440315,25.635 C134.440282,25.4188867 135.45975,25.3116242 136.481732,25.315 C136.99887,25.3160975 137.515539,25.3469796 138.029291,25.4075 C138.612804,25.479098 139.191552,25.5867948 139.762362,25.73 L139.762362,24.98 C139.764681,24.4698933 139.703156,23.9615856 139.579291,23.4675 C139.459161,23.0059273 139.237948,22.5784465 138.932441,22.2175 C138.600736,21.8348899 138.181322,21.5427881 137.711969,21.3675 C137.102514,21.1478567 136.458712,21.0453057 135.812913,21.065 C134.862155,21.0583448 133.912534,21.1336102 132.974094,21.29 C132.259848,21.4038389 131.55664,21.5811757 130.872441,21.82 L130.318346,18.12 C131.128449,17.8521517 131.956482,17.6449396 132.795906,17.5 C133.940187,17.2936636 135.100177,17.192428 136.262047,17.1975" id="Fill-9" fill="#00A1E1"></path>
            <path d="M156.795276,37.8126531 C155.680118,37.8181775 154.569549,37.6659022 153.495118,37.36 C152.718469,37.1387744 152.004629,36.7307928 151.412992,36.17 C150.888815,35.6393836 150.512913,34.9747027 150.324331,34.245 C150.105513,33.3883497 150.00042,32.5054026 150.01189,31.62 L150.01189,8.8875 L154.473937,8.1375 L154.473937,30.75 C154.464947,31.2193595 154.508352,31.6882341 154.603307,32.1475 C154.678392,32.5014902 154.835819,32.8316792 155.062205,33.11 C155.306402,33.3885418 155.617889,33.5963377 155.965354,33.7125 C156.440711,33.8739619 156.931776,33.9820953 157.429921,34.035 L156.795276,37.8126531 Z" id="Fill-11" fill="#00A1E1"></path>
            <path d="M168.30189,37.8126741 C167.186708,37.8185628 166.076087,37.6662805 165.001732,37.36 C164.224829,37.1394056 163.510852,36.731345 162.919606,36.17 C162.3938,35.6406756 162.017622,34.9755075 161.830945,34.245 C161.610886,33.3885928 161.505773,32.505472 161.518504,31.62 L161.518504,8.8875 L165.97811,8.1375 L165.97811,30.75 C165.970329,31.2193123 166.013721,31.6880478 166.10748,32.1475 C166.182071,32.5021541 166.340481,32.8326482 166.568819,33.11 C166.813016,33.3885418 167.124503,33.5963377 167.471969,33.7125 C167.947325,33.8739619 168.438391,33.9820953 168.936535,34.035 L168.30189,37.8126741 Z" id="Fill-13" fill="#00A1E1"></path>
            <path d="M13.6771127,15.4874359 C13.5553021,14.9520803 13.5277866,14.3999789 13.5957746,13.8553846 C13.75872,12.7811949 14.327712,11.8080112 15.1880282,11.1320513 C16.088531,10.3844977 17.1952927,9.92118617 18.3651408,9.80205128 C19.5099081,9.69680266 20.6580122,9.96548969 21.6334507,10.5669231 C22.0740597,10.8406321 22.4518676,11.2023952 22.7426056,11.6289744 C22.7942837,11.7077975 22.8419943,11.7890929 22.8855634,11.8725641 C22.3211268,12.1161538 21.7542254,12.3451282 21.1873239,12.5765385 C20.171831,12.990641 19.1538732,13.3966239 18.1334507,13.7944872 C16.6545775,14.3742308 15.1691315,14.9344872 13.6771127,15.4752564 M34.7929577,9.81179487 L34.7535211,9.5 L34.7116197,9.20525641 C34.6771127,8.96166667 34.6426056,8.77166667 34.5982394,8.55487179 C34.5076222,8.12482732 34.3949178,7.69961924 34.2605634,7.28089744 C33.7181792,5.56701095 32.745596,4.0167159 31.4334507,2.77448718 C30.1010018,1.53433022 28.4566658,0.669649355 26.6714789,0.270384615 C24.9373211,-0.113788093 23.1358007,-0.0870778644 21.4140845,0.348333333 C20.0488535,0.694471963 18.7494698,1.25716289 17.5665493,2.01448718 C16.4561341,1.31198666 15.2456909,0.777489812 13.9753521,0.428717949 C12.3541178,-0.0218614397 10.6518474,-0.110886128 8.9915493,0.168076923 C7.27819305,0.459302918 5.6672036,1.17407474 4.3084507,2.24589744 C2.9591798,3.3282963 1.9023329,4.72425586 1.23239437,6.30897436 C0.900147195,7.08044996 0.652261271,7.88480195 0.492957746,8.70833333 C0.342864142,9.51217785 0.260422493,10.3269308 0.246478873,11.1442308 C0.221114226,12.7916453 0.511309803,14.4289334 1.10176056,15.9697436 C1.69412806,17.4755958 2.53354321,18.874682 3.58626761,20.1107692 C3.83274648,20.4103846 4.07922535,20.7002564 4.34049296,20.9755128 L4.69788732,21.3725641 C4.80633803,21.4919231 4.90739437,21.6161538 4.97147887,21.6867949 C4.99612676,21.7720513 5.02323944,21.8841026 5.04788732,21.9961538 C5.11690141,22.3055128 5.18098592,22.6465385 5.24507042,22.9924359 L5.24507042,22.9924359 C5.30669014,23.3602564 5.37570423,23.7694872 5.4471831,24.2103846 C6.67957746,31.7251282 8.00316901,37.9464103 11.8260563,37.9464103 C14.9588028,37.9464103 15.7352113,34.8382051 16.3021127,32.5703846 C16.6077465,31.3524359 17.0267606,29.6692308 17.5739437,29.6692308 C18.1211268,29.6692308 18.5426056,31.3475641 18.8482394,32.5703846 C19.4151408,34.8382051 20.1915493,37.9464103 23.3267606,37.9464103 C25.3848592,37.9464103 27.0239437,35.9684615 28.3426056,31.9005128 C29.1715101,29.2926725 29.6901475,26.5982682 29.8880282,23.8717949 C28.7479421,24.3335931 27.5808168,24.7272935 26.3929577,25.0507692 C26.1776839,26.8189917 25.8183003,28.5671501 25.3183099,30.2782051 C24.4482394,33.225641 23.5707746,34.3461538 23.2429577,34.5897436 C22.784507,34.4167949 22.3876761,32.8310256 22.1190141,31.7616667 C21.5792254,29.5985897 20.7609155,26.3296154 17.5739437,26.3296154 C14.3869718,26.3296154 13.5711268,29.5985897 13.031338,31.7616667 C12.7848592,32.7774359 12.3609155,34.4411538 11.8901408,34.5946154 C11.7077465,34.4508974 10.990493,33.7152564 10.1647887,30.7142308 C9.53873239,28.4123077 9.09014085,25.6719231 8.76478873,23.6696154 C8.69084507,23.2214103 8.62183099,22.8024359 8.55774648,22.4273077 L8.55774648,22.4273077 C8.50105634,22.0667949 8.4443662,21.6965385 8.36795775,21.3141026 C8.32852113,21.114359 8.28908451,20.9194872 8.21760563,20.6564103 C8.19542254,20.5882051 8.17570423,20.5175641 8.14119718,20.4128205 C8.12640845,20.3689744 8.10669014,20.3178205 8.07957746,20.2544872 C8.04104987,20.1707582 7.99742537,20.0894126 7.94894366,20.0108974 L7.90457746,19.9378205 L7.81091549,19.7989744 C7.7665493,19.7332051 7.72464789,19.6771795 7.68274648,19.6260256 C7.52746479,19.4238462 7.39683099,19.2728205 7.27112676,19.1388462 L6.92112676,18.7320513 C6.6943662,18.4714103 6.47746479,18.2180769 6.27288732,17.9647436 C5.47230241,16.9970395 4.83022989,15.9112418 4.37007042,14.7469231 C3.93562966,13.6080068 3.72482592,12.3976925 3.74894366,11.1807692 C3.76305658,10.563517 3.82817936,9.94843635 3.94366197,9.34166667 C4.04738337,8.75786097 4.21260128,8.18637646 4.43661972,7.63653846 C4.86927654,6.56367476 5.56458961,5.61369927 6.46021127,4.87179487 C7.36609882,4.14274795 8.44370061,3.6517387 9.59295775,3.44435897 C10.7941118,3.23241522 12.025489,3.25309747 13.218662,3.50525641 C14.4846418,3.77397291 15.7100053,4.20384117 16.8640845,4.78410256 L17.7119718,5.20064103 L18.2862676,4.78410256 L18.2862676,4.78410256 C19.501682,4.18734606 20.7910996,3.75083978 22.1214789,3.48576923 C23.3720543,3.23808398 24.6608874,3.24803496 25.9073944,3.515 C27.1041285,3.7916044 28.2038573,4.38044859 29.0919014,5.22012821 C29.9796959,6.07412563 30.6335717,7.13689597 30.9922535,8.30884615 C31.0912199,8.60865966 31.1735027,8.91360319 31.2387324,9.22230769 C31.2683099,9.37333333 31.2978873,9.54141026 31.3176056,9.68025641 L31.3521127,9.94576923 L31.3792254,10.1747436 C31.4408093,10.8155667 31.4408093,11.4607154 31.3792254,12.1015385 C31.1551315,14.6473731 29.8185012,16.9699549 27.7190141,18.4616667 C27.1991692,18.8329798 26.6415793,19.1497339 26.0552817,19.4067949 C25.4391624,19.675473 24.804025,19.8993581 24.1549296,20.0766667 C22.864937,20.4492674 21.5254609,20.6274679 20.1816901,20.6052564 C18.9436376,20.6018751 17.7248841,20.301803 16.6299296,19.7307692 C16.1255139,19.4519114 15.6701915,19.094062 15.2816901,18.6711538 C15.2299296,18.62 15.1855634,18.5591026 15.1362676,18.5030769 C16.5576291,17.9866667 17.9691315,17.4532051 19.3707746,16.9026923 C20.4092723,16.4950855 21.4428404,16.0809829 22.4714789,15.6603846 C23.5042254,15.2389744 24.5246479,14.8151282 25.5623239,14.3717949 L26.6739437,13.8846154 L26.5679577,12.7080769 L26.5679577,12.7080769 C26.4929422,11.6804693 26.1618638,10.6871608 25.6042254,9.81666667 C25.0630638,8.97995637 24.3470411,8.26734331 23.5042254,7.72666667 C21.8953699,6.70234826 19.9887456,6.23299235 18.0816901,6.39179487 C17.8352113,6.41128205 17.6109155,6.43807692 17.3767606,6.47705128 C17.2559859,6.49653846 17.15,6.51602564 17.0169014,6.54282051 L16.8443662,6.57935897 L16.6792254,6.61833333 C15.3177286,6.95749802 14.0491829,7.59057547 12.9647887,8.47205128 C12.2184072,9.07954907 11.5845592,9.81064511 11.0915493,10.6326923 C10.5834302,11.4807603 10.2523851,12.420841 10.1179577,13.3974359 C9.99236138,14.3424762 10.0340628,15.3019053 10.2411972,16.2328205 C10.4357674,17.0999083 10.7353443,17.9406684 11.1334507,18.7369231 C11.5358701,19.5711824 12.0598686,20.3426324 12.6887324,21.0266667 C13.3297783,21.7180754 14.0786911,22.3036039 14.9070423,22.7610256 C16.5016135,23.6162562 18.2837229,24.0728689 20.0978873,24.0910256 C22.6537242,24.1332234 25.1873279,23.615805 27.5169014,22.5758974 C28.3193941,22.2186435 29.0818756,21.7794164 29.7919014,21.2653846 C32.6933638,19.1734943 34.529047,15.9364529 34.8200704,12.3987179 C34.8949298,11.541609 34.8858501,10.6793581 34.7929577,9.82397436" id="Fill-17" fill="#231916"></path>
        </g>
    </g>
</svg>