<?xml version="1.0" encoding="UTF-8"?>
<svg width="428px" height="595px" viewBox="0 0 428 595" version="1.1" xmlns="http://www.w3.org/2000/svg" xmlns:xlink="http://www.w3.org/1999/xlink">
    <title>iPhone</title>
    <defs>
        <rect id="path-1" x="11.2820513" y="355.384615" width="197.435897" height="88.3760684"></rect>
        <filter x="-45.6%" y="-67.9%" width="191.2%" height="303.7%" filterUnits="objectBoundingBox" id="filter-2">
            <feOffset dx="0" dy="30" in="SourceAlpha" result="shadowOffsetOuter1"></feOffset>
            <feGaussianBlur stdDeviation="25" in="shadowOffsetOuter1" result="shadowBlurOuter1"></feGaussianBlur>
            <feColorMatrix values="0 0 0 0 0   0 0 0 0 0   0 0 0 0 0  0 0 0 0.177139946 0" type="matrix" in="shadowBlurOuter1" result="shadowMatrixOuter1"></feColorMatrix>
            <feOffset dx="0" dy="15" in="SourceAlpha" result="shadowOffsetOuter2"></feOffset>
            <feGaussianBlur stdDeviation="15" in="shadowOffsetOuter2" result="shadowBlurOuter2"></feGaussianBlur>
            <feColorMatrix values="0 0 0 0 0   0 0 0 0 0   0 0 0 0 0  0 0 0 0.0439594656 0" type="matrix" in="shadowBlurOuter2" result="shadowMatrixOuter2"></feColorMatrix>
            <feMerge>
                <feMergeNode in="shadowMatrixOuter1"></feMergeNode>
                <feMergeNode in="shadowMatrixOuter2"></feMergeNode>
            </feMerge>
        </filter>
        <path d="M186.119658,0 C203.79277,1.24503787e-14 218.119658,14.326888 218.119658,32 L218.119,92.141 L218.149262,92.1422379 C219.184122,92.218587 220,93.0823903 220,94.1367521 L220,123.982906 C220,125.047377 219.168402,125.917617 218.119437,125.979399 L218.119658,411.760684 C218.119658,429.433796 203.79277,443.760684 186.119658,443.760684 L33.8803419,443.760684 C16.2072299,443.760684 1.88034188,429.433796 1.88034188,411.760684 L1.88,167.345 L1.85073766,167.344942 C0.815877791,167.268592 1.2912208e-16,166.404789 0,165.350427 L0,135.504274 C-3.4434387e-16,134.439803 0.831597618,133.569562 1.88056338,133.507781 L1.88,125.978 L1.85073766,125.97742 C0.815877791,125.901071 2.00204487e-15,125.037268 0,123.982906 L0,94.1367521 C-3.4434387e-16,93.0722814 0.831597618,92.2020407 1.88056338,92.1402595 L1.88,75.209 L1.85073766,75.2081895 C0.815877791,75.1318403 1.2912208e-16,74.268037 0,73.2136752 L0,57.4700855 C-3.4434387e-16,56.4056147 0.831597618,55.535374 1.88056338,55.4735928 L1.88034188,32 C1.88034188,14.326888 16.2072299,3.24649801e-15 33.8803419,0 L186.119658,0 Z" id="path-3"></path>
        <filter x="-25.0%" y="-7.9%" width="150.0%" height="124.8%" filterUnits="objectBoundingBox" id="filter-4">
            <feOffset dx="0" dy="20" in="SourceAlpha" result="shadowOffsetOuter1"></feOffset>
            <feGaussianBlur stdDeviation="15" in="shadowOffsetOuter1" result="shadowBlurOuter1"></feGaussianBlur>
            <feComposite in="shadowBlurOuter1" in2="SourceAlpha" operator="out" result="shadowBlurOuter1"></feComposite>
            <feColorMatrix values="0 0 0 0 0   0 0 0 0 0   0 0 0 0 0  0 0 0 0.03 0" type="matrix" in="shadowBlurOuter1"></feColorMatrix>
        </filter>
        <rect id="path-5" x="0.982905983" y="0.58974359" width="188.034188" height="335.641026" rx="4"></rect>
        <path d="M0,-1.8189894e-12 L191.249996,-1.8189894e-12 L191.249996,83.6399984 C191.249996,89.2733028 186.683301,93.8399982 181.049997,93.8399982 L10.1999998,93.8399982 C4.56669547,93.8399982 -2.86283287e-15,89.2733028 0,83.6399984 L0,-1.8189894e-12 L0,-1.8189894e-12 Z" id="path-7"></path>
        <filter x="-4.7%" y="-6.4%" width="109.4%" height="119.2%" filterUnits="objectBoundingBox" id="filter-8">
            <feOffset dx="0" dy="3" in="SourceAlpha" result="shadowOffsetOuter1"></feOffset>
            <feGaussianBlur stdDeviation="2.5" in="shadowOffsetOuter1" result="shadowBlurOuter1"></feGaussianBlur>
            <feComposite in="shadowBlurOuter1" in2="SourceAlpha" operator="out" result="shadowBlurOuter1"></feComposite>
            <feColorMatrix values="0 0 0 0 0.51372549   0 0 0 0 0.525490196   0 0 0 0 0.639215686  0 0 0 0.12 0" type="matrix" in="shadowBlurOuter1"></feColorMatrix>
        </filter>
        <rect id="path-9" x="0" y="0" width="190.739996" height="42.3299992"></rect>
        <filter x="-6.0%" y="-22.4%" width="112.1%" height="154.3%" filterUnits="objectBoundingBox" id="filter-10">
            <feOffset dx="0" dy="2" in="SourceAlpha" result="shadowOffsetOuter1"></feOffset>
            <feGaussianBlur stdDeviation="3.5" in="shadowOffsetOuter1" result="shadowBlurOuter1"></feGaussianBlur>
            <feColorMatrix values="0 0 0 0 0.650980392   0 0 0 0 0.701960784   0 0 0 0 0.760784314  0 0 0 0.3 0" type="matrix" in="shadowBlurOuter1"></feColorMatrix>
        </filter>
    </defs>
    <g id="Page-1" stroke="none" stroke-width="1" fill="none" fill-rule="evenodd">
        <g id="04_index-Saas" transform="translate(-829.000000, -284.000000)">
            <g id="Banner" transform="translate(122.000000, 113.000000)">
                <g id="Image" transform="translate(715.000000, 0.000000)">
                    <g id="Group-10" transform="translate(0.300310, 191.905628)">
                        <g id="header-2" transform="translate(32.000000, 0.000000)">
                            <g id="iPhone" transform="translate(164.000000, 243.000000) rotate(-15.000000) translate(-164.000000, -243.000000) translate(54.000000, 21.000000)">
                                <g id="Shadow" opacity="0.206351902" fill="black" fill-opacity="1">
                                    <use filter="url(#filter-2)" xlink:href="#path-1"></use>
                                </g>
                                <g>
                                    <use fill="black" fill-opacity="1" filter="url(#filter-4)" xlink:href="#path-3"></use>
                                    <path stroke="#F1F1F1" stroke-width="1" d="M186.119658,0.5 L33.8803419,0.5 C25.1818571,0.5 17.3068571,4.0257576 11.6064783,9.72613639 C5.90609948,15.4265152 2.38034188,23.3015152 2.38034188,32 L2.38056851,56.0171293 C1.80227127,55.8744658 1.26011785,56.0678871 0.907852713,56.441868 C0.654947521,56.7103638 0.5,57.0721354 0.5,57.4700855 L0.5,73.2136752 C0.5,73.6080441 0.652338417,73.9668881 0.904358494,74.2343678 C1.25341209,74.6048334 1.79237849,74.7994822 2.37998236,74.6789694 L2.38058147,92.6837991 C1.80227937,92.5411296 1.26012048,92.734551 0.907852713,93.1085346 C0.654947521,93.3770304 0.5,93.738802 0.5,94.1367521 L0.5,123.982906 C0.5,124.377274 0.652337322,124.73612 0.904362743,125.003574 C1.25340991,125.37399 1.79236966,125.568545 2.37996033,125.447822 L2.38060405,134.051326 C1.80229349,133.908646 1.26012506,134.102067 0.907852713,134.476056 C0.654947521,134.744552 0.5,135.106323 0.5,135.504274 L0.5,165.350427 C0.5,165.744795 0.652334834,166.103643 0.904372324,166.371041 C1.25342253,166.741363 1.79240395,166.935707 2.37999926,166.814469 L2.38034188,411.760683 C2.38034188,420.459169 5.90609948,428.334169 11.6064783,434.034547 C17.3068571,439.734926 25.1818571,443.260684 33.8803419,443.260684 L186.119658,443.260684 C194.818143,443.260684 202.693143,439.734926 208.393522,434.034547 C214.093901,428.334169 217.619658,420.459169 217.619658,411.760684 L217.619436,125.435863 C218.197732,125.578525 218.739883,125.385103 219.092147,125.011123 C219.345052,124.742628 219.5,124.380856 219.5,123.982906 L219.5,94.1367521 C219.5,93.7423667 219.347641,93.3835121 219.095505,93.1159938 C218.746337,92.7455249 218.207168,92.5507915 217.618994,92.6706277 L217.619658,31.9999945 C217.619658,23.3015152 214.093901,15.4265152 208.393522,9.72613639 C202.693143,4.0257576 194.818143,0.5 186.119658,0.5 Z" stroke-linejoin="square" fill="#FFFFFF" fill-rule="evenodd"></path>
                                </g>
                                <circle id="Button" fill="#F3F6F8" cx="110" cy="414.615385" r="16.9230769"></circle>
                                <g id="food_app_-_ar_x2_3x" transform="translate(15.000000, 53.000000)">
                                    <mask id="mask-6" fill="white">
                                        <use xlink:href="#path-5"></use>
                                    </mask>
                                    <rect stroke="#B5B5B5" stroke-width="1.53" x="1.74790598" y="1.35474359" width="186.504188" height="334.111026" rx="4"></rect>
                                    <g id="Group" mask="url(#mask-6)">
                                        <g transform="translate(-0.482362, -5.931852)">
                                            <rect id="bg" fill="#FFFFFF" x="4.54747351e-13" y="-1.8189894e-12" width="191.249996" height="414.119992"></rect>
                                            <g id="content" stroke-width="1" fill="none" transform="translate(0.000000, 85.679998)">
                                                <g id="time-slots">
                                                    <g id="calendar-list/time-slot">
                                                        <text id="08:00" font-family="AvenirNext-Regular, Avenir Next" font-size="6.11999989" font-weight="normal" fill="#787D93">
                                                            <tspan x="15.2656" y="20.2799997">11:00</tspan>
                                                        </text>
                                                        <rect id="Rectangle-7" fill="#E8E9ED" fill-rule="evenodd" x="43.3499992" y="18.3599997" width="147.899997" height="1"></rect>
                                                    </g>
                                                    <g id="calendar-list/time-slot" transform="translate(0.000000, 36.719999)">
                                                        <text id="08:00" font-family="AvenirNext-Regular, Avenir Next" font-size="6.11999989" font-weight="normal" fill="#787D93">
                                                            <tspan x="15.22888" y="20.2799997">12PM</tspan>
                                                        </text>
                                                        <rect id="Rectangle-7" fill="#E8E9ED" fill-rule="evenodd" x="43.3499992" y="18.3599997" width="147.899997" height="1"></rect>
                                                    </g>
                                                    <g id="calendar-list/time-slot" transform="translate(0.000000, 73.439999)">
                                                        <text id="08:00" font-family="AvenirNext-Regular, Avenir Next" font-size="6.11999989" font-weight="normal" fill="#787D93">
                                                            <tspan x="18.8151999" y="20.2799997">1:00</tspan>
                                                        </text>
                                                        <rect id="Rectangle-7" fill="#E8E9ED" fill-rule="evenodd" x="43.3499992" y="18.3599997" width="147.899997" height="1"></rect>
                                                    </g>
                                                    <g id="calendar-list/time-slot" transform="translate(0.000000, 110.159998)">
                                                        <text id="08:00" font-family="AvenirNext-Regular, Avenir Next" font-size="6.11999989" font-weight="normal" fill="#787D93">
                                                            <tspan x="18.8151999" y="20.2799997">2:00</tspan>
                                                        </text>
                                                        <rect id="Rectangle-7" fill="#E8E9ED" fill-rule="evenodd" x="43.3499992" y="18.3599997" width="147.899997" height="1"></rect>
                                                    </g>
                                                    <g id="calendar-list/time-slot" transform="translate(0.000000, 146.879997)">
                                                        <text id="08:00" font-family="AvenirNext-Regular, Avenir Next" font-size="6.11999989" font-weight="normal" fill="#787D93">
                                                            <tspan x="18.8151999" y="20.2799997">3:00</tspan>
                                                        </text>
                                                        <rect id="Rectangle-7" fill="#E8E9ED" fill-rule="evenodd" x="43.3499992" y="18.3599997" width="147.899997" height="1"></rect>
                                                    </g>
                                                    <g id="calendar-list/time-slot" transform="translate(0.000000, 183.599997)">
                                                        <text id="08:00" font-family="AvenirNext-Regular, Avenir Next" font-size="6.11999989" font-weight="normal" fill="#787D93">
                                                            <tspan x="18.8151999" y="20.2799997">4:00</tspan>
                                                        </text>
                                                        <rect id="Rectangle-7" fill="#E8E9ED" fill-rule="evenodd" x="43.3499992" y="18.3599997" width="147.899997" height="1"></rect>
                                                    </g>
                                                    <g id="calendar-list/time-slot" transform="translate(0.000000, 220.319996)">
                                                        <text id="08:00" font-family="AvenirNext-Regular, Avenir Next" font-size="6.11999989" font-weight="normal" fill="#787D93">
                                                            <tspan x="18.8151999" y="20.2799997">5:00</tspan>
                                                        </text>
                                                        <rect id="Rectangle-7" fill="#E8E9ED" fill-rule="evenodd" x="43.3499992" y="18.3599997" width="147.899997" height="1"></rect>
                                                    </g>
                                                    <g id="calendar-list/time-slot" transform="translate(0.000000, 262.139995)">
                                                        <text id="08:00" font-family="AvenirNext-Regular, Avenir Next" font-size="6.11999989" font-weight="normal" fill="#787D93">
                                                            <tspan x="18.8151999" y="20.2799997">6:00</tspan>
                                                        </text>
                                                        <rect id="Rectangle-7" fill="#E8E9ED" fill-rule="evenodd" x="43.3499992" y="18.3599997" width="147.899997" height="1"></rect>
                                                    </g>
                                                </g>
                                                <g id="events" transform="translate(43.349999, 37.229999)">
                                                    <g id="event/calendar">
                                                        <path d="M5.0999999,0 L147.899997,0 L147.899997,0 L147.899997,36.7199993 L5.0999999,36.7199993 C2.28334773,36.7199993 3.44940407e-16,34.4366516 0,31.6199994 L0,5.0999999 C-3.44940407e-16,2.28334773 2.28334773,5.1741061e-16 5.0999999,0 Z" id="Rectangle" fill="#DAF6F4" fill-rule="evenodd"></path>
                                                        <text id="Title" font-family="AvenirNext-Medium, Avenir Next" font-size="7.13999987" font-weight="400" fill="#121212">
                                                            <tspan x="8.15999985" y="14.1599998">12-22</tspan>
                                                            <tspan x="27.4379995" y="14.1599998" font-family="PingFangTC-Medium, PingFang TC">拆</tspan>
                                                            <tspan x="34.5779994" y="14.1599998">Crown+on temp +endo</tspan>
                                                        </text>
                                                        <text id="Time" font-family="AvenirNext-Regular, Avenir Next" font-size="7.13999987" font-weight="normal" fill="#45464D">
                                                            <tspan x="8.15999985" y="26.3799996">11:30 AM - 12:30 PM</tspan>
                                                        </text>
                                                    </g>
                                                    <g id="event/calendar" transform="translate(0.000000, 151.469997)">
                                                        <path d="M5.0999999,0 L147.899997,0 L147.899997,0 L147.899997,73.4399986 L5.0999999,73.4399986 C2.28334773,73.4399986 3.44940407e-16,71.1566509 0,68.3399987 L0,5.0999999 C-3.44940407e-16,2.28334773 2.28334773,-3.92348149e-15 5.0999999,0 Z" id="Rectangle" fill="#CFECFF" fill-rule="evenodd"></path>
                                                        <text id="Title" font-family="PingFangTC-Medium, PingFang TC" font-size="7.13999987" font-weight="400" fill="#121212">
                                                            <tspan x="8.15999985" y="15.1599998">矯正諮詢</tspan>
                                                            <tspan x="36.7199993" y="15.1599998" font-family="AvenirNext-Medium, Avenir Next">(</tspan>
                                                            <tspan x="38.9690993" y="15.1599998">先拍</tspan>
                                                            <tspan x="53.249099" y="15.1599998" font-family="AvenirNext-Medium, Avenir Next">PANO)</tspan>
                                                        </text>
                                                        <text id="Time" font-family="AvenirNext-Regular, Avenir Next" font-size="7.13999987" font-weight="normal" fill="#45464D">
                                                            <tspan x="8.15999985" y="26.3799996">3:40 PM - 5:40 PM</tspan>
                                                        </text>
                                                    </g>
                                                    <g id="event/calendar" transform="translate(0.000000, 54.569999)">
                                                        <path d="M5.0999999,0 L147.899997,0 L147.899997,0 L147.899997,55.589999 L5.0999999,55.589999 C2.28334773,55.589999 3.44940407e-16,53.3066512 0,50.4899991 L0,5.0999999 C-3.44940407e-16,2.28334773 2.28334773,5.1741061e-16 5.0999999,0 Z" id="Rectangle" fill="#FDF1DB" fill-rule="evenodd"></path>
                                                        <text id="Title" font-family="PingFangTC-Medium, PingFang TC" font-size="7.13999987" font-weight="400" fill="#121212">
                                                            <tspan x="8.15999985" y="15.1599998">左右側</tspan>
                                                            <tspan x="29.5799994" y="15.1599998" font-family="AvenirNext-Medium, Avenir Next">BW+</tspan>
                                                            <tspan x="45.9734391" y="15.1599998">自費塗氟</tspan>
                                                        </text>
                                                        <text id="Time" font-family="AvenirNext-Regular, Avenir Next" font-size="7.13999987" font-weight="normal" fill="#45464D">
                                                            <tspan x="8.15999985" y="26.3799996">1:00 PM - 2:30 PM</tspan>
                                                        </text>
                                                    </g>
                                                </g>
                                                <g id="calendar-list/current-time" transform="translate(36.719999, 170.339997)" fill="#4D6EFF">
                                                    <rect id="Rectangle" x="3.56999993" y="2.03999996" width="150.959997" height="1.01999998"></rect>
                                                    <circle id="Oval" cx="2.03999996" cy="2.54999995" r="2.03999996"></circle>
                                                </g>
                                            </g>
                                            <g id="nav-bar-group" stroke-width="1" fill="none" transform="translate(0.000000, -0.000000)">
                                                <g id="Rectangle">
                                                    <use fill="black" fill-opacity="1" filter="url(#filter-8)" xlink:href="#path-7"></use>
                                                    <use fill="#FFFFFF" fill-rule="evenodd" xlink:href="#path-7"></use>
                                                </g>
                                                <text id="約診排程" font-family="PingFangTC-Thin, PingFang TC" font-size="13" font-weight="300" fill="#26314E">
                                                    <tspan x="10.0854566" y="29.5282961">約診排程</tspan>
                                                </text>
                                                <g id="calendar" transform="translate(0.000000, 44.879999)">
                                                    <g id="misc/grab-indicator" transform="translate(87.719998, 36.719999)" fill="#DADEF0">
                                                        <rect id="Rectangle" x="0" y="5.0999999" width="16.3199997" height="1.52999997" rx="0.764999986"></rect>
                                                    </g>
                                                    <g id="cells" transform="translate(0.000000, 12.960000)">
                                                        <g id="calendar/cell/passive" fill="#333333" font-family="AvenirNext-DemiBold, Avenir Next" font-size="7.13999987" font-weight="500">
                                                            <text id="0">
                                                                <tspan x="11.9052543" y="14.0441175">6</tspan>
                                                            </text>
                                                        </g>
                                                        <g id="calendar/cell/passive" transform="translate(27.539999, 0.000000)" fill="#333333" font-family="AvenirNext-DemiBold, Avenir Next" font-size="7.13999987" font-weight="500">
                                                            <text id="0">
                                                                <tspan x="11.6444589" y="14.0441175">7</tspan>
                                                            </text>
                                                        </g>
                                                        <g id="calendar/cell/current" transform="translate(54.569999, 0.000000)">
                                                            <path d="M13.7699997,3.71999993 C19.989953,3.71999993 21.9299996,5.95772639 21.9299996,11.8799998 C21.9299996,17.8022732 19.989953,20.0399996 13.7699997,20.0399996 C7.55004645,20.0399996 5.6099999,17.8022732 5.6099999,11.8799998 C5.6099999,5.95772639 7.55004645,3.71999993 13.7699997,3.71999993 Z" id="Rectangle" fill="#4D6EFF" fill-rule="evenodd"></path>
                                                            <text id="0" font-family="AvenirNext-DemiBold, Avenir Next" font-size="7.13999987" font-weight="500" fill="#FFFFFF">
                                                                <tspan x="11.9052543" y="14.0441175">8</tspan>
                                                            </text>
                                                        </g>
                                                        <g id="calendar/cell/passive" transform="translate(82.109998, 0.000000)" fill="#333333" font-family="AvenirNext-DemiBold, Avenir Next" font-size="7.13999987" font-weight="500">
                                                            <text id="0">
                                                                <tspan x="11.6444589" y="14.0441175">9</tspan>
                                                            </text>
                                                        </g>
                                                        <g id="calendar/cell/passive" transform="translate(109.139998, 0.000000)" fill="#333333" font-family="AvenirNext-DemiBold, Avenir Next" font-size="7.13999987" font-weight="500">
                                                            <text id="0">
                                                                <tspan x="9.72755436" y="14.0441175">10</tspan>
                                                            </text>
                                                        </g>
                                                        <g id="calendar/cell/passive" transform="translate(136.679997, 0.000000)" fill="#333333" font-family="AvenirNext-DemiBold, Avenir Next" font-size="7.13999987" font-weight="500">
                                                            <text id="0">
                                                                <tspan x="9.46675891" y="14.0441175">11</tspan>
                                                            </text>
                                                        </g>
                                                        <g id="calendar/cell/passive" transform="translate(163.709997, 0.000000)" fill="#333333" font-family="AvenirNext-DemiBold, Avenir Next" font-size="7.13999987" font-weight="500">
                                                            <text id="0">
                                                                <tspan x="9.72755436" y="14.0441175">12</tspan>
                                                            </text>
                                                        </g>
                                                    </g>
                                                    <g id="heading" fill="#989DB3" font-family="AvenirNext-DemiBold, Avenir Next" font-size="6.62999988" font-weight="500">
                                                        <g id="calendar/column-heading">
                                                            <text id="M">
                                                                <tspan x="10.7201998" y="8.88470585">M</tspan>
                                                            </text>
                                                        </g>
                                                        <g id="calendar/column-heading" transform="translate(27.539999, 0.000000)">
                                                            <text id="M">
                                                                <tspan x="11.6320798" y="8.88470585">T</tspan>
                                                            </text>
                                                        </g>
                                                        <g id="calendar/column-heading" transform="translate(54.569999, 0.000000)">
                                                            <text id="M">
                                                                <tspan x="10.4417398" y="8.88470585">W</tspan>
                                                            </text>
                                                        </g>
                                                        <g id="calendar/column-heading" transform="translate(82.109998, 0.000000)">
                                                            <text id="M">
                                                                <tspan x="11.6320798" y="8.88470585">T</tspan>
                                                            </text>
                                                        </g>
                                                        <g id="calendar/column-heading" transform="translate(109.139998, 0.000000)">
                                                            <text id="M">
                                                                <tspan x="11.8705048" y="8.88470585">F</tspan>
                                                            </text>
                                                        </g>
                                                        <g id="calendar/column-heading" transform="translate(136.679997, 0.000000)">
                                                            <text id="M">
                                                                <tspan x="11.6121898" y="8.88470585">S</tspan>
                                                            </text>
                                                        </g>
                                                        <g id="calendar/column-heading" transform="translate(163.709997, 0.000000)">
                                                            <text id="M">
                                                                <tspan x="11.8671898" y="8.88470585">S</tspan>
                                                            </text>
                                                        </g>
                                                    </g>
                                                </g>
                                            </g>
                                            <g id="bars/tab-bar" fill="none" transform="translate(0.000000, 371.789993)">
                                                <g id="Tab-Bar" stroke-width="1">
                                                    <g id="Bar">
                                                        <use fill="black" fill-opacity="1" filter="url(#filter-10)" xlink:href="#path-9"></use>
                                                        <use fill="#FFFFFF" fill-rule="evenodd" xlink:href="#path-9"></use>
                                                    </g>
                                                    <g id="iPhone-X/Home-Indicator/Home-Indicator---On-Light" transform="translate(0.000000, 24.778536)" fill="#D3D7E0">
                                                        <rect id="Rectangle-24" x="61.4543189" y="10.4114632" width="68.3399987" height="2.54999995" rx="1.27499998"></rect>
                                                    </g>
                                                    <g id="icons/tab-bar/account" transform="translate(152.540997, 0.149268)" fill="#888DA6">
                                                        <path d="M19.2246204,6.11999989 C19.900281,6.11999989 20.495945,6.56319215 20.6900946,7.2103576 L20.9419793,8.04997311 C21.2285603,8.17849006 21.5009601,8.33614628 21.7550596,8.52015215 L22.4542268,8.35486629 C23.2036552,8.17769848 23.9805644,8.5130864 24.3656071,9.17999983 L24.4451514,9.31777471 C24.7829817,9.90291393 24.696998,10.6403702 24.233611,11.1320914 L23.6317955,11.7707057 C23.6475808,11.9259343 23.6555316,12.0825074 23.6555316,12.2399998 C23.6555316,12.3974921 23.6475808,12.5540653 23.6317955,12.7092939 L24.1245035,13.2321291 C24.6526496,13.7925692 24.7506497,14.6330863 24.3656071,15.2999997 L24.2860627,15.4377746 C23.9482324,16.0229138 23.2665847,16.3171778 22.6090481,16.1617336 L21.7550596,15.9598474 C21.5009601,16.1438533 21.2285603,16.3015095 20.9419793,16.4300264 L20.7358084,17.1172626 C20.514526,17.8548705 19.835617,18.3599997 19.0655317,18.3599997 L18.906443,18.3599997 C18.2307824,18.3599997 17.6351184,17.9168074 17.4409688,17.2696419 L17.1890841,16.4300264 C16.9025031,16.3015095 16.6301033,16.1438533 16.3760038,15.9598474 L15.6768366,16.1251333 C14.9274082,16.3023011 14.150499,15.9669131 13.7654563,15.2999997 L13.685912,15.1622248 C13.3480817,14.5770856 13.4340654,13.8396293 13.8974523,13.3479081 L14.4992678,12.7092939 C14.4834826,12.5540653 14.4755318,12.3974921 14.4755318,12.2399998 C14.4755318,12.0825074 14.4834826,11.9259343 14.4992678,11.7707057 L14.0065598,11.2478705 C13.4784138,10.6874303 13.3804137,9.84691326 13.7654563,9.17999983 L13.8450007,9.04222494 C14.182831,8.45708573 14.8644787,8.16282172 15.5220153,8.31826593 L16.3760038,8.52015215 C16.6301033,8.33614628 16.9025031,8.17849006 17.1890841,8.04997311 L17.395255,7.36273697 C17.6165373,6.62512903 18.2954464,6.11999989 19.0655317,6.11999989 L19.2246204,6.11999989 Z M19.2246204,7.13999987 L19.0655317,7.13999987 C18.7458868,7.13999987 18.464087,7.3496675 18.3722378,7.65583181 L18.0245673,8.81473322 L17.7903543,8.90433104 C17.4376207,9.03926867 17.108809,9.22976718 16.8157822,9.46791271 L16.6210276,9.62619152 L15.2873514,9.31090526 C15.0681726,9.25909053 14.8409567,9.35717853 14.7283466,9.55222493 L14.6488022,9.68999982 C14.4889798,9.96682044 14.5296574,10.3157 14.7488788,10.548326 L15.5788724,11.4290705 L15.5396931,11.6763975 C15.5103755,11.86147 15.4955318,12.0496999 15.4955318,12.2399998 C15.4955318,12.4302996 15.5103755,12.6185296 15.5396931,12.8036021 L15.5788724,13.050929 L14.6397713,14.0474526 C14.485309,14.2113597 14.4566478,14.4571784 14.5692579,14.6522248 L14.6488022,14.7899997 C14.8086247,15.0668203 15.131102,15.2060322 15.4421728,15.1324939 L16.6210276,14.853808 L16.8157822,15.0120868 C17.108809,15.2502324 17.4376207,15.4407309 17.7903543,15.5756685 L18.0245673,15.6652663 L18.4179516,16.9765471 C18.4826681,17.1922689 18.6812228,17.3399997 18.906443,17.3399997 L19.0655317,17.3399997 C19.3851766,17.3399997 19.6669763,17.130332 19.7588256,16.8241677 L20.1064961,15.6652663 L20.3407091,15.5756685 C20.6934427,15.4407309 21.0222544,15.2502324 21.3152812,15.0120868 L21.5100358,14.853808 L22.8437119,15.1690943 C23.0628908,15.220909 23.2901067,15.122821 23.4027168,14.9277746 L23.4822612,14.7899997 C23.6420836,14.5131791 23.601406,14.1642996 23.3821846,13.9316736 L22.552191,13.050929 L22.5913703,12.8036021 C22.6206879,12.6185296 22.6355316,12.4302996 22.6355316,12.2399998 C22.6355316,12.0496999 22.6206879,11.86147 22.5913703,11.6763975 L22.552191,11.4290705 L23.4912921,10.4325469 C23.6457544,10.2686399 23.6744156,10.0228211 23.5618055,9.8277747 L23.4822612,9.68999982 C23.3224387,9.4131792 22.9999613,9.27396729 22.6888906,9.34750562 L21.5100358,9.62619152 L21.3152812,9.46791271 C21.0222544,9.22976718 20.6934427,9.03926867 20.3407091,8.90433104 L20.1064961,8.81473322 L19.7131118,7.50345244 C19.6483953,7.28773062 19.4498406,7.13999987 19.2246204,7.13999987 Z M19.0655317,10.1999998 C20.1921926,10.1999998 21.1055317,11.1133389 21.1055317,12.2399998 C21.1055317,13.3666606 20.1921926,14.2799997 19.0655317,14.2799997 C17.9388708,14.2799997 17.0255317,13.3666606 17.0255317,12.2399998 C17.0255317,11.1133389 17.9388708,10.1999998 19.0655317,10.1999998 Z M19.0655317,11.2199998 C18.5022013,11.2199998 18.0455317,11.6766693 18.0455317,12.2399998 C18.0455317,12.8033302 18.5022013,13.2599998 19.0655317,13.2599998 C19.6288621,13.2599998 20.0855317,12.8033302 20.0855317,12.2399998 C20.0855317,11.6766693 19.6288621,11.2199998 19.0655317,11.2199998 Z" id="Combined-Shape" transform="translate(19.065532, 12.240000) rotate(30.000000) translate(-19.065532, -12.240000) "></path>
                                                    </g>
                                                    <g id="icons/tab-bar/analytics" transform="translate(114.392998, 0.149268)" fill="#888DA6">
                                                        <path d="M23.6129996,8.15999985 C24.232663,8.15999985 24.7349995,8.61666939 24.7349995,9.17999983 L24.7349995,15.2999997 C24.7349995,15.8633301 24.232663,16.3199997 23.6129996,16.3199997 L14.6369997,16.3199997 C14.0173362,16.3199997 13.5149997,15.8633301 13.5149997,15.2999997 L13.5149997,9.17999983 C13.5149997,8.61666939 14.0173362,8.15999985 14.6369997,8.15999985 L23.6129996,8.15999985 Z M23.7139997,10.0449998 L20.1325117,12.5460985 C19.5556619,13.0508421 18.6943374,13.0508421 18.1174876,12.5460985 L18.1174876,12.5460985 L14.5339997,10.0449998 L14.5349997,15.2999997 L23.7149996,15.2999997 L23.7139997,10.0449998 Z M23.1849997,9.17899985 L15.0639997,9.17899985 L18.7891623,11.7784703 C18.9574101,11.9256872 19.1982583,11.9440893 19.3846563,11.8336766 L19.460837,11.7784703 L23.1849997,9.17899985 Z" id="Combined-Shape"></path>
                                                    </g>
                                                    <g id="icons/tab-bar/search" transform="translate(38.147999, 0.000000)" fill="#888DA6">
                                                        <path d="M18.3332382,6.52433155 C20.7273926,6.52433155 22.6682381,8.46517713 22.6682381,10.8593315 C22.6682381,11.872774 22.3204739,12.8049918 21.7377713,13.543159 L24.0851072,15.8899515 C24.2842745,16.0891189 24.2842745,16.412033 24.0851072,16.6112004 C23.8859398,16.8103678 23.5630256,16.8103678 23.3638583,16.6112004 L21.0170658,14.2638645 C20.2788985,14.8465672 19.3466807,15.1943314 18.3332382,15.1943314 C15.9390839,15.1943314 13.9982383,13.2534858 13.9982383,10.8593315 C13.9982383,8.46517713 15.9390839,6.52433155 18.3332382,6.52433155 Z M18.3332382,7.54433153 C16.5024143,7.54433153 15.0182383,9.02850756 15.0182383,10.8593315 C15.0182383,12.6901554 16.5024143,14.1743314 18.3332382,14.1743314 C20.1640621,14.1743314 21.6482382,12.6901554 21.6482382,10.8593315 C21.6482382,9.02850756 20.1640621,7.54433153 18.3332382,7.54433153 Z" id="Combined-Shape"></path>
                                                    </g>
                                                    <g id="icons/tab-bar/calendar" transform="translate(-0.051000, 0.149268)" fill="#242733">
                                                        <path d="M21.1649996,6.50249988 C21.4466648,6.50249988 21.6749996,6.73083465 21.6749996,7.01249987 L21.6739997,7.52149988 L23.2049996,7.52249986 C23.76833,7.52249986 24.2249995,7.97916941 24.2249995,8.54249984 L24.2249995,16.1924997 C24.2249995,16.7558301 23.76833,17.2124997 23.2049996,17.2124997 L15.0449997,17.2124997 C14.4816693,17.2124997 14.0249997,16.7558301 14.0249997,16.1924997 L14.0249997,8.54249984 C14.0249997,7.97916941 14.4816693,7.52249986 15.0449997,7.52249986 L16.5739997,7.52149988 L16.5749997,7.01249987 C16.5749997,6.73083465 16.8033345,6.50249988 17.0849997,6.50249988 C17.3666649,6.50249988 17.5949997,6.73083465 17.5949997,7.01249987 L17.5939997,7.52149988 L20.6539997,7.52149988 L20.6549996,7.01249987 C20.6549996,6.73083465 20.8833344,6.50249988 21.1649996,6.50249988 Z M23.2039997,11.0914999 L15.0439997,11.0914999 L15.0449997,16.1924997 L23.2049996,16.1924997 L23.2039997,11.0914999 Z M16.5749997,14.1524997 C16.8566649,14.1524997 17.0849997,14.3808345 17.0849997,14.6624997 C17.0849997,14.9441649 16.8566649,15.1724997 16.5749997,15.1724997 C16.2933345,15.1724997 16.0649997,14.9441649 16.0649997,14.6624997 C16.0649997,14.3808345 16.2933345,14.1524997 16.5749997,14.1524997 Z M19.1249996,14.1524997 C19.4066649,14.1524997 19.6349996,14.3808345 19.6349996,14.6624997 C19.6349996,14.9441649 19.4066649,15.1724997 19.1249996,15.1724997 C18.8433344,15.1724997 18.6149997,14.9441649 18.6149997,14.6624997 C18.6149997,14.3808345 18.8433344,14.1524997 19.1249996,14.1524997 Z M21.6749996,14.1524997 C21.9566648,14.1524997 22.1849996,14.3808345 22.1849996,14.6624997 C22.1849996,14.9441649 21.9566648,15.1724997 21.6749996,15.1724997 C21.3933344,15.1724997 21.1649996,14.9441649 21.1649996,14.6624997 C21.1649996,14.3808345 21.3933344,14.1524997 21.6749996,14.1524997 Z M16.5749997,12.1124998 C16.8566649,12.1124998 17.0849997,12.3408345 17.0849997,12.6224998 C17.0849997,12.904165 16.8566649,13.1324998 16.5749997,13.1324998 C16.2933345,13.1324998 16.0649997,12.904165 16.0649997,12.6224998 C16.0649997,12.3408345 16.2933345,12.1124998 16.5749997,12.1124998 Z M19.1249996,12.1124998 C19.4066649,12.1124998 19.6349996,12.3408345 19.6349996,12.6224998 C19.6349996,12.904165 19.4066649,13.1324998 19.1249996,13.1324998 C18.8433344,13.1324998 18.6149997,12.904165 18.6149997,12.6224998 C18.6149997,12.3408345 18.8433344,12.1124998 19.1249996,12.1124998 Z M21.6749996,12.1124998 C21.9566648,12.1124998 22.1849996,12.3408345 22.1849996,12.6224998 C22.1849996,12.904165 21.9566648,13.1324998 21.6749996,13.1324998 C21.3933344,13.1324998 21.1649996,12.904165 21.1649996,12.6224998 C21.1649996,12.3408345 21.3933344,12.1124998 21.6749996,12.1124998 Z M23.2049996,8.54249984 L15.0449997,8.54249984 L15.0439997,10.0714999 L23.2039997,10.0714999 L23.2049996,8.54249984 Z" id="Combined-Shape"></path>
                                                    </g>
                                                </g>
                                                <g id="icons/tab-bar/new" transform="translate(76.295999, 0.000000)" fill="#4D6EFF">
                                                    <path d="M19.0739996,5.75926818 C24.1277117,5.75926818 25.7039995,7.57742093 25.7039995,12.3892681 C25.7039995,17.2011152 24.1277117,19.0192679 19.0739996,19.0192679 C14.0202876,19.0192679 12.4439998,17.2011152 12.4439998,12.3892681 C12.4439998,7.57742093 14.0202876,5.75926818 19.0739996,5.75926818 Z M19.0739996,6.77926817 C14.6852612,6.77926817 13.4639997,8.03652403 13.4639997,12.3892681 C13.4639997,16.7420121 14.6852612,17.999268 19.0739996,17.999268 C23.4627381,17.999268 24.6839995,16.7420121 24.6839995,12.3892681 C24.6839995,8.03652403 23.4627381,6.77926817 19.0739996,6.77926817 Z M19.0739996,9.32926812 C19.3556649,9.32926812 19.5839996,9.55760289 19.5839996,9.83926811 L19.5829998,11.8782682 L21.6239996,11.8792681 C21.9056648,11.8792681 22.1339996,12.1076028 22.1339996,12.3892681 C22.1339996,12.6709333 21.9056648,12.8992681 21.6239996,12.8992681 L19.5829998,12.8982682 L19.5839996,14.939268 C19.5839996,15.2209332 19.3556649,15.449268 19.0739996,15.449268 C18.7923344,15.449268 18.5639997,15.2209332 18.5639997,14.939268 L18.5629998,12.8982682 L16.5239997,12.8992681 C16.2423345,12.8992681 16.0139997,12.6709333 16.0139997,12.3892681 C16.0139997,12.1076028 16.2423345,11.8792681 16.5239997,11.8792681 L18.5629998,11.8782682 L18.5639997,9.83926811 C18.5639997,9.55760289 18.7923344,9.32926812 19.0739996,9.32926812 Z" id="Combined-Shape"></path>
                                                </g>
                                            </g>
                                        </g>
                                    </g>
                                </g>
                            </g>
                        </g>
                    </g>
                </g>
            </g>
        </g>
    </g>
</svg>