<svg xmlns="http://www.w3.org/2000/svg" width="146" height="23" viewBox="0 0 146 23">
    <g fill="none" fill-rule="evenodd">
        <path fill="#101426" d="M3.869 14.851c0 1.545.387 2.756 1.163 3.634.776.878 1.848 1.317 3.216 1.317.592 0 1.097-.024 1.516-.073.418-.048.76-.1 1.026-.159v-8.685c-.327-.212-.76-.41-1.302-.593-.54-.183-1.118-.275-1.73-.275-1.347 0-2.333.434-2.955 1.302-.623.869-.934 2.046-.934 3.532zm10.626 7.151c-.735.213-1.658.405-2.771.58-1.113.173-2.282.26-3.506.26-1.267 0-2.4-.184-3.4-.55-1-.367-1.853-.893-2.557-1.578-.705-.685-1.246-1.515-1.624-2.49-.377-.974-.566-2.07-.566-3.286 0-1.196.158-2.282.475-3.257.316-.974.78-1.809 1.393-2.504.613-.694 1.358-1.23 2.236-1.606.877-.377 1.888-.565 3.032-.565.775 0 1.46.087 2.052.26.592.174 1.102.367 1.531.58V.578L14.495 0v22.002zM29.839 13.404c0-.482-.072-.941-.215-1.375-.143-.435-.352-.81-.627-1.13-.276-.318-.613-.568-1.011-.752-.398-.183-.873-.275-1.424-.275-.572 0-1.072.101-1.501.304-.429.203-.791.468-1.087.796-.296.328-.526.705-.69 1.129-.163.425-.275.86-.336 1.303h6.89zm-10.75 1.563c0-1.332.21-2.5.628-3.503.418-1.003.975-1.838 1.67-2.504.693-.666 1.49-1.167 2.388-1.505.898-.338 1.817-.507 2.756-.507 2.205 0 3.925.647 5.16 1.94 1.235 1.293 1.853 3.223 1.853 5.79 0 .193-.005.41-.015.651-.01.242-.026.459-.046.651H22.917c.102 1.216.556 2.157 1.363 2.823.807.666 1.975.999 3.507.999.898 0 1.72-.077 2.465-.232.745-.154 1.332-.318 1.761-.492l.49 2.866c-.204.097-.485.198-.842.304-.358.106-.766.203-1.225.29-.46.087-.955.159-1.485.217-.532.058-1.072.087-1.624.087-1.408 0-2.634-.199-3.675-.594-1.04-.395-1.899-.945-2.572-1.65-.674-.704-1.174-1.534-1.5-2.49-.328-.955-.49-2.002-.49-3.14zM38.23 7.816c.714-.192 1.643-.376 2.787-.55 1.143-.173 2.409-.26 3.797-.26 1.307 0 2.4.169 3.277.506.878.339 1.577.811 2.098 1.419.52.608.888 1.342 1.103 2.2.214.86.321 1.8.321 2.823v8.511h-3.706v-7.96c0-.812-.056-1.502-.168-2.07-.112-.57-.296-1.033-.551-1.39-.256-.358-.603-.618-1.042-.782-.439-.164-.975-.246-1.607-.246-.47 0-.96.029-1.47.087-.51.057-.889.106-1.133.144v12.217H38.23V7.816zM56.727 3.33l3.706-.58v4.574h5.696v2.924h-5.696v6.167c0 1.216.204 2.084.612 2.605.409.521 1.103.782 2.083.782.674 0 1.27-.067 1.791-.203.521-.135.935-.26 1.24-.376l.613 2.78c-.428.173-.99.352-1.684.535-.694.183-1.511.275-2.45.275-1.144 0-2.098-.145-2.864-.434-.765-.29-1.373-.71-1.822-1.26-.45-.55-.765-1.216-.95-1.997-.183-.782-.275-1.675-.275-2.678V3.329z"/>
        <path fill="#00A1E1" d="M76.113 20.005c1.143 0 2.01-.059 2.603-.174v-3.88c-.204-.057-.5-.115-.888-.173-.388-.058-.817-.087-1.287-.087-.408 0-.821.029-1.24.087-.418.058-.796.164-1.133.318-.337.155-.608.372-.811.652-.205.28-.307.632-.307 1.056 0 .83.276 1.404.827 1.723.551.318 1.297.478 2.236.478m-.306-13.057c1.225 0 2.255.145 3.093.434.837.29 1.505.695 2.006 1.216.5.521.857 1.154 1.072 1.896.214.744.321 1.56.321 2.447v9.177c-.572.116-1.434.256-2.588.42-1.153.163-2.455.246-3.904.246-.96 0-1.838-.087-2.634-.26-.796-.175-1.475-.454-2.037-.84-.561-.386-1-.888-1.317-1.506-.316-.617-.474-1.38-.474-2.287 0-.868.178-1.602.536-2.2.357-.598.842-1.086 1.455-1.462.612-.376 1.321-.646 2.128-.81.806-.164 1.648-.247 2.526-.247.409 0 .837.025 1.286.072.45.05.93.13 1.44.247v-.58c0-.405-.051-.79-.153-1.157-.102-.367-.281-.69-.536-.97s-.592-.497-1.01-.651c-.42-.155-.945-.232-1.578-.232-.857 0-1.644.058-2.358.173-.715.116-1.297.252-1.745.406l-.46-2.837c.47-.155 1.153-.309 2.052-.463.898-.155 1.858-.232 2.879-.232M92.865 22.755c-1.103-.02-2.017-.135-2.741-.347-.725-.213-1.302-.517-1.73-.912-.43-.396-.73-.888-.904-1.477-.174-.588-.26-1.26-.26-2.012V.58L90.935 0v17.341c0 .425.036.782.108 1.071.07.29.199.536.382.739.184.202.434.357.75.463.317.106.72.188 1.21.246l-.52 2.895zM102.42 22.755c-1.103-.02-2.017-.135-2.741-.347-.725-.213-1.302-.517-1.73-.912-.43-.396-.73-.888-.904-1.477-.174-.588-.26-1.26-.26-2.012V.58L100.49 0v17.341c0 .425.036.782.107 1.071.072.29.2.536.383.739.184.202.434.357.75.463.317.106.72.188 1.21.246l-.52 2.895z"/>
        <path fill="#101426" d="M109.904 21.88c.205 0 .383-.075.532-.224.15-.15.224-.327.224-.532v-7.896h9.856v7.896c0 .205.075.383.224.532.15.15.327.224.532.224h1.148c.205 0 .383-.075.532-.224.15-.15.224-.327.224-.532V3.036c0-.205-.075-.383-.224-.532-.15-.15-.327-.224-.532-.224h-1.148c-.205 0-.383.075-.532.224-.15.15-.224.327-.224.532v7.672h-9.856V3.036c0-.205-.075-.383-.224-.532-.15-.15-.327-.224-.532-.224h-1.148c-.205 0-.383.075-.532.224-.15.15-.224.327-.224.532v18.088c0 .224.075.406.224.546.15.14.327.21.532.21h1.148zM128.156 5.108c.205 0 .383-.075.532-.224.15-.15.224-.327.224-.532V2.756c0-.205-.075-.383-.224-.532-.15-.15-.327-.224-.532-.224h-1.596c-.205 0-.383.075-.532.224-.15.15-.224.327-.224.532v1.596c0 .205.075.383.224.532.15.15.327.224.532.224h1.596zM127.876 21.88c.205 0 .383-.075.532-.224.15-.15.224-.327.224-.532V8.076c0-.205-.075-.383-.224-.532-.15-.15-.327-.224-.532-.224h-1.036c-.205 0-.383.075-.532.224-.15.15-.224.327-.224.532v13.048c0 .205.075.383.224.532.15.15.327.224.532.224h1.036zM137.7 22.16c1.139 0 2.17-.14 3.094-.42.924-.28 1.713-.672 2.366-1.176.653-.504 1.162-1.106 1.526-1.806.364-.7.546-1.47.546-2.31 0-.69-.107-1.311-.322-1.862-.215-.55-.555-1.036-1.022-1.456-.467-.42-1.069-.798-1.806-1.134-.737-.336-1.638-.644-2.702-.924-1.045-.28-1.932-.532-2.66-.756-.728-.224-1.33-.471-1.806-.742-.476-.27-.821-.574-1.036-.91-.215-.336-.322-.747-.322-1.232s.112-.91.336-1.274c.224-.364.523-.667.896-.91s.798-.425 1.274-.546c.476-.121.975-.182 1.498-.182.69 0 1.297.098 1.82.294.523.196.966.43 1.33.7.364.27.653.55.868.84.215.29.369.527.462.714.13.261.257.43.378.504.121.075.285.112.49.112h1.148c.168 0 .317-.06.448-.182.13-.121.187-.266.168-.434-.019-.467-.187-.994-.504-1.582-.317-.588-.78-1.139-1.386-1.652-.607-.513-1.344-.947-2.212-1.302-.868-.355-1.871-.532-3.01-.532-1.12 0-2.095.154-2.926.462-.83.308-1.521.714-2.072 1.218-.55.504-.966 1.083-1.246 1.736s-.42 1.325-.42 2.016c0 .635.089 1.223.266 1.764.177.541.471 1.036.882 1.484.41.448.943.845 1.596 1.19.653.345 1.447.64 2.38.882 1.027.261 1.946.509 2.758.742.812.233 1.498.49 2.058.77.56.28.99.593 1.288.938.299.345.448.76.448 1.246 0 .485-.13.924-.392 1.316-.261.392-.616.728-1.064 1.008-.448.28-.966.495-1.554.644-.588.15-1.209.224-1.862.224-.765 0-1.428-.093-1.988-.28-.56-.187-1.036-.415-1.428-.686-.392-.27-.705-.56-.938-.868-.233-.308-.406-.593-.518-.854-.112-.261-.238-.43-.378-.504-.14-.075-.303-.112-.49-.112h-1.148c-.168 0-.313.06-.434.182-.121.121-.182.266-.182.434.019.597.22 1.204.602 1.82.383.616.9 1.176 1.554 1.68.653.504 1.437.915 2.352 1.232.915.317 1.913.476 2.996.476z"/>
    </g>
</svg>