<?xml version="1.0" encoding="utf-8"?>
<!-- Generator: Adobe Illustrator 24.1.2, SVG Export Plug-In . SVG Version: 6.00 Build 0)  -->
<svg version="1.1" id="Layer_1" xmlns="http://www.w3.org/2000/svg" xmlns:xlink="http://www.w3.org/1999/xlink" x="0px" y="0px"
	 viewBox="0 0 260 390" style="enable-background:new 0 0 260 390;" xml:space="preserve">
<style type="text/css">
	.st0{fill:#E8F8FF;}
	.st1{fill:#FFFFFF;}
	.st2{fill:#52483F;}
	.st3{fill:#FFEDB8;}
	.st4{fill:none;}
	.st5{fill:#C6EEFF;}
	.st6{fill:#D3DD91;}
	.st7{fill:#6DB330;}
</style>
<g id="Layer_2_1_">
	<g id="圖層_2">
		<circle class="st0" cx="134.2" cy="250" r="123.3"/>
		<path class="st1" d="M201.7,373.8c0,0-28.7-4-28.7,14.1h53.6l-3.7-14.7L201.7,373.8z"/>
		<path class="st2" d="M201.9,373c-3.4-0.4-6.8-0.5-10.2-0.3c-5.6,0.4-11.9,1.6-16,5.8c-2.5,2.6-3.7,6-3.7,9.5
			c0,0.5,0.4,0.9,0.9,0.9h47c2.2,0,4.3,0.1,6.5,0h0.1c0.5,0,0.9-0.4,0.9-0.9c0,0,0,0,0,0c0-0.1,0-0.1,0-0.2l-3.2-12.9l-0.4-1.8
			c-0.1-0.4-0.5-0.6-0.9-0.6l-18.5,0.5l-2.6,0.1c-1.1,0-1.1,1.8,0,1.8l18.5-0.5l2.6-0.1l-0.9-0.6l3.2,12.9l0.5,1.8l0.9-1.1h-51.4
			c-0.7,0-1.4,0-2.1,0h-0.1l0.9,0.9c0-2.9,0.8-5.7,2.7-7.8c1.8-2,4.1-3.3,6.6-4.1c4.8-1.6,10-1.9,15-1.6c0.8,0,1.7,0.1,2.5,0.2
			l0.7,0.1c0.2,0,0.4,0.1,0,0C202.6,374.8,203,373.1,201.9,373z"/>
		<path class="st2" d="M196.4,379l-4.3-5.9c-0.7-0.9-2.2,0-1.5,0.9l4.3,5.9C195.6,380.8,197.1,379.9,196.4,379z"/>
		<path class="st2" d="M201.5,379l-4.3-5.9c-0.7-0.9-2.2,0-1.5,0.9l4.3,5.9C200.6,380.8,202.1,379.9,201.5,379z"/>
		<path class="st2" d="M126.2,181.6c0,0-29.7,75.7-18,193h29c0,0,0.8-89.4,23.1-142.9c0,0,1,57.4,41.6,142.9H229
			c0,0-17.1-49-12.3-115s-25.5-78-25.5-78L126.2,181.6z"/>
		<path class="st1" d="M124.8,84.7c0,0,9.4,29.1-5.1,53.3c-15.1,25-53.8,53.9-99.8,14l11.5-19.8c0,0,29.5,2.7,43.4-10.2
			C84.5,112.9,106.4,82.8,124.8,84.7z"/>
		<path class="st2" d="M190.1,31.1c0,0,2,11.9,18.5,17.8s19.5,16.5,16.6,23.6c-2.9,7.2-18,11.9-26.7,2.7c0,0,6,11.1-2.7,13.3
			s-25.5,15.1-53.4-2.7s-2.6-50.3-2.6-50.3L190.1,31.1z"/>
		<path class="st3" d="M190.2,81.2c-7.7-3.8-17.3-6.1-27.6-6.1s-19.9,2.2-27.6,6.1c-11.1,5.5-18.3,14.1-18.3,23.9v59.6
			c0,11.4,10.5,20.7,23.4,20.7h45c12.9,0,23.4-9.3,23.4-20.7v-59.6C208.5,95.4,201.4,86.7,190.2,81.2z"/>
		<polygon class="st1" points="151.8,53.3 151.8,78.1 162.6,88.5 173.4,78.1 173.4,53.3 		"/>
		<path class="st2" d="M150.9,53.3v17.2c0,2.5-0.1,5,0,7.4c0,0.7,0.5,1,1,1.5l3.3,3.2l6.8,6.6c0.3,0.3,0.9,0.3,1.2,0l5.8-5.6
			l3.7-3.6c0.5-0.5,1.5-1.2,1.6-1.9c0.1-0.6,0-1.3,0-1.9V53.3c0-0.5-0.4-0.9-0.9-0.9h-21.6c-1.1,0-1.1,1.8,0,1.8h21.6l-0.9-0.9v24.8
			l0.3-0.6l-9.5,9.2l-1.3,1.3h1.2l-9.5-9.2l-1.3-1.3l0.3,0.6V53.3C152.7,52.2,150.9,52.2,150.9,53.3z"/>
		<path class="st1" d="M186.9,50.5c0,0-1.8-1.4-3.9-0.5c-2,0.8-2.7,3.9-1.1,4.5c1.6,0.6,2.8-0.2,3-1.5c0.2-1.2-1.1-1.9-3-1.9"/>
		<path class="st2" d="M187.4,49.7c-2.5-1.8-6.4-0.8-7.1,2.4c-0.3,1.5,0.3,2.9,1.8,3.3c1.7,0.4,3.5-0.6,3.7-2.4
			c0.2-2.2-2.2-2.7-3.9-2.8c-1.1,0-1.1,1.7,0,1.8c0.7,0,2.8,0.2,1.9,1.4c-0.5,0.7-1.9,0.6-1.9-0.4c0-1.1,0.8-2,1.8-2.3
			c1-0.2,1.9,0,2.7,0.6C187.4,51.9,188.3,50.4,187.4,49.7L187.4,49.7z"/>
		<path class="st1" d="M185.9,44.8c-0.8,0-1.5,0.1-2.2,0.3c1.5-11.3-1.5-23.3-20.3-24.4c-18.3-1.1-22.3,11.5-21.2,26.2
			c0.6,8.3,2.4,19,10.4,23.3c9.6,5.3,22.4,0.1,27.5-11.8c1.4,1.5,3.1,2.7,5.4,2.8c4.4,0.1,8.4-4.8,8.4-9.2
			C193.9,47.5,190.3,44.9,185.9,44.8z"/>
		<path class="st2" d="M185.9,43.9c-0.8,0-1.7,0.1-2.5,0.3l1.1,0.9c0.5-3.8,0.5-7.8-0.5-11.6c-1-3.8-3.3-7.1-6.5-9.4
			c-4.2-3-9.7-4.1-14.8-4.3c-4.7-0.2-9.6,0.4-13.5,3.1c-7.2,4.9-8.4,14.5-8,22.6c0.5,9.6,2.4,22,12.4,26.3c9.5,4.1,20-0.9,25.3-9.2
			c0.7-1.2,1.4-2.4,1.9-3.6l-1.4,0.2c1.8,1.8,4,3.2,6.7,3c2.3-0.3,4.5-1.5,5.9-3.3c2.8-3.4,4-8.7,0.6-12.2
			C190.8,44.8,188.3,44,185.9,43.9c-1.1,0-1.1,1.7,0,1.8c3.5,0.1,6.9,2,7,5.8c0.1,3.6-2.6,7.7-6.2,8.6c-2.4,0.6-4.5-0.6-6.2-2.3
			c-0.3-0.3-0.9-0.4-1.2,0c-0.1,0.1-0.1,0.1-0.2,0.2c-2,4.6-5.2,8.5-9.6,11c-3.8,2.2-8.3,3.1-12.6,2.1c-4.7-1.1-8.3-4.2-10.5-8.5
			c-2.2-4.3-3-9.3-3.5-14.1c-0.7-7.5-0.7-16.9,5.1-22.5c2.9-2.9,6.9-4.1,10.9-4.4c5-0.3,10.5,0.3,15,2.6c3.3,1.6,6,4.4,7.5,7.8
			c1.4,3.3,1.7,6.9,1.4,10.4c-0.1,0.9-0.1,1.8-0.3,2.8c-0.1,0.6,0.6,1,1.1,0.9c0.7-0.2,1.3-0.3,2-0.3C187,45.7,187,43.9,185.9,43.9z
			"/>
		<path class="st1" d="M156.4,59.2c0,0-0.2,4.6,4.1,4.7c4.6,0.1,4.4-4.5,4.4-4.5"/>
		<path class="st2" d="M155.5,59.2c-0.1,1.9,0.8,4,2.6,4.9c2.7,1.4,6.3,0.3,7.4-2.6c0.3-0.7,0.4-1.5,0.4-2.2c-0.1-1.1-1.8-1.1-1.8,0
			c0,0.6-0.1,1.2-0.3,1.8c-0.5,1.2-1.7,1.9-2.9,1.9c-1.4,0-2.7-0.5-3.2-1.9c-0.3-0.6-0.4-1.3-0.4-1.9
			C157.3,58.1,155.5,58.1,155.5,59.2L155.5,59.2z"/>
		<circle class="st2" cx="152.6" cy="47.1" r="1.3"/>
		<circle class="st2" cx="169.4" cy="47.8" r="1.3"/>
		<line class="st4" x1="160.8" y1="50.3" x2="160.7" y2="55.9"/>
		<path class="st2" d="M159.9,50.3l-0.1,5.7c0,1.1,1.7,1.1,1.8,0l0.1-5.7C161.7,49.1,159.9,49.1,159.9,50.3z"/>
		<path class="st2" d="M154.5,10.3c0,0-16.1-5.5-22.7,7.5c-6.7,13.1,2.2,20.9,10.2,23.1c10.7,2.9,16.2-6.4,19.7-11.9
			c0,0,3.8,15.3,21.4,15.4c2.5-0.6,5.1-0.3,7.4,0.8c0,0,15-25.5-5.9-37.2C162.2-4.7,154.5,10.3,154.5,10.3z"/>
		<path class="st2" d="M178.4,2.2l0.7,5.4c0.1,0.5,0.6,0.7,1,0.6c0.1,0,0.2-0.1,0.2-0.1l4.7-3.3c0.9-0.7,0-2.2-0.9-1.5l-4.7,3.4
			l1.3,0.5l-0.8-5.4c-0.1-0.5-0.6-0.7-1.1-0.6C178.6,1.3,178.3,1.7,178.4,2.2z"/>
		<path class="st1" d="M145.8,83.7L160,97.4l2,2c0.3,0.3,0.9,0.3,1.2,0l14.2-13.7l2-2c0.8-0.8-0.4-2-1.2-1.2L164,96.2l-2,2h1.2
			L149,84.4l-2-1.9C146.2,81.7,145,82.9,145.8,83.7L145.8,83.7z"/>
		<path class="st1" d="M183.6,78.5c0,0-8.2,65.6-8.2,107h32.9C208.3,185.5,260.3,90.5,183.6,78.5z"/>
		<path class="st1" d="M143,78.1c0,0-3.3,75.3,1,107.4h-24C120,185.5,82.9,85.1,143,78.1z"/>
		<path class="st2" d="M137.7,101.5l-9.3,8.8l-1.3,1.2c-0.2,0.2-0.3,0.6-0.2,0.9l3.5,12.4l5.6,19.6l1.3,4.5c0.3,1.1,2,0.6,1.7-0.5
			l-3.5-12.4l-5.6-19.6l-1.3-4.5l-0.2,0.9l9.3-8.8l1.3-1.2C139.8,101.9,138.5,100.7,137.7,101.5L137.7,101.5z"/>
		<path class="st2" d="M126.7,87.6l-0.9,12.8l-0.1,1.8c0,0.4,0.3,0.8,0.6,0.9l9,2.5c1.1,0.3,1.6-1.4,0.5-1.7l-9-2.5l0.6,0.8
			l0.9-12.8l0.1-1.8C128.6,86.5,126.8,86.5,126.7,87.6L126.7,87.6z"/>
		<path class="st2" d="M183.7,102.8l8.6,9.4l1.2,1.3l-0.2-0.9l-4.4,12.1l-7,19.2l-1.6,4.4c-0.4,1.1,1.3,1.5,1.7,0.5l4.4-12.1l7-19.2
			l1.6-4.4c0.1-0.3,0-0.6-0.2-0.9l-8.6-9.4l-1.2-1.3C184.2,100.7,183,102,183.7,102.8L183.7,102.8z"/>
		<path class="st2" d="M195.2,88.5v14.6l0.6-0.9l-9.1,1.9c-1.1,0.2-0.6,1.9,0.5,1.7l9.1-1.9c0.4-0.1,0.7-0.5,0.6-0.9V88.5
			C197,87.4,195.2,87.4,195.2,88.5z"/>
		<path class="st1" d="M188.7,51.1c0,0-1.8-1.4-3.9-0.6c-2.1,0.8-2.8,3.8-1.2,4.4s2.8-0.2,3-1.4c0.2-1.2-1.1-1.9-3-2"/>
		<path class="st2" d="M189.1,50.4c-2.5-1.9-6.4-0.9-7.1,2.3c-0.3,1.5,0.2,2.9,1.8,3.3c1.7,0.4,3.4-0.5,3.7-2.3
			c0.3-2.2-2.1-2.8-3.8-2.9c-1.1-0.1-1.1,1.7,0,1.8c0.7,0,2.8,0.3,1.9,1.4c-0.6,0.7-1.9,0.5-1.9-0.4c0.1-1.1,0.8-2,1.9-2.2
			c1-0.2,1.9,0.1,2.7,0.7C189.1,52.6,190,51.1,189.1,50.4L189.1,50.4z"/>
		<path class="st2" d="M108.1,118.4c-1.1,11.8,0.3,23.9,2.5,35.5c1.7,9.1,4,18.1,6.9,26.9c0.5,1.7,1.1,3.3,1.7,5
			c0.4,1.1,2.1,0.6,1.7-0.5c-1.7-4.8-3.2-9.7-4.5-14.6c-2.9-10.6-5.2-21.4-6.2-32.4c-0.7-6.6-0.8-13.3-0.2-19.9
			C110,117.3,108.2,117.3,108.1,118.4L108.1,118.4z"/>
		<path class="st2" d="M36,136.8L27.7,151l-1.2,2c-0.6,1,1,1.9,1.5,0.9l8.3-14.3l1.2-2C38.1,136.6,36.6,135.8,36,136.8L36,136.8z"/>
		<path class="st1" d="M21.3,149.2l7.6-13.5c0,0,0.7-9.1-3.9-11.3s-3.1,6.3-3.1,6.3s-11.1-13.3-17.1-3.4S14.5,145.4,21.3,149.2z"/>
		<path class="st2" d="M22,149.7c2.5-4.4,5.1-8.8,7.5-13.3c0.2-0.6,0.3-1.2,0.3-1.8c0-1.6-0.1-3.2-0.5-4.8c-0.4-1.8-1.1-3.7-2.4-5
			c-1.1-1.1-3.1-2.1-4.6-1.2c-1.4,0.8-1.6,2.7-1.6,4.2c0,1.1,0.1,2.2,0.3,3.2l1.5-0.9c-1.4-1.6-3-3.1-4.8-4.4
			c-2.6-1.9-6.1-3.7-9.4-2.6c-3.8,1.3-6.1,5.9-5.6,9.7c0.5,4.1,3.6,7.3,6.7,9.8c3.6,2.9,7.6,5.1,11.6,7.3c1,0.5,1.9-1,0.9-1.5
			c-3.3-1.7-6.4-3.6-9.5-5.7c-3-2.1-6.2-4.9-7.5-8.4c-1.2-3.3,0.1-7.5,3.2-9.2c2.7-1.5,5.9,0.1,8.2,1.7c1.9,1.3,3.5,2.8,5,4.5
			c0.6,0.7,1.6-0.1,1.5-0.9c0-0.1,0-0.1,0-0.2c0-0.1,0-0.1,0-0.2c0,0,0-0.1,0-0.1c-0.1-0.5-0.1-1.1-0.1-1.7c0-0.6,0-1.2,0.1-1.8
			c0.1-0.5,0.2-0.9,0.5-1.3c0.1-0.1,0.2-0.2,0.4-0.2c0.2,0,0.5,0,0.7,0c0.7,0.2,1.4,0.6,1.9,1.2c1.1,1.2,1.6,2.9,1.8,4.4
			c0.2,1.3,0.3,2.7,0.3,4.1c0,0.3-0.1,0.6,0,0.9c0,0.2,0.3-0.5,0.1-0.4c-0.1,0.1-0.1,0.2-0.1,0.3l-3.9,6.8l-3.6,6.4
			C20,149.8,21.5,150.6,22,149.7z"/>
		<path class="st2" d="M13.3,136.9c-1.2-0.8-2.4-1.8-3.5-2.7C8,132.6,6,130.8,5,128.5c-0.2-0.4-0.8-0.6-1.2-0.3c0,0,0,0,0,0
			c-0.4,0.3-0.5,0.8-0.3,1.2c1,2.4,3.1,4.3,5,6c1.2,1.1,2.5,2.1,3.9,3C13.4,139.1,14.3,137.6,13.3,136.9L13.3,136.9z"/>
		<path class="st2" d="M16,132.7c-1.2-0.9-2.4-1.8-3.5-2.7c-1.8-1.6-3.8-3.4-4.8-5.6c-0.2-0.4-0.8-0.6-1.2-0.3c0,0,0,0,0,0
			c-0.4,0.3-0.5,0.8-0.3,1.2c1,2.4,3.1,4.3,5,6c1.2,1.1,2.5,2.1,3.9,3C16,134.8,16.9,133.3,16,132.7L16,132.7z"/>
		<path class="st1" d="M107.7,373.8c0,0-28.7-4-28.7,14.1h52.8l0.7-14.7L107.7,373.8z"/>
		<path class="st2" d="M107.9,373c-3.4-0.4-6.8-0.5-10.2-0.3c-5.6,0.4-11.9,1.6-16,5.8c-2.5,2.6-3.7,6-3.7,9.5
			c0,0.5,0.4,0.9,0.9,0.9h46.3c2.1,0,4.3,0.1,6.4,0h0.1c0.5,0,0.8-0.4,0.9-0.9l0.6-12.9l0.1-1.9c0-0.5-0.4-0.9-0.9-0.9l-21.8,0.5
			l-3.1,0.1c-1.1,0-1.1,1.8,0,1.8l21.8-0.5l3.1-0.1l-0.9-0.9l-0.6,12.9l-0.1,1.8l0.9-0.9H81.1c-0.7-0.1-1.4-0.1-2.1,0h-0.1l0.9,0.9
			c0-2.9,0.8-5.7,2.7-7.8c1.8-2,4.1-3.3,6.6-4.1c4.8-1.6,10-1.9,15-1.6c0.8,0,1.7,0.1,2.5,0.2l0.7,0.1c0.2,0,0.4,0.1,0,0
			C108.5,374.8,109,373.1,107.9,373z"/>
		<path class="st2" d="M102.4,379l-4.3-5.9c-0.7-0.9-2.2,0-1.5,0.9l4.3,5.9C101.5,380.7,103.1,379.9,102.4,379L102.4,379z"/>
		<path class="st2" d="M107.4,379l-4.3-5.9c-0.7-0.9-2.2,0-1.5,0.9l4.3,5.9C106.6,380.8,108.1,379.9,107.4,379z"/>
		<path class="st5" d="M173.9,321.7c0-5,3.1-9.4,7.8-11.1c-1.6-3-2.5-6.5-2.5-9.9l0,0c0-11.6,9.4-21,21-21h38.9
			c2.7-9.7,4.1-19.7,4.1-29.7c0-1.3,0-2.5-0.1-3.8c-3.6,6.9-10.8,11.1-18.5,11.2h-20.4c1.2,1.8,1.9,3.9,1.9,6l0,0
			c0,5.8-4.7,10.5-10.5,10.5h-22.9c-5.8,0-10.5-4.7-10.5-10.5l0,0c0-3.8,2.1-7.4,5.5-9.2c-5.4-3.4-9-9-9.7-15.3h-14.1
			c-19.3,0-34.9-15.7-34.9-34.9l0,0c0-19.3,15.7-34.9,34.9-34.9h63.6c-10.4-9.5-22.5-16.8-35.7-21.7v0.4l0,0c0,7.4-6,13.4-13.4,13.4
			h-29.2c-7.4,0-13.4-6-13.4-13.4l0,0c0-2,0.5-4.1,1.4-5.9c-21.3,3.2-41.2,12.7-57.1,27.3h19.1c5.8-0.1,10.5,4.6,10.6,10.4
			c0.1,5.8-4.6,10.5-10.4,10.6l0,0H67.2c4,5.8,6.1,12.7,6.1,19.7l0,0c-0.1,19.3-15.7,34.9-34.9,34.9h-14c-0.1,1.8-0.1,3.5-0.1,5.3
			c0,10.9,1.6,21.7,4.8,32.2h29.1c7.4,0,13.4,6,13.4,13.4l0,0c0,7.4-6,13.4-13.4,13.4H41.5c8.1,12.6,18.7,23.5,31.1,31.9
			c3.7-3.1,8.5-4.8,13.3-4.8h45.9c11.6,0,20.9,9.4,21,21l0,0c0,0.3,0,0.5,0,0.8c19.1-3.4,37-11.8,51.8-24.4h-18.9
			C179.2,333.5,174,328.2,173.9,321.7z M102.3,266.4c0,4.9-4,8.9-8.9,8.9H73.9c-4.9,0-8.9-4-8.9-8.9l0,0c0-4.9,4-8.9,8.9-8.9h19.5
			C98.3,257.5,102.3,261.5,102.3,266.4L102.3,266.4z"/>
		<path class="st6" d="M108.9,204.1L108.9,204.1c0,19.3,15.7,34.9,34.9,34.9H158c0.8,6.3,4.4,11.9,9.7,15.3
			c-3.4,1.8-5.5,5.4-5.5,9.2l0,0c0,5.8,4.7,10.5,10.5,10.5h22.9c5.8,0,10.5-4.7,10.5-10.5l0,0c0-2.1-0.7-4.2-1.9-6h20.4
			c7.8,0,14.9-4.3,18.5-11.2c-1-29.5-13.9-57.3-35.7-77.2h-63.6C124.6,169.2,109,184.8,108.9,204.1z"/>
		<path class="st6" d="M73.4,209.8L73.4,209.8c0-7-2.1-13.9-6.1-19.7h11.9c5.8,0.1,10.5-4.6,10.6-10.4c0.1-5.8-4.6-10.5-10.4-10.6
			H60.1c-21.4,19.5-34.3,46.7-35.6,75.6h14C57.7,244.7,73.3,229.1,73.4,209.8z"/>
		<path class="st6" d="M115.8,147.8c0,7.4,6,13.4,13.4,13.4h29.2c7.4,0,13.3-6,13.4-13.4l0,0v-0.4c-17.4-6.4-36.2-8.3-54.6-5.5
			C116.3,143.7,115.8,145.7,115.8,147.8L115.8,147.8z"/>
		<path class="st6" d="M71.6,295.6L71.6,295.6c0-7.4-6-13.3-13.3-13.4H29.2c2.9,9.4,7.1,18.4,12.4,26.7h16.7
			C65.6,308.9,71.6,303,71.6,295.6z"/>
		<path class="st6" d="M152.8,357c0-11.6-9.4-20.9-21-21H86c-4.9,0-9.6,1.7-13.3,4.8c23.5,15.8,52.2,21.9,80.1,17
			C152.8,357.6,152.8,357.3,152.8,357L152.8,357z"/>
		<path class="st6" d="M239.1,279.7h-38.9c-11.6,0-20.9,9.4-21,21l0,0c0,3.5,0.9,6.9,2.5,9.9c-6.1,2.2-9.3,8.9-7.2,15
			c1.7,4.7,6.1,7.8,11.1,7.8h18.9C221.2,319.4,233.2,300.7,239.1,279.7z"/>
		<path class="st6" d="M73.9,257.5h19.5c4.9,0,8.9,4,8.9,8.9l0,0c0,4.9-4,8.9-8.9,8.9H73.9c-4.9,0-8.9-4-8.9-8.9l0,0
			C65,261.5,69,257.5,73.9,257.5z"/>
		<path class="st1" d="M242.7,250c0,59.9-48.5,108.6-108.5,108.6c-60,0-108.6-48.5-108.7-108.5c0-55.2,41.3-101.6,96.1-107.9
			c11.4-1.3,23-0.8,34.3,1.5C206.5,153.9,242.8,198.4,242.7,250c0,1.1,1.8,1.1,1.8,0c0.1-60.9-49.2-110.4-110.2-110.4
			c-57.7-0.1-105.7,44.3-110.1,101.9c-0.9,11.6,0,23.4,2.8,34.7c14.4,59.2,74.1,95.5,133.3,81.1c43.3-10.6,76.1-46.2,82.9-90.3
			c0.9-5.6,1.3-11.3,1.3-16.9C244.5,248.9,242.7,248.9,242.7,250z"/>
		<path class="st1" d="M198.8,154.7c0,0-21.6,0.8-22.1,14.1s19.7,1.3,25.2,2.7c5.6,1.4,10.3-4.8,6.7-11.5
			C207.1,157.2,203.6,154.6,198.8,154.7z"/>
		<path class="st2" d="M198.8,153.9c-3.8,0.2-7.6,0.9-11.3,2.2c-2.8,1-5.6,2.4-7.8,4.5c-2.3,2.1-3.7,5.1-3.8,8.2
			c-0.1,2.7,0.7,5.6,3.4,6.8c2.5,1.1,5.6,0.6,8.2,0c3-0.6,6-1.6,9-2.4c1.2-0.3,2.4-0.6,3.6-0.7c0.5-0.1,0.9-0.1,1.4,0
			c-0.2,0,0.1,0,0.1,0c0.2,0,0.4,0.1,0.6,0.1c0.6,0.1,1.1,0.1,1.7,0.1c4.3-0.3,7.1-4.3,6.8-8.5c-0.4-4.7-3.7-8.6-8.2-9.8
			C201.4,154,200.1,153.8,198.8,153.9c-1.1,0-1.1,1.8,0,1.8c4.4-0.1,8.5,2.3,9.8,6.6c0.7,1.9,0.5,4-0.4,5.8c-0.8,1.5-2.3,2.5-4,2.8
			c-1.3,0.1-2.4-0.3-3.7-0.3c-1.2,0.1-2.3,0.3-3.4,0.6c-2.8,0.7-5.5,1.6-8.3,2.3c-2.4,0.6-5.2,1.3-7.7,0.8c-0.9-0.1-1.8-0.6-2.5-1.3
			c-0.6-0.8-1-1.9-1-2.9c-0.2-2.8,0.8-5.6,2.7-7.6c1.8-2,4.2-3.3,6.7-4.3c3.7-1.4,7.6-2.2,11.6-2.4c0.1,0,0.1,0,0.2,0
			C199.9,155.6,200,153.8,198.8,153.9z"/>
		<path class="st2" d="M186.2,162.2c-1.4,0.8-2.8,1.6-4.1,2.5c-2.1,1.5-4.4,3.2-5.7,5.4c-0.6,1,1,1.9,1.5,0.9c1.2-2.1,3.4-3.7,5.4-5
			c1.2-0.9,2.5-1.6,3.9-2.3C188.1,163.2,187.2,161.7,186.2,162.2L186.2,162.2z"/>
		<path class="st2" d="M190.1,166.5c-1.4,0.8-2.8,1.6-4.1,2.5c-2.1,1.5-4.4,3.2-5.7,5.4c-0.6,1,1,1.9,1.5,0.9c1.2-2.1,3.4-3.7,5.4-5
			c1.2-0.8,2.5-1.6,3.9-2.3C192,167.4,191.1,165.9,190.1,166.5L190.1,166.5z"/>
		<path class="st1" d="M210.2,89.1c0,0-16.2,13.3-9.2,44.3c0,0,5.4,4.8,4.5,9.2c-0.9,4.5-9.7,10.5-9.7,10.5l8.5,23.8
			c0,0,15.8,4.4,30.6-9.6S259.6,117.4,210.2,89.1z"/>
		<path class="st2" d="M200.4,134.6c0.9,0.8,1.6,1.6,2.3,2.6c1.2,1.6,2.3,3.6,2,5.7c-0.3,1.7-1.5,3.1-2.6,4.3
			c-1.3,1.4-2.7,2.7-4.2,3.9c-0.8,0.7-1.7,1.3-2.5,1.9c-0.3,0.2-0.5,0.6-0.4,1l2.9,8.1l4.5,12.8l1.1,3c0.4,1.1,2.1,0.6,1.7-0.5
			l-2.8-8l-4.5-12.8l-1.1-3l-0.4,1c2.5-1.7,4.9-3.7,7-6c1.3-1.4,2.6-3.1,3.1-4.9c0.5-2.3-0.3-4.6-1.5-6.5c-0.9-1.4-1.9-2.6-3.1-3.7
			C200.7,132.6,199.5,133.9,200.4,134.6L200.4,134.6z"/>
		<path class="st2" d="M211.1,172.4l-5.3-15.6l-0.8-2.2c-0.4-1.1-2.1-0.6-1.7,0.5l5.3,15.6l0.8,2.2
			C209.7,173.9,211.4,173.5,211.1,172.4z"/>
		<path class="st2" d="M72.7,145L72.7,145c2.6,0,4.6,2.1,4.7,4.6c0,0,0,0,0,0v20.6c0,2.6-2.1,4.7-4.7,4.7l0,0l0,0
			c-2.6,0-4.7-2.1-4.7-4.7l0,0v-20.6C68,147.1,70.1,145,72.7,145C72.7,145,72.7,145,72.7,145z"/>
		<path class="st7" d="M92.8,155l-16.3-45.8c-0.6-2.1-2.9-3.3-5-2.6c-1.3,0.4-2.2,1.4-2.6,2.6L52.6,155c-0.9,2.5,1.4,5,3.8,5H89
			C91.4,160,93.6,157.4,92.8,155z"/>
		<path class="st2" d="M153.8,187.9L153.8,187.9c2.6,0,4.7,2.1,4.7,4.7c0,0,0,0,0,0v20.6c0,2.6-2.1,4.6-4.7,4.6l0,0
			c-2.6,0-4.6-2.1-4.6-4.6v-20.6C149.2,190,151.2,187.9,153.8,187.9z"/>
		<path class="st7" d="M173.9,197.9c-5.4-15.3-10.9-30.5-16.3-45.8c-0.6-2.1-2.9-3.3-5-2.6c-1.3,0.4-2.2,1.4-2.6,2.6
			c-5.4,15.3-10.9,30.6-16.3,45.8c-0.9,2.5,1.4,5,3.8,5h32.6C172.5,202.9,174.8,200.3,173.9,197.9z"/>
		<path class="st1" d="M170.1,202.9h-32.6c-1.3,0-2.6-0.7-3.4-1.8c-0.7-0.9-0.9-2.2-0.5-3.3l16.3-45.8c0.7-2.1,3-3.3,5.1-2.7
			c1.3,0.4,2.3,1.4,2.7,2.7l16.3,45.8c0.4,1.1,0.2,2.3-0.5,3.3C172.7,202.2,171.4,202.9,170.1,202.9z M153.8,149.3
			c-1.7,0-3.2,1.1-3.7,2.8l-16.3,45.8c-0.4,1.1-0.2,2.2,0.5,3.1c0.7,1.1,1.9,1.7,3.2,1.8h32.6c1.3,0,2.5-0.7,3.2-1.8
			c0.7-0.9,0.9-2.1,0.5-3.1l-16.3-45.8C157,150.4,155.5,149.3,153.8,149.3z"/>
		<path class="st2" d="M87.1,149.9c-3.9-10.8-7.7-21.7-11.6-32.5c-1-2.7-1.9-5.4-2.9-8.1c-0.5-1.3-0.9-2.7-1.4-4
			c-0.4-1-0.7-2.1-1.4-2.9c-1.7-2.1-4.8-2.3-6.9-0.6c-0.5,0.4-0.9,0.9-1.2,1.5c-0.5,1.2-1,2.4-1.4,3.7l-1.4,4l-2.9,8.1
			c-1.9,5.4-3.9,10.9-5.8,16.3l-2.9,8.1l-1.4,4c-0.4,1.2-1.1,2.5-1.1,3.7c-0.1,2.1,1.5,3.9,3.4,4.6c1.1,0.4,2.4,0.3,3.5,0.3h21.5
			c2.9,0,5.8,0,8.7,0c2.1,0,4-1.2,4.8-3.2C87.4,151.9,87.4,150.9,87.1,149.9c-0.3-1.1-2-0.6-1.7,0.5c0.6,1.8-0.8,3.6-2.6,3.9
			c-1.2,0.2-2.6,0-3.9,0H51.4c-1.1,0-2.2,0.1-3.1-0.5c-0.8-0.5-1.3-1.2-1.4-2.1c-0.2-1.1,0.5-2.2,0.8-3.2l1.3-3.7l2.7-7.6l10.6-29.8
			c0.6-1.6,0.9-4,2.7-4.8c1.1-0.5,2.5-0.3,3.4,0.6c0.7,0.6,0.9,1.4,1.2,2.3l1.4,3.8l2.6,7.4c3.5,10,7.1,19.9,10.6,29.9l1.3,3.7
			C85.8,151.5,87.5,151,87.1,149.9z"/>
	</g>
</g>
</svg>
