<svg id="Layer_1" data-name="Layer 1" xmlns="http://www.w3.org/2000/svg" viewBox="0 0 600 900"><defs><style>.cls-1{fill:#e8f8ff;}.cls-2{fill:#fff;}.cls-3{fill:#52483f;}.cls-4{fill:#ffedb8;}.cls-5{fill:none;}.cls-6{fill:#c6eeff;}.cls-7{fill:#d0d2af;}.cls-8{fill:#b1b479;}</style></defs><g id="Layer_2" data-name="Layer 2"><g id="圖層_2" data-name="圖層 2"><circle class="cls-1" cx="311.55" cy="577.19" r="285.16"/><path class="cls-2" d="M467.78,863.69s-66.48-9.29-66.48,32.72H525.21l-8.46-34Z"/><path class="cls-3" d="M468.31,861.73a115.39,115.39,0,0,0-23.5-.68c-12.95.87-27.59,3.73-37.06,13.35-5.82,5.91-8.47,13.82-8.49,22a2.06,2.06,0,0,0,2,2H510c5,0,10,.22,15,0h.22a2,2,0,0,0,2-2.08,2,2,0,0,0-.06-.49l-7.41-29.76-1-4.25a2.06,2.06,0,0,0-2-1.49l-42.9,1.13-6.09.16c-2.61.07-2.62,4.13,0,4.06l42.89-1.13,6.1-.16-2-1.49,7.4,29.75,1.06,4.26,2-2.57H406.36a35.68,35.68,0,0,0-4.85,0h-.22l2,2c0-6.62,1.88-13.14,6.36-18.14,4.06-4.54,9.54-7.52,15.25-9.48C436,865,448.08,864.4,459.69,865c1.93.09,3.86.24,5.78.43l1.69.18c.37,0,.95.13.09,0C469.81,866,470.9,862.09,468.31,861.73Z"/><path class="cls-3" d="M455.59,875.55l-10-13.6c-1.52-2.09-5.05-.07-3.5,2l10,13.6C453.62,879.68,457.14,877.66,455.59,875.55Z"/><path class="cls-3" d="M467.28,875.55l-10-13.6c-1.53-2.09-5.06-.07-3.51,2l10,13.6C465.3,879.68,468.82,877.66,467.28,875.55Z"/><path class="cls-3" d="M293.18,419.06s-68.82,175.07-41.69,446.42h67.19s1.83-206.83,53.44-330.56c0,0,2.37,132.87,96.3,330.56H531s-39.67-113.34-28.34-266-58.92-180.44-58.92-180.44Z"/><path class="cls-2" d="M289.86,194.82s21.84,67.42-11.75,123.24C243.27,376,153.69,442.81,47.13,350.4l26.55-45.7S142,310.93,174.16,281C196.72,260,247.39,190.51,289.86,194.82Z"/><path class="cls-3" d="M440.91,70.81s4.74,27.59,42.72,41.1S528.7,150,522,166.6s-41.63,27.61-61.75,6.28c0,0,13.77,25.68-6.18,30.8s-59,34.92-123.55-6.24-6-116.34-6-116.34Z"/><path class="cls-4" d="M441.28,186.83c-17.79-8.76-39.94-14-63.94-14s-46.15,5.19-63.94,14c-25.69,12.64-42.28,32.73-42.28,55.34v137.9c0,26.34,24.4,47.89,54.22,47.89h104c29.81,0,54.21-21.55,54.21-47.89V242.17C483.56,219.56,467,199.47,441.28,186.83Z"/><polygon class="cls-2" points="352.34 122.16 352.34 179.53 377.34 203.69 402.34 179.53 402.34 122.16 352.34 122.16"/><path class="cls-3" d="M350.33,122.16V161.9c0,5.72-.16,11.48,0,17.2,0,1.62,1.12,2.37,2.2,3.43l7.66,7.4,15.73,15.21a2.07,2.07,0,0,0,2.87,0l13.35-12.9,8.58-8.29c1.17-1.14,3.5-2.67,3.67-4.44.14-1.44,0-3,0-4.4v-53a2.06,2.06,0,0,0-2-2h-50c-2.62,0-2.62,4.06,0,4.06h50l-2-2v57.36l.59-1.43L379,199.28l-3.08,3h2.87l-21.92-21.19-3.08-3,.6,1.43V122.16C354.39,119.55,350.33,119.54,350.33,122.16Z"/><path class="cls-2" d="M433.65,115.61s-4.22-3.14-8.94-1.24-6.24,9-2.64,10.35,6.47-.54,6.94-3.37-2.52-4.32-6.95-4.42"/><path class="cls-3" d="M434.67,113.86c-5.8-4.23-14.82-1.82-16.4,5.53-.74,3.44.62,6.77,4.27,7.58,3.94.85,8-1.41,8.5-5.62.53-5-5.17-6.31-9-6.45-2.61-.09-2.61,4,0,4.06,1.57.06,6.56.48,4.47,3.19-1.2,1.57-4.4,1.39-4.42-.87a5.65,5.65,0,0,1,4.22-5.3,7.8,7.8,0,0,1,6.29,1.39c2.12,1.54,4.14-2,2-3.51Z"/><path class="cls-2" d="M431.2,102.58a18.52,18.52,0,0,0-5.18.68c3.54-26.12-3.56-53.88-46.86-56.55-42.33-2.63-51.6,26.68-49.14,60.62,1.38,19.17,5.6,43.85,24,54,22.29,12.3,51.87.14,63.56-27.36,3.31,3.45,7.26,6.3,12.43,6.38,10.24.14,19.38-11.08,19.53-21.33S441.44,102.73,431.2,102.58Z"/><path class="cls-3" d="M431.2,100.55a22.87,22.87,0,0,0-5.71.74l2.56,2c1.19-8.9,1.24-18.15-1.2-26.85a39.79,39.79,0,0,0-15.07-21.84c-9.82-7-22.34-9.46-34.19-10-10.76-.48-22.22,1-31.32,7.21C329.5,63.16,326.86,85.33,327.77,104c1.1,22.17,5.62,50.84,28.59,60.77,21.91,9.47,46.37-2.18,58.56-21.37a60.35,60.35,0,0,0,4.4-8.39l-3.19.41c4.1,4.22,9.33,7.48,15.44,6.91a21,21,0,0,0,13.73-7.65c6.57-7.76,9.21-20.19,1.43-28.12-4.06-4.12-9.86-5.85-15.51-6-2.62-.06-2.62,4,0,4.06,8,.19,16,4.72,16.27,13.48.3,8.42-5.93,17.72-14.26,19.83-5.63,1.43-10.43-1.49-14.23-5.41a2,2,0,0,0-3.19.41c-4.54,10.55-12.07,19.73-22.12,25.43-8.75,5-19.21,7.07-29.11,4.83-10.93-2.49-19.24-9.73-24.25-19.63s-7-21.52-8-32.61c-1.55-17.3-1.66-39,11.71-52.12,6.72-6.61,16-9.48,25.25-10.11,11.56-.77,24.28.7,34.75,5.94A35.67,35.67,0,0,1,421.31,72.7c3.18,7.59,3.84,16,3.33,24.16q-.19,3.19-.64,6.38c-.18,1.35,1.44,2.25,2.58,2a18.09,18.09,0,0,1,4.63-.59C433.82,104.61,433.82,100.55,431.2,100.55Z"/><path class="cls-2" d="M362.9,135.83s-.43,10.63,9.59,10.77c10.75.16,10.2-10.49,10.2-10.49"/><path class="cls-3" d="M360.87,135.83c-.16,4.4,1.9,9.31,5.9,11.43,6.3,3.34,14.59.75,17.1-6a13.26,13.26,0,0,0,.85-5.14c-.12-2.6-4.18-2.62-4.06,0a8.33,8.33,0,0,1-.71,4.06,7.14,7.14,0,0,1-6.77,4.4c-3.28.11-6.14-1.17-7.44-4.3a9.64,9.64,0,0,1-.82-4.43c.1-2.61-4-2.61-4.06,0Z"/><circle class="cls-3" cx="354.08" cy="108.99" r="2.94" transform="matrix(0.16, -0.99, 0.99, 0.16, 189.78, 441.04)"/><circle class="cls-3" cx="393.05" cy="109.55" r="2.94"/><line class="cls-5" x1="373.1" y1="115.19" x2="372.91" y2="128.31"/><path class="cls-3" d="M371.07,115.19l-.19,13.12c0,2.61,4,2.62,4.06,0l.19-13.12C375.16,112.57,371.1,112.57,371.07,115.19Z"/><path class="cls-3" d="M358.54,22.61S321.37,9.83,306.05,40c-15.41,30.37,5.08,48.3,23.69,53.37,24.66,6.73,37.39-14.77,45.49-27.61,0,0,8.7,35.36,49.55,35.59A25.76,25.76,0,0,1,442,103.12s34.65-58.92-13.67-86C376.54-12,358.54,22.61,358.54,22.61Z"/><path class="cls-3" d="M414,4l1.71,12.59a2,2,0,0,0,3,1.21l10.83-7.74c2.11-1.51.09-5-2-3.51l-10.84,7.75,3,1.21L417.94,2.94a2.05,2.05,0,0,0-2.5-1.42A2.09,2.09,0,0,0,414,4Z"/><path class="cls-2" d="M338.45,192.59l32.79,31.69,4.67,4.52a2.07,2.07,0,0,0,2.87,0l32.78-31.7,4.67-4.52c1.89-1.82-1-4.69-2.87-2.87L380.58,221.4l-4.67,4.52h2.87L346,194.22l-4.67-4.51c-1.88-1.82-4.74,1-2.87,2.87Z"/><path class="cls-2" d="M426,180.57S406.93,332.25,406.93,428h76.18S603.3,208.22,426,180.57Z"/><path class="cls-2" d="M332,179.5S324.3,353.67,334.24,428H278.81S193.05,195.79,332,179.5Z"/><path class="cls-3" d="M319.76,233.59l-21.49,20.32-3,2.88a2,2,0,0,0-.53,2l8.16,28.58L315.8,332.7l3,10.44c.72,2.51,4.64,1.44,3.92-1.08l-8.16-28.58L301.6,268.12l-3-10.43-.52,2,21.48-20.31,3.05-2.87c1.9-1.8-1-4.67-2.87-2.88Z"/><path class="cls-3" d="M294.33,201.6l-2.13,29.57-.3,4.18a2.06,2.06,0,0,0,1.49,2l20.76,5.82c2.52.71,3.6-3.21,1.08-3.92l-20.75-5.81,1.49,1.95,2.13-29.57.31-4.18c.19-2.61-3.88-2.6-4.07,0Z"/><path class="cls-3" d="M426.25,236.68l20,21.82,2.83,3.08-.52-2-10.2,27.92-16.17,44.32L418.43,342c-.89,2.46,3,3.52,3.92,1.08l10.19-27.92,16.18-44.31,3.72-10.2a2,2,0,0,0-.52-2L432,236.9l-2.82-3.09c-1.77-1.93-4.64.95-2.88,2.87Z"/><path class="cls-3" d="M452.83,203.69v33.85l1.49-2L433.2,239.9c-2.56.52-1.48,4.44,1.08,3.91l21.12-4.31a2,2,0,0,0,1.49-2V203.69C456.89,201.08,452.83,201.08,452.83,203.69Z"/><path class="cls-2" d="M437.63,117.16s-4.15-3.23-8.92-1.42-6.41,8.89-2.84,10.29,6.48-.41,7-3.23-2.43-4.37-6.86-4.55"/><path class="cls-3" d="M438.67,115.41c-5.72-4.36-14.78-2-16.49,5.26-.8,3.43.53,6.77,4.17,7.63,3.84.9,7.94-1.2,8.54-5.3.75-5.08-4.95-6.57-8.86-6.77-2.61-.15-2.6,3.91,0,4.06,1.58.09,6.55.64,4.35,3.31-1.28,1.54-4.44,1.24-4.4-1a5.64,5.64,0,0,1,4.36-5.18,7.88,7.88,0,0,1,6.26,1.54c2.08,1.59,4.11-1.94,2-3.5Z"/><path class="cls-3" d="M251.32,272.68c-2.59,27.38.68,55.19,5.82,82.1A536.72,536.72,0,0,0,273,417c1.22,3.87,2.47,7.73,3.86,11.55.88,2.44,4.81,1.38,3.91-1.08-4-11.06-7.31-22.42-10.41-33.76-6.68-24.52-11.94-49.56-14.43-74.88a239.9,239.9,0,0,1-.53-46.1c.24-2.6-3.82-2.58-4.07,0Z"/><path class="cls-3" d="M84.55,315.23l-19.17,33-2.71,4.67c-1.31,2.27,2.2,4.31,3.51,2l19.17-33,2.7-4.67c1.32-2.26-2.19-4.31-3.5-2.05Z"/><path class="cls-2" d="M50.46,344.07,68,312.78s1.66-21.11-9.12-26.09-7.25,14.48-7.25,14.48-25.76-30.74-39.48-7.88S34.82,335.34,50.46,344.07Z"/><path class="cls-3" d="M52.21,345.1C58,334.83,64,324.65,69.52,314.27a8.63,8.63,0,0,0,.63-4.2,52.71,52.71,0,0,0-1.09-11.2c-.9-4.15-2.54-8.46-5.64-11.47-2.56-2.49-7.08-4.82-10.56-2.8-3.23,1.88-3.72,6.32-3.79,9.67a38,38,0,0,0,.62,7.45l3.39-2a63.94,63.94,0,0,0-11-10.19c-6-4.45-14.17-8.59-21.76-5.94-8.72,3-14.15,13.64-13,22.55,1.2,9.4,8.37,16.92,15.41,22.64,8.25,6.7,17.51,11.87,26.74,17,2.29,1.27,4.34-2.23,2-3.51A224,224,0,0,1,29.56,329c-6.84-4.94-14.42-11.23-17.33-19.44-2.68-7.53.3-17.24,7.5-21.29,6.28-3.53,13.7.2,19,3.86a58.54,58.54,0,0,1,11.51,10.49c1.43,1.69,3.73-.19,3.39-2,0-.13,0-.27-.07-.4s0-.29-.07-.44a2.7,2.7,0,0,1,0-.28c-.14-1.27-.26-2.54-.29-3.82a22.34,22.34,0,0,1,.19-4.09,7.41,7.41,0,0,1,1.08-3.05,1.4,1.4,0,0,1,.85-.57,3.63,3.63,0,0,1,1.57.11,9.07,9.07,0,0,1,4.29,2.76c2.51,2.77,3.6,6.68,4.26,10.28a48.14,48.14,0,0,1,.7,9.44,10.94,10.94,0,0,0-.08,2.13c.09.4.6-1.25.21-.84a2.8,2.8,0,0,0-.34.61L57,328.28l-8.29,14.77C47.42,345.35,50.93,347.38,52.21,345.1Z"/><path class="cls-3" d="M32,315.5a90.42,90.42,0,0,1-8.12-6.35c-4.23-3.64-8.81-7.8-11-13a2,2,0,0,0-2.78-.73,2.08,2.08,0,0,0-.73,2.78c2.34,5.52,7.2,10,11.65,13.88a101,101,0,0,0,9,7c2.16,1.48,4.19-2,2-3.51Z"/><path class="cls-3" d="M38.13,305.78A94.34,94.34,0,0,1,30,299.43c-4.22-3.65-8.8-7.81-11-13.05a2,2,0,0,0-2.78-.72,2.09,2.09,0,0,0-.73,2.78c2.34,5.52,7.2,10,11.65,13.87a100.66,100.66,0,0,0,9,7c2.16,1.48,4.19-2,2-3.51Z"/><path class="cls-2" d="M250.25,863.69s-66.48-9.27-66.48,32.72H306l1.69-34Z"/><path class="cls-3" d="M250.79,861.73a115.39,115.39,0,0,0-23.5-.68c-12.95.87-27.59,3.73-37.06,13.35-5.82,5.91-8.47,13.82-8.49,22a2.05,2.05,0,0,0,2,2H290.91c4.94,0,9.94.23,14.89,0H306a2.07,2.07,0,0,0,2-2l1.48-29.73.21-4.28a2,2,0,0,0-2-2l-50.34,1.13-7.1.16c-2.61.06-2.62,4.12,0,4.06l50.35-1.13,7.1-.16-2-2-1.48,29.73L304,896.4l2-2H188.77a31.91,31.91,0,0,0-4.79,0h-.21l2,2c0-6.62,1.88-13.14,6.36-18.14,4.06-4.54,9.54-7.52,15.25-9.48,11.08-3.77,23.15-4.38,34.76-3.77,1.93.09,3.85.24,5.78.43l1.69.18c.37,0,1,.13.09,0C252.27,866,253.37,862.09,250.79,861.73Z"/><path class="cls-3" d="M238.07,875.55l-10-13.6c-1.53-2.09-5.05-.07-3.51,2l10,13.6c1.53,2.08,5.05.06,3.51-2.05Z"/><path class="cls-3" d="M249.76,875.55l-10-13.6c-1.53-2.09-5.06-.07-3.51,2l10,13.6C247.78,879.68,251.3,877.66,249.76,875.55Z"/><path class="cls-6" d="M403.58,743.09a27.31,27.31,0,0,1,18.05-25.6,48.09,48.09,0,0,1-5.8-22.94h0A48.67,48.67,0,0,1,464.36,646h90.07a253.21,253.21,0,0,0,9.43-68.69q0-4.37-.15-8.68a48.7,48.7,0,0,1-42.87,25.84H473.63a24.11,24.11,0,0,1,4.4,13.88h0a24.34,24.34,0,0,1-24.27,24.26H400.71a24.34,24.34,0,0,1-24.27-24.26h0a24.3,24.3,0,0,1,12.64-21.28,48.78,48.78,0,0,1-22.51-35.37H334a81,81,0,0,1-80.8-80.8h0a81,81,0,0,1,80.8-80.8H481.11a253,253,0,0,0-82.48-50.25v.81h0a31,31,0,0,1-30.93,30.93H300.12a31,31,0,0,1-30.93-30.93h0a30.75,30.75,0,0,1,3.18-13.62,252.24,252.24,0,0,0-132.08,63.06h44.07a24.27,24.27,0,0,1,.57,48.54H156.75a80.27,80.27,0,0,1,14.19,45.57h0A81.05,81.05,0,0,1,90.12,565H57.84q-.29,6.12-.29,12.3A252.69,252.69,0,0,0,68.66,651.7h67.28a31,31,0,0,1,30.93,30.93h0a31,31,0,0,1-30.93,30.93H97.29a254.53,254.53,0,0,0,72,73.78,48.3,48.3,0,0,1,30.82-11.11H306.2a48.68,48.68,0,0,1,48.54,48.54h0c0,.63,0,1.27,0,1.89a252.15,252.15,0,0,0,119.88-56.38h-43.8A27.28,27.28,0,0,1,403.58,743.09Zm-165.7-128a20.68,20.68,0,0,1-20.62,20.62H172.2a20.68,20.68,0,0,1-20.62-20.62h0A20.68,20.68,0,0,1,172.2,594.5h45.06A20.68,20.68,0,0,1,237.88,615.11Z"/><path class="cls-7" d="M253.16,470.92h0A81,81,0,0,0,334,551.73h32.61a48.77,48.77,0,0,0,22.52,35.36,24.33,24.33,0,0,0-12.64,21.28h0a24.34,24.34,0,0,0,24.27,24.27h53A24.34,24.34,0,0,0,478,608.37h0a24.13,24.13,0,0,0-4.4-13.88h47.21a48.64,48.64,0,0,0,42.87-25.84,252.44,252.44,0,0,0-82.59-178.52H334A81,81,0,0,0,253.16,470.92Z"/><path class="cls-7" d="M170.94,484.23h0a80.26,80.26,0,0,0-14.18-45.57h27.61a24.27,24.27,0,0,0,.58-48.54H140.29A252.52,252.52,0,0,0,57.84,565H90.12A81.05,81.05,0,0,0,170.94,484.23Z"/><path class="cls-7" d="M269.19,340.68a31,31,0,0,0,30.93,30.93h67.6a31,31,0,0,0,30.92-30.93h0v-.81a254.73,254.73,0,0,0-126.25-12.81,30.61,30.61,0,0,0-3.18,13.62Z"/><path class="cls-7" d="M166.87,682.64h0A31,31,0,0,0,136,651.71H68.66a251.94,251.94,0,0,0,28.63,61.85h38.65A31,31,0,0,0,166.87,682.64Z"/><path class="cls-7" d="M354.73,824.77a48.68,48.68,0,0,0-48.54-48.54H200.12a48.32,48.32,0,0,0-30.82,11.11,253.89,253.89,0,0,0,185.4,39.33c0-.63,0-1.26,0-1.9Z"/><path class="cls-7" d="M554.43,646H464.36a48.67,48.67,0,0,0-48.53,48.53h0a48.09,48.09,0,0,0,5.8,22.94,27.18,27.18,0,0,0,9.14,52.8h43.8A253.25,253.25,0,0,0,554.43,646Z"/><path class="cls-7" d="M172.2,594.49h45.06a20.62,20.62,0,0,1,20.62,20.61h0a20.62,20.62,0,0,1-20.62,20.62H172.2a20.62,20.62,0,0,1-20.62-20.62h0A20.62,20.62,0,0,1,172.2,594.49Z"/><path class="cls-2" d="M562.67,577.21c.07,138.66-112.27,251.13-250.94,251.2a251.19,251.19,0,0,1-29.1-500.71,254,254,0,0,1,79.24,3.38A250.8,250.8,0,0,1,562.68,577.17c0,2.61,4.06,2.62,4.06,0,.18-140.93-113.93-255.32-254.87-255.49C178.39,321.51,67.34,424.25,57.13,557.34a257,257,0,0,0,6.43,80.29,255.22,255.22,0,0,0,500.17-21.31,260.21,260.21,0,0,0,3-39.13C566.73,574.57,562.67,574.57,562.67,577.21Z"/><path class="cls-2" d="M461.14,356.82s-50,1.8-51.08,32.62,45.47,3,58.39,6.21,23.91-11.17,15.41-26.64C480.3,362.5,472.29,356.49,461.14,356.82Z"/><path class="cls-3" d="M461.14,354.79a90.83,90.83,0,0,0-26.1,5c-6.58,2.29-13,5.48-18.13,10.3a27.87,27.87,0,0,0-8.86,19c-.31,6.34,1.57,13,7.86,15.64,5.89,2.5,12.91,1.33,19,.07,7.05-1.48,13.91-3.75,20.88-5.57a54,54,0,0,1,8.42-1.72,15.08,15.08,0,0,1,3.29,0c-.45-.06.18,0,.3.07.48.11,1,.22,1.45.3a17.25,17.25,0,0,0,3.87.23c9.92-.68,16.48-10,15.76-19.59a25.9,25.9,0,0,0-18.91-22.68,30.23,30.23,0,0,0-8.78-1.06c-2.61.05-2.62,4.12,0,4.06,10.12-.19,19.61,5.42,22.74,15.3a16.89,16.89,0,0,1-1,13.48,12.65,12.65,0,0,1-9.26,6.37c-2.9.34-5.66-.76-8.57-.61a43.54,43.54,0,0,0-7.95,1.31c-6.44,1.54-12.71,3.62-19.12,5.22-5.62,1.4-12.09,3-17.77,1.88a9.44,9.44,0,0,1-5.69-2.91,11.58,11.58,0,0,1-2.37-6.81,23.6,23.6,0,0,1,6.16-17.63c4.2-4.56,9.79-7.69,15.51-9.92a91.54,91.54,0,0,1,26.84-5.65c.17,0,.34,0,.5,0C463.75,358.75,463.76,354.69,461.14,354.79Z"/><path class="cls-3" d="M432,374.12a97,97,0,0,0-9.59,5.89c-4.9,3.38-10.18,7.3-13.17,12.58-1.29,2.28,2.22,4.33,3.51,2,2.76-4.9,7.83-8.5,12.39-11.59a94,94,0,0,1,8.91-5.42c2.31-1.22.26-4.74-2.05-3.51Z"/><path class="cls-3" d="M441,383.94a95.28,95.28,0,0,0-9.6,5.89c-4.89,3.38-10.18,7.3-13.16,12.58-1.29,2.28,2.22,4.33,3.5,2,2.77-4.89,7.83-8.5,12.39-11.59a97.4,97.4,0,0,1,8.91-5.41c2.31-1.23.26-4.74-2-3.51Z"/><path class="cls-2" d="M487.51,204.92s-37.41,30.74-21.35,102.42c0,0,12.48,11,10.31,21.39s-22.42,24.32-22.42,24.32l19.58,55.13s36.5,10.16,70.85-22.26S601.63,270.55,487.51,204.92Z"/><path class="cls-3" d="M464.73,310.28a36.71,36.71,0,0,1,5.31,5.9c2.67,3.68,5.28,8.38,4.56,13.1-.59,3.85-3.44,7.27-6,10.06a87.36,87.36,0,0,1-9.72,9c-1.91,1.54-3.86,3.05-5.88,4.44a2.08,2.08,0,0,0-.93,2.29l6.62,18.65,10.49,29.58,2.45,6.9c.87,2.45,4.79,1.39,3.91-1.08L469,390.51l-10.49-29.59L456,354l-.93,2.3a95,95,0,0,0,16.14-13.81c3-3.24,6.1-7.06,7.15-11.44,1.25-5.27-.76-10.68-3.57-15.1a41,41,0,0,0-7.2-8.56c-2-1.73-4.83,1.14-2.87,2.87Z"/><path class="cls-3" d="M489.46,397.68l-12.34-36.06-1.77-5.18c-.84-2.46-4.76-1.4-3.92,1.08l12.34,36.06,1.77,5.17C486.38,401.21,490.31,400.16,489.46,397.68Z"/><path class="cls-3" d="M169.3,334.38h0a10.75,10.75,0,0,1,10.76,10.75v47.62a10.76,10.76,0,0,1-10.76,10.76h0a10.76,10.76,0,0,1-10.76-10.76V345.13A10.75,10.75,0,0,1,169.3,334.38Z"/><path class="cls-8" d="M215.79,357.38l-37.68-106a9.22,9.22,0,0,0-17.62,0l-37.67,106c-2,5.67,3.22,11.56,8.8,11.56H207C212.57,368.94,217.8,363.05,215.79,357.38Z"/><path class="cls-3" d="M357,433.6h0a10.76,10.76,0,0,1,10.76,10.76V492A10.76,10.76,0,0,1,357,502.74h0A10.76,10.76,0,0,1,346.28,492V444.36A10.76,10.76,0,0,1,357,433.6Z"/><path class="cls-8" d="M403.53,456.61q-18.86-53-37.68-106a9.21,9.21,0,0,0-17.6,0q-18.86,53-37.69,106.05c-2,5.67,3.22,11.56,8.8,11.56h75.35C400.3,468.17,405.54,462.28,403.53,456.61Z"/><path class="cls-2" d="M394.72,468.34H319.36a9.76,9.76,0,0,1-7.76-4.22,8.2,8.2,0,0,1-1.2-7.57l37.67-106a9.4,9.4,0,0,1,17.94,0l37.67,106.05a8.26,8.26,0,0,1-1.2,7.57A9.76,9.76,0,0,1,394.72,468.34ZM357,344.24a9.11,9.11,0,0,0-8.65,6.38l-37.66,106a7.89,7.89,0,0,0,1.16,7.26,9.38,9.38,0,0,0,7.48,4.07h75.36a9.44,9.44,0,0,0,7.49-4.07,7.92,7.92,0,0,0,1.16-7.26l-37.68-106a9.13,9.13,0,0,0-8.66-6.38Z"/><path class="cls-3" d="M202.73,345.75Q189.37,308.12,176,270.5q-3.33-9.37-6.65-18.74-1.65-4.6-3.27-9.2c-.85-2.37-1.56-4.76-3.17-6.75a11.27,11.27,0,0,0-18.6,2.06,70.85,70.85,0,0,0-3.15,8.49l-3.27,9.21-6.67,18.73q-6.7,18.9-13.43,37.79l-6.66,18.73L107.87,340c-1,2.74-2.47,5.67-2.54,8.61-.12,4.8,3.42,9,7.78,10.63,2.59.94,5.5.61,8.2.61h49.8c6.73,0,13.46,0,20.18,0a11.92,11.92,0,0,0,11.19-7.29,9.94,9.94,0,0,0,.25-6.84c-.79-2.48-4.71-1.43-3.91,1.08,1.3,4.08-1.85,8.35-6,8.94-2.87.41-6,.05-8.92.05H120c-2.53,0-5,.23-7.16-1.2a7.37,7.37,0,0,1-3.35-4.86c-.4-2.48,1.07-5.11,1.87-7.38l3-8.57,6.2-17.47,24.48-68.9c1.35-3.8,2.17-9.14,6.27-11a7.12,7.12,0,0,1,7.82,1.31c1.51,1.45,2.09,3.35,2.77,5.28l3.16,8.89L171.18,269q12.3,34.62,24.59,69.21l3,8.58C199.69,349.27,203.61,348.22,202.73,345.75Z"/></g></g></svg>