<?xml version="1.0" encoding="utf-8"?>
<!-- Generator: Adobe Illustrator 24.1.2, SVG Export Plug-In . SVG Version: 6.00 Build 0)  -->
<svg version="1.1" id="Layer_1" xmlns="http://www.w3.org/2000/svg" xmlns:xlink="http://www.w3.org/1999/xlink" x="0px" y="0px"
	 viewBox="0 0 600 900" style="enable-background:new 0 0 600 900;" xml:space="preserve">
<style type="text/css">
	.st0{fill:#E8F8FF;}
	.st1{fill:#FFFFFF;}
	.st2{fill:#52483F;}
	.st3{fill:#FFEDB8;}
	.st4{fill:none;}
	.st5{fill:#C6EEFF;}
	.st6{fill:#D0D2AF;}
	.st7{fill:#B1B479;}
</style>
<g id="Layer_2_1_">
	<g id="圖層_2">
		<circle class="st0" cx="311.5" cy="577.2" r="285.2"/>
		<path class="st1" d="M467.8,863.7c0,0-66.5-9.3-66.5,32.7h123.9l-8.5-34L467.8,863.7z"/>
		<path class="st2" d="M468.3,861.7c-7.8-1-15.7-1.3-23.5-0.7c-13,0.9-27.6,3.7-37.1,13.3c-5.8,5.9-8.5,13.8-8.5,22c0,1.1,0.9,2,2,2
			H510c5,0,10,0.2,15,0h0.2c1.1,0,2-1,2-2.1c0-0.2,0-0.3-0.1-0.5l-7.4-29.8l-1.1-4.3c-0.3-0.9-1-1.5-2-1.5l-42.9,1.1l-6.1,0.2
			c-2.6,0.1-2.6,4.1,0,4.1l42.9-1.1l6.1-0.2l-2-1.5l7.4,29.8l1.1,4.3l2-2.6H406.4c-1.6,0-3.3-0.2-4.8,0c-0.1,0-0.1,0-0.2,0l2,2
			c0-6.6,1.9-13.1,6.4-18.1c4.1-4.5,9.5-7.5,15.3-9.5c11.1-3.8,23.2-4.4,34.8-3.8c1.9,0.1,3.9,0.2,5.8,0.4c0.6,0.1,1.1,0.1,1.7,0.2
			c0.4,0,1,0.1,0.1,0C469.8,866,470.9,862.1,468.3,861.7z"/>
		<path class="st2" d="M455.6,875.5l-10-13.6c-1.5-2.1-5.1-0.1-3.5,2.1l10,13.6C453.6,879.7,457.1,877.7,455.6,875.5z"/>
		<path class="st2" d="M467.3,875.5l-10-13.6c-1.5-2.1-5.1-0.1-3.5,2.1l10,13.6C465.3,879.7,468.8,877.7,467.3,875.5z"/>
		<path class="st2" d="M293.2,419.1c0,0-68.8,175.1-41.7,446.4h67.2c0,0,1.8-206.8,53.4-330.6c0,0,2.4,132.9,96.3,330.6H531
			c0,0-39.7-113.3-28.3-266s-58.9-180.4-58.9-180.4L293.2,419.1z"/>
		<path class="st1" d="M289.9,194.8c0,0,21.8,67.4-11.8,123.2c-34.8,57.9-124.4,124.7-231,32.3l26.5-45.7c0,0,68.3,6.2,100.5-23.7
			C196.7,260,247.4,190.5,289.9,194.8z"/>
		<path class="st2" d="M440.9,70.8c0,0,4.7,27.6,42.7,41.1s45.1,38.1,38.4,54.7c-6.7,16.6-41.6,27.6-61.8,6.3
			c0,0,13.8,25.7-6.2,30.8c-20,5.1-59,34.9-123.5-6.2s-6-116.3-6-116.3L440.9,70.8z"/>
		<path class="st3" d="M441.3,186.8c-17.8-8.8-39.9-14-63.9-14c-24,0-46.1,5.2-63.9,14c-25.7,12.6-42.3,32.7-42.3,55.3v137.9
			c0,26.3,24.4,47.9,54.2,47.9h104c29.8,0,54.2-21.6,54.2-47.9V242.2C483.6,219.6,467,199.5,441.3,186.8z"/>
		<polygon class="st1" points="352.3,122.2 352.3,179.5 377.3,203.7 402.3,179.5 402.3,122.2 		"/>
		<path class="st2" d="M350.3,122.2v39.7c0,5.7-0.2,11.5,0,17.2c0,1.6,1.1,2.4,2.2,3.4l7.7,7.4l15.7,15.2c0.8,0.8,2.1,0.8,2.9,0
			l13.3-12.9l8.6-8.3c1.2-1.1,3.5-2.7,3.7-4.4c0.1-1.4,0-3,0-4.4v-53c0-1.1-0.9-2-2-2h-50c-2.6,0-2.6,4.1,0,4.1h50l-2-2v57.4
			l0.6-1.4L379,199.3l-3.1,3h2.9l-21.9-21.2l-3.1-3l0.6,1.4v-57.4C354.4,119.5,350.3,119.5,350.3,122.2z"/>
		<path class="st1" d="M433.6,115.6c0,0-4.2-3.1-8.9-1.2c-4.7,1.9-6.2,9-2.6,10.3c3.6,1.3,6.5-0.5,6.9-3.4c0.5-2.8-2.5-4.3-6.9-4.4"
			/>
		<path class="st2" d="M434.7,113.9c-5.8-4.2-14.8-1.8-16.4,5.5c-0.7,3.4,0.6,6.8,4.3,7.6c3.9,0.9,8-1.4,8.5-5.6
			c0.5-5-5.2-6.3-9-6.4c-2.6-0.1-2.6,4,0,4.1c1.6,0.1,6.6,0.5,4.5,3.2c-1.2,1.6-4.4,1.4-4.4-0.9c0-2.5,1.9-4.7,4.2-5.3
			c2.1-0.5,4.5,0.1,6.3,1.4C434.7,118.9,436.8,115.4,434.7,113.9L434.7,113.9z"/>
		<path class="st1" d="M431.2,102.6c-1.7,0-3.5,0.2-5.2,0.7c3.5-26.1-3.6-53.9-46.9-56.5c-42.3-2.6-51.6,26.7-49.1,60.6
			c1.4,19.2,5.6,43.8,24,54c22.3,12.3,51.9,0.1,63.6-27.4c3.3,3.5,7.3,6.3,12.4,6.4c10.2,0.1,19.4-11.1,19.5-21.3
			C449.7,108.8,441.4,102.7,431.2,102.6z"/>
		<path class="st2" d="M431.2,100.6c-1.9,0-3.8,0.3-5.7,0.7l2.6,2c1.2-8.9,1.2-18.1-1.2-26.9c-2.5-8.8-7.6-16.5-15.1-21.8
			c-9.8-7-22.3-9.5-34.2-10c-10.8-0.5-22.2,1-31.3,7.2c-16.8,11.4-19.4,33.5-18.5,52.2c1.1,22.2,5.6,50.8,28.6,60.8
			c21.9,9.5,46.4-2.2,58.6-21.4c1.7-2.7,3.2-5.5,4.4-8.4l-3.2,0.4c4.1,4.2,9.3,7.5,15.4,6.9c5.4-0.5,10.3-3.6,13.7-7.6
			c6.6-7.8,9.2-20.2,1.4-28.1C442.7,102.4,436.9,100.7,431.2,100.6c-2.6-0.1-2.6,4,0,4.1c8,0.2,16,4.7,16.3,13.5
			c0.3,8.4-5.9,17.7-14.3,19.8c-5.6,1.4-10.4-1.5-14.2-5.4c-0.8-0.8-2.7-0.8-3.2,0.4c-4.5,10.6-12.1,19.7-22.1,25.4
			c-8.7,5-19.2,7.1-29.1,4.8c-10.9-2.5-19.2-9.7-24.2-19.6c-5.1-10-7-21.5-8-32.6c-1.6-17.3-1.7-39,11.7-52.1
			c6.7-6.6,16-9.5,25.3-10.1c11.6-0.8,24.3,0.7,34.8,5.9c7.7,3.9,13.9,10,17.3,18c3.2,7.6,3.8,16,3.3,24.2c-0.1,2.1-0.3,4.3-0.6,6.4
			c-0.2,1.4,1.4,2.2,2.6,2c1.5-0.4,3.1-0.6,4.6-0.6C433.8,104.6,433.8,100.5,431.2,100.6z"/>
		<path class="st1" d="M362.9,135.8c0,0-0.4,10.6,9.6,10.8c10.7,0.2,10.2-10.5,10.2-10.5"/>
		<path class="st2" d="M360.9,135.8c-0.2,4.4,1.9,9.3,5.9,11.4c6.3,3.3,14.6,0.8,17.1-6c0.6-1.6,0.9-3.4,0.9-5.1
			c-0.1-2.6-4.2-2.6-4.1,0c0.1,1.4-0.1,2.8-0.7,4.1c-1.1,2.8-3.7,4.3-6.8,4.4c-3.3,0.1-6.1-1.2-7.4-4.3c-0.6-1.4-0.9-2.9-0.8-4.4
			C365,133.2,361,133.2,360.9,135.8L360.9,135.8z"/>
		
			<ellipse transform="matrix(0.1602 -0.9871 0.9871 0.1602 189.7775 441.0438)" class="st2" cx="354.1" cy="109" rx="2.9" ry="2.9"/>
		<circle class="st2" cx="393" cy="109.5" r="2.9"/>
		<line class="st4" x1="373.1" y1="115.2" x2="372.9" y2="128.3"/>
		<path class="st2" d="M371.1,115.2l-0.2,13.1c0,2.6,4,2.6,4.1,0l0.2-13.1C375.2,112.6,371.1,112.6,371.1,115.2z"/>
		<path class="st2" d="M358.5,22.6c0,0-37.2-12.8-52.5,17.4c-15.4,30.4,5.1,48.3,23.7,53.4c24.7,6.7,37.4-14.8,45.5-27.6
			c0,0,8.7,35.4,49.5,35.6c0,0,8.5-2.5,17.3,1.8c0,0,34.7-58.9-13.7-86C376.5-12,358.5,22.6,358.5,22.6z"/>
		<path class="st2" d="M414,4l1.7,12.6c0.2,1.2,2,1.9,3,1.2l10.8-7.7c2.1-1.5,0.1-5-2-3.5l-10.8,7.8l3,1.2l-1.7-12.6
			c-0.2-1.1-1.5-1.7-2.5-1.4C414.3,1.8,413.9,2.9,414,4L414,4z"/>
		<path class="st1" d="M338.5,192.6l32.8,31.7l4.7,4.5c0.8,0.8,2.1,0.8,2.9,0l32.8-31.7l4.7-4.5c1.9-1.8-1-4.7-2.9-2.9l-32.8,31.7
			l-4.7,4.5h2.9L346,194.2l-4.7-4.5C339.4,187.9,336.6,190.8,338.5,192.6L338.5,192.6z"/>
		<path class="st1" d="M426,180.6c0,0-19.1,151.7-19.1,247.4h76.2C483.1,428,603.3,208.2,426,180.6z"/>
		<path class="st1" d="M332,179.5c0,0-7.7,174.2,2.2,248.5h-55.4C278.8,428,193.1,195.8,332,179.5z"/>
		<path class="st2" d="M319.8,233.6l-21.5,20.3l-3,2.9c-0.5,0.5-0.7,1.3-0.5,2l8.2,28.6l12.9,45.4l3,10.4c0.7,2.5,4.6,1.4,3.9-1.1
			l-8.2-28.6l-12.9-45.4l-3-10.4l-0.5,2l21.5-20.3l3-2.9C324.5,234.7,321.7,231.8,319.8,233.6L319.8,233.6z"/>
		<path class="st2" d="M294.3,201.6l-2.1,29.6l-0.3,4.2c-0.1,0.9,0.7,1.7,1.5,2l20.8,5.8c2.5,0.7,3.6-3.2,1.1-3.9l-20.8-5.8l1.5,2
			l2.1-29.6l0.3-4.2C298.6,199,294.5,199,294.3,201.6L294.3,201.6z"/>
		<path class="st2" d="M426.3,236.7l20,21.8l2.8,3.1l-0.5-2l-10.2,27.9l-16.2,44.3l-3.7,10.2c-0.9,2.5,3,3.5,3.9,1.1l10.2-27.9
			l16.2-44.3l3.7-10.2c0.2-0.7,0-1.5-0.5-2l-20-21.8l-2.8-3.1C427.4,231.9,424.5,234.8,426.3,236.7L426.3,236.7z"/>
		<path class="st2" d="M452.8,203.7v33.8l1.5-2l-21.1,4.3c-2.6,0.5-1.5,4.4,1.1,3.9l21.1-4.3c0.9-0.2,1.5-1,1.5-2v-33.8
			C456.9,201.1,452.8,201.1,452.8,203.7z"/>
		<path class="st1" d="M437.6,117.2c0,0-4.1-3.2-8.9-1.4c-4.8,1.8-6.4,8.9-2.8,10.3c3.6,1.4,6.5-0.4,7-3.2s-2.4-4.4-6.9-4.6"/>
		<path class="st2" d="M438.7,115.4c-5.7-4.4-14.8-2-16.5,5.3c-0.8,3.4,0.5,6.8,4.2,7.6c3.8,0.9,7.9-1.2,8.5-5.3
			c0.7-5.1-5-6.6-8.9-6.8c-2.6-0.1-2.6,3.9,0,4.1c1.6,0.1,6.6,0.6,4.3,3.3c-1.3,1.5-4.4,1.2-4.4-1c0.1-2.5,2-4.7,4.4-5.2
			c2.1-0.5,4.5,0.2,6.3,1.5C438.7,120.5,440.7,117,438.7,115.4L438.7,115.4z"/>
		<path class="st2" d="M251.3,272.7c-2.6,27.4,0.7,55.2,5.8,82.1c4,21,9.3,41.8,15.8,62.2c1.2,3.9,2.5,7.7,3.9,11.5
			c0.9,2.4,4.8,1.4,3.9-1.1c-4-11.1-7.3-22.4-10.4-33.8c-6.7-24.5-11.9-49.6-14.4-74.9c-1.5-15.3-2-30.8-0.5-46.1
			C255.6,270.1,251.6,270.1,251.3,272.7L251.3,272.7z"/>
		<path class="st2" d="M84.6,315.2l-19.2,33l-2.7,4.7c-1.3,2.3,2.2,4.3,3.5,2l19.2-33l2.7-4.7C89.4,315,85.9,312.9,84.6,315.2
			L84.6,315.2z"/>
		<path class="st1" d="M50.5,344.1L68,312.8c0,0,1.7-21.1-9.1-26.1c-10.8-5-7.3,14.5-7.3,14.5s-25.8-30.7-39.5-7.9
			C-1.6,316.3,34.8,335.3,50.5,344.1z"/>
		<path class="st2" d="M52.2,345.1c5.8-10.3,11.7-20.5,17.3-30.8c0.7-1.3,0.6-2.7,0.6-4.2c0-3.8-0.3-7.5-1.1-11.2
			c-0.9-4.2-2.5-8.5-5.6-11.5c-2.6-2.5-7.1-4.8-10.6-2.8c-3.2,1.9-3.7,6.3-3.8,9.7c0,2.5,0.2,5,0.6,7.4l3.4-2
			c-3.3-3.8-7-7.2-11-10.2c-6-4.4-14.2-8.6-21.8-5.9c-8.7,3-14.2,13.6-13,22.6c1.2,9.4,8.4,16.9,15.4,22.6
			c8.2,6.7,17.5,11.9,26.7,17c2.3,1.3,4.3-2.2,2.1-3.5c-7.5-4.2-15-8.3-21.9-13.3c-6.8-4.9-14.4-11.2-17.3-19.4
			c-2.7-7.5,0.3-17.2,7.5-21.3c6.3-3.5,13.7,0.2,19,3.9c4.3,3,8.2,6.5,11.5,10.5c1.4,1.7,3.7-0.2,3.4-2c0-0.1,0-0.3-0.1-0.4
			c0-0.1,0-0.3-0.1-0.4c0-0.1,0-0.2,0-0.3c-0.1-1.3-0.3-2.5-0.3-3.8c-0.1-1.4,0-2.7,0.2-4.1c0.2-1.2,0.6-2.5,1.1-3
			c0.2-0.3,0.5-0.5,0.8-0.6c0.5-0.1,1.1,0,1.6,0.1c1.7,0.5,3.2,1.4,4.3,2.8c2.5,2.8,3.6,6.7,4.3,10.3c0.5,3.1,0.8,6.3,0.7,9.4
			c0,0.6-0.2,1.5-0.1,2.1c0.1,0.4,0.6-1.3,0.2-0.8c-0.1,0.2-0.2,0.4-0.3,0.6L57,328.3L48.7,343C47.4,345.4,50.9,347.4,52.2,345.1z"
			/>
		<path class="st2" d="M32,315.5c-2.8-2-5.5-4.1-8.1-6.3c-4.2-3.6-8.8-7.8-11-13c-0.4-1-1.9-1.2-2.8-0.7c-1.1,0.6-1.2,1.8-0.7,2.8
			c2.3,5.5,7.2,10,11.6,13.9c2.9,2.5,5.8,4.8,9,7C32.1,320.5,34.1,317,32,315.5L32,315.5z"/>
		<path class="st2" d="M38.1,305.8c-2.8-2-5.5-4.1-8.1-6.3c-4.2-3.6-8.8-7.8-11-13c-0.4-1-1.9-1.2-2.8-0.7c-1.1,0.6-1.2,1.8-0.7,2.8
			c2.3,5.5,7.2,10,11.6,13.9c2.9,2.5,5.8,4.8,9,7C38.3,310.8,40.3,307.3,38.1,305.8L38.1,305.8z"/>
		<path class="st1" d="M250.3,863.7c0,0-66.5-9.3-66.5,32.7H306l1.7-34L250.3,863.7z"/>
		<path class="st2" d="M250.8,861.7c-7.8-1-15.7-1.3-23.5-0.7c-13,0.9-27.6,3.7-37.1,13.3c-5.8,5.9-8.5,13.8-8.5,22c0,1.1,0.9,2,2,2
			h107.1c4.9,0,9.9,0.2,14.9,0h0.2c1.1,0,2-0.9,2-2l1.5-29.7l0.2-4.3c0-1.1-0.9-2-2-2l-50.3,1.1l-7.1,0.2c-2.6,0.1-2.6,4.1,0,4.1
			l50.3-1.1l7.1-0.2l-2-2l-1.5,29.7l-0.2,4.3l2-2H188.8c-1.5,0-3.3-0.2-4.8,0c-0.1,0-0.1,0-0.2,0l2,2c0-6.6,1.9-13.1,6.4-18.1
			c4.1-4.5,9.5-7.5,15.3-9.5c11.1-3.8,23.2-4.4,34.8-3.8c1.9,0.1,3.9,0.2,5.8,0.4c0.6,0.1,1.1,0.1,1.7,0.2c0.4,0,1,0.1,0.1,0
			C252.3,866,253.4,862.1,250.8,861.7z"/>
		<path class="st2" d="M238.1,875.5l-10-13.6c-1.5-2.1-5.1-0.1-3.5,2.1l10,13.6C236.1,879.7,239.6,877.7,238.1,875.5L238.1,875.5z"
			/>
		<path class="st2" d="M249.8,875.5l-10-13.6c-1.5-2.1-5.1-0.1-3.5,2.1l10,13.6C247.8,879.7,251.3,877.7,249.8,875.5z"/>
		<path class="st5" d="M403.6,743.1c0-11.5,7.2-21.7,18-25.6c-3.8-7-5.8-14.9-5.8-22.9l0,0c0-26.7,21.8-48.5,48.5-48.5h90.1
			c6.3-22.4,9.5-45.5,9.4-68.7c0-2.9-0.1-5.8-0.2-8.7c-8.2,15.3-24.4,25.8-42.9,25.8h-47.2c2.9,4.1,4.4,8.9,4.4,13.9l0,0
			c0,13.4-10.9,24.2-24.3,24.3h-53.1c-13.4,0-24.2-10.9-24.3-24.3l0,0c0-8.9,4.9-17,12.6-21.3c-12.4-7.8-20.7-20.8-22.5-35.4H334
			c-44.4,0-80.8-36.4-80.8-80.8l0,0c0-44.4,36.4-80.8,80.8-80.8h147.2c-24-21.9-52-39-82.5-50.3c0,0.3,0,0.5,0,0.8l0,0
			c0,17-13.9,30.9-30.9,30.9h-67.6c-17,0-30.9-13.9-30.9-30.9l0,0c0-4.7,1.1-9.4,3.2-13.6c-49.3,7.5-95.3,29.5-132.1,63.1h44.1
			c13.4-0.2,24.4,10.6,24.6,24c0.2,13.4-10.6,24.4-24,24.6c-0.2,0-0.4,0-0.6,0h-27.6c9.2,13.4,14.2,29.3,14.2,45.6l0,0
			c0,44.4-36.4,80.8-80.8,80.8H57.8c-0.2,4.1-0.3,8.2-0.3,12.3c0,25.2,3.7,50.3,11.1,74.4h67.3c17,0,30.9,13.9,30.9,30.9l0,0
			c0,17-13.9,30.9-30.9,30.9H97.3c18.7,29.2,43.2,54.4,72,73.8c8.7-7.2,19.6-11.1,30.8-11.1h106.1c26.7,0,48.5,21.8,48.5,48.5l0,0
			c0,0.6,0,1.3,0,1.9c44.3-7.8,85.7-27.2,119.9-56.4h-43.8C415.8,770.2,403.6,758.1,403.6,743.1z M237.9,615.1
			c0,11.4-9.2,20.6-20.6,20.6h-45.1c-11.4,0-20.6-9.2-20.6-20.6l0,0c0-11.4,9.2-20.6,20.6-20.6h45.1
			C228.6,594.5,237.8,603.7,237.9,615.1z"/>
		<path class="st6" d="M253.2,470.9L253.2,470.9c0,44.4,36.4,80.8,80.8,80.8h32.6c1.8,14.6,10.1,27.6,22.5,35.4
			c-7.8,4.3-12.6,12.4-12.6,21.3l0,0c0,13.4,10.9,24.2,24.3,24.3h53c13.4,0,24.2-10.9,24.3-24.3l0,0c0-5-1.5-9.8-4.4-13.9h47.2
			c18.5,0,34.7-10.5,42.9-25.8c-2.4-70.7-33.7-134-82.6-178.5H334C289.5,390.1,253.2,426.5,253.2,470.9z"/>
		<path class="st6" d="M170.9,484.2L170.9,484.2c0-16.3-4.9-32.2-14.2-45.6h27.6c13.4,0.2,24.4-10.6,24.6-24
			c0.2-13.4-10.6-24.4-24-24.6c-0.2,0-0.4,0-0.6,0h-44.1c-48,43.7-79.1,105.7-82.4,174.9h32.3C134.6,565,170.9,528.7,170.9,484.2z"
			/>
		<path class="st6" d="M269.2,340.7c0,17,13.9,30.9,30.9,30.9h67.6c17,0,30.9-13.9,30.9-30.9l0,0c0-0.3,0-0.5,0-0.8
			c-40.3-14.8-83.8-19.3-126.3-12.8C270.3,331.3,269.2,336,269.2,340.7L269.2,340.7z"/>
		<path class="st6" d="M166.9,682.6L166.9,682.6c0-17-13.9-30.9-30.9-30.9H68.7c6.7,21.8,16.3,42.6,28.6,61.9h38.6
			C152.9,713.6,166.9,699.6,166.9,682.6z"/>
		<path class="st6" d="M354.7,824.8c0-26.7-21.8-48.5-48.5-48.5H200.1c-11.3,0-22.2,3.9-30.8,11.1c41.8,28.2,91,43.2,141.4,43.1
			c14.8,0,29.5-1.3,44-3.8C354.7,826,354.7,825.4,354.7,824.8L354.7,824.8z"/>
		<path class="st6" d="M554.4,646h-90.1c-26.7,0-48.5,21.8-48.5,48.5l0,0c0,8,2,15.9,5.8,22.9c-14.1,5-21.5,20.6-16.5,34.7
			c3.9,10.9,14.1,18.1,25.6,18.1h43.8C512.9,737.7,540.7,694.5,554.4,646z"/>
		<path class="st6" d="M172.2,594.5h45.1c11.4,0,20.6,9.2,20.6,20.6v0c0,11.4-9.2,20.6-20.6,20.6h-45.1c-11.4,0-20.6-9.2-20.6-20.6
			v0C151.6,603.7,160.8,594.5,172.2,594.5z"/>
		<path class="st1" d="M562.7,577.2c0.1,138.7-112.3,251.1-250.9,251.2c-49.1,0-97.1-14.3-138.1-41.3c-21-13.8-39.8-30.7-55.8-50
			c-33-39.8-52.8-88.9-56.7-140.4c-2-26.6,0.1-53.3,6.4-79.2c6.1-24.8,15.9-48.5,29.1-70.3c26.3-43.4,65.1-77.8,111.2-98.8
			c23.7-10.8,48.9-17.7,74.8-20.7c26.4-3,53.2-1.9,79.2,3.4c102.8,21,181.7,103.7,197.9,207.3C561.7,551.2,562.7,564.2,562.7,577.2
			c0,2.6,4.1,2.6,4.1,0c0.2-140.9-113.9-255.3-254.9-255.5C178.4,321.5,67.3,424.2,57.1,557.3c-2.1,26.9,0.1,54,6.4,80.3
			c6.1,25.2,16.1,49.4,29.6,71.6c55.9,92.3,163.7,139.6,269.5,118c104.6-21.3,184.8-105.5,201.1-210.9c2-13,3-26,3-39.1
			C566.7,574.6,562.7,574.6,562.7,577.2z"/>
		<path class="st1" d="M461.1,356.8c0,0-50,1.8-51.1,32.6s45.5,3,58.4,6.2s23.9-11.2,15.4-26.6C480.3,362.5,472.3,356.5,461.1,356.8
			z"/>
		<path class="st2" d="M461.1,354.8c-8.9,0.4-17.7,2-26.1,5c-6.6,2.3-13,5.5-18.1,10.3c-5.3,4.9-8.5,11.8-8.9,19
			c-0.3,6.3,1.6,13,7.9,15.6c5.9,2.5,12.9,1.3,19,0.1c7.1-1.5,13.9-3.7,20.9-5.6c2.8-0.7,5.8-1.5,8.4-1.7c1.1-0.1,2.2-0.1,3.3,0
			c-0.5-0.1,0.2,0,0.3,0.1c0.5,0.1,1,0.2,1.4,0.3c1.3,0.2,2.6,0.3,3.9,0.2c9.9-0.7,16.5-10,15.8-19.6c-0.8-10.8-8.6-19.8-18.9-22.7
			C467.1,355.1,464.1,354.7,461.1,354.8c-2.6,0-2.6,4.1,0,4.1c10.1-0.2,19.6,5.4,22.7,15.3c1.4,4.4,1.3,9.4-1,13.5
			c-1.9,3.4-5.3,5.9-9.3,6.4c-2.9,0.3-5.7-0.8-8.6-0.6c-2.7,0.2-5.3,0.6-8,1.3c-6.4,1.5-12.7,3.6-19.1,5.2c-5.6,1.4-12.1,3-17.8,1.9
			c-2.3-0.4-4.2-1.2-5.7-2.9s-2.2-4.4-2.4-6.8c-0.5-6.5,1.8-12.9,6.2-17.6c4.2-4.6,9.8-7.7,15.5-9.9c8.7-3.4,17.8-5,26.8-5.7
			c0.2,0,0.3,0,0.5,0C463.8,358.8,463.8,354.7,461.1,354.8z"/>
		<path class="st2" d="M432,374.1c-3.3,1.8-6.5,3.7-9.6,5.9c-4.9,3.4-10.2,7.3-13.2,12.6c-1.3,2.3,2.2,4.3,3.5,2
			c2.8-4.9,7.8-8.5,12.4-11.6c2.9-2,5.8-3.8,8.9-5.4C436.4,376.4,434.3,372.9,432,374.1L432,374.1z"/>
		<path class="st2" d="M441,383.9c-3.3,1.8-6.5,3.7-9.6,5.9c-4.9,3.4-10.2,7.3-13.2,12.6c-1.3,2.3,2.2,4.3,3.5,2.1
			c2.8-4.9,7.8-8.5,12.4-11.6c2.9-2,5.8-3.8,8.9-5.4C445.4,386.2,443.3,382.7,441,383.9L441,383.9z"/>
		<path class="st1" d="M487.5,204.9c0,0-37.4,30.7-21.4,102.4c0,0,12.5,11,10.3,21.4c-2.2,10.4-22.4,24.3-22.4,24.3l19.6,55.1
			c0,0,36.5,10.2,70.8-22.3C578.8,353.5,601.6,270.5,487.5,204.9z"/>
		<path class="st2" d="M464.7,310.3c2,1.8,3.8,3.7,5.3,5.9c2.7,3.7,5.3,8.4,4.6,13.1c-0.6,3.9-3.4,7.3-6,10.1c-3,3.3-6.3,6.3-9.7,9
			c-1.9,1.5-3.9,3-5.9,4.4c-0.7,0.5-1.2,1.4-0.9,2.3l6.6,18.6l10.5,29.6l2.4,6.9c0.9,2.4,4.8,1.4,3.9-1.1l-6.6-18.6l-10.5-29.6
			L456,354l-0.9,2.3c5.8-4,11.4-8.6,16.1-13.8c3-3.2,6.1-7.1,7.1-11.4c1.3-5.3-0.8-10.7-3.6-15.1c-2-3.2-4.4-6.1-7.2-8.6
			C465.6,305.7,462.8,308.5,464.7,310.3L464.7,310.3z"/>
		<path class="st2" d="M489.5,397.7l-12.3-36.1l-1.8-5.2c-0.8-2.5-4.8-1.4-3.9,1.1l12.3,36.1l1.8,5.2
			C486.4,401.2,490.3,400.2,489.5,397.7z"/>
		<path class="st2" d="M169.3,334.4L169.3,334.4c5.9,0,10.8,4.8,10.8,10.8v47.6c0,5.9-4.8,10.8-10.8,10.8l0,0
			c-5.9,0-10.8-4.8-10.8-10.8v-47.6C158.5,339.2,163.4,334.4,169.3,334.4z"/>
		<path class="st7" d="M215.8,357.4c-12.6-35.4-25.1-70.7-37.7-106c-3.1-8.6-14.6-8.7-17.6,0c-12.6,35.3-25.1,70.7-37.7,106
			c-2,5.7,3.2,11.6,8.8,11.6H207C212.6,368.9,217.8,363.1,215.8,357.4z"/>
		<path class="st2" d="M357,433.6L357,433.6c5.9,0,10.8,4.8,10.8,10.8V492c0,5.9-4.8,10.8-10.8,10.8l0,0c-5.9,0-10.8-4.8-10.8-10.8
			v-47.6C346.3,438.4,351.1,433.6,357,433.6z"/>
		<path class="st7" d="M403.5,456.6c-12.6-35.4-25.1-70.7-37.7-106c-3.1-8.6-14.6-8.7-17.6,0c-12.6,35.3-25.1,70.7-37.7,106
			c-2,5.7,3.2,11.6,8.8,11.6h75.4C400.3,468.2,405.5,462.3,403.5,456.6z"/>
		<path class="st1" d="M394.7,468.3h-75.4c-3,0-5.9-1.6-7.8-4.2c-1.6-2.3-2.1-5.1-1.2-7.6l37.7-106c1.4-4.1,4.9-6.6,9-6.6
			s7.5,2.5,9,6.6l37.7,106c0.9,2.5,0.4,5.2-1.2,7.6C400.6,466.7,397.7,468.3,394.7,468.3z M357,344.2c-3.9,0-7.2,2.4-8.6,6.4
			l-37.7,106c-0.8,2.4-0.4,5,1.2,7.3c1.8,2.5,4.6,4.1,7.5,4.1h75.4c2.8,0,5.7-1.6,7.5-4.1c1.6-2.2,2-4.9,1.2-7.3l-37.7-106
			C364.3,346.7,361,344.2,357,344.2L357,344.2z"/>
		<path class="st2" d="M202.7,345.7c-8.9-25.1-17.8-50.2-26.7-75.2c-2.2-6.2-4.4-12.5-6.7-18.7c-1.1-3.1-2.2-6.1-3.3-9.2
			c-0.8-2.4-1.6-4.8-3.2-6.7c-5-6.2-15-5-18.6,2.1c-1.4,2.7-2.2,5.7-3.2,8.5l-3.3,9.2l-6.7,18.7c-4.5,12.6-8.9,25.2-13.4,37.8
			l-6.7,18.7l-3.3,9.2c-1,2.7-2.5,5.7-2.5,8.6c-0.1,4.8,3.4,9,7.8,10.6c2.6,0.9,5.5,0.6,8.2,0.6h49.8c6.7,0,13.5,0,20.2,0
			c4.9,0,9.3-2.7,11.2-7.3C203.4,350.4,203.5,348,202.7,345.7c-0.8-2.5-4.7-1.4-3.9,1.1c1.3,4.1-1.8,8.4-6,8.9c-2.9,0.4-6,0-8.9,0
			H120c-2.5,0-4.9,0.2-7.2-1.2c-1.7-1.1-3-2.9-3.3-4.9c-0.4-2.5,1.1-5.1,1.9-7.4l3-8.6l6.2-17.5c8.2-23,16.3-45.9,24.5-68.9
			c1.4-3.8,2.2-9.1,6.3-11c2.6-1.2,5.7-0.7,7.8,1.3c1.5,1.5,2.1,3.4,2.8,5.3l3.2,8.9l6.1,17.1c8.2,23.1,16.4,46.1,24.6,69.2l3,8.6
			C199.7,349.3,203.6,348.2,202.7,345.7z"/>
	</g>
</g>
</svg>
