<svg xmlns="http://www.w3.org/2000/svg" viewBox="0 0 5152.1 3283.01"><defs><style>.cls-1{fill:#e8f8ff;}.cls-2{fill:#febbb5;}.cls-3{fill:#ffedb8;}.cls-4{fill:#fff;}.cls-5{fill:#b6cbd4;}.cls-6{fill:#52483f;}.cls-7{fill:#b1b479;}</style></defs><g id="Layer_2" data-name="Layer 2"><g id="圖層_2" data-name="圖層 2"><path class="cls-1" d="M1402.51,2899.8c-189.32,0-373-37.09-545.93-110.23a1406.51,1406.51,0,0,1-746.35-746.35C37.09,1870.29,0,1686.61,0,1497.29s37.09-373,110.23-545.93A1406.53,1406.53,0,0,1,856.58,205c172.93-73.14,356.61-110.22,545.93-110.22s373,37.08,545.93,110.22a1406.45,1406.45,0,0,1,746.35,746.36C2767.93,1124.28,2805,1308,2805,1497.29s-37.09,373-110.23,545.93a1406.55,1406.55,0,0,1-746.35,746.35C1775.51,2862.71,1591.83,2899.8,1402.51,2899.8Zm0-2745c-181.25,0-357.06,35.49-522.56,105.48A1346.53,1346.53,0,0,0,165.49,974.73C95.49,1140.22,60,1316,60,1497.29s35.49,357.06,105.49,522.55A1346.61,1346.61,0,0,0,880,2734.31c165.5,70,341.31,105.49,522.56,105.49s357.06-35.49,522.56-105.49a1346.44,1346.44,0,0,0,714.46-714.47c70-165.49,105.49-341.3,105.49-522.55s-35.49-357.07-105.49-522.56a1346.61,1346.61,0,0,0-714.46-714.47C1759.57,190.27,1583.76,154.78,1402.51,154.78Z"/><path class="cls-1" d="M4421.38,3283a728.48,728.48,0,1,1,284.43-57.43A726.07,726.07,0,0,1,4421.38,3283Zm0-1421.43a688.51,688.51,0,1,0,268.85,54.27A686.37,686.37,0,0,0,4421.38,1861.58Z"/><circle class="cls-2" cx="2086.55" cy="311.36" r="58.37"/><circle class="cls-3" cx="2283.67" cy="2618.11" r="58.37"/><path class="cls-4" d="M2336,2618.11c-.26,21.79-13.85,42-34.64,49.3a53,53,0,0,1-58.69-16.6c-13.74-17.09-15.05-41.67-3.59-60.26s33.93-28.29,55.21-23.74a53,53,0,0,1,41.71,51.3c.09,7.71,12.09,7.73,12,0a65.23,65.23,0,0,0-42.21-60.43c-25-9.38-54.63-1.42-71.61,19.24-17.14,20.87-19.8,50.94-5.8,74.24a65.12,65.12,0,0,0,67.78,30.08c30-5.69,51.48-33,51.84-63.13C2348.13,2610.38,2336.13,2610.38,2336,2618.11Z"/><path class="cls-5" d="M2018.65,1692.91S2222,2210.16,2141.79,3011.85h-198.5s-5.41-611.08-157.87-976.64c0,0-7,392.57-284.52,976.64H1316.07S1433.28,2677,1399.81,2226s174.07-533.12,174.07-533.12Z"/><path class="cls-4" d="M2145.47,3006.55s196.42-27.45,196.42,96.66H1980.78l-5-100.48Z"/><path class="cls-6" d="M2147.07,3012.34c-1.32.18-1.61.19-.08,0,1.28-.16,2.57-.31,3.86-.44,4.69-.5,9.38-.87,14.09-1.17a374.51,374.51,0,0,1,45.57-.18c35.18,2,75.65,9,102.09,34.38,16.09,15.42,23.19,36.26,23.29,58.26l6-6H1995.54c-4.51,0-9.67-.7-14.15,0a4.14,4.14,0,0,1-.61,0l6,6-4.37-87.83-.63-12.65-6,6,148.73,3.35,21,.47c7.73.17,7.72-11.83,0-12l-148.73-3.35-21-.47a6.05,6.05,0,0,0-6,6l4.37,87.84.63,12.64a6.11,6.11,0,0,0,6,6h316.53c14.6,0,29.38.68,44,0,.2,0,.41,0,.61,0a6.08,6.08,0,0,0,6-6c-.1-21.87-6.33-43-20.43-59.92-12.62-15.17-30.3-25.2-48.61-31.93-34.36-12.61-72.64-14.72-108.91-12.9-8.71.44-17.43,1.1-26.06,2.3C2136.26,3001.82,2139.5,3013.39,2147.07,3012.34Z"/><path class="cls-6" d="M2191.82,3047.64l29.43-40.18c4.56-6.23-5.84-12.23-10.36-6.05l-29.43,40.17c-4.57,6.24,5.84,12.24,10.36,6.06Z"/><path class="cls-6" d="M2157.3,3047.64l29.43-40.18c4.57-6.23-5.84-12.23-10.36-6.05l-29.43,40.17c-4.57,6.24,5.84,12.24,10.36,6.06Z"/><path class="cls-5" d="M1578,1003.44c52.56-25.88,118-41.24,188.9-41.24s136.35,15.36,188.9,41.24c75.88,37.37,124.94,96.69,124.94,163.49v407.42c0,77.81-72.09,141.47-160.18,141.47H1613.28c-88.1,0-160.18-63.66-160.18-141.47V1166.93C1453.1,1100.13,1502.15,1040.81,1578,1003.44Z"/><polygon class="cls-4" points="1840.8 812.37 1840.8 981.84 1766.93 1053.25 1693.07 981.84 1693.07 812.37 1840.8 812.37"/><path class="cls-6" d="M1834.8,812.37V981.84l1.76-4.24-64.77,62.6-9.1,8.8h8.48l-64.76-62.6-9.1-8.8,1.76,4.24V812.37l-6,6H1840.8c7.72,0,7.73-12,0-12H1693.07a6.08,6.08,0,0,0-6,6V929.73c0,16.92-.47,33.92,0,50.84.13,4.77,3.32,7,6.52,10.12l22.61,21.86,46.49,44.94a6.1,6.1,0,0,0,8.48,0l39.44-38.12,25.33-24.48c3.48-3.37,10.34-7.88,10.86-13.12.42-4.25,0-8.77,0-13V812.37C1846.8,804.64,1834.8,804.63,1834.8,812.37Z"/><path class="cls-4" d="M1879.65,1005.87l-102.42,99-14.54,14.06h8.48l-102.41-99-14.54-14c-5.56-5.37-14,3.1-8.49,8.48l102.42,99,14.54,14.05a6.1,6.1,0,0,0,8.48,0l102.42-99,14.54-14.06c5.56-5.37-2.93-13.85-8.48-8.48Z"/><path class="cls-4" d="M1599.92,993.59s84.94,441.92,74.86,766.23H1454.45S1094.25,1058.64,1599.92,993.59Z"/><path class="cls-4" d="M1929.56,991.81s-5.9,548.54-35.29,768h214.78S2323.12,1075,1929.56,991.81Z"/><path class="cls-6" d="M1601,1147.61l-59,64.46-8.34,9.12a6,6,0,0,0-1.54,5.83l30.11,82.5L1610,1440.45l11,30.12c2.63,7.2,14.23,4.09,11.58-3.19l-30.12-82.5L1554.7,1254l-11-30.13-1.55,5.84,59-64.46,8.35-9.11c5.2-5.69-3.26-14.2-8.49-8.49Z"/><path class="cls-6" d="M1519,1058.64v100c0,2.48,1.85,5.26,4.4,5.78l62.42,12.76c7.54,1.54,10.76-10,3.19-11.58l-62.42-12.75,4.41,5.79v-100c0-7.72-12-7.73-12,0Z"/><ellipse class="cls-6" cx="1862.5" cy="676.01" rx="105.76" ry="145.69" transform="translate(777.49 2333.92) rotate(-76.75)"/><ellipse class="cls-6" cx="1659.86" cy="682.35" rx="145.69" ry="105.76" transform="translate(3.67 1373.55) rotate(-45)"/><path class="cls-4" d="M1610.12,769.72a55,55,0,0,1,15.27,2.17c-9.35-77.3,12.81-159,140.83-165.07,125.17-5.94,151.31,81,142.62,181.19-4.9,56.56-18.41,129.3-73.12,158.49-66.35,35.38-153.23-1.77-186.59-83.53-9.94,10.08-21.74,18.33-37,18.33-30.26,0-56.79-33.53-56.79-63.79S1579.86,769.72,1610.12,769.72Z"/><path class="cls-6" d="M1610.12,775.72a54,54,0,0,1,13.67,2c3.4.92,8.07-1.82,7.6-5.79-5.7-47.89.94-102.15,43.24-132.19,26.91-19.11,60.75-25.6,93.14-27,30.16-1.25,62,2.56,87.59,19.7,45.51,30.42,51.16,92.08,48.45,141.94-1.78,32.69-6.19,66.05-17,97.08-10.74,30.74-29.46,58.58-59.71,72.64-59.88,27.84-128.17-6.78-160.43-59.67a167.73,167.73,0,0,1-11.74-23.06c-1.66-4-6.53-6.14-10-2.65-10,10-22.4,18.19-37.26,16.31-12.79-1.61-23.94-9.85-31.91-19.62-15-18.39-21.59-48.38-2.73-66.55,9.85-9.5,23.78-13,37.14-13.15,7.72-.07,7.74-12.07,0-12-15.06.13-30.14,4.06-42.06,13.56-11.52,9.19-17.92,22.85-18.66,37.47-1.56,30.52,21.47,64.54,51.92,71.31,20.24,4.5,38-4.82,52-18.85l-10-2.64c13.85,33.52,37.13,62.82,68.53,81.46,28.2,16.74,61.91,23.87,94.27,17.41,34.34-6.85,62.22-28.88,79.14-59.21,17.3-31,24.22-66.77,28.13-101.67,6.19-55.38,6.84-123.7-35.06-166.5-21.26-21.71-50.58-31.73-80.28-34.6-36.55-3.53-76.6,1-110.09,16.66-25.08,11.69-45.77,31.44-57.27,56.73-11,24.1-14.14,50.91-13,77.16.29,6.65.87,13.28,1.66,19.88l7.59-5.78a67.61,67.61,0,0,0-16.86-2.39C1602.39,763.59,1602.39,775.59,1610.12,775.72Z"/><path class="cls-4" d="M1810.49,880.83s.84,31.41-28.79,31.41c-31.75,0-29.69-31.41-29.69-31.41"/><path class="cls-6" d="M1804.49,880.83a27.92,27.92,0,0,1-2.61,13c-3.89,8.94-12.12,12.65-21.58,12.36-9-.27-16.93-4.46-20.27-13a25.46,25.46,0,0,1-2-12.36c.47-7.71-11.54-7.68-12,0-.75,12.48,5.11,26.09,16,32.57,9.42,5.59,22.69,6.47,32.89,2.62,8.87-3.35,15.11-10.26,18.53-19a42.78,42.78,0,0,0,3-16.21c-.17-7.71-12.17-7.73-12,0Z"/><circle class="cls-6" cx="1837.68" cy="812.91" r="8.7"/><circle class="cls-6" cx="1722.55" cy="812.91" r="8.7"/><line class="cls-4" x1="1781.24" y1="827.41" x2="1781.24" y2="866.19"/><path class="cls-6" d="M1775.24,827.41v38.78c0,7.72,12,7.73,12,0V827.41c0-7.72-12-7.73-12,0Z"/><path class="cls-4" d="M1587.73,814.26s12.26-9.55,26.34-4.2,18.94,26.25,8.39,30.39-19.14-1.2-20.68-9.53S1609,818,1622,817.46"/><path class="cls-6" d="M1590.76,819.44c5.11-3.9,12.16-6,18.5-4.58,7,1.54,12.72,8,12.88,15.32.16,6.74-9.18,7.61-13,3.06-6.52-7.87,8.23-9.52,12.85-9.78,7.67-.43,7.72-12.43,0-12-10.14.57-24.65,3.44-26.26,15.71-1.51,11.58,9.11,21.07,20.22,20.69s19-7.81,18-19.14a28.94,28.94,0,0,0-17.3-24c-10.2-4.2-23.22-2.38-32,4.35-6.06,4.61-.09,15,6.06,10.36Z"/><path class="cls-6" d="M1921.9,773.07c-39.14,3-79.1-80.82-79.1-80.82-36.08,87.88-116.07,45.07-132-3.43,0,0-17.55,74.62-92.82,82.25,0,0-117.65-251.75,134-270.93C1980.18,482.75,1961,770.11,1921.9,773.07Z"/><path class="cls-5" d="M1790.39,801.91a49.13,49.13,0,0,0,32.16,45.6c18.78,6.9,40.92.71,53.53-14.76,12.79-15.68,14.79-38.18,4.31-55.65a49,49,0,0,0-51.4-22.6c-22.48,4.41-38.24,24.88-38.6,47.41-.13,7.72,11.87,7.73,12,0,.24-15.13,9.52-29.11,24-34.25a36.45,36.45,0,1,1-24,34.25C1802.26,794.19,1790.26,794.17,1790.39,801.91Z"/><path class="cls-5" d="M1675.26,801.91a49.13,49.13,0,0,0,32.16,45.6c18.78,6.9,40.92.71,53.53-14.76,12.79-15.68,14.79-38.18,4.31-55.65a49,49,0,0,0-51.4-22.6c-22.48,4.41-38.24,24.88-38.6,47.41-.13,7.72,11.87,7.73,12,0,.24-15.13,9.52-29.11,24-34.25a36.45,36.45,0,1,1-24,34.25C1687.13,794.19,1675.13,794.17,1675.26,801.91Z"/><path class="cls-5" d="M1798.75,781.94h-35c-7.73,0-7.74,12,0,12h35c7.72,0,7.74-12,0-12Z"/><path class="cls-4" d="M1620.43,1742.35s147.64,5.31,150.91,96.39-134.32,8.86-172.49,18.35-60.91-51.27-35.54-78.77S1576.05,1736.41,1620.43,1742.35Z"/><path class="cls-6" d="M1620.43,1748.35a254.67,254.67,0,0,1,73.92,14.27c18.42,6.41,36.68,15.53,50.52,29.53a70.24,70.24,0,0,1,20.39,54.38c-.49,7.77-2.74,15.84-7.91,21.09-4.61,4.68-11.28,7.06-18,8-19.11,2.58-39.28-2.9-57.59-7.76-19.44-5.16-38.62-11.74-58.39-15.52-7.22-1.38-14.74-2.57-22.1-1.68-4.59.56-8.87,1.93-13.57,1.29a26.34,26.34,0,0,1-12.52-5.51c-16.53-12.94-22-41.38-11-59.32,3.34-5.44,8.24-9.9,12-15.07,3.1-4.26,5.75-8.78,8.43-13.31,4.08-6.91,6.78-10.74,15.11-11.51,6.87-.65,13.94.28,20.74,1.16,3.24.43,6-3.06,6-6,0-3.58-2.8-5.58-6-6-11.35-1.47-25.67-3.55-35.73,3.5-8,5.58-11.71,15.59-17,23.4-3.87,5.69-8.88,10.42-12.78,16.06a46.85,46.85,0,0,0-7.08,17,64.71,64.71,0,0,0,4.24,38.32c4.65,10.84,12.57,21,23.47,26a36.12,36.12,0,0,0,17.6,3.4,60.21,60.21,0,0,0,8.24-1.34,19.35,19.35,0,0,1,3.68-.34c8.23-.22,15.61,1.49,23.79,3.43,10.46,2.48,20.79,5.53,31.13,8.48,21.55,6.15,43.66,12.77,66.19,13.76,17.75.78,37.61-3.56,46.1-21,9.7-19.88,5.47-46.41-5-65.11-10.61-18.92-28.71-32.53-47.92-41.88-18.71-9.1-38.89-15-59.29-18.79-12.36-2.32-25.12-4.36-37.71-4.8-.64,0-1.27-.07-1.91-.1C1612.71,1736.07,1612.72,1748.07,1620.43,1748.35Z"/><path class="cls-6" d="M1700.39,1803.81a287,287,0,0,1,26.33,16c13.47,9.13,28.43,19.79,36.6,34.24,3.8,6.73,14.17.69,10.36-6-8.82-15.61-24.43-27.19-38.9-37.18a288.21,288.21,0,0,0-28.33-17.4c-6.82-3.62-12.89,6.74-6.06,10.36Z"/><path class="cls-6" d="M1673.85,1832.85a284.78,284.78,0,0,1,26.33,16c13.47,9.12,28.43,19.78,36.6,34.24,3.8,6.72,14.17.68,10.36-6.06-8.82-15.6-24.43-27.18-38.9-37.18a289.4,289.4,0,0,0-28.33-17.4c-6.82-3.61-12.89,6.74-6.06,10.37Z"/><path class="cls-4" d="M1437.43,1050.87s-186.46,97.67-232.32,284.62c-47.56,193.89,1,520.53,416.75,548.76l39.47-151S1477,1648.54,1472,1518.68C1468.39,1427.67,1535.42,1130.29,1437.43,1050.87Z"/><path class="cls-6" d="M1602.85,1737.91l-27.92,106.84-4,15.27c-2,7.47,9.61,10.66,11.57,3.19l27.92-106.85,4-15.26c2-7.48-9.61-10.67-11.57-3.19Z"/><path class="cls-6" d="M1627.55,1886.68l34.53-132.11,4.94-18.91c.62-2.36-.36-5.67-2.76-6.77-25.69-11.83-50.17-27.24-73.11-43.68-42.05-30.16-83.48-69-102.86-118-8.72-22.1-11.24-44.66-10.29-68.22,1-23.28,3.39-46.49,5.72-69.66,6.13-60.94,12.74-122,13.19-183.29.22-29.88-1-59.84-5.45-89.42-3.75-25.19-10-50.49-21.71-73.23a132.58,132.58,0,0,0-8.54-14.25c-4.35-6.32-14.75-.33-10.36,6.05,13.81,20,21.24,43.65,26,67.32,5.81,28.75,7.64,58.22,8,87.5.77,61.89-5.48,123.63-11.72,185.12-2.51,24.76-5.19,49.53-6.67,74.37-1.34,22.73-1,45.15,5.52,67.2,15.45,52.4,55.38,94.54,97.58,127.31a514.35,514.35,0,0,0,55.82,37.74c10,5.9,20.47,12.43,31.3,16.84.51.21,1,.48,1.51.71l-2.76-6.78-34.53,132.11-4.94,18.91c-2,7.48,9.62,10.67,11.57,3.19Z"/><path class="cls-4" d="M1966.89,1719s-147.64,5.31-150.91,96.38,134.32,8.86,172.49,18.35,60.91-51.27,35.54-78.77S2011.27,1713,1966.89,1719Z"/><path class="cls-6" d="M1966.89,1713a262.72,262.72,0,0,0-84,17.21c-20,7.77-39.81,18.69-53.78,35.38a81.33,81.33,0,0,0-18.33,64.31c7.49,48.74,67.63,34.31,100.34,25.49,20.22-5.45,40.36-12.71,61.13-15.76a63.77,63.77,0,0,1,10.27-.66c.82,0,1.64.08,2.46.17,1,.11-.69-.18.93.16a57.32,57.32,0,0,0,8.75,1.38c12,.66,23.43-5.3,31.16-14.27,16-18.58,21-50.1,6.26-70.87-4-5.61-8.93-10.36-12.78-16.09-2.85-4.25-5.27-8.77-8-13.1-5.36-8.51-12.21-13.28-22.31-14.39-7.35-.8-14.84.09-22.13,1-3.24.42-6,2.45-6,6,0,2.92,2.78,6.41,6,6,6.93-.91,14.2-1.9,21.21-1.13,3.55.39,6.82,1.56,8.69,3.23,5.92,5.28,9.65,15.13,14.71,22,3.68,5,8.42,9.33,11.67,14.61a38.46,38.46,0,0,1,5.23,15.2,53,53,0,0,1-6.23,31.89c-4.74,8.57-12.43,16.34-22.55,17.74-4.77.66-9.16-.78-13.83-1.32a48.62,48.62,0,0,0-9.65,0c-18.83,1.62-37.22,7.92-55.29,13.06-19.55,5.55-39.69,11.59-60.12,12.41-7.73.31-16.21-.19-22.76-3a23.65,23.65,0,0,1-13.28-13.67c-7.11-18.11-1.51-41.1,9-56.68,10.92-16.13,28.24-27,45.76-34.75,27.25-12.07,57.07-17.4,85.81-19.45l1.6-.07C1974.59,1724.69,1974.62,1712.69,1966.89,1713Z"/><path class="cls-6" d="M1880.87,1770.07a288.21,288.21,0,0,0-28.33,17.4c-14.47,10-30.08,21.57-38.9,37.18-3.81,6.73,6.56,12.79,10.36,6,8.17-14.45,23.13-25.1,36.6-34.24a287,287,0,0,1,26.33-16c6.82-3.62.77-14-6.06-10.36Z"/><path class="cls-6" d="M1907.41,1799.11a284.43,284.43,0,0,0-28.33,17.4c-14.47,10-30.08,21.57-38.9,37.17-3.8,6.73,6.56,12.79,10.36,6.06,8.17-14.46,23.13-25.11,36.6-34.24a284.78,284.78,0,0,1,26.33-16c6.83-3.62.77-14-6.06-10.36Z"/><path class="cls-4" d="M2018.91,1035.38c195.74,19.67,559.47,662.42-48,829.93l-45.59-162.51s149.84-71.26,107.84-230.43C1990.31,1309.91,1865.11,1019.92,2018.91,1035.38Z"/><path class="cls-6" d="M1949.3,1164.1l59,64.45,8.34,9.12-1.54-5.84-30.11,82.5-47.79,130.93-11,30.12c-2.65,7.27,8.94,10.4,11.57,3.19l30.11-82.5,47.79-130.92,11-30.13a6,6,0,0,0-1.54-5.83l-59-64.46-8.35-9.12c-5.22-5.71-13.69,2.8-8.48,8.49Z"/><path class="cls-6" d="M2027.82,1066.64v100l4.4-5.79-62.41,12.75c-7.57,1.55-4.37,13.12,3.19,11.58l62.41-12.76a6.05,6.05,0,0,0,4.41-5.78v-100c0-7.72-12-7.73-12,0Z"/><path class="cls-6" d="M2027.39,1474c6.88,26.41,9.49,54.16,5,81.22a175,175,0,0,1-23.1,62.18c-17.21,28.44-41.87,52.25-69.41,70.07a157,157,0,0,1-17.59,10.19c-2.36,1.12-3.43,4.38-2.76,6.77L1958.41,1843l6.72,24c2.08,7.42,13.66,4.27,11.57-3.19l-36.85-131.37-8.73-31.15-2.76,6.78c18.21-8.68,35.07-21.59,50-35,31.61-28.51,55.77-65.79,64.41-107.82,6.44-31.33,4.26-63.54-3.77-94.37-2-7.46-13.52-4.3-11.57,3.19Z"/><path class="cls-6" d="M2019.12,1825.42l-29.81-106.29-4.26-15.18c-2.08-7.42-13.66-4.27-11.57,3.19l29.81,106.29,4.26,15.18c2.08,7.43,13.66,4.27,11.57-3.19Z"/><path class="cls-4" d="M1502.82,3006.55s196.42-27.45,196.42,96.66H1333.13l25-100.48Z"/><path class="cls-6" d="M1504.42,3012.34c-1.32.18-1.61.19-.09,0,1.29-.16,2.58-.31,3.87-.44,4.69-.5,9.38-.87,14.09-1.17a374.35,374.35,0,0,1,45.56-.18c35.19,2,75.66,9,102.1,34.38,16.09,15.42,23.19,36.26,23.29,58.26l6-6H1348.11c-4.61,0-9.75-.65-14.33,0a4.7,4.7,0,0,1-.65,0l5.79,7.6,21.87-87.91,3.13-12.57-5.79,4.4,126.74,3.35,18,.47c7.73.2,7.72-11.8,0-12l-126.73-3.34-18-.48a6.09,6.09,0,0,0-5.79,4.41l-21.87,87.9-3.13,12.58a6.08,6.08,0,0,0,5.79,7.59h321.09c14.74,0,29.64.65,44.37,0,.22,0,.44,0,.65,0a6.08,6.08,0,0,0,6-6c-.1-21.87-6.33-43-20.43-59.92-12.62-15.17-30.3-25.2-48.61-31.93-34.36-12.61-72.64-14.72-108.91-12.9-8.71.44-17.43,1.1-26.06,2.3C1493.61,3001.82,1496.85,3013.39,1504.42,3012.34Z"/><path class="cls-6" d="M1549.17,3047.64l29.43-40.18c4.56-6.23-5.84-12.23-10.37-6.05l-29.42,40.17c-4.57,6.24,5.84,12.24,10.36,6.06Z"/><path class="cls-6" d="M1514.65,3047.64l29.43-40.18c4.57-6.23-5.84-12.23-10.36-6.05l-29.43,40.17c-4.57,6.24,5.84,12.24,10.36,6.06Z"/><rect class="cls-6" x="1710.18" y="1573.39" width="63.56" height="204.25" rx="31.78"/><path class="cls-7" d="M1879.29,1641.35Q1823.64,1484.69,1768,1328c-9.07-25.55-43-25.59-52,0q-55.65,156.64-111.31,313.31c-5.95,16.76,9.54,34.16,26,34.16h222.62C1869.76,1675.51,1885.25,1658.11,1879.29,1641.35Z"/><rect class="cls-4" x="1924.86" y="1915.95" width="382.45" height="182.74" rx="91.37"/><path class="cls-4" d="M2306.63,1954.37H2082.36c-56.43,0-102.61,46.18-102.61,102.61h0a101.66,101.66,0,0,0,12.27,48.49,57.71,57.71,0,0,0-38.15,54.12h0a57.66,57.66,0,0,0,57.49,57.48H2137a57.65,57.65,0,0,0,57.48-57.48h112.14c56.43,0,102.6-46.18,102.6-102.61h0C2409.23,2000.55,2363.06,1954.37,2306.63,1954.37Z"/><path class="cls-6" d="M2306.63,1948.37h-212.4c-4.43,0-8.85,0-13.28,0a108.31,108.31,0,0,0-61,19.9,109.55,109.55,0,0,0-33.06,140.22l3.59-8.81c-35.14,13.14-52.54,53.44-36.12,87.64a64.25,64.25,0,0,0,36.83,32.41c8.31,2.87,16.88,3.33,25.56,3.33,39.62,0,79.23.09,118.85,0,35.33-.07,64.51-27.82,64.94-63.48l-6,6c37.32,0,74.64.21,112,0a110.11,110.11,0,0,0,89.64-47.23c21.42-30.78,24.8-71.31,9.71-105.47-17.19-38.91-56.82-64.23-99.16-64.52-7.73,0-7.74,12,0,12a97.83,97.83,0,0,1,84.67,50.25,96.63,96.63,0,0,1-84.86,143c-17.63.09-35.27,0-52.9,0h-59.05a6.1,6.1,0,0,0-6,6,52.21,52.21,0,0,1-52.14,51.48c-15.29.07-30.59,0-45.88,0h-63.94c-4.93,0-9.87,0-14.8,0a51.47,51.47,0,0,1-18.11-99.81c3.7-1.39,5.52-5.16,3.58-8.82a96.64,96.64,0,0,1,83-142c4.34-.09,8.69,0,13,0h213.34C2314.35,1960.37,2314.36,1948.37,2306.63,1948.37Z"/><path class="cls-4" d="M3451.17,1943.14s-30.69,308.79,99.07,710.62l144.54,7.68s-103.49-351.88-64.82-677.76S3451.17,1943.14,3451.17,1943.14Z"/><path class="cls-6" d="M3445.17,1943.14c-1.11,11.24-1.62,22.55-2.09,33.83-1.32,31.64-1.35,63.34-.56,95,1.23,48.93,4.53,97.82,9.56,146.51q9.8,94.7,28.15,188.26a2155.81,2155.81,0,0,0,55,219.3q4.52,14.68,9.24,29.3a6.21,6.21,0,0,0,5.78,4.41l126.6,6.73,17.94,1c3.88.21,6.84-4,5.78-7.59-3.93-13.38-7.37-26.92-10.76-40.44q-13.52-54-24-108.64-15.27-78.39-24.92-157.76a1845.4,1845.4,0,0,1-13.3-188.07c-.57-33.41-.11-66.84,1.61-100.21,1.69-32.79,5.45-65.27,8.64-97.92,2.31-23.72,3.72-47.72,2.14-71.53-1-15.14-3-30.71-8.85-44.82-3.95-9.57-9.84-18.68-19-24-8.06-4.72-17.39-5.6-26.47-4.22-21.36,3.24-40.59,17.42-56.94,30.65-18.71,15.14-35.7,32.39-51.78,50.26-9.94,11.05-19.58,22.4-28.72,34.12-.74,1-1.49,1.91-2.22,2.87-4.68,6.14,5.74,12.13,10.36,6.06l.37-.47c-1.23,1.59-.53.67.17-.22,1.34-1.7,2.68-3.4,4-5.08q7.2-9,14.72-17.68a556.6,556.6,0,0,1,47-48.88,268.17,268.17,0,0,1,27.3-22.11,163,163,0,0,1,13.91-8.74,94.57,94.57,0,0,1,12.58-5.94c2.17-.8,4.39-1.52,6.63-2.1,1-.26,2-.49,3-.69.71-.15,3.08-.52,2.62-.46s1.72-.16,2.32-.2c1.09-.06,2.18-.08,3.27,0,.92,0,1.84.1,2.76.18,1.17.1-1.08-.2.08,0,.54.1,1.09.19,1.64.31.88.18,1.75.41,2.61.67l1.37.46c1.43.49-.32-.19.49.18a32.46,32.46,0,0,1,5,2.84c1.23.85-.48-.43.35.25.4.33.8.67,1.19,1,.8.72,1.57,1.47,2.3,2.26a21,21,0,0,1,3.45,4.51c6.52,10.11,9.35,22.63,11.07,35.15,2.81,20.43,2.33,41.36,1.09,61.89-1.85,30.46-6.32,60.7-8.61,91.14-2.47,32.87-3.64,65.83-3.74,98.79a1759.75,1759.75,0,0,0,9.94,187.87q8.55,82,23.36,163.22,10.85,60,25,119.3c4.56,19.06,9.33,38.1,14.7,57,.23.83.47,1.66.71,2.49l5.79-7.6-126.6-6.73-17.94-.95,5.79,4.4a2164.51,2164.51,0,0,1-59-222.63q-19.83-95.07-30.87-191.69c-5.68-50.23-9.53-100.68-11.23-151.2-1.13-33.73-1.34-67.51-.19-101.24.33-9.67.77-19.33,1.4-29,.27-4.21.93-8.51,1-12.73a5.11,5.11,0,0,1,.05-.55C3457.93,1935.46,3445.93,1935.52,3445.17,1943.14Z"/><path class="cls-4" d="M3547.4,2628.78S3351,2601.33,3351,2725.44h369.11l-19-100.48Z"/><path class="cls-6" d="M3549,2623a341.6,341.6,0,0,0-69.44-2c-38.28,2.56-81.51,11-109.51,39.43-17.19,17.46-25,40.82-25.07,65a6.09,6.09,0,0,0,6,6h323.64c14.88,0,30,.67,44.83,0,.21,0,.43,0,.64,0,4.15,0,6.5-3.82,5.79-7.6l-16.63-88-2.37-12.53c-.48-2.5-3.32-4.46-5.79-4.4l-134.52,3.34-19.17.48c-7.71.19-7.74,12.19,0,12l134.53-3.35,19.16-.47-5.78-4.41,16.63,87.95,2.37,12.53,5.78-7.59h-354c-4.63,0-9.88-.7-14.46,0a4.7,4.7,0,0,1-.65,0l6,6c.09-19.55,5.57-38.81,18.78-53.59,12-13.42,28.19-22.22,45.07-28,32.73-11.14,68.39-12.94,102.69-11.16,5.7.3,11.39.71,17.07,1.28,1.65.16,3.3.35,4.95.54,1.09.12,2.82.38.27,0C3553.36,2635.61,3556.63,2624.05,3549,2623Z"/><path class="cls-6" d="M3511.42,2663.81,3482,2623.63c-4.52-6.16-14.94-.18-10.36,6.06l29.42,40.18c4.52,6.17,14.94.18,10.37-6.06Z"/><path class="cls-6" d="M3545.93,2663.81l-29.43-40.18c-4.51-6.16-14.93-.18-10.36,6.06l29.43,40.18c4.52,6.17,14.93.18,10.36-6.06Z"/><path class="cls-4" d="M3857.07,1957.56s-6.08,310.26,155.19,700.51l144.7-3.82s-131.11-342.56-118.45-670.47S3857.07,1957.56,3857.07,1957.56Z"/><path class="cls-6" d="M3851.07,1957.56c-.22,11.29.17,22.61.6,33.89,1.2,31.65,3.68,63.25,7,94.75,5.12,48.76,12.26,97.32,21.13,145.54q17.21,93.53,42.92,185.21A2157.63,2157.63,0,0,0,3995,2631.19q5.65,14.26,11.53,28.47c1,2.43,2.93,4.48,5.78,4.41l126.74-3.35,18-.47c3.56-.1,7.23-3.81,5.78-7.6-4.85-12.69-9.25-25.57-13.6-38.45q-17.37-51.47-31.94-103.82-21.1-75.28-37-151.92c-12.45-60.45-22.31-121.46-28.66-182.86a1433.14,1433.14,0,0,1-6.91-196.09c.87-25.65.8-51.51-2.26-77-2-16.49-5-33.06-11.77-48.31-4.26-9.59-10.56-18.84-19.75-24.31-8.13-4.83-17.54-5.74-26.72-4.12-21.17,3.75-39.83,19.58-55,33.8-18.09,16.92-34.09,36-49.16,55.63-9.36,12.17-18.38,24.63-26.83,37.45-.42.64-.84,1.27-1.25,1.92-4.2,6.51,6.19,12.53,10.36,6,5.8-9,12-17.77,18.37-26.42a530.27,530.27,0,0,1,43.32-52.52c15.4-16.23,31.51-31.9,52-40.92a4.22,4.22,0,0,1,.71-.29c.55-.21,1.09-.43,1.65-.63q1.62-.6,3.27-1.11a54.72,54.72,0,0,1,6.2-1.46c1.22-.22-.14,0,.2,0,.52-.06,1-.12,1.56-.16,1-.07,2.06-.12,3.09-.11s1.87.07,2.8.13c.4,0,2,.29.32,0,.49.08,1,.15,1.47.26,4.69,1.13,5.72,1.49,9.84,4.38.94.66-.63-.54.26.19.43.35.86.71,1.27,1.08.86.77,1.68,1.58,2.46,2.42a25.61,25.61,0,0,1,3.86,4.93c7.4,11.2,10.78,24.5,13.27,37.85,4,21.6,4.87,43.8,4.89,65.72,0,31.43-1.78,62.8-1.31,94.24.49,32.32,2.19,64.61,4.9,96.82A1801.83,1801.83,0,0,0,4062,2328q15,79.32,35.9,157.37,15.27,57.26,33.56,113.67c5.95,18.27,12.1,36.49,18.82,54.49.29.78.58,1.56.88,2.34l5.79-7.59-126.74,3.34-18,.48,5.79,4.4a2166.8,2166.8,0,0,1-76.48-217.25q-27.33-93.28-46.06-188.82c-9.68-49.55-17.56-99.46-23.26-149.62-3.8-33.53-6.7-67.19-8.23-100.9-.63-13.92-.37-27.86-1-41.76a5.23,5.23,0,0,1,0-.56C3863.22,1949.84,3851.22,1949.84,3851.07,1957.56Z"/><path class="cls-2" d="M3535.79,1150.3c62.76-30.91,140.88-49.25,225.57-49.25h0c84.69,0,162.81,18.34,225.57,49.25,90.61,44.62,161.62,103.78,148.16,417.18-10.08,234.81-53.9,407.23-53.9,407.23H3441.53s-43.82-172.42-53.9-407.23C3374.17,1254.08,3445.18,1194.92,3535.79,1150.3Z"/><path class="cls-4" d="M4001.82,1279.11c1,1.52,1.87,3.14,2.72,4.74,1.07,2,2.07,4,3,6.08.63,1.33,1.24,2.68,1.84,4,.34.75.66,1.51,1,2.27.5,1.15.09.2,0-.11l.57,1.38c8.65,21.19,14.75,43.35,19.57,65.7,8.61,39.91,13,80.15,15.31,121,3.52,62.38,1.85,125-2.69,187.28-6.44,88.26-18.83,176-34.65,263.08q-3.53,19.32-7.26,38.6c-1.46,7.55,10.1,10.78,11.57,3.19,17.67-91.19,31.86-183.17,40-275.72,5.78-65.75,8.55-131.9,5.93-197.87-1.75-43.83-5.83-87.75-14.2-130.84-4.77-24.55-10.88-49-19.93-72.39-3.34-8.64-6.77-18.49-12.21-26.15-.07-.09-.12-.18-.18-.27-4.26-6.4-14.66-.4-10.36,6Z"/><path class="cls-6" d="M3441.53,1980.71h561.22c25.73,0,51.63.86,77.35,0,.36,0,.73,0,1.09,0,7.72,0,7.73-12,0-12H3520c-25.73,0-51.63-.87-77.35,0h-1.09c-7.72,0-7.73,12,0,12Z"/><path class="cls-4" d="M4020.36,2632.59s-196.42-27.44-196.42,96.66h366.11l-25-100.47Z"/><path class="cls-6" d="M4022,2626.81a340.88,340.88,0,0,0-69.44-2c-38.28,2.56-81.51,11-109.51,39.43-17.19,17.45-25,40.82-25.07,65a6.08,6.08,0,0,0,6,6H4145c14.74,0,29.64.66,44.37,0h.65a6.06,6.06,0,0,0,5.79-7.59L4174,2639.75l-3.13-12.57a6.07,6.07,0,0,0-5.79-4.4l-126.73,3.34-18,.47c-7.71.21-7.74,12.21,0,12l126.74-3.34,17.95-.47-5.78-4.41,21.87,87.91,3.13,12.57,5.78-7.6H3838.92c-4.6,0-9.76-.65-14.33,0a4.7,4.7,0,0,1-.65,0l6,6c.09-19.54,5.57-38.8,18.78-53.58,12-13.43,28.19-22.22,45.07-28,32.72-11.14,68.39-12.94,102.68-11.16q8.57.43,17.08,1.28c1.65.16,3.3.35,4.95.54,1.09.12,2.82.37.27,0C4026.32,2639.43,4029.58,2627.87,4022,2626.81Z"/><path class="cls-6" d="M3984.38,2667.63,3955,2627.45c-4.52-6.17-14.94-.19-10.36,6.06l29.42,40.18c4.52,6.16,14.94.18,10.37-6.06Z"/><path class="cls-6" d="M4018.89,2667.63l-29.43-40.18c-4.51-6.17-14.93-.19-10.36,6.06l29.43,40.18c4.52,6.16,14.93.18,10.36-6.06Z"/><path class="cls-2" d="M3903.35,636.78c-52.55-25.88-118-41.23-188.9-41.23h0c-70.92,0-136.34,15.35-188.9,41.23-75.88,37.37-135.34,86.92-124.07,349.36,8.44,196.64,45.14,341,45.14,341h535.66s36.7-144.39,45.14-341C4038.7,723.7,3979.23,674.15,3903.35,636.78Z"/><polygon class="cls-4" points="3640.59 445.71 3640.59 615.19 3714.45 686.59 3788.32 615.19 3788.32 445.71 3640.59 445.71"/><path class="cls-6" d="M3634.59,445.71V563.08c0,16.92-.47,33.92,0,50.83.13,4.78,3.32,7,6.52,10.13l22.61,21.86,46.49,44.93a6.1,6.1,0,0,0,8.48,0l39.44-38.11,25.33-24.49c3.48-3.37,10.34-7.88,10.86-13.11.42-4.26,0-8.78,0-13V445.71a6.09,6.09,0,0,0-6-6H3640.59c-7.73,0-7.74,12,0,12h147.73l-6-6V615.19l1.75-4.24-64.76,62.6-9.1,8.8h8.48l-64.76-62.61-9.1-8.79,1.76,4.24V445.71C3646.59,438,3634.59,438,3634.59,445.71Z"/><path class="cls-4" d="M3593.25,647.7l102.42,99,14.54,14.06a6.11,6.11,0,0,0,8.48,0l102.42-99,14.54-14c5.56-5.38-2.93-13.86-8.48-8.49l-102.42,99-14.54,14.06h8.48l-102.41-99-14.54-14.06c-5.56-5.37-14,3.11-8.49,8.49Z"/><path class="cls-4" d="M3852.34,382.13a54.74,54.74,0,0,0-15.3,2l-25,90.73c9.79,10.21,21.47,18.63,36.74,18.85,30.26.43,57.26-32.71,57.7-63S3882.59,382.56,3852.34,382.13Z"/><path class="cls-6" d="M3852.34,376.13a67.88,67.88,0,0,0-16.9,2.17,6,6,0,0,0-4.19,4.19l-24.1,87.34a32.68,32.68,0,0,0-.94,3.39c-1.11,6.85,9.16,13.26,14.05,16.75C3833,499,3849,502.12,3864,497.38c27.48-8.67,48-38.15,48.41-66.68.22-15.07-5.74-29.85-17.31-39.71-11.93-10.16-27.33-14.5-42.79-14.86-7.73-.18-7.73,11.82,0,12,23.61.55,47.14,13.93,48.07,39.81.88,24.88-17.52,52.36-42.12,58.6-16.63,4.22-30.82-4.41-42.05-16l1.54,5.83,21.89-79.31,3.15-11.42-4.19,4.19a54.65,54.65,0,0,1,13.71-1.74C3860.06,388.12,3860.07,376.12,3852.34,376.13Z"/><path class="cls-4" d="M3876.18,419.16s-15.42-2-24.81,9.79-3,32.24,8.24,30.43,15.86-10.77,12.95-18.72-12.75-7.46-24.29-1.28"/><path class="cls-6" d="M3876.18,413.16c-20.3-2.41-38.6,15-34.72,35.45,2,10.34,10.16,18.89,21.23,16.27s19.17-13.21,16-24.73c-4.39-16-22.54-11.58-33.44-5.95-6.87,3.54-.81,13.9,6.05,10.36,4.27-2.2,19.76-8.07,15.69,3.19-1.09,3-5.07,5.82-8.33,5.73-2.58-.06-3.92-2.55-4.76-4.75-5.53-14.37,9.06-25.14,22.28-23.57,7.65.91,7.59-11.09,0-12Z"/><path class="cls-4" d="M3588.57,382.13a54.84,54.84,0,0,1,15.3,2l25,90.73c-9.79,10.21-21.47,18.63-36.74,18.85-30.25.43-57.26-32.71-57.69-63S3558.31,382.56,3588.57,382.13Z"/><path class="cls-6" d="M3588.57,388.13a54.57,54.57,0,0,1,13.7,1.74l-4.19-4.19L3620,465l3.15,11.41,1.54-5.83c-9.94,10.23-22.19,18.57-37.14,16.89-12.79-1.44-24-9.49-32.07-19.09-15.29-18.09-22.38-48.09-3.81-66.51,9.72-9.64,23.56-13.43,36.93-13.74,7.71-.18,7.74-12.18,0-12-26.82.62-54.29,15.16-59.19,43.64s12.14,59.86,37.44,73.36c13.5,7.21,29.2,8.7,43.43,2.64a66.55,66.55,0,0,0,19.68-13.5c3.14-3,5.55-5.53,4.5-10-3.53-14.91-8.18-29.65-12.26-44.42l-12.52-45.37a6,6,0,0,0-4.19-4.19,67.8,67.8,0,0,0-16.89-2.17C3580.85,376.12,3580.83,388.12,3588.57,388.13Z"/><path class="cls-4" d="M3564.72,419.16s15.42-2,24.81,9.79,3,32.24-8.23,30.43-15.87-10.77-13-18.72,12.74-7.46,24.28-1.28"/><path class="cls-6" d="M3564.72,425.16c13.27-1.58,27.75,9.18,22.28,23.57-.73,1.93-2,4.49-4.29,4.75-3.37.39-7.68-2.63-8.8-5.73-4.08-11.27,11.48-5.37,15.69-3.19,6.85,3.53,12.93-6.82,6.06-10.36-9.54-4.93-25-9.92-31.79,1.93-5.77,10.06-.46,22.39,9.57,27.05,10.87,5.06,20.94.36,24.95-10.73a28.78,28.78,0,0,0-7.59-30.88,34.67,34.67,0,0,0-26.08-8.41c-7.57.9-7.66,12.92,0,12Z"/><path class="cls-4" d="M3713.27,225.94c-125.31.67-146.84,88.88-132.88,188.45,7.88,56.22,24.37,130,81.37,154.41,83.61,35.8,156.41-11.57,183.65-98.41S3893,225,3713.27,225.94Z"/><path class="cls-6" d="M3713.27,219.94c-37.41.31-77,8.3-104.77,35.16-23.34,22.59-33.53,54.39-36.67,86-3.69,37.07,1.39,75.22,9.06,111.49,8.22,38.89,22.54,81.34,54.59,107.17,31.11,25.08,77.5,33.39,115.69,22.28,38.53-11.21,68.3-41.18,86.27-76.26,14-27.39,22-58.43,27.08-88.68,4.72-27.91,6.52-56.46,2.24-84.54-4.08-26.76-14.69-52.8-33.77-72.4-23.14-23.75-55.4-34.66-87.67-38.51a264,264,0,0,0-32.05-1.71c-7.72,0-7.74,12,0,12,33.66-.1,69.11,5,97.28,24.76,20.8,14.59,34.28,36.72,40.86,61,13.19,48.66,3.32,102.46-11.33,149.66-11.3,36.4-32.42,71.46-65.74,91.52s-72.87,19.85-108.21,5.32c-36.58-15-55.92-51.4-66.77-87.47a396.85,396.85,0,0,1-16.66-108.27c-.34-30.47,3.92-62.61,20.89-88.65,17.72-27.18,47.58-40.85,78.84-45.65a216.34,216.34,0,0,1,30.84-2.2C3721,231.88,3721,219.88,3713.27,219.94Z"/><path class="cls-4" d="M3686.86,479.45s-.83,31.4,28.8,31.4c31.74,0,29.69-31.4,29.69-31.4"/><path class="cls-6" d="M3680.86,479.45c-.27,12.82,5.8,27.05,17.4,33.31,18.54,10,43.31,2.15,50.64-17.77a39.57,39.57,0,0,0,2.45-15.54c-.47-7.68-12.47-7.73-12,0a25.55,25.55,0,0,1-2,12.35c-3.34,8.57-11.22,12.75-20.28,13-9.45.29-17.68-3.43-21.57-12.36a27.93,27.93,0,0,1-2.62-13c.17-7.73-11.83-7.73-12,0Z"/><circle class="cls-6" cx="3659.68" cy="400.52" r="8.7"/><circle class="cls-6" cx="3774.81" cy="400.52" r="8.7"/><line class="cls-4" x1="3716.12" y1="418.03" x2="3716.12" y2="456.8"/><path class="cls-6" d="M3710.12,418V456.8c0,7.72,12,7.74,12,0V418c0-7.72-12-7.74-12,0Z"/><path class="cls-6" d="M3564.72,381.13s180.65,1,210.09-88.71c0,0,18.54,79.07,93.81,86.71,0,0,76.36-244.8-152.5-244.8S3564.72,381.13,3564.72,381.13Z"/><path class="cls-6" d="M3722.22,262s-76.65-14.14-92.8-127.69c-12.38-87,49.64-138.88,122.06-134S3865.41,45.7,3862.8,115.39C3860.65,172.56,3837.73,257.91,3722.22,262Z"/><path class="cls-4" d="M3688.46,141.59c13.86-2.88,28.5-3.76,43.2-3.61,27.11.29,55.39,5.41,77.31,22.33,2.59,2,6.7.37,8.21-2.15,1.84-3.08.4-6.24-2.15-8.21-32.71-25.23-79.15-27-118.53-21.73-3.75.51-7.52,1-11.23,1.8-7.56,1.57-4.36,13.14,3.19,11.57Z"/><path class="cls-2" d="M3941.61,658.76s167.82,61.36,202.53,225.65l-114,56.82S3925.33,782.52,3941.61,658.76Z"/><path class="cls-4" d="M3967.38,710.91a355,355,0,0,1,18.77,35.78,418.69,418.69,0,0,1,29.75,85.91,275.89,275.89,0,0,1,6.9,59.5c0,7.73,12,7.74,12,0-.09-60.81-21.26-121.39-49.84-174.5-2.31-4.3-4.66-8.59-7.22-12.75-4-6.56-14.42-.54-10.36,6.06Z"/><path class="cls-2" d="M3487.29,658.76s-167.82,61.36-202.53,225.65l114,56.82S3503.57,782.52,3487.29,658.76Z"/><path class="cls-4" d="M3451.16,704.85a358.43,358.43,0,0,0-19.51,37.38c-13.16,28.43-23.92,58.15-30.58,88.79a290.72,290.72,0,0,0-7,61.08c0,7.73,12,7.74,12,0,.09-58.93,20.77-117.7,48.56-169.11,2.2-4.07,4.43-8.14,6.86-12.08,4.06-6.6-6.31-12.63-10.36-6.06Z"/><path class="cls-4" d="M2862.23,1015.83c48.66-48.73,96.08,19.62,108.23,38.51.88.87,1.79,1.75,2.71,2.64.2-9.48,2.49-54.66,28.4-36.77,28.88,19.94,12.33,71.76,12.33,71.76l12,6.24c35.9,21.59,79.49,34.29,120.64,10.7,54.74-31.39,140-218.56,140-218.56l113.55,35.29s-59.87,283.75-233.87,319.86c-82.08,17-187.59-20.53-254.23-89.54C2871.88,1115.4,2818.82,1059.31,2862.23,1015.83Z"/><path class="cls-6" d="M2866.48,1020.07c9.33-9.17,20.73-16.08,34.2-15.39,10.69.55,20.67,5.9,29.08,12.19,8.62,6.45,16.12,14.49,22.88,22.84,5.6,6.92,9.91,15.34,16.29,21.51a6.07,6.07,0,0,0,10.24-4.24,99.06,99.06,0,0,1,2.29-20.09c.9-3.87,2-7.86,4.2-11.23,1.6-2.45,3.17-3.67,5.3-3.59,9,.35,16.48,11.73,19,19.62,3.22,10,3.16,21,1.83,31.33a100.71,100.71,0,0,1-3.69,17.35,6.05,6.05,0,0,0,2.75,6.78c13.45,7,26.43,14.8,40.51,20.48,20.91,8.43,43.69,12.25,66,8.31a92.82,92.82,0,0,0,44.09-20.51c8.75-7.47,16.36-16.28,23.49-25.29,35.44-44.82,62.49-96.62,87.89-147.6,6.45-13,12.82-26,18.83-39.16l-6.78,2.76,99.4,30.89,14.15,4.4-4.19-7.38c-4.72,22.34-11.55,44.37-18.87,66-15.76,46.47-35.87,91.85-62.49,133.17-28.6,44.37-66.6,86.11-116.29,106.69-65.44,27.09-142,11.26-202.76-20.6a311.45,311.45,0,0,1-49.48-32c-15.53-12.36-29.44-26.48-43.08-40.87s-26.73-29.16-36.82-46.11c-8.46-14.22-15.53-31.43-11.24-48.18,2.19-8.56,7.08-15.78,13.2-22,5.4-5.53-3.08-14-8.49-8.49-12.95,13.26-19.85,30.19-17.4,48.79,2.48,18.86,12.52,36,23.67,51,12.41,16.75,26.8,31.88,41.41,46.69a338.78,338.78,0,0,0,46.2,39.62c61.77,43.47,144.78,70.18,220.11,52.66,55.55-12.92,100.18-51.47,133.83-96,32.22-42.66,55.76-91.62,74.27-141.6,10.12-27.33,19.59-55.59,25.51-84.2l.3-1.32a6.16,6.16,0,0,0-4.2-7.39L3302.29,889l-14.15-4.4c-2.31-.71-5.71.43-6.77,2.76-15.34,33.66-32.29,66.69-50.28,99-14.15,25.4-29.06,50.51-46.1,74.09-13.31,18.41-28.12,37.51-48.87,47.18-22.86,10.67-48.54,9.69-72.09,1.94-16.69-5.49-31.59-14.69-47.1-22.73l2.76,6.77c5.6-17.67,7.66-39.51,1.15-57.11-4.34-11.71-14.12-24-27.18-26.09-11.33-1.81-18.37,7.19-21.86,16.77-3.42,9.4-4.4,19.9-4.63,29.85l10.25-4.24c-5.05-4.89-8.6-11.62-12.91-17.22a163.29,163.29,0,0,0-18.81-20.87c-14.47-13.28-33.14-24.27-53.49-21.55-13.36,1.78-24.76,9.19-34.22,18.48C2852.48,1017,2861,1025.49,2866.48,1020.07Z"/><path class="cls-6" d="M2910.67,1088.31a285,285,0,0,1-20.75-22.79c-10.37-12.55-21.64-27-25.41-43.18-1.76-7.51-13.33-4.33-11.57,3.19,4.07,17.47,15.87,32.94,26.95,46.6a286.26,286.26,0,0,0,22.3,24.67c5.53,5.39,14-3.08,8.48-8.49Z"/><path class="cls-6" d="M2936.28,1066.1a285.28,285.28,0,0,1-20.76-22.79c-10.36-12.55-21.63-27-25.4-43.17-1.76-7.52-13.33-4.34-11.58,3.19,4.08,17.46,15.88,32.93,27,46.59a287.79,287.79,0,0,0,22.29,24.67c5.53,5.39,14-3.08,8.49-8.49Z"/><path class="cls-4" d="M4566.66,1014.11c-48.65-48.73-96.07,19.62-108.22,38.51-.88.87-1.79,1.75-2.71,2.64-.2-9.47-2.49-54.66-28.4-36.77-28.88,19.94-12.33,71.76-12.33,71.76l-12,6.24c-35.9,21.59-79.49,34.29-120.64,10.7-54.74-31.38-140-218.56-140-218.56L4028.8,923.92s59.87,283.75,233.87,319.86c82.08,17,187.59-20.53,254.23-89.54C4557,1113.68,4610.08,1057.59,4566.66,1014.11Z"/><path class="cls-6" d="M4570.91,1009.87c-16-15.71-37.29-23.75-59-15.47-18.29,7-33,21.19-45,36.27-5.2,6.52-9.41,14.59-15.36,20.35l10.25,4.24c-.34-14.9-2.36-45.44-22.39-46.85-12.59-.88-24.22,10.9-29.2,21.39-5.54,11.65-6.59,24.93-5.46,37.64a114.56,114.56,0,0,0,4.53,24.41l2.76-6.78c-13,6.74-25.54,14.54-39.2,19.89-20.29,7.94-42.5,11.68-64,6.47-26.47-6.43-43.48-24.35-59.44-45.36-33.41-44-59.47-93.89-84-143.23-6.12-12.33-12.17-24.71-17.88-37.24-1.05-2.31-4.44-3.48-6.77-2.75l-99.41,30.89-14.14,4.4a6.15,6.15,0,0,0-4.2,7.38c5,23.63,12.31,46.94,20.17,69.75,16.92,49,38.54,97.1,67.64,140.18,31.22,46.21,72.53,88,126,107.26,70.29,25.27,151.39,5.57,214.34-30.29,35.9-20.46,65.9-48,93.48-78.5,23.05-25.49,54.28-63.23,41.48-100.36a63.8,63.8,0,0,0-15.19-23.69c-5.41-5.54-13.89,3-8.49,8.48,12.53,12.82,17.18,28.88,12.54,46.28-4.8,18-16.24,34-27.94,48.24-25.14,30.51-54.14,59.08-87.5,80.46-59.71,38.26-138.48,61.64-208.6,41.36-51.85-15-93-53.56-123.72-96.62-29.48-41.33-51.49-87.82-68.72-135.45q-9.41-26-16.89-52.67c-2.43-8.7-4-17.85-6.74-26.42a10.29,10.29,0,0,1-.26-1.2l-4.19,7.38,99.4-30.89,14.15-4.4-6.78-2.76c16,35.2,33.81,69.73,52.77,103.43,14.58,25.94,30,51.61,47.87,75.43,15.7,20.93,32.64,40.18,57.82,49.43,23.9,8.78,50.21,7,74-1.11,17.08-5.83,32.43-15.14,48.38-23.41a6,6,0,0,0,2.75-6.77c-4.4-13.91-6.33-30.22-3-44.49,2.22-9.56,8-20.08,17.91-23.36,3-1,4.48-.52,6.32,1.49,2.2,2.4,3.6,6.17,4.57,9.53a91.25,91.25,0,0,1,3.16,23.43,6.07,6.07,0,0,0,10.24,4.24c6.37-6.17,10.69-14.59,16.29-21.51,6.76-8.35,14.26-16.39,22.88-22.84,8.41-6.29,18.39-11.64,29.08-12.19,13.47-.68,24.87,6.22,34.2,15.39C4567.93,1023.77,4576.43,1015.29,4570.91,1009.87Z"/><path class="cls-6" d="M4526.71,1095.08a286.26,286.26,0,0,0,22.3-24.67c11.08-13.67,22.88-29.13,26.95-46.6,1.76-7.51-9.81-10.71-11.57-3.19-3.77,16.17-15.05,30.63-25.41,43.18a281.58,281.58,0,0,1-20.75,22.79c-5.54,5.4,3,13.89,8.48,8.49Z"/><path class="cls-6" d="M4501.11,1072.87a287.79,287.79,0,0,0,22.29-24.67c11.08-13.66,22.88-29.13,27-46.59,1.75-7.52-9.82-10.72-11.58-3.19-3.77,16.16-15,30.62-25.4,43.18a287,287,0,0,1-20.76,22.79c-5.54,5.4,2.95,13.88,8.49,8.48Z"/><rect class="cls-6" x="4485.22" y="799.16" width="63.56" height="204.25" rx="31.78"/><path class="cls-7" d="M4654.34,867.12Q4598.67,710.46,4543,553.81c-9.08-25.55-43-25.59-52.05,0q-55.66,156.65-111.31,313.31c-6,16.76,9.53,34.16,26,34.16h222.62C4644.81,901.28,4660.29,883.88,4654.34,867.12Z"/><path class="cls-6" d="M4707.3,835.16q-39.49-111.17-79-222.32l-19.67-55.35-9.66-27.2c-2.5-7-4.6-14.06-9.36-19.92-14.87-18.27-44.29-14.76-54.95,6.08-4,7.86-6.36,16.8-9.31,25.1q-4.83,13.59-9.67,27.2-9.82,27.68-19.66,55.35l-39.66,111.62-19.66,55.35-9.66,27.2c-2.88,8.09-7.3,16.74-7.51,25.46-.34,14.17,10.12,26.66,23,31.37,7.64,2.79,16.25,1.82,24.22,1.82h147.09c19.88,0,39.75.08,59.63,0,14.38-.06,27.53-8,33.06-21.55a29.4,29.4,0,0,0,.74-20.21c-2.35-7.33-13.94-4.2-11.57,3.19,3.85,12.06-5.44,24.68-17.75,26.43-8.47,1.2-17.79.14-26.34.14H4462.81c-7.49,0-14.62.69-21.17-3.54-4.92-3.19-8.94-8.48-9.88-14.36-1.17-7.32,3.15-15.1,5.53-21.8l9-25.33,18.33-51.6,72.32-203.55c4-11.24,6.42-27,18.51-32.6a21.08,21.08,0,0,1,23.12,3.86c4.46,4.29,6.16,9.91,8.18,15.6l9.33,26.27,18,50.65q36.32,102.26,72.65,204.5l9,25.33C4698.29,845.57,4709.89,842.46,4707.3,835.16Z"/><path class="cls-4" d="M3539.68,1513a64.51,64.51,0,0,0,14.9-41.25h0a65.07,65.07,0,0,0-64.87-64.88h-141.8A65.07,65.07,0,0,0,3283,1471.7h0a64.46,64.46,0,0,0,14.33,40.52h-23.69c-63.69,0-115.79,52.11-115.79,115.79h0c0,63.69,52.1,115.79,115.79,115.79h253.08c63.69,0,115.79-52.1,115.79-115.79h0C3642.55,1568.69,3597.34,1519.43,3539.68,1513Z"/><path class="cls-4" d="M3464.69,1513a64.52,64.52,0,0,0,14.91-41.25h0a65.07,65.07,0,0,0-64.87-64.88h-141.8a65.07,65.07,0,0,0-64.87,64.88h0a64.46,64.46,0,0,0,14.33,40.52H3198.7c-63.69,0-115.79,52.11-115.79,115.79h0c0,63.69,52.1,115.79,115.79,115.79h253.08c63.68,0,115.79-52.1,115.79-115.79h0C3567.57,1568.69,3522.36,1519.43,3464.69,1513Z"/><path class="cls-6" d="M3468.94,1517.2c14.13-17.49,19.95-40.07,14.68-62.11a71.69,71.69,0,0,0-33.57-44.78c-19.09-11-40.06-9.49-61.14-9.49H3279.19c-9.51,0-18.9.43-28.05,3.45a72.23,72.23,0,0,0-44.74,43.12c-8.86,23.52-3.56,49.58,11.74,69.08l4.25-10.25c-13.48,0-27.11-.63-40.49,1.22a122.09,122.09,0,0,0-103.78,137.37c5.85,42.36,34.66,79.17,74,95.64a122.81,122.81,0,0,0,47.3,9.35c5.4,0,10.79,0,16.19,0h230.1a164.69,164.69,0,0,0,24.2-1.4,121.34,121.34,0,0,0,57.08-24.83,122.59,122.59,0,0,0,45.12-113.93c-6.37-42.9-36.57-79.49-76.73-95.26a123.45,123.45,0,0,0-30.71-7.43c-7.65-.9-7.58,11.1,0,12,40.47,4.8,76.28,33.07,90.2,71.4,13.82,38,5.4,81.5-22,111.41-21.66,23.69-51.7,36-83.6,36H3232.42c-12.84,0-25.78.44-38.62-.1-40.38-1.7-77-26.65-94.39-62.93s-12.53-80.49,11.56-112.63a110.62,110.62,0,0,1,46.82-36c15.85-6.35,32-7.92,48.87-7.92h15.73c5.67,0,7.29-6.35,4.24-10.24-24.33-31-10.81-78.54,26.44-91.7,15.42-5.45,33.63-3.46,49.74-3.46h103c6.08,0,12.31-.28,18.33.73a60,60,0,0,1,44.05,33.56c9.46,20.05,6.1,44.45-7.76,61.6C3455.64,1514.66,3464.08,1523.21,3468.94,1517.2Z"/><rect class="cls-4" x="3410.67" y="1651.45" width="299.63" height="143.17" rx="71.58"/><path class="cls-6" d="M3638.71,1645.45H3517.32c-15.62,0-32.19-1.39-47.69,1.07-36.87,5.87-65,39.29-65,76.52,0,36.72,27.3,69.86,63.61,76.29,15.6,2.76,32.45,1.29,48.19,1.29,40.74,0,81.5.35,122.24,0,36.69-.31,69.9-27.09,76.3-63.61a77.69,77.69,0,0,0-76.3-91.56c-7.72-.07-7.73,11.93,0,12,35.06.35,64.88,28.82,65.57,64.19.66,33.84-26,64.11-60,66.77-13.71,1.06-27.76.21-41.49.21h-73c-15.62,0-31.24.05-46.85,0-30.48-.1-57.53-21-64.57-50.81-8-33.75,13.23-68.79,46.52-78,14.23-3.94,30.45-2.36,45.08-2.36h128.75C3646.44,1657.45,3646.45,1645.45,3638.71,1645.45Z"/></g></g></svg>