<?xml version="1.0" encoding="utf-8"?>
<!-- Generator: Adobe Illustrator 24.1.2, SVG Export Plug-In . SVG Version: 6.00 Build 0)  -->
<svg version="1.1" id="Layer_1" xmlns="http://www.w3.org/2000/svg" xmlns:xlink="http://www.w3.org/1999/xlink" x="0px" y="0px"
	 viewBox="0 0 5152.1 3283" style="enable-background:new 0 0 5152.1 3283;" xml:space="preserve">
<style type="text/css">
	.st0{fill:#E8F8FF;}
	.st1{fill:#FEBBB5;}
	.st2{fill:#FFEDB8;}
	.st3{fill:#FFFFFF;}
	.st4{fill:#B6CBD4;}
	.st5{fill:#52483F;}
	.st6{fill:none;}
	.st7{fill:#B1B479;}
</style>
<g id="Layer_2_1_">
	<g id="圖層_2">
		<path class="st0" d="M1144.5,2366.3c-154.5,0-304.4-30.3-445.5-90c-274.4-116.3-492.8-334.7-609-609c-59.7-141.1-90-291-90-445.5
			s30.3-304.4,90-445.5c116.3-274.4,334.7-492.8,609-609c141.1-59.7,291-89.9,445.5-89.9s304.4,30.3,445.5,89.9
			c274.4,116.3,492.8,334.7,609,609c59.7,141.1,89.9,291,89.9,445.5s-30.3,304.4-90,445.5c-116.3,274.4-334.7,492.8-609,609
			C1448.9,2336,1299,2366.3,1144.5,2366.3z M1144.5,126.3c-147.9,0-291.4,29-426.4,86.1c-262.6,111.3-471.7,320.4-583,583
			C77.9,930.4,49,1073.9,49,1221.8s29,291.4,86.1,426.4c111.3,262.7,320.4,471.7,583.1,583c135.1,57.1,278.5,86.1,426.4,86.1
			s291.4-29,426.4-86.1c262.7-111.3,471.7-320.4,583-583c57.1-135,86.1-278.5,86.1-426.4s-29-291.4-86.1-426.4
			c-111.3-262.6-320.4-471.7-583-583C1435.9,155.3,1292.4,126.3,1144.5,126.3L1144.5,126.3z"/>
		
			<ellipse transform="matrix(0.1602 -0.9871 0.9871 0.1602 1179.1451 1894.0725)" class="st1" cx="1702.7" cy="254.1" rx="47.6" ry="47.6"/>
		<circle class="st2" cx="1863.5" cy="2136.4" r="47.6"/>
		<path class="st3" d="M1906.2,2136.4c-0.2,17.8-11.3,34.3-28.3,40.2c-17.2,6-36.4,0.6-47.9-13.5c-11.2-13.9-12.3-34-2.9-49.2
			c9.4-15.2,27.7-23.1,45.1-19.4C1891.9,2098.9,1906.1,2116.3,1906.2,2136.4c0.1,6.3,9.9,6.3,9.8,0c-0.2-22-13.9-41.6-34.4-49.3
			c-20.4-7.7-44.6-1.2-58.4,15.7c-14,17-16.2,41.6-4.7,60.6c11.5,18.9,33.6,28.7,55.3,24.5c24.5-4.6,42-26.9,42.3-51.5
			C1916.1,2130.1,1906.3,2130.1,1906.2,2136.4z"/>
		<path class="st4" d="M1647.3,1381.5c0,0,165.9,422.1,100.5,1076.3h-162c0,0-4.4-498.7-128.8-797c0,0-5.7,320.3-232.2,797h-150.8
			c0,0,95.6-273.2,68.3-641.3s142-435,142-435L1647.3,1381.5z"/>
		<path class="st3" d="M1750.8,2453.4c0,0,160.3-22.4,160.3,78.9h-294.7l-4.1-82L1750.8,2453.4z"/>
		<path class="st5" d="M1752.1,2458.1C1751,2458.3,1750.8,2458.3,1752.1,2458.1c1-0.1,2-0.3,3.1-0.4c3.8-0.4,7.7-0.7,11.5-1
			c12.4-0.8,24.8-0.9,37.2-0.1c28.7,1.6,61.7,7.3,83.3,28.1c13.1,12.6,18.9,29.6,19,47.5l4.9-4.9h-282.6c-3.7,0-7.9-0.6-11.5,0
			c-0.2,0-0.3,0-0.5,0l4.9,4.9l-3.6-71.7l-0.5-10.3l-4.9,4.9l121.4,2.7l17.1,0.4c6.3,0.1,6.3-9.7,0-9.8l-121.4-2.7l-17.1-0.4
			c-2.7,0-4.9,2.2-4.9,4.9l3.6,71.7l0.5,10.3c0,2.7,2.2,4.8,4.9,4.9h258.3c11.9,0,24,0.6,35.9,0c0.2,0,0.3,0,0.5,0
			c2.7,0,4.9-2.2,4.9-4.9c-0.1-17.8-5.2-35.1-16.7-48.9c-10.3-12.4-24.7-20.6-39.7-26.1c-28-10.3-59.3-12-88.9-10.5
			c-7.1,0.4-14.2,0.9-21.3,1.9C1743.2,2449.6,1745.9,2459,1752.1,2458.1z"/>
		<path class="st5" d="M1788.6,2487l24-32.8c3.7-5.1-4.8-10-8.5-4.9l-24,32.8C1776.4,2487.1,1784.9,2492,1788.6,2487z"/>
		<path class="st5" d="M1760.4,2487l24-32.8c3.7-5.1-4.8-10-8.5-4.9l-24,32.8C1748.2,2487.1,1756.7,2492,1760.4,2487z"/>
		<path class="st4" d="M1287.7,818.8c42.9-21.1,96.3-33.7,154.1-33.7s111.3,12.5,154.1,33.7c61.9,30.5,102,78.9,102,133.4v332.5
			c0,63.5-58.8,115.4-130.7,115.4h-250.7c-71.9,0-130.7-51.9-130.7-115.4V952.2C1185.8,897.7,1225.8,849.3,1287.7,818.8z"/>
		<polygon class="st3" points="1502.1,662.9 1502.1,801.2 1441.9,859.5 1381.6,801.2 1381.6,662.9 		"/>
		<path class="st5" d="M1497.2,662.9v138.3l1.4-3.5l-52.9,51.1l-7.4,7.2h6.9l-52.8-51.1l-7.4-7.2l1.4,3.5V662.9l-4.9,4.9h120.6
			c6.3,0,6.3-9.8,0-9.8h-120.6c-2.7,0-4.9,2.2-4.9,4.9v95.8c0,13.8-0.4,27.7,0,41.5c0.1,3.9,2.7,5.7,5.3,8.3l18.5,17.8l37.9,36.7
			c1.9,1.9,5,1.9,6.9,0l32.2-31.1l20.7-20c2.8-2.8,8.4-6.4,8.9-10.7c0.3-3.5,0-7.2,0-10.6V662.9
			C1507,656.6,1497.2,656.6,1497.2,662.9z"/>
		<path class="st3" d="M1533.8,820.8l-83.6,80.8l-11.9,11.5h6.9l-83.6-80.8l-11.9-11.4c-4.5-4.4-11.4,2.5-6.9,6.9l83.6,80.8
			l11.9,11.5c1.9,1.9,5,1.9,6.9,0l83.6-80.8l11.9-11.5C1545.3,823.4,1538.4,816.5,1533.8,820.8L1533.8,820.8z"/>
		<path class="st3" d="M1305.6,810.8c0,0,69.3,360.6,61.1,625.3h-179.8C1186.9,1436.1,892.9,863.9,1305.6,810.8z"/>
		<path class="st3" d="M1574.6,809.3c0,0-4.8,447.6-28.8,626.7H1721C1721,1436.1,1895.7,877.2,1574.6,809.3z"/>
		<path class="st5" d="M1306.5,936.5l-48.1,52.6l-6.8,7.4c-1.2,1.2-1.7,3.1-1.3,4.8l24.6,67.3l39,106.8l9,24.6
			c2.1,5.9,11.6,3.3,9.4-2.6l-24.6-67.3l-39-106.8l-9-24.6l-1.3,4.8l48.1-52.6l6.8-7.4C1317.6,938.8,1310.7,931.9,1306.5,936.5
			L1306.5,936.5z"/>
		<path class="st5" d="M1239.5,863.9v81.6c0,2,1.5,4.3,3.6,4.7l50.9,10.4c6.2,1.3,8.8-8.2,2.6-9.4l-50.9-10.4l3.6,4.7v-81.6
			C1249.3,857.6,1239.5,857.6,1239.5,863.9L1239.5,863.9z"/>
		
			<ellipse transform="matrix(0.2292 -0.9734 0.9734 0.2292 634.5276 1904.4647)" class="st5" cx="1519.8" cy="551.6" rx="86.3" ry="118.9"/>
		
			<ellipse transform="matrix(0.7071 -0.7071 0.7071 0.7071 2.9964 1120.8566)" class="st5" cx="1354.5" cy="556.8" rx="118.9" ry="86.3"/>
		<path class="st3" d="M1313.9,628.1c4.2,0,8.4,0.6,12.5,1.8c-7.6-63.1,10.5-129.7,114.9-134.7c102.1-4.8,123.5,66.1,116.4,147.9
			c-4,46.2-15,105.5-59.7,129.3c-54.1,28.9-125-1.4-152.3-68.2c-8.1,8.2-17.7,15-30.2,15c-24.7,0-46.3-27.4-46.3-52.1
			C1269.2,642.4,1289.2,628.1,1313.9,628.1z"/>
		<path class="st5" d="M1313.9,633c3.8,0.1,7.5,0.6,11.2,1.6c2.8,0.8,6.6-1.5,6.2-4.7c-4.7-39.1,0.8-83.4,35.3-107.9
			c22-15.6,49.6-20.9,76-22c24.6-1,50.6,2.1,71.5,16.1c37.1,24.8,41.7,75.1,39.5,115.8c-1.5,26.7-5.1,53.9-13.9,79.2
			c-8.8,25.1-24,47.8-48.7,59.3c-48.9,22.7-104.6-5.5-130.9-48.7c-3.7-6-6.9-12.3-9.6-18.8c-1.4-3.3-5.3-5-8.2-2.2
			c-8.2,8.2-18.3,14.8-30.4,13.3c-10.4-1.3-19.5-8-26-16c-12.2-15-17.6-39.5-2.2-54.3C1291.7,636,1303,633.1,1313.9,633
			c6.3-0.1,6.4-9.9,0-9.8c-12.3,0.1-24.6,3.3-34.3,11.1c-9.4,7.5-14.6,18.6-15.2,30.6c-1.3,24.9,17.5,52.7,42.4,58.2
			c16.5,3.7,31-3.9,42.4-15.4l-8.2-2.2c11.3,27.4,30.3,51.3,55.9,66.5c23,13.7,50.5,19.5,76.9,14.2c28-5.6,50.8-23.6,64.6-48.3
			c14.1-25.3,19.8-54.5,23-83c5.1-45.2,5.6-100.9-28.6-135.9c-17.3-17.7-41.3-25.9-65.5-28.2c-29.8-2.9-62.5,0.8-89.8,13.6
			c-20.5,9.5-37.3,25.7-46.7,46.3c-9,19.7-11.5,41.5-10.6,63c0.2,5.4,0.7,10.8,1.4,16.2l6.2-4.7c-4.5-1.2-9.1-1.9-13.8-2
			C1307.6,623.1,1307.6,632.9,1313.9,633z"/>
		<path class="st3" d="M1477.4,718.8c0,0,0.7,25.6-23.5,25.6c-25.9,0-24.2-25.6-24.2-25.6"/>
		<path class="st5" d="M1472.5,718.8c0.2,3.7-0.6,7.3-2.1,10.6c-3.2,7.3-9.9,10.3-17.6,10.1c-7.3-0.2-13.8-3.6-16.5-10.6
			c-1.4-3.2-1.9-6.6-1.6-10.1c0.4-6.3-9.4-6.3-9.8,0c-0.6,10.2,4.2,21.3,13.1,26.6c7.7,4.6,18.5,5.3,26.8,2.1
			c7.2-2.7,12.3-8.4,15.1-15.5c1.7-4.2,2.5-8.7,2.4-13.2C1482.1,712.5,1472.3,712.5,1472.5,718.8L1472.5,718.8z"/>
		<circle class="st5" cx="1499.6" cy="663.4" r="7.1"/>
		<circle class="st5" cx="1405.6" cy="663.4" r="7.1"/>
		<line class="st6" x1="1453.5" y1="675.2" x2="1453.5" y2="706.8"/>
		<path class="st5" d="M1448.6,675.2v31.6c0,6.3,9.8,6.3,9.8,0v-31.6C1458.4,668.9,1448.6,668.9,1448.6,675.2z"/>
		<path class="st3" d="M1295.6,664.5c0,0,10-7.8,21.5-3.4s15.5,21.4,6.8,24.8s-15.6-1-16.9-7.8c-1.3-6.8,5.9-10.5,16.5-11"/>
		<path class="st5" d="M1298.1,668.7c4.2-3.2,9.9-4.9,15.1-3.7c5.7,1.3,10.4,6.5,10.5,12.5c0.1,5.5-7.5,6.2-10.6,2.5
			c-5.3-6.4,6.7-7.8,10.5-8c6.3-0.4,6.3-10.1,0-9.8c-8.3,0.5-20.1,2.8-21.4,12.8c-1.2,9.4,7.4,17.2,16.5,16.9
			c9.1-0.3,15.5-6.4,14.7-15.6c-0.8-8.6-6.2-16.1-14.1-19.6c-8.3-3.4-18.9-1.9-26.1,3.5C1288.2,664,1293,672.5,1298.1,668.7
			L1298.1,668.7z"/>
		<path class="st5" d="M1568.3,630.8c-31.9,2.4-64.5-66-64.5-66c-29.4,71.7-94.7,36.8-107.7-2.8c0,0-14.3,60.9-75.7,67.1
			c0,0-96-205.4,109.3-221.1C1615.9,393.9,1600.2,628.4,1568.3,630.8z"/>
		<path class="st4" d="M1461,654.4c0.2,16.6,10.6,31.5,26.2,37.2c15.3,5.6,33.4,0.6,43.7-12c10.4-12.8,12.1-31.2,3.5-45.4
			c-8.7-14.3-25.5-21.7-41.9-18.4C1474.2,619.3,1461.3,636,1461,654.4c-0.1,6.3,9.7,6.3,9.8,0c0.2-12.3,7.8-23.8,19.6-27.9
			c15.4-5.6,32.5,2.4,38.1,17.8c5.6,15.4-2.4,32.5-17.8,38.1c-15.4,5.6-32.5-2.4-38.1-17.8c-1.2-3.3-1.8-6.7-1.8-10.2
			C1470.7,648.1,1460.9,648.1,1461,654.4z"/>
		<path class="st4" d="M1367.1,654.4c0.2,16.6,10.6,31.5,26.2,37.2c15.3,5.6,33.4,0.6,43.7-12c10.4-12.8,12.1-31.2,3.5-45.4
			c-8.7-14.3-25.5-21.7-41.9-18.4C1380.2,619.3,1367.4,636,1367.1,654.4c-0.1,6.3,9.7,6.3,9.8,0c0.2-12.3,7.8-23.8,19.6-27.9
			c15.4-5.6,32.5,2.4,38.1,17.8c5.6,15.4-2.4,32.5-17.8,38.1c-15.4,5.6-32.5-2.4-38.1-17.8c-1.2-3.3-1.8-6.7-1.8-10.2
			C1376.7,648.1,1367,648.1,1367.1,654.4z"/>
		<path class="st4" d="M1467.8,638.1h-28.6c-6.3,0-6.3,9.8,0,9.8h28.6C1474.1,647.9,1474.1,638.1,1467.8,638.1z"/>
		<path class="st3" d="M1322.3,1421.8c0,0,120.5,4.3,123.1,78.7c2.7,74.3-109.6,7.2-140.8,15c-31.1,7.7-49.7-41.8-29-64.3
			C1296.4,1428.7,1286.1,1417,1322.3,1421.8z"/>
		<path class="st5" d="M1322.3,1426.7c20.6,0.9,40.9,4.8,60.3,11.6c15,5.2,29.9,12.7,41.2,24.1c11.7,11.7,17.8,27.9,16.6,44.4
			c-0.4,6.3-2.2,12.9-6.5,17.2c-3.8,3.8-9.2,5.8-14.7,6.5c-15.6,2.1-32.1-2.4-47-6.3c-15.9-4.2-31.5-9.6-47.6-12.7
			c-5.9-1.1-12-2.1-18-1.4c-3.7,0.5-7.2,1.6-11.1,1.1c-3.7-0.6-7.3-2.1-10.2-4.5c-13.5-10.6-18-33.8-9-48.4
			c2.7-4.4,6.7-8.1,9.8-12.3c2.5-3.5,4.7-7.2,6.9-10.9c3.3-5.6,5.5-8.8,12.3-9.4C1311,1425.3,1316.8,1426,1322.3,1426.7
			c2.7,0.4,4.9-2.5,4.9-4.9c0-2.9-2.3-4.6-4.9-4.9c-9.3-1.2-20.9-2.9-29.2,2.9c-6.5,4.6-9.6,12.7-13.9,19.1
			c-3.2,4.6-7.2,8.5-10.4,13.1c-2.8,4.2-4.8,8.9-5.8,13.9c-2.1,10.5-0.8,21.4,3.5,31.3c3.8,8.8,10.3,17.1,19.2,21.2
			c4.5,2.1,9.4,3.1,14.4,2.8c2.3-0.2,4.5-0.6,6.7-1.1c1-0.2,2-0.3,3-0.3c6.7-0.2,12.7,1.2,19.4,2.8c8.5,2,17,4.5,25.4,6.9
			c17.6,5,35.6,10.4,54,11.2c14.5,0.6,30.7-2.9,37.6-17.1c7.9-16.2,4.5-37.9-4.1-53.1c-8.7-15.4-23.4-26.5-39.1-34.2
			c-15.3-7.4-31.7-12.2-48.4-15.3c-10.1-1.9-20.5-3.6-30.8-3.9c-0.5,0-1-0.1-1.6-0.1C1316,1416.7,1316,1426.5,1322.3,1426.7z"/>
		<path class="st5" d="M1387.6,1472c7.4,4,14.6,8.3,21.5,13.1c11,7.5,23.2,16.1,29.9,27.9c3.1,5.5,11.6,0.6,8.5-4.9
			c-7.2-12.7-19.9-22.2-31.7-30.3c-7.4-5.2-15.1-9.9-23.1-14.2C1386.9,1460.6,1382,1469,1387.6,1472L1387.6,1472z"/>
		<path class="st5" d="M1365.9,1495.7c7.4,4,14.6,8.3,21.5,13.1c11,7.4,23.2,16.1,29.9,27.9c3.1,5.5,11.6,0.6,8.5-4.9
			c-7.2-12.7-19.9-22.2-31.7-30.3c-7.4-5.2-15.1-9.9-23.1-14.2C1365.3,1484.2,1360.3,1492.7,1365.9,1495.7L1365.9,1495.7z"/>
		<path class="st3" d="M1173,857.5c0,0-152.2,79.7-189.6,232.3c-38.8,158.2,0.8,424.8,340.1,447.8l32.2-123.2
			c0,0-150.4-69.1-154.5-175.1C1198.2,1165,1252.9,922.3,1173,857.5z"/>
		<path class="st5" d="M1308,1418.2l-22.8,87.2l-3.3,12.5c-1.6,6.1,7.8,8.7,9.4,2.6l22.8-87.2l3.3-12.5
			C1319,1414.7,1309.6,1412.1,1308,1418.2z"/>
		<path class="st5" d="M1328.1,1539.6l28.2-107.8l4-15.4c0.5-1.9-0.3-4.6-2.3-5.5c-21-9.7-40.9-22.2-59.7-35.6
			c-34.3-24.6-68.1-56.3-83.9-96.3c-7.1-18-9.2-36.4-8.4-55.7c0.8-19,2.8-37.9,4.7-56.8c5-49.7,10.4-99.6,10.8-149.6
			c0.2-24.4-0.8-48.8-4.4-73c-3.1-20.6-8.2-41.2-17.7-59.8c-2.1-4-4.4-7.9-7-11.6c-3.5-5.2-12-0.3-8.5,4.9
			c11.3,16.3,17.3,35.6,21.2,54.9c4.7,23.5,6.2,47.5,6.5,71.4c0.6,50.5-4.5,100.9-9.6,151.1c-2,20.2-4.2,40.4-5.4,60.7
			c-1.1,18.5-0.8,36.8,4.5,54.8c12.6,42.8,45.2,77.1,79.6,103.9c14.5,11.3,29.7,21.5,45.6,30.8c8.2,4.8,16.7,10.1,25.5,13.7
			c0.4,0.2,0.8,0.4,1.2,0.6l-2.3-5.5l-28.2,107.8l-4,15.4C1317,1543.1,1326.5,1545.7,1328.1,1539.6L1328.1,1539.6z"/>
		<path class="st3" d="M1605,1402.7c0,0-120.5,4.3-123.1,78.6c-2.7,74.3,109.6,7.2,140.8,15c31.1,7.7,49.7-41.8,29-64.3
			C1630.9,1409.7,1641.2,1397.9,1605,1402.7z"/>
		<path class="st5" d="M1605,1397.9c-23.5,0.9-46.6,5.6-68.5,14c-16.3,6.3-32.5,15.3-43.9,28.9c-12.3,14.5-17.7,33.7-15,52.5
			c6.1,39.8,55.2,28,81.9,20.8c16.5-4.4,32.9-10.4,49.9-12.9c2.8-0.4,5.6-0.6,8.4-0.5c0.7,0,1.3,0.1,2,0.1c0.8,0.1-0.6-0.1,0.8,0.1
			c2.3,0.6,4.7,0.9,7.1,1.1c9.8,0.5,19.1-4.3,25.4-11.6c13.1-15.2,17.1-40.9,5.1-57.8c-3.3-4.6-7.3-8.5-10.4-13.1
			c-2.3-3.5-4.3-7.2-6.5-10.7c-4.4-6.9-10-10.8-18.2-11.7C1617.1,1396.4,1611,1397.1,1605,1397.9c-2.7,0.3-4.9,2-4.9,4.9
			c0,2.4,2.3,5.2,4.9,4.9c5.7-0.7,11.6-1.6,17.3-0.9c2.9,0.3,5.6,1.3,7.1,2.6c4.8,4.3,7.9,12.3,12,18c3,4.1,6.9,7.6,9.5,11.9
			c2.3,3.8,3.7,8,4.3,12.4c1.1,9-0.7,18.1-5.1,26c-3.9,7-10.1,13.3-18.4,14.5c-3.9,0.5-7.5-0.6-11.3-1.1c-2.6-0.3-5.3-0.3-7.9,0
			c-15.4,1.3-30.4,6.5-45.1,10.7c-16,4.5-32.4,9.5-49.1,10.1c-6.3,0.3-13.2-0.2-18.6-2.4c-5-2-8.9-6.1-10.8-11.2
			c-5.8-14.8-1.2-33.5,7.3-46.3c8.9-13.2,23-22,37.3-28.4c22.2-9.8,46.6-14.2,70-15.9l1.3-0.1
			C1611.3,1407.4,1611.3,1397.6,1605,1397.9z"/>
		<path class="st5" d="M1534.8,1444.4c-8,4.3-15.7,9-23.1,14.2c-11.8,8.2-24.5,17.6-31.7,30.3c-3.1,5.5,5.4,10.4,8.5,4.9
			c6.7-11.8,18.9-20.5,29.9-27.9c6.9-4.7,14.1-9.1,21.5-13.1C1545.4,1449.9,1540.4,1441.4,1534.8,1444.4L1534.8,1444.4z"/>
		<path class="st5" d="M1556.5,1468.1c-8,4.3-15.7,9-23.1,14.2c-11.8,8.2-24.5,17.6-31.7,30.3c-3.1,5.5,5.4,10.4,8.5,4.9
			c6.7-11.8,18.9-20.5,29.9-27.9c6.9-4.7,14.1-9.1,21.5-13.1C1567,1473.6,1562.1,1465.2,1556.5,1468.1L1556.5,1468.1z"/>
		<path class="st3" d="M1647.5,844.9c159.7,16.1,456.5,540.6-39.2,677.2l-37.2-132.6c0,0,122.3-58.2,88-188
			C1624.1,1068.9,1522,832.3,1647.5,844.9z"/>
		<path class="st5" d="M1590.7,949.9l48.1,52.6l6.8,7.4l-1.3-4.8l-24.6,67.3l-39,106.8l-9,24.6c-2.2,5.9,7.3,8.5,9.4,2.6l24.6-67.3
			l39-106.8l9-24.6c0.5-1.7,0-3.5-1.3-4.8l-48.1-52.6l-6.8-7.4C1593.3,938.3,1586.4,945.3,1590.7,949.9L1590.7,949.9z"/>
		<path class="st5" d="M1654.8,870.4V952l3.6-4.7l-50.9,10.4c-6.2,1.3-3.6,10.7,2.6,9.4l50.9-10.4c2.1-0.6,3.6-2.5,3.6-4.7v-81.6
			C1664.5,864.1,1654.8,864.1,1654.8,870.4L1654.8,870.4z"/>
		<path class="st5" d="M1654.4,1202.8c5.6,21.6,7.7,44.2,4.1,66.3c-3,18-9.4,35.2-18.9,50.7c-14,23.2-34.2,42.6-56.6,57.2
			c-4.6,3.1-9.4,5.9-14.4,8.3c-1.9,0.9-2.8,3.6-2.3,5.5l31.7,113.1l5.5,19.6c1.7,6.1,11.1,3.5,9.4-2.6l-30.1-107.2l-7.1-25.4
			l-2.3,5.5c14.9-7.1,28.6-17.6,40.8-28.6c25.8-23.3,45.5-53.7,52.6-88c5.3-25.6,3.5-51.9-3.1-77
			C1662.2,1194.2,1652.8,1196.8,1654.4,1202.8L1654.4,1202.8z"/>
		<path class="st5" d="M1647.7,1489.6l-24.3-86.7l-3.5-12.4c-1.7-6.1-11.1-3.5-9.4,2.6l24.3,86.7l3.5,12.4
			C1639.9,1498.3,1649.4,1495.7,1647.7,1489.6z"/>
		<path class="st3" d="M1226.3,2453.4c0,0,160.3-22.4,160.3,78.9h-298.8l20.4-82L1226.3,2453.4z"/>
		<path class="st5" d="M1227.6,2458.1C1226.6,2458.3,1226.3,2458.3,1227.6,2458.1c1-0.1,2-0.3,3.1-0.4c3.8-0.4,7.7-0.7,11.5-1
			c12.4-0.8,24.8-0.9,37.2-0.1c28.7,1.6,61.7,7.3,83.3,28.1c13.1,12.6,18.9,29.6,19,47.5l4.9-4.9h-286.5c-3.8,0-8-0.5-11.7,0
			c-0.2,0-0.4,0-0.5,0l4.7,6.2l17.8-71.7l2.6-10.3l-4.7,3.6l103.4,2.7l14.7,0.4c6.3,0.2,6.3-9.6,0-9.8l-103.4-2.7l-14.7-0.4
			c-2.2,0-4.1,1.5-4.7,3.6l-17.8,71.7l-2.6,10.3c-0.7,2.7,0.9,5.4,3.6,6c0.4,0.1,0.8,0.1,1.2,0.2h262c12,0,24.2,0.5,36.2,0
			c0.2,0,0.4,0,0.5,0c2.7,0,4.9-2.2,4.9-4.9c-0.1-17.8-5.2-35.1-16.7-48.9c-10.3-12.4-24.7-20.6-39.7-26.1
			c-28-10.3-59.3-12-88.9-10.5c-7.1,0.4-14.2,0.9-21.3,1.9C1218.8,2449.6,1221.5,2459,1227.6,2458.1z"/>
		<path class="st5" d="M1264.2,2487l24-32.8c3.7-5.1-4.8-10-8.5-4.9l-24,32.8C1252,2487.1,1260.5,2492,1264.2,2487z"/>
		<path class="st5" d="M1236,2487l24-32.8c3.7-5.1-4.8-10-8.5-4.9l-24,32.8C1223.8,2487.1,1232.3,2492,1236,2487z"/>
		<path class="st5" d="M1421.5,1283.9L1421.5,1283.9c14.3,0,25.9,11.6,25.9,25.9v114.8c0,14.3-11.6,25.9-25.9,25.9l0,0
			c-14.3,0-25.9-11.6-25.9-25.9v-114.8C1395.6,1295.5,1407.2,1283.9,1421.5,1283.9z"/>
		<path class="st7" d="M1533.6,1339.4c-30.3-85.2-60.5-170.5-90.8-255.7c-7.4-20.8-35.1-20.9-42.4,0
			c-30.3,85.2-60.6,170.4-90.8,255.7c-4.9,13.7,7.8,27.9,21.2,27.9h181.7C1525.8,1367.3,1538.4,1353.1,1533.6,1339.4z"/>
		<path class="st3" d="M1645.3,1563.5h163c41.2,0,74.6,33.4,74.6,74.6l0,0c0,41.2-33.4,74.6-74.6,74.6h-163
			c-41.2,0-74.6-33.4-74.6-74.6l0,0C1570.7,1596.8,1604.1,1563.5,1645.3,1563.5z"/>
		<path class="st3" d="M1882.3,1594.8h-183c-46,0-83.7,37.7-83.7,83.7l0,0c0,13.8,3.4,27.4,10,39.6c-18.6,6.7-31.1,24.4-31.1,44.2
			l0,0c0.1,25.9,21,46.8,46.9,46.9h102.5c25.9-0.1,46.8-21,46.9-46.9h91.5c46,0,83.7-37.7,83.7-83.7l0,0
			C1966,1632.5,1928.3,1594.8,1882.3,1594.8z"/>
		<path class="st5" d="M1882.3,1589.9h-173.3c-3.6,0-7.2,0-10.8,0c-17.9,0.3-35.2,5.9-49.8,16.2c-36.3,26-47.9,74.9-27,114.4
			l2.9-7.2c-28.7,10.7-42.9,43.6-29.5,71.5c6.1,12.4,16.9,22,30.1,26.4c6.8,2.3,13.8,2.7,20.9,2.7c32.3,0,64.7,0.1,97,0
			c28.8-0.1,52.6-22.7,53-51.8l-4.9,4.9c30.5,0,60.9,0.2,91.4,0c29.2-0.2,56.5-14.6,73.1-38.5c17.5-25.1,20.2-58.2,7.9-86.1
			C1949.2,1610.8,1916.9,1590.1,1882.3,1589.9c-6.2,0-6.2,9.8,0.1,9.8c28.7,0.2,55.1,15.9,69.1,41c20.9,38.2,6.9,86.1-31.3,107
			c-11.6,6.4-24.7,9.7-37.9,9.7c-14.4,0.1-28.8,0-43.2,0h-48.2c-2.7,0-4.9,2.2-4.9,4.9c-0.3,23.3-19.3,42-42.5,42
			c-12.5,0.1-25,0-37.4,0h-52.2c-4,0-8.1,0-12.1,0c-23.2,0.2-42.2-18.4-42.4-41.6c-0.2-17.8,10.9-33.7,27.6-39.8
			c3-1.1,4.5-4.2,2.9-7.2c-20.5-38.5-5.9-86.2,32.6-106.7c10.8-5.8,22.9-8.9,35.1-9.2c3.5-0.1,7.1,0,10.6,0h174.1
			C1888.6,1599.7,1888.6,1589.9,1882.3,1589.9z"/>
		<path class="st5" d="M2375.2,888.1c-6-5.9-11.6-12.1-16.9-18.6c-8.5-10.2-17.7-22-20.7-35.2c-1.4-6.1-10.9-3.5-9.4,2.6
			c3.3,14.3,13,26.9,22,38c5.7,7.1,11.7,13.8,18.2,20.1C2372.8,899.4,2379.7,892.5,2375.2,888.1z"/>
		<path class="st5" d="M2396.1,870c-6-5.9-11.6-12.1-16.9-18.6c-8.5-10.2-17.7-22-20.7-35.2c-1.4-6.1-10.9-3.5-9.4,2.6
			c3.3,14.2,13,26.9,22,38c5.7,7.1,11.7,13.8,18.2,20.1C2393.7,881.3,2400.6,874.4,2396.1,870L2396.1,870z"/>
		<g>
			<path class="st0" d="M3552.3,2474.5c-328.3-0.4-594.1-266.9-593.7-595.2c0.4-328.3,266.9-594.1,595.2-593.7
				s594.1,266.9,593.7,595.2c-0.3,238.6-143.3,454-363.1,546.8C3710.9,2458.7,3632,2474.6,3552.3,2474.5z M3552.3,1314.5
				c-310.3,0.4-561.5,252.3-561.1,562.6s252.3,561.5,562.6,561.1c310.3-0.4,561.5-252.3,561.1-562.6
				c-0.3-225.5-135.4-429-343.2-516.8C3702.3,1329.4,3627.6,1314.4,3552.3,1314.5L3552.3,1314.5z"/>
			<path class="st3" d="M2570.1,1585.7c0,0-25,252,80.8,579.9l117.9,6.3c0,0-84.5-287.1-52.9-553.1S2570.1,1585.7,2570.1,1585.7z"/>
			<path class="st5" d="M2565.2,1585.7c-0.9,9.2-1.3,18.4-1.7,27.6c-1.1,25.8-1.1,51.7-0.5,77.5c1,39.9,3.7,79.8,7.8,119.6
				c5.3,51.5,13,102.7,23,153.6c11.8,60.4,26.8,120.1,44.9,179c2.5,8,5,16,7.5,23.9c0.6,2.1,2.5,3.5,4.7,3.6l103.3,5.5l14.6,0.8
				c3.2,0.2,5.6-3.3,4.7-6.2c-3.2-10.9-6-22-8.8-33c-7.4-29.4-13.9-58.9-19.6-88.7c-8.3-42.6-15.1-85.6-20.3-128.7
				c-6.2-50.9-9.9-102.2-10.9-153.5c-0.5-27.3-0.1-54.5,1.3-81.8c1.4-26.8,4.4-53.3,7.1-79.9c1.9-19.4,3-38.9,1.7-58.4
				c-0.8-12.4-2.4-25.1-7.2-36.6c-3.2-7.8-8-15.2-15.5-19.6c-6.6-3.9-14.2-4.6-21.6-3.4c-17.4,2.6-33.1,14.2-46.5,25
				c-15.3,12.4-29.1,26.4-42.3,41c-8.1,9-16,18.3-23.4,27.8c-0.6,0.8-1.2,1.6-1.8,2.3c-3.8,5,4.7,9.9,8.5,4.9l0.3-0.4
				c-1,1.3-0.4,0.5,0.1-0.2c1.1-1.4,2.2-2.8,3.3-4.1c3.9-4.9,7.9-9.7,12-14.4c12-14.1,24.8-27.4,38.4-39.9c7-6.5,14.5-12.5,22.3-18
				c3.7-2.6,7.4-4.9,11.4-7.1c3.3-1.9,6.7-3.5,10.3-4.8c1.8-0.7,3.6-1.2,5.4-1.7c0.8-0.2,1.6-0.4,2.4-0.6c0.6-0.1,2.5-0.4,2.1-0.4
				c-0.4,0,1.4-0.1,1.9-0.2c0.9,0,1.8-0.1,2.7,0c0.8,0,1.5,0.1,2.3,0.1c1,0.1-0.9-0.2,0.1,0c0.4,0.1,0.9,0.2,1.3,0.3
				c0.7,0.1,1.4,0.3,2.1,0.5l1.1,0.4c1.2,0.4-0.3-0.2,0.4,0.1c1.4,0.7,2.8,1.4,4.1,2.3c1,0.7-0.4-0.4,0.3,0.2c0.3,0.3,0.7,0.5,1,0.8
				c0.7,0.6,1.3,1.2,1.9,1.8c1.1,1.1,2,2.3,2.8,3.7c5.3,8.2,7.6,18.5,9,28.7c2.3,16.7,1.9,33.8,0.9,50.5c-1.5,24.9-5.2,49.5-7,74.4
				c-2,26.8-3,53.7-3.1,80.6c0,51.2,2.7,102.4,8.1,153.3c4.7,44.6,11,89,19.1,133.2c5.9,32.6,12.7,65.1,20.4,97.4
				c3.7,15.6,7.6,31.1,12,46.5c0.2,0.7,0.4,1.4,0.6,2l4.7-6.2l-103.3-5.5l-14.6-0.8l4.7,3.6c-19.3-59.7-35.3-120.3-48.1-181.7
				c-10.8-51.7-19.2-103.9-25.2-156.4c-4.6-41-7.8-82.2-9.2-123.4c-0.9-27.5-1.1-55.1-0.2-82.6c0.3-7.9,0.6-15.8,1.1-23.7
				c0.2-3.4,0.8-6.9,0.8-10.4c0-0.2,0-0.3,0-0.4C2575.7,1579.4,2565.9,1579.4,2565.2,1585.7z"/>
			<path class="st3" d="M2648.7,2145.2c0,0-160.3-22.4-160.3,78.9h301.2l-15.5-82L2648.7,2145.2z"/>
			<path class="st5" d="M2650,2140.4c-18.8-2.5-37.8-3-56.7-1.6c-31.2,2.1-66.5,9-89.4,32.2c-14,14.2-20.4,33.3-20.5,53
				c0,2.7,2.2,4.9,4.9,4.9h264.1c12.1,0,24.5,0.5,36.6,0c0.2,0,0.4,0,0.5,0c3.4,0,5.3-3.1,4.7-6.2l-13.6-71.8l-1.9-10.2
				c-0.4-2-2.7-3.6-4.7-3.6l-109.8,2.7l-15.6,0.4c-6.3,0.2-6.3,9.9,0,9.8l109.8-2.7l15.6-0.4l-4.7-3.6l13.6,71.8l1.9,10.2l4.7-6.2
				h-288.9c-3.8,0-8.1-0.6-11.8,0c-0.2,0-0.4,0-0.5,0l4.9,4.9c0.1-16,4.5-31.7,15.3-43.7c9.8-11,23-18.1,36.8-22.8
				c26.7-9.1,55.8-10.6,83.8-9.1c4.7,0.2,9.3,0.6,13.9,1c1.3,0.1,2.7,0.3,4,0.4c0.9,0.1,2.3,0.3,0.2,0
				C2653.5,2150.7,2656.2,2141.3,2650,2140.4z"/>
			<path class="st5" d="M2619.3,2173.7l-24-32.8c-3.7-5-12.2-0.1-8.5,4.9l24,32.8C2614.5,2183.7,2623,2178.8,2619.3,2173.7
				L2619.3,2173.7z"/>
			<path class="st5" d="M2647.5,2173.7l-24-32.8c-3.7-5-12.2-0.1-8.5,4.9l24,32.8C2642.7,2183.7,2651.2,2178.8,2647.5,2173.7z"/>
			<path class="st3" d="M2901.4,1597.4c0,0-5,253.2,126.6,571.6l118.1-3.1c0,0-107-279.5-96.7-547.1
				C3059.8,1351.2,2901.4,1597.4,2901.4,1597.4z"/>
			<path class="st5" d="M2896.5,1597.4c-0.2,9.2,0.1,18.5,0.5,27.7c1,25.8,3,51.6,5.7,77.3c4.2,39.8,10,79.4,17.2,118.8
				c9.4,50.9,21,101.3,35,151.1c16.6,59.3,36.3,117.6,59,174.8c3.1,7.8,6.2,15.5,9.4,23.2c0.8,2,2.4,3.7,4.7,3.6l103.4-2.7l14.7-0.4
				c2.9-0.1,5.9-3.1,4.7-6.2c-4-10.4-7.5-20.9-11.1-31.4c-9.4-28-18.1-56.2-26.1-84.7c-11.5-41-21.5-82.3-30.2-124
				c-10.2-49.3-18.2-99.1-23.4-149.2c-5.5-53.1-7.4-106.6-5.6-160c0.7-20.9,0.7-42-1.8-62.8c-1.6-13.5-4.1-27-9.6-39.4
				c-3.5-7.8-8.6-15.4-16.1-19.8c-6.6-3.9-14.3-4.7-21.8-3.4c-17.3,3.1-32.5,16-44.9,27.6c-14.8,13.8-27.8,29.4-40.1,45.4
				c-7.6,9.9-15,20.1-21.9,30.6c-0.3,0.5-0.7,1-1,1.6c-3.4,5.3,5.1,10.2,8.5,4.9c4.7-7.3,9.8-14.5,15-21.6
				c10.9-15,22.7-29.3,35.4-42.9c12.6-13.2,25.7-26,42.4-33.4c0.2-0.1,0.4-0.2,0.6-0.2c0.4-0.2,0.9-0.4,1.3-0.5
				c0.9-0.3,1.8-0.6,2.7-0.9c1.7-0.5,3.4-0.9,5.1-1.2c1-0.2-0.1,0,0.2,0c0.4,0,0.8-0.1,1.3-0.1c0.8-0.1,1.7-0.1,2.5-0.1
				s1.5,0.1,2.3,0.1c0.3,0,1.6,0.2,0.3,0c0.4,0.1,0.8,0.1,1.2,0.2c3.8,0.9,4.7,1.2,8,3.6c0.8,0.5-0.5-0.4,0.2,0.2
				c0.4,0.3,0.7,0.6,1,0.9c0.7,0.6,1.4,1.3,2,2c1.2,1.2,2.3,2.6,3.1,4c6,9.1,8.8,20,10.8,30.9c3.3,17.6,4,35.7,4,53.6
				c0,25.6-1.5,51.2-1.1,76.9c0.4,26.4,1.8,52.7,4,79c4.3,50.1,11.2,100,20.6,149.4c8.2,43.2,17.9,86,29.3,128.4
				c8.3,31.2,17.4,62.1,27.4,92.8c4.9,14.9,9.9,29.8,15.4,44.5c0.2,0.6,0.5,1.3,0.7,1.9l4.7-6.2l-103.4,2.7l-14.7,0.4l4.7,3.6
				c-23.9-57.9-44.8-117.1-62.4-177.3c-14.9-50.7-27.4-102.1-37.6-154.1c-7.9-40.4-14.3-81.2-19-122.1c-3.1-27.4-5.5-54.8-6.7-82.3
				c-0.5-11.4-0.3-22.7-0.8-34.1c0-0.2,0-0.3,0-0.5C2906.4,1591.1,2896.6,1591.1,2896.5,1597.4z"/>
			<path class="st1" d="M2639.2,938.7c51.2-25.2,115-40.2,184.1-40.2l0,0c69.1,0,132.9,15,184.1,40.2
				c73.9,36.4,131.9,84.7,120.9,340.4c-8.2,191.6-44,332.3-44,332.3h-522c0,0-35.8-140.7-44-332.3
				C2507.3,1023.4,2565.3,975.1,2639.2,938.7z"/>
			<path class="st3" d="M3019.5,1043.8c0.8,1.2,1.5,2.6,2.2,3.9c0.9,1.6,1.7,3.3,2.4,5c0.5,1.1,1,2.2,1.5,3.3
				c0.3,0.6,0.5,1.2,0.8,1.9c0.4,0.9,0.1,0.2,0-0.1l0.5,1.1c7.1,17.3,12,35.4,16,53.6c7,32.6,10.6,65.4,12.5,98.7
				c2.9,50.9,1.5,102-2.2,152.8c-5.3,72-15.4,143.6-28.3,214.7c-1.9,10.5-3.9,21-5.9,31.5c-1.2,6.2,8.2,8.8,9.4,2.6
				c14.4-74.4,26-149.5,32.6-225c4.7-53.7,7-107.6,4.8-161.5c-1.4-35.8-4.8-71.6-11.6-106.8c-3.9-20-8.9-40-16.3-59.1
				c-2.7-7.1-5.5-15.1-10-21.3c-0.1-0.1-0.1-0.1-0.1-0.2C3024.5,1033.6,3016,1038.5,3019.5,1043.8L3019.5,1043.8z"/>
			<path class="st5" d="M2562.3,1616.3h458c21,0,42.1,0.7,63.1,0c0.3,0,0.6,0,0.9,0c6.3,0,6.3-9.8,0-9.8h-457.9
				c-21,0-42.1-0.7-63.1,0h-0.9C2556,1606.5,2556,1616.3,2562.3,1616.3L2562.3,1616.3z"/>
			<path class="st3" d="M3034.6,2148.3c0,0-160.3-22.4-160.3,78.9h298.8l-20.4-82L3034.6,2148.3z"/>
			<path class="st5" d="M3036,2143.5c-18.8-2.5-37.8-3-56.7-1.6c-31.2,2.1-66.5,9-89.4,32.2c-14,14.2-20.4,33.3-20.5,53
				c0,2.7,2.2,4.9,4.9,4.9h262c12,0,24.2,0.5,36.2,0h0.5c2.7,0,4.9-2.3,4.9-5c0-0.4-0.1-0.8-0.2-1.2l-17.8-71.7l-2.6-10.3
				c-0.6-2.1-2.5-3.6-4.7-3.6l-103.4,2.7l-14.7,0.4c-6.3,0.2-6.3,10,0,9.8l103.4-2.7l14.6-0.4l-4.7-3.6l17.8,71.7l2.6,10.3l4.7-6.2
				h-286.5c-3.8,0-8-0.5-11.7,0c-0.2,0-0.4,0-0.5,0l4.9,4.9c0.1-15.9,4.5-31.7,15.3-43.7c9.8-11,23-18.1,36.8-22.8
				c26.7-9.1,55.8-10.6,83.8-9.1c4.7,0.2,9.3,0.6,13.9,1c1.3,0.1,2.7,0.3,4,0.4c0.9,0.1,2.3,0.3,0.2,0
				C3039.5,2153.8,3042.1,2144.4,3036,2143.5z"/>
			<path class="st5" d="M3005.3,2176.9l-24-32.8c-3.7-5-12.2-0.2-8.5,4.9l24,32.8C3000.5,2186.8,3009,2181.9,3005.3,2176.9
				L3005.3,2176.9z"/>
			<path class="st5" d="M3033.4,2176.9l-24-32.8c-3.7-5-12.2-0.2-8.5,4.9l24,32.8C3028.7,2186.8,3037.1,2181.9,3033.4,2176.9z"/>
			<path class="st1" d="M2939.1,519.6c-42.9-21.1-96.3-33.6-154.1-33.6l0,0c-57.9,0-111.3,12.5-154.1,33.6
				c-61.9,30.5-110.4,70.9-101.2,285.1c6.9,160.5,36.8,278.3,36.8,278.3h437.1c0,0,29.9-117.8,36.8-278.3
				C3049.6,590.6,3001.1,550.1,2939.1,519.6z"/>
			<polygon class="st3" points="2724.7,363.7 2724.7,502 2785,560.3 2845.3,502 2845.3,363.7 			"/>
			<path class="st5" d="M2719.8,363.7v95.8c0,13.8-0.4,27.7,0,41.5c0.1,3.9,2.7,5.7,5.3,8.3l18.5,17.8l37.9,36.7
				c1.9,1.9,5,1.9,6.9,0l32.2-31.1l20.7-20c2.8-2.8,8.4-6.4,8.9-10.7c0.3-3.5,0-7.2,0-10.6V363.7c0-2.7-2.2-4.9-4.9-4.9h-120.6
				c-6.3,0-6.3,9.8,0,9.8h120.6l-4.9-4.9V502l1.4-3.5l-52.8,51.1l-7.4,7.2h6.9l-52.8-51.1l-7.4-7.2l1.4,3.5V363.7
				C2729.6,357.4,2719.8,357.4,2719.8,363.7z"/>
			<path class="st3" d="M2686.1,528.5l83.6,80.8l11.9,11.5c1.9,1.9,5,1.9,6.9,0L2872,540l11.9-11.4c4.5-4.4-2.4-11.3-6.9-6.9
				l-83.6,80.8l-11.9,11.5h6.9l-83.6-80.8l-11.9-11.5C2688.5,517.3,2681.6,524.2,2686.1,528.5L2686.1,528.5z"/>
			<path class="st3" d="M2897.5,311.8c-4.2,0-8.4,0.5-12.5,1.6l-20.4,74c8,8.3,17.5,15.2,30,15.4c24.7,0.4,46.7-26.7,47.1-51.4
				C2942.1,326.8,2922.2,312.2,2897.5,311.8z"/>
			<path class="st5" d="M2897.5,306.9c-4.7,0-9.3,0.6-13.8,1.8c-1.7,0.5-3,1.8-3.4,3.4l-19.7,71.3c-0.3,0.9-0.6,1.8-0.8,2.8
				c-0.9,5.6,7.5,10.8,11.5,13.7c10.4,7.4,23.5,9.9,35.7,6c22.4-7.1,39.2-31.1,39.5-54.4c0.2-12.3-4.7-24.4-14.1-32.4
				C2922.7,310.8,2910.1,307.2,2897.5,306.9c-6.3-0.1-6.3,9.6,0,9.8c19.3,0.4,38.5,11.4,39.2,32.5c0.7,20.3-14.3,42.7-34.4,47.8
				c-13.6,3.4-25.1-3.6-34.3-13.1l1.3,4.8l17.9-64.7l2.6-9.3l-3.4,3.4c3.7-0.9,7.4-1.4,11.2-1.4
				C2903.8,316.7,2903.8,306.9,2897.5,306.9z"/>
			<path class="st3" d="M2917,342c0,0-12.6-1.6-20.2,8c-7.7,9.6-2.4,26.3,6.7,24.8s12.9-8.8,10.6-15.3c-2.4-6.5-10.4-6.1-19.8-1"/>
			<path class="st5" d="M2917,337.1c-16.6-2-31.5,12.2-28.3,28.9c1.6,8.4,8.3,15.4,17.3,13.3c9-2.1,15.6-10.8,13.1-20.2
				c-3.6-13.1-18.4-9.4-27.3-4.9c-5.6,2.9-0.7,11.3,4.9,8.5c3.5-1.8,16.1-6.6,12.8,2.6c-0.9,2.4-4.1,4.7-6.8,4.7
				c-2.1,0-3.2-2.1-3.9-3.9c-4.5-11.7,7.4-20.5,18.2-19.2C2923.2,347.7,2923.2,337.9,2917,337.1L2917,337.1z"/>
			<path class="st3" d="M2682.3,311.8c4.2,0,8.4,0.5,12.5,1.6l20.4,74c-8,8.3-17.5,15.2-30,15.4c-24.7,0.4-46.7-26.7-47.1-51.4
				C2637.7,326.8,2657.6,312.2,2682.3,311.8z"/>
			<path class="st5" d="M2682.3,316.7c3.8,0,7.5,0.5,11.2,1.4l-3.4-3.4l17.9,64.7l2.6,9.3l1.3-4.8c-8.1,8.3-18.1,15.2-30.3,13.8
				c-10.4-1.2-19.6-7.7-26.2-15.6c-12.5-14.8-18.3-39.2-3.1-54.3C2660.1,320.1,2671.4,317,2682.3,316.7c6.3-0.1,6.3-9.9,0-9.8
				c-21.9,0.5-44.3,12.4-48.3,35.6c-4,23.2,9.9,48.8,30.6,59.9c11,5.9,23.8,7.1,35.4,2.2c6-2.7,11.4-6.4,16.1-11
				c2.6-2.4,4.5-4.5,3.7-8.2c-2.9-12.2-6.7-24.2-10-36.2l-10.2-37c-0.5-1.7-1.8-3-3.4-3.4c-4.5-1.2-9.1-1.8-13.8-1.8
				C2676,306.9,2676,316.7,2682.3,316.7z"/>
			<path class="st3" d="M2662.8,342c0,0,12.6-1.6,20.2,8c7.7,9.6,2.4,26.3-6.7,24.8c-9.2-1.5-13-8.8-10.6-15.3
				c2.3-6.5,10.4-6.1,19.8-1"/>
			<path class="st5" d="M2662.8,346.9c10.8-1.3,22.6,7.5,18.2,19.2c-0.6,1.6-1.6,3.7-3.5,3.9c-2.8,0.3-6.3-2.1-7.2-4.7
				c-3.3-9.2,9.4-4.4,12.8-2.6c5.6,2.9,10.6-5.6,4.9-8.5c-7.8-4-20.4-8.1-25.9,1.6c-4.7,8.2-0.4,18.3,7.8,22.1
				c8.9,4.1,17.1,0.3,20.4-8.8c3.2-8.9,0.7-18.8-6.2-25.2c-5.9-5.1-13.5-7.6-21.3-6.9C2656.6,337.9,2656.6,347.7,2662.8,346.9
				L2662.8,346.9z"/>
			<path class="st3" d="M2784,184.4c-102.3,0.5-119.8,72.5-108.4,153.8c6.4,45.9,19.9,106.1,66.4,126
				c68.2,29.2,127.6-9.4,149.9-80.3S2930.7,183.6,2784,184.4z"/>
			<path class="st5" d="M2784,179.5c-30.5,0.3-62.8,6.8-85.5,28.7c-19,18.4-27.4,44.4-29.9,70.2c-3,30.3,1.1,61.4,7.4,91
				c6.7,31.7,18.4,66.4,44.5,87.5c25.4,20.5,63.2,27.2,94.4,18.2c31.4-9.1,55.7-33.6,70.4-62.2c11.4-22.4,18-47.7,22.1-72.4
				c3.9-22.8,5.3-46.1,1.8-69c-3.3-21.8-12-43.1-27.6-59.1c-18.9-19.4-45.2-28.3-71.5-31.4C2801.5,179.9,2792.8,179.4,2784,179.5
				c-6.3,0-6.3,9.8,0,9.8c27.5-0.1,56.4,4.1,79.4,20.2c17,11.9,28,30,33.3,49.8c10.8,39.7,2.7,83.6-9.2,122.1
				c-9.2,29.7-26.5,58.3-53.6,74.7c-27.2,16.4-59.5,16.2-88.3,4.3c-29.9-12.2-45.6-41.9-54.5-71.4c-8.6-28.7-13.2-58.4-13.6-88.4
				c-0.3-24.9,3.2-51.1,17-72.3c14.5-22.2,38.8-33.3,64.3-37.3c8.3-1.2,16.7-1.8,25.2-1.8C2790.3,189.2,2790.3,179.4,2784,179.5z"/>
			<path class="st3" d="M2762.5,391.2c0,0-0.7,25.6,23.5,25.6c25.9,0,24.2-25.6,24.2-25.6"/>
			<path class="st5" d="M2757.6,391.2c-0.2,10.5,4.7,22.1,14.2,27.2c15.1,8.2,35.3,1.8,41.3-14.5c1.5-4.1,2.2-8.4,2-12.7
				c-0.4-6.3-10.2-6.3-9.8,0c0.3,3.4-0.3,6.9-1.6,10.1c-2.7,7-9.2,10.4-16.5,10.6c-7.7,0.2-14.4-2.8-17.6-10.1
				c-1.6-3.3-2.3-7-2.1-10.6C2767.5,384.9,2757.7,384.9,2757.6,391.2L2757.6,391.2z"/>
			<circle class="st5" cx="2740.3" cy="326.8" r="7.1"/>
			<circle class="st5" cx="2834.2" cy="326.8" r="7.1"/>
			<line class="st6" x1="2786.4" y1="341.1" x2="2786.4" y2="372.8"/>
			<path class="st5" d="M2781.5,341.1v31.7c0,6.3,9.8,6.3,9.8,0v-31.7C2791.2,334.8,2781.5,334.8,2781.5,341.1z"/>
			<path class="st5" d="M2662.8,311c0,0,147.4,0.8,171.4-72.4c0,0,15.1,64.5,76.6,70.8c0,0,62.3-199.8-124.4-199.8
				S2662.8,311,2662.8,311z"/>
			<path class="st5" d="M2791.3,213.8c0,0-62.5-11.5-75.7-104.2c-10.1-71,40.5-113.3,99.6-109.3c59.1,4,93,37,90.8,93.9
				C2904.3,140.8,2885.6,210.5,2791.3,213.8z"/>
			<path class="st3" d="M2763.8,115.5c11.3-2.4,23.3-3.1,35.3-2.9c22.1,0.2,45.2,4.4,63.1,18.2c2.1,1.6,5.5,0.3,6.7-1.8
				c1.5-2.5,0.3-5.1-1.8-6.7c-26.7-20.6-64.6-22-96.7-17.7c-3.1,0.4-6.1,0.8-9.2,1.5C2755,107.4,2757.6,116.8,2763.8,115.5z"/>
			<path class="st1" d="M2970.4,537.6c0,0,136.9,50.1,165.3,184.1l-93,46.4C3042.6,768.1,2957.1,638.6,2970.4,537.6z"/>
			<path class="st3" d="M2991.4,580.1c5.7,9.4,10.8,19.2,15.3,29.2c10.6,22.4,18.8,45.9,24.3,70.1c3.6,15.9,5.5,32.2,5.6,48.6
				c0,6.3,9.8,6.3,9.8,0c-0.1-49.6-17.3-99.1-40.7-142.4c-1.9-3.5-3.8-7-5.9-10.4C2996.6,569.8,2988.1,574.7,2991.4,580.1
				L2991.4,580.1z"/>
			<path class="st1" d="M2599.6,537.6c0,0-136.9,50.1-165.3,184.1l93,46.4C2527.4,768.1,2612.9,638.6,2599.6,537.6z"/>
			<path class="st3" d="M2570.1,575.2c-5.9,9.8-11.2,20-15.9,30.5c-10.7,23.2-19.5,47.5-25,72.5c-3.7,16.4-5.6,33.1-5.7,49.8
				c0,6.3,9.8,6.3,9.8,0c0.1-48.1,16.9-96,39.6-138c1.8-3.3,3.6-6.6,5.6-9.9C2581.9,574.7,2573.4,569.8,2570.1,575.2L2570.1,575.2z"
				/>
			<path class="st3" d="M2089.6,828.9c39.7-39.8,78.4,16,88.3,31.4c0.7,0.7,1.5,1.4,2.2,2.2c0.2-7.7,2-44.6,23.2-30
				c23.6,16.3,10.1,58.6,10.1,58.6l9.8,5.1c29.3,17.6,64.9,28,98.4,8.7c44.7-25.6,114.2-178.4,114.2-178.4l92.7,28.8
				c0,0-48.9,231.5-190.8,261c-67,13.9-153.1-16.8-207.5-73.1C2097.4,910.2,2054.1,864.4,2089.6,828.9z"/>
			<path class="st5" d="M2093,832.4c7.6-7.5,16.9-13.1,27.9-12.6c8.7,0.4,16.9,4.8,23.7,9.9c7,5.3,13.2,11.8,18.7,18.6
				c4.6,5.6,8.1,12.5,13.3,17.6c2,1.9,5.1,1.8,7-0.2c0.8-0.9,1.3-2,1.4-3.3c0.1-5.5,0.7-11,1.9-16.4c0.7-3.2,1.6-6.4,3.4-9.2
				c1.3-2,2.6-3,4.3-2.9c7.3,0.3,13.4,9.6,15.5,16c2.6,8.2,2.6,17.1,1.5,25.6c-0.6,4.8-1.6,9.5-3,14.2c-0.6,2.1,0.3,4.4,2.2,5.5
				c11,5.7,21.6,12.1,33.1,16.7c17.1,6.9,35.7,10,53.9,6.8c13.3-2.3,25.7-8.1,36-16.7c7.1-6.1,13.4-13.3,19.2-20.6
				c28.9-36.6,51-78.8,71.7-120.4c5.3-10.6,10.5-21.2,15.4-32l-5.5,2.3l81.1,25.2l11.5,3.6l-3.4-6c-3.9,18.2-9.4,36.2-15.4,53.9
				c-12.9,37.9-29.3,75-51,108.7c-23.3,36.2-54.3,70.3-94.9,87.1c-53.4,22.1-115.9,9.2-165.5-16.8c-14.3-7.4-27.8-16.2-40.4-26.1
				c-12.7-10.1-24-21.6-35.2-33.4c-11.1-11.7-21.8-23.8-30-37.6c-6.9-11.6-12.7-25.6-9.2-39.3C2084,843.4,2088,837.5,2093,832.4
				c4.3-4.4-2.6-11.4-7-6.9c-10.6,10.8-16.2,24.6-14.2,39.8c2,15.4,10.2,29.4,19.3,41.6c10.1,13.7,21.9,26,33.8,38.1
				c11.6,11.9,24.2,22.7,37.7,32.3c50.4,35.5,118.1,57.3,179.6,43c45.3-10.5,81.7-42,109.2-78.3c26.3-34.8,45.5-74.8,60.6-115.5
				c8.3-22.3,16-45.4,20.8-68.7l0.2-1.1c0.6-2.6-0.9-5.3-3.4-6l-81.1-25.2l-11.5-3.6c-1.9-0.6-4.7,0.4-5.5,2.3
				c-12.5,27.5-26.3,54.4-41,80.8c-11.5,20.7-23.7,41.2-37.6,60.5c-10.9,15-22.9,30.6-39.9,38.5c-18.7,8.7-39.6,7.9-58.8,1.6
				c-13.6-4.5-25.8-12-38.4-18.5l2.3,5.5c4.6-14.4,6.3-32.2,0.9-46.6c-3.5-9.6-11.5-19.6-22.2-21.3c-9.2-1.5-15,5.9-17.8,13.7
				c-2.8,7.7-3.6,16.2-3.8,24.4l8.4-3.5c-4.1-4-7-9.5-10.5-14.1c-4.6-6.1-9.8-11.8-15.3-17c-11.8-10.8-27-19.8-43.6-17.6
				c-10.9,1.5-20.2,7.5-27.9,15.1C2081.6,829.9,2088.6,836.8,2093,832.4z"/>
			<path class="st3" d="M3480.4,827.5c-39.7-39.8-78.4,16-88.3,31.4c-0.7,0.7-1.5,1.4-2.2,2.2c-0.2-7.7-2-44.6-23.2-30
				c-23.6,16.3-10.1,58.6-10.1,58.6l-9.8,5.1c-29.3,17.6-64.9,28-98.4,8.7c-44.7-25.6-114.2-178.4-114.2-178.4l-92.7,28.8
				c0,0,48.9,231.5,190.8,261c67,13.9,153.1-16.8,207.5-73.1C3472.5,908.8,3515.8,863,3480.4,827.5z"/>
			<path class="st5" d="M3483.9,824.1c-13.1-12.8-30.4-19.4-48.1-12.6c-14.9,5.7-26.9,17.3-36.7,29.6c-4.2,5.3-7.7,11.9-12.5,16.6
				l8.4,3.5c-0.3-12.2-1.9-37.1-18.3-38.2c-10.3-0.7-19.8,8.9-23.8,17.5c-4.5,9.5-5.4,20.3-4.5,30.7c0.5,6.8,1.7,13.4,3.7,19.9
				l2.3-5.5c-10.6,5.5-20.8,11.9-32,16.2c-16.6,6.5-34.7,9.5-52.2,5.3c-21.6-5.2-35.5-19.9-48.5-37c-27.3-35.9-48.5-76.6-68.5-116.9
				c-5-10.1-9.9-20.2-14.6-30.4c-0.9-1.9-3.6-2.8-5.5-2.2l-81.1,25.2l-11.5,3.6c-2.6,0.8-4.1,3.4-3.4,6c4.1,19.3,10,38.3,16.5,56.9
				c13.8,40,31.4,79.2,55.2,114.4c25.5,37.7,59.2,71.8,102.8,87.5c57.4,20.6,123.5,4.5,174.9-24.7c29.3-16.7,53.8-39.2,76.3-64.1
				c18.8-20.8,44.3-51.6,33.8-81.9C3493.6,836.1,3489.4,829.5,3483.9,824.1c-4.4-4.5-11.3,2.4-6.9,6.9c10.2,10.5,14,23.6,10.2,37.8
				c-3.9,14.7-13.3,27.7-22.8,39.4c-20.5,24.9-44.2,48.2-71.4,65.7c-48.7,31.2-113,50.3-170.2,33.8c-42.3-12.2-75.9-43.7-101-78.8
				c-24.1-33.7-42-71.7-56.1-110.5c-5.1-14.1-9.7-28.5-13.8-43c-2-7.1-3.3-14.6-5.5-21.6c-0.1-0.3-0.2-0.6-0.2-1l-3.4,6l81.1-25.2
				l11.5-3.6l-5.5-2.3c13.1,28.7,27.6,56.9,43.1,84.4c11.9,21.2,24.5,42.1,39.1,61.6c12.8,17.1,26.6,32.8,47.2,40.3
				c19.5,7.2,41,5.7,60.4-0.9c13.9-4.8,26.5-12.4,39.5-19.1c1.9-1.1,2.8-3.4,2.2-5.5c-3.6-11.4-5.2-24.7-2.4-36.3
				c1.8-7.8,6.5-16.4,14.6-19.1c2.4-0.8,3.7-0.4,5.2,1.2c1.8,2,2.9,5,3.7,7.8c1.7,6.2,2.6,12.7,2.6,19.1c0.1,2.7,2.4,4.9,5.1,4.8
				c1.2,0,2.4-0.5,3.3-1.4c5.2-5,8.7-11.9,13.3-17.6c5.5-6.8,11.6-13.4,18.7-18.6c6.9-5.1,15-9.5,23.7-9.9
				c11-0.6,20.3,5.1,27.9,12.6C3481.5,835.4,3488.4,828.5,3483.9,824.1z"/>
			<path class="st5" d="M3447.8,893.6c6.5-6.4,12.5-13.1,18.2-20.1c9-11.2,18.7-23.8,22-38c1.4-6.1-8-8.7-9.4-2.6
				c-3.1,13.2-12.3,25-20.7,35.2c-5.3,6.5-11,12.7-16.9,18.6C3436.4,891.1,3443.3,898,3447.8,893.6z"/>
			<path class="st5" d="M3426.9,875.5c6.4-6.4,12.5-13.1,18.2-20.1c9-11.1,18.7-23.8,22-38c1.4-6.1-8-8.7-9.4-2.6
				c-3.1,13.2-12.2,25-20.7,35.2c-5.3,6.5-11,12.7-16.9,18.6C3415.5,873,3422.4,879.9,3426.9,875.5L3426.9,875.5z"/>
			<path class="st5" d="M3439.9,652.1L3439.9,652.1c14.3,0,25.9,11.6,25.9,25.9v114.8c0,14.3-11.6,25.9-25.9,25.9h0
				c-14.3,0-25.9-11.6-25.9-25.9V678.1C3414,663.7,3425.6,652.1,3439.9,652.1z"/>
			<path class="st7" d="M3552,707.6c-30.3-85.2-60.6-170.4-90.9-255.7c-7.4-20.8-35.1-20.9-42.5,0c-30.3,85.2-60.6,170.4-90.8,255.7
				c-4.9,13.7,7.8,27.9,21.2,27.9h181.7C3544.2,735.5,3556.8,721.3,3552,707.6z"/>
			<path class="st5" d="M3595.2,681.5c-21.5-60.5-43-121-64.5-181.4l-16.1-45.2l-7.9-22.2c-2-5.7-3.8-11.5-7.6-16.3
				c-12.1-14.9-36.1-12-44.8,5c-3.3,6.4-5.2,13.7-7.6,20.5c-2.6,7.4-5.3,14.8-7.9,22.2c-5.3,15.1-10.7,30.1-16,45.2l-32.4,91.1
				l-16,45.2l-7.9,22.2c-2.3,6.6-6,13.7-6.1,20.8c-0.3,11.6,8.3,21.8,18.8,25.6c6.2,2.3,13.3,1.5,19.8,1.5h120
				c16.2,0,32.4,0.1,48.7,0c11.7,0,22.5-6.5,27-17.6C3596.7,692.8,3596.9,686.9,3595.2,681.5c-1.9-6-11.4-3.4-9.5,2.6
				c3.1,9.8-4.4,20.1-14.5,21.6c-6.9,1-14.5,0.1-21.5,0.1h-154.1c-6.1,0-11.9,0.6-17.3-2.9c-4-2.6-7.3-6.9-8.1-11.7
				c-1-6,2.6-12.3,4.5-17.8l7.3-20.7l15-42.1l59-166.1c3.3-9.2,5.2-22,15.1-26.6c6.3-2.9,13.8-1.6,18.9,3.1c3.6,3.5,5,8.1,6.7,12.7
				l7.6,21.4l14.7,41.3c19.8,55.6,39.5,111.3,59.3,166.9l7.3,20.7C3587.8,690,3597.3,687.5,3595.2,681.5z"/>
			<path class="st3" d="M2642.4,1234.6c7.9-9.5,12.2-21.4,12.2-33.7l0,0c-0.1-29.2-23.7-52.9-52.9-52.9h-115.7
				c-29.2,0.1-52.9,23.7-53,52.9l0,0c0,12,4.1,23.7,11.7,33.1h-19.3c-52,0-94.5,42.5-94.5,94.5l0,0c0,52,42.5,94.5,94.5,94.5h206.5
				c52,0,94.5-42.5,94.5-94.5l0,0C2726.3,1280.1,2689.4,1239.9,2642.4,1234.6z"/>
			<path class="st3" d="M2581.2,1234.6c7.9-9.5,12.2-21.4,12.2-33.7l0,0c-0.1-29.2-23.7-52.9-52.9-52.9h-115.7
				c-29.2,0.1-52.9,23.7-52.9,52.9l0,0c0,12,4.1,23.7,11.7,33.1h-19.3c-52,0-94.5,42.5-94.5,94.5l0,0c0,52,42.5,94.5,94.5,94.5
				h206.5c52,0,94.5-42.5,94.5-94.5l0,0C2665.1,1280.1,2628.2,1239.9,2581.2,1234.6z"/>
			<path class="st5" d="M2584.6,1238.1c11.5-14.3,16.3-32.7,12-50.7c-3.8-15.4-13.7-28.6-27.4-36.5c-15.6-9-32.7-7.7-49.9-7.7h-89.5
				c-7.8,0-15.4,0.4-22.9,2.8c-16.9,5.6-30.3,18.6-36.5,35.2c-7.2,19.2-2.9,40.5,9.6,56.4l3.5-8.4c-11,0-22.1-0.5-33,1
				c-54.3,7.7-92.1,57.8-84.7,112.1c4.8,34.6,28.3,64.6,60.4,78c12.2,5.1,25.4,7.7,38.6,7.6c4.4,0,8.8,0,13.2,0h187.8
				c6.6,0.1,13.2-0.3,19.7-1.1c17-2.6,33.1-9.6,46.6-20.3c28-22.2,42-57.6,36.8-93c-5.2-35-29.8-64.9-62.6-77.7
				c-8.1-3.1-16.5-5.1-25.1-6.1c-6.2-0.7-6.2,9.1,0,9.8c33,3.9,62.2,27,73.6,58.3c11.3,31,4.4,66.5-18,90.9
				c-17.7,19.3-42.2,29.4-68.2,29.4h-177c-10.5,0-21,0.4-31.5-0.1c-33-1.4-62.8-21.7-77-51.4c-14.2-29.6-10.2-65.7,9.4-91.9
				c9.8-13.1,23-23.2,38.2-29.4c12.9-5.2,26.1-6.5,39.9-6.5h12.8c4.6,0,5.9-5.2,3.5-8.4c-19.9-25.3-8.8-64.1,21.6-74.8
				c12.6-4.4,27.4-2.8,40.6-2.8h84.1c5,0,10-0.2,15,0.6c15.7,2.7,29.1,12.9,35.9,27.4c7.7,16.4,5,36.3-6.3,50.3
				C2573.8,1236,2580.7,1243,2584.6,1238.1z"/>
			<path class="st3" d="M2595.5,1347.6h127.7c32.3,0,58.4,26.2,58.4,58.4v0c0,32.3-26.2,58.4-58.4,58.4h-127.7
				c-32.3,0-58.4-26.2-58.4-58.4v0C2537.1,1373.8,2563.2,1347.6,2595.5,1347.6z"/>
			<path class="st5" d="M2723.2,1342.7h-99.1c-12.7,0-26.3-1.1-38.9,0.9c-30.1,4.8-53,32.1-53,62.4c0,30,22.3,57,51.9,62.3
				c12.7,2.3,26.5,1.1,39.3,1.1c33.2,0,66.5,0.3,99.8,0c29.9-0.3,57-22.1,62.3-51.9c6.3-34.5-16.6-67.4-51.1-73.7
				C2730.7,1343.1,2726.9,1342.7,2723.2,1342.7c-6.3-0.1-6.3,9.7,0,9.8c28.6,0.3,52.9,23.5,53.5,52.4c0.5,27.6-21.2,52.3-49,54.5
				c-11.2,0.9-22.7,0.2-33.9,0.2h-59.6c-12.7,0-25.5,0-38.2,0c-24.9-0.1-46.9-17.1-52.7-41.5c-6.5-27.5,10.8-56.1,38-63.7
				c11.6-3.2,24.8-1.9,36.8-1.9h105.1C2729.5,1352.5,2729.5,1342.7,2723.2,1342.7z"/>
		</g>
	</g>
</g>
</svg>
