<?xml version="1.0" encoding="utf-8"?>
<!-- Generator: Adobe Illustrator 24.1.2, SVG Export Plug-In . SVG Version: 6.00 Build 0)  -->
<svg version="1.1" id="Layer_1" xmlns="http://www.w3.org/2000/svg" xmlns:xlink="http://www.w3.org/1999/xlink" x="0px" y="0px"
	 viewBox="0 0 5152.1 3283" style="enable-background:new 0 0 5152.1 3283;" xml:space="preserve">
<style type="text/css">
	.st0{fill:#5FC4E5;}
	.st1{fill:#FEBBB5;}
	.st2{fill:#FFEDB8;}
	.st3{fill:#FFFFFF;}
	.st4{fill:#B6CBD4;}
	.st5{fill:#52483F;}
	.st6{fill:none;}
	.st7{fill:#B1B479;}
	.st8{fill:none;stroke:#5FC4E5;stroke-width:3;stroke-miterlimit:10;stroke-dasharray:31.1276,31.1276;}
	.st9{fill:none;stroke:#5FC4E5;stroke-width:3;stroke-miterlimit:10;stroke-dasharray:30.9692,30.9692;}
</style>
<g id="Layer_2_1_">
	<g id="圖層_2">
		<g>
			<g>
				<g>
					<path class="st0" d="M1603.6,174.8c-4.7-2.1-9.5-4.1-14.2-6.1l1.2-2.8c4.7,2,9.5,4.1,14.2,6.2L1603.6,174.8z"/>
				</g>
				<g>
					<path class="st0" d="M1144.5,2367.8c-9.3,0-18.6-0.1-27.9-0.3l0.1-3c9.2,0.2,18.5,0.3,27.8,0.3l3.1,0l0,3L1144.5,2367.8z
						 M1178.5,2367.3l-0.1-3c10.3-0.3,20.6-0.7,30.8-1.3l0.2,3C1199.2,2366.6,1188.8,2367,1178.5,2367.3z M1085.7,2366.3
						c-10.3-0.5-20.6-1.2-30.9-2l0.2-3c10.2,0.8,20.6,1.4,30.8,2L1085.7,2366.3z M1240.3,2363.9l-0.2-3c10.2-0.8,20.5-1.8,30.7-2.9
						l0.3,3C1260.8,2362,1250.5,2363,1240.3,2363.9z M1024.1,2361.6c-10.2-1.1-20.6-2.3-30.7-3.6l0.4-3c10.1,1.3,20.4,2.5,30.6,3.6
						L1024.1,2361.6z M1301.7,2357.1l-0.4-3c10.2-1.4,20.4-2.9,30.5-4.6l0.5,3C1322.2,2354.2,1311.9,2355.8,1301.7,2357.1z
						 M962.7,2353.5c-10.2-1.6-20.4-3.4-30.5-5.3l0.6-2.9c10,1.9,20.3,3.7,30.4,5.3L962.7,2353.5z M1362.8,2347.1l-0.6-2.9
						c10.1-1.9,20.2-4,30.2-6.3l0.6,2.9C1383,2343,1372.8,2345.1,1362.8,2347.1z M901.9,2342.1c-10-2.2-20.2-4.5-30.1-6.9l0.7-2.9
						c10,2.4,20.1,4.8,30.1,6.9L901.9,2342.1z M1423.1,2333.7l-0.7-2.9c9.9-2.5,20-5.1,29.8-7.9l0.8,2.9
						C1443.1,2328.6,1433.1,2331.2,1423.1,2333.7z M841.9,2327.4c-9.9-2.7-19.9-5.6-29.7-8.6l0.9-2.9c9.8,3,19.8,5.8,29.6,8.5
						L841.9,2327.4z M1482.7,2317.1l-0.9-2.9c9.8-3,19.6-6.2,29.3-9.5l1,2.8C1502.4,2310.8,1492.5,2314,1482.7,2317.1z
						 M782.7,2309.5c-9.7-3.2-19.6-6.7-29.2-10.2l1-2.8c9.6,3.5,19.4,6.9,29.1,10.1L782.7,2309.5z M1541.3,2297.2l-1-2.8
						c9.6-3.5,19.3-7.3,28.8-11.1l1.1,2.8C1560.6,2289.9,1550.9,2293.6,1541.3,2297.2z M724.5,2288.4c-8.7-3.4-17.5-7-26.1-10.7
						l-2.5-1.1l1.2-2.8l2.5,1.1c8.6,3.6,17.4,7.2,26.1,10.7L724.5,2288.4z M1598.7,2274.2l-1.2-2.8c9.4-4.1,18.8-8.3,28.1-12.6
						l1.3,2.7C1617.6,2265.8,1608.1,2270.1,1598.7,2274.2z M667.6,2264.1c-9.3-4.3-18.7-8.8-28-13.3l1.3-2.7
						c9.2,4.5,18.6,9,27.9,13.3L667.6,2264.1z M1654.7,2248.1l-1.3-2.7c9.2-4.6,18.4-9.3,27.4-14.1l1.4,2.6
						C1673.2,2238.8,1663.9,2243.5,1654.7,2248.1z M612.1,2236.8c-9.1-4.8-18.3-9.8-27.2-14.8l1.5-2.6c8.9,5,18.1,10,27.1,14.7
						L612.1,2236.8z M1709.3,2219.1l-1.5-2.6c8.9-5,17.8-10.3,26.6-15.6l1.5,2.6C1727.2,2208.7,1718.2,2214,1709.3,2219.1z
						 M558.1,2206.5c-8.8-5.3-17.7-10.7-26.4-16.2l1.6-2.5c8.7,5.5,17.5,10.9,26.3,16.2L558.1,2206.5z M1762.2,2187.1l-1.6-2.5
						c8.6-5.5,17.3-11.2,25.7-17l1.7,2.5C1779.5,2175.9,1770.8,2181.6,1762.2,2187.1z M505.8,2173.4c-8.5-5.7-17.1-11.7-25.4-17.6
						l1.7-2.4c8.3,5.9,16.9,11.8,25.4,17.6L505.8,2173.4z M1813.3,2152.4l-1.8-2.4c8.3-6,16.6-12.1,24.8-18.3l1.8,2.4
						C1830,2140.2,1821.7,2146.4,1813.3,2152.4z M455.4,2137.5c-8.2-6.2-16.4-12.6-24.5-18.9l1.9-2.3c8,6.4,16.2,12.7,24.4,18.9
						L455.4,2137.5z M1862.5,2114.9l-1.9-2.3c8-6.4,16-13,23.8-19.7l1.9,2.3C1878.5,2101.9,1870.5,2108.5,1862.5,2114.9z M407,2099
						c-7.9-6.6-15.7-13.4-23.4-20.2l2-2.2c7.6,6.8,15.5,13.6,23.3,20.2L407,2099z M1909.7,2074.9l-2-2.2
						c7.6-6.8,15.2-13.9,22.7-20.9l2.1,2.2C1924.9,2061,1917.3,2068,1909.7,2074.9z M360.7,2057.9c-7.5-7-15-14.2-22.3-21.5l2.1-2.1
						c7.3,7.2,14.8,14.4,22.2,21.4L360.7,2057.9z M1954.6,2032.3l-2.1-2.1c7.2-7.2,14.5-14.7,21.5-22.1l2.2,2.1
						C1969.1,2017.6,1961.8,2025.1,1954.6,2032.3z M316.8,2014.4c-7.1-7.4-14.2-15-21.1-22.6l2.2-2c6.9,7.6,13.9,15.2,21,22.6
						L316.8,2014.4z M1997.1,1987.5l-2.2-2c6.8-7.6,13.7-15.4,20.3-23.2l2.3,1.9C2010.8,1972,2004,1979.8,1997.1,1987.5z
						 M275.2,1968.6c-6.7-7.8-13.4-15.8-19.8-23.7l2.3-1.9c6.5,7.9,13.1,15.9,19.8,23.7L275.2,1968.6z M2037.2,1940.3l-2.3-1.9
						c6.4-8,12.8-16.1,19-24.3l2.4,1.8C2050,1924.2,2043.6,1932.3,2037.2,1940.3z M236.2,1920.6c-6.3-8.1-12.5-16.4-18.5-24.7
						l2.4-1.8c6,8.3,12.2,16.6,18.5,24.7L236.2,1920.6z M2074.7,1891.1l-2.4-1.8c6-8.3,11.9-16.8,17.7-25.3l2.5,1.7
						C2086.7,1874.3,2080.7,1882.8,2074.7,1891.1z M199.8,1870.7c-5.8-8.5-11.6-17.1-17.2-25.7l2.5-1.6c5.6,8.6,11.3,17.2,17.1,25.6
						L199.8,1870.7z M2109.5,1839.9l-2.5-1.6c5.5-8.6,11-17.4,16.3-26.2l2.6,1.6C2120.5,1822.5,2115,1831.3,2109.5,1839.9z
						 M166.2,1818.8c-5.3-8.7-10.6-17.7-15.8-26.6l2.6-1.5c5.1,8.9,10.4,17.8,15.7,26.5L166.2,1818.8z M2141.5,1787l-2.6-1.5
						c5.1-8.9,10.1-18,14.9-27l2.6,1.4C2151.6,1768.9,2146.6,1778,2141.5,1787z M135.4,1765.2c-4.9-9-9.7-18.2-14.3-27.4l2.7-1.4
						c4.6,9.1,9.4,18.3,14.3,27.3L135.4,1765.2z M2170.6,1732.3l-2.7-1.3c4.6-9.2,9.1-18.5,13.4-27.8l2.7,1.3
						C2179.7,1713.8,2175.2,1723.2,2170.6,1732.3z M107.5,1710.1c-4.4-9.3-8.7-18.7-12.8-28.1l2.7-1.2c4.1,9.4,8.4,18.8,12.8,28.1
						L107.5,1710.1z M2196.7,1676.2l-2.8-1.2c1.2-2.8,2.4-5.5,3.6-8.3c2.8-6.7,5.6-13.5,8.3-20.2l2.8,1.1
						c-2.7,6.7-5.5,13.5-8.3,20.2C2199.1,1670.7,2197.9,1673.4,2196.7,1676.2z M82.6,1653.4c-3.9-9.5-7.7-19.2-11.3-28.8l2.8-1.1
						c3.6,9.6,7.4,19.2,11.2,28.7L82.6,1653.4z M2219.7,1618.8l-2.8-1c3.6-9.6,7-19.4,10.3-29.1l2.8,1
						C2226.8,1599.4,2223.3,1609.2,2219.7,1618.8z M60.8,1595.5c-3.4-9.7-6.6-19.6-9.7-29.4l2.9-0.9c3.1,9.8,6.3,19.6,9.7,29.3
						L60.8,1595.5z M2239.6,1560.2l-2.9-0.9c3-9.8,6-19.7,8.7-29.6l2.9,0.8C2245.6,1540.4,2242.6,1550.4,2239.6,1560.2z
						 M42.2,1536.6c-2.8-9.9-5.5-19.9-8.1-29.9l2.9-0.7c2.5,9.9,5.3,19.9,8.1,29.8L42.2,1536.6z M2256.3,1500.7l-2.9-0.7
						c2.5-9.9,4.9-20,7.1-30l2.9,0.6C2261.2,1480.6,2258.8,1490.7,2256.3,1500.7z M26.9,1476.6c-2.3-10-4.4-20.2-6.4-30.2l2.9-0.6
						c2,10,4.2,20.2,6.4,30.2L26.9,1476.6z M2269.7,1440.3l-2.9-0.6c1.9-10,3.8-20.3,5.4-30.4l3,0.5
						C2273.4,1420,2271.6,1430.2,2269.7,1440.3z M14.8,1416c-1.7-10.1-3.3-20.4-4.8-30.6l3-0.4c1.4,10.1,3.1,20.4,4.8,30.5
						L14.8,1416z M2279.7,1379.2l-3-0.4c1.4-10.1,2.7-20.4,3.8-30.6l3,0.3C2282.4,1358.8,2281.1,1369.1,2279.7,1379.2z M6.1,1354.7
						c-1.2-10.2-2.2-20.5-3.1-30.8l3-0.3c0.9,10.2,1.9,20.5,3.1,30.7L6.1,1354.7z M2286.5,1317.8l-3-0.2c0.8-10.2,1.6-20.6,2.1-30.8
						l3,0.2C2288,1297.2,2287.3,1307.5,2286.5,1317.8z M0.7,1293.1c-0.6-10.2-1.1-20.6-1.5-30.9l3-0.1c0.4,10.2,0.8,20.6,1.5,30.8
						L0.7,1293.1z M2289.9,1256l-3-0.1c0.3-10.2,0.5-20.6,0.5-30.8l3,0C2290.4,1235.4,2290.2,1245.8,2289.9,1256z M-1.5,1231.3
						c0-3.2,0-6.4,0-9.5c0-7.1,0.1-14.3,0.2-21.4l3,0.1c-0.1,7.1-0.2,14.2-0.2,21.4c0,3.2,0,6.3,0,9.5L-1.5,1231.3z M2287.1,1194.2
						c-0.2-10.3-0.6-20.6-1.1-30.8l3-0.1c0.5,10.2,0.9,20.6,1.1,30.9L2287.1,1194.2z M2.7,1169.6l-3-0.1c0.5-10.3,1.1-20.7,1.8-30.9
						l3,0.2C3.7,1149,3.1,1159.4,2.7,1169.6z M2284,1132.6c-0.8-10.2-1.7-20.5-2.8-30.7l3-0.3c1.1,10.2,2,20.6,2.8,30.8L2284,1132.6
						z M7.1,1108.1l-3-0.3c1-10.2,2.2-20.6,3.4-30.7l3,0.4C9.2,1087.6,8.1,1097.9,7.1,1108.1z M2277.6,1071.3
						c-1.3-10.2-2.8-20.4-4.4-30.5l3-0.5c1.6,10.1,3.1,20.4,4.4,30.6L2277.6,1071.3z M14.8,1046.9l-3-0.5
						c1.6-10.1,3.3-20.4,5.1-30.5l3,0.5C18,1026.5,16.3,1036.7,14.8,1046.9z M2268,1010.3c-1.9-10.1-3.9-20.2-6.1-30.2l2.9-0.6
						c2.2,10,4.2,20.2,6.1,30.3L2268,1010.3z M25.8,986.2l-2.9-0.6c2.1-10.1,4.4-20.2,6.8-30.2l2.9,0.7
						C30.1,966,27.9,976.1,25.8,986.2z M2255,950c-2.4-10-5-20-7.7-29.9l2.9-0.8c2.7,9.9,5.3,20,7.7,29.9L2255,950z M40.1,926.2
						l-2.9-0.8c2.7-9.9,5.5-19.9,8.4-29.8l2.9,0.9C45.5,906.3,42.7,916.3,40.1,926.2z M2238.7,890.5c-3-9.8-6.1-19.7-9.3-29.4
						l2.8-0.9c3.2,9.7,6.4,19.7,9.4,29.5L2238.7,890.5z M57.6,867l-2.9-0.9c3.2-9.7,6.6-19.6,10-29.3l2.8,1
						C64.2,847.5,60.8,857.3,57.6,867z M2219.3,832c-3.5-9.6-7.2-19.3-10.9-28.9l2.8-1.1c3.8,9.5,7.4,19.3,11,28.9L2219.3,832z
						 M78.4,808.9l-2.8-1.1c3.7-9.6,7.6-19.2,11.6-28.7l2.8,1.2C86,789.8,82.1,799.4,78.4,808.9z M2196.6,774.6
						c-4-9.4-8.2-18.9-12.5-28.2l2.7-1.2c4.3,9.3,8.5,18.8,12.5,28.3L2196.6,774.6z M102.3,752l-2.7-1.2c4.2-9.4,8.7-18.8,13.1-28
						l2.7,1.3C110.9,733.3,106.5,742.7,102.3,752z M2170.9,718.5c-4.5-9.2-9.2-18.4-14-27.5l2.7-1.4c4.8,9.1,9.5,18.3,14,27.6
						L2170.9,718.5z M129.2,696.5l-2.7-1.4c4.7-9.1,9.6-18.3,14.6-27.3l2.6,1.5C138.8,678.2,133.9,687.4,129.2,696.5z M2142.3,664
						c-5-8.9-10.2-17.9-15.4-26.7l2.6-1.5c5.3,8.8,10.5,17.8,15.5,26.8L2142.3,664z M159.1,642.4l-2.6-1.5
						c5.2-8.9,10.6-17.8,16.1-26.5l2.5,1.6C169.7,624.7,164.3,633.6,159.1,642.4z M2110.7,611c-5.5-8.6-11.1-17.3-16.8-25.8l2.5-1.7
						c5.7,8.5,11.4,17.2,16.9,25.9L2110.7,611z M191.8,590.1l-2.5-1.7c5.7-8.6,11.6-17.1,17.5-25.5l2.5,1.7
						C203.3,573,197.5,581.6,191.8,590.1z M2076.4,559.8c-5.9-8.3-12.1-16.7-18.2-24.9l2.4-1.8c6.2,8.2,12.3,16.6,18.3,25
						L2076.4,559.8z M227.3,539.6l-2.4-1.8c6.1-8.2,12.5-16.5,18.8-24.6l2.4,1.9C239.8,523.2,233.4,531.4,227.3,539.6z
						 M2039.3,510.5c-6.4-8-12.9-16-19.5-23.9l2.3-1.9c6.6,7.9,13.2,15.9,19.6,23.9L2039.3,510.5z M265.5,491.2l-2.3-1.9
						c6.6-7.9,13.3-15.8,20.1-23.5l2.3,2C278.8,475.4,272.1,483.3,265.5,491.2z M1999.6,463.3c-6.8-7.6-13.8-15.3-20.8-22.8l2.2-2.1
						c7,7.5,14,15.2,20.8,22.9L1999.6,463.3z M306.2,444.8l-2.2-2c7-7.5,14.2-15.1,21.3-22.4l2.1,2.1
						C320.3,429.8,313.2,437.3,306.2,444.8z M1957.4,418.3c-7.2-7.3-14.6-14.6-22-21.6l2.1-2.2c7.4,7.1,14.8,14.4,22,21.7
						L1957.4,418.3z M349.4,400.7l-2.1-2.2c7.4-7.1,14.9-14.3,22.5-21.2l2,2.2C364.3,386.5,356.7,393.6,349.4,400.7z M1912.9,375.6
						c-7.6-6.9-15.4-13.8-23.1-20.4l2-2.3c7.8,6.7,15.6,13.6,23.2,20.5L1912.9,375.6z M394.8,359l-2-2.3c7.7-6.7,15.7-13.4,23.6-20
						l1.9,2.3C410.4,345.6,402.5,352.3,394.8,359z M1866.1,335.4c-7.9-6.5-16.1-12.9-24.2-19.2l1.8-2.4c8.1,6.3,16.3,12.7,24.2,19.2
						L1866.1,335.4z M442.4,319.8l-1.8-2.4c8.1-6.3,16.4-12.6,24.6-18.7l1.8,2.4C458.8,307.2,450.5,313.5,442.4,319.8z
						 M1817.2,297.7c-8.3-6-16.7-12-25.2-17.8l1.7-2.5c8.5,5.8,17,11.8,25.2,17.9L1817.2,297.7z M492.1,283.2l-1.7-2.5
						c8.4-5.9,17-11.7,25.6-17.3l1.6,2.5C509.1,271.6,500.5,277.4,492.1,283.2z M1766.4,262.7c-8.6-5.6-17.4-11.1-26.1-16.5l1.6-2.6
						c8.8,5.4,17.6,10.9,26.2,16.5L1766.4,262.7z M543.6,249.4l-1.6-2.6c8.7-5.4,17.6-10.8,26.5-15.9l1.5,2.6
						C561.2,238.7,552.3,244,543.6,249.4z M1713.7,230.5c-8.9-5.1-17.9-10.2-27-15l1.4-2.6c9,4.9,18.1,10,27,15.1L1713.7,230.5z
						 M596.9,218.4l-1.4-2.6c9-4.9,18.2-9.8,27.3-14.5l1.4,2.7C615,208.6,605.8,213.5,596.9,218.4z M1659.4,201.2
						c-9.1-4.6-18.5-9.2-27.7-13.6l1.3-2.7c9.3,4.4,18.6,9,27.8,13.6L1659.4,201.2z M651.7,190.3l-1.3-2.7c9.2-4.4,18.7-8.8,28-13
						l1.2,2.7C670.4,181.5,660.9,185.8,651.7,190.3z M708,165.1l-1.1-2.8c9.5-3.9,19.2-7.8,28.7-11.4l1.1,2.8
						C727.2,157.4,717.5,161.2,708,165.1z M765.7,143.1l-1-2.8c9.7-3.4,19.5-6.7,29.3-9.9l0.9,2.9
						C785.2,136.4,775.3,139.7,765.7,143.1z M824.4,124.2l-0.8-2.9c9.9-2.9,19.9-5.6,29.8-8.2l0.8,2.9
						C844.2,118.6,834.2,121.4,824.4,124.2z M884.1,108.6l-0.7-2.9c10-2.3,20.2-4.6,30.2-6.6l0.6,2.9
						C904.2,104.1,894,106.3,884.1,108.6z M944.5,96.2l-0.5-3c10.1-1.8,20.4-3.4,30.5-4.9l0.4,3C964.8,92.8,954.6,94.5,944.5,96.2z
						 M1005.5,87.2l-0.4-3c10.2-1.2,20.5-2.3,30.7-3.3l0.3,3C1026,84.9,1015.7,86,1005.5,87.2z M1066.9,81.5l-0.2-3
						c10.2-0.7,20.6-1.2,30.9-1.6l0.1,3C1087.5,80.2,1077.1,80.8,1066.9,81.5z"/>
				</g>
				<g>
					<path class="st0" d="M1129,79l0-3c5.1-0.1,10.3-0.1,15.5-0.1v3C1139.3,78.9,1134.1,78.9,1129,79z"/>
				</g>
			</g>
			<g>
				<path class="st0" d="M1144.4,2318.8c-10.3,0-20.8-0.1-31-0.4l0.1-3c10.3,0.3,20.7,0.4,31,0.4L1144.4,2318.8z M1175.4,2318.4
					l-0.1-3c10.3-0.3,20.7-0.7,30.9-1.3l0.2,3C1196.2,2317.7,1185.8,2318.1,1175.4,2318.4z M1082.3,2317.1
					c-10.3-0.6-20.7-1.3-31-2.2l0.3-3c10.2,0.9,20.6,1.6,30.9,2.2L1082.3,2317.1z M1237.5,2315l-0.2-3c10.3-0.9,20.6-1.9,30.8-3
					l0.3,3C1258.1,2313.1,1247.8,2314.1,1237.5,2315z M1020.5,2311.9c-10.2-1.1-20.6-2.5-30.8-3.9l0.4-3c10.2,1.4,20.5,2.7,30.7,3.9
					L1020.5,2311.9z M1299.2,2308l-0.4-3c10.2-1.4,20.5-3,30.6-4.8l0.5,3C1319.7,2305,1309.4,2306.6,1299.2,2308z M959,2303.2
					c-10.2-1.7-20.4-3.6-30.5-5.7l0.6-2.9c10.1,2,20.3,3.9,30.4,5.6L959,2303.2z M1360.4,2297.6l-0.6-2.9c10.1-2,20.3-4.2,30.3-6.5
					l0.7,2.9C1380.7,2293.4,1370.5,2295.6,1360.4,2297.6z M898.1,2291c-10-2.3-20.2-4.8-30.2-7.4l0.8-2.9c9.9,2.6,20.1,5.1,30.1,7.4
					L898.1,2291z M1420.9,2283.8l-0.8-2.9c10-2.6,20-5.4,29.9-8.2l0.8,2.9C1441,2278.4,1430.9,2281.2,1420.9,2283.8z M838,2275.4
					c-9.9-2.9-19.9-5.9-29.7-9.1l0.9-2.9c9.8,3.2,19.8,6.2,29.6,9.1L838,2275.4z M1480.5,2266.4l-0.9-2.9c9.8-3.2,19.7-6.5,29.3-9.9
					l1,2.8C1500.3,2259.9,1490.4,2263.3,1480.5,2266.4z M778.9,2256.4c-9.7-3.4-19.5-7.1-29.1-10.8l1.1-2.8
					c9.6,3.7,19.4,7.3,29,10.7L778.9,2256.4z M1539.1,2245.7l-1.1-2.8c9.6-3.7,19.2-7.6,28.7-11.6l1.2,2.8
					C1558.4,2238.1,1548.7,2242,1539.1,2245.7z M721,2234c-1.1-0.5-2.2-0.9-3.4-1.4c-8.4-3.6-16.8-7.3-25.1-11l1.2-2.7
					c8.2,3.7,16.7,7.4,25,11c1.1,0.5,2.2,0.9,3.3,1.4L721,2234z M1596.4,2221.7l-1.2-2.7c9.4-4.2,18.8-8.7,28-13.2l1.3,2.7
					C1615.2,2213,1605.8,2217.5,1596.4,2221.7z M664.4,2208.4c-9.3-4.5-18.6-9.2-27.7-14l1.4-2.7c9.1,4.8,18.4,9.5,27.6,14
					L664.4,2208.4z M1652.2,2194.5l-1.4-2.7c9.1-4.8,18.3-9.7,27.3-14.7l1.5,2.6C1670.6,2184.7,1661.4,2189.7,1652.2,2194.5z
					 M609.5,2179.6c-9-5-18-10.3-26.9-15.5l1.5-2.6c8.8,5.3,17.8,10.5,26.8,15.5L609.5,2179.6z M1706.5,2164.2l-1.5-2.6
					c8.8-5.3,17.7-10.7,26.4-16.3l1.6,2.5C1724.2,2153.4,1715.3,2158.9,1706.5,2164.2z M556.2,2147.8c-8.7-5.5-17.4-11.2-25.9-17
					l1.7-2.5c8.5,5.8,17.2,11.5,25.9,17L556.2,2147.8z M1758.9,2130.8l-1.7-2.5c8.5-5.8,17.1-11.7,25.4-17.7l1.8,2.4
					C1776,2119,1767.4,2125,1758.9,2130.8z M504.8,2113c-8.4-6-16.8-12.2-24.9-18.5l1.8-2.4c8.2,6.2,16.5,12.4,24.9,18.4L504.8,2113
					z M1809.3,2094.6l-1.8-2.4c8.2-6.2,16.4-12.7,24.4-19.1l1.9,2.3C1825.7,2081.9,1817.5,2088.3,1809.3,2094.6z M455.4,2075.4
					c-8-6.5-16-13.1-23.9-19.8l2-2.3c7.8,6.7,15.8,13.3,23.8,19.8L455.4,2075.4z M1857.6,2055.5l-2-2.3c7.8-6.7,15.6-13.6,23.2-20.5
					l2,2.2C1873.3,2041.9,1865.5,2048.8,1857.6,2055.5z M408.2,2035c-7.6-6.9-15.3-14-22.7-21.2l2.1-2.2c7.4,7.1,15,14.2,22.7,21.1
					L408.2,2035z M1903.7,2013.8l-2.1-2.2c7.4-7.1,14.8-14.4,22-21.7l2.1,2.1C1918.5,1999.4,1911.1,2006.7,1903.7,2013.8z
					 M363.4,1992.1c-7.2-7.3-14.5-14.9-21.5-22.4l2.2-2c7,7.5,14.2,15,21.4,22.4L363.4,1992.1z M1947.2,1969.6l-2.2-2
					c7-7.5,14-15.2,20.8-22.9l2.3,2C1961.3,1954.3,1954.3,1962.1,1947.2,1969.6z M321.1,1946.7c-6.8-7.7-13.6-15.7-20.2-23.6
					l2.3-1.9c6.6,7.9,13.3,15.8,20.1,23.5L321.1,1946.7z M1988.3,1923l-2.3-1.9c6.6-7.9,13.1-16,19.5-24.1l2.4,1.9
					C2001.4,1907,1994.9,1915.1,1988.3,1923z M281.3,1898.9c-6.4-8.1-12.7-16.4-18.8-24.7l2.4-1.8c6.1,8.3,12.4,16.5,18.8,24.6
					L281.3,1898.9z M2026.6,1874.2l-2.4-1.8c6.1-8.3,12.2-16.7,18.1-25.1l2.5,1.7C2038.8,1857.4,2032.7,1865.9,2026.6,1874.2z
					 M244.4,1849c-5.9-8.4-11.7-17.1-17.4-25.7l2.5-1.6c5.7,8.6,11.5,17.2,17.4,25.7L244.4,1849z M2062.1,1823.3l-2.5-1.6
					c5.6-8.6,11.2-17.4,16.6-26.1l2.6,1.6C2073.4,1805.9,2067.8,1814.7,2062.1,1823.3z M210.3,1797.1c-5.4-8.8-10.8-17.7-15.9-26.7
					l2.6-1.5c5.2,8.9,10.5,17.9,15.9,26.6L210.3,1797.1z M2094.7,1770.5l-2.6-1.5c5.1-8.9,10.2-18,15.1-27l2.6,1.4
					C2104.9,1752.5,2099.8,1761.6,2094.7,1770.5z M179.2,1743.3c-4.9-9.1-9.7-18.3-14.4-27.5l2.7-1.4c4.6,9.2,9.5,18.4,14.4,27.5
					L179.2,1743.3z M2124.2,1715.9l-2.7-1.4c4.6-9.2,9.2-18.5,13.6-27.8l2.7,1.3C2133.4,1697.4,2128.9,1706.7,2124.2,1715.9z
					 M151.2,1687.8c-4.4-9.3-8.7-18.9-12.8-28.3l2.8-1.2c4.1,9.4,8.4,18.9,12.8,28.2L151.2,1687.8z M2150.7,1659.8l-2.7-1.2
					c1.6-3.6,3.2-7.3,4.7-11c2.5-5.8,4.9-11.7,7.3-17.6l2.8,1.1c-2.4,5.9-4.8,11.8-7.3,17.7
					C2153.8,1652.5,2152.2,1656.1,2150.7,1659.8z M126.3,1630.9c-3.8-9.6-7.6-19.3-11.2-29l2.8-1c3.6,9.6,7.3,19.4,11.2,28.9
					L126.3,1630.9z M2173.9,1602.2l-2.8-1c3.6-9.7,7.1-19.5,10.3-29.2l2.8,1C2180.9,1582.6,2177.4,1592.5,2173.9,1602.2z
					 M104.8,1572.6c-3.3-9.8-6.5-19.7-9.5-29.6l2.9-0.9c3,9.8,6.2,19.7,9.5,29.5L104.8,1572.6z M2193.8,1543.3l-2.9-0.9
					c3-9.8,5.9-19.8,8.7-29.7l2.9,0.8C2199.7,1523.5,2196.8,1533.5,2193.8,1543.3z M86.6,1513.3c-2.7-9.9-5.4-20-7.8-30.1l2.9-0.7
					c2.4,10,5.1,20.1,7.8,30L86.6,1513.3z M2210.3,1483.5l-2.9-0.7c2.4-10,4.8-20.1,6.9-30.2l2.9,0.6
					C2215,1463.3,2212.7,1473.5,2210.3,1483.5z M71.8,1452.9c-2.2-10.1-4.2-20.3-6.1-30.5l3-0.5c1.9,10.1,3.9,20.3,6.1,30.4
					L71.8,1452.9z M2223.3,1422.8l-3-0.5c1.9-10.1,3.6-20.4,5.2-30.5l3,0.5C2226.9,1402.3,2225.2,1412.6,2223.3,1422.8z
					 M60.5,1391.9c-1.6-10.2-3-20.5-4.3-30.7l3-0.4c1.3,10.2,2.7,20.5,4.3,30.7L60.5,1391.9z M2232.8,1361.4l-3-0.4
					c1.3-10.2,2.5-20.5,3.5-30.8l3,0.3C2235.3,1340.8,2234.1,1351.2,2232.8,1361.4z M52.8,1330.3c-1-10.2-1.9-20.7-2.6-30.9l3-0.2
					c0.7,10.3,1.6,20.6,2.6,30.9L52.8,1330.3z M2238.9,1299.6l-3-0.2c0.7-10.2,1.3-20.6,1.7-30.9l3,0.1
					C2240.2,1278.9,2239.6,1289.4,2238.9,1299.6z M48.5,1268.3c-0.4-10.3-0.7-20.7-0.9-31l3,0c0.1,10.3,0.4,20.7,0.9,31L48.5,1268.3
					z M2241.5,1237.6l-3,0c0.1-5.2,0.1-10.5,0.1-15.8c0-5.1,0-10.2-0.1-15.2l3,0c0.1,5,0.1,10.2,0.1,15.3
					C2241.6,1227.1,2241.6,1232.4,2241.5,1237.6z M50.6,1206.2l-3,0c0.1-10.3,0.4-20.8,0.9-31l3,0.1
					C51,1185.5,50.7,1196,50.6,1206.2z M2237.7,1175.6c-0.4-10.3-1-20.7-1.7-30.9l3-0.2c0.7,10.3,1.3,20.7,1.7,31L2237.7,1175.6z
					 M53.2,1144.4l-3-0.2c0.7-10.3,1.6-20.7,2.6-30.9l3,0.3C54.7,1123.7,53.9,1134.1,53.2,1144.4z M2233.4,1113.8
					c-1-10.2-2.2-20.6-3.4-30.8l3-0.4c1.3,10.2,2.4,20.6,3.5,30.9L2233.4,1113.8z M59.2,1082.8l-3-0.4c1.3-10.2,2.7-20.6,4.3-30.7
					l3,0.5C61.9,1062.2,60.5,1072.5,59.2,1082.8z M2225.6,1052.4c-1.6-10.2-3.3-20.4-5.2-30.5l3-0.5c1.9,10.1,3.6,20.4,5.2,30.6
					L2225.6,1052.4z M68.7,1021.6l-3-0.5c1.9-10.1,3.9-20.4,6.1-30.4l2.9,0.6C72.6,1001.3,70.6,1011.5,68.7,1021.6z M2214.4,991.5
					c-2.2-10-4.5-20.2-6.9-30.2l2.9-0.7c2.4,10,4.8,20.2,6.9,30.3L2214.4,991.5z M81.7,961l-2.9-0.7c2.5-10,5.1-20.1,7.8-30.1
					l2.9,0.8C86.7,941,84.1,951,81.7,961z M2199.7,931.3c-2.7-9.9-5.6-19.9-8.6-29.7l2.9-0.9c3,9.9,5.9,19.9,8.7,29.8L2199.7,931.3z
					 M98.1,901.3l-2.9-0.9c3-9.8,6.2-19.8,9.5-29.6l2.8,1C104.3,881.6,101.1,891.5,98.1,901.3z M2181.5,872.1
					c-3.3-9.7-6.8-19.6-10.3-29.2l2.8-1c3.6,9.7,7.1,19.5,10.4,29.3L2181.5,872.1z M118,842.7l-2.8-1c3.6-9.7,7.3-19.4,11.2-29
					l2.8,1.1C125.3,823.3,121.5,833,118,842.7z M2160.1,814.1c-2.4-6-4.9-12.1-7.5-18.1c-1.5-3.5-3-7-4.5-10.5l2.8-1.2
					c1.5,3.5,3,7,4.5,10.5c2.5,6,5.1,12.1,7.5,18.1L2160.1,814.1z M141.1,785.2l-2.7-1.2c4.1-9.4,8.4-18.9,12.8-28.3l2.7,1.3
					C149.5,766.3,145.2,775.8,141.1,785.2z M2135.3,757.2c-4.4-9.3-8.9-18.7-13.6-27.9l2.7-1.4c4.6,9.2,9.2,18.6,13.6,27.9
					L2135.3,757.2z M167.5,729.2l-2.7-1.4c4.6-9.2,9.5-18.4,14.4-27.5l2.6,1.4C176.9,710.8,172.1,720.1,167.5,729.2z M2107.4,701.9
					c-4.9-9-10-18.1-15.1-27l2.6-1.5c5.2,8.9,10.3,18,15.2,27.1L2107.4,701.9z M196.9,674.8l-2.6-1.5c5.2-8.9,10.5-17.9,15.9-26.6
					l2.6,1.6C207.4,657,202,665.9,196.9,674.8z M2076.3,648.3c-5.4-8.8-11-17.5-16.6-26.1l2.5-1.6c5.7,8.6,11.3,17.4,16.7,26.2
					L2076.3,648.3z M229.4,622.1l-2.5-1.6c5.7-8.6,11.5-17.3,17.4-25.7l2.5,1.7C240.9,604.9,235,613.5,229.4,622.1z M2042.4,596.5
					c-5.9-8.4-12-16.9-18.1-25.2l2.4-1.8c6.1,8.3,12.2,16.8,18.1,25.2L2042.4,596.5z M264.8,571.4l-2.4-1.8
					c6.1-8.3,12.5-16.6,18.8-24.7l2.4,1.9C277.2,554.8,270.9,563.1,264.8,571.4z M2005.5,546.7c-6.3-8.1-12.9-16.2-19.5-24.1
					l2.3-1.9c6.6,7.9,13.2,16,19.5,24.2L2005.5,546.7z M303,522.7l-2.3-1.9c6.6-7.9,13.4-15.9,20.2-23.6l2.3,2
					C316.4,506.9,309.6,514.8,303,522.7z M1965.9,499.1c-6.8-7.7-13.8-15.4-20.8-23l2.2-2c7,7.5,14,15.3,20.8,23L1965.9,499.1z
					 M343.9,476.2l-2.2-2c7-7.5,14.3-15.1,21.5-22.4l2.1,2.1C358.1,461.1,350.9,468.7,343.9,476.2z M1923.7,453.8
					c-7.2-7.3-14.6-14.6-22-21.7l2.1-2.2c7.4,7.1,14.9,14.5,22.1,21.8L1923.7,453.8z M387.4,432.1l-2.1-2.2
					c7.4-7.1,15.1-14.3,22.7-21.2l2,2.2C402.4,417.9,394.8,425,387.4,432.1z M1879,410.9c-7.6-6.9-15.4-13.8-23.2-20.5l2-2.3
					c7.8,6.7,15.7,13.6,23.3,20.5L1879,410.9z M433.3,390.5l-2-2.3c7.8-6.7,15.9-13.4,23.9-19.9l1.9,2.3
					C449.1,377.2,441.1,383.8,433.3,390.5z M1832,370.7c-8-6.5-16.2-12.9-24.3-19.1l1.8-2.4c8.2,6.2,16.4,12.7,24.4,19.2L1832,370.7
					z M481.5,351.6l-1.8-2.4c8.2-6.3,16.6-12.5,25-18.5l1.8,2.4C498,339.1,489.6,345.3,481.5,351.6z M1782.7,333.1
					c-8.3-6-16.9-12-25.4-17.7l1.7-2.5c8.5,5.8,17.1,11.7,25.5,17.8L1782.7,333.1z M531.8,315.4l-1.7-2.5c8.5-5.8,17.3-11.5,26-17
					l1.6,2.5C549,303.9,540.3,309.6,531.8,315.4z M1731.5,298.4c-8.7-5.5-17.5-11-26.3-16.2l1.5-2.6c8.8,5.3,17.7,10.8,26.4,16.3
					L1731.5,298.4z M584,282.1l-1.5-2.6c8.8-5.3,17.9-10.5,26.9-15.6l1.5,2.6C601.9,271.7,592.8,276.9,584,282.1z M1678.4,266.7
					c-9-5-18.1-10-27.2-14.7l1.4-2.7c9.1,4.8,18.3,9.7,27.3,14.8L1678.4,266.7z M638.1,251.9l-1.4-2.7c9.1-4.8,18.5-9.5,27.7-14
					l1.3,2.7C656.5,242.4,647.2,247.1,638.1,251.9z M1623.5,238c-9.2-4.5-18.6-8.9-28-13.2l1.2-2.7c9.4,4.2,18.8,8.7,28.1,13.2
					L1623.5,238z M693.8,224.7l-1.2-2.7c8.2-3.7,16.6-7.4,25-10.9c1.2-0.5,2.3-1,3.5-1.5l1.2,2.8c-1.2,0.5-2.3,1-3.5,1.5
					C710.4,217.3,702,221,693.8,224.7z M1567.2,212.4c-9.5-4-19.2-7.9-28.7-11.6l1.1-2.8c9.6,3.7,19.3,7.6,28.8,11.6L1567.2,212.4z
					 M750.9,200.7l-1.1-2.8c9.6-3.7,19.4-7.3,29.1-10.8l1,2.8C770.3,193.4,760.5,197,750.9,200.7z M1509.4,190.1
					c-9.7-3.4-19.6-6.8-29.3-9.9l0.9-2.9c9.8,3.2,19.7,6.5,29.4,9.9L1509.4,190.1z M809.3,180.1l-0.9-2.9c9.8-3.2,19.8-6.2,29.7-9.1
					l0.8,2.9C829,173.9,819.1,176.9,809.3,180.1z M1450.5,171.1c-9.9-2.9-19.9-5.6-29.9-8.2l0.8-2.9c10,2.6,20,5.4,29.9,8.3
					L1450.5,171.1z M868.7,162.8l-0.8-2.9c10-2.6,20.1-5.1,30.2-7.4l0.7,2.9C888.8,157.7,878.7,160.2,868.7,162.8z M1390.5,155.5
					c-10-2.3-20.2-4.5-30.3-6.5l0.6-2.9c10.1,2,20.3,4.2,30.4,6.5L1390.5,155.5z M929.1,148.9l-0.6-2.9c10.1-2,20.4-3.9,30.5-5.6
					l0.5,3C949.4,145,939.2,146.9,929.1,148.9z M1329.8,143.4c-10.1-1.7-20.4-3.3-30.6-4.8l0.4-3c10.2,1.4,20.5,3,30.7,4.8
					L1329.8,143.4z M990.1,138.6l-0.4-3c10.2-1.4,20.6-2.7,30.8-3.9l0.3,3C1010.7,135.8,1000.3,137.1,990.1,138.6z M1268.5,134.7
					c-10.2-1.1-20.6-2.2-30.8-3l0.3-3c10.3,0.9,20.7,1.9,30.9,3L1268.5,134.7z M1051.7,131.7l-0.2-3c10.3-0.9,20.7-1.6,31-2.2l0.2,3
					C1072.3,130.1,1061.9,130.8,1051.7,131.7z M1206.8,129.5c-10.2-0.6-20.6-1-30.9-1.3l0.1-3c10.3,0.3,20.8,0.7,31,1.3
					L1206.8,129.5z M1113.5,128.2l-0.1-3c10.3-0.3,20.7-0.4,31.1-0.4l0.4,0v3l-0.4,0C1134.2,127.8,1123.8,127.9,1113.5,128.2z"/>
			</g>
		</g>
		
			<ellipse transform="matrix(0.1602 -0.9871 0.9871 0.1602 1179.2018 1894.0958)" class="st1" cx="1702.7" cy="254" rx="47.6" ry="47.6"/>
		<circle class="st2" cx="1863.5" cy="2136.4" r="47.6"/>
		<path class="st3" d="M1906.2,2136.4c-0.2,17.8-11.3,34.3-28.3,40.2c-17.2,6-36.4,0.6-47.9-13.5c-11.2-13.9-12.3-34-2.9-49.2
			s27.7-23.1,45.1-19.4C1891.9,2098.9,1906.1,2116.3,1906.2,2136.4c0.1,6.3,9.9,6.3,9.8,0c-0.2-22-13.9-41.6-34.4-49.3
			c-20.4-7.7-44.6-1.2-58.4,15.7c-14,17-16.2,41.6-4.7,60.6c11.5,18.9,33.6,28.7,55.3,24.5c24.5-4.6,42-26.9,42.3-51.5
			C1916.1,2130.1,1906.3,2130.1,1906.2,2136.4z"/>
		<path class="st4" d="M1647.3,1381.5c0,0,165.9,422.1,100.5,1076.3h-162c0,0-4.4-498.7-128.8-797c0,0-5.7,320.3-232.2,797H1074
			c0,0,95.6-273.2,68.3-641.3s142-435,142-435H1647.3z"/>
		<path class="st3" d="M1750.8,2453.4c0,0,160.3-22.4,160.3,78.9h-294.7l-4.1-82L1750.8,2453.4z"/>
		<path class="st5" d="M1752.1,2458.1C1751,2458.3,1750.8,2458.3,1752.1,2458.1c1-0.1,2-0.3,3.1-0.4c3.8-0.4,7.7-0.7,11.5-1
			c12.4-0.8,24.8-0.9,37.2-0.1c28.7,1.6,61.7,7.3,83.3,28.1c13.1,12.6,18.9,29.6,19,47.5l4.9-4.9h-282.6c-3.7,0-7.9-0.6-11.5,0
			c-0.2,0-0.3,0-0.5,0l4.9,4.9l-3.6-71.7l-0.5-10.3l-4.9,4.9l121.4,2.7l17.1,0.4c6.3,0.1,6.3-9.7,0-9.8l-121.4-2.7l-17.1-0.4
			c-2.7,0-4.9,2.2-4.9,4.9l3.6,71.7l0.5,10.3c0,2.7,2.2,4.8,4.9,4.9h258.3c11.9,0,24,0.6,35.9,0c0.2,0,0.3,0,0.5,0
			c2.7,0,4.9-2.2,4.9-4.9c-0.1-17.8-5.2-35.1-16.7-48.9c-10.3-12.4-24.7-20.6-39.7-26.1c-28-10.3-59.3-12-88.9-10.5
			c-7.1,0.4-14.2,0.9-21.3,1.9C1743.2,2449.6,1745.9,2459,1752.1,2458.1z"/>
		<path class="st5" d="M1788.6,2487l24-32.8c3.7-5.1-4.8-10-8.5-4.9l-24,32.8C1776.4,2487.1,1784.9,2492,1788.6,2487z"/>
		<path class="st5" d="M1760.4,2487l24-32.8c3.7-5.1-4.8-10-8.5-4.9l-24,32.8C1748.2,2487.1,1756.7,2492,1760.4,2487z"/>
		<path class="st4" d="M1287.7,818.8c42.9-21.1,96.3-33.7,154.1-33.7s111.3,12.5,154.1,33.7c61.9,30.5,102,78.9,102,133.4v332.5
			c0,63.5-58.8,115.4-130.7,115.4h-250.7c-71.9,0-130.7-51.9-130.7-115.4V952.2C1185.8,897.7,1225.8,849.3,1287.7,818.8z"/>
		<polygon class="st3" points="1502.1,662.9 1502.1,801.2 1441.9,859.5 1381.6,801.2 1381.6,662.9 		"/>
		<path class="st5" d="M1497.2,662.9v138.3l1.4-3.5l-52.9,51.1l-7.4,7.2h6.9l-52.8-51.1l-7.4-7.2l1.4,3.5V662.9l-4.9,4.9h120.6
			c6.3,0,6.3-9.8,0-9.8h-120.6c-2.7,0-4.9,2.2-4.9,4.9v95.8c0,13.8-0.4,27.7,0,41.5c0.1,3.9,2.7,5.7,5.3,8.3l18.5,17.8l37.9,36.7
			c1.9,1.9,5,1.9,6.9,0l32.2-31.1l20.7-20c2.8-2.8,8.4-6.4,8.9-10.7c0.3-3.5,0-7.2,0-10.6V662.9
			C1507,656.6,1497.2,656.6,1497.2,662.9z"/>
		<path class="st3" d="M1533.8,820.8l-83.6,80.8l-11.9,11.5h6.9l-83.6-80.8l-11.9-11.4c-4.5-4.4-11.4,2.5-6.9,6.9l83.6,80.8
			l11.9,11.5c1.9,1.9,5,1.9,6.9,0l83.6-80.8l11.9-11.5C1545.3,823.4,1538.4,816.5,1533.8,820.8L1533.8,820.8z"/>
		<path class="st3" d="M1305.6,810.8c0,0,69.3,360.6,61.1,625.3h-179.8C1186.9,1436.1,892.9,863.9,1305.6,810.8z"/>
		<path class="st3" d="M1574.6,809.3c0,0-4.8,447.6-28.8,626.7H1721C1721,1436.1,1895.7,877.2,1574.6,809.3z"/>
		<path class="st5" d="M1306.5,936.5l-48.1,52.6l-6.8,7.4c-1.2,1.2-1.7,3.1-1.3,4.8l24.6,67.3l39,106.8l9,24.6
			c2.1,5.9,11.6,3.3,9.4-2.6l-24.6-67.3l-39-106.8l-9-24.6l-1.3,4.8l48.1-52.6l6.8-7.4C1317.6,938.8,1310.7,931.9,1306.5,936.5
			L1306.5,936.5z"/>
		<path class="st5" d="M1239.5,863.9v81.6c0,2,1.5,4.3,3.6,4.7l50.9,10.4c6.2,1.3,8.8-8.2,2.6-9.4l-50.9-10.4l3.6,4.7v-81.6
			C1249.3,857.6,1239.5,857.6,1239.5,863.9L1239.5,863.9z"/>
		
			<ellipse transform="matrix(0.2292 -0.9734 0.9734 0.2292 634.6266 1904.4496)" class="st5" cx="1519.8" cy="551.5" rx="86.3" ry="118.9"/>
		
			<ellipse transform="matrix(0.7071 -0.7071 0.7071 0.7071 2.9979 1120.8434)" class="st5" cx="1354.5" cy="556.8" rx="118.9" ry="86.3"/>
		<path class="st3" d="M1313.9,628.1c4.2,0,8.4,0.6,12.5,1.8c-7.6-63.1,10.5-129.7,114.9-134.7c102.1-4.8,123.5,66.1,116.4,147.9
			c-4,46.2-15,105.5-59.7,129.3c-54.1,28.9-125-1.4-152.3-68.2c-8.1,8.2-17.7,15-30.2,15c-24.7,0-46.3-27.4-46.3-52.1
			C1269.2,642.4,1289.2,628.1,1313.9,628.1z"/>
		<path class="st5" d="M1313.9,633c3.8,0.1,7.5,0.6,11.2,1.6c2.8,0.8,6.6-1.5,6.2-4.7c-4.7-39.1,0.8-83.4,35.3-107.9
			c22-15.6,49.6-20.9,76-22c24.6-1,50.6,2.1,71.5,16.1c37.1,24.8,41.7,75.1,39.5,115.8c-1.5,26.7-5.1,53.9-13.9,79.2
			c-8.8,25.1-24,47.8-48.7,59.3c-48.9,22.7-104.6-5.5-130.9-48.7c-3.7-6-6.9-12.3-9.6-18.8c-1.4-3.3-5.3-5-8.2-2.2
			c-8.2,8.2-18.3,14.8-30.4,13.3c-10.4-1.3-19.5-8-26-16c-12.2-15-17.6-39.5-2.2-54.3C1291.7,636,1303,633.1,1313.9,633
			c6.3-0.1,6.4-9.9,0-9.8c-12.3,0.1-24.6,3.3-34.3,11.1c-9.4,7.5-14.6,18.6-15.2,30.6c-1.3,24.9,17.5,52.7,42.4,58.2
			c16.5,3.7,31-3.9,42.4-15.4l-8.2-2.2c11.3,27.4,30.3,51.3,55.9,66.5c23,13.7,50.5,19.5,76.9,14.2c28-5.6,50.8-23.6,64.6-48.3
			c14.1-25.3,19.8-54.5,23-83c5.1-45.2,5.6-100.9-28.6-135.9c-17.3-17.7-41.3-25.9-65.5-28.2c-29.8-2.9-62.5,0.8-89.8,13.6
			c-20.5,9.5-37.3,25.7-46.7,46.3c-9,19.7-11.5,41.5-10.6,63c0.2,5.4,0.7,10.8,1.4,16.2l6.2-4.7c-4.5-1.2-9.1-1.9-13.8-2
			C1307.6,623.1,1307.6,632.9,1313.9,633z"/>
		<path class="st3" d="M1477.4,718.8c0,0,0.7,25.6-23.5,25.6c-25.9,0-24.2-25.6-24.2-25.6"/>
		<path class="st5" d="M1472.5,718.8c0.2,3.7-0.6,7.3-2.1,10.6c-3.2,7.3-9.9,10.3-17.6,10.1c-7.3-0.2-13.8-3.6-16.5-10.6
			c-1.4-3.2-1.9-6.6-1.6-10.1c0.4-6.3-9.4-6.3-9.8,0c-0.6,10.2,4.2,21.3,13.1,26.6c7.7,4.6,18.5,5.3,26.8,2.1
			c7.2-2.7,12.3-8.4,15.1-15.5c1.7-4.2,2.5-8.7,2.4-13.2C1482.1,712.5,1472.3,712.5,1472.5,718.8L1472.5,718.8z"/>
		<circle class="st5" cx="1499.6" cy="663.4" r="7.1"/>
		<circle class="st5" cx="1405.6" cy="663.4" r="7.1"/>
		<line class="st6" x1="1453.5" y1="675.2" x2="1453.5" y2="706.8"/>
		<path class="st5" d="M1448.6,675.2v31.6c0,6.3,9.8,6.3,9.8,0v-31.6C1458.4,668.9,1448.6,668.9,1448.6,675.2z"/>
		<path class="st3" d="M1295.6,664.5c0,0,10-7.8,21.5-3.4s15.5,21.4,6.8,24.8s-15.6-1-16.9-7.8s5.9-10.5,16.5-11"/>
		<path class="st5" d="M1298.1,668.7c4.2-3.2,9.9-4.9,15.1-3.7c5.7,1.3,10.4,6.5,10.5,12.5c0.1,5.5-7.5,6.2-10.6,2.5
			c-5.3-6.4,6.7-7.8,10.5-8c6.3-0.4,6.3-10.1,0-9.8c-8.3,0.5-20.1,2.8-21.4,12.8c-1.2,9.4,7.4,17.2,16.5,16.9s15.5-6.4,14.7-15.6
			c-0.8-8.6-6.2-16.1-14.1-19.6c-8.3-3.4-18.9-1.9-26.1,3.5C1288.2,664,1293,672.5,1298.1,668.7L1298.1,668.7z"/>
		<path class="st5" d="M1568.3,630.8c-31.9,2.4-64.5-66-64.5-66c-29.4,71.7-94.7,36.8-107.7-2.8c0,0-14.3,60.9-75.7,67.1
			c0,0-96-205.4,109.3-221.1C1615.9,393.9,1600.2,628.4,1568.3,630.8z"/>
		<path class="st4" d="M1461,654.4c0.2,16.6,10.6,31.5,26.2,37.2c15.3,5.6,33.4,0.6,43.7-12c10.4-12.8,12.1-31.2,3.5-45.4
			c-8.7-14.3-25.5-21.7-41.9-18.4C1474.2,619.3,1461.3,636,1461,654.4c-0.1,6.3,9.7,6.3,9.8,0c0.2-12.3,7.8-23.8,19.6-27.9
			c15.4-5.6,32.5,2.4,38.1,17.8c5.6,15.4-2.4,32.5-17.8,38.1s-32.5-2.4-38.1-17.8c-1.2-3.3-1.8-6.7-1.8-10.2
			C1470.7,648.1,1460.9,648.1,1461,654.4z"/>
		<path class="st4" d="M1367.1,654.4c0.2,16.6,10.6,31.5,26.2,37.2c15.3,5.6,33.4,0.6,43.7-12c10.4-12.8,12.1-31.2,3.5-45.4
			c-8.7-14.3-25.5-21.7-41.9-18.4C1380.2,619.3,1367.4,636,1367.1,654.4c-0.1,6.3,9.7,6.3,9.8,0c0.2-12.3,7.8-23.8,19.6-27.9
			c15.4-5.6,32.5,2.4,38.1,17.8c5.6,15.4-2.4,32.5-17.8,38.1s-32.5-2.4-38.1-17.8c-1.2-3.3-1.8-6.7-1.8-10.2
			C1376.7,648.1,1367,648.1,1367.1,654.4z"/>
		<path class="st4" d="M1467.8,638.1h-28.6c-6.3,0-6.3,9.8,0,9.8h28.6C1474.1,647.9,1474.1,638.1,1467.8,638.1z"/>
		<path class="st3" d="M1322.3,1421.8c0,0,120.5,4.3,123.1,78.7c2.7,74.3-109.6,7.2-140.8,15c-31.1,7.7-49.7-41.8-29-64.3
			C1296.4,1428.7,1286.1,1417,1322.3,1421.8z"/>
		<path class="st5" d="M1322.3,1426.7c20.6,0.9,40.9,4.8,60.3,11.6c15,5.2,29.9,12.7,41.2,24.1c11.7,11.7,17.8,27.9,16.6,44.4
			c-0.4,6.3-2.2,12.9-6.5,17.2c-3.8,3.8-9.2,5.8-14.7,6.5c-15.6,2.1-32.1-2.4-47-6.3c-15.9-4.2-31.5-9.6-47.6-12.7
			c-5.9-1.1-12-2.1-18-1.4c-3.7,0.5-7.2,1.6-11.1,1.1c-3.7-0.6-7.3-2.1-10.2-4.5c-13.5-10.6-18-33.8-9-48.4
			c2.7-4.4,6.7-8.1,9.8-12.3c2.5-3.5,4.7-7.2,6.9-10.9c3.3-5.6,5.5-8.8,12.3-9.4C1311,1425.3,1316.8,1426,1322.3,1426.7
			c2.7,0.4,4.9-2.5,4.9-4.9c0-2.9-2.3-4.6-4.9-4.9c-9.3-1.2-20.9-2.9-29.2,2.9c-6.5,4.6-9.6,12.7-13.9,19.1
			c-3.2,4.6-7.2,8.5-10.4,13.1c-2.8,4.2-4.8,8.9-5.8,13.9c-2.1,10.5-0.8,21.4,3.5,31.3c3.8,8.8,10.3,17.1,19.2,21.2
			c4.5,2.1,9.4,3.1,14.4,2.8c2.3-0.2,4.5-0.6,6.7-1.1c1-0.2,2-0.3,3-0.3c6.7-0.2,12.7,1.2,19.4,2.8c8.5,2,17,4.5,25.4,6.9
			c17.6,5,35.6,10.4,54,11.2c14.5,0.6,30.7-2.9,37.6-17.1c7.9-16.2,4.5-37.9-4.1-53.1c-8.7-15.4-23.4-26.5-39.1-34.2
			c-15.3-7.4-31.7-12.2-48.4-15.3c-10.1-1.9-20.5-3.6-30.8-3.9c-0.5,0-1-0.1-1.6-0.1C1316,1416.7,1316,1426.5,1322.3,1426.7z"/>
		<path class="st5" d="M1387.6,1472c7.4,4,14.6,8.3,21.5,13.1c11,7.5,23.2,16.1,29.9,27.9c3.1,5.5,11.6,0.6,8.5-4.9
			c-7.2-12.7-19.9-22.2-31.7-30.3c-7.4-5.2-15.1-9.9-23.1-14.2C1386.9,1460.6,1382,1469,1387.6,1472L1387.6,1472z"/>
		<path class="st5" d="M1365.9,1495.7c7.4,4,14.6,8.3,21.5,13.1c11,7.4,23.2,16.1,29.9,27.9c3.1,5.5,11.6,0.6,8.5-4.9
			c-7.2-12.7-19.9-22.2-31.7-30.3c-7.4-5.2-15.1-9.9-23.1-14.2C1365.3,1484.2,1360.3,1492.7,1365.9,1495.7L1365.9,1495.7z"/>
		<path class="st3" d="M1173,857.5c0,0-152.2,79.7-189.6,232.3c-38.8,158.2,0.8,424.8,340.1,447.8l32.2-123.2
			c0,0-150.4-69.1-154.5-175.1C1198.2,1165,1252.9,922.3,1173,857.5z"/>
		<path class="st5" d="M1308,1418.2l-22.8,87.2l-3.3,12.5c-1.6,6.1,7.8,8.7,9.4,2.6l22.8-87.2l3.3-12.5
			C1319,1414.7,1309.6,1412.1,1308,1418.2z"/>
		<path class="st5" d="M1328.1,1539.6l28.2-107.8l4-15.4c0.5-1.9-0.3-4.6-2.3-5.5c-21-9.7-40.9-22.2-59.7-35.6
			c-34.3-24.6-68.1-56.3-83.9-96.3c-7.1-18-9.2-36.4-8.4-55.7c0.8-19,2.8-37.9,4.7-56.8c5-49.7,10.4-99.6,10.8-149.6
			c0.2-24.4-0.8-48.8-4.4-73c-3.1-20.6-8.2-41.2-17.7-59.8c-2.1-4-4.4-7.9-7-11.6c-3.5-5.2-12-0.3-8.5,4.9
			c11.3,16.3,17.3,35.6,21.2,54.9c4.7,23.5,6.2,47.5,6.5,71.4c0.6,50.5-4.5,100.9-9.6,151.1c-2,20.2-4.2,40.4-5.4,60.7
			c-1.1,18.5-0.8,36.8,4.5,54.8c12.6,42.8,45.2,77.1,79.6,103.9c14.5,11.3,29.7,21.5,45.6,30.8c8.2,4.8,16.7,10.1,25.5,13.7
			c0.4,0.2,0.8,0.4,1.2,0.6l-2.3-5.5l-28.2,107.8l-4,15.4C1317,1543.1,1326.5,1545.7,1328.1,1539.6L1328.1,1539.6z"/>
		<path class="st3" d="M1605,1402.7c0,0-120.5,4.3-123.1,78.6c-2.7,74.3,109.6,7.2,140.8,15c31.1,7.7,49.7-41.8,29-64.3
			C1630.9,1409.7,1641.2,1397.9,1605,1402.7z"/>
		<path class="st5" d="M1605,1397.9c-23.5,0.9-46.6,5.6-68.5,14c-16.3,6.3-32.5,15.3-43.9,28.9c-12.3,14.5-17.7,33.7-15,52.5
			c6.1,39.8,55.2,28,81.9,20.8c16.5-4.4,32.9-10.4,49.9-12.9c2.8-0.4,5.6-0.6,8.4-0.5c0.7,0,1.3,0.1,2,0.1c0.8,0.1-0.6-0.1,0.8,0.1
			c2.3,0.6,4.7,0.9,7.1,1.1c9.8,0.5,19.1-4.3,25.4-11.6c13.1-15.2,17.1-40.9,5.1-57.8c-3.3-4.6-7.3-8.5-10.4-13.1
			c-2.3-3.5-4.3-7.2-6.5-10.7c-4.4-6.9-10-10.8-18.2-11.7C1617.1,1396.4,1611,1397.1,1605,1397.9c-2.7,0.3-4.9,2-4.9,4.9
			c0,2.4,2.3,5.2,4.9,4.9c5.7-0.7,11.6-1.6,17.3-0.9c2.9,0.3,5.6,1.3,7.1,2.6c4.8,4.3,7.9,12.3,12,18c3,4.1,6.9,7.6,9.5,11.9
			c2.3,3.8,3.7,8,4.3,12.4c1.1,9-0.7,18.1-5.1,26c-3.9,7-10.1,13.3-18.4,14.5c-3.9,0.5-7.5-0.6-11.3-1.1c-2.6-0.3-5.3-0.3-7.9,0
			c-15.4,1.3-30.4,6.5-45.1,10.7c-16,4.5-32.4,9.5-49.1,10.1c-6.3,0.3-13.2-0.2-18.6-2.4c-5-2-8.9-6.1-10.8-11.2
			c-5.8-14.8-1.2-33.5,7.3-46.3c8.9-13.2,23-22,37.3-28.4c22.2-9.8,46.6-14.2,70-15.9l1.3-0.1
			C1611.3,1407.4,1611.3,1397.6,1605,1397.9z"/>
		<path class="st5" d="M1534.8,1444.4c-8,4.3-15.7,9-23.1,14.2c-11.8,8.2-24.5,17.6-31.7,30.3c-3.1,5.5,5.4,10.4,8.5,4.9
			c6.7-11.8,18.9-20.5,29.9-27.9c6.9-4.7,14.1-9.1,21.5-13.1C1545.4,1449.9,1540.4,1441.4,1534.8,1444.4L1534.8,1444.4z"/>
		<path class="st5" d="M1556.5,1468.1c-8,4.3-15.7,9-23.1,14.2c-11.8,8.2-24.5,17.6-31.7,30.3c-3.1,5.5,5.4,10.4,8.5,4.9
			c6.7-11.8,18.9-20.5,29.9-27.9c6.9-4.7,14.1-9.1,21.5-13.1C1567,1473.6,1562.1,1465.2,1556.5,1468.1L1556.5,1468.1z"/>
		<path class="st3" d="M1647.5,844.9c159.7,16.1,456.5,540.6-39.2,677.2l-37.2-132.6c0,0,122.3-58.2,88-188
			C1624.1,1068.9,1522,832.3,1647.5,844.9z"/>
		<path class="st5" d="M1590.7,949.9l48.1,52.6l6.8,7.4l-1.3-4.8l-24.6,67.3l-39,106.8l-9,24.6c-2.2,5.9,7.3,8.5,9.4,2.6l24.6-67.3
			l39-106.8l9-24.6c0.5-1.7,0-3.5-1.3-4.8l-48.1-52.6l-6.8-7.4C1593.3,938.3,1586.4,945.3,1590.7,949.9L1590.7,949.9z"/>
		<path class="st5" d="M1654.8,870.4V952l3.6-4.7l-50.9,10.4c-6.2,1.3-3.6,10.7,2.6,9.4l50.9-10.4c2.1-0.6,3.6-2.5,3.6-4.7v-81.6
			C1664.5,864.1,1654.8,864.1,1654.8,870.4L1654.8,870.4z"/>
		<path class="st5" d="M1654.4,1202.8c5.6,21.6,7.7,44.2,4.1,66.3c-3,18-9.4,35.2-18.9,50.7c-14,23.2-34.2,42.6-56.6,57.2
			c-4.6,3.1-9.4,5.9-14.4,8.3c-1.9,0.9-2.8,3.6-2.3,5.5l31.7,113.1l5.5,19.6c1.7,6.1,11.1,3.5,9.4-2.6l-30.1-107.2l-7.1-25.4
			l-2.3,5.5c14.9-7.1,28.6-17.6,40.8-28.6c25.8-23.3,45.5-53.7,52.6-88c5.3-25.6,3.5-51.9-3.1-77
			C1662.2,1194.2,1652.8,1196.8,1654.4,1202.8L1654.4,1202.8z"/>
		<path class="st5" d="M1647.7,1489.6l-24.3-86.7l-3.5-12.4c-1.7-6.1-11.1-3.5-9.4,2.6l24.3,86.7l3.5,12.4
			C1639.9,1498.3,1649.4,1495.7,1647.7,1489.6z"/>
		<path class="st3" d="M1226.3,2453.4c0,0,160.3-22.4,160.3,78.9h-298.8l20.4-82L1226.3,2453.4z"/>
		<path class="st5" d="M1227.6,2458.1C1226.6,2458.3,1226.3,2458.3,1227.6,2458.1c1-0.1,2-0.3,3.1-0.4c3.8-0.4,7.7-0.7,11.5-1
			c12.4-0.8,24.8-0.9,37.2-0.1c28.7,1.6,61.7,7.3,83.3,28.1c13.1,12.6,18.9,29.6,19,47.5l4.9-4.9h-286.5c-3.8,0-8-0.5-11.7,0
			c-0.2,0-0.4,0-0.5,0l4.7,6.2l17.8-71.7l2.6-10.3l-4.7,3.6l103.4,2.7l14.7,0.4c6.3,0.2,6.3-9.6,0-9.8l-103.4-2.7l-14.7-0.4
			c-2.2,0-4.1,1.5-4.7,3.6l-17.8,71.7l-2.6,10.3c-0.7,2.7,0.9,5.4,3.6,6c0.4,0.1,0.8,0.1,1.2,0.2h262c12,0,24.2,0.5,36.2,0
			c0.2,0,0.4,0,0.5,0c2.7,0,4.9-2.2,4.9-4.9c-0.1-17.8-5.2-35.1-16.7-48.9c-10.3-12.4-24.7-20.6-39.7-26.1
			c-28-10.3-59.3-12-88.9-10.5c-7.1,0.4-14.2,0.9-21.3,1.9C1218.8,2449.6,1221.5,2459,1227.6,2458.1z"/>
		<path class="st5" d="M1264.2,2487l24-32.8c3.7-5.1-4.8-10-8.5-4.9l-24,32.8C1252,2487.1,1260.5,2492,1264.2,2487z"/>
		<path class="st5" d="M1236,2487l24-32.8c3.7-5.1-4.8-10-8.5-4.9l-24,32.8C1223.8,2487.1,1232.3,2492,1236,2487z"/>
		<path class="st5" d="M1421.5,1283.9L1421.5,1283.9c14.3,0,25.9,11.6,25.9,25.9v114.8c0,14.3-11.6,25.9-25.9,25.9l0,0
			c-14.3,0-25.9-11.6-25.9-25.9v-114.8C1395.6,1295.5,1407.2,1283.9,1421.5,1283.9z"/>
		<path class="st7" d="M1533.6,1339.4c-30.3-85.2-60.5-170.5-90.8-255.7c-7.4-20.8-35.1-20.9-42.4,0
			c-30.3,85.2-60.6,170.4-90.8,255.7c-4.9,13.7,7.8,27.9,21.2,27.9h181.7C1525.8,1367.3,1538.4,1353.1,1533.6,1339.4z"/>
		<path class="st3" d="M1645.3,1563.5h163c41.2,0,74.6,33.4,74.6,74.6l0,0c0,41.2-33.4,74.6-74.6,74.6h-163
			c-41.2,0-74.6-33.4-74.6-74.6l0,0C1570.7,1596.8,1604.1,1563.5,1645.3,1563.5z"/>
		<path class="st3" d="M1882.3,1594.8h-183c-46,0-83.7,37.7-83.7,83.7l0,0c0,13.8,3.4,27.4,10,39.6c-18.6,6.7-31.1,24.4-31.1,44.2
			l0,0c0.1,25.9,21,46.8,46.9,46.9h102.5c25.9-0.1,46.8-21,46.9-46.9h91.5c46,0,83.7-37.7,83.7-83.7l0,0
			C1966,1632.5,1928.3,1594.8,1882.3,1594.8z"/>
		<path class="st5" d="M1882.3,1589.9H1709c-3.6,0-7.2,0-10.8,0c-17.9,0.3-35.2,5.9-49.8,16.2c-36.3,26-47.9,74.9-27,114.4l2.9-7.2
			c-28.7,10.7-42.9,43.6-29.5,71.5c6.1,12.4,16.9,22,30.1,26.4c6.8,2.3,13.8,2.7,20.9,2.7c32.3,0,64.7,0.1,97,0
			c28.8-0.1,52.6-22.7,53-51.8l-4.9,4.9c30.5,0,60.9,0.2,91.4,0c29.2-0.2,56.5-14.6,73.1-38.5c17.5-25.1,20.2-58.2,7.9-86.1
			C1949.2,1610.8,1916.9,1590.1,1882.3,1589.9c-6.2,0-6.2,9.8,0.1,9.8c28.7,0.2,55.1,15.9,69.1,41c20.9,38.2,6.9,86.1-31.3,107
			c-11.6,6.4-24.7,9.7-37.9,9.7c-14.4,0.1-28.8,0-43.2,0h-48.2c-2.7,0-4.9,2.2-4.9,4.9c-0.3,23.3-19.3,42-42.5,42
			c-12.5,0.1-25,0-37.4,0h-52.2c-4,0-8.1,0-12.1,0c-23.2,0.2-42.2-18.4-42.4-41.6c-0.2-17.8,10.9-33.7,27.6-39.8
			c3-1.1,4.5-4.2,2.9-7.2c-20.5-38.5-5.9-86.2,32.6-106.7c10.8-5.8,22.9-8.9,35.1-9.2c3.5-0.1,7.1,0,10.6,0h174.1
			C1888.6,1599.7,1888.6,1589.9,1882.3,1589.9z"/>
		<path class="st5" d="M2375.2,888.1c-6-5.9-11.6-12.1-16.9-18.6c-8.5-10.2-17.7-22-20.7-35.2c-1.4-6.1-10.9-3.5-9.4,2.6
			c3.3,14.3,13,26.9,22,38c5.7,7.1,11.7,13.8,18.2,20.1C2372.8,899.4,2379.7,892.5,2375.2,888.1z"/>
		<path class="st5" d="M2396.1,870c-6-5.9-11.6-12.1-16.9-18.6c-8.5-10.2-17.7-22-20.7-35.2c-1.4-6.1-10.9-3.5-9.4,2.6
			c3.3,14.2,13,26.9,22,38c5.7,7.1,11.7,13.8,18.2,20.1C2393.7,881.3,2400.6,874.4,2396.1,870L2396.1,870z"/>
		<g>
			<g>
				<g>
					<path class="st8" d="M3552.3,2474.5c-328.3-0.4-594.1-266.9-593.7-595.2s266.9-594.1,595.2-593.7s594.1,266.9,593.7,595.2
						c-0.3,238.6-143.3,454-363.1,546.8C3710.9,2458.7,3632,2474.6,3552.3,2474.5z"/>
					<path class="st9" d="M3552.3,1314.5c-310.3,0.4-561.5,252.3-561.1,562.6s252.3,561.5,562.6,561.1
						c310.3-0.4,561.5-252.3,561.1-562.6c-0.3-225.5-135.4-429-343.2-516.8C3702.3,1329.4,3627.6,1314.4,3552.3,1314.5z"/>
				</g>
			</g>
			<path class="st3" d="M2570.1,1585.7c0,0-25,252,80.8,579.9l117.9,6.3c0,0-84.5-287.1-52.9-553.1S2570.1,1585.7,2570.1,1585.7z"/>
			<path class="st5" d="M2565.2,1585.7c-0.9,9.2-1.3,18.4-1.7,27.6c-1.1,25.8-1.1,51.7-0.5,77.5c1,39.9,3.7,79.8,7.8,119.6
				c5.3,51.5,13,102.7,23,153.6c11.8,60.4,26.8,120.1,44.9,179c2.5,8,5,16,7.5,23.9c0.6,2.1,2.5,3.5,4.7,3.6l103.3,5.5l14.6,0.8
				c3.2,0.2,5.6-3.3,4.7-6.2c-3.2-10.9-6-22-8.8-33c-7.4-29.4-13.9-58.9-19.6-88.7c-8.3-42.6-15.1-85.6-20.3-128.7
				c-6.2-50.9-9.9-102.2-10.9-153.5c-0.5-27.3-0.1-54.5,1.3-81.8c1.4-26.8,4.4-53.3,7.1-79.9c1.9-19.4,3-38.9,1.7-58.4
				c-0.8-12.4-2.4-25.1-7.2-36.6c-3.2-7.8-8-15.2-15.5-19.6c-6.6-3.9-14.2-4.6-21.6-3.4c-17.4,2.6-33.1,14.2-46.5,25
				c-15.3,12.4-29.1,26.4-42.3,41c-8.1,9-16,18.3-23.4,27.8c-0.6,0.8-1.2,1.6-1.8,2.3c-3.8,5,4.7,9.9,8.5,4.9l0.3-0.4
				c-1,1.3-0.4,0.5,0.1-0.2c1.1-1.4,2.2-2.8,3.3-4.1c3.9-4.9,7.9-9.7,12-14.4c12-14.1,24.8-27.4,38.4-39.9c7-6.5,14.5-12.5,22.3-18
				c3.7-2.6,7.4-4.9,11.4-7.1c3.3-1.9,6.7-3.5,10.3-4.8c1.8-0.7,3.6-1.2,5.4-1.7c0.8-0.2,1.6-0.4,2.4-0.6c0.6-0.1,2.5-0.4,2.1-0.4
				s1.4-0.1,1.9-0.2c0.9,0,1.8-0.1,2.7,0c0.8,0,1.5,0.1,2.3,0.1c1,0.1-0.9-0.2,0.1,0c0.4,0.1,0.9,0.2,1.3,0.3
				c0.7,0.1,1.4,0.3,2.1,0.5l1.1,0.4c1.2,0.4-0.3-0.2,0.4,0.1c1.4,0.7,2.8,1.4,4.1,2.3c1,0.7-0.4-0.4,0.3,0.2c0.3,0.3,0.7,0.5,1,0.8
				c0.7,0.6,1.3,1.2,1.9,1.8c1.1,1.1,2,2.3,2.8,3.7c5.3,8.2,7.6,18.5,9,28.7c2.3,16.7,1.9,33.8,0.9,50.5c-1.5,24.9-5.2,49.5-7,74.4
				c-2,26.8-3,53.7-3.1,80.6c0,51.2,2.7,102.4,8.1,153.3c4.7,44.6,11,89,19.1,133.2c5.9,32.6,12.7,65.1,20.4,97.4
				c3.7,15.6,7.6,31.1,12,46.5c0.2,0.7,0.4,1.4,0.6,2l4.7-6.2l-103.3-5.5l-14.6-0.8l4.7,3.6c-19.3-59.7-35.3-120.3-48.1-181.7
				c-10.8-51.7-19.2-103.9-25.2-156.4c-4.6-41-7.8-82.2-9.2-123.4c-0.9-27.5-1.1-55.1-0.2-82.6c0.3-7.9,0.6-15.8,1.1-23.7
				c0.2-3.4,0.8-6.9,0.8-10.4c0-0.2,0-0.3,0-0.4C2575.7,1579.4,2565.9,1579.4,2565.2,1585.7z"/>
			<path class="st3" d="M2648.7,2145.2c0,0-160.3-22.4-160.3,78.9h301.2l-15.5-82L2648.7,2145.2z"/>
			<path class="st5" d="M2650,2140.4c-18.8-2.5-37.8-3-56.7-1.6c-31.2,2.1-66.5,9-89.4,32.2c-14,14.2-20.4,33.3-20.5,53
				c0,2.7,2.2,4.9,4.9,4.9h264.1c12.1,0,24.5,0.5,36.6,0c0.2,0,0.4,0,0.5,0c3.4,0,5.3-3.1,4.7-6.2l-13.6-71.8l-1.9-10.2
				c-0.4-2-2.7-3.6-4.7-3.6l-109.8,2.7l-15.6,0.4c-6.3,0.2-6.3,9.9,0,9.8l109.8-2.7l15.6-0.4l-4.7-3.6l13.6,71.8l1.9,10.2l4.7-6.2
				h-288.9c-3.8,0-8.1-0.6-11.8,0c-0.2,0-0.4,0-0.5,0l4.9,4.9c0.1-16,4.5-31.7,15.3-43.7c9.8-11,23-18.1,36.8-22.8
				c26.7-9.1,55.8-10.6,83.8-9.1c4.7,0.2,9.3,0.6,13.9,1c1.3,0.1,2.7,0.3,4,0.4c0.9,0.1,2.3,0.3,0.2,0
				C2653.5,2150.7,2656.2,2141.3,2650,2140.4z"/>
			<path class="st5" d="M2619.3,2173.7l-24-32.8c-3.7-5-12.2-0.1-8.5,4.9l24,32.8C2614.5,2183.7,2623,2178.8,2619.3,2173.7
				L2619.3,2173.7z"/>
			<path class="st5" d="M2647.5,2173.7l-24-32.8c-3.7-5-12.2-0.1-8.5,4.9l24,32.8C2642.7,2183.7,2651.2,2178.8,2647.5,2173.7z"/>
			<path class="st3" d="M2901.4,1597.4c0,0-5,253.2,126.6,571.6l118.1-3.1c0,0-107-279.5-96.7-547.1
				C3059.8,1351.2,2901.4,1597.4,2901.4,1597.4z"/>
			<path class="st5" d="M2896.5,1597.4c-0.2,9.2,0.1,18.5,0.5,27.7c1,25.8,3,51.6,5.7,77.3c4.2,39.8,10,79.4,17.2,118.8
				c9.4,50.9,21,101.3,35,151.1c16.6,59.3,36.3,117.6,59,174.8c3.1,7.8,6.2,15.5,9.4,23.2c0.8,2,2.4,3.7,4.7,3.6l103.4-2.7l14.7-0.4
				c2.9-0.1,5.9-3.1,4.7-6.2c-4-10.4-7.5-20.9-11.1-31.4c-9.4-28-18.1-56.2-26.1-84.7c-11.5-41-21.5-82.3-30.2-124
				c-10.2-49.3-18.2-99.1-23.4-149.2c-5.5-53.1-7.4-106.6-5.6-160c0.7-20.9,0.7-42-1.8-62.8c-1.6-13.5-4.1-27-9.6-39.4
				c-3.5-7.8-8.6-15.4-16.1-19.8c-6.6-3.9-14.3-4.7-21.8-3.4c-17.3,3.1-32.5,16-44.9,27.6c-14.8,13.8-27.8,29.4-40.1,45.4
				c-7.6,9.9-15,20.1-21.9,30.6c-0.3,0.5-0.7,1-1,1.6c-3.4,5.3,5.1,10.2,8.5,4.9c4.7-7.3,9.8-14.5,15-21.6
				c10.9-15,22.7-29.3,35.4-42.9c12.6-13.2,25.7-26,42.4-33.4c0.2-0.1,0.4-0.2,0.6-0.2c0.4-0.2,0.9-0.4,1.3-0.5
				c0.9-0.3,1.8-0.6,2.7-0.9c1.7-0.5,3.4-0.9,5.1-1.2c1-0.2-0.1,0,0.2,0c0.4,0,0.8-0.1,1.3-0.1c0.8-0.1,1.7-0.1,2.5-0.1
				s1.5,0.1,2.3,0.1c0.3,0,1.6,0.2,0.3,0c0.4,0.1,0.8,0.1,1.2,0.2c3.8,0.9,4.7,1.2,8,3.6c0.8,0.5-0.5-0.4,0.2,0.2
				c0.4,0.3,0.7,0.6,1,0.9c0.7,0.6,1.4,1.3,2,2c1.2,1.2,2.3,2.6,3.1,4c6,9.1,8.8,20,10.8,30.9c3.3,17.6,4,35.7,4,53.6
				c0,25.6-1.5,51.2-1.1,76.9c0.4,26.4,1.8,52.7,4,79c4.3,50.1,11.2,100,20.6,149.4c8.2,43.2,17.9,86,29.3,128.4
				c8.3,31.2,17.4,62.1,27.4,92.8c4.9,14.9,9.9,29.8,15.4,44.5c0.2,0.6,0.5,1.3,0.7,1.9l4.7-6.2l-103.4,2.7l-14.7,0.4l4.7,3.6
				c-23.9-57.9-44.8-117.1-62.4-177.3c-14.9-50.7-27.4-102.1-37.6-154.1c-7.9-40.4-14.3-81.2-19-122.1c-3.1-27.4-5.5-54.8-6.7-82.3
				c-0.5-11.4-0.3-22.7-0.8-34.1c0-0.2,0-0.3,0-0.5C2906.4,1591.1,2896.6,1591.1,2896.5,1597.4z"/>
			<path class="st1" d="M2639.2,938.7c51.2-25.2,115-40.2,184.1-40.2l0,0c69.1,0,132.9,15,184.1,40.2
				c73.9,36.4,131.9,84.7,120.9,340.4c-8.2,191.6-44,332.3-44,332.3h-522c0,0-35.8-140.7-44-332.3
				C2507.3,1023.4,2565.3,975.1,2639.2,938.7z"/>
			<path class="st3" d="M3019.5,1043.8c0.8,1.2,1.5,2.6,2.2,3.9c0.9,1.6,1.7,3.3,2.4,5c0.5,1.1,1,2.2,1.5,3.3
				c0.3,0.6,0.5,1.2,0.8,1.9c0.4,0.9,0.1,0.2,0-0.1l0.5,1.1c7.1,17.3,12,35.4,16,53.6c7,32.6,10.6,65.4,12.5,98.7
				c2.9,50.9,1.5,102-2.2,152.8c-5.3,72-15.4,143.6-28.3,214.7c-1.9,10.5-3.9,21-5.9,31.5c-1.2,6.2,8.2,8.8,9.4,2.6
				c14.4-74.4,26-149.5,32.6-225c4.7-53.7,7-107.6,4.8-161.5c-1.4-35.8-4.8-71.6-11.6-106.8c-3.9-20-8.9-40-16.3-59.1
				c-2.7-7.1-5.5-15.1-10-21.3c-0.1-0.1-0.1-0.1-0.1-0.2C3024.5,1033.6,3016,1038.5,3019.5,1043.8L3019.5,1043.8z"/>
			<path class="st5" d="M2562.3,1616.3h458c21,0,42.1,0.7,63.1,0c0.3,0,0.6,0,0.9,0c6.3,0,6.3-9.8,0-9.8h-457.9
				c-21,0-42.1-0.7-63.1,0h-0.9C2556,1606.5,2556,1616.3,2562.3,1616.3L2562.3,1616.3z"/>
			<path class="st3" d="M3034.6,2148.3c0,0-160.3-22.4-160.3,78.9h298.8l-20.4-82L3034.6,2148.3z"/>
			<path class="st5" d="M3036,2143.5c-18.8-2.5-37.8-3-56.7-1.6c-31.2,2.1-66.5,9-89.4,32.2c-14,14.2-20.4,33.3-20.5,53
				c0,2.7,2.2,4.9,4.9,4.9h262c12,0,24.2,0.5,36.2,0h0.5c2.7,0,4.9-2.3,4.9-5c0-0.4-0.1-0.8-0.2-1.2l-17.8-71.7l-2.6-10.3
				c-0.6-2.1-2.5-3.6-4.7-3.6l-103.4,2.7l-14.7,0.4c-6.3,0.2-6.3,10,0,9.8l103.4-2.7l14.6-0.4l-4.7-3.6l17.8,71.7l2.6,10.3l4.7-6.2
				h-286.5c-3.8,0-8-0.5-11.7,0c-0.2,0-0.4,0-0.5,0l4.9,4.9c0.1-15.9,4.5-31.7,15.3-43.7c9.8-11,23-18.1,36.8-22.8
				c26.7-9.1,55.8-10.6,83.8-9.1c4.7,0.2,9.3,0.6,13.9,1c1.3,0.1,2.7,0.3,4,0.4c0.9,0.1,2.3,0.3,0.2,0
				C3039.5,2153.8,3042.1,2144.4,3036,2143.5z"/>
			<path class="st5" d="M3005.3,2176.9l-24-32.8c-3.7-5-12.2-0.2-8.5,4.9l24,32.8C3000.5,2186.8,3009,2181.9,3005.3,2176.9
				L3005.3,2176.9z"/>
			<path class="st5" d="M3033.4,2176.9l-24-32.8c-3.7-5-12.2-0.2-8.5,4.9l24,32.8C3028.7,2186.8,3037.1,2181.9,3033.4,2176.9z"/>
			<path class="st1" d="M2939.1,519.6c-42.9-21.1-96.3-33.6-154.1-33.6l0,0c-57.9,0-111.3,12.5-154.1,33.6
				c-61.9,30.5-110.4,70.9-101.2,285.1c6.9,160.5,36.8,278.3,36.8,278.3h437.1c0,0,29.9-117.8,36.8-278.3
				C3049.6,590.6,3001.1,550.1,2939.1,519.6z"/>
			<polygon class="st3" points="2724.7,363.7 2724.7,502 2785,560.3 2845.3,502 2845.3,363.7 			"/>
			<path class="st5" d="M2719.8,363.7v95.8c0,13.8-0.4,27.7,0,41.5c0.1,3.9,2.7,5.7,5.3,8.3l18.5,17.8l37.9,36.7
				c1.9,1.9,5,1.9,6.9,0l32.2-31.1l20.7-20c2.8-2.8,8.4-6.4,8.9-10.7c0.3-3.5,0-7.2,0-10.6V363.7c0-2.7-2.2-4.9-4.9-4.9h-120.6
				c-6.3,0-6.3,9.8,0,9.8h120.6l-4.9-4.9V502l1.4-3.5l-52.8,51.1l-7.4,7.2h6.9l-52.8-51.1l-7.4-7.2l1.4,3.5V363.7
				C2729.6,357.4,2719.8,357.4,2719.8,363.7z"/>
			<path class="st3" d="M2686.1,528.5l83.6,80.8l11.9,11.5c1.9,1.9,5,1.9,6.9,0L2872,540l11.9-11.4c4.5-4.4-2.4-11.3-6.9-6.9
				l-83.6,80.8l-11.9,11.5h6.9l-83.6-80.8l-11.9-11.5C2688.5,517.3,2681.6,524.2,2686.1,528.5L2686.1,528.5z"/>
			<path class="st3" d="M2897.5,311.8c-4.2,0-8.4,0.5-12.5,1.6l-20.4,74c8,8.3,17.5,15.2,30,15.4c24.7,0.4,46.7-26.7,47.1-51.4
				C2942.1,326.8,2922.2,312.2,2897.5,311.8z"/>
			<path class="st5" d="M2897.5,306.9c-4.7,0-9.3,0.6-13.8,1.8c-1.7,0.5-3,1.8-3.4,3.4l-19.7,71.3c-0.3,0.9-0.6,1.8-0.8,2.8
				c-0.9,5.6,7.5,10.8,11.5,13.7c10.4,7.4,23.5,9.9,35.7,6c22.4-7.1,39.2-31.1,39.5-54.4c0.2-12.3-4.7-24.4-14.1-32.4
				C2922.7,310.8,2910.1,307.2,2897.5,306.9c-6.3-0.1-6.3,9.6,0,9.8c19.3,0.4,38.5,11.4,39.2,32.5c0.7,20.3-14.3,42.7-34.4,47.8
				c-13.6,3.4-25.1-3.6-34.3-13.1l1.3,4.8l17.9-64.7l2.6-9.3l-3.4,3.4c3.7-0.9,7.4-1.4,11.2-1.4
				C2903.8,316.7,2903.8,306.9,2897.5,306.9z"/>
			<path class="st3" d="M2917,342c0,0-12.6-1.6-20.2,8c-7.7,9.6-2.4,26.3,6.7,24.8s12.9-8.8,10.6-15.3c-2.4-6.5-10.4-6.1-19.8-1"/>
			<path class="st5" d="M2917,337.1c-16.6-2-31.5,12.2-28.3,28.9c1.6,8.4,8.3,15.4,17.3,13.3s15.6-10.8,13.1-20.2
				c-3.6-13.1-18.4-9.4-27.3-4.9c-5.6,2.9-0.7,11.3,4.9,8.5c3.5-1.8,16.1-6.6,12.8,2.6c-0.9,2.4-4.1,4.7-6.8,4.7
				c-2.1,0-3.2-2.1-3.9-3.9c-4.5-11.7,7.4-20.5,18.2-19.2C2923.2,347.7,2923.2,337.9,2917,337.1L2917,337.1z"/>
			<path class="st3" d="M2682.3,311.8c4.2,0,8.4,0.5,12.5,1.6l20.4,74c-8,8.3-17.5,15.2-30,15.4c-24.7,0.4-46.7-26.7-47.1-51.4
				C2637.7,326.8,2657.6,312.2,2682.3,311.8z"/>
			<path class="st5" d="M2682.3,316.7c3.8,0,7.5,0.5,11.2,1.4l-3.4-3.4l17.9,64.7l2.6,9.3l1.3-4.8c-8.1,8.3-18.1,15.2-30.3,13.8
				c-10.4-1.2-19.6-7.7-26.2-15.6c-12.5-14.8-18.3-39.2-3.1-54.3C2660.1,320.1,2671.4,317,2682.3,316.7c6.3-0.1,6.3-9.9,0-9.8
				c-21.9,0.5-44.3,12.4-48.3,35.6s9.9,48.8,30.6,59.9c11,5.9,23.8,7.1,35.4,2.2c6-2.7,11.4-6.4,16.1-11c2.6-2.4,4.5-4.5,3.7-8.2
				c-2.9-12.2-6.7-24.2-10-36.2l-10.2-37c-0.5-1.7-1.8-3-3.4-3.4c-4.5-1.2-9.1-1.8-13.8-1.8C2676,306.9,2676,316.7,2682.3,316.7z"/>
			<path class="st3" d="M2662.8,342c0,0,12.6-1.6,20.2,8c7.7,9.6,2.4,26.3-6.7,24.8c-9.2-1.5-13-8.8-10.6-15.3
				c2.3-6.5,10.4-6.1,19.8-1"/>
			<path class="st5" d="M2662.8,346.9c10.8-1.3,22.6,7.5,18.2,19.2c-0.6,1.6-1.6,3.7-3.5,3.9c-2.8,0.3-6.3-2.1-7.2-4.7
				c-3.3-9.2,9.4-4.4,12.8-2.6c5.6,2.9,10.6-5.6,4.9-8.5c-7.8-4-20.4-8.1-25.9,1.6c-4.7,8.2-0.4,18.3,7.8,22.1
				c8.9,4.1,17.1,0.3,20.4-8.8c3.2-8.9,0.7-18.8-6.2-25.2c-5.9-5.1-13.5-7.6-21.3-6.9C2656.6,337.9,2656.6,347.7,2662.8,346.9
				L2662.8,346.9z"/>
			<path class="st3" d="M2784,184.4c-102.3,0.5-119.8,72.5-108.4,153.8c6.4,45.9,19.9,106.1,66.4,126
				c68.2,29.2,127.6-9.4,149.9-80.3S2930.7,183.6,2784,184.4z"/>
			<path class="st5" d="M2784,179.5c-30.5,0.3-62.8,6.8-85.5,28.7c-19,18.4-27.4,44.4-29.9,70.2c-3,30.3,1.1,61.4,7.4,91
				c6.7,31.7,18.4,66.4,44.5,87.5c25.4,20.5,63.2,27.2,94.4,18.2c31.4-9.1,55.7-33.6,70.4-62.2c11.4-22.4,18-47.7,22.1-72.4
				c3.9-22.8,5.3-46.1,1.8-69c-3.3-21.8-12-43.1-27.6-59.1c-18.9-19.4-45.2-28.3-71.5-31.4C2801.5,179.9,2792.8,179.4,2784,179.5
				c-6.3,0-6.3,9.8,0,9.8c27.5-0.1,56.4,4.1,79.4,20.2c17,11.9,28,30,33.3,49.8c10.8,39.7,2.7,83.6-9.2,122.1
				c-9.2,29.7-26.5,58.3-53.6,74.7c-27.2,16.4-59.5,16.2-88.3,4.3c-29.9-12.2-45.6-41.9-54.5-71.4c-8.6-28.7-13.2-58.4-13.6-88.4
				c-0.3-24.9,3.2-51.1,17-72.3c14.5-22.2,38.8-33.3,64.3-37.3c8.3-1.2,16.7-1.8,25.2-1.8C2790.3,189.2,2790.3,179.4,2784,179.5z"/>
			<path class="st3" d="M2762.5,391.2c0,0-0.7,25.6,23.5,25.6c25.9,0,24.2-25.6,24.2-25.6"/>
			<path class="st5" d="M2757.6,391.2c-0.2,10.5,4.7,22.1,14.2,27.2c15.1,8.2,35.3,1.8,41.3-14.5c1.5-4.1,2.2-8.4,2-12.7
				c-0.4-6.3-10.2-6.3-9.8,0c0.3,3.4-0.3,6.9-1.6,10.1c-2.7,7-9.2,10.4-16.5,10.6c-7.7,0.2-14.4-2.8-17.6-10.1
				c-1.6-3.3-2.3-7-2.1-10.6C2767.5,384.9,2757.7,384.9,2757.6,391.2L2757.6,391.2z"/>
			<circle class="st5" cx="2740.3" cy="326.8" r="7.1"/>
			<circle class="st5" cx="2834.2" cy="326.8" r="7.1"/>
			<line class="st6" x1="2786.4" y1="341.1" x2="2786.4" y2="372.8"/>
			<path class="st5" d="M2781.5,341.1v31.7c0,6.3,9.8,6.3,9.8,0v-31.7C2791.2,334.8,2781.5,334.8,2781.5,341.1z"/>
			<path class="st5" d="M2662.8,311c0,0,147.4,0.8,171.4-72.4c0,0,15.1,64.5,76.6,70.8c0,0,62.3-199.8-124.4-199.8
				S2662.8,311,2662.8,311z"/>
			<path class="st5" d="M2791.3,213.8c0,0-62.5-11.5-75.7-104.2c-10.1-71,40.5-113.3,99.6-109.3s93,37,90.8,93.9
				C2904.3,140.8,2885.6,210.5,2791.3,213.8z"/>
			<path class="st3" d="M2763.8,115.5c11.3-2.4,23.3-3.1,35.3-2.9c22.1,0.2,45.2,4.4,63.1,18.2c2.1,1.6,5.5,0.3,6.7-1.8
				c1.5-2.5,0.3-5.1-1.8-6.7c-26.7-20.6-64.6-22-96.7-17.7c-3.1,0.4-6.1,0.8-9.2,1.5C2755,107.4,2757.6,116.8,2763.8,115.5z"/>
			<path class="st1" d="M2970.4,537.6c0,0,136.9,50.1,165.3,184.1l-93,46.4C3042.6,768.1,2957.1,638.6,2970.4,537.6z"/>
			<path class="st3" d="M2991.4,580.1c5.7,9.4,10.8,19.2,15.3,29.2c10.6,22.4,18.8,45.9,24.3,70.1c3.6,15.9,5.5,32.2,5.6,48.6
				c0,6.3,9.8,6.3,9.8,0c-0.1-49.6-17.3-99.1-40.7-142.4c-1.9-3.5-3.8-7-5.9-10.4C2996.6,569.8,2988.1,574.7,2991.4,580.1
				L2991.4,580.1z"/>
			<path class="st1" d="M2599.6,537.6c0,0-136.9,50.1-165.3,184.1l93,46.4C2527.4,768.1,2612.9,638.6,2599.6,537.6z"/>
			<path class="st3" d="M2570.1,575.2c-5.9,9.8-11.2,20-15.9,30.5c-10.7,23.2-19.5,47.5-25,72.5c-3.7,16.4-5.6,33.1-5.7,49.8
				c0,6.3,9.8,6.3,9.8,0c0.1-48.1,16.9-96,39.6-138c1.8-3.3,3.6-6.6,5.6-9.9C2581.9,574.7,2573.4,569.8,2570.1,575.2L2570.1,575.2z"
				/>
			<path class="st3" d="M2089.6,828.9c39.7-39.8,78.4,16,88.3,31.4c0.7,0.7,1.5,1.4,2.2,2.2c0.2-7.7,2-44.6,23.2-30
				c23.6,16.3,10.1,58.6,10.1,58.6l9.8,5.1c29.3,17.6,64.9,28,98.4,8.7c44.7-25.6,114.2-178.4,114.2-178.4l92.7,28.8
				c0,0-48.9,231.5-190.8,261c-67,13.9-153.1-16.8-207.5-73.1C2097.4,910.2,2054.1,864.4,2089.6,828.9z"/>
			<path class="st5" d="M2093,832.4c7.6-7.5,16.9-13.1,27.9-12.6c8.7,0.4,16.9,4.8,23.7,9.9c7,5.3,13.2,11.8,18.7,18.6
				c4.6,5.6,8.1,12.5,13.3,17.6c2,1.9,5.1,1.8,7-0.2c0.8-0.9,1.3-2,1.4-3.3c0.1-5.5,0.7-11,1.9-16.4c0.7-3.2,1.6-6.4,3.4-9.2
				c1.3-2,2.6-3,4.3-2.9c7.3,0.3,13.4,9.6,15.5,16c2.6,8.2,2.6,17.1,1.5,25.6c-0.6,4.8-1.6,9.5-3,14.2c-0.6,2.1,0.3,4.4,2.2,5.5
				c11,5.7,21.6,12.1,33.1,16.7c17.1,6.9,35.7,10,53.9,6.8c13.3-2.3,25.7-8.1,36-16.7c7.1-6.1,13.4-13.3,19.2-20.6
				c28.9-36.6,51-78.8,71.7-120.4c5.3-10.6,10.5-21.2,15.4-32l-5.5,2.3l81.1,25.2l11.5,3.6l-3.4-6c-3.9,18.2-9.4,36.2-15.4,53.9
				c-12.9,37.9-29.3,75-51,108.7c-23.3,36.2-54.3,70.3-94.9,87.1c-53.4,22.1-115.9,9.2-165.5-16.8c-14.3-7.4-27.8-16.2-40.4-26.1
				c-12.7-10.1-24-21.6-35.2-33.4c-11.1-11.7-21.8-23.8-30-37.6c-6.9-11.6-12.7-25.6-9.2-39.3C2084,843.4,2088,837.5,2093,832.4
				c4.3-4.4-2.6-11.4-7-6.9c-10.6,10.8-16.2,24.6-14.2,39.8c2,15.4,10.2,29.4,19.3,41.6c10.1,13.7,21.9,26,33.8,38.1
				c11.6,11.9,24.2,22.7,37.7,32.3c50.4,35.5,118.1,57.3,179.6,43c45.3-10.5,81.7-42,109.2-78.3c26.3-34.8,45.5-74.8,60.6-115.5
				c8.3-22.3,16-45.4,20.8-68.7l0.2-1.1c0.6-2.6-0.9-5.3-3.4-6l-81.1-25.2l-11.5-3.6c-1.9-0.6-4.7,0.4-5.5,2.3
				c-12.5,27.5-26.3,54.4-41,80.8c-11.5,20.7-23.7,41.2-37.6,60.5c-10.9,15-22.9,30.6-39.9,38.5c-18.7,8.7-39.6,7.9-58.8,1.6
				c-13.6-4.5-25.8-12-38.4-18.5l2.3,5.5c4.6-14.4,6.3-32.2,0.9-46.6c-3.5-9.6-11.5-19.6-22.2-21.3c-9.2-1.5-15,5.9-17.8,13.7
				c-2.8,7.7-3.6,16.2-3.8,24.4l8.4-3.5c-4.1-4-7-9.5-10.5-14.1c-4.6-6.1-9.8-11.8-15.3-17c-11.8-10.8-27-19.8-43.6-17.6
				c-10.9,1.5-20.2,7.5-27.9,15.1C2081.6,829.9,2088.6,836.8,2093,832.4z"/>
			<path class="st3" d="M3480.4,827.5c-39.7-39.8-78.4,16-88.3,31.4c-0.7,0.7-1.5,1.4-2.2,2.2c-0.2-7.7-2-44.6-23.2-30
				c-23.6,16.3-10.1,58.6-10.1,58.6l-9.8,5.1c-29.3,17.6-64.9,28-98.4,8.7c-44.7-25.6-114.2-178.4-114.2-178.4l-92.7,28.8
				c0,0,48.9,231.5,190.8,261c67,13.9,153.1-16.8,207.5-73.1C3472.5,908.8,3515.8,863,3480.4,827.5z"/>
			<path class="st5" d="M3483.9,824.1c-13.1-12.8-30.4-19.4-48.1-12.6c-14.9,5.7-26.9,17.3-36.7,29.6c-4.2,5.3-7.7,11.9-12.5,16.6
				l8.4,3.5c-0.3-12.2-1.9-37.1-18.3-38.2c-10.3-0.7-19.8,8.9-23.8,17.5c-4.5,9.5-5.4,20.3-4.5,30.7c0.5,6.8,1.7,13.4,3.7,19.9
				l2.3-5.5c-10.6,5.5-20.8,11.9-32,16.2c-16.6,6.5-34.7,9.5-52.2,5.3c-21.6-5.2-35.5-19.9-48.5-37c-27.3-35.9-48.5-76.6-68.5-116.9
				c-5-10.1-9.9-20.2-14.6-30.4c-0.9-1.9-3.6-2.8-5.5-2.2l-81.1,25.2l-11.5,3.6c-2.6,0.8-4.1,3.4-3.4,6c4.1,19.3,10,38.3,16.5,56.9
				c13.8,40,31.4,79.2,55.2,114.4c25.5,37.7,59.2,71.8,102.8,87.5c57.4,20.6,123.5,4.5,174.9-24.7c29.3-16.7,53.8-39.2,76.3-64.1
				c18.8-20.8,44.3-51.6,33.8-81.9C3493.6,836.1,3489.4,829.5,3483.9,824.1c-4.4-4.5-11.3,2.4-6.9,6.9c10.2,10.5,14,23.6,10.2,37.8
				c-3.9,14.7-13.3,27.7-22.8,39.4c-20.5,24.9-44.2,48.2-71.4,65.7c-48.7,31.2-113,50.3-170.2,33.8c-42.3-12.2-75.9-43.7-101-78.8
				c-24.1-33.7-42-71.7-56.1-110.5c-5.1-14.1-9.7-28.5-13.8-43c-2-7.1-3.3-14.6-5.5-21.6c-0.1-0.3-0.2-0.6-0.2-1l-3.4,6l81.1-25.2
				l11.5-3.6l-5.5-2.3c13.1,28.7,27.6,56.9,43.1,84.4c11.9,21.2,24.5,42.1,39.1,61.6c12.8,17.1,26.6,32.8,47.2,40.3
				c19.5,7.2,41,5.7,60.4-0.9c13.9-4.8,26.5-12.4,39.5-19.1c1.9-1.1,2.8-3.4,2.2-5.5c-3.6-11.4-5.2-24.7-2.4-36.3
				c1.8-7.8,6.5-16.4,14.6-19.1c2.4-0.8,3.7-0.4,5.2,1.2c1.8,2,2.9,5,3.7,7.8c1.7,6.2,2.6,12.7,2.6,19.1c0.1,2.7,2.4,4.9,5.1,4.8
				c1.2,0,2.4-0.5,3.3-1.4c5.2-5,8.7-11.9,13.3-17.6c5.5-6.8,11.6-13.4,18.7-18.6c6.9-5.1,15-9.5,23.7-9.9
				c11-0.6,20.3,5.1,27.9,12.6C3481.5,835.4,3488.4,828.5,3483.9,824.1z"/>
			<path class="st5" d="M3447.8,893.6c6.5-6.4,12.5-13.1,18.2-20.1c9-11.2,18.7-23.8,22-38c1.4-6.1-8-8.7-9.4-2.6
				c-3.1,13.2-12.3,25-20.7,35.2c-5.3,6.5-11,12.7-16.9,18.6C3436.4,891.1,3443.3,898,3447.8,893.6z"/>
			<path class="st5" d="M3426.9,875.5c6.4-6.4,12.5-13.1,18.2-20.1c9-11.1,18.7-23.8,22-38c1.4-6.1-8-8.7-9.4-2.6
				c-3.1,13.2-12.2,25-20.7,35.2c-5.3,6.5-11,12.7-16.9,18.6C3415.5,873,3422.4,879.9,3426.9,875.5L3426.9,875.5z"/>
			<path class="st5" d="M3439.9,652.1L3439.9,652.1c14.3,0,25.9,11.6,25.9,25.9v114.8c0,14.3-11.6,25.9-25.9,25.9l0,0
				c-14.3,0-25.9-11.6-25.9-25.9V678.1C3414,663.7,3425.6,652.1,3439.9,652.1z"/>
			<path class="st7" d="M3552,707.6c-30.3-85.2-60.6-170.4-90.9-255.7c-7.4-20.8-35.1-20.9-42.5,0c-30.3,85.2-60.6,170.4-90.8,255.7
				c-4.9,13.7,7.8,27.9,21.2,27.9h181.7C3544.2,735.5,3556.8,721.3,3552,707.6z"/>
			<path class="st5" d="M3595.2,681.5c-21.5-60.5-43-121-64.5-181.4l-16.1-45.2l-7.9-22.2c-2-5.7-3.8-11.5-7.6-16.3
				c-12.1-14.9-36.1-12-44.8,5c-3.3,6.4-5.2,13.7-7.6,20.5c-2.6,7.4-5.3,14.8-7.9,22.2c-5.3,15.1-10.7,30.1-16,45.2l-32.4,91.1
				l-16,45.2l-7.9,22.2c-2.3,6.6-6,13.7-6.1,20.8c-0.3,11.6,8.3,21.8,18.8,25.6c6.2,2.3,13.3,1.5,19.8,1.5h120
				c16.2,0,32.4,0.1,48.7,0c11.7,0,22.5-6.5,27-17.6C3596.7,692.8,3596.9,686.9,3595.2,681.5c-1.9-6-11.4-3.4-9.5,2.6
				c3.1,9.8-4.4,20.1-14.5,21.6c-6.9,1-14.5,0.1-21.5,0.1h-154.1c-6.1,0-11.9,0.6-17.3-2.9c-4-2.6-7.3-6.9-8.1-11.7
				c-1-6,2.6-12.3,4.5-17.8l7.3-20.7l15-42.1l59-166.1c3.3-9.2,5.2-22,15.1-26.6c6.3-2.9,13.8-1.6,18.9,3.1c3.6,3.5,5,8.1,6.7,12.7
				l7.6,21.4l14.7,41.3c19.8,55.6,39.5,111.3,59.3,166.9l7.3,20.7C3587.8,690,3597.3,687.5,3595.2,681.5z"/>
			<path class="st3" d="M2642.4,1234.6c7.9-9.5,12.2-21.4,12.2-33.7l0,0c-0.1-29.2-23.7-52.9-52.9-52.9H2486
				c-29.2,0.1-52.9,23.7-53,52.9l0,0c0,12,4.1,23.7,11.7,33.1h-19.3c-52,0-94.5,42.5-94.5,94.5l0,0c0,52,42.5,94.5,94.5,94.5h206.5
				c52,0,94.5-42.5,94.5-94.5l0,0C2726.3,1280.1,2689.4,1239.9,2642.4,1234.6z"/>
			<path class="st3" d="M2581.2,1234.6c7.9-9.5,12.2-21.4,12.2-33.7l0,0c-0.1-29.2-23.7-52.9-52.9-52.9h-115.7
				c-29.2,0.1-52.9,23.7-52.9,52.9l0,0c0,12,4.1,23.7,11.7,33.1h-19.3c-52,0-94.5,42.5-94.5,94.5l0,0c0,52,42.5,94.5,94.5,94.5
				h206.5c52,0,94.5-42.5,94.5-94.5l0,0C2665.1,1280.1,2628.2,1239.9,2581.2,1234.6z"/>
			<path class="st5" d="M2584.6,1238.1c11.5-14.3,16.3-32.7,12-50.7c-3.8-15.4-13.7-28.6-27.4-36.5c-15.6-9-32.7-7.7-49.9-7.7h-89.5
				c-7.8,0-15.4,0.4-22.9,2.8c-16.9,5.6-30.3,18.6-36.5,35.2c-7.2,19.2-2.9,40.5,9.6,56.4l3.5-8.4c-11,0-22.1-0.5-33,1
				c-54.3,7.7-92.1,57.8-84.7,112.1c4.8,34.6,28.3,64.6,60.4,78c12.2,5.1,25.4,7.7,38.6,7.6c4.4,0,8.8,0,13.2,0h187.8
				c6.6,0.1,13.2-0.3,19.7-1.1c17-2.6,33.1-9.6,46.6-20.3c28-22.2,42-57.6,36.8-93c-5.2-35-29.8-64.9-62.6-77.7
				c-8.1-3.1-16.5-5.1-25.1-6.1c-6.2-0.7-6.2,9.1,0,9.8c33,3.9,62.2,27,73.6,58.3c11.3,31,4.4,66.5-18,90.9
				c-17.7,19.3-42.2,29.4-68.2,29.4h-177c-10.5,0-21,0.4-31.5-0.1c-33-1.4-62.8-21.7-77-51.4c-14.2-29.6-10.2-65.7,9.4-91.9
				c9.8-13.1,23-23.2,38.2-29.4c12.9-5.2,26.1-6.5,39.9-6.5h12.8c4.6,0,5.9-5.2,3.5-8.4c-19.9-25.3-8.8-64.1,21.6-74.8
				c12.6-4.4,27.4-2.8,40.6-2.8h84.1c5,0,10-0.2,15,0.6c15.7,2.7,29.1,12.9,35.9,27.4c7.7,16.4,5,36.3-6.3,50.3
				C2573.8,1236,2580.7,1243,2584.6,1238.1z"/>
			<path class="st3" d="M2595.5,1347.6h127.7c32.3,0,58.4,26.2,58.4,58.4l0,0c0,32.3-26.2,58.4-58.4,58.4h-127.7
				c-32.3,0-58.4-26.2-58.4-58.4l0,0C2537.1,1373.8,2563.2,1347.6,2595.5,1347.6z"/>
			<path class="st5" d="M2723.2,1342.7h-99.1c-12.7,0-26.3-1.1-38.9,0.9c-30.1,4.8-53,32.1-53,62.4c0,30,22.3,57,51.9,62.3
				c12.7,2.3,26.5,1.1,39.3,1.1c33.2,0,66.5,0.3,99.8,0c29.9-0.3,57-22.1,62.3-51.9c6.3-34.5-16.6-67.4-51.1-73.7
				C2730.7,1343.1,2726.9,1342.7,2723.2,1342.7c-6.3-0.1-6.3,9.7,0,9.8c28.6,0.3,52.9,23.5,53.5,52.4c0.5,27.6-21.2,52.3-49,54.5
				c-11.2,0.9-22.7,0.2-33.9,0.2h-59.6c-12.7,0-25.5,0-38.2,0c-24.9-0.1-46.9-17.1-52.7-41.5c-6.5-27.5,10.8-56.1,38-63.7
				c11.6-3.2,24.8-1.9,36.8-1.9h105.1C2729.5,1352.5,2729.5,1342.7,2723.2,1342.7z"/>
		</g>
	</g>
</g>
</svg>
