<?xml version="1.0" encoding="UTF-8"?>
<svg width="37px" height="34px" viewBox="0 0 37 34" version="1.1" xmlns="http://www.w3.org/2000/svg" xmlns:xlink="http://www.w3.org/1999/xlink">
    <title>link</title>
    <g id="link" stroke="none" stroke-width="1" fill="none" fill-rule="evenodd">
        <g id="multimedia" transform="translate(7.000000, 5.000000)" fill="#FFFFFF" fill-rule="nonzero">
            <path d="M22.2450955,1.75528125 C19.9047227,-0.58509375 16.0981483,-0.58509375 13.7577756,1.75528125 L10.3218884,5.191125 C10.1758729,5.33714062 10.1348104,5.55792187 10.2178728,5.74640625 C10.3008884,5.93540625 10.4767163,6.05653125 10.6984349,6.04434375 L10.8508253,6.03309375 C11.1101845,6.0091875 11.3753561,6.0286875 11.6376214,6.05310937 C12.0776835,6.09314063 12.5386987,6.18642187 13.0476201,6.33782812 C13.2244324,6.39201562 13.4144166,6.34223437 13.5438383,6.21229687 L15.8793361,3.87679688 C17.0123974,2.74373437 18.9904268,2.74373437 20.1234882,3.87679688 C21.2936745,5.04698438 21.2936745,6.95071875 20.1234882,8.12090625 L16.7777883,11.4665625 C16.5144917,10.4344219 15.9964766,9.5094375 15.2434304,8.75676562 C14.2578376,7.77070312 12.9796983,7.18021875 11.5472465,7.048875 C10.3037946,6.94045312 9.07838957,7.20370312 8.00542187,7.82348437 C7.49307862,8.1204375 7.09604776,8.416875 6.75611059,8.7568125 L1.75492797,13.7579531 C-0.584975991,16.0978125 -0.584975991,19.9053281 1.75492797,22.2451875 C2.92516121,23.415375 4.46162846,24 5.99861133,24 C7.5355942,24 9.07206145,23.415375 10.2422947,22.2452344 L13.6771976,18.810375 C13.8227443,18.6648281 13.8642755,18.4450781 13.7817287,18.2565469 C13.6991819,18.0680156 13.5018853,17.9410313 13.3045417,17.9571563 L13.1458231,17.9684063 C12.8904015,17.9932969 12.6256986,17.9708438 12.3624489,17.9469375 C11.9233712,17.9069062 11.4618404,17.813625 10.9519815,17.6622188 C10.7741848,17.6089687 10.5857006,17.6578125 10.4562789,17.7882187 L8.12078113,20.1237187 C6.98771974,21.2567812 5.00969042,21.2567812 3.87662903,20.1237187 C2.70644267,18.9535312 2.70644267,17.0497969 3.87662903,15.8796094 L7.22232888,12.5339531 C7.4856255,13.5660937 8.00364062,14.4910781 8.75668676,15.2437031 C9.7427483,16.2297656 11.0208877,16.82025 12.4533394,16.951125 C12.6399017,16.9682344 12.8259953,16.9765312 13.0115732,16.9765312 C14.0611503,16.9765312 15.0828368,16.704 15.9946953,16.1770312 C16.5070386,15.8800781 16.9040694,15.5836406 17.2440066,15.2437031 L22.2451892,10.2425625 C24.5849526,7.90265625 24.5849526,4.09514062 22.2450955,1.75528125 Z M13.859963,13.8613594 C12.7814172,14.1890625 11.6482152,13.8916406 10.8782003,13.1220469 C10.0974511,12.3412969 9.82407634,11.1930469 10.1399198,10.1395781 C11.2204344,9.81351563 12.352652,10.109625 13.12187,10.878375 C13.9027599,11.6592656 14.175994,12.80775 13.859963,13.8613594 Z" id="Shape"></path>
        </g>
    </g>
</svg>