<?xml version="1.0" encoding="UTF-8"?>
<svg width="37px" height="34px" viewBox="0 0 37 34" version="1.1" xmlns="http://www.w3.org/2000/svg" xmlns:xlink="http://www.w3.org/1999/xlink">
    <title>love</title>
    <g id="love" stroke="none" stroke-width="1" fill="none" fill-rule="evenodd">
        <g transform="translate(1.000000, 1.000000)" fill="#FFFFFF" fill-rule="nonzero" id="Group">
            <g>
                <g transform="translate(0.000000, 14.564103)" id="Path">
                    <path d="M31.9364063,5.31275214 C31.3692969,5.11535043 30.7495508,5.41497436 30.5521973,5.98222222 C28.6213184,11.5295043 23.3761035,15.256547 17.5,15.256547 C10.5447754,15.256547 4.77428711,10.0893675 3.82169922,3.39145299 C3.79155273,3.17948718 3.95691406,2.98988034 4.17094727,2.98988034 L4.82740234,2.98988034 C5.15026367,2.98988034 5.31200195,2.59938462 5.08368164,2.37107692 L2.85154297,0.138393162 C2.71003906,-0.00314529915 2.48055664,-0.00314529915 2.33905273,0.138393162 L0.106845703,2.37100855 C-0.121474609,2.59938462 0.0402636719,2.98981197 0.363125,2.98981197 L1.26601563,2.98981197 C1.44402344,2.98981197 1.59489258,3.12259829 1.61526367,3.29948718 C2.02644531,6.86694017 3.61518555,10.1692308 6.19199219,12.7466667 C9.21238281,15.7677949 13.228291,17.4315897 17.4999316,17.4315897 C24.3003906,17.4315897 30.3709082,13.1178803 32.6056445,6.6974359 C32.8031348,6.13011966 32.5035156,5.51022222 31.9364063,5.31275214 L31.9364063,5.31275214 Z"></path>
                </g>
                <g transform="translate(2.324219, 0.000000)" id="Path">
                    <path d="M32.3126562,14.4460855 L31.4097656,14.4460855 C31.2317578,14.4460855 31.0808887,14.3132991 31.0605176,14.1364103 C30.6493359,10.5689573 29.0605957,7.26666667 26.4838574,4.68923077 C23.4633984,1.66817094 19.4474902,0.00437606838 15.1757812,0.00437606838 C8.37532227,0.00437606838 2.30473633,4.31808547 0.0700683594,10.7385299 C-0.127353516,11.3057778 0.172333984,11.9256752 0.739375,12.1231453 C1.30662109,12.3206838 1.92629883,12.0209231 2.12365234,11.4536752 C4.05439453,5.90639316 9.29967773,2.17935043 15.1757812,2.17935043 C22.1310059,2.17935043 27.9014941,7.34652991 28.854082,14.0444444 C28.8842285,14.2564103 28.7188672,14.4460171 28.504834,14.4460171 L27.8483789,14.4460171 C27.5255176,14.4460171 27.3637793,14.8365128 27.5920996,15.0648205 L29.8242383,17.2975043 C29.9657422,17.4390427 30.1952246,17.4390427 30.3367285,17.2975043 L32.5688672,15.0648205 C32.7971875,14.8365812 32.6355176,14.4460855 32.3126562,14.4460855 Z"></path>
                </g>
            </g>
            <g transform="translate(8.000000, 8.000000)">
                <path d="M17.324036,9.49381452 C19.4795791,7.32638306 19.4780755,3.81684274 17.3191835,1.65153629 C15.3025863,-0.371052419 12.1166691,-0.50575 9.94417626,1.24730645 C9.68419065,1.45713306 9.3158777,1.45713306 9.05582374,1.24730645 C6.88339928,-0.505681452 3.69741367,-0.371052419 1.68081655,1.65153629 C-0.47807554,3.81684274 -0.479579137,7.32638306 1.67596403,9.49381452 L8.90252518,16.742121 C9.2324964,17.0730726 9.76743525,17.0730726 10.0974065,16.742121 L17.324036,9.49381452 Z" id="Path"></path>
            </g>
        </g>
    </g>
</svg>