<?xml version="1.0" encoding="UTF-8"?>
<svg width="37px" height="34px" viewBox="0 0 37 34" version="1.1" xmlns="http://www.w3.org/2000/svg" xmlns:xlink="http://www.w3.org/1999/xlink">
    <title>msg</title>
    <g id="msg" stroke="none" stroke-width="1" fill="none" fill-rule="evenodd">
        <g id="communications" transform="translate(4.000000, 4.000000)" fill="#FFFFFF" fill-rule="nonzero">
            <path d="M11,21 L11,26.1648107 C11,26.5256125 11.2557167,26.8452116 11.6343742,26.9587973 C11.7290386,26.986637 11.8261618,27 11.9220556,27 C12.2097369,27 12.487583,26.8775056 12.6646177,26.6592428 L16,22.5478842 L11,21 Z" id="Path"></path>
            <path d="M28.6193364,0.166905593 C28.3414206,-0.0286935402 27.9765051,-0.0550934232 27.6744228,0.10210588 L0.487010506,14.2020434 C0.165594876,14.3688427 -0.0241128447,14.7096412 0.00247040282,15.0684396 C0.0302619798,15.428438 0.270719537,15.7356366 0.612676767,15.8520361 L8.17077738,18.4176247 L24.2669338,4.74968529 L11.811474,19.6524193 L24.4783914,23.9520002 C24.5726411,23.9832001 24.6717241,24 24.7708071,24 C24.9351399,24 25.0982644,23.9556002 25.2420556,23.8692006 C25.4716382,23.7300012 25.6275127,23.4960022 25.6673876,23.2332034 L28.9902935,1.03330175 C29.039835,0.697303243 28.8972522,0.363704721 28.6193364,0.166905593 Z" id="Path"></path>
        </g>
    </g>
</svg>