<?xml version="1.0" encoding="UTF-8"?>
<svg width="27px" height="36px" viewBox="0 0 27 36" version="1.1" xmlns="http://www.w3.org/2000/svg" xmlns:xlink="http://www.w3.org/1999/xlink">
    <title>type</title>
    <g id="type" stroke="none" stroke-width="1" fill="none" fill-rule="evenodd">
        <path d="M13.0462097,0 C5.87797096,0 0.0462096774,5.83176129 0.0462096774,12.9999299 C0.0462096774,21.8958512 11.6799362,34.9555836 12.1752524,35.5071969 C12.6404921,36.0253685 13.4527686,36.0244571 13.917167,35.5071969 C14.4124832,34.9555836 26.0462097,21.8958512 26.0462097,12.9999299 C26.0462097,5.83176129 20.2143783,0 13.0462097,0 Z M13.0462097,19.5405577 C9.43969067,19.5405577 6.50565194,16.6064489 6.50565194,12.9999299 C6.50565194,9.39341088 9.43976078,6.45937215 13.0462097,6.45937215 C16.6526586,6.45937215 19.5866973,9.39348099 19.5866973,13 C19.5866973,16.606519 16.6526586,19.5405577 13.0462097,19.5405577 Z" id="Shape" fill="#FFFFFF" fill-rule="nonzero"></path>
    </g>
</svg>