<?xml version="1.0" encoding="utf-8"?>
<!-- Generator: Adobe Illustrator 24.1.2, SVG Export Plug-In . SVG Version: 6.00 Build 0)  -->
<svg version="1.1" id="Layer_1" xmlns="http://www.w3.org/2000/svg" xmlns:xlink="http://www.w3.org/1999/xlink" x="0px" y="0px"
	 viewBox="0 0 5832 5669.3" style="enable-background:new 0 0 5832 5669.3;" xml:space="preserve">
<style type="text/css">
	.st0{fill:#E5F4FC;}
	.st1{fill:#B2CCD5;}
	.st2{fill:#55493F;}
	.st3{fill:#FFFFFF;}
	.st4{fill:#FFEDB2;}
	.st5{fill:none;stroke:#55493F;stroke-miterlimit:10;}
	.st6{fill:none;}
	.st7{fill:#38BEEE;}
	.st8{fill:#F6B4B4;}
	.st9{fill:#09478F;}
	.st10{fill:#A5A7A8;}
	.st11{fill:#FBFCFC;}
	.st12{fill:#5CB13E;}
	.st13{fill:#5BB13D;}
</style>
<path class="st0" d="M2384.6,3174.1H1065c-39,0.1-77.7-7.8-113.6-23.1c-34.7-14.7-66.3-36.1-92.9-62.8c-26.7-26.6-48-58.2-62.8-92.9
	c-15.3-35.9-23.2-74.6-23.1-113.6V1854.5c-0.1-39,7.8-77.7,23.1-113.6c14.7-34.7,36.1-66.3,62.8-92.9c26.6-26.7,58.2-48,92.9-62.8
	c35.9-15.3,74.6-23.2,113.6-23.1h1027.2c39-0.1,77.7,7.8,113.6,23.1c34.7,14.7,66.3,36.1,92.9,62.8c26.7,26.6,48,58.2,62.8,92.9
	c15.3,35.9,23.1,74.6,23.1,113.6L2384.6,3174.1z M1065,1622.1c-61.8,0-120.1,24.3-164.1,68.3s-68.3,102.3-68.3,164.1v1027.2
	c0,61.8,24.3,120.1,68.3,164.1c44,44,102.3,68.3,164.1,68.3h1259.6V1854.5c0-61.8-24.2-120.1-68.3-164.1s-102.3-68.3-164.1-68.3
	H1065z"/>
<path class="st0" d="M4029.2,5189.1H2695.1c-49.5,0.1-98.5-9.9-144-29.3c-44-18.7-84.1-45.7-117.8-79.6
	c-33.9-33.8-60.9-73.8-79.6-117.8c-19.4-45.5-29.3-94.5-29.3-144v-1705h1704.9c49.5-0.1,98.5,9.9,144.1,29.3
	c88.8,37.9,159.6,108.6,197.5,197.5c19.4,45.5,29.3,94.5,29.3,144v1334.2c0.1,49.5-9.9,98.5-29.3,144
	c-37.9,88.9-108.6,159.6-197.5,197.5C4127.8,5179.2,4078.8,5189.1,4029.2,5189.1z M2384.3,3173.3v1645c0,82.6,32.4,160.6,91.3,219.5
	c58.9,58.9,136.8,91.3,219.5,91.3h1334.1c82.6,0,160.6-32.4,219.5-91.3s91.3-136.9,91.3-219.5V3484.1c0-82.6-32.4-160.6-91.3-219.5
	c-58.9-58.9-136.8-91.3-219.5-91.3H2384.3z"/>
<path class="st0" d="M4038.5,2711.7H3011.3c-75.1,0-146-29.5-199.5-82.9c-53.4-53.5-82.9-124.3-82.9-199.4V1402.1
	c0-75.1,29.4-146,82.9-199.4c53.5-53.5,124.3-82.9,199.5-82.9h1309.6v1309.6c0,75.1-29.5,146-82.9,199.4
	S4113.7,2711.7,4038.5,2711.7z M3011.3,1159.7c-64.5,0-125.2,25.3-171.2,71.2c-45.9,45.9-71.2,106.7-71.2,171.2v1027.2
	c0,64.4,25.3,125.2,71.2,171.2c45.9,45.9,106.7,71.2,171.2,71.2h1027.2c64.4,0,125.2-25.3,171.2-71.2
	c45.9-45.9,71.2-106.7,71.2-171.2V1159.7H3011.3z"/>
<path class="st0" d="M4977.2,1160l-697,0V593.8c-0.1-48.1,9.6-95.8,28.5-140.1c18.2-42.9,44.5-81.8,77.5-114.7
	c32.9-33,71.8-59.3,114.7-77.5c44.3-18.9,92-28.6,140.1-28.5l336.2,0c48.2-0.1,95.9,9.6,140.2,28.4c42.9,18.2,81.8,44.5,114.7,77.5
	c33,32.9,59.3,71.8,77.4,114.7c18.9,44.3,28.6,92,28.5,140.1v205.5c0.1,48.2-9.6,95.8-28.5,140.1c-18.2,42.9-44.5,81.8-77.5,114.7
	c-32.9,33-71.8,59.3-114.6,77.5C5073.1,1150.4,5025.4,1160,4977.2,1160z M4320.2,1120l657,0c42.8,0.1,85.1-8.5,124.5-25.3
	c38.1-16.2,72.8-39.6,102-69c29.3-29.2,52.7-63.9,69-102c16.8-39.4,25.4-81.7,25.3-124.5V593.7c0.1-42.8-8.5-85.1-25.3-124.5
	c-16.2-38.1-39.6-72.8-69-102c-29.2-29.4-63.9-52.8-102-69c-39.4-16.8-81.7-25.4-124.5-25.3l-336.2,0c-42.8-0.1-85.1,8.5-124.5,25.3
	c-38.1,16.2-72.8,39.6-102,69c-29.4,29.2-52.8,63.9-69,102c-16.8,39.4-25.4,81.7-25.3,124.5L4320.2,1120z"/>
<path class="st0" d="M5157.6,5386.1H3848c-75.1,0-146-29.4-199.4-82.9c-53.5-53.5-82.9-124.3-82.9-199.5V4076.5
	c0-75.1,29.5-146,82.9-199.4c53.5-53.4,124.3-82.9,199.4-82.9h1027.2c75.1,0,146,29.5,199.4,82.9c53.5,53.5,82.9,124.3,82.9,199.4
	V5386.1z M3848,3834.1c-64.4,0-125.2,25.3-171.2,71.2s-71.2,106.7-71.2,171.2v1027.2c0,64.5,25.3,125.2,71.2,171.2
	c45.9,45.9,106.7,71.2,171.2,71.2h1269.6V4076.5c0-64.4-25.3-125.2-71.2-171.2s-106.7-71.2-171.2-71.2L3848,3834.1z"/>
<path class="st0" d="M5526.2,3220.1H5295c-75.1,0-146-29.4-199.5-82.9c-53.4-53.5-82.9-124.3-82.9-199.4V1910.5
	c0-75.1,29.5-146,82.9-199.4c53.5-53.5,124.3-82.9,199.4-82.9h513.6v1309.6c0,75.1-29.4,146-82.9,199.4S5601.3,3220.1,5526.2,3220.1
	z M5295,1668.1c-64.4,0-125.2,25.3-171.2,71.2c-45.9,45.9-71.2,106.7-71.2,171.2v1027.2c0,64.4,25.3,125.2,71.2,171.2
	c45.9,45.9,106.7,71.2,171.2,71.2h231.2c64.4,0,125.2-25.3,171.2-71.2c45.9-45.9,71.2-106.7,71.2-171.2V1668.1H5295z"/>
<path class="st1" d="M2777,2247.9c-85.4,0-156.6,66.8-162.1,152l0,0c-0.2,3.6-0.3,7.1-0.3,10.4v198.3c-3.3,37.2-34.4,65.7-71.7,65.8
	h-341.7v60h341.7c68.7,0,126.5-53.7,131.6-122.2l0.1-2.2v-199.7c0-2.1,0.1-4.3,0.2-6.6l0,0c3.6-53.9,48.3-95.7,102.2-95.8h420.7v-60
	H2777z"/>
<path class="st1" d="M3402.5,2107.2h348.3c115.9,0,209.8,93.9,209.8,209.8v348.3c0,115.9-93.9,209.8-209.8,209.8h-348.3
	c-115.9,0-209.8-93.9-209.8-209.8v-348.3C3192.7,2201.2,3286.7,2107.2,3402.5,2107.2z"/>
<path class="st2" d="M2068,2632.5c0,0,203.3,517.2,123.2,1318.9h-198.5c0,0-5.4-590.1-157.9-955.6c0,0,16,371.6-261.5,955.6h-207.8
	c0,0,117.2-334.9,83.8-785.8s174.1-533.1,174.1-533.1H2068z"/>
<path class="st3" d="M2194.8,3946.1c0,0,196.4-27.4,196.4,96.7h-361.1l-5-100.5L2194.8,3946.1z"/>
<path class="st2" d="M2196.4,3951.9C2195.1,3952.1,2194.8,3952.1,2196.4,3951.9l3.8-0.4c4.7-0.5,9.4-0.9,14.1-1.2
	c15.2-1,30.4-1,45.6-0.2c35.2,2.1,75.7,9,102.1,34.4c16.1,15.4,23.2,36.2,23.3,58.3l6-6h-346.4c-4.5,0-9.7-0.7-14.2,0
	c-0.2,0-0.4,0-0.6,0l6,6l-4.4-87.8l-0.6-12.6l-6,6l148.7,3.3l21,0.5c7.7,0.2,7.7-11.8,0-12l-148.7-3.3l-21-0.5c-3.3,0-6,2.7-6,6
	l4.4,87.8l0.6,12.6c0.1,3.3,2.7,5.9,6,6h316.5c14.6,0,29.4,0.7,44,0h0.6c3.3,0,6-2.7,6-6c-0.1-21.9-6.3-43-20.4-59.9
	c-12.6-15.2-30.3-25.2-48.6-31.9c-34.4-12.6-72.6-14.7-108.9-12.9c-8.7,0.4-17.4,1.1-26.1,2.3
	C2185.6,3941.4,2188.9,3952.9,2196.4,3951.9z"/>
<path class="st2" d="M2241.2,3987.2l29.4-40.2c4.6-6.2-5.8-12.2-10.4-6.1l-29.4,40.2C2226.2,3987.4,2236.7,3993.4,2241.2,3987.2z"/>
<path class="st2" d="M2206.7,3987.2l29.4-40.2c4.6-6.2-5.8-12.2-10.4-6.1l-29.4,40.2C2191.7,3987.4,2202.1,3993.4,2206.7,3987.2z"/>
<path class="st3" d="M1552.2,3946.1c0,0,196.4-27.4,196.4,96.7h-366.1l25-100.5L1552.2,3946.1z"/>
<path class="st2" d="M1553.8,3951.9C1552.5,3952.1,1552.2,3952.1,1553.8,3951.9l3.8-0.4c4.7-0.5,9.4-0.9,14.1-1.2
	c15.2-1,30.4-1,45.6-0.2c35.2,2.1,75.7,9,102.1,34.4c16.1,15.4,23.2,36.2,23.3,58.3l6-6h-351.1c-4.6,0-9.8-0.6-14.3,0
	c-0.2,0-0.4,0-0.7,0l5.8,7.6l21.9-87.9l3.2-12.5l-5.8,4.4l126.7,3.3l17.9,0.5c7.7,0.2,7.7-11.8,0-12l-126.7-3.3l-17.9-0.5
	c-2.7,0-5,1.8-5.8,4.4l-21.9,87.9l-3.1,12.6c-0.8,3.3,1.1,6.6,4.4,7.4c0.5,0.1,0.9,0.2,1.4,0.2h321.1c14.7,0,29.6,0.6,44.4,0h0.7
	c3.3,0,6-2.7,6-6c-0.1-21.9-6.3-43-20.4-59.9c-12.6-15.2-30.3-25.2-48.6-31.9c-34.4-12.6-72.6-14.7-108.9-12.9
	c-8.7,0.4-17.4,1.1-26.1,2.3C1543,3941.4,1546.2,3952.9,1553.8,3951.9z"/>
<path class="st2" d="M1598.5,3987.2l29.4-40.2c4.6-6.2-5.8-12.2-10.4-6.1l-29.4,40.2C1583.6,3987.4,1594,3993.4,1598.5,3987.2z"/>
<path class="st2" d="M1564,3987.2l29.4-40.2c4.6-6.2-5.8-12.2-10.4-6.1l-29.4,40.2C1549.1,3987.4,1559.5,3993.4,1564,3987.2z"/>
<path class="st3" d="M1917.8,2791.5c-6.8,28-19.5,56.9-37.5,79.4c-7.6,9.4-16.3,17.8-26.7,24c-2.8,1.7-3.8,5.3-2.2,8.2
	c6.4,11.2,11.8,23.1,17.2,34.8c6.9,15,12.2,27.7,18.2,42.7c8.2,20.3,15.8,40.8,23,61.6c20.3,58.4,37.3,117.9,51.9,178
	c20.2,83.2,35.7,167.6,47.6,252.4c15.2,108.8,24.4,218.5,28.8,328.2c0.6,15.4,1.1,30.8,1.6,46.2c0.2,7.7,12.2,7.7,12,0
	c-3.2-114-11.4-227.9-25.9-341.1c-11.3-88.1-26.3-175.8-46.2-262.4c-14.5-63.2-31.6-125.8-52.2-187.3c-13.1-39-27.5-77.6-44.2-115.2
	c-4.5-10.3-9.3-20.4-14.3-30.5c-2.1-4.1-3.9-9.3-6.7-13c-0.1-0.2-0.2-0.3-0.3-0.5l-2.2,8.2c35.1-20.8,54.9-62.2,66.7-99.9
	c1.1-3.5,2.2-7.1,3.1-10.7C1931.2,2787.1,1919.7,2783.9,1917.8,2791.5L1917.8,2791.5z"/>
<path class="st3" d="M1454.3,3854.7c16.2-66.2,28.9-133.3,38.6-200.8c13.5-93.9,21.1-188.6,22.9-283.5c1-55.7-0.1-111.4-3.2-167
	c-3-53.4-7.1-106.4-5.7-159.9c2-77,12-154.8,38-227.7c15.9-44.5,38.2-87.5,69.2-123.3c2.9-3.3,5.8-6.6,8.8-9.7
	c5.3-5.6-3.2-14.1-8.5-8.5c-31.2,33-54.5,72.7-71.9,114.4c-28,67.2-40.8,140-45.7,212.3c-3.4,50.6-2.9,101.4,0.4,152
	c3.7,56.8,6.8,113.5,6.9,170.5c0.3,98.5-5.9,196.9-18.4,294.6c-9.1,71.8-21.9,143-38.3,213.5c-1.6,6.7-3.1,13.3-4.8,19.9
	C1440.9,3859,1452.5,3862.2,1454.3,3854.7L1454.3,3854.7z"/>
<path class="st4" d="M1607.6,1966.2c52.6-25.9,118-41.2,188.9-41.2s136.3,15.3,188.9,41.2c75.9,37.4,124.9,96.7,124.9,163.5v407.4
	c0,77.8-72.1,141.5-160.2,141.5h-307.3c-88.1,0-160.2-63.7-160.2-141.5v-407.4C1482.7,2062.9,1531.7,2003.6,1607.6,1966.2z"/>
<polygon class="st3" points="1870.4,1775.1 1870.4,1944.6 1796.5,2016 1722.6,1944.6 1722.6,1775.1 "/>
<path class="st2" d="M1864.3,1775.1v169.5l1.8-4.2l-64.8,62.6l-9.1,8.8h8.5l-64.8-62.6l-9.1-8.8l1.8,4.2v-169.5l-6,6h147.7
	c7.7,0,7.7-12,0-12h-147.7c-3.3,0-6,2.7-6,6v117.4c0,16.9-0.5,33.9,0,50.8c0.1,4.8,3.3,7,6.5,10.1l22.6,21.9l46.5,44.9
	c2.4,2.3,6.1,2.3,8.5,0l39.4-38.1l25.3-24.5c3.5-3.4,10.3-7.9,10.9-13.1c0.4-4.3,0-8.8,0-13v-156.4
	C1876.3,1767.4,1864.3,1767.4,1864.3,1775.1z"/>
<path class="st4" d="M1959.1,1954.6c0,0-5.9,504.5-35.3,724h163.8C2087.6,2678.6,2336.9,2060.8,1959.1,1954.6z"/>
<path class="st5" d="M2063,1952.2"/>
<path class="st3" d="M1647.5,1737c5.2-0.4,10.3,0,15.4,1.1c-14.6-76.5,1.9-159.5,129.2-174.3c124.5-14.5,156.5,70.5,154.7,171
	c-1,56.8-9.5,130.2-62.1,163.1c-63.8,39.8-153,8.7-191.8-70.6c-9.2,10.7-20.4,19.8-35.7,20.8c-30.2,2.1-59-29.6-61-59.8
	C1594.1,1758.2,1617.3,1739.1,1647.5,1737z"/>
<path class="st2" d="M1647.5,1743c4.6-0.3,9.3,0,13.8,0.9c3.3,0.8,6.6-1.2,7.4-4.4c0.2-1,0.2-2,0-2.9c-9-47.8-5-101.5,35.2-134.4
	c25.4-20.8,59.4-29.3,91.3-32.7c29.7-3.1,61.6-1.4,88,14c47.7,27.9,57.3,89.6,57.7,140.1c0.5,60.8-6,141.7-66.8,173.5
	c-58,30.4-127.8,0.3-163-50.4c-4.9-7.1-9.3-14.5-13.2-22.3c-1.7-3.3-7-4-9.4-1.2c-9.3,10.7-20.7,19.6-35.5,19.1
	c-13.1-0.4-25-7.9-33.7-17.2c-16.3-17.2-25.4-47.2-7.4-66.6C1621,1748.7,1634.3,1744.1,1647.5,1743c7.6-0.6,7.7-12.6,0-12
	c-14.9,1.1-29.4,5.8-40.7,15.7c-10.7,9.6-16.8,23.2-16.8,37.6c-0.3,31.2,25.2,64.6,56.7,69.3c20.3,3.1,37.4-7.1,50.4-22l-9.4-1.2
	c30.2,61,99.4,105.4,168.5,86.6c33.6-9.2,60-32.7,74.8-64c15.3-32.3,20-68.7,21.4-104c2.3-55.8-1.7-125-47.3-164.4
	c-23.1-19.9-53.1-27.8-83.1-28.3c-36.4-0.6-75.9,6.5-107.9,24.6c-24.4,13.8-43.2,35-53,61.2c-9.2,24.5-10.2,51.6-7.2,77.4
	c0.8,6.8,1.8,13.6,3.1,20.3l7.4-7.4c-5.6-1.2-11.3-1.6-17-1.3C1639.8,1731.4,1639.8,1743.4,1647.5,1743z"/>
<path class="st3" d="M1854.3,1824.2c0,0,3,31.3-26.6,33.3c-31.7,2.2-31.8-29.3-31.8-29.3"/>
<path class="st2" d="M1848.3,1824.2c0.5,4.5-0.1,9-1.6,13.2c-3.1,9.2-10.9,13.8-20.4,14.2s-17.6-3.2-21.7-12c-1.2-2.7-2-5.6-2.4-8.5
	c-0.3-1.7,0.1,1.2,0-0.2c0-0.5-0.1-1-0.1-1.4c-0.1-0.4,0-0.8,0-1.2c-0.1-7.7-12.1-7.7-12,0c0.1,12.4,6.5,25.8,17.9,31.6
	c19,9.7,43.7,1.3,50.4-19.2c1.7-5.3,2.4-10.8,1.9-16.3C1859.6,1816.6,1847.6,1816.5,1848.3,1824.2z"/>
<circle class="st2" cx="1876.1" cy="1743.6" r="8.7"/>
<circle class="st2" cx="1761.2" cy="1751.5" r="8.7"/>
<line class="st6" x1="1820.9" y1="1765" x2="1823.6" y2="1803.6"/>
<path class="st2" d="M1814.9,1764.9l2.7,38.7c0.5,7.7,12.5,7.7,12,0l-2.7-38.7C1826.4,1757.3,1814.4,1757.2,1814.9,1764.9z"/>
<path class="st3" d="M1628.2,1783c0,0,11.6-10.4,26-6s20.7,24.9,10.4,29.8s-19.2,0.1-21.3-8.1c-2.1-8.2,6.3-13.4,19.3-14.8"/>
<path class="st2" d="M1632.5,1787.2c0.9-0.8-0.7,0.4,0.4-0.3c1.1-0.8,2.3-1.5,3.6-2.2c3.8-2.1,8-3,12.3-2.7
	c7.6,0.8,13.8,6.7,14.9,14.3c0.8,6.7-8.2,8.5-12.4,4.4c-7.5-7.2,6.7-10.3,11.4-10.8c7.6-1,7.7-13,0-12c-10.1,1.3-24.8,4.9-25.5,17.4
	c-0.8,12.5,11.6,21,23.2,19.1c11.3-1.8,17.1-10.7,14.8-21.8c-2.1-10.3-10.6-19.4-20.9-21.8c-10.6-2.5-22.1,0.9-30.2,8
	C1618.2,1783.9,1626.7,1792.4,1632.5,1787.2L1632.5,1787.2z"/>
<path class="st2" d="M1849.1,1489.5c0,0,107.6-43.6,157.6,42.9c50.3,87.2-7.3,143.2-61.3,161.2c-86.3,28.9-207.2-11-207.8-48.2
	c0,0,5.9,86.1-71.2,86.8c0,0-25.4-6.2-50.6,8c0,0-111.6-168.3,26.6-256C1790.5,1390.4,1849.1,1489.5,1849.1,1489.5z"/>
<path class="st2" d="M1670.6,1442.2l-3,37.4l9-5.2l-33.2-21.1c-6.5-4.1-12.6,6.2-6,10.4l33.2,21.1c4.1,2.6,8.7-0.9,9-5.2l3-37.4
	C1683.3,1434.5,1671.3,1434.6,1670.6,1442.2L1670.6,1442.2z"/>
<path class="st3" d="M1949,2276.6c-0.1-4.2-0.5-8.3-1.3-12.4c-0.8-4.2-2.2-8.3-3.9-12.3c-3.6-8.2-9.3-15.3-16.4-20.8
	c-7.3-5.5-15.9-9.2-25-10.6c-3.3-0.6-6.7-0.8-10.1-0.8c-1.1,0-2.2,0-3.4,0.1c-2.2,0.1-4.4,0.4-6.6,0.7c-1.1,0.2-2.2,0.4-3.2,0.6
	s-2.1,0.5-3.2,0.7c-0.8,0.2-1.5,0.4-2.2,0.6c-2,0.6-4,1.3-5.9,2.1h-0.1c-2.4,1-4.7,2.1-7,3.3l-0.6,0.3c-1.1,0.6-2.2,1.2-3.2,1.8
	c-5.5-3.2-11.3-5.8-17.4-7.6l-1.6-0.5c-4.3-1.1-8.7-1.8-13.1-2c-1.1-0.1-2.2-0.1-3.4-0.1c-3.4,0-6.8,0.3-10.1,0.8
	c-9.1,1.5-17.7,5.1-25,10.6c-7.1,5.4-12.8,12.6-16.4,20.8c-1.8,3.9-3.1,8-3.9,12.3c-0.8,4.1-1.2,8.2-1.3,12.4l0,0
	c-0.1,8.5,1.4,16.9,4.6,24.7c1,2.5,2.2,4.9,3.5,7.3c0.4,0.8,0.9,1.6,1.3,2.3c1.8,3,3.8,5.9,6.1,8.7l0.6,0.7c0.6,0.7,1.2,1.4,1.8,2.1
	c1.3,1.5,2.7,3,4,4.4l1.3,1.3l0.6,0.7l0.1,0.1c0.5,0.6,1,1.1,1.3,1.5l0,0l0,0c0.1,0.4,0.3,1,0.4,1.6c0.4,1.6,0.7,3.4,1,5.1l0,0
	c0.3,1.6,0.7,4,1.1,6.3c6.6,38.4,13.6,70.2,34,70.2c16.7,0,20.8-15.9,23.8-27.4c1.6-6.2,4.1-14.6,6.7-14.8c2.6,0.2,5,8.6,6.6,14.8
	c3,11.6,7.1,27.4,23.8,27.4c20.4,0,27.4-31.8,34-70.2c0.4-2.3,0.8-4.6,1.1-6.3l0,0c0.3-1.6,0.7-3.5,1-5.1c0.1-0.6,0.3-1.1,0.4-1.6
	l0,0l0,0c0.3-0.4,0.8-0.9,1.4-1.5c0,0,0.1-0.1,0.1-0.1l0.6-0.7l1.3-1.3c1.3-1.4,2.7-2.9,4-4.4c5.6-6.2,10.1-13.4,13.2-21.1
	c3.1-7.9,4.7-16.2,4.6-24.7L1949,2276.6z"/>
<path class="st7" d="M3338.8,2029.9h348.3c115.9,0,209.8,93.9,209.8,209.8v348.3c0,115.9-93.9,209.8-209.8,209.8h-348.3
	c-115.9,0-209.8-93.9-209.8-209.8v-348.3C3129,2123.9,3222.9,2029.9,3338.8,2029.9z"/>
<g id="Page-1">
	<g id="Artboard">
		<g id="Fill-182">
			<path class="st3" d="M3467.4,2372.5c-1.4-6.4-1.7-12.9-0.9-19.4c1.6-12.3,8.2-23.6,18.7-32.4s24.2-14.7,37.3-15.8
				c13.4-1.2,27.6,2.1,38.4,9.1c5.2,3.3,9.6,7.6,13,12.6c0.6,1,1.2,2,1.7,3c-6.6,2.8-13.3,5.6-19.9,8.4
				c-11.9,4.9-23.9,9.8-35.9,14.5C3502.3,2359.4,3484.9,2366.1,3467.4,2372.5 M3715.4,2305.2l-0.5-3.9l-0.5-3.5
				c-0.4-2.8-0.8-5.1-1.3-7.7c-1-5.1-2.3-10.1-3.9-15.1c-6.4-20.4-17.8-38.8-33.2-53.5c-15.7-14.8-35-25-56-29.8
				c-20.4-4.6-41.5-4.2-61.7,0.9c-16,4.1-31.3,10.8-45.2,19.8c-13-8.3-27.2-14.7-42.2-18.8c-19-5.3-39-6.4-58.5-3.1
				c-20.1,3.5-39,12-55,24.7c-15.9,12.8-28.3,29.4-36.2,48.3c-3.9,9.2-6.8,18.7-8.6,28.5c-1.7,9.5-2.7,19.1-2.8,28.8
				c-0.3,19.6,3.1,39.1,10,57.4c6.9,18.3,17.4,34.9,29.2,49.2c2.9,3.6,5.9,7,8.9,10.3l4.2,4.7c1.3,1.4,2.5,2.8,3.2,3.7
				c0.3,1,0.6,2.4,0.9,3.7c0.8,3.7,1.6,7.7,2.3,11.8l0,0c0.7,4.4,1.5,9.2,2.4,14.5c14.4,89.3,30,163.2,74.9,163.2
				c36.8,0,45.9-36.9,52.6-63.9c3.6-14.6,8.5-34.5,15-34.5s11.3,20,14.9,34.5c6.7,27,15.8,63.9,52.6,63.9
				c24.2,0,43.5-23.5,58.9-71.8c9.7-31,15.8-62.9,18.2-95.3c-13.4,5.5-27.1,10.2-41,14c-2.5,21-6.8,41.8-12.6,62.1
				c-10.2,35-20.5,48.4-24.4,51.3c-5.4-2.1-10-20.9-13.2-33.6c-6.4-25.7-15.9-64.6-53.4-64.6s-47,38.9-53.4,64.6
				c-3,12.1-7.9,31.9-13.4,33.6c-2.1-1.7-10.6-10.4-20.1-46.1c-7.4-27.4-12.6-59.9-16.5-83.7c-0.9-5.4-1.7-10.3-2.4-14.8l0,0
				c-0.7-4.3-1.4-8.6-2.2-13.2c-0.5-2.4-0.9-4.7-1.8-7.8c-0.2-0.8-0.5-1.7-0.9-2.8c-0.2-0.5-0.4-1.1-0.8-1.9c-0.4-1-0.9-2-1.5-3
				l-0.5-0.9l-1.1-1.6c-0.5-0.8-1-1.5-1.5-2.1c-1.8-2.4-3.4-4.2-4.8-5.9l-4.2-4.8c-2.7-3.2-5.2-6.2-7.7-9.2
				c-9.6-12.1-17.2-24.7-22.3-38.2c-5.1-13.5-7.6-27.9-7.3-42.4c0.1-7.3,0.8-14.6,2.2-21.8c1.2-6.9,3.2-13.7,5.8-20.2
				c5.1-12.7,13.3-24,23.9-32.8c10.6-8.7,23.3-14.5,36.8-17c14.1-2.5,28.6-2.3,42.6,0.7c14.9,3.2,29.2,8.3,42.8,15.2l10,5l6.8-5l0,0
				c14.9-7.1,29.9-12.7,45-15.4c15.1-2.8,30.3-3,44.5,0.3c14,3.2,27,10.2,37.4,20.1c10.4,10.1,18.1,22.8,22.3,36.7
				c1.1,3.6,2,7.2,2.8,10.8c0.3,1.8,0.7,3.8,0.9,5.5l0.4,3.1l0.3,2.7c0.8,7.6,0.8,15.3,0.1,22.9c-2.6,30.3-18.3,57.9-43,75.6
				c-6.1,4.4-12.6,8.2-19.5,11.2c-7.2,3.2-14.7,5.9-22.3,8c-15.1,4.4-30.9,6.5-46.6,6.3c-15.3-0.4-29.9-3.7-41.8-10.4
				c-5.9-3.3-11.2-7.5-15.8-12.5c-0.6-0.6-1.1-1.3-1.7-2c16.7-6.1,33.2-12.5,49.7-19c12.2-4.8,24.3-9.7,36.4-14.7
				c12.1-5,24.1-10.1,36.3-15.3l13.1-5.7l-1.2-14v0c-0.9-12.2-4.8-24-11.3-34.4c-6.4-9.9-14.8-18.4-24.6-24.8
				c-18.9-12.2-41.4-17.8-63.8-15.9c-2.8,0.2-5.5,0.6-8.3,1c-1.4,0.2-2.7,0.5-4.2,0.8l-2,0.4l-2,0.5c-5.3,1.3-10.5,3.1-15.6,5.2
				c-10.1,4.2-19.5,9.9-28,16.8c-8.8,7.2-16.2,15.8-22,25.6c-5.9,10.1-9.8,21.2-11.3,32.8c-1.5,11.2-1,22.6,1.5,33.7
				c2.3,10.3,5.8,20.3,10.5,29.8c4.7,9.9,10.9,19.1,18.3,27.2c7.5,8.2,16.3,15.2,26,20.6c19.3,10.9,40.7,15.2,60.9,15.8
				c20,0.4,39.9-2.2,59.1-7.7c9.6-2.7,18.9-6.1,28-10.2c9.4-4.3,18.4-9.5,26.7-15.6c34.1-24.8,55.7-63.2,59.1-105.3
				C3716.5,2325.7,3716.4,2315.4,3715.4,2305.2"/>
		</g>
	</g>
</g>
<path class="st3" d="M3687,2807.1h-348.3c-58.5,0-113.6-22.9-155.3-64.6c-41.6-41.6-64.6-96.8-64.6-155.3v-348.4
	c0-58.5,22.9-113.6,64.6-155.3c41.6-41.6,96.8-64.6,155.3-64.6H3687c58.5,0,113.6,22.9,155.3,64.6c41.6,41.6,64.6,96.8,64.6,155.3
	v348.4c0,58.5-22.9,113.6-64.6,155.3C3800.7,2784.2,3745.5,2807.1,3687,2807.1z M3338.7,2039.1c-53-0.1-103.8,21.1-141.1,58.7
	c-37.6,37.3-58.8,88.1-58.7,141.1v348.4c-0.1,53,21.1,103.8,58.7,141.1c37.3,37.6,88.1,58.8,141.1,58.7H3687
	c110.2-0.3,199.5-89.6,199.8-199.8v-348.4c-0.4-110.2-89.6-199.5-199.8-199.8L3338.7,2039.1z"/>
<path class="st3" d="M3372.5,824.4h280.3c93.2,0,168.8,75.6,168.8,168.8v280.3c0,93.2-75.6,168.8-168.8,168.8h-280.3
	c-93.2,0-168.8-75.6-168.8-168.8V993.3C3203.6,900,3279.2,824.4,3372.5,824.4z"/>
<path class="st3" d="M4160.6,1475.1h280.3c93.2,0,168.8,75.6,168.8,168.8v280.3c0,93.2-75.6,168.8-168.8,168.8h-280.3
	c-93.2,0-168.8-75.6-168.8-168.8V1644C3991.8,1550.7,4067.3,1475.1,4160.6,1475.1z"/>
<path class="st3" d="M4221.6,2835.1h280.3c93.2,0,168.8,75.6,168.8,168.8v280.3c0,93.2-75.6,168.8-168.8,168.8h-280.3
	c-93.2,0-168.8-75.6-168.8-168.8V3004C4052.8,2910.7,4128.3,2835.1,4221.6,2835.1z"/>
<path class="st8" d="M2134.5,2839.6c47-0.1,85.1-38.2,85.3-85.3v-74.6c-0.1-47-38.2-85.1-85.3-85.3h-60.2v245.2H2134.5z"/>
<path class="st2" d="M2134.5,2845.6c37.3-0.4,70.8-23.2,84.8-57.8c9-22.2,6.4-47.4,6.4-70.8c0-23.4,2.5-48.6-6.4-70.8
	c-14-34.6-47.5-57.4-84.9-57.8c-20.1-0.1-40.1,0-60.2,0c-3.3,0-6,2.7-6,6v245.2c0,3.3,2.7,6,6,6H2134.5c7.7,0,7.7-12,0-12h-60.1l6,6
	v-245.2l-6,6h56.1c12,0,23.7,1.5,34.9,6.2c15.5,6.6,28.5,18,37.2,32.4c7.5,12.5,11.4,26.8,11.3,41.3c0,8.3,0,16.6,0,24.9v35.9
	c0,8,0.4,16.1-0.7,24c-5.4,38.9-39.6,68.1-78.6,68.4C2126.8,2833.7,2126.7,2845.7,2134.5,2845.6z"/>
<path class="st3" d="M2064,2572.6L2064,2572.6c14.1,0,25.5,11.4,25.5,25.5v238c0,14.1-11.4,25.5-25.5,25.5l0,0
	c-14.1,0-25.5-11.4-25.5-25.5v-238C2038.5,2584,2049.9,2572.6,2064,2572.6z"/>
<path class="st2" d="M2064,2578.6c11.6,0,19.4,9.7,19.5,20.7c0,4.6,0,9.3,0,13.9v202.2c0,11.6,2.8,28.2-7.7,36.2
	c-12.9,9.8-31,0-31.3-15.7c-0.1-3.4,0-6.8,0-10.2v-221.3c0-4-0.3-8.3,0.9-12.2C2048,2584.2,2055.5,2578.6,2064,2578.6
	c7.7-0.2,7.7-12.2,0-12c-17.3,0.3-31.3,14.3-31.5,31.7c-0.1,3.9,0,7.8,0,11.7v209.9c0,5,0,10,0,15c0.1,13,7,24.9,19.2,30.1
	c18.1,7.7,39.9-3.6,43.3-23.2c0.8-4.3,0.6-8.8,0.6-13.2v-208c0-14.3,2.4-31-7.5-42.8c-6-7.1-14.8-11.1-24-11.2
	C2056.3,2566.6,2056.3,2578.6,2064,2578.6z"/>
<path class="st3" d="M1977.7,2682.5c9.9,0,18-8.1,18-18l0,0c0-9.9-8.1-18-18-18h-50.6v35.9L1977.7,2682.5z"/>
<path class="st2" d="M1977.7,2688.5c12.3-0.5,22.6-9.4,23.8-21.9c0.9-11.7-6.7-22.5-18.2-25.3c-5-1.2-10.5-0.7-15.6-0.7h-40.7
	c-3.3,0-6,2.7-6,6v35.9c0,3.3,2.7,6,6,6H1977.7c7.7,0,7.7-12,0-12h-50.6l6,6v-35.9l-6,6h39.9c4.7,0,11.1-1,15.5,1
	c11.8,5.2,7.5,22.4-4.8,22.9C1970,2676.8,1969.9,2688.8,1977.7,2688.5z"/>
<path class="st3" d="M1977.7,2787.5c9.9,0,18-8,18-17.9l0,0c0-9.9-8.1-18-18-18l0,0h-50.6v35.9L1977.7,2787.5z"/>
<path class="st2" d="M1977.7,2793.5c12.3-0.5,22.6-9.4,23.8-21.9c0.9-11.7-6.7-22.4-18.2-25.3c-5-1.2-10.5-0.7-15.6-0.7h-40.7
	c-3.3,0-6,2.7-6,6v35.9c0,3.3,2.7,6,6,6H1977.7c7.7,0,7.7-12,0-12h-50.6l6,6v-35.9l-6,6h39.9c4.7,0,11.1-1,15.5,1
	c11.8,5.2,7.5,22.4-4.8,22.9C1970,2781.8,1969.9,2793.8,1977.7,2793.5z"/>
<path class="st8" d="M1831.2,2594.5c-47,0.1-85.1,38.2-85.3,85.3v74.6c0.1,47,38.2,85.1,85.3,85.3h60.2v-245.2H1831.2z"/>
<path class="st2" d="M1831.2,2588.5c-37.3,0.4-70.8,23.2-84.8,57.8c-9,22.1-6.4,47.4-6.4,70.8c0,23.4-2.5,48.6,6.4,70.8
	c14,34.6,47.5,57.4,84.8,57.8c20.1,0.1,40.1,0,60.2,0c3.3,0,6-2.7,6-6v-245.2c0-3.3-2.7-6-6-6H1831.2c-7.7,0-7.7,12,0,12h60.2l-6-6
	v245.2l6-6h-56.1c-12,0-23.7-1.5-34.9-6.2c-15.5-6.6-28.5-18-37.2-32.4c-7.4-12.5-11.4-26.8-11.3-41.3c0-8.3,0-16.6,0-24.9v-35.9
	c0-8-0.4-16.1,0.7-24c5.4-38.9,39.6-68.1,78.6-68.4C1838.9,2600.4,1838.9,2588.4,1831.2,2588.5z"/>
<path class="st3" d="M1901.6,2572.6L1901.6,2572.6c14.1,0,25.5,11.4,25.5,25.5v238c0,14.1-11.4,25.5-25.5,25.5l0,0
	c-14.1,0-25.5-11.4-25.5-25.5v-238C1876.1,2584,1887.5,2572.6,1901.6,2572.6z"/>
<path class="st2" d="M1901.6,2855.6c-11.6,0-19.4-9.7-19.5-20.7c0-4.6,0-9.3,0-13.9v-202.2c0-11.6-2.8-28.2,7.7-36.2
	c12.9-9.8,31-0.1,31.3,15.6c0.1,3.4,0,6.8,0,10.2v221.3c0,4,0.3,8.3-0.9,12.2C1917.6,2849.9,1910.1,2855.4,1901.6,2855.6
	c-7.7,0.2-7.7,12.2,0,12c17.3-0.3,31.3-14.4,31.5-31.7c0.1-3.9,0-7.8,0-11.7v-209.9c0-5,0-10,0-15c-0.1-13-7-24.9-19.2-30.1
	c-18.1-7.7-39.9,3.6-43.3,23.2c-0.8,4.3-0.6,8.8-0.6,13.2v208c0,14.3-2.4,31,7.5,42.8c6,7.1,14.7,11.1,24,11.2
	C1909.3,2867.6,1909.3,2855.6,1901.6,2855.6z"/>
<path class="st3" d="M1679.1,2641.1c0,0,142,40.6,123.4,129.8s-132.5-23.6-171.9-23.6c-39.3,0.1-46.8-64.4-15.6-85
	C1646.3,2641.7,1637.5,2624.7,1679.1,2641.1z"/>
<path class="st2" d="M1677.5,2646.9c24.6,7.2,47.9,18,69.2,32.1c16.3,10.7,31.7,24,41.6,40.9c10.4,17.7,12.6,39.1,5.9,58.5
	c-5.5,15.9-17.3,22.5-33.2,20.3c-19.2-2.6-37.5-12.9-54.2-22.2c-17.4-9.6-34.3-20.5-52.5-28.7c-6.9-3.1-14-6-21.6-6.6
	c-9.2-0.7-16.8-2.6-22.7-10.4c-11.7-15.4-11.1-40.5,0.2-55.9c3.4-4.6,7.8-7.4,12.3-10.7c5.3-3.9,10.3-8.2,14.9-12.9
	c5.9-6,10.3-11.7,19.1-10.9C1663.6,2641.4,1670.8,2644.3,1677.5,2646.9c7.2,2.8,10.3-8.8,3.2-11.6c-11.7-4.5-26.3-10.3-38.4-4
	c-9.6,5.1-16.2,15.3-24.8,21.9c-5.3,4.1-11,7.4-15.3,12.6c-3.7,4.6-6.7,9.8-8.7,15.4c-4,11.2-4.9,23.2-2.6,34.8
	c2,10.7,7.2,21.4,15.6,28.5c4.3,3.6,9.3,6.2,14.7,7.6c2.9,0.7,5.9,1,8.9,1.1c0.8,0,1.5,0,2.3,0.1c0.6,0,1.1,0.1,1.6,0.2
	c7.8,1.5,14.9,4.9,21.9,8.4c9.7,4.9,19,10.3,28.4,15.7c19.4,11.1,39.1,22.8,60.5,29.5c16.9,5.3,37.4,6.8,50.6-7.3
	c15.1-16.2,17.6-43.5,12.4-64.1c-5.3-21.2-19.5-39-35.8-52.9c-16.1-13.7-34.5-24.4-53.7-33.2c-11.5-5.3-23.5-10.3-35.7-13.9
	c-0.6-0.2-1.2-0.4-1.8-0.5C1673.3,2633.2,1670.1,2644.8,1677.5,2646.9z"/>
<path class="st2" d="M1741.9,2719.9c7.6,6.9,14.9,14.2,21.7,21.9c10.9,12.1,22.9,26,27.3,42c2.1,7.4,13.7,4.3,11.6-3.2
	c-4.8-17.3-17.1-32.3-28.8-45.5c-7.3-8.3-15.1-16.3-23.3-23.7C1744.7,2706.3,1736.2,2714.8,1741.9,2719.9L1741.9,2719.9z"/>
<path class="st2" d="M1709.2,2741.8c7.6,6.9,14.9,14.2,21.7,21.9c10.9,12.1,22.9,26,27.3,42c2.1,7.4,13.7,4.3,11.6-3.2
	c-4.8-17.3-17.2-32.3-28.8-45.5c-7.3-8.3-15.1-16.2-23.3-23.7C1712,2728.2,1703.4,2736.6,1709.2,2741.8L1709.2,2741.8z"/>
<path class="st4" d="M1545.4,2005.7c0,0-194,59.2-257.8,216.3c-66.2,162.9-50.5,455.6,357.7,539l53.9-126.6
	c0,0-173.8-100.1-166-214.4C1538.8,2339.7,1634.4,2088.9,1545.4,2005.7z"/>
<path class="st2" d="M1650.4,2764.6l47.1-110.6l6.8-16c1.3-3,0.9-6.4-2.2-8.2c-22.6-13-44-28.8-64.1-45.4
	c-36.6-30.2-73.2-67-90.5-112.1c-7.6-19.7-10.2-40.9-7.5-61.8c2.7-20.2,7.5-40.2,12-60.1c12.2-53.5,25.2-106.9,32.2-161.4
	c6.4-49.3,10-104.4-10.3-151.2c-2.1-4.8-4.5-9.5-7.2-14c-4-6.6-14.3-0.6-10.4,6.1c11.6,19.4,16.9,42.1,19.1,64.4
	c2.6,26.7,1.3,53.8-1.6,80.5c-5.9,55.1-18.9,109.2-31.3,163.2c-9.4,40.8-22.6,84-10.7,125.6c13.7,47.5,49.1,87,85.5,119.1
	c15.8,13.8,32.3,26.8,49.5,38.7c8.9,6.2,18,13.2,27.8,18.1c0.4,0.2,0.9,0.5,1.3,0.8l-2.2-8.2l-47.1,110.6l-6.8,16
	C1637,2765.6,1647.4,2771.7,1650.4,2764.6L1650.4,2764.6z"/>
<path class="st3" d="M2278.2,2594.7c0,0-128.1,73.5-88.6,155.6c39.5,82.1,123-54.7,161.2-64.1c38.2-9.4,47.2-62.1,3.6-90.9
	C2336.1,2583.2,2306.9,2578.5,2278.2,2594.7z"/>
<path class="st2" d="M2275.2,2589.5c-25.7,14.8-48.7,33.9-68,56.5c-14.2,16.8-26.6,36.7-30,58.8c-3.5,22.4,2.3,46.6,17.2,64
	c28.4,33.1,70.4-2.2,93.5-23.2c15-13.6,29-28.3,44.5-41.3c2.9-2.5,5.9-4.8,9.1-6.9c1.4-0.9,2.8-1.8,4.2-2.6c0.7-0.4,1.4-0.8,2.1-1.1
	c0.4-0.2,2.1-1,1.2-0.6c4.3-1.8,8.9-2.7,13.2-4.7c5.2-2.5,9.9-5.8,13.8-10c16.7-17.7,17-44.9,4.5-65c-16.6-26.8-49-39.3-79.6-33.5
	C2291.9,2581.8,2283.2,2585,2275.2,2589.5c-6.7,3.8-0.7,14.2,6.1,10.4c27.2-15,60.9-12.2,82.5,11.1c14,15.1,19.4,39.4,5.8,56.6
	c-3.1,3.9-7,7.1-11.5,9.5c-3.7,2-7.6,2.7-11.5,4.1c-6.4,2.3-12,6.2-17.4,10.4c-14.4,11.2-27.2,24.4-40.4,36.8
	c-13.6,12.8-27.6,26-44.1,35.1c-12,6.6-25.5,10.4-36.5,1.9c-14.8-11.4-21-34.1-19.9-51.9c1.2-19.7,11.2-38.1,23-53.5
	c18.6-24,43-43.2,68.6-59.2l1.5-0.9C2287.9,2596,2281.9,2585.6,2275.2,2589.5z"/>
<path class="st2" d="M2225.8,2680.1c-6.2,9.2-11.9,18.7-17,28.6c-8.2,15.6-16.5,33.2-17,51.1c-0.2,7.7,11.8,7.7,12,0
	c0.5-16.5,8.9-32.9,16.5-47.2c4.8-9.1,10.1-17.9,15.8-26.4C2240.5,2679.8,2230.2,2673.8,2225.8,2680.1L2225.8,2680.1z"/>
<path class="st2" d="M2262.8,2693.4c-6.2,9.2-11.9,18.7-17,28.6c-8.2,15.7-16.5,33.2-17,51.1c-0.2,7.7,11.8,7.7,12,0
	c0.5-16.5,8.9-32.9,16.5-47.2c4.8-9.1,10.1-17.9,15.8-26.4C2277.5,2693.1,2267.2,2687.1,2262.8,2693.4L2262.8,2693.4z"/>
<path class="st4" d="M2025.6,1982.1c0,0-14.7,224.8,126,390c0,0,73,25.5,100,90c28,67,2.9,132.5,2.9,132.5l127.1,117.2
	c0,0,114.7-56.2,132.1-194.7C2533.6,2358.1,2417.6,2062.1,2025.6,1982.1z"/>
<path class="st2" d="M2408.3,2662.4l-81.9-77.3l-11.8-11.1c-5.6-5.3-14.1,3.2-8.5,8.5l81.9,77.3l11.8,11.1
	C2405.5,2676.1,2414,2667.7,2408.3,2662.4L2408.3,2662.4z"/>
<path class="st2" d="M2143.9,2513.2c17-74.9,29.4-151.6,30.3-228.6c0.3-21.6-0.5-43.3-2.5-64.8c-0.7-7.6-12.7-7.7-12,0
	c7.2,76.7-1.2,154.4-15,229.9c-3.7,20.2-7.8,40.2-12.4,60.2C2130.6,2517.5,2142.2,2520.7,2143.9,2513.2L2143.9,2513.2z"/>
<path class="st3" d="M1143.6,2610.1h280.3c93.2,0,168.8,75.6,168.8,168.8v280.3c0,93.2-75.6,168.8-168.8,168.8h-280.3
	c-93.2,0-168.8-75.6-168.8-168.8V2779C974.8,2685.7,1050.3,2610.1,1143.6,2610.1z"/>
<path class="st2" d="M918.1,2735.7v267c0,7-0.1,14,0.2,21.1c1.3,27.8,9.2,54.9,23,79c27.8,48,76.5,80.1,131.5,86.9
	c21.4,2.6,43.8,1.2,65.3,1.2h214.5c6.8,0,13.5,0,20.3,0c24,0,47.8-5,69.9-14.5c49.8-21.6,87.9-66.9,100.5-119.6
	c5.9-24.8,4.8-50.1,4.8-75.3v-216c0-27.1,0.6-53.8-7.5-80.1c-16-52.4-56.6-95.1-108-113.9c-19.5-7-40-10.6-60.7-10.5h-239.4
	c-23.3,0-47.2-1.3-70.2,2.7c-53.8,9.4-101.4,45.4-125.7,94.2C924.5,2682,918.2,2708.7,918.1,2735.7c0,7.8,12,7.8,12,0.1
	c0.2-53.7,27.4-105,72.1-135c22.3-15.1,48-24.4,74.7-27.1c8.7-0.8,17.4-0.8,26.2-0.8h203.1c22.1,0,44.1,0,66.1,0
	c47.8,0,93.2,20.8,124.5,57c17.4,20.2,29.5,44.4,35.4,70.3c3,13.4,3.9,26.9,3.9,40.5v271.4c0,42.3-14.3,82.8-43.3,114.1
	c-31.3,33.7-75.3,52.7-121.2,52.6h-270.2c-10.4,0-20.8-0.1-31.1-1.5c-26.4-3.8-51.4-14-72.9-29.7c-41.9-30.4-67-80-67.2-131.7
	c-0.1-19.5,0-39,0-58.5v-221.7C930.1,2727.9,918.1,2727.9,918.1,2735.7z"/>
<path class="st3" d="M2754.9,2835.4h280.3c93.2,0,168.8,75.6,168.8,168.8v280.3c0,93.2-75.6,168.8-168.8,168.8h-280.3
	c-93.2,0-168.8-75.6-168.8-168.8v-280.3C2586.1,2911,2661.7,2835.4,2754.9,2835.4z"/>
<path class="st3" d="M3435.5,3505.4h280.3c93.2,0,168.8,75.6,168.8,168.8v280.3c0,93.2-75.6,168.8-168.8,168.8h-280.3
	c-93.2,0-168.8-75.6-168.8-168.8v-280.3C3266.6,3581,3342.2,3505.4,3435.5,3505.4z"/>
<path class="st3" d="M2608.4,1360.4h280.3c93.2,0,168.8,75.6,168.8,168.8v280.3c0,93.2-75.6,168.8-168.8,168.8h-280.3
	c-93.2,0-168.8-75.6-168.8-168.8v-280.3C2439.6,1436,2515.2,1360.4,2608.4,1360.4z"/>
<path class="st3" d="M4892.4,2073.4h280.3c93.2,0,168.8,75.6,168.8,168.8v280.3c0,93.2-75.6,168.8-168.8,168.8h-280.3
	c-93.2,0-168.8-75.6-168.8-168.8v-280.3C4723.6,2149,4799.2,2073.4,4892.4,2073.4z"/>
<circle class="st7" cx="2895.4" cy="2278.4" r="58.4"/>
<path class="st3" d="M2947.7,2278.4c-0.3,21.8-13.9,42-34.6,49.3c-21.1,7.4-44.6,0.8-58.7-16.6c-13.7-17.1-15-41.7-3.6-60.3
	c11.4-18.6,33.9-28.3,55.2-23.7C2930.2,2232.4,2947.5,2253.7,2947.7,2278.4c0.1,7.7,12.1,7.7,12,0c-0.2-26.9-17-50.9-42.2-60.4
	c-25.1-9.4-54.6-1.4-71.6,19.2c-17.1,20.9-19.8,50.9-5.8,74.2c14.1,23.2,41.1,35.2,67.8,30.1c30-5.7,51.5-33,51.9-63.1
	C2959.8,2270.7,2947.8,2270.7,2947.7,2278.4z"/>
<circle class="st8" cx="3795.8" cy="3136.3" r="58.4"/>
<circle class="st4" cx="3484.7" cy="3143.3" r="58.4"/>
<circle class="st1" cx="1134.8" cy="1592.1" r="58.4"/>
<path class="st2" d="M2860.6,1959.9h-280.3c-46.2,0.1-90.6-18.4-123.1-51.2c-32.8-32.6-51.3-76.9-51.2-123.1v-280.3
	c-0.1-46.2,18.4-90.6,51.2-123.1c32.6-32.8,76.9-51.2,123.1-51.2h280.3c46.2-0.1,90.6,18.4,123.1,51.2
	c32.8,32.6,51.3,76.9,51.2,123.1v280.3c0.1,46.2-18.4,90.6-51.2,123.1C2951.1,1941.5,2906.8,1960,2860.6,1959.9z M2580.3,1341.9
	c-43.3,0-84.9,17.2-115.4,48c-30.8,30.5-48,72-48,115.4v280.3c0,43.3,17.2,84.8,48,115.3c30.5,30.8,72,48,115.4,48h280.3
	c43.3,0,84.9-17.2,115.4-48c30.8-30.5,48-72,48-115.4v-280.3c0-43.3-17.2-84.8-48-115.3c-30.5-30.8-72-48-115.4-48H2580.3z"/>
<path class="st2" d="M3624.6,1416.9h-280.3c-46.2,0.1-90.6-18.4-123.1-51.2c-32.8-32.6-51.3-76.9-51.2-123.1V962.2
	c-0.1-46.2,18.4-90.6,51.2-123.1c32.6-32.8,76.9-51.2,123.1-51.2h280.3c46.2-0.1,90.6,18.4,123.1,51.2
	c32.8,32.6,51.3,76.9,51.2,123.1v280.3c0.1,46.2-18.4,90.6-51.2,123.1C3715.1,1398.5,3670.8,1417,3624.6,1416.9z M3344.3,798.9
	c-43.3,0-84.9,17.2-115.4,48c-30.8,30.5-48,72-48,115.4v280.3c0,43.3,17.2,84.9,48,115.4c30.5,30.8,72,48,115.4,48h280.3
	c43.3,0,84.9-17.2,115.4-48c30.8-30.5,48-72,48-115.4V962.3c0-43.3-17.2-84.8-48-115.3c-30.5-30.8-72-48-115.4-48H3344.3z"/>
<path class="st2" d="M4467.6,2056.9h-280.3c-46.2,0-90.6-18.4-123.1-51.2c-32.8-32.6-51.3-76.9-51.2-123.1v-280.3
	c-0.1-46.2,18.4-90.6,51.2-123.1c32.6-32.8,76.9-51.2,123.1-51.2h280.3c46.2-0.1,90.6,18.4,123.1,51.2
	c32.8,32.6,51.3,76.9,51.2,123.1v280.3c0.1,46.2-18.4,90.6-51.2,123.1C4558.1,2038.5,4513.8,2057,4467.6,2056.9z M4187.3,1438.9
	c-43.3,0-84.9,17.2-115.4,48c-30.8,30.5-48,72-48,115.4v280.2c0,43.3,17.2,84.9,48,115.4c30.5,30.8,72,48,115.4,48h280.3
	c43.3,0,84.9-17.2,115.4-48c30.8-30.5,48-72,48-115.4v-280.3c0-43.3-17.2-84.9-48-115.4c-30.5-30.8-72-48-115.4-48L4187.3,1438.9z"
	/>
<path class="st2" d="M5225.6,2661.9h-280.3c-96.2-0.3-174.1-78.2-174.4-174.3v-280.3c0.3-96.2,78.2-174,174.4-174.3h280.3
	c96.2,0.3,174.1,78.2,174.3,174.3v280.3C5399.6,2583.8,5321.7,2661.7,5225.6,2661.9z M4945.3,2043.9
	c-90.1,0.3-163.1,73.2-163.4,163.3v280.3c0.3,90.1,73.2,163.1,163.4,163.4h280.3c90.1-0.3,163.1-73.2,163.3-163.3v-280.3
	c-0.3-90.1-73.3-163-163.3-163.3H4945.3z"/>
<g id="hny8yY.tif">
	<path d="M2897.4,1670.8c-34.2-0.3-61.8-28.2-61.5-62.5c0-0.3,0-0.6,0-0.9c0.5-34.5,28.7-61.3,64-60.8c33.7,0.5,61,28.9,60.6,62.9
		C2959.9,1643.9,2931.7,1671.2,2897.4,1670.8z M2935.8,1608.8c0-20.7-16.7-37.6-37.5-37.8c-20.7,0-37.6,16.6-37.9,37.4
		c-0.2,20.7,16.6,37.9,37.1,38.1c20.9,0.2,38-16.5,38.2-37.4C2935.8,1608.9,2935.8,1608.8,2935.8,1608.8L2935.8,1608.8z"/>
	<path d="M2530.8,1588.9c7.5,0,14.2,0.3,20.7-0.2c1.8-0.1,3.9-2.6,5-4.5c7.9-13.3,15.7-26.7,23.3-40.2c2.6-4.7,5.9-6.7,11.2-6.5
		c6.8,0.3,13.5,0.1,21.7,0.1c-1.8,3.6-2.8,5.7-4,7.7c-9.7,16.9-19.3,33.8-29.3,50.6c-2.6,4.4-2.7,7.7,0,12.1
		c10.2,17.1,20.1,34.4,30,51.7c1.2,2,2.1,4.1,3.8,7.6c-9.6,0-18,0.4-26.2-0.3c-2.3-0.2-4.9-3.5-6.4-5.9c-8.2-13.7-16.2-27.4-24-41.4
		c-2.1-3.8-4.4-5.5-8.9-5.2c-5.2,0.4-10.6,0.1-17,0.1c0,10.4,0,20.2,0,30.1c0,9-0.2,9.3-9.3,9.3c-18.9-0.1-16.1,2.1-16.2-16.2
		c-0.1-26.3,0.2-52.7-0.2-79c-0.1-6.5,1.6-9.1,8.5-8.8c20,0.7,16.9-2.8,17.2,17.4C2530.9,1574.1,2530.8,1580.9,2530.8,1588.9z"/>
	<path d="M2698,1550.5c9.5,0,17.9-0.4,26.2,0.3c2.3,0.2,4.8,3.6,6.3,6.1c12.6,21.3,24.9,42.8,37.3,64.3c1.2,2,2.5,4,4.2,6.7
		c1.6-2.5,2.8-4.3,3.9-6.1c14.9-25.8,30-51.7,44.7-77.6c2.8-4.9,6.2-6.9,11.7-6.6c6.6,0.3,13.1,0.1,21.2,0.1
		c-1.7,3.4-2.6,5.6-3.7,7.5c-22,38.1-44.1,76.2-66.2,114.3c-6.7,11.6-16.6,11.7-23.3,0.2c-19.7-34.1-39.4-68.2-59.1-102.3
		C2700.1,1555.4,2699.3,1553.5,2698,1550.5z"/>
	<path d="M2651.5,1575.6l-22.7,39.2c7.1,0,13-0.6,18.7,0.2c3.3,0.4,7.2,2.3,9.2,4.9c4.5,5.9,8,12.5,13.1,20.7
		c-7.3,0-12.9-0.8-18.1,0.1c-17.2,3.1-26.2-4.4-34.6-19.4c-8.1-14.3-9.9-24.9,0.2-38.5c8.6-11.4,14.6-24.8,21.9-37.2
		c6.8-11.6,18.1-11.7,24.8-0.2c22.2,38.3,44.3,76.7,66.5,115c1,1.7,1.7,3.5,3.1,6.4c-9.7,0-18.4,0.4-27.1-0.3c-2-0.2-4.2-3.7-5.6-6
		c-15-25.6-29.8-51.3-44.6-77C2654.8,1581.4,2653.5,1579.1,2651.5,1575.6z"/>
	<path d="M2505.5,1731.3v-31.7c9.2,0.5,18.7-2.5,26,5.7c4.1,4.7,4.7,13.4,1.2,18.7C2526,1734.1,2515.6,1730.8,2505.5,1731.3z
		 M2508.5,1728.6c8.4,0.1,16.7,1.9,21.5-6.4c2.8-4.9,2.7-10.4-0.9-14.9c-5.5-6.9-13.1-5.3-20.6-5V1728.6z"/>
	<path d="M2688.4,1700h23.8v1.5h-21v12h17.5l0.2,2.2l-17.8,0.9v12.5h21.3c0,0.6,0,1.2-0.1,1.7h-23.8V1700z"/>
	<path d="M2800.2,1727.6c-6.2,5.2-14.3,5.7-19.5,1.8c-4.4-3.3-5.8-10-3.4-15.6c2.4-5.8,8.7-8.8,14.7-7.1c3.3,1.3,6.1,3.7,7.9,6.8
		c2.2,4,0.9,7.2-4.8,6.8c-4.6-0.3-9.3,0-13.9,0.2c-0.4,0-0.7,0.4-1.1,0.7C2781.6,1729.5,2784.5,1730.5,2800.2,1727.6z
		 M2797.1,1717.5c1-5.8-2-8-6.7-8.6c-5.5-0.7-9,2.3-10.2,8.6H2797.1z"/>
	<path d="M2545.6,1720.2c2.2,9.2,3.5,9.6,19.6,7.8c-4.6,4.9-13.5,5.5-18.8,1.2c-4.8-3.9-5.8-12-2.1-17.4c3.6-5.3,11.6-7.5,17.1-4
		c2.3,1.5,4,4.5,4.9,7.2c1.1,3.1,0,5.5-4.3,5.3C2556.7,1720,2551.4,1720.2,2545.6,1720.2z M2563.3,1717.5c0.1-6.5-3.1-8.8-8.2-8.7
		c-5.3,0.1-8.8,2.7-9.5,8.7H2563.3z"/>
	<path d="M2842.7,1720.2c1.7,9.1,4.2,10,19.3,7.7c-4.2,5-13.3,5.6-18.7,1.3c-4.8-3.9-5.8-12.1-2-17.5c3.8-5.5,12.8-7.7,17.7-3.5
		c2.4,2.1,3,6.4,4.4,9.6c-2.5,0.8-4.9,2.1-7.4,2.3C2851.6,1720.5,2847.2,1720.2,2842.7,1720.2z M2859.9,1717.5c1-5.7-2-8.2-6.7-8.6
		c-5.6-0.4-9.6,2-10.7,8.6H2859.9z"/>
	<path d="M2955.1,1720.1h-19.6c0.8,8.8,2.5,9.5,19.1,7.8c-4.5,4.7-12.9,5.5-18.3,1.7c-4.8-3.3-6.3-11.1-3.4-16.7
		c2.8-5.4,9.8-8.2,16-6.1S2956.6,1713.5,2955.1,1720.1z M2935,1717.1h17.7c0.2-5.7-2.7-8-7.1-8.3
		C2940.2,1708.5,2936.2,1710.7,2935,1717.1L2935,1717.1z"/>
	<path d="M2647.3,1715.9c-2.3-10-9.7-5.6-16.7-6.2c5.8-3.7,10.7-4.5,14.7-1.9c2.6,1.6,4.2,5.8,4.8,9.1c0.8,4.5,0.2,9.2,0.2,13.6
		c-2.7,0.1-5.4,0.4-8.1,0.9c-6.9,1.6-12-0.7-12.8-5.7c-0.8-5.4,2.9-9,10.1-9.6C2641.8,1715.7,2644.2,1715.9,2647.3,1715.9z
		 M2647.2,1720.8c-1.2-0.6-3.1-2.4-5.2-2.5c-4.3-0.3-9.1,0.5-9.3,5.8c-0.1,1.7,4.1,4.7,6.6,5.1
		C2643.2,1729.6,2647.3,1728.3,2647.2,1720.8L2647.2,1720.8z"/>
	<path d="M2872.4,1730.9v-22.5c2.9-0.4,5.6-0.4,8-1.2c7.8-2.6,13.9,1,14.6,9.2c0.4,4.8,0.1,9.8,0.1,14.6l-3.2,0.1
		c0-4.7,0.1-9.4,0-14.1c-0.2-5-3-7.9-8-7.8c-4.6,0.1-8.2,2.2-8.6,7.4c-0.2,2.6,0,5.3-0.1,8c-0.1,2.2-0.3,4.4-0.5,6.6L2872.4,1730.9z
		"/>
	<path d="M2728.8,1719.2l-8.7-11l1.6-1.5l9.6,10.1l9.6-10.1l2.6,0.9c-10.4,7.9-10.8,15.6,0.4,23l-2.6,1.3l-10.1-10l-9.6,10.1
		l-1.6-1.4L2728.8,1719.2z"/>
	<path d="M2575.5,1730.9v-22.3c2.7-0.4,5.3-0.4,7.7-1.3c8.1-2.8,14.3,0.9,14.8,9.5c0.3,4.7,0.1,9.5,0.1,14.2l-3,0.1
		c0-3.7,0-7.5,0-11.2c-0.1-7.3-2.6-10.6-8-10.6c-5.7,0-8.9,3.6-9,10.5c-0.1,3.7,0,7.5,0,11.2L2575.5,1730.9z"/>
	<path d="M2769.9,1710.5c-6.1-1.6-12.7-3.8-16.6,2.7c-1.7,2.8-2.1,8-0.6,10.9c3.8,7.4,10.8,5.3,18.6,2.6c-6,6.4-14,6.7-19.3,2
		c-5-4.8-5.5-12.6-1-17.9C2755.7,1705.2,2764.1,1704.8,2769.9,1710.5z"/>
	<path d="M2924.7,1727.6c-4.5,5.6-12.6,5.7-17.7,0.8c-5.1-5.1-5.2-13.3-0.2-18.4c5.2-5.1,13.8-4.9,19.1,1.2
		c-7.4-2.3-14.6-4.6-18.3,3.4c-1.3,2.8-0.9,7.7,0.8,10.4C2912.3,1731.1,2918.6,1729.8,2924.7,1727.6z"/>
	<path d="M2606.1,1707.7l5.2-6.9l1.5,5.7l9.5,1.1v1.2l-9.3,1c-3.2,16.7-1.5,19.7,10.3,18.8l0.3,1.9c-3.5,0.3-7.2,1.4-10.3,0.5
		c-1.9-0.6-3.4-4.2-4-6.6c-0.7-2.9,0.2-6.2-0.3-9.2C2608.6,1712.6,2607.2,1710.4,2606.1,1707.7z"/>
	<path d="M2663,1698.4v11.9c0,3.7,0,7.5,0,11.2c0,6.7,0.1,6.7,5.8,8.6c-6.3,2.7-8.7,1.5-8.8-4.7c-0.2-9,0-17.9,0-26.9L2663,1698.4z"
		/>
	<path d="M2818.8,1729.7c-7.7,2.7-9.5,1.7-9.6-4.8c-0.2-8.8,0-17.6,0-26.4l2.4-0.1c0.2,2.4,0.6,4.7,0.7,7.1c0.1,5.5,0,11,0,16.5
		C2812.3,1725.9,2811.6,1730.6,2818.8,1729.7z"/>
	<path d="M2828.2,1698.5c0,7.8,0.1,15.6,0,23.4c-0.1,4.2,0,8.2,6.2,8.2c-3.8,1.6-8.3,2.9-8.7-2c-0.9-9.8-0.3-19.7-0.3-29.6H2828.2z"
		/>
	<path class="st3" d="M2935.8,1608.7c-0.1,20.9-17.1,37.8-38,37.7c-0.1,0-0.1,0-0.2,0c-20.5-0.2-37.3-17.5-37.1-38.1
		c0.3-20.7,17.2-37.4,37.9-37.3C2919.1,1571.2,2935.8,1588,2935.8,1608.7z"/>
	<path class="st3" d="M2508.5,1728.6v-26.3c7.4-0.3,15.1-2,20.6,5c3.6,4.5,3.7,10,0.9,14.9
		C2525.2,1730.5,2516.9,1728.7,2508.5,1728.6z"/>
	<path class="st3" d="M2797.1,1717.5h-16.9c1.2-6.3,4.7-9.3,10.2-8.6C2795,1709.4,2798,1711.7,2797.1,1717.5z"/>
	<path class="st3" d="M2563.3,1717.5h-17.7c0.8-6,4.2-8.6,9.5-8.7C2560.1,1708.7,2563.3,1711.1,2563.3,1717.5z"/>
	<path class="st3" d="M2859.9,1717.5h-17.4c1.1-6.6,5.1-9,10.7-8.6C2857.9,1709.3,2860.9,1711.7,2859.9,1717.5z"/>
	<path class="st3" d="M2935,1717.2c1.3-6.5,5.2-8.7,10.6-8.3c4.4,0.3,7.3,2.6,7.1,8.3H2935z"/>
	<path class="st3" d="M2647.1,1720.8c0.2,7.5-3.9,8.8-7.8,8.3c-2.5-0.3-6.7-3.4-6.6-5.1c0.2-5.3,5-6.1,9.3-5.8
		C2644,1718.4,2645.9,1720.2,2647.1,1720.8z"/>
</g>
<g id="dQurOd.tif">
	<path class="st9" d="M4418.7,1733.3c7.3-18.5,14.3-33.8,19.3-49.7c3.2-10.2,8.2-13.4,18.9-12.8c17.6,1,17.6,0.2,11,16.6
		c-15.1,37.4-30.1,74.8-45.2,112.3c-1,2.5-1.6,5-5.1,7.4c-8.4-20.9-16.7-41.5-26.3-65.4c-9.5,23.8-17.8,44.6-26.4,66.2
		c-5.1-3.2-4.8-8.3-6.2-12.1c-14.7-38.7-28.8-77.6-43.5-116.4c-2.4-6.4-2.1-8.5,5.5-8.6c22.2-0.4,22.2-0.7,29.1,19.9
		c4.3,12.9,8.6,25.9,14.1,42.4c9.7-21.2,18.1-39.5,27.5-60L4418.7,1733.3z"/>
	<path class="st9" d="M4222.2,1806c10.7-15.2,21.3-30.5,32.3-45.5c3.2-4.4,0.7-7.1-1.4-10.1c-7.6-10.9-15.4-21.8-23.1-32.7
		c-1.5-2.1-4.4-4.1-3.3-6.9c1.5-3.6,5.4-1.3,8.2-1.9c16.1-3.6,24.9,5.4,31.4,18.1c3.8,7.5,7.4,7.7,11.6,0.3c1.9-3.3,4-6.5,6.3-9.5
		c5-7.2,24-12.6,31.8-8.6c5.6,2.9,0.5,5.7-1.1,7.9c-7,9.7-14.3,19.3-21.6,28.9c-5.2,6.8-5.4,12.8,0.3,20.1
		c9.7,12.2,18.2,25.4,27.4,38.1c3.4,4.7,3.9,6.6-3.3,7.3c-14.6,1.5-26.3-1.2-32.9-15.9c-2-4.4-5.7-8.1-8.4-12.3
		c-3-4.7-5.5-4.6-8.1,0.2c-0.5,1-1.6,1.7-2,2.8c-9.5,23.1-27.6,27.2-50.7,25.3c-23.7-1.9-23.8-0.5-23.8-24.3
		c0-22.1,0.6-44.2-0.2-66.2c-0.4-10.8,3.4-14.3,13.5-12.8c1.9,0.3,3.8,0.3,5.8,0c7.3-1,9.1,2.5,9,9.2c-0.3,26.3-0.2,52.5-0.2,78.8
		v8.8L4222.2,1806z"/>
	<path class="st9" d="M4523.7,1773.4c0,10.5-0.1,21,0,31.5c0.1,8.4-6.3,6.7-10.6,6.1c-5-0.8-14.1,4.7-14.3-5.6
		c-0.5-31-0.2-62.1-0.2-96.2l65.8,62.7c0-19.5,0.7-35.7-0.3-51.8c-0.6-9.5,2.6-12,11.5-11.2c7.2,0.7,13.9-1.5,13.6,10.5
		c-0.9,35.4-0.2,70.8-0.2,106.2c0,2.1-0.4,4.3-0.7,8.5l-61-62.5L4523.7,1773.4z"/>
	<path class="st9" d="M4144,1741.3c9.1-21.8,17.4-40.2,24.4-59.1c3.4-9,8.3-12.8,17.7-11.2c2.6,0.4,5.3,0.4,8,0.1
		c9.5-1.3,9.9,1.9,6.4,9.8c-18.4,40.5-36.2,81.3-54.2,122c-0.8,1.7-1,3.7-4,4.6c-5.5-7.9-8.2-17.3-12.1-26.1
		c-14.6-32.5-29.1-65.1-43.4-97.8c-5.4-12.4-5.2-12.5,8.2-12.5c18.6,0,18.5,0,25.9,17.6C4128,1705.3,4135.4,1721.8,4144,1741.3z"/>
	<path class="st9" d="M4490,1759.8c0,14.1-0.3,28.2,0.1,42.3c0.2,6.8-1.9,9.2-9.1,9.2c-17.3,0-17.4,0.3-17.4-17
		c0-25.5,0.6-51.1-0.2-76.6c-0.4-12.8,8-9,14.5-9.4c6.5-0.4,12.8-1.2,12.1,9.3c-0.9,14-0.2,28.2-0.2,42.3L4490,1759.8z"/>
	<path class="st10" d="M4529,1841c-5.6,2.2-10.1,12.5-17.2,1.2c-2.3-3.6-3.7,3.7-5.5,5.9c-2.1,2.5-3,7.6-7.1,5.8
		c-5-2.2-0.4-5.8,0.7-8.4c2.4-6,5.6-11.6,8.1-17.5c1.1-2.6,2.5-5,5.5-5.1c3.8-0.2,5.1,2.8,5.8,5.9c1.9,8.4,5,8,11.4,3.1
		c4.3-3.3,8.9-12.4,14.5-7.5c4.6,4-3.2,10.4-4.9,15.9c-0.5,1.4-1.2,2.8-1.9,4.1c-2.1,4.2-3.2,11.5-9.2,9.4
		C4522.7,1851.4,4532,1846.5,4529,1841z"/>
	<path class="st10" d="M4095,1854.8c-7.6,1.3-10.3-1.8-4.6-10.9c2.3-3.8,4-8,6-12.1c4.1-8.3,13.7-12.3,22.4-9.2
		c4,1.3,3.1,3.6,1.9,6.1c-3.5,7.1-7.2,14.1-10.5,21.3C4107.4,1856.1,4102.1,1854.2,4095,1854.8z"/>
	<path class="st10" d="M4424.2,1829.4c-3.1,6.3-7,15-11.7,23.2c-1.9,3.3-5.4,2.3-7.6-0.6c-1.9-2.4-3.5-4.9-4.9-7.6
		c-3.1-6-5.6-7.8-9.6-0.2c-2.1,3.9-2.9,13.1-9.8,9c-4.7-2.8,1.8-8.3,3.8-12.5c0.6-1.4,1.3-2.7,2-4.1c7.9-17,8-17,19-2.4
		c3.8,5,6,4.8,8.5-0.8c1.3-3.1,3-6.1,5-8.9c0.6-0.9,2.8-1.3,4-1C4424.5,1823.8,4425.1,1825.4,4424.2,1829.4z"/>
	<path class="st10" d="M4232.5,1851.4c9.5-9,18.9-18.3,28.9-26.8c4.5-3.8,8.8-2.6,9,4.3c0.2,6.9,0.2,13.7,0.2,20.6
		c0,3.7-2.5,7.1-5.4,4.1c-9-9.2-17.1-4.2-25.6,0.2C4237.8,1854.7,4236,1854.8,4232.5,1851.4z"/>
	<path class="st10" d="M4169.3,1828.1c-2,8.4-5.6,14.8-14.9,15.2c-8.2,0.4-17.1-1.5-20.7,9.3c-0.6,1.8-3,2.5-4.9,1.3
		s-1.5-3.3-0.6-5.1c3.6-7.5,7-15.1,10.9-22.4c2.2-4.1,25.9-5.6,28.8-2.1C4168.8,1825.3,4168.9,1826.9,4169.3,1828.1z M4151.9,1829.3
		c-2.9,0.9-7.6-0.9-7.9,4.2c-0.2,3.9,3.6,3.1,6.1,3.1c3.3,0,8,0.5,8.6-3.7C4159.4,1827.9,4154.6,1830.1,4151.9,1829.3z"/>
	<path class="st10" d="M4454.3,1854.5c-15.4-0.1-16.5-1.9-10-15.4c2.2-4.4,4.4-8.8,6.7-13.2c1.4-2.6,3.8-4.2,6.6-2.5
		c2.6,1.5,1.3,3.9,0.3,6c-1.5,3.1-3.3,6-4.3,9.3c-0.9,2.8-5.8,6.7-0.7,8.4c4.3,1.4,10.7,3.4,13.9-3.4c2.6-5.5,5.2-10.9,8-16.3
		c1.2-2.4,3.5-3,5.9-2c1.7,0.6,1.3,2.4,1.2,3.9C4481.1,1843.3,4468.9,1854.6,4454.3,1854.5z"/>
	<path class="st10" d="M4070.2,1854.5c-6.4,0.5-8.8-1.4-5.4-7.8c3.4-6.3,6.4-12.8,9.5-19.4c3-6.5,9.2-6.2,13.7-4.2
		c6.2,2.7,0.4,7-0.8,10.3c-1.8,5-4.3,9.6-6.4,14.5S4075.4,1855.3,4070.2,1854.5z"/>
	<path class="st10" d="M4318.2,1822.7c1.1-0.1,2.3-0.1,3.4,0c4.2,0.9,11.4-2.5,12,2.5c0.9,6.9-6.6,3.5-10.4,4.5
		c-4.8,1.3-6.1,5.4-8,9c-2.1,4-3.8,8.2-5.9,12.2c-1.3,2.4-3.6,4.4-6.6,3.2c-4.2-1.8-0.8-4.4-0.1-6.5c1.1-3.2,2.5-6.3,4-9.4
		c2-4.3,4.9-8.7-3.5-8.9c-1.5-0.1-2.6-1.3-2.6-2.8c0-0.1,0-0.2,0-0.3c0.2-2.2,1.9-3.2,3.9-3.2c4.6-0.1,9.1,0,13.7,0V1822.7z"/>
	<path class="st10" d="M4196.7,1854.5c-3.1,0-6.1,0-9.2,0c-3.7-0.1-4.7-1.9-3.2-5.2c3.1-6.9,6.2-13.8,9.2-20.8
		c1.2-2.8,3.2-4.7,6.1-3.3c3.1,1.5,0.6,3.8,0,5.8c-1.1,3.2-1.8,6.6-3.2,9.6c-3.1,6.3,0.3,6.8,5.4,7.1c3.4,0.2,9.4-2.5,9.6,2.6
		c0.2,5.8-6.2,3.7-10,4.2C4199.8,1854.7,4198.3,1854.7,4196.7,1854.5L4196.7,1854.5z"/>
	<path class="st10" d="M4062.9,1822.6c3.7,0.2,4.6,2.1,3.1,5.3c-3.7,7.9-7.3,15.8-11.2,23.5c-1.3,2.8-4.6,4.1-7.4,2.8
		c-0.1-0.1-0.3-0.1-0.4-0.2c-3.6-1.8-0.8-4.8,0-6.8c3-6.9,6.4-13.7,9.6-20.5C4057.6,1824.1,4060.1,1822.5,4062.9,1822.6z"/>
	<path class="st10" d="M4366.2,1826.5c-5.3,8.6-8,19.2-15,27.4c-0.7,0.8-3.1,0.7-4.3,0.2c-2.3-1-1.6-3-0.8-4.8
		c3.9-7.8,7.8-15.7,11.7-23.4c1-2.1,3.4-3.3,5.7-2.8C4365.3,1823.1,4366,1824.2,4366.2,1826.5z"/>
	<path class="st11" d="M4151.9,1829.3c2.7,0.8,7.5-1.4,6.8,3.5c-0.6,4.2-5.2,3.7-8.6,3.7c-2.5,0-6.3,0.9-6.1-3.1
		C4144.3,1828.4,4149,1830.1,4151.9,1829.3z"/>
</g>
<path class="st12" d="M3556.3,1128.5c2-2.8,1.3-5,1.3-7.1c0.1-22.8,0-45.6,0-68.4c0-9.1,1.2-10.3,10.4-10.3c5.6,0,11.2,0.2,16.8-0.1
	c5.8-0.3,7.8,3,8.2,8c0.1,1.6,0,3.2,0,4.8c0,42.2,0,84.4,0,126.6c0,10.3-1.7,10.7-11.5,12.1c-15.9,2.3-25.1-4.4-33.7-17.1
	c-15.2-22.5-32.1-43.9-48.2-65.7c-0.8-1.1-1.7-2.1-2.9-3.6c-1.7,2.2-1.1,4.4-1.1,6.4c0,23.2,0,46.4,0,69.6c0,8.4-1.8,10.1-10.2,10.1
	c-6,0-12,0-18,0c-4.4,0-6.5-2.4-7-6.6c-0.1-1.4-0.1-2.8-0.1-4.2v-129.6c0-10,0.9-10.8,11.1-10.8c3,0,6.1,0.4,9-0.1
	c9.2-1.6,14.4,2.8,19.6,10c17.5,24.6,35.8,48.6,53.8,72.8C3554.5,1126.4,3555.2,1127.2,3556.3,1128.5z"/>
<path class="st12" d="M3614.2,1118.2c0-22,0-44,0-66c0-8.2,1.3-9.5,9.4-9.5c27.9,0,55.7,0,83.6,0c7.7,0,9,1.3,9,9.2
	c0,5.8,0.1,11.6,0,17.4c-0.1,6.2-2.1,8.2-8.4,8.2c-17.4,0-34.9,0.2-52.3-0.1c-4.9-0.1-7,1.2-6.5,6.3c0.3,3.8,0.3,7.6,0,11.4
	c-0.3,4.3,1.5,5.5,5.6,5.5c17-0.2,34.1-0.1,51.1-0.1c8.6,0,10.4,1.8,10.4,10.6c0,5.2,0,10.4,0,15.6c0,7-2.2,9.2-9.4,9.2
	c-16.8,0-33.7,0.3-50.5-0.1c-6-0.1-7.5,1.9-7.4,7.5c0.3,15.7,0.1,15.7,15.7,15.7c14.2,0,28.5,0,42.7,0c7.4,0,8.8,1.4,8.8,8.8
	c0,6,0,12,0,18c0.1,5.4-2.4,8.1-7.9,8.1c-28.7,0-57.3,0-86,0c-6,0-8.1-2.2-8.1-8.5C3614.1,1163,3614.2,1140.6,3614.2,1118.2z"/>
<path class="st13" d="M3283.2,1118.4c0-21.8,0-43.5,0-65.3c0-9.8,0.6-10.4,10.7-10.4c5.2,0,10.4,0,15.6,0c6.9,0,8.5,1.7,8.5,9.2
	c0,33,0,65.9,0,98.9c0,8.3,0,8.2,8,8.2c16.6,0,33.2,0,49.9,0c7.1,0,9.2,2.1,9.2,9.3c0,5.8,0.1,11.6,0,17.4c-0.1,5.8-2.6,8.1-8.6,8.1
	c-28.2,0-56.5,0-84.7,0c-7.3,0-8.6-1.4-8.6-8.9C3283.2,1162.8,3283.2,1140.6,3283.2,1118.4z"/>
<path class="st12" d="M3403.8,1118.5c0-22.2,0-44.4,0-66.5c0-7.6,1.6-9.2,9.1-9.2c5.8,0,11.6,0,17.4,0c6.6,0,8.6,1.8,8.7,8.5
	c0.1,10.8,0,21.6,0,32.4c0,33,0,65.9,0,98.9c0,10.2-1.3,11.4-11.2,11.4c-5,0-10,0-15,0c-7,0-8.9-1.9-8.9-8.9
	C3403.8,1162.8,3403.8,1140.6,3403.8,1118.5z"/>
</svg>
